<svg xmlns="http://www.w3.org/2000/svg" viewBox="0 0 127.33 233.43"><defs><style>.cls-1{fill:#d48428;}.cls-2{fill:#b76d29;}.cls-3{fill:#fdc277;}.cls-4{fill:#231f20;}.cls-5{fill:#f07422;}.cls-6{fill:#fdba40;}.cls-7{fill:#ffc859;}</style></defs><title>SSL</title><g id="Layer_2" data-name="Layer 2"><path class="cls-1" d="M61.84,91.79l-4-8.12a8.68,8.68,0,0,1-6,1.29c-4.15-.65-13.66-6.14-13.66-6.14L33.66,85.6s13.53,9.53,20.39,9C59.54,93.41,61.84,91.79,61.84,91.79Z"/><ellipse class="cls-1" cx="30.04" cy="77.54" rx="4.35" ry="5.23" transform="translate(-44.33 40.34) rotate(-42.25)"/><path class="cls-2" d="M79.47,195.27c-1.12-6.49-9.29-10.5-18.26-9S41.92,182.64,43,189.13l7.36,5.24Z"/><path class="cls-1" d="M95.91,196.94c-1.11-6.49-9.29-10.5-18.26-9s-19.29-3.68-18.17,2.81L66.83,196Z"/><polygon class="cls-3" points="54.79 75.25 92.95 75.25 87.68 44.05 60.06 44.05 54.79 75.25"/><ellipse class="cls-4" cx="69.67" cy="53.43" rx="1.15" ry="2.01"/><ellipse class="cls-4" cx="63.57" cy="53.43" rx="1.15" ry="2.01"/><path class="cls-4" d="M87.17,37.86a10.74,10.74,0,0,0,3.57,21.19"/><ellipse class="cls-5" cx="66.43" cy="46.4" rx="17.52" ry="4.32" transform="translate(-4.28 6.83) rotate(-5.7)"/><ellipse class="cls-6" cx="72.57" cy="42.84" rx="17.52" ry="6.4"/><ellipse class="cls-7" cx="72.57" cy="37.31" rx="19.19" ry="6.4"/><path class="cls-7" d="M73.29,155.12l.59,34,19.92,3.41s1.92-31.39,2.22-37.05c.23-4.17.46-18.09.46-24.16s-2.86-53.55-2.86-53.55H54.12c-5.18,37.05-3.88,47.2-3.88,47.2s1.38,12.62,2.21,20.64,3.24,44.14,3.37,41.61c0,0,8.56,0,10.31.22s7.14.62,7.14.62"/><path class="cls-1" d="M85,81.77l-5,7.44s4.38,9.46,3,13.47-7.33,13.06-7.33,13.06L82,120.88s10.71-12.62,10.74-19.51C94.32,92,85,81.77,85,81.77Z"/><ellipse class="cls-1" cx="73.7" cy="123.77" rx="5.23" ry="4.35" transform="translate(-59.75 69.53) rotate(-37.11)"/></g></svg>