<svg xmlns="http://www.w3.org/2000/svg" viewBox="0 0 127.33 233.43"><defs><style>.cls-1{fill:#d48428;}.cls-2{fill:#b76d29;}.cls-3{fill:#fdc277;}.cls-4{fill:#231f20;}.cls-5{fill:#f07422;}.cls-6{fill:#fdba40;}.cls-7{fill:#ffc859;}</style></defs><title>SSL</title><g id="Layer_2" data-name="Layer 2"><path class="cls-1" d="M61.84,91.79l-4-8.12a8.68,8.68,0,0,1-6,1.29c-4.15-.65-13.66-6.14-13.66-6.14L33.66,85.6s13.53,9.53,20.39,9C59.54,93.41,61.84,91.79,61.84,91.79Z"/><ellipse class="cls-1" cx="30.04" cy="77.54" rx="4.35" ry="5.23" transform="translate(-44.33 40.34) rotate(-42.25)"/><path class="cls-2" d="M42.28,195.27c1.12-6.49,9.3-10.5,18.27-9s19.29-3.67,18.17,2.82l-7.35,5.24Z"/><path class="cls-1" d="M25.84,196.94c1.12-6.49,9.29-10.5,18.26-9s19.29-3.68,18.18,2.81L54.92,196Z"/><polygon class="cls-3" points="66.96 75.25 28.8 75.25 34.07 44.05 61.7 44.05 66.96 75.25"/><ellipse class="cls-4" cx="52.09" cy="53.43" rx="1.15" ry="2.01"/><ellipse class="cls-4" cx="58.18" cy="53.43" rx="1.15" ry="2.01"/><path class="cls-4" d="M34.58,37.86A10.74,10.74,0,1,1,31,59.05"/><ellipse class="cls-5" cx="55.33" cy="46.4" rx="4.32" ry="17.52" transform="translate(3.66 96.84) rotate(-84.3)"/><ellipse class="cls-6" cx="49.18" cy="42.84" rx="17.52" ry="6.4"/><ellipse class="cls-7" cx="49.18" cy="37.31" rx="19.19" ry="6.4"/><path class="cls-7" d="M48.47,155.12l-.6,34L28,192.53S26,161.14,25.73,155.48c-.22-4.17-.46-18.09-.46-24.16s2.86-53.55,2.86-53.55H67.64c5.17,37.05,3.88,47.2,3.88,47.2s-1.39,12.62-2.21,20.64-3.25,44.14-3.38,41.61c0,0-8.55,0-10.31.22s-7.14.62-7.14.62"/><path class="cls-1" d="M36.72,81.77l5,7.44s-4.37,9.46-3,13.47,7.34,13.06,7.34,13.06l-6.34,5.14S29,108.26,29,101.37C27.44,92,36.72,81.77,36.72,81.77Z"/><ellipse class="cls-1" cx="48.06" cy="123.77" rx="4.35" ry="5.23" transform="translate(-79.64 87.41) rotate(-52.89)"/></g></svg>