<svg xmlns="http://www.w3.org/2000/svg" viewBox="0 0 127.33 233.43"><defs><style>.cls-1{fill:#d48428;}.cls-2{fill:#b76d29;}.cls-3{fill:#fdc277;}.cls-4{fill:#231f20;}.cls-5{fill:#f07422;}.cls-6{fill:#fdba40;}.cls-7{fill:#ffc859;}</style></defs><title>SSL_2</title><g id="Layer_2" data-name="Layer 2"><path class="cls-1" d="M58.4,82.91l-5-2.72s-3,7-4.62,10.07c-1.9,3.74-12.08,12.07-12.08,12.07l5,6.44S57,97.87,58.6,91.17C59.23,85.6,58.4,82.91,58.4,82.91Z"/><ellipse class="cls-1" cx="32.97" cy="109.71" rx="5.23" ry="4.35" transform="translate(-41.98 23.08) rotate(-24.14)"/><path class="cls-2" d="M78.84,195.27c-1.12-6.49-9.29-10.5-18.26-9s-19.29-3.67-18.18,2.82l7.36,5.24Z"/><path class="cls-1" d="M95.28,196.94c-1.11-6.49-9.29-10.5-18.26-9s-19.29-3.68-18.17,2.81L66.2,196Z"/><polygon class="cls-3" points="54.16 75.25 92.32 75.25 87.06 44.05 59.43 44.05 54.16 75.25"/><ellipse class="cls-4" cx="69.04" cy="53.43" rx="1.15" ry="2.01"/><ellipse class="cls-4" cx="62.95" cy="53.43" rx="1.15" ry="2.01"/><path class="cls-4" d="M86.54,37.86a10.74,10.74,0,0,0,3.57,21.19"/><ellipse class="cls-5" cx="65.8" cy="46.4" rx="17.52" ry="4.32" transform="translate(-4.28 6.76) rotate(-5.7)"/><ellipse class="cls-6" cx="71.94" cy="42.84" rx="17.52" ry="6.4"/><ellipse class="cls-7" cx="71.94" cy="37.31" rx="19.19" ry="6.4"/><path class="cls-7" d="M72.66,155.12l.6,34,19.92,3.41s1.92-31.39,2.22-37.05c.22-4.17.45-18.09.45-24.16S93,77.77,93,77.77H53.49c-5.18,37.05-3.88,47.2-3.88,47.2s1.38,12.62,2.21,20.64,3.24,44.14,3.37,41.61c0,0,8.56,0,10.31.22s7.15.62,7.15.62"/><path class="cls-1" d="M84.41,81.77l-5,7.44s4.38,9.46,3,13.47-7.33,13.06-7.33,13.06l6.33,5.14s10.71-12.62,10.74-19.51C93.69,92,84.41,81.77,84.41,81.77Z"/><ellipse class="cls-1" cx="73.07" cy="123.77" rx="5.23" ry="4.35" transform="translate(-59.88 69.15) rotate(-37.11)"/></g></svg>