<svg xmlns="http://www.w3.org/2000/svg" viewBox="0 0 127.33 233.43"><defs><style>.cls-1{fill:#d48428;}.cls-2{fill:#b76d29;}.cls-3{fill:#fdc277;}.cls-4{fill:#231f20;}.cls-5{fill:#f07422;}.cls-6{fill:#fdba40;}.cls-7{fill:#ffc859;}</style></defs><title>SSL_1</title><g id="Layer_2" data-name="Layer 2"><path class="cls-1" d="M59.29,87.26l-6.16-6.84s-2.85,5.87-5.9,7.54c-3.67,2-16.67,4.23-16.67,4.23l.54,8.15s18.65-1.46,23.72-6.13C58.46,90,59.29,87.26,59.29,87.26Z"/><path class="cls-1" d="M19.15,95.41c-.42,2.36.56,4.56,3.4,5.06s5.48-1,5.9-3.38-1.54-4.69-4.39-5.19S19.57,93,19.15,95.41Z"/><path class="cls-2" d="M76.77,195.27c-1.11-6.49-9.29-10.5-18.26-9s-19.29-3.67-18.17,2.82l7.35,5.24Z"/><path class="cls-1" d="M93.22,196.94c-1.12-6.49-9.29-10.5-18.26-9s-19.29-3.68-18.18,2.81L64.14,196Z"/><polygon class="cls-3" points="52.1 75.25 90.25 75.25 84.99 44.05 57.36 44.05 52.1 75.25"/><ellipse class="cls-4" cx="66.97" cy="53.43" rx="1.15" ry="2.01"/><ellipse class="cls-4" cx="60.88" cy="53.43" rx="1.15" ry="2.01"/><path class="cls-4" d="M84.48,37.86A10.74,10.74,0,1,0,88,59.05"/><ellipse class="cls-5" cx="63.73" cy="46.4" rx="17.52" ry="4.32" transform="translate(-4.29 6.56) rotate(-5.7)"/><ellipse class="cls-6" cx="69.88" cy="42.84" rx="17.52" ry="6.4"/><ellipse class="cls-7" cx="69.88" cy="37.31" rx="19.19" ry="6.4"/><path class="cls-7" d="M70.59,155.12l.6,34,19.92,3.41s1.92-31.39,2.22-37.05c.22-4.17.46-18.09.46-24.16s-2.86-53.55-2.86-53.55H51.42c-5.18,37.05-3.88,47.2-3.88,47.2s1.39,12.62,2.21,20.64,3.25,44.14,3.38,41.61c0,0,8.55,0,10.31.22s7.14.62,7.14.62"/><path class="cls-1" d="M82.34,81.77l-5,7.44s4.37,9.46,3,13.47S73,115.74,73,115.74l6.34,5.14s10.7-12.62,10.74-19.51C91.62,92,82.34,81.77,82.34,81.77Z"/><ellipse class="cls-1" cx="71" cy="123.77" rx="5.23" ry="4.35" transform="translate(-60.3 67.91) rotate(-37.11)"/></g></svg>