<svg xmlns="http://www.w3.org/2000/svg" viewBox="0 0 127.33 233.43"><defs><style>.cls-1{fill:#d48428;}.cls-2{fill:#b76d29;}.cls-3{fill:#fdc277;}.cls-4{fill:#231f20;}.cls-5{fill:#f07422;}.cls-6{fill:#fdba40;}.cls-7{fill:#ffc859;}</style></defs><title>SSL_2</title><g id="Layer_2" data-name="Layer 2"><path class="cls-1" d="M65.34,82.91l5-2.72s3,7,4.62,10.07C76.83,94,87,102.33,87,102.33l-5,6.44s-15.27-10.9-16.85-17.6C64.51,85.6,65.34,82.91,65.34,82.91Z"/><ellipse class="cls-1" cx="90.76" cy="109.71" rx="4.35" ry="5.23" transform="translate(-46.47 147.67) rotate(-65.86)"/><path class="cls-2" d="M44.89,195.27c1.12-6.49,9.29-10.5,18.26-9s19.3-3.67,18.18,2.82L74,194.37Z"/><path class="cls-1" d="M28.45,196.94c1.12-6.49,9.29-10.5,18.26-9S66,184.3,64.89,190.79L57.53,196Z"/><polygon class="cls-3" points="69.57 75.25 31.41 75.25 36.68 44.05 64.31 44.05 69.57 75.25"/><ellipse class="cls-4" cx="54.7" cy="53.43" rx="1.15" ry="2.01"/><ellipse class="cls-4" cx="60.79" cy="53.43" rx="1.15" ry="2.01"/><path class="cls-4" d="M37.19,37.86a10.74,10.74,0,0,1-3.56,21.19"/><ellipse class="cls-5" cx="57.93" cy="46.4" rx="4.32" ry="17.52" transform="translate(6.01 99.44) rotate(-84.3)"/><ellipse class="cls-6" cx="51.79" cy="42.84" rx="17.52" ry="6.4"/><ellipse class="cls-7" cx="51.79" cy="37.31" rx="19.19" ry="6.4"/><path class="cls-7" d="M51.08,155.12l-.6,34-19.92,3.41s-1.92-31.39-2.22-37.05c-.22-4.17-.46-18.09-.46-24.16s2.86-53.55,2.86-53.55H70.25c5.17,37.05,3.88,47.2,3.88,47.2s-1.39,12.62-2.21,20.64-3.25,44.14-3.38,41.61c0,0-8.55,0-10.31.22s-7.14.62-7.14.62"/><path class="cls-1" d="M39.33,81.77l5,7.44s-4.37,9.46-3,13.47,7.34,13.06,7.34,13.06l-6.34,5.14s-10.71-12.62-10.74-19.51C30,92,39.33,81.77,39.33,81.77Z"/><ellipse class="cls-1" cx="50.67" cy="123.77" rx="4.35" ry="5.23" transform="translate(-78.6 89.49) rotate(-52.89)"/></g></svg>