<svg xmlns="http://www.w3.org/2000/svg" viewBox="0 0 127.33 233.43"><defs><style>.cls-1{fill:#d48428;}.cls-2{fill:#b76d29;}.cls-3{fill:#fdc277;}.cls-4{fill:#231f20;}.cls-5{fill:#f07422;}.cls-6{fill:#fdba40;}.cls-7{fill:#ffc859;}</style></defs><title>SSL_1</title><g id="Layer_2" data-name="Layer 2"><path class="cls-1" d="M53.56,87.26l6.16-6.84s2.85,5.87,5.89,7.54c3.68,2,16.68,4.23,16.68,4.23l-.54,8.15S63.1,98.88,58,94.21C54.38,90,53.56,87.26,53.56,87.26Z"/><path class="cls-1" d="M93.69,95.41c.42,2.36-.55,4.56-3.39,5.06s-5.49-1-5.91-3.38,1.55-4.69,4.39-5.19S93.28,93,93.69,95.41Z"/><path class="cls-2" d="M36.07,195.27c1.12-6.49,9.29-10.5,18.26-9s19.3-3.67,18.18,2.82l-7.36,5.24Z"/><path class="cls-1" d="M19.63,196.94c1.11-6.49,9.29-10.5,18.26-9s19.29-3.68,18.18,2.81L48.71,196Z"/><polygon class="cls-3" points="60.75 75.25 22.59 75.25 27.86 44.05 55.48 44.05 60.75 75.25"/><ellipse class="cls-4" cx="45.88" cy="53.43" rx="1.15" ry="2.01"/><ellipse class="cls-4" cx="51.97" cy="53.43" rx="1.15" ry="2.01"/><path class="cls-4" d="M28.37,37.86a10.74,10.74,0,0,1-3.56,21.19"/><ellipse class="cls-5" cx="49.11" cy="46.4" rx="4.32" ry="17.52" transform="translate(-1.93 90.66) rotate(-84.3)"/><ellipse class="cls-6" cx="42.97" cy="42.84" rx="17.52" ry="6.4"/><ellipse class="cls-7" cx="42.97" cy="37.31" rx="19.19" ry="6.4"/><path class="cls-7" d="M42.25,155.12l-.59,34-19.92,3.41s-1.92-31.39-2.22-37.05c-.22-4.17-.46-18.09-.46-24.16s2.86-53.55,2.86-53.55h39.5C66.6,114.82,65.3,125,65.3,125s-1.38,12.62-2.21,20.64-3.24,44.14-3.37,41.61c0,0-8.55,0-10.31.22s-7.14.62-7.14.62"/><path class="cls-1" d="M30.51,81.77l4.95,7.44s-4.37,9.46-3,13.47,7.34,13.06,7.34,13.06l-6.34,5.14s-10.71-12.62-10.74-19.51C21.22,92,30.51,81.77,30.51,81.77Z"/><ellipse class="cls-1" cx="41.84" cy="123.77" rx="4.35" ry="5.23" transform="translate(-82.1 82.46) rotate(-52.89)"/></g></svg>