<svg xmlns="http://www.w3.org/2000/svg" viewBox="0 0 433.96 448.47"><defs><style>.cls-1{fill:#fff;}</style></defs><title>Artboard 1 copy 7</title><g id="Layer_2" data-name="Layer 2"><path class="cls-1" d="M259.55,91.34a56.59,56.59,0,0,0-8.44,4.22,67.41,67.41,0,0,0-6.34,4.22c-.43-1-4.58-10.31-14.77-12.66a21.38,21.38,0,0,0-14.77,2.11C208.74,79.12,198.4,75.45,192,78.68c-3.82,1.92-5.57,6-6.34,8.44-3.23-.3-17.1-1.21-27.43,8.44a30.53,30.53,0,0,0-6.33,8.44,18.51,18.51,0,0,0-21.11,8.44,18.16,18.16,0,0,0-2.21,11.3,16.65,16.65,0,0,0-8.34,1.37,18.08,18.08,0,0,0-8.44,8.44A24,24,0,0,0,101.27,123a22.92,22.92,0,0,0-14.77-2.11c-8.46,1.78-13.09,8.21-14.78,10.56a37.21,37.21,0,0,0-6.33,14.77,39.1,39.1,0,0,0,0,14.77c-1.63-.17-8.83-.75-14.77,4.22-7.89,6.62-6.56,17.19-6.33,19,.3,2.39,1.14,9.47,6.33,12.66,4.23,2.59,6.31,0,12.66,2.11,1.74.58,2.07.94,12.66,8.44,6.78,4.8,8.09,5.67,10.56,6.33a18.12,18.12,0,0,0,10.55,0c4.21-1.41,5-3.78,10.55-6.33a31.85,31.85,0,0,1,6.33-2.11,24.92,24.92,0,0,0,6.33,4.22c2.35,1.09,6.94,3.22,12.66,2.11a18.73,18.73,0,0,0,10.56-6.33l8.35-2.09q10.41,15.73,21.19,31.63,11.63,17.13,23.22,33.77a81,81,0,0,1,4.22,25.33c0,13.33-3.34,23.31-8.44,38a232.55,232.55,0,0,1-12.67,29.55h48.54a140.33,140.33,0,0,1-4.22-52.76c1.29-11.43,2.74-24.23,10.55-38,3.3-5.81,8.55-13.23,38-35.88,4.72-3.63,10.38-7.9,16.91-12.64,4.1,3.45,14.2,1.15,23.19-8.46a31.75,31.75,0,0,0,10.55,10.55c1.84,1.12,7.24,4.4,12.66,4.22,8.81-.28,17.5-9.71,21.1-23.21a16.62,16.62,0,0,0,6.34,0c7.71-1.55,12.93-8.67,14.77-14.77,2.39-7.94-.13-16.82-6.33-23.22a23.31,23.31,0,0,0,6.33-12.66,21.92,21.92,0,0,0-19-25.32A25.17,25.17,0,0,0,344,131.44a20.79,20.79,0,0,0-8.44-8.45,21.54,21.54,0,0,0-12.66-2.11A27.75,27.75,0,0,0,306,129.33a34.61,34.61,0,0,0-14.78-4.22l-2.11-.1a23.66,23.66,0,0,0,0-8.35C286.21,100.52,268.06,88.58,259.55,91.34ZM204.68,256l-45.39-48.52c3.08,0,11.91-.82,18-8.46,6.53-8.25,4.5-17.78,4.22-19,2.52.31,6.84.4,10.56-2.12a13.24,13.24,0,0,0,3.93-4.24,173.51,173.51,0,0,1,6.62,23.24A174.22,174.22,0,0,1,204.68,256Zm61.2-50.65a21.36,21.36,0,0,0,12.66,4.22l8.44,2.11a18.72,18.72,0,0,0,.06,6.88c-10.2,5.31-20.83,11.41-31.71,18.45s-20.69,14.13-29.55,21.1L219.45,256a127.32,127.32,0,0,0-6.33-59.09,125.91,125.91,0,0,0-14.86-29,116.6,116.6,0,0,0,56.54,2.27,13.7,13.7,0,0,0,2.64,1.36,42.54,42.54,0,0,0,0,16.89C258.56,193.92,260,200.71,265.88,205.3Z"/></g></svg>