<svg xmlns="http://www.w3.org/2000/svg" viewBox="0 0 433.96 448.47"><defs><style>.cls-1{fill:#fff;}</style></defs><title>Artboard 1 copy 10</title><g id="Layer_2" data-name="Layer 2"><path class="cls-1" d="M73.22,232.2c-6,4-7.14,12.16-3,17.27a12,12,0,0,0,16.38,1.73c-.23,1.27-1.51,8.8,3.34,14.77,5.06,6.22,14.71,8.19,23.37,4.22-1.69,5.4-.75,8.81,0,10.55C117,289.45,132,294,150.19,289.47l9,12,9,12a74.7,74.7,0,0,1-21,62l112,3a55.23,55.23,0,0,1-29-96c14.34,20.45,36.46,29.3,53,23,11-4.2,24.9-17.16,22-31-2.18-10.39-12.66-15.8-15-16.94,12.88,2,22.95-6.45,23.37-14.77.27-5.65-3.88-11.43-10-14.78,11.54-15,8.59-35-2.35-43.51-11.27-8.77-31.93-6.14-43.09,9.21,5.32-10.09,4.74-21.54-1.29-29-5.66-7-14.24-8.19-16.69-8.44,7.29,1,13.24-2.78,14.07-6.76.93-4.48-4.15-11.43-13-12,8.41-6.36,13.71-15.51,12-23-2.46-10.74-19.78-20.13-39.77-13.11a15.93,15.93,0,0,0-30-10.55c-2.57-1.6-15.64-9.31-32.18-5.34-1.12.27-21,5.39-29,25A43.09,43.09,0,0,0,120,135.13c-1.37.06-16.73.91-23.36,8.44-5,5.71-1.27,13.38,5,19.29-1.7-.41-23.57-5.25-36.39,7.61C51.81,183.89,52.4,212.45,73.22,232.2Zm133.52,46.43c2.16-.18,4.92-.36,8.14-.41q-4.06,12.87-8.14,25.74h-6.68c-1.22-8.92-2.34-16.44-3.36-22.71A35.13,35.13,0,0,0,206.74,278.63ZM180,291.29a25.18,25.18,0,0,0,6.77-2.6c-.06,4.56-.1,9.63-.1,15.27q-6.5-5.94-13-11.87A33,33,0,0,0,180,291.29Z"/></g></svg>