<svg xmlns="http://www.w3.org/2000/svg" viewBox="0 0 433.96 448.47"><defs><style>.cls-1{fill:#fff;}</style></defs><title>Artboard 1 copy 14</title><g id="Layer_2" data-name="Layer 2"><path class="cls-1" d="M84.4,243.11c3.7,8.16,13,11.74,20.53,10.27a17.88,17.88,0,0,0,8.22-4.11c2.5,10.89,11.36,18.66,20.95,19.2a19.58,19.58,0,0,0,2.54,0l1.15,1.38C159.56,295.31,176,298.2,185,315c5.49,10.15,9.39,27.43-2.05,57.5l37-2.05c-5.42-11.77-12.38-32-6.16-53.4,3.54-12.19,11.18-21.15,26.32-38.57,23.11-26.61,35.34-33.37,42.58-47,10.27-2,20.07-7.47,25.56-17.07s4.55-19.5,3.86-23.89c6.25,1.47,17.36,2.95,26.95-2.81,18.22-10.94,19.34-41.08,11.05-60.19-12.47-28.75-50.91-44.06-78.82-32.22-12.51,5.31-20.13,14.89-24.18,21.22-7.62-11.61-20.41-18.18-33.32-17.11-12,1-28.55,9-30.23,24.7-1.41,13.05,7.47,26.2,21.55,30.41-17,.51-27.16,11.39-26.24,18.82.74,6,8.83,11.62,19.24,13.18-.59.85-9.5,14.15-4.86,21.73,4.08,6.68,18.6,8.81,34.61.49a170.75,170.75,0,0,1-12.75,63.78,167.15,167.15,0,0,1-17.75,32.25,63,63,0,0,1-28.25-21.25,61.61,61.61,0,0,1-11.61-33.61,26.62,26.62,0,0,0,.84-6.75c9.22,3.72,18.87.53,22.59-6.16,3.5-6.31.43-13.41,0-14.38,3.44-8.43,1.68-17.54-4.11-22.59a18.14,18.14,0,0,0-12.32-4.1c6.3-14.57-.49-29.18-10.39-32.41-6.72-2.2-15,.8-21,7-8-13.39-23.18-15.67-30-10-5,4.16-6.35,13.29-3,22-8.78-1.14-17.43,1.74-22,8-6.72,9.18-4.21,25.06,8.35,34.16C86.16,225,80.19,233.84,84.4,243.11Zm147.86-37c1.28,2.56,10.91,21.09,31.84,25.32a45.93,45.93,0,0,0,7.25.85,96.55,96.55,0,0,1-34.25,30.15l-7.44-54.77C230.52,207.21,231.39,206.7,232.26,206.15ZM153.94,257.8q-1.41,7.33-2.84,14.67l-6.72-6.2A24.84,24.84,0,0,0,153.94,257.8Z"/></g></svg>