<svg xmlns="http://www.w3.org/2000/svg" viewBox="0 0 433.96 448.47"><defs><style>.cls-1{fill:#fff;}</style></defs><title>Artboard 1 copy 2</title><g id="Layer_2" data-name="Layer 2"><path class="cls-1" d="M141.75,207.47a35.86,35.86,0,0,0,17,6,37.85,37.85,0,0,0,4,20c1.72,3.26,3.41,6.38,7,8,6.45,2.91,13.51-1.51,14.5-2.15l7.36,2a79.2,79.2,0,0,0,1.08,8.58c3.86,21.4,15.76,37,25.06,46.6a162.48,162.48,0,0,1-1,32c-2.06,15.74-3.45,26.41-11,38A65.86,65.86,0,0,1,180,389.16a75.37,75.37,0,0,1-20.5,6.38l104.92,2.06a40.42,40.42,0,0,1-16.88-10.55c-1.92-2-6.94-7.74-10.56-21.11-7.37-27.25.75-49.47.75-49.47,4.18-12.28,10.3-20.26,17-29a144.24,144.24,0,0,1,24.46-24.94l7.54-1.06c2,.45,14.81,3.09,26.23-5.27.82-.6,15-11.39,12.77-28.73a30.74,30.74,0,0,0-21-25c3.14-1.14,12-4.82,17-14,6.92-12.81,2.45-29.46-8-39-10.81-9.88-27.43-11.59-41-4,5.55-15.92-.26-33.06-13-41-15.59-9.73-34.44-1.26-43.85,8.23a39.4,39.4,0,0,0-10.15,18.77c-13.25-21.76-36.53-26.28-46-19-8.71,6.68-10.58,27,2,45-3.49.09-16.54.84-26,11-2.42,2.59-7.93,8.5-8,17C127.64,197.81,139.1,205.66,141.75,207.47Zm103.7,50.84c5.2,3.22,15.34,7.08,24.23,5.32l-21.93,14.84-11,8q-.34-18.74-.7-37.45A30.49,30.49,0,0,0,245.45,258.31Zm-44.32-19a18.19,18.19,0,0,0,8.44-10.55l10.55,2.11,10,4c.35,1.48.76,2.91,1.22,4.3q-2.43,20.12-4.88,40.25a6.42,6.42,0,0,1-4.22,2.11c-3.06.07-5.37-3-6.33-4.22-3.44-4.51-11.07-21.77-17.43-36.84A17.38,17.38,0,0,0,201.13,239.32Zm-5.48-78.61c-3-.54-5.5-1.14-7.18-1.58a23.05,23.05,0,0,0-3-4.07Z"/></g></svg>