<svg xmlns="http://www.w3.org/2000/svg" viewBox="0 0 433.96 448.47"><defs><style>.cls-1{fill:#fff;}</style></defs><title>Artboard 1 copy 6</title><g id="Layer_2" data-name="Layer 2"><path class="cls-1" d="M64.52,231.47c10.93-3.07,17.4-11.25,20-15,2.53,9.33,11.06,15.53,20,15a19.73,19.73,0,0,0,17-13l2.85-15.26q10.41,15.73,21.2,31.63,11.61,17.13,23.21,33.77A81,81,0,0,1,173,293.94c0,13.33-3.33,23.31-8.44,38a232.27,232.27,0,0,1-12.66,29.55h48.53a140.75,140.75,0,0,1-4.22-52.76c1.53-13.51,2.87-25.28,10.56-38,7-11.54,17.32-19.65,38-35.88,7-5.5,12.94-9.81,16.91-12.64,4.1,3.45,14.2,1.15,23.19-8.46,4,9.62,13.52,15.57,23.21,14.77,11.32-.92,20.75-10.85,21.11-23.21,11.11,2.8,22.31-3.63,25.35-13.83,2.71-9.11-1.61-19.4-10.58-24.16,10.26-9.6,10.25-25.33,1.58-33.84-7.21-7.08-19.44-8.24-29-2,.53-12.38-5.13-23.9-15-30-9.37-5.77-19.08-4.5-22-4-.27-2.13-2.26-16-13-22-12.3-6.82-32.14-1-43,17-.24-16.52-12-30.35-27-33-17.08-3-34.77,9-38.29,27.65-3.49-1.72-21.21-10-40.71-2.65-19.15,7.22-32.32,26.62-33.16,49.08-6.55-8.66-16.3-14-25.32-12.67C45.43,123,33.39,140.38,37.94,161c-16.8,8.58-25.18,27.5-20.42,44.49C23.36,226.34,46.82,236.43,64.52,231.47Zm126-49c12.87,3.46,27.14-1.37,36.82-12.3a43.63,43.63,0,0,0-8.82,21.3c-.69,5.84-2.09,17.65,5,23,6.39,4.82,18,3.14,27.56-4.95l8.45,2.11c-13.87,12.83-24.37,20.55-31.66,25.33-2.13,1.39-7.85,5.06-15.52,10.56q-7.38,5.29-14,10.54L192,256a127.19,127.19,0,0,0-6.33-59.09,125.91,125.91,0,0,0-14.86-29C172.69,170.72,179,179.37,190.52,182.47Zm-30,34c6.09-4.64,6.19-21.18-6.51-36.49a50.74,50.74,0,0,1,21.1,16.88c17.82,25.21,2.93,57.39,2.11,59.09l-45.39-48.52C142.6,217.31,155.14,220.56,160.52,216.47Z"/></g></svg>