<svg xmlns="http://www.w3.org/2000/svg" viewBox="0 0 433.96 448.47"><defs><style>.cls-1{fill:#fff;}</style></defs><title>Tree1-2</title><g id="Layer_2" data-name="Layer 2"><path class="cls-1" d="M137.65,209.33c-.37,1.27-4.46,16.19,4.23,25.32,8.27,8.69,21.16,8.13,29.54,4.22,12.36-5.76,15.28-18.83,15.61-20.4-1.54,8.14,2.06,14.3,6,15,3.13.55,6.12-2.41,6.86-3.18.31,2.82.5,5.71,1.08,8.58l6.33,31.66q1,33.77,2.11,67.53a147.58,147.58,0,0,1-8.44,21.1c-4.75,9.63-9.4,14.08-12.67,19C183.12,386,178,398.58,179,419.47l102,1c-10-20.94-18.8-35.11-25.19-44.42-2.78-4-7.7-10.79-10.56-21.11a59.56,59.56,0,0,1-2.11-23.21c.92-7.9,4.14-14.52,10.55-27.44a288.46,288.46,0,0,1,16.89-29.54c6.11-9.33,11.95-17.09,16.88-23.22,4,1.46,8-1,8.54-4.06.44-2.45-1.27-5.37-4.32-6.49h8.44a43.31,43.31,0,0,0,21.11,4.22c5.15-.31,19.28-1.17,23.21-10.55a15.47,15.47,0,0,0-2.11-14.77c-5.3-7.16-14.33-6.38-14.77-6.33a31.08,31.08,0,0,0,12.66-12.66c8.19-15.69-1.69-32.28-2.36-33.37,7.73-10.41,9.69-23.09,4.47-32.06-5.11-8.78-15.55-11.32-21.1-12.66a45.89,45.89,0,0,0-21.11,0A111.7,111.7,0,0,0,263,80.47c-8.09-5.43-24.22-16-47-17-12.14-.56-30.39-1.58-40,10-10.25,12.34-7.84,35.53,7,56a23.23,23.23,0,0,1-9,8.45,22,22,0,0,1-4.71,1.76c-17.46-3.68-34.75.89-44.32,12.67-6.94,8.55-8,18.64-8.44,23.21-.71,7-2,19.41,6.33,27.44C127.93,207.87,134.32,209,137.65,209.33Zm116.07,38c5.21,3.22,15.35,7.08,24.24,5.32L247,282.47,244.33,238A30.57,30.57,0,0,0,253.72,247.31Zm-44.31-19a18.19,18.19,0,0,0,8.44-10.55l10.55,2.11,10,4c.35,1.48.76,2.91,1.22,4.3q-2.45,20.12-4.88,40.25a6.42,6.42,0,0,1-4.22,2.11c-3.06.07-5.37-3-6.33-4.22-3.44-4.51-11.07-21.77-17.43-36.84A17.38,17.38,0,0,0,209.41,228.32Zm-5.49-78.61-7.18-1.58a22.25,22.25,0,0,0-3-4.07Z"/></g></svg>