<svg xmlns="http://www.w3.org/2000/svg" xmlns:xlink="http://www.w3.org/1999/xlink" viewBox="0 0 936.76 190.99"><defs><style>.cls-1{fill:#fff;}.cls-2{fill:#2d2b2c;}.cls-3{fill:#3f3e3f;}.cls-4{fill:#6a6a6c;}.cls-5{fill:#404040;}.cls-6{fill:#464547;}.cls-7{fill:#c1c1c2;}.cls-8{fill:#373537;}.cls-9{fill:#231f20;}.cls-10{fill:#dbdbdc;}.cls-11{clip-path:url(#clip-path);}.cls-12{fill:#5b5c5e;}.cls-13{fill:#afb0b2;}.cls-14{fill:gray;}.cls-15{fill:#e6e7e8;}.cls-16{fill:#8e8675;}.cls-17{fill:#c0bfbf;}.cls-18{fill:none;}</style><clipPath id="clip-path"><path class="cls-1" d="M100,44.43v77.84a3.72,3.72,0,0,0,3.72,3.72h7.41v25.3h42A21.68,21.68,0,0,1,168.39,145H274.31a21.69,21.69,0,0,1,15.27,6.26h405A21.69,21.69,0,0,1,709.89,145H815.82a21.69,21.69,0,0,1,15.27,6.26h39.72V126h4a3.73,3.73,0,0,0,3.72-3.72V44.43Zm52.86,41.28a5.16,5.16,0,0,1-5.15,5.15h-4.39a5.16,5.16,0,0,1-5.15-5.15V80.39a5.15,5.15,0,0,1,5.15-5.14h4.39a5.15,5.15,0,0,1,5.15,5.14Zm63.14,0a5.16,5.16,0,0,1-5.15,5.15h-8a5.15,5.15,0,0,1-5.14-5.15V80.39a5.14,5.14,0,0,1,5.14-5.14h8A5.15,5.15,0,0,1,216,80.39Zm36.12,0A5.15,5.15,0,0,1,247,90.86h-8a5.16,5.16,0,0,1-5.15-5.15V80.39A5.15,5.15,0,0,1,239,75.25h8a5.14,5.14,0,0,1,5.14,5.14Zm36.12,0a5.15,5.15,0,0,1-5.14,5.15h-8A5.15,5.15,0,0,1,270,85.71V80.39a5.14,5.14,0,0,1,5.14-5.14h8a5.14,5.14,0,0,1,5.14,5.14Zm36.12,0a5.15,5.15,0,0,1-5.14,5.15h-8a5.15,5.15,0,0,1-5.14-5.15V80.39a5.14,5.14,0,0,1,5.14-5.14h8a5.14,5.14,0,0,1,5.14,5.14Zm36.12,0a5.15,5.15,0,0,1-5.14,5.15h-8a5.15,5.15,0,0,1-5.14-5.15V80.39a5.14,5.14,0,0,1,5.14-5.14h8a5.14,5.14,0,0,1,5.14,5.14Zm36.13,0a5.16,5.16,0,0,1-5.15,5.15h-8a5.15,5.15,0,0,1-5.14-5.15V80.39a5.14,5.14,0,0,1,5.14-5.14h8a5.15,5.15,0,0,1,5.15,5.14Zm36.12,0a5.15,5.15,0,0,1-5.14,5.15h-8a5.16,5.16,0,0,1-5.15-5.15V80.39a5.15,5.15,0,0,1,5.15-5.14h8a5.14,5.14,0,0,1,5.14,5.14Zm36.12,0a5.15,5.15,0,0,1-5.14,5.15h-8a5.15,5.15,0,0,1-5.14-5.15V80.39a5.14,5.14,0,0,1,5.14-5.14h8a5.14,5.14,0,0,1,5.14,5.14Zm36.12,0a5.15,5.15,0,0,1-5.14,5.15h-8a5.15,5.15,0,0,1-5.14-5.15V80.39a5.14,5.14,0,0,1,5.14-5.14h8A5.14,5.14,0,0,1,505,80.39Zm36.12,0A5.15,5.15,0,0,1,536,90.86h-8a5.15,5.15,0,0,1-5.14-5.15V80.39A5.14,5.14,0,0,1,528,75.25h8a5.14,5.14,0,0,1,5.14,5.14Zm36.13,0a5.16,5.16,0,0,1-5.15,5.15h-8A5.16,5.16,0,0,1,559,85.71V80.39a5.15,5.15,0,0,1,5.15-5.14h8a5.15,5.15,0,0,1,5.15,5.14Zm36.12,0a5.15,5.15,0,0,1-5.14,5.15h-8a5.15,5.15,0,0,1-5.14-5.15V80.39a5.14,5.14,0,0,1,5.14-5.14h8a5.14,5.14,0,0,1,5.14,5.14Zm36.12,0a5.15,5.15,0,0,1-5.14,5.15h-8a5.15,5.15,0,0,1-5.14-5.15V80.39a5.14,5.14,0,0,1,5.14-5.14h8a5.14,5.14,0,0,1,5.14,5.14Zm36.12,0a5.15,5.15,0,0,1-5.14,5.15h-8a5.15,5.15,0,0,1-5.14-5.15V80.39a5.14,5.14,0,0,1,5.14-5.14h8a5.14,5.14,0,0,1,5.14,5.14Zm36.13,0a5.16,5.16,0,0,1-5.15,5.15h-8a5.15,5.15,0,0,1-5.14-5.15V80.39a5.14,5.14,0,0,1,5.14-5.14h8a5.15,5.15,0,0,1,5.15,5.14Zm36.12,0a5.15,5.15,0,0,1-5.14,5.15h-8a5.16,5.16,0,0,1-5.15-5.15V80.39a5.15,5.15,0,0,1,5.15-5.14h8a5.14,5.14,0,0,1,5.14,5.14Zm36.12,0a5.15,5.15,0,0,1-5.14,5.15h-8a5.15,5.15,0,0,1-5.14-5.15V80.39a5.14,5.14,0,0,1,5.14-5.14h8A5.14,5.14,0,0,1,794,80.39Zm67.21-8.16a4.08,4.08,0,0,1-4.07,4.08h-2.55a4.08,4.08,0,0,1-4.08-4.08V69.22a4.08,4.08,0,0,1,4.08-4.08h2.55a4.08,4.08,0,0,1,4.07,4.08Z"/></clipPath></defs><title>BulletMid</title><g id="Layer_4" data-name="Layer 4"><rect class="cls-2" x="103.99" y="135.35" width="16.45" height="15.93" rx="2.03" transform="translate(224.42 286.64) rotate(-180)"/><rect class="cls-3" x="98.21" y="35.96" width="1.8" height="85.89" rx="0.9"/><rect class="cls-4" x="96.41" y="35.96" width="1.8" height="85.89" rx="0.9"/><rect class="cls-3" x="94.61" y="35.96" width="1.8" height="85.89" rx="0.9"/><rect class="cls-4" x="92.81" y="35.96" width="1.8" height="85.89" rx="0.9"/><rect class="cls-2" x="94.83" y="133.29" width="5.19" height="7.21" transform="translate(194.84 273.79) rotate(-180)"/><rect class="cls-5" x="97.07" y="127.7" width="16.45" height="15.93" rx="2.03" transform="translate(210.59 271.33) rotate(-180)"/><path class="cls-6" d="M92.81,131.52h.84a1.18,1.18,0,0,1,1.18,1.18v8.39a1.18,1.18,0,0,1-1.18,1.18h-.84a0,0,0,0,1,0,0V131.52A0,0,0,0,1,92.81,131.52Z" transform="translate(187.64 273.79) rotate(-180)"/><rect class="cls-2" x="99.44" y="127.7" width="16.45" height="12.8" rx="2.03" transform="translate(215.33 268.2) rotate(-180)"/><rect class="cls-5" x="103.64" y="116.46" width="16.45" height="15.93" rx="2.03" transform="translate(223.73 248.85) rotate(-180)"/><rect class="cls-5" x="858.66" y="135.36" width="16.03" height="15.93" rx="2.03"/><rect class="cls-4" x="878.57" y="35.97" width="1.76" height="85.89" rx="0.88" transform="translate(1758.89 157.83) rotate(-180)"/><rect class="cls-3" x="880.33" y="35.97" width="1.76" height="85.89" rx="0.88" transform="translate(1762.41 157.83) rotate(-180)"/><rect class="cls-4" x="882.08" y="35.97" width="1.76" height="85.89" rx="0.88" transform="translate(1765.92 157.83) rotate(-180)"/><rect class="cls-3" x="883.84" y="35.97" width="1.76" height="85.89" rx="0.88" transform="translate(1769.43 157.83) rotate(180)"/><rect class="cls-5" x="878.57" y="133.3" width="5.06" height="7.21"/><rect class="cls-2" x="865.41" y="127.7" width="16.03" height="15.93" rx="2.03"/><path class="cls-2" d="M883.63,131.52h.79a1.18,1.18,0,0,1,1.18,1.18v8.39a1.18,1.18,0,0,1-1.18,1.18h-.79a0,0,0,0,1,0,0V131.52A0,0,0,0,1,883.63,131.52Z"/><rect class="cls-5" x="863.1" y="127.7" width="16.03" height="12.8" rx="2.03"/><rect class="cls-2" x="859" y="116.46" width="16.03" height="15.93" rx="2.03"/><path class="cls-7" d="M171.35,33.82h-69A2.35,2.35,0,0,0,100,36.17V61H244V44.43H218.46a54.82,54.82,0,0,1-23.55-5.31h0A55,55,0,0,0,171.35,33.82Z"/><path class="cls-7" d="M807.23,33.82h69a2.35,2.35,0,0,1,2.35,2.35v25.6h-144V44.43h25.53a54.85,54.85,0,0,0,23.55-5.31h0A55,55,0,0,1,807.23,33.82Z"/><rect class="cls-2" x="191.6" y="140.22" width="32.7" height="11.88"/><path class="cls-2" d="M241.29,153.69v-5.28h3.42v-2.25h17.4a2.85,2.85,0,0,0,3-2.69v-4.83H232.38v15.05Z"/><rect class="cls-8" x="213.52" y="133.92" width="5.6" height="14.97"/><rect class="cls-8" x="227.62" y="133.92" width="5.6" height="14.97"/><path class="cls-6" d="M173,149.42l17.52-9.71a20,20,0,0,1,1,17.3Z"/><rect class="cls-3" x="154.82" y="153.86" width="38.47" height="3.98" rx="0.7"/><path class="cls-9" d="M173,149.42l-15.57-8.73a17.85,17.85,0,0,1,30.23-1.45Z"/><circle class="cls-8" cx="173.01" cy="149.42" r="13.05"/><path class="cls-3" d="M158.09,143.58h5.21l2.32,6.2a4.81,4.81,0,0,1,0,3.5l0,.06a1.54,1.54,0,0,0,1.43,2.11h13a1.53,1.53,0,0,0,1.44-2.07h0a4.81,4.81,0,0,1,.24-3.86l.81-1.59a6.82,6.82,0,0,1,6.06-3.7h15.81v-8.1h-8.5a11.1,11.1,0,0,0-4.81,1.09h0a4,4,0,0,1-2,.39l-17.88-.88a9,9,0,0,0-6.3,2.12l-1.09.91a3.17,3.17,0,0,1-2,.75h-3.68Z"/><rect class="cls-2" x="164.79" y="147.81" width="16.43" height="3.21" rx="0.64"/><rect class="cls-4" x="169.77" y="142.97" width="6.47" height="5.25"/><path class="cls-4" d="M182.84,136.27l-2.91-2.14a1,1,0,0,0-.64-.21h-5.21A1.07,1.07,0,0,0,173,135v4.17a1.06,1.06,0,0,0,1.07,1.07h5.34a1,1,0,0,0,.43-.09l3.23-1.41a1,1,0,0,1,.43-.09h1a1.07,1.07,0,0,0,1.07-1.07v0a1.07,1.07,0,0,0-1.07-1.07h-1A1.11,1.11,0,0,1,182.84,136.27Z"/><rect class="cls-3" x="157.23" y="144.58" width="4.25" height="7.45" rx="1.06"/><path class="cls-4" d="M156.93,137.85h0a14.16,14.16,0,0,0-3.23,9.58l.08,1.67a13.87,13.87,0,0,0,1,4.75l.59,1.44a2.07,2.07,0,0,0,3.18.86h0a2.09,2.09,0,0,0,.6-2.58h0a10.85,10.85,0,0,1-.91-7.19l.26-1.18.45-1.88a3.35,3.35,0,0,0-.35-2.46Z"/><circle class="cls-8" cx="173.01" cy="149.42" r="4.84"/><circle class="cls-4" cx="173.01" cy="146.93" r="0.59"/><circle class="cls-4" cx="173.01" cy="151.91" r="0.59"/><circle class="cls-4" cx="171.25" cy="147.66" r="0.59"/><circle class="cls-4" cx="174.77" cy="151.18" r="0.59"/><circle class="cls-4" cx="170.52" cy="149.42" r="0.59"/><circle class="cls-4" cx="175.49" cy="149.42" r="0.59"/><circle class="cls-4" cx="171.25" cy="151.18" r="0.59"/><circle class="cls-4" cx="174.77" cy="147.66" r="0.59"/><path class="cls-6" d="M269.94,149.42l-17.52-9.71a20.05,20.05,0,0,0-1,17.3Z"/><rect class="cls-3" x="249.66" y="153.86" width="38.47" height="3.98" rx="0.7" transform="translate(537.78 311.7) rotate(180)"/><path class="cls-9" d="M269.94,149.42l15.57-8.73a17.85,17.85,0,0,0-30.23-1.45Z"/><circle class="cls-8" cx="269.94" cy="149.42" r="13.05"/><path class="cls-3" d="M284.86,143.58h-5.21l-2.32,6.2a4.81,4.81,0,0,0,0,3.5l0,.06a1.54,1.54,0,0,1-1.43,2.11H263a1.53,1.53,0,0,1-1.44-2.07h0a4.81,4.81,0,0,0-.24-3.86l-.81-1.59a6.82,6.82,0,0,0-6.06-3.7H238.58v-8.1h8.51a11.1,11.1,0,0,1,4.81,1.09h0a4,4,0,0,0,2,.39l17.89-.88a9.05,9.05,0,0,1,6.3,2.12l1.09.91a3.16,3.16,0,0,0,2,.75h3.69Z"/><rect class="cls-2" x="261.72" y="147.81" width="16.43" height="3.21" rx="0.64" transform="translate(539.88 298.84) rotate(-180)"/><rect class="cls-4" x="266.71" y="142.97" width="6.47" height="5.25" transform="translate(539.88 291.19) rotate(-180)"/><path class="cls-4" d="M260.11,136.27l2.91-2.14a1,1,0,0,1,.63-.21h5.22a1.07,1.07,0,0,1,1.07,1.07v4.17a1.06,1.06,0,0,1-1.07,1.07h-5.34a1,1,0,0,1-.43-.09l-3.23-1.41a1.07,1.07,0,0,0-.43-.09h-1a1.07,1.07,0,0,1-1.07-1.07v0a1.07,1.07,0,0,1,1.07-1.07h1A1.14,1.14,0,0,0,260.11,136.27Z"/><rect class="cls-3" x="281.47" y="144.58" width="4.25" height="7.45" rx="1.06" transform="translate(567.19 296.61) rotate(180)"/><path class="cls-4" d="M286,137.85h0a14.1,14.1,0,0,1,3.22,9.58l-.07,1.67a14.11,14.11,0,0,1-1,4.75l-.59,1.44a2.08,2.08,0,0,1-3.18.86h0a2.07,2.07,0,0,1-.6-2.58h0a10.84,10.84,0,0,0,.9-7.19l-.25-1.18-.45-1.88a3.35,3.35,0,0,1,.35-2.46Z"/><circle class="cls-8" cx="269.94" cy="149.42" r="4.84"/><circle class="cls-4" cx="269.94" cy="146.93" r="0.59"/><circle class="cls-4" cx="269.94" cy="151.91" r="0.59"/><circle class="cls-4" cx="271.7" cy="147.66" r="0.59"/><circle class="cls-4" cx="268.18" cy="151.18" r="0.59"/><circle class="cls-4" cx="272.43" cy="149.42" r="0.59"/><circle class="cls-4" cx="267.45" cy="149.42" r="0.59"/><circle class="cls-4" cx="271.7" cy="151.18" r="0.59"/><circle class="cls-4" cx="268.18" cy="147.66" r="0.59"/><rect class="cls-8" x="224.88" y="140.5" width="30.4" height="6.76"/><rect class="cls-8" x="188.76" y="141.57" width="30.4" height="6.76"/><rect class="cls-4" x="218.76" y="131.11" width="14.11" height="22.75" rx="1.82"/><rect class="cls-6" x="221.84" y="137.51" width="7.95" height="1.91"/><rect class="cls-8" x="221.84" y="147.85" width="7.95" height="1.91"/><rect class="cls-6" x="220.47" y="143.13" width="10.7" height="4.72"/><rect class="cls-2" x="731.62" y="140.22" width="32.7" height="11.88"/><path class="cls-2" d="M781.31,153.69v-5.28h3.42v-2.25h17.4a2.85,2.85,0,0,0,3-2.69v-4.83H772.4v15.05Z"/><rect class="cls-8" x="753.54" y="133.92" width="5.6" height="14.97"/><rect class="cls-8" x="767.64" y="133.92" width="5.6" height="14.97"/><path class="cls-6" d="M713,149.42l17.52-9.71a20,20,0,0,1,1,17.3Z"/><rect class="cls-3" x="694.84" y="153.86" width="38.47" height="3.98" rx="0.7"/><path class="cls-9" d="M713,149.42l-15.57-8.73a17.84,17.84,0,0,1,30.22-1.45Z"/><circle class="cls-8" cx="713.03" cy="149.42" r="13.05"/><path class="cls-3" d="M698.11,143.58h5.21l2.32,6.2a4.81,4.81,0,0,1,0,3.5l0,.06a1.54,1.54,0,0,0,1.43,2.11h13a1.53,1.53,0,0,0,1.44-2.07h0a4.81,4.81,0,0,1,.24-3.86l.81-1.59a6.82,6.82,0,0,1,6.06-3.7h15.81v-8.1h-8.5a11.1,11.1,0,0,0-4.81,1.09h0a4,4,0,0,1-2,.39l-17.88-.88a9,9,0,0,0-6.3,2.12l-1.09.91a3.17,3.17,0,0,1-2,.75h-3.68Z"/><rect class="cls-2" x="704.81" y="147.81" width="16.43" height="3.21" rx="0.64"/><rect class="cls-4" x="709.79" y="142.97" width="6.47" height="5.25"/><path class="cls-4" d="M722.86,136.27,720,134.13a1.07,1.07,0,0,0-.64-.21H714.1A1.07,1.07,0,0,0,713,135v4.17a1.06,1.06,0,0,0,1.07,1.07h5.34a1,1,0,0,0,.43-.09l3.23-1.41a1,1,0,0,1,.43-.09h1a1.07,1.07,0,0,0,1.07-1.07v0a1.07,1.07,0,0,0-1.07-1.07h-1A1.11,1.11,0,0,1,722.86,136.27Z"/><rect class="cls-3" x="697.25" y="144.58" width="4.25" height="7.45" rx="1.06"/><path class="cls-4" d="M697,137.85h0a14.16,14.16,0,0,0-3.23,9.58l.07,1.67a14.35,14.35,0,0,0,1,4.75l.59,1.44a2.09,2.09,0,0,0,3.19.86h0a2.09,2.09,0,0,0,.6-2.58h0a10.85,10.85,0,0,1-.91-7.19l.26-1.18.45-1.88a3.35,3.35,0,0,0-.35-2.46Z"/><circle class="cls-8" cx="713.03" cy="149.42" r="4.84"/><circle class="cls-4" cx="713.03" cy="146.93" r="0.59"/><circle class="cls-4" cx="713.03" cy="151.91" r="0.59"/><circle class="cls-4" cx="711.27" cy="147.66" r="0.59"/><circle class="cls-4" cx="714.79" cy="151.18" r="0.59"/><circle class="cls-4" cx="710.54" cy="149.42" r="0.59"/><circle class="cls-4" cx="715.51" cy="149.42" r="0.59"/><circle class="cls-4" cx="711.27" cy="151.18" r="0.59"/><circle class="cls-4" cx="714.79" cy="147.66" r="0.59"/><path class="cls-6" d="M810,149.42l-17.52-9.71a20.05,20.05,0,0,0-1,17.3Z"/><rect class="cls-3" x="789.68" y="153.86" width="38.47" height="3.98" rx="0.7" transform="translate(1617.82 311.7) rotate(180)"/><path class="cls-9" d="M810,149.42l15.57-8.73a17.85,17.85,0,0,0-30.23-1.45Z"/><circle class="cls-8" cx="809.96" cy="149.42" r="13.05"/><path class="cls-3" d="M824.88,143.58h-5.21l-2.32,6.2a4.81,4.81,0,0,0,0,3.5l0,.06a1.53,1.53,0,0,1-1.42,2.11H803a1.54,1.54,0,0,1-1.45-2.07h0a4.81,4.81,0,0,0-.23-3.86l-.81-1.59a6.82,6.82,0,0,0-6.06-3.7H778.6v-8.1h8.51a11.13,11.13,0,0,1,4.81,1.09h0a4,4,0,0,0,2,.39l17.89-.88a9.05,9.05,0,0,1,6.3,2.12l1.09.91a3.16,3.16,0,0,0,2,.75h3.69Z"/><rect class="cls-2" x="801.74" y="147.81" width="16.43" height="3.21" rx="0.64" transform="translate(1619.92 298.84) rotate(-180)"/><rect class="cls-4" x="806.72" y="142.97" width="6.47" height="5.25" transform="translate(1619.92 291.19) rotate(-180)"/><path class="cls-4" d="M800.13,136.27l2.91-2.14a1,1,0,0,1,.63-.21h5.22A1.07,1.07,0,0,1,810,135v4.17a1.06,1.06,0,0,1-1.07,1.07h-5.34a1,1,0,0,1-.43-.09l-3.23-1.41a1.07,1.07,0,0,0-.43-.09h-1a1.06,1.06,0,0,1-1.07-1.07v0a1.06,1.06,0,0,1,1.07-1.07h1A1.14,1.14,0,0,0,800.13,136.27Z"/><rect class="cls-3" x="821.49" y="144.58" width="4.25" height="7.45" rx="1.06" transform="translate(1647.23 296.61) rotate(180)"/><path class="cls-4" d="M826,137.85h0a14.1,14.1,0,0,1,3.22,9.58l-.07,1.67a14.11,14.11,0,0,1-1,4.75l-.59,1.44a2.08,2.08,0,0,1-3.18.86h0a2.07,2.07,0,0,1-.6-2.58h0a10.84,10.84,0,0,0,.9-7.19l-.25-1.18-.45-1.88a3.35,3.35,0,0,1,.35-2.46Z"/><circle class="cls-8" cx="809.96" cy="149.42" r="4.84"/><circle class="cls-4" cx="809.96" cy="146.93" r="0.59"/><circle class="cls-4" cx="809.96" cy="151.91" r="0.59"/><circle class="cls-4" cx="811.72" cy="147.66" r="0.59"/><circle class="cls-4" cx="808.2" cy="151.18" r="0.59"/><circle class="cls-4" cx="812.45" cy="149.42" r="0.59"/><circle class="cls-4" cx="807.47" cy="149.42" r="0.59"/><circle class="cls-4" cx="811.72" cy="151.18" r="0.59"/><circle class="cls-4" cx="808.2" cy="147.66" r="0.59"/><rect class="cls-8" x="764.9" y="140.5" width="30.4" height="6.76"/><rect class="cls-8" x="728.78" y="141.57" width="30.4" height="6.76"/><rect class="cls-4" x="758.78" y="131.11" width="14.11" height="22.75" rx="1.82"/><rect class="cls-6" x="761.86" y="137.51" width="7.95" height="1.91"/><rect class="cls-8" x="761.86" y="147.85" width="7.95" height="1.91"/><rect class="cls-6" x="760.49" y="143.13" width="10.7" height="4.72"/><rect class="cls-10" x="762.86" y="127.83" width="68.23" height="23.46" transform="translate(1593.95 279.12) rotate(-180)"/><rect class="cls-10" x="751.5" y="124.07" width="22.73" height="7.52" rx="3.76" transform="translate(1525.72 255.65) rotate(180)"/><rect class="cls-10" x="209.99" y="124.07" width="22.73" height="7.52" rx="3.76" transform="translate(442.7 255.65) rotate(180)"/><path class="cls-1" d="M100,44.43v77.84a3.72,3.72,0,0,0,3.72,3.72h7.41v25.3h42A21.68,21.68,0,0,1,168.39,145H274.31a21.69,21.69,0,0,1,15.27,6.26h405A21.69,21.69,0,0,1,709.89,145H815.82a21.69,21.69,0,0,1,15.27,6.26h39.72V126h4a3.73,3.73,0,0,0,3.72-3.72V44.43Zm52.86,41.28a5.16,5.16,0,0,1-5.15,5.15h-4.39a5.16,5.16,0,0,1-5.15-5.15V80.39a5.15,5.15,0,0,1,5.15-5.14h4.39a5.15,5.15,0,0,1,5.15,5.14Zm63.14,0a5.16,5.16,0,0,1-5.15,5.15h-8a5.15,5.15,0,0,1-5.14-5.15V80.39a5.14,5.14,0,0,1,5.14-5.14h8A5.15,5.15,0,0,1,216,80.39Zm36.12,0A5.15,5.15,0,0,1,247,90.86h-8a5.16,5.16,0,0,1-5.15-5.15V80.39A5.15,5.15,0,0,1,239,75.25h8a5.14,5.14,0,0,1,5.14,5.14Zm36.12,0a5.15,5.15,0,0,1-5.14,5.15h-8A5.15,5.15,0,0,1,270,85.71V80.39a5.14,5.14,0,0,1,5.14-5.14h8a5.14,5.14,0,0,1,5.14,5.14Zm36.12,0a5.15,5.15,0,0,1-5.14,5.15h-8a5.15,5.15,0,0,1-5.14-5.15V80.39a5.14,5.14,0,0,1,5.14-5.14h8a5.14,5.14,0,0,1,5.14,5.14Zm36.12,0a5.15,5.15,0,0,1-5.14,5.15h-8a5.15,5.15,0,0,1-5.14-5.15V80.39a5.14,5.14,0,0,1,5.14-5.14h8a5.14,5.14,0,0,1,5.14,5.14Zm36.13,0a5.16,5.16,0,0,1-5.15,5.15h-8a5.15,5.15,0,0,1-5.14-5.15V80.39a5.14,5.14,0,0,1,5.14-5.14h8a5.15,5.15,0,0,1,5.15,5.14Zm36.12,0a5.15,5.15,0,0,1-5.14,5.15h-8a5.16,5.16,0,0,1-5.15-5.15V80.39a5.15,5.15,0,0,1,5.15-5.14h8a5.14,5.14,0,0,1,5.14,5.14Zm36.12,0a5.15,5.15,0,0,1-5.14,5.15h-8a5.15,5.15,0,0,1-5.14-5.15V80.39a5.14,5.14,0,0,1,5.14-5.14h8a5.14,5.14,0,0,1,5.14,5.14Zm36.12,0a5.15,5.15,0,0,1-5.14,5.15h-8a5.15,5.15,0,0,1-5.14-5.15V80.39a5.14,5.14,0,0,1,5.14-5.14h8A5.14,5.14,0,0,1,505,80.39Zm36.12,0A5.15,5.15,0,0,1,536,90.86h-8a5.15,5.15,0,0,1-5.14-5.15V80.39A5.14,5.14,0,0,1,528,75.25h8a5.14,5.14,0,0,1,5.14,5.14Zm36.13,0a5.16,5.16,0,0,1-5.15,5.15h-8A5.16,5.16,0,0,1,559,85.71V80.39a5.15,5.15,0,0,1,5.15-5.14h8a5.15,5.15,0,0,1,5.15,5.14Zm36.12,0a5.15,5.15,0,0,1-5.14,5.15h-8a5.15,5.15,0,0,1-5.14-5.15V80.39a5.14,5.14,0,0,1,5.14-5.14h8a5.14,5.14,0,0,1,5.14,5.14Zm36.12,0a5.15,5.15,0,0,1-5.14,5.15h-8a5.15,5.15,0,0,1-5.14-5.15V80.39a5.14,5.14,0,0,1,5.14-5.14h8a5.14,5.14,0,0,1,5.14,5.14Zm36.12,0a5.15,5.15,0,0,1-5.14,5.15h-8a5.15,5.15,0,0,1-5.14-5.15V80.39a5.14,5.14,0,0,1,5.14-5.14h8a5.14,5.14,0,0,1,5.14,5.14Zm36.13,0a5.16,5.16,0,0,1-5.15,5.15h-8a5.15,5.15,0,0,1-5.14-5.15V80.39a5.14,5.14,0,0,1,5.14-5.14h8a5.15,5.15,0,0,1,5.15,5.14Zm36.12,0a5.15,5.15,0,0,1-5.14,5.15h-8a5.16,5.16,0,0,1-5.15-5.15V80.39a5.15,5.15,0,0,1,5.15-5.14h8a5.14,5.14,0,0,1,5.14,5.14Zm36.12,0a5.15,5.15,0,0,1-5.14,5.15h-8a5.15,5.15,0,0,1-5.14-5.15V80.39a5.14,5.14,0,0,1,5.14-5.14h8A5.14,5.14,0,0,1,794,80.39Zm67.21-8.16a4.08,4.08,0,0,1-4.07,4.08h-2.55a4.08,4.08,0,0,1-4.08-4.08V69.22a4.08,4.08,0,0,1,4.08-4.08h2.55a4.08,4.08,0,0,1,4.07,4.08Z"/><g class="cls-11"><rect class="cls-10" x="67.12" y="126.09" width="900.38" height="60.63" transform="translate(1034.62 312.81) rotate(-180)"/><path class="cls-12" d="M773.78,126a3.75,3.75,0,0,0-3.32-2H755.25a3.75,3.75,0,0,0-3.31,2H232.27a3.75,3.75,0,0,0-3.32-2h-15.2a3.75,3.75,0,0,0-3.32,2H67.12v2.38H967.5V126Z"/></g><rect class="cls-13" x="642.39" y="132.91" width="35.12" height="16.17" transform="translate(1319.9 281.99) rotate(-180)"/><rect class="cls-13" x="350.15" y="132.91" width="42.71" height="16.17" transform="translate(743.01 281.99) rotate(-180)"/><rect class="cls-13" x="579.79" y="132.91" width="42.71" height="16.17" transform="translate(1202.3 281.99) rotate(-180)"/><rect class="cls-14" x="100.02" y="95.25" width="778.55" height="7.31" transform="translate(978.58 197.81) rotate(-180)"/><rect class="cls-14" x="100.02" y="104.34" width="778.55" height="2.82" transform="translate(978.58 211.51) rotate(-180)"/><rect class="cls-15" x="100.02" y="44.43" width="778.55" height="6.19"/><rect class="cls-16" x="402.59" y="113.79" width="186.53" height="5.33" rx="1.54"/><path class="cls-17" d="M861.66,59.7H850a5.56,5.56,0,0,0-5.56,5.56V114a5.56,5.56,0,0,0,5.56,5.56h11.65a5.56,5.56,0,0,0,5.56-5.56V65.26A5.56,5.56,0,0,0,861.66,59.7Zm-.48,17.85a4.08,4.08,0,0,1-4.07,4.08h-2.55a4.08,4.08,0,0,1-4.08-4.08V69.22a4.08,4.08,0,0,1,4.08-4.08h2.55a4.08,4.08,0,0,1,4.07,4.08Z"/><path class="cls-18" d="M921.6,186.72H65.18V15.92H921.6ZM780.84,90.86h8A5.15,5.15,0,0,0,794,85.71V80.39a5.14,5.14,0,0,0-5.14-5.14h-8a5.14,5.14,0,0,0-5.14,5.14v5.32A5.15,5.15,0,0,0,780.84,90.86Zm-36.12,0h8a5.15,5.15,0,0,0,5.15-5.15V80.39a5.14,5.14,0,0,0-5.15-5.14h-8a5.15,5.15,0,0,0-5.15,5.14v5.32A5.16,5.16,0,0,0,744.72,90.86Zm-36.13,0h8a5.16,5.16,0,0,0,5.15-5.15V80.39a5.15,5.15,0,0,0-5.15-5.14h-8a5.14,5.14,0,0,0-5.14,5.14v5.32A5.15,5.15,0,0,0,708.59,90.86Zm-36.12,0h8a5.15,5.15,0,0,0,5.14-5.15V80.39a5.14,5.14,0,0,0-5.14-5.14h-8a5.14,5.14,0,0,0-5.14,5.14v5.32A5.15,5.15,0,0,0,672.47,90.86Zm-36.12,0h8a5.15,5.15,0,0,0,5.14-5.15V80.39a5.14,5.14,0,0,0-5.14-5.14h-8a5.14,5.14,0,0,0-5.14,5.14v5.32A5.15,5.15,0,0,0,636.35,90.86Zm-36.12,0h8a5.15,5.15,0,0,0,5.14-5.15V80.39a5.14,5.14,0,0,0-5.14-5.14h-8a5.15,5.15,0,0,0-5.15,5.14v5.32A5.16,5.16,0,0,0,600.23,90.86Zm-36.12,0h8a5.16,5.16,0,0,0,5.15-5.15V80.39a5.15,5.15,0,0,0-5.15-5.14h-8A5.15,5.15,0,0,0,559,80.39v5.32A5.16,5.16,0,0,0,564.11,90.86Zm-36.13,0h8a5.15,5.15,0,0,0,5.14-5.15V80.39A5.14,5.14,0,0,0,536,75.25h-8a5.14,5.14,0,0,0-5.14,5.14v5.32A5.15,5.15,0,0,0,528,90.86Zm-36.12,0h8A5.15,5.15,0,0,0,505,85.71V80.39a5.14,5.14,0,0,0-5.14-5.14h-8a5.14,5.14,0,0,0-5.14,5.14v5.32A5.15,5.15,0,0,0,491.86,90.86Zm-36.12,0h8a5.15,5.15,0,0,0,5.14-5.15V80.39a5.14,5.14,0,0,0-5.14-5.14h-8a5.14,5.14,0,0,0-5.14,5.14v5.32A5.15,5.15,0,0,0,455.74,90.86Zm-36.12,0h8a5.15,5.15,0,0,0,5.14-5.15V80.39a5.14,5.14,0,0,0-5.14-5.14h-8a5.15,5.15,0,0,0-5.15,5.14v5.32A5.16,5.16,0,0,0,419.62,90.86Zm-36.13,0h8a5.16,5.16,0,0,0,5.15-5.15V80.39a5.15,5.15,0,0,0-5.15-5.14h-8a5.14,5.14,0,0,0-5.14,5.14v5.32A5.15,5.15,0,0,0,383.49,90.86Zm-36.12,0h8a5.15,5.15,0,0,0,5.14-5.15V80.39a5.14,5.14,0,0,0-5.14-5.14h-8a5.14,5.14,0,0,0-5.14,5.14v5.32A5.15,5.15,0,0,0,347.37,90.86Zm-36.12,0h8a5.15,5.15,0,0,0,5.14-5.15V80.39a5.14,5.14,0,0,0-5.14-5.14h-8a5.14,5.14,0,0,0-5.14,5.14v5.32A5.15,5.15,0,0,0,311.25,90.86Zm-36.12,0h8a5.15,5.15,0,0,0,5.14-5.15V80.39a5.14,5.14,0,0,0-5.14-5.14h-8A5.14,5.14,0,0,0,270,80.39v5.32A5.15,5.15,0,0,0,275.13,90.86Zm-36.12,0h8a5.15,5.15,0,0,0,5.14-5.15V80.39A5.14,5.14,0,0,0,247,75.25h-8a5.15,5.15,0,0,0-5.15,5.14v5.32A5.16,5.16,0,0,0,239,90.86Zm-36.13,0h8A5.16,5.16,0,0,0,216,85.71V80.39a5.15,5.15,0,0,0-5.15-5.14h-8a5.14,5.14,0,0,0-5.14,5.14v5.32A5.15,5.15,0,0,0,202.88,90.86Zm-59.54,0h4.39a5.16,5.16,0,0,0,5.15-5.15V80.39a5.15,5.15,0,0,0-5.15-5.14h-4.39a5.15,5.15,0,0,0-5.15,5.14v5.32A5.16,5.16,0,0,0,143.34,90.86Zm711.22-9.23h2.55a4.08,4.08,0,0,0,4.07-4.08V69.22a4.08,4.08,0,0,0-4.07-4.08h-2.55a4.08,4.08,0,0,0-4.08,4.08v8.33A4.08,4.08,0,0,0,854.56,81.63Z"/></g></svg>