<svg xmlns="http://www.w3.org/2000/svg" xmlns:xlink="http://www.w3.org/1999/xlink" viewBox="0 0 936.76 190.99"><defs><style>.cls-1{fill:none;}.cls-2{fill:#c7c8ca;}.cls-3{fill:#fff;}.cls-4{clip-path:url(#clip-path);}.cls-5{fill:#2d2b2c;}.cls-6{fill:#3f3e3f;}.cls-7{fill:#6a6a6c;}.cls-8{fill:#404040;}.cls-9{fill:#464547;}.cls-10{fill:#373537;}.cls-11{fill:#231f20;}.cls-12{fill:#c1c1c2;}.cls-13{clip-path:url(#clip-path-2);}.cls-14{fill:#9f9fa1;}.cls-15{clip-path:url(#clip-path-3);}.cls-16{fill:#dbdbdc;}.cls-17{fill:#5b5c5e;}.cls-18{fill:#aaabad;}.cls-19{fill:#afb0b2;}.cls-20{fill:gray;}.cls-21{fill:#c0bfbf;}.cls-22{fill:#e6e7e8;}.cls-23{fill:#cfcdce;}.cls-24{fill:#89898c;}.cls-25{opacity:0.36;}</style><clipPath id="clip-path"><path class="cls-1" d="M921.6,172H33.35V11.37H921.6ZM616.75,75.25h2.55a4.08,4.08,0,0,0,4.07-4.08V62.84a4.08,4.08,0,0,0-4.07-4.08h-2.55a4.08,4.08,0,0,0-4.08,4.08v8.33A4.08,4.08,0,0,0,616.75,75.25Zm-469.12.51h2.55a4.08,4.08,0,0,0,4.08-4.08V63.35a4.08,4.08,0,0,0-4.08-4.08h-2.55a4.07,4.07,0,0,0-4.07,4.08v8.33A4.08,4.08,0,0,0,147.63,75.76Zm500.22,8.41h0a4.07,4.07,0,0,0,4.08-4.07V71.76a4.07,4.07,0,0,0-4.08-4.07h0a4.07,4.07,0,0,0-4.07,4.07V80.1A4.07,4.07,0,0,0,647.85,84.17ZM536.65,85h4.9a5.14,5.14,0,0,0,5.14-5.14V74.52a5.15,5.15,0,0,0-5.14-5.15h-4.9a5.16,5.16,0,0,0-5.15,5.15v5.32A5.15,5.15,0,0,0,536.65,85Zm-31.71,0h4.9A5.14,5.14,0,0,0,515,79.84V74.52a5.15,5.15,0,0,0-5.14-5.15h-4.9a5.15,5.15,0,0,0-5.14,5.15v5.32A5.14,5.14,0,0,0,504.94,85Zm-31.71,0h4.9a5.15,5.15,0,0,0,5.15-5.14V74.52a5.16,5.16,0,0,0-5.15-5.15h-4.9a5.15,5.15,0,0,0-5.14,5.15v5.32A5.14,5.14,0,0,0,473.23,85Zm-31.7,0h4.9a5.14,5.14,0,0,0,5.14-5.14V74.52a5.15,5.15,0,0,0-5.14-5.15h-4.9a5.16,5.16,0,0,0-5.15,5.15v5.32A5.15,5.15,0,0,0,441.53,85Zm-31.71,0h4.9a5.14,5.14,0,0,0,5.14-5.14V74.52a5.15,5.15,0,0,0-5.14-5.15h-4.9a5.15,5.15,0,0,0-5.14,5.15v5.32A5.14,5.14,0,0,0,409.82,85Zm-31.71,0H383a5.15,5.15,0,0,0,5.15-5.14V74.52A5.16,5.16,0,0,0,383,69.37h-4.9A5.15,5.15,0,0,0,373,74.52v5.32A5.14,5.14,0,0,0,378.11,85Zm-31.7,0h4.9a5.14,5.14,0,0,0,5.14-5.14V74.52a5.15,5.15,0,0,0-5.14-5.15h-4.9a5.16,5.16,0,0,0-5.15,5.15v5.32A5.15,5.15,0,0,0,346.41,85ZM314.7,85h4.9a5.14,5.14,0,0,0,5.14-5.14V74.52a5.15,5.15,0,0,0-5.14-5.15h-4.9a5.15,5.15,0,0,0-5.14,5.15v5.32A5.14,5.14,0,0,0,314.7,85ZM283,85h4.91A5.14,5.14,0,0,0,293,79.84V74.52a5.15,5.15,0,0,0-5.14-5.15H283a5.15,5.15,0,0,0-5.14,5.15v5.32A5.14,5.14,0,0,0,283,85Zm-31.7,0h4.9a5.14,5.14,0,0,0,5.14-5.14V74.52a5.15,5.15,0,0,0-5.14-5.15h-4.9a5.16,5.16,0,0,0-5.15,5.15v5.32A5.15,5.15,0,0,0,251.29,85Zm-31.71,0h4.9a5.14,5.14,0,0,0,5.14-5.14V74.52a5.15,5.15,0,0,0-5.14-5.15h-4.9a5.15,5.15,0,0,0-5.14,5.15v5.32A5.14,5.14,0,0,0,219.58,85Zm-31.71,0h4.91a5.14,5.14,0,0,0,5.14-5.14V74.52a5.15,5.15,0,0,0-5.14-5.15h-4.91a5.15,5.15,0,0,0-5.14,5.15v5.32A5.14,5.14,0,0,0,187.87,85Z"/></clipPath><clipPath id="clip-path-2"><path class="cls-2" d="M843.52,106.61,777.46,78a380.83,380.83,0,0,0-141.4-31.3l-94.79-2.53,124,63.58Z"/></clipPath><clipPath id="clip-path-3"><path class="cls-3" d="M533.77,38.56A380,380,0,0,1,674,65.38h0A379.78,379.78,0,0,0,774.21,90.09l94.41,10a22.29,22.29,0,0,1,14,7l.79.86a22.29,22.29,0,0,1-.59,30.92h0a22.29,22.29,0,0,1-15.76,6.53H760.43a10.85,10.85,0,0,0-9.1-4.93H660.68a10.88,10.88,0,0,0-9.11,4.93H238A21.75,21.75,0,0,0,218.33,133H112.4a21.75,21.75,0,0,0-19.65,12.4H56.89V120.11H51.74A3.71,3.71,0,0,1,48,116.39V38.56Z"/></clipPath></defs><title>BulletFront</title><g id="Layer_4" data-name="Layer 4"><g class="cls-4"><rect class="cls-5" x="51.99" y="129.48" width="16.45" height="15.93" rx="2.03" transform="translate(120.43 274.9) rotate(-180)"/><rect class="cls-6" x="46.22" y="30.09" width="1.8" height="85.89" rx="0.9"/><rect class="cls-7" x="44.41" y="30.09" width="1.8" height="85.89" rx="0.9"/><rect class="cls-6" x="42.61" y="30.09" width="1.8" height="85.89" rx="0.9"/><rect class="cls-7" x="40.81" y="30.09" width="1.8" height="85.89" rx="0.9"/><rect class="cls-5" x="42.83" y="127.42" width="5.19" height="7.21" transform="translate(90.85 262.05) rotate(-180)"/><rect class="cls-8" x="45.07" y="121.83" width="16.45" height="15.93" rx="2.03" transform="translate(106.6 259.58) rotate(-180)"/><path class="cls-9" d="M40.81,125.65h.84a1.18,1.18,0,0,1,1.18,1.18v8.39a1.18,1.18,0,0,1-1.18,1.18h-.84a0,0,0,0,1,0,0V125.65a0,0,0,0,1,0,0Z" transform="translate(83.64 262.05) rotate(-180)"/><rect class="cls-5" x="47.44" y="121.83" width="16.45" height="12.8" rx="2.03" transform="translate(111.33 256.45) rotate(-180)"/><rect class="cls-8" x="51.64" y="110.58" width="16.45" height="15.93" rx="2.03" transform="translate(119.73 237.1) rotate(-180)"/><rect class="cls-5" x="135.58" y="134.35" width="32.7" height="11.88"/><path class="cls-5" d="M185.27,147.82v-5.29h3.42v-2.24h17.4a2.85,2.85,0,0,0,3-2.69v-4.83H176.36v15Z"/><rect class="cls-10" x="157.5" y="128.05" width="5.6" height="14.97"/><rect class="cls-10" x="171.6" y="128.05" width="5.6" height="14.97"/><path class="cls-9" d="M117,143.55l17.52-9.71a20,20,0,0,1,1,17.3Z"/><rect class="cls-6" x="98.8" y="147.99" width="38.47" height="3.98" rx="0.7"/><path class="cls-11" d="M117,143.55l-15.57-8.73a17.85,17.85,0,0,1,30.22-1.46Z"/><circle class="cls-10" cx="116.99" cy="143.55" r="13.05"/><path class="cls-6" d="M102.07,137.71h5.21l2.32,6.2a4.81,4.81,0,0,1,0,3.5l0,.05a1.54,1.54,0,0,0,1.42,2.12h13a1.54,1.54,0,0,0,1.44-2.07h0a4.81,4.81,0,0,1,.24-3.86l.81-1.59a6.82,6.82,0,0,1,6.06-3.7h15.81v-8.1h-8.51a11.09,11.09,0,0,0-4.8,1.09h0a4.17,4.17,0,0,1-2,.39l-17.88-.89a9.12,9.12,0,0,0-6.31,2.13l-1.08.91a3.16,3.16,0,0,1-2,.74h-3.68Z"/><rect class="cls-5" x="108.77" y="141.94" width="16.43" height="3.21" rx="0.64"/><rect class="cls-7" x="113.75" y="137.1" width="6.47" height="5.25"/><path class="cls-7" d="M126.82,130.4l-2.91-2.15a1.13,1.13,0,0,0-.64-.2h-5.21a1.07,1.07,0,0,0-1.07,1.07v4.17a1.07,1.07,0,0,0,1.07,1.07h5.34a1.07,1.07,0,0,0,.43-.09l3.23-1.42a1,1,0,0,1,.43-.09h1a1.07,1.07,0,0,0,1.07-1.07v0a1.07,1.07,0,0,0-1.07-1.07h-1A1.07,1.07,0,0,1,126.82,130.4Z"/><rect class="cls-6" x="101.21" y="138.71" width="4.25" height="7.45" rx="1.06"/><path class="cls-7" d="M100.91,132h0a14.06,14.06,0,0,0-3.23,9.57l.07,1.68a14.11,14.11,0,0,0,1,4.75l.59,1.43a2.08,2.08,0,0,0,3.19.87h0a2.09,2.09,0,0,0,.59-2.59h0a10.87,10.87,0,0,1-.9-7.18l.26-1.18.45-1.89a3.38,3.38,0,0,0-.35-2.45Z"/><circle class="cls-10" cx="116.99" cy="143.55" r="4.84"/><circle class="cls-7" cx="116.99" cy="141.06" r="0.59"/><circle class="cls-7" cx="116.99" cy="146.03" r="0.59"/><circle class="cls-7" cx="115.23" cy="141.79" r="0.59"/><circle class="cls-7" cx="118.74" cy="145.31" r="0.59"/><circle class="cls-7" cx="114.5" cy="143.55" r="0.59"/><circle class="cls-7" cx="119.47" cy="143.55" r="0.59"/><circle class="cls-7" cx="115.23" cy="145.31" r="0.59"/><circle class="cls-7" cx="118.74" cy="141.79" r="0.59"/><path class="cls-9" d="M213.92,143.55l-17.52-9.71a20.05,20.05,0,0,0-1,17.3Z"/><rect class="cls-6" x="193.64" y="147.99" width="38.47" height="3.98" rx="0.7" transform="translate(425.74 299.96) rotate(180)"/><path class="cls-11" d="M213.92,143.55l15.57-8.73a17.85,17.85,0,0,0-30.23-1.46Z"/><circle class="cls-10" cx="213.92" cy="143.55" r="13.05"/><path class="cls-6" d="M228.84,137.71h-5.21l-2.33,6.2a4.86,4.86,0,0,0,0,3.5l0,.05a1.54,1.54,0,0,1-1.42,2.12h-13a1.54,1.54,0,0,1-1.45-2.07h0a4.81,4.81,0,0,0-.23-3.86l-.82-1.59a6.8,6.8,0,0,0-6.05-3.7H182.56v-8.1h8.51a11.13,11.13,0,0,1,4.81,1.09h0a4.13,4.13,0,0,0,2,.39l17.89-.89A9.11,9.11,0,0,1,222,133l1.08.91a3.18,3.18,0,0,0,2,.74h3.69Z"/><rect class="cls-5" x="205.7" y="141.94" width="16.43" height="3.21" rx="0.64" transform="translate(427.84 287.1) rotate(180)"/><rect class="cls-7" x="210.68" y="137.1" width="6.47" height="5.25" transform="translate(427.84 279.44) rotate(180)"/><path class="cls-7" d="M204.09,130.4l2.91-2.15a1.07,1.07,0,0,1,.63-.2h5.22a1.07,1.07,0,0,1,1.07,1.07v4.17a1.07,1.07,0,0,1-1.07,1.07h-5.34a1.12,1.12,0,0,1-.44-.09l-3.22-1.42a1.07,1.07,0,0,0-.43-.09h-1a1.07,1.07,0,0,1-1.07-1.07v0a1.07,1.07,0,0,1,1.07-1.07h1A1.13,1.13,0,0,0,204.09,130.4Z"/><rect class="cls-6" x="225.45" y="138.71" width="4.25" height="7.45" rx="1.06" transform="translate(455.15 284.86) rotate(180)"/><path class="cls-7" d="M230,132h0a14.06,14.06,0,0,1,3.22,9.57l-.07,1.68a14.11,14.11,0,0,1-1,4.75l-.59,1.43a2.07,2.07,0,0,1-3.18.87h0a2.08,2.08,0,0,1-.6-2.59h0a10.87,10.87,0,0,0,.9-7.18l-.25-1.18-.46-1.89a3.43,3.43,0,0,1,.35-2.45Z"/><circle class="cls-10" cx="213.92" cy="143.55" r="4.84"/><circle class="cls-7" cx="213.92" cy="141.06" r="0.59"/><circle class="cls-7" cx="213.92" cy="146.03" r="0.59"/><circle class="cls-7" cx="215.68" cy="141.79" r="0.59"/><circle class="cls-7" cx="212.16" cy="145.31" r="0.59"/><circle class="cls-7" cx="216.4" cy="143.55" r="0.59"/><circle class="cls-7" cx="211.43" cy="143.55" r="0.59"/><circle class="cls-7" cx="215.68" cy="145.31" r="0.59"/><circle class="cls-7" cx="212.16" cy="141.79" r="0.59"/><rect class="cls-10" x="168.86" y="134.62" width="30.4" height="6.76"/><rect class="cls-10" x="132.74" y="135.69" width="30.4" height="6.76"/><rect class="cls-7" x="162.74" y="125.24" width="14.11" height="22.75" rx="1.82"/><rect class="cls-9" x="165.82" y="131.63" width="7.95" height="1.91"/><rect class="cls-10" x="165.82" y="141.98" width="7.95" height="1.91"/><rect class="cls-9" x="164.44" y="137.26" width="10.7" height="4.72"/><rect class="cls-5" x="674.78" y="134.35" width="32.7" height="11.88"/><path class="cls-5" d="M724.47,147.82v-5.29h3.43v-2.24h17.39a2.84,2.84,0,0,0,3-2.69v-4.83H715.57v15Z"/><rect class="cls-10" x="696.7" y="128.05" width="5.6" height="14.97"/><rect class="cls-10" x="710.81" y="128.05" width="5.6" height="14.97"/><path class="cls-9" d="M667.88,143.55l17.52-9.71a20.05,20.05,0,0,1,1,17.3Z"/><rect class="cls-6" x="649.7" y="147.99" width="38.47" height="3.98" rx="0.7"/><path class="cls-11" d="M667.88,143.55l-15.57-8.73a17.85,17.85,0,0,1,30.23-1.46Z"/><circle class="cls-10" cx="667.88" cy="143.55" r="13.05"/><path class="cls-6" d="M653,137.71h5.21l2.33,6.2a4.86,4.86,0,0,1,0,3.5l0,.05a1.54,1.54,0,0,0,1.42,2.12h13a1.55,1.55,0,0,0,1.45-2.07h0a4.81,4.81,0,0,1,.23-3.86l.81-1.59a6.82,6.82,0,0,1,6.06-3.7h15.82v-8.1h-8.51a11.13,11.13,0,0,0-4.81,1.09h0a4.15,4.15,0,0,1-2,.39l-17.89-.89a9.11,9.11,0,0,0-6.3,2.13l-1.08.91a3.2,3.2,0,0,1-2,.74H653Z"/><rect class="cls-5" x="659.66" y="141.94" width="16.43" height="3.21" rx="0.64"/><rect class="cls-7" x="664.65" y="137.1" width="6.47" height="5.25"/><path class="cls-7" d="M677.71,130.4l-2.91-2.15a1.07,1.07,0,0,0-.63-.2H669a1.07,1.07,0,0,0-1.07,1.07v4.17a1.07,1.07,0,0,0,1.07,1.07h5.34a1,1,0,0,0,.43-.09l3.23-1.42a1.07,1.07,0,0,1,.43-.09h1a1.06,1.06,0,0,0,1.07-1.07v0a1.06,1.06,0,0,0-1.07-1.07h-1A1.13,1.13,0,0,1,677.71,130.4Z"/><rect class="cls-6" x="652.1" y="138.71" width="4.25" height="7.45" rx="1.06"/><path class="cls-7" d="M651.8,132h0a14.06,14.06,0,0,0-3.22,9.57l.07,1.68a14.11,14.11,0,0,0,1,4.75l.59,1.43a2.07,2.07,0,0,0,3.18.87h0a2.08,2.08,0,0,0,.6-2.59h0a10.87,10.87,0,0,1-.9-7.18l.25-1.18.45-1.89a3.33,3.33,0,0,0-.35-2.45Z"/><circle class="cls-10" cx="667.88" cy="143.55" r="4.84"/><circle class="cls-7" cx="667.88" cy="141.06" r="0.59"/><circle class="cls-7" cx="667.88" cy="146.03" r="0.59"/><circle class="cls-7" cx="666.12" cy="141.79" r="0.59"/><circle class="cls-7" cx="669.64" cy="145.31" r="0.59"/><circle class="cls-7" cx="665.39" cy="143.55" r="0.59"/><circle class="cls-7" cx="670.37" cy="143.55" r="0.59"/><circle class="cls-7" cx="666.12" cy="145.31" r="0.59"/><circle class="cls-7" cx="669.64" cy="141.79" r="0.59"/><path class="cls-9" d="M746.62,143.55l-17.52-9.71a20.05,20.05,0,0,0-1,17.3Z"/><rect class="cls-6" x="726.34" y="147.99" width="38.47" height="3.98" rx="0.7" transform="translate(1491.14 299.96) rotate(180)"/><path class="cls-11" d="M746.62,143.55l15.57-8.73A17.85,17.85,0,0,0,732,133.36Z"/><circle class="cls-10" cx="746.62" cy="143.55" r="13.05"/><path class="cls-6" d="M761.54,137.71h-5.22l-2.32,6.2a4.86,4.86,0,0,0,0,3.5l0,.05a1.54,1.54,0,0,1-1.42,2.12h-13a1.54,1.54,0,0,1-1.44-2.07h0a4.81,4.81,0,0,0-.23-3.86l-.82-1.59a6.8,6.8,0,0,0-6.06-3.7H715.26v-8.1h8.51a11.16,11.16,0,0,1,4.81,1.09h0a4.13,4.13,0,0,0,2,.39l17.89-.89a9.11,9.11,0,0,1,6.3,2.13l1.08.91a3.18,3.18,0,0,0,2,.74h3.69Z"/><rect class="cls-5" x="738.4" y="141.94" width="16.43" height="3.21" rx="0.64" transform="translate(1493.24 287.1) rotate(180)"/><rect class="cls-7" x="743.38" y="137.1" width="6.47" height="5.25" transform="translate(1493.24 279.44) rotate(180)"/><path class="cls-7" d="M736.79,130.4l2.91-2.15a1.07,1.07,0,0,1,.63-.2h5.22a1.07,1.07,0,0,1,1.07,1.07v4.17a1.07,1.07,0,0,1-1.07,1.07H740.2a1.11,1.11,0,0,1-.43-.09l-3.22-1.42a1.07,1.07,0,0,0-.43-.09h-1a1.07,1.07,0,0,1-1.07-1.07v0a1.07,1.07,0,0,1,1.07-1.07h1A1.13,1.13,0,0,0,736.79,130.4Z"/><rect class="cls-6" x="758.15" y="138.71" width="4.25" height="7.45" rx="1.06" transform="translate(1520.54 284.86) rotate(180)"/><path class="cls-7" d="M762.7,132h0a14.06,14.06,0,0,1,3.22,9.57l-.07,1.68a14.11,14.11,0,0,1-1,4.75l-.59,1.43a2.07,2.07,0,0,1-3.18.87h0a2.08,2.08,0,0,1-.6-2.59h0a10.87,10.87,0,0,0,.9-7.18l-.25-1.18-.46-1.89A3.38,3.38,0,0,1,761,135Z"/><circle class="cls-10" cx="746.62" cy="143.55" r="4.84"/><circle class="cls-7" cx="746.62" cy="141.06" r="0.59"/><circle class="cls-7" cx="746.62" cy="146.03" r="0.59"/><circle class="cls-7" cx="748.38" cy="141.79" r="0.59"/><circle class="cls-7" cx="744.86" cy="145.31" r="0.59"/><circle class="cls-7" cx="749.1" cy="143.55" r="0.59"/><circle class="cls-7" cx="744.13" cy="143.55" r="0.59"/><circle class="cls-7" cx="748.38" cy="145.31" r="0.59"/><circle class="cls-7" cx="744.86" cy="141.79" r="0.59"/><rect class="cls-10" x="708.06" y="134.62" width="30.4" height="6.76"/><rect class="cls-10" x="671.94" y="135.69" width="30.4" height="6.76"/><rect class="cls-7" x="701.94" y="125.24" width="14.11" height="22.75" rx="1.82"/><rect class="cls-9" x="705.02" y="131.63" width="7.95" height="1.91"/><rect class="cls-10" x="705.02" y="141.98" width="7.95" height="1.91"/><rect class="cls-9" x="703.65" y="137.26" width="10.7" height="4.72"/><path class="cls-12" d="M119.36,27.94h-69A2.36,2.36,0,0,0,48,30.3V78.72H192V38.56H166.46a55,55,0,0,1-23.55-5.31h0A55,55,0,0,0,119.36,27.94Z"/><path class="cls-2" d="M843.52,106.61,777.46,78a380.83,380.83,0,0,0-141.4-31.3l-94.79-2.53,124,63.58Z"/><g class="cls-13"><path class="cls-14" d="M779.15,69.82S713,56.18,711.69,62s11.37,9.85,16.42,10.36,57.6,6.56,57.6,6.56Z"/></g><path class="cls-3" d="M533.77,38.56A380,380,0,0,1,674,65.38h0A379.78,379.78,0,0,0,774.21,90.09l94.41,10a22.29,22.29,0,0,1,14,7l.79.86a22.29,22.29,0,0,1-.59,30.92h0a22.29,22.29,0,0,1-15.76,6.53H760.43a10.85,10.85,0,0,0-9.1-4.93H660.68a10.88,10.88,0,0,0-9.11,4.93H238A21.75,21.75,0,0,0,218.33,133H112.4a21.75,21.75,0,0,0-19.65,12.4H56.89V120.11H51.74A3.71,3.71,0,0,1,48,116.39V38.56Z"/><g class="cls-15"><rect class="cls-16" x="9.88" y="120.22" width="900.38" height="60.63" transform="translate(920.14 301.07) rotate(-180)"/><rect class="cls-16" x="694.64" y="118.19" width="22.73" height="7.52" rx="3.76" transform="translate(1412.01 243.91) rotate(-180)"/><rect class="cls-16" x="154.27" y="118.19" width="22.73" height="7.52" rx="3.76" transform="translate(331.26 243.91) rotate(-180)"/><path class="cls-17" d="M716.92,120.11a3.76,3.76,0,0,0-3.31-2H698.4a3.76,3.76,0,0,0-3.32,2H176.55a3.76,3.76,0,0,0-3.32-2H158a3.76,3.76,0,0,0-3.32,2H9.88v2.39H910.26v-2.39Z"/><ellipse class="cls-18" cx="884.61" cy="124.42" rx="29.31" ry="34.18"/></g><rect class="cls-19" x="547.23" y="127.04" width="35.12" height="16.17" transform="translate(1129.58 270.25) rotate(-180)"/><rect class="cls-19" x="309.56" y="127.04" width="42.71" height="16.17" transform="translate(661.82 270.25) rotate(-180)"/><rect class="cls-20" x="48.02" y="89.38" width="591.83" height="7.31" transform="translate(687.87 186.06) rotate(-180)"/><rect class="cls-20" x="48.02" y="98.47" width="591.83" height="2.82" transform="translate(687.87 199.77) rotate(-180)"/><rect class="cls-21" x="137.52" y="53.83" width="22.77" height="59.87" rx="5.56" transform="translate(297.81 167.53) rotate(-180)"/><path class="cls-22" d="M674,71.57h0A379.78,379.78,0,0,0,774.21,96.28l94.41,10a22.29,22.29,0,0,1,14,7l.79.86a22.1,22.1,0,0,1,5.71,12.06A22.21,22.21,0,0,0,883.42,108l-.79-.86a22.29,22.29,0,0,0-14-7l-94.41-10A379.78,379.78,0,0,1,674,65.38h0A380,380,0,0,0,533.77,38.56H48v6.18H533.77A380,380,0,0,1,674,71.57Z"/><rect class="cls-21" x="639.23" y="63.63" width="17.25" height="50.08" rx="3.28" transform="translate(1295.71 177.33) rotate(-180)"/><rect class="cls-21" x="606.64" y="53.83" width="22.77" height="59.87" rx="5.56" transform="translate(1236.05 167.53) rotate(-180)"/><rect class="cls-23" x="240.18" y="47.94" width="189.72" height="66.51" rx="4"/><path class="cls-24" d="M425.9,114.44H244.19a4,4,0,0,1-4-4v2.65a4,4,0,0,0,4,4H425.9a4,4,0,0,0,4-4v-2.65A4,4,0,0,1,425.9,114.44Z"/></g></g></svg>