<svg xmlns="http://www.w3.org/2000/svg" xmlns:xlink="http://www.w3.org/1999/xlink" viewBox="0 0 936.76 190.99"><defs><style>.cls-1{fill:#fff;}.cls-2,.cls-3,.cls-4,.cls-6{fill:none;stroke-linecap:round;stroke-linejoin:round;}.cls-2,.cls-3,.cls-4{stroke:#a7a9ac;}.cls-2{stroke-width:7px;}.cls-3,.cls-6{stroke-width:5px;}.cls-4{stroke-width:3px;}.cls-5{fill:#dbdbdc;}.cls-6{stroke:#6d6e71;}.cls-7{fill:#2d2b2c;}.cls-8{fill:#3f3e3f;}.cls-9{fill:#6a6a6c;}.cls-10{fill:#404040;}.cls-11{fill:#464547;}.cls-12{fill:#c1c1c2;}.cls-13{fill:#373537;}.cls-14{fill:#231f20;}.cls-15{clip-path:url(#clip-path);}.cls-16{fill:#5b5c5e;}.cls-17{fill:#afb0b2;}.cls-18{fill:gray;}.cls-19{fill:#e6e7e8;}.cls-20{fill:#8e8675;}.cls-21{fill:#c0bfbf;}</style><clipPath id="clip-path"><path class="cls-1" d="M82.89,52.14V130a3.72,3.72,0,0,0,3.73,3.72H94V159h42a21.69,21.69,0,0,1,15.27-6.26H257.19A21.69,21.69,0,0,1,272.46,159h405a21.69,21.69,0,0,1,15.27-6.26H798.7A21.69,21.69,0,0,1,814,159h39.72V133.7h4a3.72,3.72,0,0,0,3.72-3.72V52.14Zm52.87,41.29a5.15,5.15,0,0,1-5.15,5.14h-4.39a5.15,5.15,0,0,1-5.15-5.14V88.1A5.15,5.15,0,0,1,126.22,83h4.39a5.15,5.15,0,0,1,5.15,5.14Zm63.13,0a5.14,5.14,0,0,1-5.14,5.14h-8a5.14,5.14,0,0,1-5.14-5.14V88.1A5.14,5.14,0,0,1,185.76,83h8a5.14,5.14,0,0,1,5.14,5.14Zm36.13,0a5.15,5.15,0,0,1-5.15,5.14h-8a5.14,5.14,0,0,1-5.14-5.14V88.1A5.14,5.14,0,0,1,221.88,83h8A5.15,5.15,0,0,1,235,88.1Zm36.12,0A5.14,5.14,0,0,1,266,98.57h-8a5.15,5.15,0,0,1-5.15-5.14V88.1A5.15,5.15,0,0,1,258,83h8a5.14,5.14,0,0,1,5.14,5.14Zm36.12,0a5.14,5.14,0,0,1-5.14,5.14h-8A5.14,5.14,0,0,1,289,93.43V88.1A5.14,5.14,0,0,1,294.13,83h8a5.14,5.14,0,0,1,5.14,5.14Zm36.12,0a5.14,5.14,0,0,1-5.14,5.14h-8a5.14,5.14,0,0,1-5.14-5.14V88.1A5.14,5.14,0,0,1,330.25,83h8a5.14,5.14,0,0,1,5.14,5.14Zm36.12,0a5.14,5.14,0,0,1-5.14,5.14h-8a5.14,5.14,0,0,1-5.14-5.14V88.1A5.14,5.14,0,0,1,366.37,83h8a5.14,5.14,0,0,1,5.14,5.14Zm36.13,0a5.15,5.15,0,0,1-5.15,5.14h-8a5.14,5.14,0,0,1-5.15-5.14V88.1A5.14,5.14,0,0,1,402.5,83h8a5.15,5.15,0,0,1,5.15,5.14Zm36.12,0a5.14,5.14,0,0,1-5.14,5.14h-8a5.15,5.15,0,0,1-5.15-5.14V88.1A5.15,5.15,0,0,1,438.62,83h8a5.14,5.14,0,0,1,5.14,5.14Zm36.12,0a5.14,5.14,0,0,1-5.14,5.14h-8a5.14,5.14,0,0,1-5.14-5.14V88.1A5.14,5.14,0,0,1,474.74,83h8a5.14,5.14,0,0,1,5.14,5.14Zm36.12,0a5.14,5.14,0,0,1-5.14,5.14h-8a5.14,5.14,0,0,1-5.14-5.14V88.1A5.14,5.14,0,0,1,510.86,83h8A5.14,5.14,0,0,1,524,88.1Zm36.13,0A5.15,5.15,0,0,1,555,98.57h-8a5.14,5.14,0,0,1-5.14-5.14V88.1A5.14,5.14,0,0,1,547,83h8a5.15,5.15,0,0,1,5.15,5.14Zm36.12,0a5.14,5.14,0,0,1-5.15,5.14h-8A5.15,5.15,0,0,1,578,93.43V88.1A5.15,5.15,0,0,1,583.11,83h8a5.14,5.14,0,0,1,5.15,5.14Zm36.12,0a5.14,5.14,0,0,1-5.14,5.14h-8a5.14,5.14,0,0,1-5.14-5.14V88.1A5.14,5.14,0,0,1,619.23,83h8a5.14,5.14,0,0,1,5.14,5.14Zm36.12,0a5.14,5.14,0,0,1-5.14,5.14h-8a5.14,5.14,0,0,1-5.14-5.14V88.1A5.14,5.14,0,0,1,655.35,83h8a5.14,5.14,0,0,1,5.14,5.14Zm36.12,0a5.14,5.14,0,0,1-5.14,5.14h-8a5.14,5.14,0,0,1-5.14-5.14V88.1A5.14,5.14,0,0,1,691.47,83h8a5.14,5.14,0,0,1,5.14,5.14Zm36.13,0a5.15,5.15,0,0,1-5.15,5.14h-8a5.14,5.14,0,0,1-5.14-5.14V88.1A5.14,5.14,0,0,1,727.59,83h8a5.15,5.15,0,0,1,5.15,5.14Zm36.12,0a5.14,5.14,0,0,1-5.14,5.14h-8a5.15,5.15,0,0,1-5.15-5.14V88.1A5.15,5.15,0,0,1,763.72,83h8a5.14,5.14,0,0,1,5.14,5.14Zm67.21-8.16A4.07,4.07,0,0,1,840,89.34h-2.54a4.08,4.08,0,0,1-4.08-4.07V76.93a4.08,4.08,0,0,1,4.08-4.07H840a4.07,4.07,0,0,1,4.08,4.07Z"/></clipPath></defs><title>BulletMidW</title><g id="Layer_4" data-name="Layer 4"><line class="cls-2" x1="634.54" y1="53.24" x2="690.12" y2="24.09"/><line class="cls-3" x1="665.23" y1="20.87" x2="634.54" y2="53.24"/><line class="cls-4" x1="687.27" y1="25.59" x2="630.5" y2="13.45"/><path class="cls-5" d="M602.89,44.65a97.17,97.17,0,0,1,51.57-14.81H682a97.17,97.17,0,0,1,51.57,14.81l33.24,20.81H569.65Z"/><path class="cls-6" d="M613.75,16.72c3.46-1.91,12.25-3.27,22.57-3.27s19.11,1.36,22.56,3.27"/><rect class="cls-7" x="86.87" y="143.07" width="16.45" height="15.93" rx="2.03" transform="translate(190.18 302.08) rotate(-180)"/><rect class="cls-8" x="81.09" y="43.68" width="1.8" height="85.89" rx="0.9"/><rect class="cls-9" x="79.29" y="43.68" width="1.8" height="85.89" rx="0.9"/><rect class="cls-8" x="77.49" y="43.68" width="1.8" height="85.89" rx="0.9"/><rect class="cls-9" x="75.69" y="43.68" width="1.8" height="85.89" rx="0.9"/><rect class="cls-7" x="77.71" y="141.01" width="5.19" height="7.21" transform="translate(160.6 289.23) rotate(-180)"/><rect class="cls-10" x="79.95" y="135.41" width="16.45" height="15.93" rx="2.03" transform="translate(176.35 286.76) rotate(-180)"/><path class="cls-11" d="M75.69,139.24h.84a1.18,1.18,0,0,1,1.18,1.18v8.39A1.18,1.18,0,0,1,76.53,150h-.84a0,0,0,0,1,0,0V139.24A0,0,0,0,1,75.69,139.24Z" transform="translate(153.39 289.23) rotate(-180)"/><rect class="cls-7" x="82.32" y="135.41" width="16.45" height="12.8" rx="2.03" transform="translate(181.08 283.63) rotate(-180)"/><rect class="cls-10" x="86.52" y="124.17" width="16.45" height="15.93" rx="2.03" transform="translate(189.48 264.28) rotate(-180)"/><rect class="cls-10" x="841.54" y="143.07" width="16.03" height="15.93" rx="2.03"/><rect class="cls-9" x="861.45" y="43.68" width="1.76" height="85.89" rx="0.88" transform="translate(1724.65 173.26) rotate(180)"/><rect class="cls-8" x="863.2" y="43.68" width="1.76" height="85.89" rx="0.88" transform="translate(1728.16 173.26) rotate(180)"/><rect class="cls-9" x="864.96" y="43.68" width="1.76" height="85.89" rx="0.88" transform="translate(1731.68 173.26) rotate(180)"/><rect class="cls-8" x="866.72" y="43.68" width="1.76" height="85.89" rx="0.88" transform="translate(1735.19 173.26) rotate(-180)"/><rect class="cls-10" x="861.45" y="141.01" width="5.06" height="7.21"/><rect class="cls-7" x="848.28" y="135.42" width="16.03" height="15.93" rx="2.03"/><path class="cls-7" d="M866.5,139.24h.79a1.18,1.18,0,0,1,1.18,1.18v8.39a1.18,1.18,0,0,1-1.18,1.18h-.79a0,0,0,0,1,0,0V139.24A0,0,0,0,1,866.5,139.24Z"/><rect class="cls-10" x="845.98" y="135.42" width="16.03" height="12.8" rx="2.03"/><rect class="cls-7" x="841.88" y="124.17" width="16.03" height="15.93" rx="2.03"/><path class="cls-12" d="M154.23,41.53h-69a2.36,2.36,0,0,0-2.36,2.36V68.73h144V52.14H201.34a55,55,0,0,1-23.55-5.3h0A55,55,0,0,0,154.23,41.53Z"/><path class="cls-12" d="M790.11,41.54h69a2.36,2.36,0,0,1,2.36,2.35v25.6h-144V52.15H743a55,55,0,0,0,23.56-5.31h0A55,55,0,0,1,790.11,41.54Z"/><rect class="cls-7" x="174.48" y="147.94" width="32.7" height="11.88"/><path class="cls-7" d="M224.17,161.41v-5.29h3.42v-2.24H245a2.86,2.86,0,0,0,3-2.69v-4.84H215.26v15.06Z"/><rect class="cls-13" x="196.4" y="141.64" width="5.6" height="14.97"/><rect class="cls-13" x="210.5" y="141.64" width="5.6" height="14.97"/><path class="cls-11" d="M155.89,157.14l17.52-9.71a20,20,0,0,1,1,17.3Z"/><rect class="cls-8" x="137.7" y="161.58" width="38.47" height="3.98" rx="0.7"/><path class="cls-14" d="M155.89,157.14l-15.57-8.73A17.85,17.85,0,0,1,170.54,147Z"/><circle class="cls-13" cx="155.89" cy="157.14" r="13.05"/><path class="cls-8" d="M141,151.29h5.21l2.32,6.21a4.81,4.81,0,0,1-.05,3.5l0,.05a1.54,1.54,0,0,0,1.43,2.12h13a1.54,1.54,0,0,0,1.44-2.07h0a4.84,4.84,0,0,1,.24-3.87l.81-1.58a6.82,6.82,0,0,1,6.06-3.7h15.81v-8.1h-8.51a11.09,11.09,0,0,0-4.8,1.09h0a4.17,4.17,0,0,1-2,.39l-17.88-.89a9.12,9.12,0,0,0-6.31,2.13l-1.08.91a3.16,3.16,0,0,1-2,.74H141Z"/><rect class="cls-7" x="147.67" y="155.53" width="16.43" height="3.21" rx="0.64"/><rect class="cls-9" x="152.65" y="150.69" width="6.47" height="5.25"/><path class="cls-9" d="M165.72,144l-2.91-2.15a1.13,1.13,0,0,0-.64-.2H157a1.06,1.06,0,0,0-1.07,1.07v4.17A1.07,1.07,0,0,0,157,148h5.34a1.07,1.07,0,0,0,.43-.09l3.23-1.42a1,1,0,0,1,.43-.09h1a1.07,1.07,0,0,0,1.07-1.07v0a1.07,1.07,0,0,0-1.07-1.07h-1A1.1,1.1,0,0,1,165.72,144Z"/><rect class="cls-8" x="140.11" y="152.3" width="4.25" height="7.45" rx="1.06"/><path class="cls-9" d="M139.81,145.57h0a14.06,14.06,0,0,0-3.23,9.57l.07,1.68a14.16,14.16,0,0,0,1,4.75l.59,1.43a2.08,2.08,0,0,0,3.19.87h0a2.1,2.1,0,0,0,.6-2.59h0a10.84,10.84,0,0,1-.91-7.19l.26-1.17.45-1.89a3.38,3.38,0,0,0-.35-2.45Z"/><circle class="cls-13" cx="155.89" cy="157.14" r="4.84"/><circle class="cls-9" cx="155.89" cy="154.65" r="0.59"/><circle class="cls-9" cx="155.89" cy="159.62" r="0.59"/><circle class="cls-9" cx="154.13" cy="155.38" r="0.59"/><circle class="cls-9" cx="157.64" cy="158.9" r="0.59"/><circle class="cls-9" cx="153.4" cy="157.14" r="0.59"/><circle class="cls-9" cx="158.37" cy="157.14" r="0.59"/><circle class="cls-9" cx="154.13" cy="158.9" r="0.59"/><circle class="cls-9" cx="157.64" cy="155.38" r="0.59"/><path class="cls-11" d="M252.82,157.14l-17.52-9.71a20.05,20.05,0,0,0-1,17.3Z"/><rect class="cls-8" x="232.54" y="161.58" width="38.47" height="3.98" rx="0.7" transform="translate(503.54 327.14) rotate(180)"/><path class="cls-14" d="M252.82,157.14l15.57-8.73A17.85,17.85,0,0,0,238.16,147Z"/><circle class="cls-13" cx="252.82" cy="157.14" r="13.05"/><path class="cls-8" d="M267.74,151.29h-5.21l-2.33,6.21a4.86,4.86,0,0,0,.05,3.5l0,.05a1.54,1.54,0,0,1-1.42,2.12h-13a1.55,1.55,0,0,1-1.45-2.07h0a4.83,4.83,0,0,0-.23-3.87l-.82-1.58a6.8,6.8,0,0,0-6.05-3.7H221.46v-8.1H230a11.13,11.13,0,0,1,4.81,1.09h0a4.13,4.13,0,0,0,2,.39l17.89-.89a9.11,9.11,0,0,1,6.3,2.13l1.08.91a3.2,3.2,0,0,0,2,.74h3.69Z"/><rect class="cls-7" x="244.6" y="155.53" width="16.43" height="3.21" rx="0.64" transform="translate(505.64 314.27) rotate(-180)"/><rect class="cls-9" x="249.58" y="150.69" width="6.47" height="5.25" transform="translate(505.64 306.62) rotate(-180)"/><path class="cls-9" d="M243,144l2.91-2.15a1.07,1.07,0,0,1,.63-.2h5.22a1.06,1.06,0,0,1,1.07,1.07v4.17a1.07,1.07,0,0,1-1.07,1.07h-5.34a1.12,1.12,0,0,1-.44-.09l-3.22-1.42a1.07,1.07,0,0,0-.43-.09h-1a1.07,1.07,0,0,1-1.08-1.07v0a1.07,1.07,0,0,1,1.08-1.07h1A1.13,1.13,0,0,0,243,144Z"/><rect class="cls-8" x="264.35" y="152.3" width="4.25" height="7.45" rx="1.06" transform="translate(532.95 312.04) rotate(180)"/><path class="cls-9" d="M268.9,145.57h0a14.06,14.06,0,0,1,3.22,9.57l-.07,1.68a14.16,14.16,0,0,1-1,4.75l-.59,1.43a2.07,2.07,0,0,1-3.18.87h0a2.08,2.08,0,0,1-.6-2.59h0a10.9,10.9,0,0,0,.9-7.19l-.25-1.17-.46-1.89a3.43,3.43,0,0,1,.35-2.45Z"/><circle class="cls-13" cx="252.82" cy="157.14" r="4.84"/><circle class="cls-9" cx="252.82" cy="154.65" r="0.59"/><circle class="cls-9" cx="252.82" cy="159.62" r="0.59"/><circle class="cls-9" cx="254.58" cy="155.38" r="0.59"/><circle class="cls-9" cx="251.06" cy="158.9" r="0.59"/><circle class="cls-9" cx="255.31" cy="157.14" r="0.59"/><circle class="cls-9" cx="250.33" cy="157.14" r="0.59"/><circle class="cls-9" cx="254.58" cy="158.9" r="0.59"/><circle class="cls-9" cx="251.06" cy="155.38" r="0.59"/><rect class="cls-13" x="207.76" y="148.21" width="30.4" height="6.76"/><rect class="cls-13" x="171.64" y="149.28" width="30.4" height="6.76"/><rect class="cls-9" x="201.64" y="138.83" width="14.11" height="22.75" rx="1.82"/><rect class="cls-11" x="204.72" y="145.22" width="7.95" height="1.91"/><rect class="cls-13" x="204.72" y="155.57" width="7.95" height="1.91"/><rect class="cls-11" x="203.34" y="150.85" width="10.7" height="4.72"/><rect class="cls-7" x="714.5" y="147.94" width="32.7" height="11.88"/><path class="cls-7" d="M764.19,161.41v-5.29h3.42v-2.24H785a2.86,2.86,0,0,0,3-2.69v-4.84H755.28v15.06Z"/><rect class="cls-13" x="736.42" y="141.64" width="5.6" height="14.97"/><rect class="cls-13" x="750.52" y="141.64" width="5.6" height="14.97"/><path class="cls-11" d="M695.91,157.14l17.52-9.71a20,20,0,0,1,1,17.3Z"/><rect class="cls-8" x="677.72" y="161.58" width="38.47" height="3.98" rx="0.7"/><path class="cls-14" d="M695.91,157.14l-15.57-8.73A17.85,17.85,0,0,1,710.56,147Z"/><circle class="cls-13" cx="695.91" cy="157.14" r="13.05"/><path class="cls-8" d="M681,151.29h5.22l2.32,6.21a4.81,4.81,0,0,1,0,3.5l0,.05a1.54,1.54,0,0,0,1.42,2.12h13a1.54,1.54,0,0,0,1.44-2.07h0a4.84,4.84,0,0,1,.24-3.87l.81-1.58a6.81,6.81,0,0,1,6.06-3.7h15.81v-8.1h-8.51a11.09,11.09,0,0,0-4.8,1.09h0a4.17,4.17,0,0,1-2,.39l-17.88-.89a9.12,9.12,0,0,0-6.31,2.13l-1.08.91a3.16,3.16,0,0,1-2,.74H681Z"/><rect class="cls-7" x="687.69" y="155.53" width="16.43" height="3.21" rx="0.64"/><rect class="cls-9" x="692.67" y="150.69" width="6.47" height="5.25"/><path class="cls-9" d="M705.74,144l-2.91-2.15a1.13,1.13,0,0,0-.64-.2H697a1.06,1.06,0,0,0-1.07,1.07v4.17A1.06,1.06,0,0,0,697,148h5.34a1.07,1.07,0,0,0,.43-.09l3.23-1.42a1,1,0,0,1,.43-.09h1a1.07,1.07,0,0,0,1.07-1.07v0a1.07,1.07,0,0,0-1.07-1.07h-1A1.07,1.07,0,0,1,705.74,144Z"/><rect class="cls-8" x="680.13" y="152.3" width="4.25" height="7.45" rx="1.06"/><path class="cls-9" d="M679.82,145.57h0a14.11,14.11,0,0,0-3.22,9.57l.07,1.68a14.16,14.16,0,0,0,1,4.75l.59,1.43a2.08,2.08,0,0,0,3.19.87h0a2.09,2.09,0,0,0,.59-2.59h0a10.9,10.9,0,0,1-.9-7.19l.26-1.17.45-1.89a3.38,3.38,0,0,0-.35-2.45Z"/><circle class="cls-13" cx="695.91" cy="157.14" r="4.84"/><circle class="cls-9" cx="695.91" cy="154.65" r="0.59"/><circle class="cls-9" cx="695.91" cy="159.62" r="0.59"/><circle class="cls-9" cx="694.15" cy="155.38" r="0.59"/><circle class="cls-9" cx="697.66" cy="158.9" r="0.59"/><circle class="cls-9" cx="693.42" cy="157.14" r="0.59"/><circle class="cls-9" cx="698.39" cy="157.14" r="0.59"/><circle class="cls-9" cx="694.15" cy="158.9" r="0.59"/><circle class="cls-9" cx="697.66" cy="155.38" r="0.59"/><path class="cls-11" d="M792.84,157.14l-17.52-9.71a20.05,20.05,0,0,0-1,17.3Z"/><rect class="cls-8" x="772.56" y="161.58" width="38.47" height="3.98" rx="0.7" transform="translate(1583.58 327.14) rotate(180)"/><path class="cls-14" d="M792.84,157.14l15.57-8.73A17.85,17.85,0,0,0,778.18,147Z"/><circle class="cls-13" cx="792.84" cy="157.14" r="13.05"/><path class="cls-8" d="M807.76,151.29h-5.22l-2.32,6.21a4.86,4.86,0,0,0,0,3.5l0,.05a1.54,1.54,0,0,1-1.42,2.12h-13a1.54,1.54,0,0,1-1.44-2.07h0a4.83,4.83,0,0,0-.23-3.87l-.82-1.58a6.8,6.8,0,0,0-6.06-3.7H761.48v-8.1H770a11.13,11.13,0,0,1,4.81,1.09h0a4.13,4.13,0,0,0,2,.39l17.89-.89a9.11,9.11,0,0,1,6.3,2.13l1.08.91a3.18,3.18,0,0,0,2,.74h3.69Z"/><rect class="cls-7" x="784.62" y="155.53" width="16.43" height="3.21" rx="0.64" transform="translate(1585.68 314.27) rotate(-180)"/><rect class="cls-9" x="789.6" y="150.69" width="6.47" height="5.25" transform="translate(1585.68 306.62) rotate(-180)"/><path class="cls-9" d="M783,144l2.91-2.15a1.07,1.07,0,0,1,.63-.2h5.22a1.06,1.06,0,0,1,1.07,1.07v4.17a1.07,1.07,0,0,1-1.07,1.07h-5.35a1.11,1.11,0,0,1-.43-.09l-3.22-1.42a1.07,1.07,0,0,0-.43-.09h-1a1.07,1.07,0,0,1-1.07-1.07v0a1.07,1.07,0,0,1,1.07-1.07h1A1.13,1.13,0,0,0,783,144Z"/><rect class="cls-8" x="804.37" y="152.3" width="4.25" height="7.45" rx="1.06" transform="translate(1612.98 312.04) rotate(180)"/><path class="cls-9" d="M808.92,145.57h0a14.06,14.06,0,0,1,3.22,9.57l-.07,1.68a14.16,14.16,0,0,1-1,4.75l-.59,1.43a2.07,2.07,0,0,1-3.18.87h0a2.08,2.08,0,0,1-.6-2.59h0a10.9,10.9,0,0,0,.9-7.19l-.25-1.17-.46-1.89a3.38,3.38,0,0,1,.35-2.45Z"/><circle class="cls-13" cx="792.84" cy="157.14" r="4.84"/><circle class="cls-9" cx="792.84" cy="154.65" r="0.59"/><circle class="cls-9" cx="792.84" cy="159.62" r="0.59"/><circle class="cls-9" cx="794.6" cy="155.38" r="0.59"/><circle class="cls-9" cx="791.08" cy="158.9" r="0.59"/><circle class="cls-9" cx="795.32" cy="157.14" r="0.59"/><circle class="cls-9" cx="790.35" cy="157.14" r="0.59"/><circle class="cls-9" cx="794.6" cy="158.9" r="0.59"/><circle class="cls-9" cx="791.08" cy="155.38" r="0.59"/><rect class="cls-13" x="747.78" y="148.21" width="30.4" height="6.76"/><rect class="cls-13" x="711.66" y="149.28" width="30.4" height="6.76"/><rect class="cls-9" x="741.66" y="138.83" width="14.11" height="22.75" rx="1.82"/><rect class="cls-11" x="744.74" y="145.22" width="7.95" height="1.91"/><rect class="cls-13" x="744.74" y="155.57" width="7.95" height="1.91"/><rect class="cls-11" x="743.36" y="150.85" width="10.7" height="4.72"/><rect class="cls-5" x="745.74" y="135.54" width="68.23" height="23.46" transform="translate(1559.71 294.55) rotate(-180)"/><rect class="cls-5" x="734.37" y="131.78" width="22.73" height="7.52" rx="3.76" transform="translate(1491.47 271.09) rotate(180)"/><rect class="cls-5" x="192.86" y="131.78" width="22.73" height="7.52" rx="3.76" transform="translate(408.46 271.09) rotate(180)"/><path class="cls-1" d="M82.89,52.14V130a3.72,3.72,0,0,0,3.73,3.72H94V159h42a21.69,21.69,0,0,1,15.27-6.26H257.19A21.69,21.69,0,0,1,272.46,159h405a21.69,21.69,0,0,1,15.27-6.26H798.7A21.69,21.69,0,0,1,814,159h39.72V133.7h4a3.72,3.72,0,0,0,3.72-3.72V52.14Zm52.87,41.29a5.15,5.15,0,0,1-5.15,5.14h-4.39a5.15,5.15,0,0,1-5.15-5.14V88.1A5.15,5.15,0,0,1,126.22,83h4.39a5.15,5.15,0,0,1,5.15,5.14Zm63.13,0a5.14,5.14,0,0,1-5.14,5.14h-8a5.14,5.14,0,0,1-5.14-5.14V88.1A5.14,5.14,0,0,1,185.76,83h8a5.14,5.14,0,0,1,5.14,5.14Zm36.13,0a5.15,5.15,0,0,1-5.15,5.14h-8a5.14,5.14,0,0,1-5.14-5.14V88.1A5.14,5.14,0,0,1,221.88,83h8A5.15,5.15,0,0,1,235,88.1Zm36.12,0A5.14,5.14,0,0,1,266,98.57h-8a5.15,5.15,0,0,1-5.15-5.14V88.1A5.15,5.15,0,0,1,258,83h8a5.14,5.14,0,0,1,5.14,5.14Zm36.12,0a5.14,5.14,0,0,1-5.14,5.14h-8A5.14,5.14,0,0,1,289,93.43V88.1A5.14,5.14,0,0,1,294.13,83h8a5.14,5.14,0,0,1,5.14,5.14Zm36.12,0a5.14,5.14,0,0,1-5.14,5.14h-8a5.14,5.14,0,0,1-5.14-5.14V88.1A5.14,5.14,0,0,1,330.25,83h8a5.14,5.14,0,0,1,5.14,5.14Zm36.12,0a5.14,5.14,0,0,1-5.14,5.14h-8a5.14,5.14,0,0,1-5.14-5.14V88.1A5.14,5.14,0,0,1,366.37,83h8a5.14,5.14,0,0,1,5.14,5.14Zm36.13,0a5.15,5.15,0,0,1-5.15,5.14h-8a5.14,5.14,0,0,1-5.15-5.14V88.1A5.14,5.14,0,0,1,402.5,83h8a5.15,5.15,0,0,1,5.15,5.14Zm36.12,0a5.14,5.14,0,0,1-5.14,5.14h-8a5.15,5.15,0,0,1-5.15-5.14V88.1A5.15,5.15,0,0,1,438.62,83h8a5.14,5.14,0,0,1,5.14,5.14Zm36.12,0a5.14,5.14,0,0,1-5.14,5.14h-8a5.14,5.14,0,0,1-5.14-5.14V88.1A5.14,5.14,0,0,1,474.74,83h8a5.14,5.14,0,0,1,5.14,5.14Zm36.12,0a5.14,5.14,0,0,1-5.14,5.14h-8a5.14,5.14,0,0,1-5.14-5.14V88.1A5.14,5.14,0,0,1,510.86,83h8A5.14,5.14,0,0,1,524,88.1Zm36.13,0A5.15,5.15,0,0,1,555,98.57h-8a5.14,5.14,0,0,1-5.14-5.14V88.1A5.14,5.14,0,0,1,547,83h8a5.15,5.15,0,0,1,5.15,5.14Zm36.12,0a5.14,5.14,0,0,1-5.15,5.14h-8A5.15,5.15,0,0,1,578,93.43V88.1A5.15,5.15,0,0,1,583.11,83h8a5.14,5.14,0,0,1,5.15,5.14Zm36.12,0a5.14,5.14,0,0,1-5.14,5.14h-8a5.14,5.14,0,0,1-5.14-5.14V88.1A5.14,5.14,0,0,1,619.23,83h8a5.14,5.14,0,0,1,5.14,5.14Zm36.12,0a5.14,5.14,0,0,1-5.14,5.14h-8a5.14,5.14,0,0,1-5.14-5.14V88.1A5.14,5.14,0,0,1,655.35,83h8a5.14,5.14,0,0,1,5.14,5.14Zm36.12,0a5.14,5.14,0,0,1-5.14,5.14h-8a5.14,5.14,0,0,1-5.14-5.14V88.1A5.14,5.14,0,0,1,691.47,83h8a5.14,5.14,0,0,1,5.14,5.14Zm36.13,0a5.15,5.15,0,0,1-5.15,5.14h-8a5.14,5.14,0,0,1-5.14-5.14V88.1A5.14,5.14,0,0,1,727.59,83h8a5.15,5.15,0,0,1,5.15,5.14Zm36.12,0a5.14,5.14,0,0,1-5.14,5.14h-8a5.15,5.15,0,0,1-5.15-5.14V88.1A5.15,5.15,0,0,1,763.72,83h8a5.14,5.14,0,0,1,5.14,5.14Zm67.21-8.16A4.07,4.07,0,0,1,840,89.34h-2.54a4.08,4.08,0,0,1-4.08-4.07V76.93a4.08,4.08,0,0,1,4.08-4.07H840a4.07,4.07,0,0,1,4.08,4.07Z"/><g class="cls-15"><rect class="cls-5" x="50" y="133.81" width="900.38" height="60.63" transform="translate(1000.37 328.25) rotate(-180)"/><path class="cls-16" d="M756.66,133.7a3.76,3.76,0,0,0-3.32-2H738.13a3.76,3.76,0,0,0-3.31,2H215.15a3.76,3.76,0,0,0-3.32-2H196.62a3.76,3.76,0,0,0-3.31,2H50v2.39H950.38V133.7Z"/></g><rect class="cls-17" x="625.27" y="140.63" width="35.12" height="16.17" transform="translate(1285.66 297.43) rotate(-180)"/><rect class="cls-17" x="333.03" y="140.63" width="42.71" height="16.17" transform="translate(708.77 297.43) rotate(-180)"/><rect class="cls-17" x="562.67" y="140.63" width="42.71" height="16.17" transform="translate(1168.05 297.43) rotate(-180)"/><rect class="cls-18" x="82.89" y="102.97" width="778.55" height="7.31" transform="translate(944.34 213.24) rotate(-180)"/><rect class="cls-18" x="82.89" y="112.06" width="778.55" height="2.82" transform="translate(944.34 226.94) rotate(-180)"/><rect class="cls-19" x="82.89" y="52.14" width="778.55" height="6.19"/><rect class="cls-20" x="385.47" y="121.51" width="186.53" height="5.33" rx="1.54"/><path class="cls-21" d="M844.54,67.42H832.88A5.55,5.55,0,0,0,827.33,73v48.76a5.55,5.55,0,0,0,5.55,5.55h11.66a5.56,5.56,0,0,0,5.56-5.55V73A5.56,5.56,0,0,0,844.54,67.42Zm-.48,17.85A4.07,4.07,0,0,1,840,89.34h-2.54a4.08,4.08,0,0,1-4.08-4.07V76.93a4.08,4.08,0,0,1,4.08-4.07H840a4.07,4.07,0,0,1,4.08,4.07Z"/></g></svg>