<svg xmlns="http://www.w3.org/2000/svg" xmlns:xlink="http://www.w3.org/1999/xlink" viewBox="0 0 936.76 190.99"><defs><style>.cls-1{fill:#c7c8ca;}.cls-2{fill:#fff;}.cls-3{fill:#2d2b2c;}.cls-4{fill:#3f3e3f;}.cls-5{fill:#6a6a6c;}.cls-6{fill:#404040;}.cls-7{fill:#464547;}.cls-8{fill:#373537;}.cls-9{fill:#231f20;}.cls-10{fill:#c1c1c2;}.cls-11{clip-path:url(#clip-path);}.cls-12{fill:#9f9fa1;}.cls-13{fill:#dbdbdc;}.cls-14{clip-path:url(#clip-path-2);}.cls-15{fill:#5b5c5e;}.cls-16{fill:#aaabad;}.cls-17{fill:#afb0b2;}.cls-18{fill:gray;}.cls-19{fill:#c0bfbf;}.cls-20{fill:#e6e7e8;}</style><clipPath id="clip-path"><path class="cls-1" d="M97.25,112.78l66.06-28.65a381,381,0,0,1,141.4-31.3l94.79-2.52L317.4,61.63,199,101.66Z"/></clipPath><clipPath id="clip-path-2"><path class="cls-2" d="M57.35,114.13A22.3,22.3,0,0,0,73.7,151.58H180.34a10.86,10.86,0,0,1,9.1-4.92h90.65a10.9,10.9,0,0,1,9.11,4.92H702.79a21.77,21.77,0,0,1,19.65-12.4H828.37A21.77,21.77,0,0,1,848,151.58h35.86v-25.3H889a3.72,3.72,0,0,0,3.72-3.72V44.72H407A379.8,379.8,0,0,0,266.77,71.55h0A380.07,380.07,0,0,1,166.56,96.26l-94.41,10a22.29,22.29,0,0,0-14,7ZM786.51,69.51a4.08,4.08,0,0,1,4.08-4.08h2.55a4.08,4.08,0,0,1,4.08,4.08v8.33a4.08,4.08,0,0,1-4.08,4.08h-2.55a4.08,4.08,0,0,1-4.08-4.08ZM742.85,80.68A5.15,5.15,0,0,1,748,75.54h4.9A5.14,5.14,0,0,1,758,80.68V86a5.14,5.14,0,0,1-5.14,5.14H748A5.15,5.15,0,0,1,742.85,86Zm-31.7,0a5.14,5.14,0,0,1,5.14-5.14h4.9a5.14,5.14,0,0,1,5.14,5.14V86a5.14,5.14,0,0,1-5.14,5.14h-4.9A5.14,5.14,0,0,1,711.15,86Zm-31.71,0a5.14,5.14,0,0,1,5.14-5.14h4.9a5.15,5.15,0,0,1,5.15,5.14V86a5.15,5.15,0,0,1-5.15,5.14h-4.9A5.14,5.14,0,0,1,679.44,86Zm-31.71,0a5.15,5.15,0,0,1,5.15-5.14h4.9a5.14,5.14,0,0,1,5.14,5.14V86a5.14,5.14,0,0,1-5.14,5.14h-4.9A5.15,5.15,0,0,1,647.73,86Zm-31.7,0a5.14,5.14,0,0,1,5.14-5.14h4.9a5.14,5.14,0,0,1,5.14,5.14V86a5.14,5.14,0,0,1-5.14,5.14h-4.9A5.14,5.14,0,0,1,616,86Zm-31.71,0a5.14,5.14,0,0,1,5.14-5.14h4.9a5.14,5.14,0,0,1,5.15,5.14V86a5.14,5.14,0,0,1-5.15,5.14h-4.9A5.14,5.14,0,0,1,584.32,86Zm-31.71,0a5.15,5.15,0,0,1,5.15-5.14h4.9a5.14,5.14,0,0,1,5.14,5.14V86a5.14,5.14,0,0,1-5.14,5.14h-4.9A5.15,5.15,0,0,1,552.61,86Zm-31.7,0a5.14,5.14,0,0,1,5.14-5.14H531a5.14,5.14,0,0,1,5.14,5.14V86A5.14,5.14,0,0,1,531,91.15h-4.9A5.14,5.14,0,0,1,520.91,86Zm-31.71,0a5.14,5.14,0,0,1,5.14-5.14h4.91a5.14,5.14,0,0,1,5.14,5.14V86a5.14,5.14,0,0,1-5.14,5.14h-4.91A5.14,5.14,0,0,1,489.2,86Zm-31.7,0a5.14,5.14,0,0,1,5.14-5.14h4.9a5.14,5.14,0,0,1,5.14,5.14V86a5.14,5.14,0,0,1-5.14,5.14h-4.9A5.14,5.14,0,0,1,457.5,86Zm-31.71,0a5.14,5.14,0,0,1,5.14-5.14h4.9A5.15,5.15,0,0,1,441,80.68V86a5.15,5.15,0,0,1-5.15,5.14h-4.9A5.14,5.14,0,0,1,425.79,86Zm-31.71,0a5.14,5.14,0,0,1,5.14-5.14h4.91a5.14,5.14,0,0,1,5.14,5.14V86a5.14,5.14,0,0,1-5.14,5.14h-4.91A5.14,5.14,0,0,1,394.08,86ZM317.4,69a4.08,4.08,0,0,1,4.07-4.08H324A4.08,4.08,0,0,1,328.1,69v8.33A4.08,4.08,0,0,1,324,81.42h-2.55a4.08,4.08,0,0,1-4.07-4.08Zm-28.56,8.92a4.08,4.08,0,1,1,8.15,0v8.33a4.08,4.08,0,1,1-8.15,0Z"/></clipPath></defs><title>BulletEnd</title><g id="Layer_4" data-name="Layer 4"><rect class="cls-3" x="872.34" y="135.65" width="16.45" height="15.93" rx="2.03"/><rect class="cls-4" x="892.75" y="36.26" width="1.8" height="85.89" rx="0.9" transform="translate(1787.31 158.41) rotate(-180)"/><rect class="cls-5" x="894.56" y="36.26" width="1.8" height="85.89" rx="0.9" transform="translate(1790.91 158.41) rotate(-180)"/><rect class="cls-4" x="896.36" y="36.26" width="1.8" height="85.89" rx="0.9" transform="translate(1794.52 158.41) rotate(-180)"/><rect class="cls-5" x="898.16" y="36.26" width="1.8" height="85.89" rx="0.9" transform="translate(1798.12 158.41) rotate(-180)"/><rect class="cls-3" x="892.75" y="133.59" width="5.19" height="7.21"/><rect class="cls-6" x="879.25" y="127.99" width="16.45" height="15.93" rx="2.03"/><path class="cls-7" d="M897.94,131.81h.84A1.18,1.18,0,0,1,900,133v8.39a1.18,1.18,0,0,1-1.18,1.18h-.84a0,0,0,0,1,0,0V131.81a0,0,0,0,1,0,0Z"/><rect class="cls-3" x="876.88" y="127.99" width="16.45" height="12.8" rx="2.03"/><rect class="cls-6" x="872.68" y="116.75" width="16.45" height="15.93" rx="2.03"/><rect class="cls-3" x="772.49" y="140.52" width="32.7" height="11.88" transform="translate(1577.69 292.91) rotate(180)"/><path class="cls-3" d="M755.51,154V148.7h-3.43v-2.24h-17.4a2.86,2.86,0,0,1-3-2.69v-4.84h32.72v15Z"/><rect class="cls-8" x="777.67" y="134.21" width="5.6" height="14.97" transform="translate(1560.95 283.39) rotate(180)"/><rect class="cls-8" x="763.57" y="134.21" width="5.6" height="14.97" transform="translate(1532.73 283.39) rotate(180)"/><path class="cls-7" d="M823.79,149.71,806.26,140a20.07,20.07,0,0,0-1,17.29Z"/><rect class="cls-4" x="803.5" y="154.16" width="38.47" height="3.98" rx="0.7" transform="translate(1645.47 312.29) rotate(-180)"/><path class="cls-9" d="M823.79,149.71,839.36,141a17.85,17.85,0,0,0-30.23-1.46Z"/><circle class="cls-8" cx="823.79" cy="149.71" r="13.05"/><path class="cls-4" d="M838.71,143.87h-5.22l-2.32,6.2a4.81,4.81,0,0,0,.05,3.5l0,.06a1.53,1.53,0,0,1-1.42,2.11h-13a1.53,1.53,0,0,1-1.44-2.06h0a4.83,4.83,0,0,0-.23-3.87l-.82-1.58a6.79,6.79,0,0,0-6.06-3.71H792.43v-8.1h8.51a11.23,11.23,0,0,1,4.8,1.09h0a4.08,4.08,0,0,0,2,.4l17.88-.89a9.11,9.11,0,0,1,6.31,2.12l1.08.92a3.16,3.16,0,0,0,2,.74h3.69Z"/><rect class="cls-3" x="815.57" y="148.11" width="16.43" height="3.21" rx="0.64" transform="translate(1647.57 299.43) rotate(-180)"/><rect class="cls-5" x="820.55" y="143.26" width="6.47" height="5.25" transform="translate(1647.57 291.77) rotate(-180)"/><path class="cls-5" d="M814,136.56l2.91-2.14a1.14,1.14,0,0,1,.64-.21h5.21a1.07,1.07,0,0,1,1.08,1.07v4.18a1.07,1.07,0,0,1-1.08,1.07h-5.34a1.07,1.07,0,0,1-.43-.09L813.72,139a1.12,1.12,0,0,0-.44-.09h-1a1.07,1.07,0,0,1-1.07-1.07v0a1.07,1.07,0,0,1,1.07-1.07h1A1,1,0,0,0,814,136.56Z"/><rect class="cls-4" x="835.31" y="144.87" width="4.25" height="7.45" rx="1.06" transform="translate(1674.88 297.2) rotate(-180)"/><path class="cls-5" d="M839.87,138.15h0a14.06,14.06,0,0,1,3.22,9.57L843,149.4a14,14,0,0,1-1,4.74l-.59,1.44a2.08,2.08,0,0,1-3.19.86h0a2.07,2.07,0,0,1-.59-2.58h0a10.9,10.9,0,0,0,.9-7.19l-.26-1.17-.45-1.89a3.38,3.38,0,0,1,.35-2.45Z"/><circle class="cls-8" cx="823.79" cy="149.71" r="4.84"/><circle class="cls-5" cx="823.79" cy="147.23" r="0.59"/><circle class="cls-5" cx="823.79" cy="152.2" r="0.59"/><circle class="cls-5" cx="825.54" cy="147.96" r="0.59"/><circle class="cls-5" cx="822.03" cy="151.47" r="0.59"/><circle class="cls-5" cx="826.27" cy="149.71" r="0.59"/><circle class="cls-5" cx="821.3" cy="149.71" r="0.59"/><circle class="cls-5" cx="825.54" cy="151.47" r="0.59"/><circle class="cls-5" cx="822.03" cy="147.96" r="0.59"/><path class="cls-7" d="M726.85,149.71l17.52-9.7a20,20,0,0,1,1,17.29Z"/><rect class="cls-4" x="708.67" y="154.16" width="38.47" height="3.98" rx="0.7"/><path class="cls-9" d="M726.85,149.71,711.28,141a17.85,17.85,0,0,1,30.23-1.46Z"/><circle class="cls-8" cx="726.85" cy="149.71" r="13.05"/><path class="cls-4" d="M711.93,143.87h5.22l2.32,6.2a4.86,4.86,0,0,1-.05,3.5l0,.06a1.53,1.53,0,0,0,1.42,2.11h13a1.53,1.53,0,0,0,1.44-2.06h0a4.83,4.83,0,0,1,.23-3.87l.82-1.58a6.79,6.79,0,0,1,6.06-3.71h15.81v-8.1H749.7a11.23,11.23,0,0,0-4.8,1.09h0a4.08,4.08,0,0,1-2,.4L725.05,137a9.11,9.11,0,0,0-6.31,2.12l-1.08.92a3.18,3.18,0,0,1-2,.74h-3.69Z"/><rect class="cls-3" x="718.64" y="148.11" width="16.43" height="3.21" rx="0.64"/><rect class="cls-5" x="723.62" y="143.26" width="6.47" height="5.25"/><path class="cls-5" d="M736.69,136.56l-2.92-2.14a1.08,1.08,0,0,0-.63-.21h-5.22a1.07,1.07,0,0,0-1.07,1.07v4.18a1.07,1.07,0,0,0,1.07,1.07h5.35a1.11,1.11,0,0,0,.43-.09l3.22-1.42a1.07,1.07,0,0,1,.43-.09h1a1.07,1.07,0,0,0,1.07-1.07v0a1.07,1.07,0,0,0-1.07-1.07h-1A1,1,0,0,1,736.69,136.56Z"/><rect class="cls-4" x="711.07" y="144.87" width="4.25" height="7.45" rx="1.06"/><path class="cls-5" d="M710.77,138.15h0a14.06,14.06,0,0,0-3.22,9.57l.07,1.68a14,14,0,0,0,1,4.74l.59,1.44a2.07,2.07,0,0,0,3.18.86h0a2.06,2.06,0,0,0,.6-2.58h0a10.9,10.9,0,0,1-.9-7.19l.26-1.17.45-1.89a3.38,3.38,0,0,0-.35-2.45Z"/><circle class="cls-8" cx="726.85" cy="149.71" r="4.84"/><circle class="cls-5" cx="726.85" cy="147.23" r="0.59"/><circle class="cls-5" cx="726.85" cy="152.2" r="0.59"/><circle class="cls-5" cx="725.09" cy="147.96" r="0.59"/><circle class="cls-5" cx="728.61" cy="151.47" r="0.59"/><circle class="cls-5" cx="724.37" cy="149.71" r="0.59"/><circle class="cls-5" cx="729.34" cy="149.71" r="0.59"/><circle class="cls-5" cx="725.09" cy="151.47" r="0.59"/><circle class="cls-5" cx="728.61" cy="147.96" r="0.59"/><rect class="cls-8" x="741.51" y="140.79" width="30.4" height="6.76" transform="translate(1513.42 288.34) rotate(-180)"/><rect class="cls-8" x="777.63" y="141.86" width="30.4" height="6.76" transform="translate(1585.67 290.48) rotate(-180)"/><rect class="cls-5" x="763.93" y="131.41" width="14.11" height="22.75" rx="1.82" transform="translate(1541.96 285.56) rotate(-180)"/><rect class="cls-7" x="767" y="137.8" width="7.95" height="1.91" transform="translate(1541.96 277.51) rotate(-180)"/><rect class="cls-8" x="767" y="148.15" width="7.95" height="1.91" transform="translate(1541.96 298.21) rotate(-180)"/><rect class="cls-7" x="765.63" y="143.43" width="10.7" height="4.72" transform="translate(1541.96 291.58) rotate(-180)"/><rect class="cls-3" x="233.29" y="140.52" width="32.7" height="11.88" transform="translate(499.28 292.91) rotate(180)"/><path class="cls-3" d="M216.3,154V148.7h-3.42v-2.24h-17.4a2.86,2.86,0,0,1-3-2.69v-4.84H225.2v15Z"/><rect class="cls-8" x="238.47" y="134.21" width="5.6" height="14.97" transform="translate(482.54 283.39) rotate(180)"/><rect class="cls-8" x="224.36" y="134.21" width="5.6" height="14.97" transform="translate(454.32 283.39) rotate(180)"/><path class="cls-7" d="M272.89,149.71,255.37,140a20,20,0,0,0-1,17.29Z"/><rect class="cls-4" x="252.61" y="154.16" width="38.47" height="3.98" rx="0.7" transform="translate(543.68 312.29) rotate(-180)"/><path class="cls-9" d="M272.89,149.71,288.46,141a17.85,17.85,0,0,0-30.23-1.46Z"/><circle class="cls-8" cx="272.89" cy="149.71" r="13.05"/><path class="cls-4" d="M287.81,143.87H282.6l-2.32,6.2a4.8,4.8,0,0,0,0,3.5l0,.06a1.54,1.54,0,0,1-1.43,2.11h-13a1.53,1.53,0,0,1-1.44-2.06h0a4.83,4.83,0,0,0-.24-3.87l-.81-1.58a6.81,6.81,0,0,0-6.06-3.71H241.54v-8.1H250a11.24,11.24,0,0,1,4.81,1.09h0a4,4,0,0,0,2,.4L274.7,137a9.09,9.09,0,0,1,6.3,2.12l1.09.92a3.16,3.16,0,0,0,2,.74h3.68Z"/><rect class="cls-3" x="264.67" y="148.11" width="16.43" height="3.21" rx="0.64" transform="translate(545.78 299.43) rotate(-180)"/><rect class="cls-5" x="269.66" y="143.26" width="6.47" height="5.25" transform="translate(545.78 291.77) rotate(-180)"/><path class="cls-5" d="M263.06,136.56l2.91-2.14a1.11,1.11,0,0,1,.63-.21h5.22a1.07,1.07,0,0,1,1.07,1.07v4.18a1.07,1.07,0,0,1-1.07,1.07h-5.34a1,1,0,0,1-.43-.09L262.82,139a1,1,0,0,0-.43-.09h-1a1.07,1.07,0,0,1-1.07-1.07v0a1.07,1.07,0,0,1,1.07-1.07h1A1.07,1.07,0,0,0,263.06,136.56Z"/><rect class="cls-4" x="284.42" y="144.87" width="4.25" height="7.45" rx="1.06" transform="translate(573.09 297.2) rotate(-180)"/><path class="cls-5" d="M289,138.15h0a14.06,14.06,0,0,1,3.22,9.57l-.07,1.68a14,14,0,0,1-1,4.74l-.59,1.44a2.07,2.07,0,0,1-3.18.86h0a2.08,2.08,0,0,1-.6-2.58h0a10.84,10.84,0,0,0,.91-7.19l-.26-1.17-.45-1.89a3.33,3.33,0,0,1,.35-2.45Z"/><circle class="cls-8" cx="272.89" cy="149.71" r="4.84"/><circle class="cls-5" cx="272.89" cy="147.23" r="0.59"/><circle class="cls-5" cx="272.89" cy="152.2" r="0.59"/><circle class="cls-5" cx="274.65" cy="147.96" r="0.59"/><circle class="cls-5" cx="271.13" cy="151.47" r="0.59"/><circle class="cls-5" cx="275.38" cy="149.71" r="0.59"/><circle class="cls-5" cx="270.4" cy="149.71" r="0.59"/><circle class="cls-5" cx="274.65" cy="151.47" r="0.59"/><circle class="cls-5" cx="271.13" cy="147.96" r="0.59"/><path class="cls-7" d="M194.15,149.71l17.52-9.7a20,20,0,0,1,1,17.29Z"/><rect class="cls-4" x="175.97" y="154.16" width="38.47" height="3.98" rx="0.7"/><path class="cls-9" d="M194.15,149.71,178.58,141a17.85,17.85,0,0,1,30.23-1.46Z"/><circle class="cls-8" cx="194.15" cy="149.71" r="13.05"/><path class="cls-4" d="M179.23,143.87h5.22l2.32,6.2a4.81,4.81,0,0,1-.05,3.5l0,.06a1.53,1.53,0,0,0,1.42,2.11h13a1.53,1.53,0,0,0,1.44-2.06h0a4.83,4.83,0,0,1,.23-3.87l.82-1.58a6.79,6.79,0,0,1,6.06-3.71h15.81v-8.1H217a11.23,11.23,0,0,0-4.8,1.09h0a4.08,4.08,0,0,1-2,.4L192.35,137a9.11,9.11,0,0,0-6.31,2.12l-1.08.92a3.16,3.16,0,0,1-2,.74h-3.69Z"/><rect class="cls-3" x="185.94" y="148.11" width="16.43" height="3.21" rx="0.64"/><rect class="cls-5" x="190.92" y="143.26" width="6.47" height="5.25"/><path class="cls-5" d="M204,136.56l-2.92-2.14a1.08,1.08,0,0,0-.63-.21h-5.22a1.07,1.07,0,0,0-1.07,1.07v4.18a1.07,1.07,0,0,0,1.07,1.07h5.35a1.07,1.07,0,0,0,.43-.09l3.22-1.42a1.11,1.11,0,0,1,.43-.09h1a1.07,1.07,0,0,0,1.07-1.07v0a1.07,1.07,0,0,0-1.07-1.07h-1A1,1,0,0,1,204,136.56Z"/><rect class="cls-4" x="178.37" y="144.87" width="4.25" height="7.45" rx="1.06"/><path class="cls-5" d="M178.07,138.15h0a14.06,14.06,0,0,0-3.22,9.57l.07,1.68a14,14,0,0,0,1,4.74l.59,1.44a2.07,2.07,0,0,0,3.18.86h0a2.06,2.06,0,0,0,.6-2.58h0a10.9,10.9,0,0,1-.9-7.19l.26-1.17.45-1.89a3.38,3.38,0,0,0-.35-2.45Z"/><circle class="cls-8" cx="194.15" cy="149.71" r="4.84"/><circle class="cls-5" cx="194.15" cy="147.23" r="0.59"/><circle class="cls-5" cx="194.15" cy="152.2" r="0.59"/><circle class="cls-5" cx="192.4" cy="147.96" r="0.59"/><circle class="cls-5" cx="195.91" cy="151.47" r="0.59"/><circle class="cls-5" cx="191.67" cy="149.71" r="0.59"/><circle class="cls-5" cx="196.64" cy="149.71" r="0.59"/><circle class="cls-5" cx="192.4" cy="151.47" r="0.59"/><circle class="cls-5" cx="195.91" cy="147.96" r="0.59"/><rect class="cls-8" x="202.31" y="140.79" width="30.4" height="6.76" transform="translate(435.01 288.34) rotate(-180)"/><rect class="cls-8" x="238.43" y="141.86" width="30.4" height="6.76" transform="translate(507.26 290.48) rotate(-180)"/><rect class="cls-5" x="224.72" y="131.41" width="14.11" height="22.75" rx="1.82" transform="translate(463.55 285.56) rotate(-180)"/><rect class="cls-7" x="227.8" y="137.8" width="7.95" height="1.91" transform="translate(463.55 277.51) rotate(-180)"/><rect class="cls-8" x="227.8" y="148.15" width="7.95" height="1.91" transform="translate(463.55 298.21) rotate(-180)"/><rect class="cls-7" x="226.43" y="143.43" width="10.7" height="4.72" transform="translate(463.55 291.58) rotate(-180)"/><path class="cls-10" d="M821.42,34.11h69a2.35,2.35,0,0,1,2.35,2.35v23h-144V44.72h25.52a55,55,0,0,0,23.55-5.3h0A54.86,54.86,0,0,1,821.42,34.11Z"/><path class="cls-1" d="M97.25,112.78l66.06-28.65a381,381,0,0,1,141.4-31.3l94.79-2.52L317.4,61.63,199,101.66Z"/><g class="cls-11"><path class="cls-12" d="M161.63,76s66.18-13.65,67.45-7.84S217.71,78,212.66,78.51s-57.6,6.57-57.6,6.57Z"/></g><rect class="cls-13" x="223.41" y="124.36" width="22.73" height="7.52" rx="3.76"/><rect class="cls-13" x="763.78" y="124.36" width="22.73" height="7.52" rx="3.76"/><path class="cls-2" d="M57.35,114.13A22.3,22.3,0,0,0,73.7,151.58H180.34a10.86,10.86,0,0,1,9.1-4.92h90.65a10.9,10.9,0,0,1,9.11,4.92H702.79a21.77,21.77,0,0,1,19.65-12.4H828.37A21.77,21.77,0,0,1,848,151.58h35.86v-25.3H889a3.72,3.72,0,0,0,3.72-3.72V44.72H407A379.8,379.8,0,0,0,266.77,71.55h0A380.07,380.07,0,0,1,166.56,96.26l-94.41,10a22.29,22.29,0,0,0-14,7ZM786.51,69.51a4.08,4.08,0,0,1,4.08-4.08h2.55a4.08,4.08,0,0,1,4.08,4.08v8.33a4.08,4.08,0,0,1-4.08,4.08h-2.55a4.08,4.08,0,0,1-4.08-4.08ZM742.85,80.68A5.15,5.15,0,0,1,748,75.54h4.9A5.14,5.14,0,0,1,758,80.68V86a5.14,5.14,0,0,1-5.14,5.14H748A5.15,5.15,0,0,1,742.85,86Zm-31.7,0a5.14,5.14,0,0,1,5.14-5.14h4.9a5.14,5.14,0,0,1,5.14,5.14V86a5.14,5.14,0,0,1-5.14,5.14h-4.9A5.14,5.14,0,0,1,711.15,86Zm-31.71,0a5.14,5.14,0,0,1,5.14-5.14h4.9a5.15,5.15,0,0,1,5.15,5.14V86a5.15,5.15,0,0,1-5.15,5.14h-4.9A5.14,5.14,0,0,1,679.44,86Zm-31.71,0a5.15,5.15,0,0,1,5.15-5.14h4.9a5.14,5.14,0,0,1,5.14,5.14V86a5.14,5.14,0,0,1-5.14,5.14h-4.9A5.15,5.15,0,0,1,647.73,86Zm-31.7,0a5.14,5.14,0,0,1,5.14-5.14h4.9a5.14,5.14,0,0,1,5.14,5.14V86a5.14,5.14,0,0,1-5.14,5.14h-4.9A5.14,5.14,0,0,1,616,86Zm-31.71,0a5.14,5.14,0,0,1,5.14-5.14h4.9a5.14,5.14,0,0,1,5.15,5.14V86a5.14,5.14,0,0,1-5.15,5.14h-4.9A5.14,5.14,0,0,1,584.32,86Zm-31.71,0a5.15,5.15,0,0,1,5.15-5.14h4.9a5.14,5.14,0,0,1,5.14,5.14V86a5.14,5.14,0,0,1-5.14,5.14h-4.9A5.15,5.15,0,0,1,552.61,86Zm-31.7,0a5.14,5.14,0,0,1,5.14-5.14H531a5.14,5.14,0,0,1,5.14,5.14V86A5.14,5.14,0,0,1,531,91.15h-4.9A5.14,5.14,0,0,1,520.91,86Zm-31.71,0a5.14,5.14,0,0,1,5.14-5.14h4.91a5.14,5.14,0,0,1,5.14,5.14V86a5.14,5.14,0,0,1-5.14,5.14h-4.91A5.14,5.14,0,0,1,489.2,86Zm-31.7,0a5.14,5.14,0,0,1,5.14-5.14h4.9a5.14,5.14,0,0,1,5.14,5.14V86a5.14,5.14,0,0,1-5.14,5.14h-4.9A5.14,5.14,0,0,1,457.5,86Zm-31.71,0a5.14,5.14,0,0,1,5.14-5.14h4.9A5.15,5.15,0,0,1,441,80.68V86a5.15,5.15,0,0,1-5.15,5.14h-4.9A5.14,5.14,0,0,1,425.79,86Zm-31.71,0a5.14,5.14,0,0,1,5.14-5.14h4.91a5.14,5.14,0,0,1,5.14,5.14V86a5.14,5.14,0,0,1-5.14,5.14h-4.91A5.14,5.14,0,0,1,394.08,86ZM317.4,69a4.08,4.08,0,0,1,4.07-4.08H324A4.08,4.08,0,0,1,328.1,69v8.33A4.08,4.08,0,0,1,324,81.42h-2.55a4.08,4.08,0,0,1-4.07-4.08Zm-28.56,8.92a4.08,4.08,0,1,1,8.15,0v8.33a4.08,4.08,0,1,1-8.15,0Z"/><g class="cls-14"><rect class="cls-13" x="30.51" y="126.39" width="900.38" height="60.63"/><path class="cls-15" d="M223.85,126.28a3.74,3.74,0,0,1,3.31-2h15.21a3.74,3.74,0,0,1,3.32,2H764.22a3.74,3.74,0,0,1,3.32-2h15.2a3.74,3.74,0,0,1,3.32,2H930.89v2.38H30.51v-2.38Z"/><ellipse class="cls-16" cx="56.16" cy="130.58" rx="29.31" ry="34.18"/></g><rect class="cls-17" x="358.43" y="133.21" width="35.12" height="16.17"/><rect class="cls-17" x="588.5" y="133.21" width="42.71" height="16.17"/><rect class="cls-18" x="300.92" y="95.54" width="591.83" height="7.31"/><rect class="cls-18" x="300.92" y="104.64" width="591.83" height="2.82"/><path class="cls-19" d="M780.48,114.31V65.56A5.56,5.56,0,0,1,786,60h11.65a5.56,5.56,0,0,1,5.56,5.56v48.75a5.56,5.56,0,0,1-5.56,5.56H786A5.56,5.56,0,0,1,780.48,114.31Zm6-36.47a4.08,4.08,0,0,0,4.08,4.08h2.55a4.08,4.08,0,0,0,4.08-4.08V69.51a4.08,4.08,0,0,0-4.08-4.08h-2.55a4.08,4.08,0,0,0-4.08,4.08Z"/><path class="cls-20" d="M266.77,77.73h0a380.07,380.07,0,0,1-100.21,24.71l-94.41,10a22.25,22.25,0,0,0-14,7l-.79.85a22.17,22.17,0,0,0-5.71,12.06,22.25,22.25,0,0,1,5.71-18.25l.79-.85a22.29,22.29,0,0,1,14-7l94.41-10A380.07,380.07,0,0,0,266.77,71.55h0A379.8,379.8,0,0,1,407,44.72H892.75v6.19H407A380,380,0,0,0,266.77,77.73Z"/><path class="cls-19" d="M311.36,114.31V65.56A5.56,5.56,0,0,1,316.92,60h11.65a5.56,5.56,0,0,1,5.56,5.56v48.75a5.56,5.56,0,0,1-5.56,5.56H316.92A5.56,5.56,0,0,1,311.36,114.31Zm6-37a4.08,4.08,0,0,0,4.07,4.08H324a4.08,4.08,0,0,0,4.08-4.08V69A4.08,4.08,0,0,0,324,64.93h-2.55A4.08,4.08,0,0,0,317.4,69Z"/><path class="cls-19" d="M284.29,116.59V73.08a3.28,3.28,0,0,1,3.28-3.29h10.69a3.28,3.28,0,0,1,3.28,3.29v43.51a3.28,3.28,0,0,1-3.28,3.28H287.57A3.28,3.28,0,0,1,284.29,116.59Zm4.55-30.33a4.08,4.08,0,1,0,8.15,0V77.93a4.08,4.08,0,1,0-8.15,0Z"/></g></svg>