<svg xmlns="http://www.w3.org/2000/svg" xmlns:xlink="http://www.w3.org/1999/xlink" viewBox="0 0 936.76 190.99"><defs><style>.cls-1{fill:#c7c8ca;}.cls-2{fill:#fff;}.cls-3{fill:#2d2b2c;}.cls-4{fill:#3f3e3f;}.cls-5{fill:#6a6a6c;}.cls-6{fill:#404040;}.cls-7{fill:#464547;}.cls-8{fill:#373537;}.cls-9{fill:#231f20;}.cls-10{fill:#c1c1c2;}.cls-11{clip-path:url(#clip-path);}.cls-12{fill:#9f9fa1;}.cls-13{fill:#dbdbdc;}.cls-14{clip-path:url(#clip-path-2);}.cls-15{fill:#5b5c5e;}.cls-16{fill:#aaabad;}.cls-17{fill:#afb0b2;}.cls-18{fill:gray;}.cls-19{fill:#c0bfbf;}.cls-20{fill:#e6e7e8;}.cls-21{fill:#cfcdce;}</style><clipPath id="clip-path"><path class="cls-1" d="M849.52,105.36,783.46,76.72a381,381,0,0,0-141.4-31.31l-94.78-2.52,82.1,11.32,118.4,40Z"/></clipPath><clipPath id="clip-path-2"><path class="cls-2" d="M888.63,105.86a22.27,22.27,0,0,0-14-7l-94.42-10A379.78,379.78,0,0,1,680,64.13h0A380,380,0,0,0,539.77,37.3H54v77.84a3.72,3.72,0,0,0,3.72,3.72H62.9v25.3H98.75a21.78,21.78,0,0,1,19.65-12.4H224.33A21.79,21.79,0,0,1,244,144.16H657.58a10.86,10.86,0,0,1,9.1-4.92h90.65a10.9,10.9,0,0,1,9.11,4.92H873.07a22.3,22.3,0,0,0,16.36-37.45ZM160.26,70.43a4.07,4.07,0,0,1-4.08,4.07h-2.54a4.07,4.07,0,0,1-4.08-4.07V62.09A4.07,4.07,0,0,1,153.64,58h2.54a4.07,4.07,0,0,1,4.08,4.07Zm43.66,8.16a5.14,5.14,0,0,1-5.14,5.14h-4.9a5.15,5.15,0,0,1-5.15-5.14V73.26a5.15,5.15,0,0,1,5.15-5.14h4.9a5.14,5.14,0,0,1,5.14,5.14Zm31.71,0a5.14,5.14,0,0,1-5.15,5.14h-4.9a5.14,5.14,0,0,1-5.14-5.14V73.26a5.14,5.14,0,0,1,5.14-5.14h4.9a5.14,5.14,0,0,1,5.15,5.14Zm31.7,0a5.14,5.14,0,0,1-5.14,5.14h-4.9a5.14,5.14,0,0,1-5.14-5.14V73.26a5.14,5.14,0,0,1,5.14-5.14h4.9a5.14,5.14,0,0,1,5.14,5.14Zm31.71,0a5.14,5.14,0,0,1-5.14,5.14H289a5.15,5.15,0,0,1-5.15-5.14V73.26A5.15,5.15,0,0,1,289,68.12h4.9A5.14,5.14,0,0,1,299,73.26Zm31.71,0a5.15,5.15,0,0,1-5.15,5.14h-4.9a5.14,5.14,0,0,1-5.14-5.14V73.26a5.14,5.14,0,0,1,5.14-5.14h4.9a5.15,5.15,0,0,1,5.15,5.14Zm31.7,0a5.14,5.14,0,0,1-5.14,5.14h-4.9a5.14,5.14,0,0,1-5.14-5.14V73.26a5.14,5.14,0,0,1,5.14-5.14h4.9a5.14,5.14,0,0,1,5.14,5.14Zm31.71,0A5.14,5.14,0,0,1,389,83.73h-4.9A5.15,5.15,0,0,1,379,78.59V73.26a5.15,5.15,0,0,1,5.15-5.14H389a5.14,5.14,0,0,1,5.14,5.14Zm31.71,0a5.15,5.15,0,0,1-5.15,5.14h-4.9a5.14,5.14,0,0,1-5.14-5.14V73.26a5.14,5.14,0,0,1,5.14-5.14h4.9a5.15,5.15,0,0,1,5.15,5.14Zm31.7,0a5.14,5.14,0,0,1-5.14,5.14h-4.9a5.14,5.14,0,0,1-5.14-5.14V73.26a5.14,5.14,0,0,1,5.14-5.14h4.9a5.14,5.14,0,0,1,5.14,5.14Zm31.71,0a5.14,5.14,0,0,1-5.14,5.14h-4.9a5.15,5.15,0,0,1-5.15-5.14V73.26a5.15,5.15,0,0,1,5.15-5.14h4.9a5.14,5.14,0,0,1,5.14,5.14Zm31.71,0a5.15,5.15,0,0,1-5.15,5.14h-4.9a5.14,5.14,0,0,1-5.14-5.14V73.26a5.14,5.14,0,0,1,5.14-5.14h4.9A5.15,5.15,0,0,1,521,73.26Zm31.7,0a5.14,5.14,0,0,1-5.14,5.14h-4.9a5.14,5.14,0,0,1-5.14-5.14V73.26a5.14,5.14,0,0,1,5.14-5.14h4.9a5.14,5.14,0,0,1,5.14,5.14Zm76.69-8.67A4.08,4.08,0,0,1,625.3,74h-2.55a4.08,4.08,0,0,1-4.07-4.08V61.59a4.08,4.08,0,0,1,4.07-4.08h2.55a4.08,4.08,0,0,1,4.08,4.08Zm28.56,8.92a4.08,4.08,0,0,1-8.16,0V70.51a4.08,4.08,0,0,1,8.16,0Z"/></clipPath></defs><title>BulletFront</title><g id="Layer_4" data-name="Layer 4"><rect class="cls-3" x="57.99" y="128.23" width="16.45" height="15.93" rx="2.03" transform="translate(132.43 272.39) rotate(-180)"/><rect class="cls-4" x="52.22" y="28.84" width="1.8" height="85.89" rx="0.9"/><rect class="cls-5" x="50.42" y="28.84" width="1.8" height="85.89" rx="0.9"/><rect class="cls-4" x="48.62" y="28.84" width="1.8" height="85.89" rx="0.9"/><rect class="cls-5" x="46.81" y="28.84" width="1.8" height="85.89" rx="0.9"/><rect class="cls-3" x="48.83" y="126.17" width="5.19" height="7.21" transform="translate(102.85 259.54) rotate(-180)"/><rect class="cls-6" x="51.08" y="120.57" width="16.45" height="15.93" rx="2.03" transform="translate(118.6 257.08) rotate(-180)"/><path class="cls-7" d="M46.81,124.4h.84a1.18,1.18,0,0,1,1.18,1.18V134a1.18,1.18,0,0,1-1.18,1.18h-.84a0,0,0,0,1,0,0V124.4A0,0,0,0,1,46.81,124.4Z" transform="translate(95.65 259.54) rotate(-180)"/><rect class="cls-3" x="53.45" y="120.57" width="16.45" height="12.8" rx="2.03" transform="translate(123.34 253.95) rotate(-180)"/><rect class="cls-6" x="57.65" y="109.33" width="16.45" height="15.93" rx="2.03" transform="translate(131.74 234.6) rotate(-180)"/><rect class="cls-3" x="141.58" y="133.1" width="32.7" height="11.88"/><path class="cls-3" d="M191.27,146.56v-5.28h3.42V139h17.4a2.86,2.86,0,0,0,3-2.69v-4.84H182.37v15.05Z"/><rect class="cls-8" x="163.5" y="126.79" width="5.6" height="14.97"/><rect class="cls-8" x="177.61" y="126.79" width="5.6" height="14.97"/><path class="cls-7" d="M123,142.3l17.52-9.71a20,20,0,0,1,1,17.29Z"/><rect class="cls-4" x="104.8" y="146.74" width="38.47" height="3.98" rx="0.7"/><path class="cls-9" d="M123,142.3l-15.57-8.73a17.85,17.85,0,0,1,30.23-1.46Z"/><circle class="cls-8" cx="122.99" cy="142.3" r="13.05"/><path class="cls-4" d="M108.07,136.45h5.21l2.32,6.21a4.78,4.78,0,0,1,0,3.49l0,.06a1.54,1.54,0,0,0,1.43,2.11h13a1.53,1.53,0,0,0,1.44-2.06h0a4.83,4.83,0,0,1,.24-3.87l.81-1.58a6.81,6.81,0,0,1,6.06-3.71h15.81V129h-8.5a11.24,11.24,0,0,0-4.81,1.09h0a4,4,0,0,1-2,.4l-17.89-.89a9.15,9.15,0,0,0-6.3,2.12l-1.09.92a3.15,3.15,0,0,1-2,.74h-3.69Z"/><rect class="cls-3" x="114.77" y="140.69" width="16.43" height="3.21" rx="0.64"/><rect class="cls-5" x="119.75" y="135.84" width="6.47" height="5.25"/><path class="cls-5" d="M132.82,129.14,129.91,127a1.11,1.11,0,0,0-.63-.21h-5.22a1.07,1.07,0,0,0-1.07,1.07V132a1.07,1.07,0,0,0,1.07,1.07h5.34a1,1,0,0,0,.43-.09l3.23-1.42a1,1,0,0,1,.43-.09h1a1.07,1.07,0,0,0,1.07-1.07v0a1.07,1.07,0,0,0-1.07-1.07h-1A1.07,1.07,0,0,1,132.82,129.14Z"/><rect class="cls-4" x="107.21" y="137.45" width="4.25" height="7.45" rx="1.06"/><path class="cls-5" d="M106.91,130.73h0a14.06,14.06,0,0,0-3.22,9.57l.07,1.68a14,14,0,0,0,1,4.74l.59,1.44a2.07,2.07,0,0,0,3.18.87h0a2.09,2.09,0,0,0,.6-2.59h0a10.83,10.83,0,0,1-.9-7.19l.25-1.17.45-1.89a3.33,3.33,0,0,0-.35-2.45Z"/><circle class="cls-8" cx="122.99" cy="142.3" r="4.84"/><circle class="cls-5" cx="122.99" cy="139.81" r="0.59"/><circle class="cls-5" cx="122.99" cy="144.78" r="0.59"/><circle class="cls-5" cx="121.23" cy="140.54" r="0.59"/><circle class="cls-5" cx="124.75" cy="144.05" r="0.59"/><circle class="cls-5" cx="120.5" cy="142.3" r="0.59"/><circle class="cls-5" cx="125.48" cy="142.3" r="0.59"/><circle class="cls-5" cx="121.23" cy="144.05" r="0.59"/><circle class="cls-5" cx="124.75" cy="140.54" r="0.59"/><path class="cls-7" d="M219.92,142.3l-17.52-9.71a20,20,0,0,0-1,17.29Z"/><rect class="cls-4" x="199.64" y="146.74" width="38.47" height="3.98" rx="0.7" transform="translate(437.75 297.45) rotate(180)"/><path class="cls-9" d="M219.92,142.3l15.57-8.73a17.85,17.85,0,0,0-30.23-1.46Z"/><circle class="cls-8" cx="219.92" cy="142.3" r="13.05"/><path class="cls-4" d="M234.84,136.45h-5.21l-2.32,6.21a4.78,4.78,0,0,0,0,3.49l0,.06a1.54,1.54,0,0,1-1.43,2.11h-13a1.53,1.53,0,0,1-1.44-2.06h0a4.83,4.83,0,0,0-.24-3.87l-.81-1.58a6.81,6.81,0,0,0-6.06-3.71H188.57V129h8.5a11.24,11.24,0,0,1,4.81,1.09h0a4.06,4.06,0,0,0,2,.4l17.88-.89a9.13,9.13,0,0,1,6.3,2.12l1.09.92a3.16,3.16,0,0,0,2,.74h3.68Z"/><rect class="cls-3" x="211.7" y="140.69" width="16.43" height="3.21" rx="0.64" transform="translate(439.84 284.59) rotate(180)"/><rect class="cls-5" x="216.69" y="135.84" width="6.47" height="5.25" transform="translate(439.84 276.94) rotate(180)"/><path class="cls-5" d="M210.09,129.14,213,127a1.11,1.11,0,0,1,.63-.21h5.22a1.07,1.07,0,0,1,1.07,1.07V132a1.07,1.07,0,0,1-1.07,1.07h-5.34a1,1,0,0,1-.43-.09l-3.23-1.42a1,1,0,0,0-.43-.09h-1a1.07,1.07,0,0,1-1.07-1.07v0a1.07,1.07,0,0,1,1.07-1.07h1A1,1,0,0,0,210.09,129.14Z"/><rect class="cls-4" x="231.45" y="137.45" width="4.25" height="7.45" rx="1.06" transform="translate(467.15 282.36) rotate(180)"/><path class="cls-5" d="M236,130.73h0a14.06,14.06,0,0,1,3.22,9.57l-.07,1.68a13.81,13.81,0,0,1-1,4.74l-.59,1.44a2.07,2.07,0,0,1-3.18.87h0a2.1,2.1,0,0,1-.6-2.59h0a10.84,10.84,0,0,0,.91-7.19l-.26-1.17-.45-1.89a3.33,3.33,0,0,1,.35-2.45Z"/><circle class="cls-8" cx="219.92" cy="142.3" r="4.84"/><circle class="cls-5" cx="219.92" cy="139.81" r="0.59"/><circle class="cls-5" cx="219.92" cy="144.78" r="0.59"/><circle class="cls-5" cx="221.68" cy="140.54" r="0.59"/><circle class="cls-5" cx="218.16" cy="144.05" r="0.59"/><circle class="cls-5" cx="222.41" cy="142.3" r="0.59"/><circle class="cls-5" cx="217.44" cy="142.3" r="0.59"/><circle class="cls-5" cx="221.68" cy="144.05" r="0.59"/><circle class="cls-5" cx="218.16" cy="140.54" r="0.59"/><rect class="cls-8" x="174.86" y="133.37" width="30.4" height="6.76"/><rect class="cls-8" x="138.74" y="134.44" width="30.4" height="6.76"/><rect class="cls-5" x="168.74" y="123.99" width="14.11" height="22.75" rx="1.82"/><rect class="cls-7" x="171.82" y="130.38" width="7.95" height="1.91"/><rect class="cls-8" x="171.82" y="140.73" width="7.95" height="1.91"/><rect class="cls-7" x="170.45" y="136.01" width="10.7" height="4.72"/><rect class="cls-3" x="680.78" y="133.1" width="32.7" height="11.88"/><path class="cls-3" d="M730.47,146.56v-5.28h3.43V139h17.4a2.86,2.86,0,0,0,3-2.69v-4.84H721.57v15.05Z"/><rect class="cls-8" x="702.7" y="126.79" width="5.6" height="14.97"/><rect class="cls-8" x="716.81" y="126.79" width="5.6" height="14.97"/><path class="cls-7" d="M673.88,142.3l17.52-9.71a20,20,0,0,1,1,17.29Z"/><rect class="cls-4" x="655.7" y="146.74" width="38.47" height="3.98" rx="0.7"/><path class="cls-9" d="M673.88,142.3l-15.57-8.73a17.85,17.85,0,0,1,30.23-1.46Z"/><circle class="cls-8" cx="673.88" cy="142.3" r="13.05"/><path class="cls-4" d="M659,136.45h5.22l2.32,6.21a4.83,4.83,0,0,1,0,3.49l0,.06a1.53,1.53,0,0,0,1.42,2.11h13a1.53,1.53,0,0,0,1.44-2.06h0a4.83,4.83,0,0,1,.23-3.87l.82-1.58a6.79,6.79,0,0,1,6.06-3.71h15.81V129h-8.51a11.23,11.23,0,0,0-4.8,1.09h0a4.08,4.08,0,0,1-2,.4l-17.88-.89a9.16,9.16,0,0,0-6.31,2.12l-1.08.92a3.16,3.16,0,0,1-2,.74H659Z"/><rect class="cls-3" x="665.67" y="140.69" width="16.43" height="3.21" rx="0.64"/><rect class="cls-5" x="670.65" y="135.84" width="6.47" height="5.25"/><path class="cls-5" d="M683.72,129.14,680.8,127a1.08,1.08,0,0,0-.63-.21H675a1.07,1.07,0,0,0-1.07,1.07V132a1.07,1.07,0,0,0,1.07,1.07h5.35a1.07,1.07,0,0,0,.43-.09L684,131.6a1.11,1.11,0,0,1,.43-.09h1a1.07,1.07,0,0,0,1.07-1.07v0a1.07,1.07,0,0,0-1.07-1.07h-1A1,1,0,0,1,683.72,129.14Z"/><rect class="cls-4" x="658.1" y="137.45" width="4.25" height="7.45" rx="1.06"/><path class="cls-5" d="M657.8,130.73h0a14.06,14.06,0,0,0-3.22,9.57l.07,1.68a14,14,0,0,0,1,4.74l.59,1.44a2.07,2.07,0,0,0,3.18.87h0a2.08,2.08,0,0,0,.6-2.59h0a10.9,10.9,0,0,1-.9-7.19l.26-1.17.45-1.89a3.38,3.38,0,0,0-.35-2.45Z"/><circle class="cls-8" cx="673.88" cy="142.3" r="4.84"/><circle class="cls-5" cx="673.88" cy="139.81" r="0.59"/><circle class="cls-5" cx="673.88" cy="144.78" r="0.59"/><circle class="cls-5" cx="672.13" cy="140.54" r="0.59"/><circle class="cls-5" cx="675.64" cy="144.05" r="0.59"/><circle class="cls-5" cx="671.4" cy="142.3" r="0.59"/><circle class="cls-5" cx="676.37" cy="142.3" r="0.59"/><circle class="cls-5" cx="672.13" cy="144.05" r="0.59"/><circle class="cls-5" cx="675.64" cy="140.54" r="0.59"/><path class="cls-7" d="M752.62,142.3l-17.52-9.71a20,20,0,0,0-1,17.29Z"/><rect class="cls-4" x="732.34" y="146.74" width="38.47" height="3.98" rx="0.7" transform="translate(1503.14 297.45) rotate(180)"/><path class="cls-9" d="M752.62,142.3l15.57-8.73A17.85,17.85,0,0,0,738,132.11Z"/><circle class="cls-8" cx="752.62" cy="142.3" r="13.05"/><path class="cls-4" d="M767.54,136.45h-5.21L760,142.66a4.78,4.78,0,0,0,0,3.49l0,.06a1.54,1.54,0,0,1-1.43,2.11h-13a1.53,1.53,0,0,1-1.44-2.06h0a4.83,4.83,0,0,0-.24-3.87l-.81-1.58a6.81,6.81,0,0,0-6.06-3.71H721.27V129h8.5a11.24,11.24,0,0,1,4.81,1.09h0a4,4,0,0,0,2,.4l17.89-.89a9.13,9.13,0,0,1,6.3,2.12l1.09.92a3.16,3.16,0,0,0,2,.74h3.68Z"/><rect class="cls-3" x="744.4" y="140.69" width="16.43" height="3.21" rx="0.64" transform="translate(1505.24 284.59) rotate(180)"/><rect class="cls-5" x="749.39" y="135.84" width="6.47" height="5.25" transform="translate(1505.24 276.94) rotate(180)"/><path class="cls-5" d="M742.79,129.14,745.7,127a1.11,1.11,0,0,1,.63-.21h5.22a1.07,1.07,0,0,1,1.07,1.07V132a1.07,1.07,0,0,1-1.07,1.07h-5.34a1,1,0,0,1-.43-.09l-3.23-1.42a1,1,0,0,0-.43-.09h-1a1.07,1.07,0,0,1-1.07-1.07v0a1.07,1.07,0,0,1,1.07-1.07h1A1.07,1.07,0,0,0,742.79,129.14Z"/><rect class="cls-4" x="764.15" y="137.45" width="4.25" height="7.45" rx="1.06" transform="translate(1532.55 282.36) rotate(-180)"/><path class="cls-5" d="M768.7,130.73h0a14.06,14.06,0,0,1,3.22,9.57l-.07,1.68a14,14,0,0,1-1,4.74l-.59,1.44A2.07,2.07,0,0,1,767,149h0a2.09,2.09,0,0,1-.6-2.59h0a10.84,10.84,0,0,0,.91-7.19l-.26-1.17-.45-1.89a3.33,3.33,0,0,1,.35-2.45Z"/><circle class="cls-8" cx="752.62" cy="142.3" r="4.84"/><circle class="cls-5" cx="752.62" cy="139.81" r="0.59"/><circle class="cls-5" cx="752.62" cy="144.78" r="0.59"/><circle class="cls-5" cx="754.38" cy="140.54" r="0.59"/><circle class="cls-5" cx="750.86" cy="144.05" r="0.59"/><circle class="cls-5" cx="755.11" cy="142.3" r="0.59"/><circle class="cls-5" cx="750.13" cy="142.3" r="0.59"/><circle class="cls-5" cx="754.38" cy="144.05" r="0.59"/><circle class="cls-5" cx="750.86" cy="140.54" r="0.59"/><rect class="cls-8" x="714.07" y="133.37" width="30.4" height="6.76"/><rect class="cls-8" x="677.95" y="134.44" width="30.4" height="6.76"/><rect class="cls-5" x="707.95" y="123.99" width="14.11" height="22.75" rx="1.82"/><rect class="cls-7" x="711.03" y="130.38" width="7.95" height="1.91"/><rect class="cls-8" x="711.03" y="140.73" width="7.95" height="1.91"/><rect class="cls-7" x="709.65" y="136.01" width="10.7" height="4.72"/><path class="cls-10" d="M125.36,26.69h-69A2.36,2.36,0,0,0,54,29.05v23H198V37.3H172.46A55,55,0,0,1,148.91,32h0A54.82,54.82,0,0,0,125.36,26.69Z"/><path class="cls-1" d="M849.52,105.36,783.46,76.72a381,381,0,0,0-141.4-31.31l-94.78-2.52,82.1,11.32,118.4,40Z"/><g class="cls-11"><path class="cls-12" d="M785.15,68.57S719,54.92,717.7,60.73s11.36,9.86,16.42,10.36,57.6,6.57,57.6,6.57Z"/></g><rect class="cls-13" x="700.64" y="116.94" width="22.73" height="7.52" rx="3.76" transform="translate(1424.01 241.4) rotate(-180)"/><rect class="cls-13" x="160.27" y="116.94" width="22.73" height="7.52" rx="3.76" transform="translate(343.27 241.4) rotate(-180)"/><path class="cls-2" d="M888.63,105.86a22.27,22.27,0,0,0-14-7l-94.42-10A379.78,379.78,0,0,1,680,64.13h0A380,380,0,0,0,539.77,37.3H54v77.84a3.72,3.72,0,0,0,3.72,3.72H62.9v25.3H98.75a21.78,21.78,0,0,1,19.65-12.4H224.33A21.79,21.79,0,0,1,244,144.16H657.58a10.86,10.86,0,0,1,9.1-4.92h90.65a10.9,10.9,0,0,1,9.11,4.92H873.07a22.3,22.3,0,0,0,16.36-37.45ZM160.26,70.43a4.07,4.07,0,0,1-4.08,4.07h-2.54a4.07,4.07,0,0,1-4.08-4.07V62.09A4.07,4.07,0,0,1,153.64,58h2.54a4.07,4.07,0,0,1,4.08,4.07Zm43.66,8.16a5.14,5.14,0,0,1-5.14,5.14h-4.9a5.15,5.15,0,0,1-5.15-5.14V73.26a5.15,5.15,0,0,1,5.15-5.14h4.9a5.14,5.14,0,0,1,5.14,5.14Zm31.71,0a5.14,5.14,0,0,1-5.15,5.14h-4.9a5.14,5.14,0,0,1-5.14-5.14V73.26a5.14,5.14,0,0,1,5.14-5.14h4.9a5.14,5.14,0,0,1,5.15,5.14Zm31.7,0a5.14,5.14,0,0,1-5.14,5.14h-4.9a5.14,5.14,0,0,1-5.14-5.14V73.26a5.14,5.14,0,0,1,5.14-5.14h4.9a5.14,5.14,0,0,1,5.14,5.14Zm31.71,0a5.14,5.14,0,0,1-5.14,5.14H289a5.15,5.15,0,0,1-5.15-5.14V73.26A5.15,5.15,0,0,1,289,68.12h4.9A5.14,5.14,0,0,1,299,73.26Zm31.71,0a5.15,5.15,0,0,1-5.15,5.14h-4.9a5.14,5.14,0,0,1-5.14-5.14V73.26a5.14,5.14,0,0,1,5.14-5.14h4.9a5.15,5.15,0,0,1,5.15,5.14Zm31.7,0a5.14,5.14,0,0,1-5.14,5.14h-4.9a5.14,5.14,0,0,1-5.14-5.14V73.26a5.14,5.14,0,0,1,5.14-5.14h4.9a5.14,5.14,0,0,1,5.14,5.14Zm31.71,0A5.14,5.14,0,0,1,389,83.73h-4.9A5.15,5.15,0,0,1,379,78.59V73.26a5.15,5.15,0,0,1,5.15-5.14H389a5.14,5.14,0,0,1,5.14,5.14Zm31.71,0a5.15,5.15,0,0,1-5.15,5.14h-4.9a5.14,5.14,0,0,1-5.14-5.14V73.26a5.14,5.14,0,0,1,5.14-5.14h4.9a5.15,5.15,0,0,1,5.15,5.14Zm31.7,0a5.14,5.14,0,0,1-5.14,5.14h-4.9a5.14,5.14,0,0,1-5.14-5.14V73.26a5.14,5.14,0,0,1,5.14-5.14h4.9a5.14,5.14,0,0,1,5.14,5.14Zm31.71,0a5.14,5.14,0,0,1-5.14,5.14h-4.9a5.15,5.15,0,0,1-5.15-5.14V73.26a5.15,5.15,0,0,1,5.15-5.14h4.9a5.14,5.14,0,0,1,5.14,5.14Zm31.71,0a5.15,5.15,0,0,1-5.15,5.14h-4.9a5.14,5.14,0,0,1-5.14-5.14V73.26a5.14,5.14,0,0,1,5.14-5.14h4.9A5.15,5.15,0,0,1,521,73.26Zm31.7,0a5.14,5.14,0,0,1-5.14,5.14h-4.9a5.14,5.14,0,0,1-5.14-5.14V73.26a5.14,5.14,0,0,1,5.14-5.14h4.9a5.14,5.14,0,0,1,5.14,5.14Zm76.69-8.67A4.08,4.08,0,0,1,625.3,74h-2.55a4.08,4.08,0,0,1-4.07-4.08V61.59a4.08,4.08,0,0,1,4.07-4.08h2.55a4.08,4.08,0,0,1,4.08,4.08Zm28.56,8.92a4.08,4.08,0,0,1-8.16,0V70.51a4.08,4.08,0,0,1,8.16,0Z"/><g class="cls-14"><rect class="cls-13" x="15.89" y="118.97" width="900.38" height="60.63" transform="translate(932.15 298.56) rotate(-180)"/><path class="cls-15" d="M722.93,118.86a3.74,3.74,0,0,0-3.32-2H704.4a3.74,3.74,0,0,0-3.31,2H182.55a3.74,3.74,0,0,0-3.31-2H164a3.74,3.74,0,0,0-3.32,2H15.89v2.38H916.26v-2.38Z"/><ellipse class="cls-16" cx="890.61" cy="123.17" rx="29.31" ry="34.18"/></g><rect class="cls-17" x="553.23" y="125.79" width="35.12" height="16.17" transform="translate(1141.58 267.74) rotate(-180)"/><rect class="cls-17" x="315.56" y="125.79" width="42.71" height="16.17" transform="translate(673.83 267.74) rotate(-180)"/><rect class="cls-18" x="54.02" y="88.12" width="591.83" height="7.31" transform="translate(699.87 183.56) rotate(-180)"/><rect class="cls-18" x="54.02" y="97.22" width="591.83" height="2.82" transform="translate(699.87 197.26) rotate(-180)"/><path class="cls-19" d="M143.53,106.89V58.14a5.55,5.55,0,0,1,5.55-5.56h11.66a5.55,5.55,0,0,1,5.55,5.56v48.75a5.55,5.55,0,0,1-5.55,5.56H149.08A5.55,5.55,0,0,1,143.53,106.89Zm16.73-44.8A4.07,4.07,0,0,0,156.18,58h-2.54a4.07,4.07,0,0,0-4.08,4.07v8.34a4.07,4.07,0,0,0,4.08,4.07h2.54a4.07,4.07,0,0,0,4.08-4.07Z"/><path class="cls-20" d="M680,70.32h0A380.17,380.17,0,0,0,780.21,95l94.42,10a22.27,22.27,0,0,1,14,7l.8.85a22.22,22.22,0,0,1,5.7,12.06,22.25,22.25,0,0,0-5.7-18.25l-.8-.85a22.27,22.27,0,0,0-14-7l-94.42-10A379.78,379.78,0,0,1,680,64.13h0A380,380,0,0,0,539.77,37.3H54v6.19H539.77A379.8,379.8,0,0,1,680,70.32Z"/><path class="cls-19" d="M612.64,106.89V58.14a5.56,5.56,0,0,1,5.56-5.56h11.65a5.56,5.56,0,0,1,5.56,5.56v48.75a5.56,5.56,0,0,1-5.56,5.56H618.2A5.56,5.56,0,0,1,612.64,106.89Zm16.74-45.3a4.08,4.08,0,0,0-4.08-4.08h-2.55a4.08,4.08,0,0,0-4.07,4.08v8.33A4.08,4.08,0,0,0,622.75,74h2.55a4.08,4.08,0,0,0,4.08-4.08Z"/><path class="cls-18" d="M550.46,113.19H436.27a4,4,0,0,1-4-4v2.58a4,4,0,0,0,4,4H550.46a4,4,0,0,0,4-4v-2.58A4,4,0,0,1,550.46,113.19Z"/><path class="cls-19" d="M645.23,109.17V65.66a3.28,3.28,0,0,1,3.29-3.28H659.2a3.28,3.28,0,0,1,3.28,3.28v43.51a3.28,3.28,0,0,1-3.28,3.28H648.52A3.28,3.28,0,0,1,645.23,109.17Zm12.71-38.66a4.08,4.08,0,0,0-8.16,0v8.33a4.08,4.08,0,0,0,8.16,0Z"/><rect class="cls-21" x="432.27" y="46.68" width="122.2" height="66.51" rx="4"/></g></svg>