<svg xmlns="http://www.w3.org/2000/svg" viewBox="0 0 180.38 225.85"><defs><style>.cls-1{fill:#212121;}.cls-2{fill:#34353d;}.cls-3{fill:#fcb96e;}.cls-10,.cls-4,.cls-5{fill:#231f20;}.cls-10,.cls-5{stroke:#231f20;}.cls-12,.cls-5,.cls-8,.cls-9{stroke-miterlimit:10;}.cls-10,.cls-12,.cls-5{stroke-width:0.5px;}.cls-6{fill:#d23427;}.cls-7{fill:#ffc85a;}.cls-12,.cls-8{fill:none;}.cls-8{stroke:#ffe2ae;stroke-width:0.25px;}.cls-9{fill:#fff;stroke:#c8c8c8;}.cls-10{stroke-linejoin:round;}.cls-11{fill:#0b0a0f;}.cls-12{stroke:#ffc85a;}</style></defs><title>P2S1</title><g id="bullet_train_driver" data-name="bullet train driver"><path d="M85.77,195.11c1.11-6.49,9.29-10.5,18.26-9s19.29-3.68,18.17,2.81l-7.35,5.24Z"/><path class="cls-1" d="M69.32,196.78c1.12-6.49,9.29-10.5,18.26-9s19.29-3.68,18.18,2.81l-7.36,5.24Z"/><path class="cls-2" d="M92,155l-.6,34-19.92,3.41S69.51,161,69.21,155.32c-.22-4.18-.46-18.1-.46-24.16S71.61,77.6,71.61,77.6h39.51c5.18,37.06,3.88,47.2,3.88,47.2s-1.39,12.62-2.21,20.64-3.25,44.15-3.38,41.61c0,0-8.55,0-10.31.23s-7.14.62-7.14.62"/><polygon class="cls-3" points="110.44 75.1 72.28 75.1 77.55 43.89 105.18 43.89 110.44 75.1"/><ellipse class="cls-4" cx="95.57" cy="53.27" rx="1.15" ry="2.01"/><ellipse class="cls-4" cx="101.66" cy="53.27" rx="1.15" ry="2.01"/><polygon class="cls-5" points="75.09 58.89 76.11 58.89 80.8 50.34 96.67 48.91 76.74 44.44 75.09 58.89"/><ellipse class="cls-2" cx="98.81" cy="46.24" rx="4.32" ry="17.52" transform="translate(42.98 139.97) rotate(-84.3)"/><ellipse class="cls-6" cx="92.66" cy="42.69" rx="17.52" ry="6.4"/><ellipse class="cls-7" cx="92.66" cy="40.78" rx="17.52" ry="6.4"/><ellipse class="cls-6" cx="92.66" cy="38.09" rx="17.52" ry="6.4"/><ellipse class="cls-4" cx="91.21" cy="35.16" rx="19.23" ry="7.52"/><path class="cls-4" d="M113.06,27.26c.62.88-2.83,9-2.83,9l-6.5.43S112.43,26.38,113.06,27.26Z"/><ellipse class="cls-2" cx="92.71" cy="31.34" rx="21.03" ry="8.59" transform="translate(-4.29 18.33) rotate(-11.04)"/><ellipse class="cls-7" cx="109.04" cy="35.94" rx="0.68" ry="0.49" transform="translate(70.8 144.19) rotate(-88.78)"/><ellipse class="cls-8" cx="108.95" cy="35.94" rx="1.35" ry="0.88" transform="translate(72.2 144.62) rotate(-89.57)"/><path class="cls-9" d="M71.61,77.6h39.51s4.81,45.63,4,45.69c-.58.39-45.82.39-45.82.39Z"/><polygon class="cls-10" points="105.97 80.21 109.38 80.03 110.16 84.44 105.97 80.21"/><polygon class="cls-10" points="110.06 83.93 108.79 102.56 112.77 107.36 113.08 102.55 110.06 83.93"/><path class="cls-3" d="M74.5,93.21,83,96.45a8.71,8.71,0,0,0-.76,6.07c1,4.07,7.34,13,7.34,13l-6.34,5.15s-10.7-12.62-10.74-19.51C73.09,95.64,74.5,93.21,74.5,93.21Z"/><ellipse class="cls-3" cx="91.54" cy="123.6" rx="4.35" ry="5.23" transform="translate(-62.26 122.02) rotate(-52.89)"/><polygon class="cls-11" points="79.45 82.2 77 88.95 83.26 91.23 85.72 84.47 83.62 80.49 79.45 82.2"/><line class="cls-12" x1="77.48" y1="87.63" x2="83.74" y2="89.91"/><line class="cls-12" x1="77.93" y1="86.38" x2="84.2" y2="88.65"/><circle class="cls-7" cx="83.08" cy="81.97" r="0.46"/><circle class="cls-12" cx="81.8" cy="85.51" r="0.8"/></g></svg>