<svg xmlns="http://www.w3.org/2000/svg" viewBox="0 0 180.38 225.85"><defs><style>.cls-1{fill:#fcb96e;}.cls-2{fill:#212121;}.cls-10,.cls-3,.cls-9{fill:#231f20;}.cls-4{fill:#34353d;}.cls-5{fill:#fff;stroke:#c8c8c8;}.cls-12,.cls-5,.cls-7,.cls-9{stroke-miterlimit:10;}.cls-6{fill:#0b0a0f;}.cls-12,.cls-7{fill:none;}.cls-7{stroke:#ffc85a;}.cls-10,.cls-7,.cls-9{stroke-width:0.5px;}.cls-8{fill:#ffc85a;}.cls-10,.cls-9{stroke:#231f20;}.cls-10{stroke-linejoin:round;}.cls-11{fill:#d23427;}.cls-12{stroke:#ffe2ae;stroke-width:0.25px;}</style></defs><title>P2W1</title><g id="bullet_train_driver" data-name="bullet train driver"><path class="cls-1" d="M80.77,96.22l-5,7.39s-10.42-.49-13.6,2.33-9.33,11.71-9.33,11.71l-7.15-3.93s7.66-14.67,14-17.3C67.84,91.45,80.77,96.22,80.77,96.22Z"/><ellipse class="cls-1" cx="46.13" cy="122.54" rx="5.23" ry="4.35" transform="translate(-84.17 135.41) rotate(-75.01)"/><path class="cls-2" d="M25,181.79c4.45-4.85,13.5-3.79,20.21,2.36S63.44,191.5,59,196.35l-9,.43Z"/><path class="cls-2" d="M110.06,192.31c.49-6.57,8.24-11.35,17.31-10.68s18.85-5.53,18.37,1l-6.82,5.93Z"/><polygon class="cls-1" points="99.39 80.45 61.24 80.45 66.5 49.24 94.13 49.24 99.39 80.45"/><ellipse class="cls-3" cx="84.52" cy="58.62" rx="1.15" ry="2.01"/><ellipse class="cls-3" cx="90.61" cy="58.62" rx="1.15" ry="2.01"/><path class="cls-4" d="M76.12,140.05s1.91,8.53-8.45,26.18-23.15,19.18-23.15,19.18l-18.93-4.79s11.25-3.21,19.21-19.07,9.14-24.61,9.14-24.61l6.62-54h39.51l11.24,47.82s5.33,9.58,7.74,16.83c3.32,10,10.81,38.19,10.66,37.79l-19.19,2.88s-1.28-8.12-9.72-27.94c-7.29-14.46-13.21-20.23-13.21-20.23Z"/><polygon class="cls-5" points="60.56 82.97 100.07 82.97 110.73 128.36 54.99 128.36 60.56 82.97"/><polygon class="cls-6" points="63.77 90.96 68.84 96.05 73.57 91.35 68.49 86.25 63.99 86.46 63.77 90.96"/><line class="cls-7" x1="67.85" y1="95.06" x2="72.58" y2="90.35"/><line class="cls-7" x1="66.91" y1="94.11" x2="71.63" y2="89.4"/><circle class="cls-8" cx="65.11" cy="87.57" r="0.46"/><circle class="cls-7" cx="67.76" cy="90.24" r="0.8"/><polygon class="cls-9" points="64.05 64.24 65.06 64.24 69.76 55.7 85.63 54.26 65.69 49.79 64.05 64.24"/><polygon class="cls-10" points="95.94 85.64 99.35 85.45 100.14 89.87 95.94 85.64"/><polygon class="cls-10" points="100.14 89.87 101.51 108.49 106.13 112.67 105.76 107.87 100.14 89.87"/><ellipse class="cls-4" cx="87.76" cy="51.59" rx="4.32" ry="17.52" transform="translate(27.71 133.8) rotate(-84.3)"/><ellipse class="cls-11" cx="81.62" cy="48.04" rx="17.52" ry="6.4"/><ellipse class="cls-8" cx="81.62" cy="46.13" rx="17.52" ry="6.4"/><ellipse class="cls-11" cx="81.62" cy="43.44" rx="17.52" ry="6.4"/><ellipse class="cls-3" cx="80.16" cy="40.51" rx="19.23" ry="7.52"/><path class="cls-3" d="M102,32.61c.63.88-2.83,9-2.83,9l-6.5.43S101.38,31.73,102,32.61Z"/><ellipse class="cls-4" cx="81.66" cy="36.7" rx="21.03" ry="8.59" transform="translate(-5.52 16.32) rotate(-11.04)"/><ellipse class="cls-8" cx="97.99" cy="41.29" rx="0.68" ry="0.49" transform="translate(54.63 138.38) rotate(-88.78)"/><ellipse class="cls-12" cx="97.91" cy="41.29" rx="1.35" ry="0.88" transform="translate(55.88 138.89) rotate(-89.57)"/><ellipse class="cls-1" cx="113.2" cy="96.03" rx="5.23" ry="4.35" transform="translate(-35.23 93.94) rotate(-39.5)"/><path class="cls-1" d="M72.3,99.74l5.81-5.5s8.19,6.45,12.41,6,14.4-4.12,14.4-4.12l3.54,7.36S93.71,111,87,109.41C77.47,108.72,72.3,99.74,72.3,99.74Z"/></g></svg>