<svg xmlns="http://www.w3.org/2000/svg" viewBox="0 0 180.38 225.85"><defs><style>.cls-1{fill:#fcb96e;}.cls-2{fill:#212121;}.cls-3{fill:#34353d;}.cls-4{fill:#2e2f35;}.cls-11,.cls-5,.cls-6{fill:#231f20;}.cls-11,.cls-6{stroke:#231f20;}.cls-10,.cls-13,.cls-6,.cls-9{stroke-miterlimit:10;}.cls-11,.cls-13,.cls-6{stroke-width:0.5px;}.cls-7{fill:#d23427;}.cls-8{fill:#ffc85a;}.cls-13,.cls-9{fill:none;}.cls-9{stroke:#ffe2ae;stroke-width:0.25px;}.cls-10{fill:#fff;stroke:#c8c8c8;}.cls-11{stroke-linejoin:round;}.cls-12{fill:#0b0a0f;}.cls-13{stroke:#ffc85a;}</style></defs><title>P2W2</title><g id="bullet_train_driver" data-name="bullet train driver"><path class="cls-1" d="M92.81,82.17l7.86,4.25s.58,10.41,3.7,13.28S117,107.79,117,107.79l-3.19,7.52s-15.37-6.13-18.63-12.2C89.38,95.51,92.81,82.17,92.81,82.17Z"/><ellipse class="cls-1" cx="122.51" cy="113.94" rx="4.35" ry="5.23" transform="translate(-9.46 216.79) rotate(-80.85)"/><path class="cls-2" d="M75.33,196.78c.64-6.56,8.5-11.16,17.56-10.28s19-5.07,18.33,1.48l-7,5.76Z"/><path class="cls-3" d="M98.49,132.45s21,13.05,19.61,25-37.33,13.6-37.33,13.6L68.49,154.94l12.58-6.58s-11-7.67-11.68-17c-1.69-24.1,1.86-53.55,1.86-53.55h39.5s4.76,40.47,6,47.07c.25,7.57-.11,9.07-.54,15.57-.59,9-17.6,48.08-17.6,48.08l-19.47,1.56s16.2-49.77,16.95-51.27-.91-5.06-.91-5.06Z"/><polygon class="cls-4" points="103.89 135.67 116.41 138.23 114.5 147.02 103.89 135.67"/><polygon class="cls-4" points="85.31 170.52 79.18 190.08 98.65 188.52 107.46 167.26 85.31 170.52"/><path class="cls-2" d="M62,154.28c6.21-2.18,13.69,3,16.69,11.61S91.22,181,85,183.15l-8.15-3.89Z"/><polygon class="cls-1" points="109.84 75.24 71.69 75.24 76.95 44.03 104.58 44.03 109.84 75.24"/><ellipse class="cls-5" cx="94.97" cy="53.41" rx="1.15" ry="2.01"/><ellipse class="cls-5" cx="101.06" cy="53.41" rx="1.15" ry="2.01"/><polygon class="cls-6" points="74.49 59.03 75.51 59.03 80.2 50.48 96.07 49.05 76.14 44.58 74.49 59.03"/><ellipse class="cls-3" cx="98.21" cy="46.38" rx="4.32" ry="17.52" transform="translate(42.3 139.5) rotate(-84.3)"/><ellipse class="cls-7" cx="92.06" cy="42.83" rx="17.52" ry="6.4"/><ellipse class="cls-8" cx="92.06" cy="40.92" rx="17.52" ry="6.4"/><ellipse class="cls-7" cx="92.06" cy="38.23" rx="17.52" ry="6.4"/><ellipse class="cls-5" cx="90.61" cy="35.3" rx="19.23" ry="7.52"/><path class="cls-5" d="M112.46,27.4c.62.88-2.83,9-2.83,9l-6.5.43S111.83,26.52,112.46,27.4Z"/><ellipse class="cls-3" cx="92.11" cy="31.49" rx="21.03" ry="8.59" transform="translate(-4.32 18.22) rotate(-11.04)"/><ellipse class="cls-8" cx="108.44" cy="36.08" rx="0.68" ry="0.49" transform="translate(70.07 143.73) rotate(-88.78)"/><ellipse class="cls-9" cx="108.35" cy="36.08" rx="1.35" ry="0.88" transform="translate(71.46 144.16) rotate(-89.57)"/><path class="cls-10" d="M69,123.14c1.51,1.57,47.48,0,47.48,0L110.75,77.8H71.25S67.49,121.58,69,123.14Z"/><path class="cls-1" d="M74.92,91.11l7.2,3.47s-1.47,5,.08,9S90,116.35,90,116.35l-6.16,5.36s-11.13-12.24-11.4-19.13C71.68,93.17,74.92,91.11,74.92,91.11Z"/><ellipse class="cls-1" cx="92.26" cy="124.31" rx="4.35" ry="5.23" transform="translate(-62.49 128.22) rotate(-54.86)"/><polygon class="cls-11" points="106.19 80.4 109.6 80.22 110.39 84.63 106.19 80.4"/><polygon class="cls-11" points="110.28 84.12 109.01 102.75 113 107.55 113.31 102.73 110.28 84.12"/><polygon class="cls-12" points="80.1 80.66 76.81 87.05 82.73 90.1 86.03 83.71 84.45 79.49 80.1 80.66"/><line class="cls-13" x1="77.45" y1="85.8" x2="83.38" y2="88.85"/><line class="cls-13" x1="78.07" y1="84.61" x2="83.99" y2="87.66"/><circle class="cls-8" cx="83.73" cy="80.89" r="0.46"/><circle class="cls-13" cx="82.01" cy="84.24" r="0.8"/></g></svg>