<svg xmlns="http://www.w3.org/2000/svg" viewBox="0 0 180.38 225.85"><defs><style>.cls-1{fill:#fcb96e;}.cls-2{fill:#212121;}.cls-13,.cls-3,.cls-6{fill:#231f20;}.cls-4{fill:#34353d;}.cls-5{fill:#2e2f35;}.cls-13,.cls-6{stroke:#231f20;}.cls-10,.cls-12,.cls-6,.cls-9{stroke-miterlimit:10;}.cls-12,.cls-13,.cls-6{stroke-width:0.5px;}.cls-7{fill:#d23427;}.cls-8{fill:#ffc85a;}.cls-12,.cls-9{fill:none;}.cls-9{stroke:#ffe2ae;stroke-width:0.25px;}.cls-10{fill:#fff;stroke:#c8c8c8;}.cls-11{fill:#0b0a0f;}.cls-12{stroke:#ffc85a;}.cls-13{stroke-linejoin:round;}</style></defs><title>P2W3</title><g id="bullet_train_driver" data-name="bullet train driver"><path class="cls-1" d="M105.24,98l8.21-3.55s8.53,6,12.73,5.32,14.15-4.89,14.15-4.89l3.93,7.15s-14.32,8.29-21.11,7.09C113.6,108.93,105.24,98,105.24,98Z"/><ellipse class="cls-1" cx="148.59" cy="94.31" rx="5.23" ry="4.35" transform="translate(-24.62 125.51) rotate(-42.61)"/><path class="cls-2" d="M52,175.75c5.32-3.87,14-1,19.33,6.33s16.38,10.83,11,14.7l-8.93-1.38Z"/><path class="cls-2" d="M128.5,191.83c-1.45-6.43,4.57-13.26,13.45-15.26s16.42-10.77,17.87-4.35L155,179.87Z"/><ellipse class="cls-3" cx="106.96" cy="59.03" rx="1.15" ry="2.01"/><path class="cls-4" d="M96.66,136.5S120.72,140.26,128,150s16.58,26.25,16.58,26.25l-14.88,8.4s-12-11.32-20.84-18.32c-8.12-6.41-32.44-14.5-34.58-28.95-2-13.28,2.62-54,2.62-54h39.51s4,48.06,3.67,59.1a46.51,46.51,0,0,1-16,25.32c-9.28,7.33-27.54,20.52-27.68,20.12l-16.5-13.72s17-15,19.84-18.73,9.65-19,9.65-19Z"/><polygon class="cls-5" points="107.78 137.43 119.94 134.1 119.6 143.55 107.78 137.43"/><path class="cls-5" d="M82.85,150.24s-2.84,5.17-4.23,6.55c-.57.76-18.69,17.4-18.69,17.4l16.5,13.72s8.35-5.68,18.28-12.95c10.17-7.45,12.49-9.87,12.49-9.87Z"/><polygon class="cls-1" points="115.72 80.84 77.56 80.84 82.83 49.63 110.45 49.63 115.72 80.84"/><ellipse class="cls-3" cx="100.84" cy="59.01" rx="1.15" ry="2.01"/><ellipse class="cls-3" cx="106.94" cy="59.01" rx="1.15" ry="2.01"/><polygon class="cls-6" points="80.37 64.63 81.38 64.63 86.08 56.08 101.95 54.64 82.01 50.18 80.37 64.63"/><ellipse class="cls-4" cx="104.08" cy="51.98" rx="4.32" ry="17.52" transform="translate(42.02 150.39) rotate(-84.3)"/><ellipse class="cls-7" cx="97.94" cy="48.42" rx="17.52" ry="6.4"/><ellipse class="cls-8" cx="97.94" cy="46.52" rx="17.52" ry="6.4"/><ellipse class="cls-7" cx="97.94" cy="43.83" rx="17.52" ry="6.4"/><ellipse class="cls-3" cx="96.48" cy="40.9" rx="19.23" ry="7.52"/><path class="cls-3" d="M118.33,33c.63.88-2.83,9-2.83,9l-6.5.43S117.71,32.12,118.33,33Z"/><ellipse class="cls-4" cx="97.98" cy="37.08" rx="21.03" ry="8.59" transform="translate(-5.29 19.45) rotate(-11.04)"/><ellipse class="cls-8" cx="114.31" cy="41.68" rx="0.68" ry="0.49" transform="translate(70.22 155.08) rotate(-88.78)"/><ellipse class="cls-9" cx="114.23" cy="41.68" rx="1.35" ry="0.88" transform="translate(71.69 155.59) rotate(-89.57)"/><path class="cls-10" d="M76.91,83.37s-3.45,44.54-3.11,45,46.14,0,46.14,0l-3.52-45Z"/><polygon class="cls-11" points="89.32 84.6 82.86 87.75 85.78 93.74 92.24 90.59 93.5 86.27 89.32 84.6"/><line class="cls-12" x1="84.07" y1="87.3" x2="87.2" y2="93.19"/><line class="cls-12" x1="85.26" y1="86.67" x2="88.38" y2="92.56"/><circle class="cls-8" cx="92.03" cy="86.85" r="0.46"/><circle class="cls-12" cx="88.7" cy="88.62" r="0.8"/><ellipse class="cls-1" cx="55.7" cy="120.33" rx="5.23" ry="4.35" transform="matrix(0.13, -0.99, 0.99, 0.13, -70.93, 159.65)"/><path class="cls-1" d="M78.08,88.85l3.53,7.67s-9.37,2.08-12.16,5.29-7.75,12.82-7.75,12.82l-7.6-3s5.71-15.54,11.69-19C73.23,86.71,78.08,88.85,78.08,88.85Z"/><polygon class="cls-13" points="110.3 85.64 113.71 85.45 114.5 89.87 110.3 85.64"/><polygon class="cls-13" points="114.39 89.36 113.12 107.99 117.11 112.79 117.41 107.97 114.39 89.36"/></g></svg>