<svg xmlns="http://www.w3.org/2000/svg" viewBox="0 0 180.38 225.85"><defs><style>.cls-1{fill:#fcb96e;}.cls-11,.cls-2,.cls-6{fill:#231f20;}.cls-3{fill:#34353d;}.cls-4{fill:#313238;}.cls-5{fill:#2e2f35;}.cls-11,.cls-6{stroke:#231f20;}.cls-10,.cls-13,.cls-6,.cls-9{stroke-miterlimit:10;}.cls-11,.cls-13,.cls-6{stroke-width:0.5px;}.cls-7{fill:#d23427;}.cls-8{fill:#ffc85a;}.cls-13,.cls-9{fill:none;}.cls-9{stroke:#ffe2ae;stroke-width:0.25px;}.cls-10{fill:#fff;stroke:#c8c8c8;}.cls-11{stroke-linejoin:round;}.cls-12{fill:#0b0a0f;}.cls-13{stroke:#ffc85a;}</style></defs><title>P2W4</title><g id="bullet_train_driver" data-name="bullet train driver"><path class="cls-1" d="M95.6,80.94l7.47,4.91s-.33,10.42,2.53,13.56,11.86,9.15,11.86,9.15l-3.83,7.21S98.85,108.34,96.12,102C91,93.93,95.6,80.94,95.6,80.94Z"/><ellipse class="cls-1" cx="122.44" cy="115.17" rx="4.35" ry="5.23" transform="translate(-19.13 205.8) rotate(-75.87)"/><path class="cls-2" d="M63.45,154.52c6-2.74,13.91,1.75,17.69,10s13.91,13.86,7.92,16.6L80.59,178Z"/><path class="cls-2" d="M87.07,196.78c.64-6.56,8.5-11.16,17.55-10.28s19-5.07,18.34,1.48L116,193.74Z"/><path class="cls-3" d="M98.86,133.22l5.67,27.92,4.58,26.17L89.2,191.77s-6.49-27.86-10.45-36.13c-4.26-8.9-5.35-21.43-5.63-24.29C70.78,107.31,75,77.8,75,77.8h39.5s7.73,43.34,9,47.07c2,7.09,2.68,8.41,2.68,14.77,0,11.36-44.95,27.56-44.95,27.56l-13-13.48s30.88-13.41,31.63-14.91-.91-5.06-.91-5.06Z"/><path class="cls-4" d="M104.27,157.41s13.69-7,17.51-10.77l-21.92-7.83Z"/><polygon class="cls-5" points="76.58 150.04 82.63 166.69 81.25 167.2 68.23 153.72 76.58 150.04"/><polygon class="cls-1" points="113.8 75.29 75.65 75.29 80.91 44.08 108.54 44.08 113.8 75.29"/><ellipse class="cls-2" cx="98.93" cy="53.46" rx="1.15" ry="2.01"/><ellipse class="cls-2" cx="105.02" cy="53.46" rx="1.15" ry="2.01"/><polygon class="cls-6" points="78.46 59.08 79.47 59.08 84.16 50.53 100.04 49.09 80.1 44.63 78.46 59.08"/><ellipse class="cls-3" cx="102.17" cy="46.43" rx="4.32" ry="17.52" transform="translate(45.82 143.48) rotate(-84.3)"/><ellipse class="cls-7" cx="96.02" cy="42.87" rx="17.52" ry="6.4"/><ellipse class="cls-8" cx="96.02" cy="40.97" rx="17.52" ry="6.4"/><ellipse class="cls-7" cx="96.02" cy="38.28" rx="17.52" ry="6.4"/><ellipse class="cls-2" cx="94.57" cy="35.35" rx="19.23" ry="7.52"/><path class="cls-2" d="M116.42,27.45c.63.88-2.83,9-2.83,9l-6.5.43S115.79,26.57,116.42,27.45Z"/><ellipse class="cls-3" cx="96.07" cy="31.53" rx="21.03" ry="8.59" transform="translate(-4.26 18.98) rotate(-11.04)"/><ellipse class="cls-8" cx="112.4" cy="36.13" rx="0.68" ry="0.49" transform="translate(73.9 147.73) rotate(-88.78)"/><ellipse class="cls-9" cx="112.32" cy="36.13" rx="1.35" ry="0.88" transform="translate(75.34 148.17) rotate(-89.57)"/><path class="cls-10" d="M75,77.8s-3.88,44.52-2.4,45.59,50.41,0,50.41,0L114.48,77.8Z"/><path class="cls-1" d="M76.69,91.92l8.46,4.38a22.81,22.81,0,0,0,4.2,4.77c3.09,2.84,12.59,8.1,12.59,8.1l-3.19,7.51s-15.37-6.13-18.62-12.21C74.36,96.86,76.69,91.92,76.69,91.92Z"/><ellipse class="cls-1" cx="107.48" cy="115.33" rx="4.35" ry="5.23" transform="translate(-23.55 202.98) rotate(-80.8)"/><polygon class="cls-11" points="110.33 80.4 113.74 80.22 114.53 84.63 110.33 80.4"/><polygon class="cls-11" points="114.42 84.12 113.15 102.75 117.14 107.55 117.45 102.73 114.42 84.12"/><polygon class="cls-12" points="82.69 81.98 79.39 88.37 85.32 91.43 88.61 85.04 87.04 80.81 82.69 81.98"/><line class="cls-13" x1="80.03" y1="87.12" x2="85.96" y2="90.18"/><line class="cls-13" x1="80.65" y1="85.93" x2="86.57" y2="88.99"/><circle class="cls-8" cx="86.31" cy="82.22" r="0.46"/><circle class="cls-13" cx="84.59" cy="85.56" r="0.8"/></g></svg>