<svg xmlns="http://www.w3.org/2000/svg" viewBox="0 0 612.27 1187.82"><defs><style>.cls-1{fill:#fff;}</style></defs><title>Artboard 35 copy 10</title><g id="ground"><path class="cls-1" d="M179.72,174a11.06,11.06,0,0,1,5.33-1.82c3.73-.22,5.74,1.8,7.87.56,1.47-.86,1.38-2,2.87-2.94a3.81,3.81,0,0,1,4,.42,5.08,5.08,0,0,1,2.47-3.15,5.3,5.3,0,0,1,3.78,0c1.3.33,2.93,1,7.53,4.41,2.8,2.09,2.75,2.27,3.66,2.62,2.74,1,5.43.25,7.3-.31,3.33-1,3.14-1.93,6.55-3.15a15.9,15.9,0,0,1,8.15-1,14,14,0,0,1,6.19,2.73,6.3,6.3,0,0,1,3.74-1.26,6.88,6.88,0,0,1,4.59,2.1,11.1,11.1,0,0,1,4.3-3.36,9.15,9.15,0,0,1,6.32,0,16,16,0,0,1,5.74,2.94,5.23,5.23,0,0,1,2.74-1.89,5.6,5.6,0,0,1,4.72,1,9.1,9.1,0,0,1,3.26-3.15,9.24,9.24,0,0,1,5.92-1.05l2.87.84,2.14,2.31a8,8,0,0,1,2.94-.84,8.33,8.33,0,0,1,5,1.26,8.48,8.48,0,0,1,2.22-3.15c3.25-2.83,8.22-2.38,11.48-.84a11.89,11.89,0,0,1,4.37,3.57,4.43,4.43,0,0,1,1.68-1.26c1.75-.73,2.65.36,3.78-.42.77-.53.8-1.33,2.44-2.68l.07,0c1.17-.91,3.32-.27,4.64.63,1.77,1.21,1.45,2.5,2.53,2.73,1.28.28,1.94-1.47,4.6-2.94a10.82,10.82,0,0,1,5.05-1.47c2.51,0,3.09,1.07,6.43,1.47a32.78,32.78,0,0,0,4,0c2.74.19,4.81,2,11.83,10.71,4.26,5.28,4.9,853.34,7.15,855.41a40.67,40.67,0,0,0,7.14,5.25l-225.86,1.26a13.36,13.36,0,0,0,6.89-5.46c1.46-2.27,1.85-4.19,3.73-5.46s2.45-.44,4.31-1.69c2.95-2,2.29-852.09,4.61-853.51C173.93,172.71,175.89,172.26,179.72,174Z"/></g></svg>