<svg xmlns="http://www.w3.org/2000/svg" viewBox="0 0 3516 1189"><defs><style>.cls-1{fill:#fff;}</style></defs><title>Artboard 55 copy 6</title><g id="ground"><path class="cls-1" d="M930.77,1017.87q14.49-54,29-108l70-54,60-101q11-66,22-132l34-76c-.88-1.77-10.87-22.75,1-44,12.19-21.82,36.25-23.88,38-24l30-76,40,5,44,1q3.49-29,7-58l27-2q10-36.5,20-73l12-24q5.49-14,11-28l18,19,10-2,19-18,12,7,9-19,16-20,8-13,11-11q4,11.5,8,23l10-1q5,13.5,10,27,5-9,10-18l12,6,9-8,9-10,7.57-25.32,9.25-2.1c7.38-.31,8.12.78,11.76.42,8.92-.87,9.12-7.83,18.07-8.82,5.45-.6,11,1.36,13,2.1,4.41,1.58,4.51,2.62,8,3.36,5.48,1.17,6.85-1.08,13-.42a15.65,15.65,0,0,1,4.33,1.19c1,.34,2.54.87,5.75,1.75,2,.56,4.78,1.24,8.23,1.84l9-11,10-11,18,14c5.17,2.83,8.82,3,11.08,2.8.9-.1,2.91-.41,4.78-.71,2.83-.46,4.46-.8,5.72-1,4.87-.65,12.23.16,22.69,7.14a29.67,29.67,0,0,1,8.83-1.26l12.18,3.79,3.72,20.21,11-9,12,9,15,1,6,17,12-9q3.49,5.5,7,11l7,2,6,20a22.22,22.22,0,0,1,4-11,21.68,21.68,0,0,1,5-5l6,4,6,12,15,17,9-6,9-13,7-3q2.49,6.51,5,13,7,14.5,14,29l12,42q5.49,14,11,28l29-27,33,9,21,62,30,59,27,41q26,70.5,52,141,16,12.51,32,25v65q26,50,52,100l54,57q32.49,50,65,100l73,16q9.49,22,19,44Z"/></g></svg>