<svg xmlns="http://www.w3.org/2000/svg" viewBox="0 0 612.27 1187.82"><defs><style>.cls-1{fill:#fff;}</style></defs><title>Artboard 35 copy 9</title><g id="ground"><path class="cls-1" d="M203.22,1039.48c-.07-5.32,1.44-7.68,2.94-8.82,3.07-2.35,6.62-.07,10.93-2.94,2.52-1.69,1.91-849.88,4.62-851.63,2-1.29,4.29-1.89,9.24-2.1,7.39-.31,8.13.78,11.77.42,8.92-.87,9.12-7.83,18.07-8.82,5.45-.61,11,1.36,13,2.1,4.41,1.58,4.51,2.62,8,3.36,5.48,1.17,6.85-1.08,13-.42,2.71.29,1.94.67,10.08,2.94,9.18,2.56,11.28,2.39,12.61,1.26,1.72-1.46.76-3.37,2.52-5,2-1.95,5.34-1.22,10.08-.42,7.43,1.25,13.49,2.27,19.75,2.1a110.25,110.25,0,0,0,11.35-1.26c6-.83,8.65-1.44,10.5-1.68,4.87-.65,12.23.16,22.69,7.14a29.67,29.67,0,0,1,8.83-1.26c3.77.05,9,.12,12.18,3.78,1.31,1.51,1.85,850.16,2.1,851.21a27.62,27.62,0,0,1,13.87,9.24Z"/></g></svg>