<svg xmlns="http://www.w3.org/2000/svg" viewBox="0 0 612.27 1187.82"><defs><style>.cls-1{fill:#fff;}</style></defs><title>Artboard 35 copy 8</title><g id="tree"><path class="cls-1" d="M267.86,152.77a27.14,27.14,0,0,1,8-.84c2.55.17,3.47.66,8.82,2.1,4.26,1.15,7.31,1.82,10.51,2.52,5.52,1.22,8.32,1.82,10.08,1.68,2.32-.18,4.66-.89,10.51-4.62,10.83-6.91,10.17-9.17,16-11.34,5.07-1.9,9.9-1.79,14.71-1.68a42.27,42.27,0,0,1,10.5,1.26c6.42,1.71,7.41,4.09,18.49,10.92,9.54,5.87,14.2,7.43,16,8a49.91,49.91,0,0,0,10.09,2.1c11.2,1,15-3.55,29.41-6.31a84.31,84.31,0,0,1,21.85-1.26c9.78.74,16.18,1.22,21,5.47,10.23,9,5.51,875,5,876.83L179,1039.48c5.29-2.74,12.42-6.28,21-10.08,9.35-4.15,17.5-854.75,28.57-858.35,17.55-5.7,19.3-3.85,24.8-8.4C257.38,159.32,260.88,154.66,267.86,152.77Z"/></g></svg>