<svg xmlns="http://www.w3.org/2000/svg" viewBox="0 0 3516 1189"><defs><style>.cls-1{fill:#fff;}</style></defs><title>Artboard 55 copy</title><g id="ground"><path class="cls-1" d="M1078.91,314.19l14.38,8.59,15.55-2.52c8.63-12.79,13.7-13.75,16.29-13.22,2.21.46,3.24,2.13,9.67,7.57,3.28,2.77,6.06,4.92,7.87,6.28l15.12-7.57,6.73,1.26c7,5.14,11.79,5.34,14.82,4.65s7.19-4.83,15.12-13,9.28-9.6,11.77-10.08c3.56-.68,8.91.59,16.7,9.22a169.69,169.69,0,0,0,16,10.93c9.71,5.85,13.23,6.65,14.95,6.72h.6c9.53-.34,11-17.51,19.86-19.73,3-.75,4.59.79,20.48,10.06,6.26,3.66,11.4,6.56,14.71,8.41a32.86,32.86,0,0,1,21.12-9.64,31.89,31.89,0,0,1,15.85,3.33c3-1.45,7.4-3.5,12.72-5.85,12.41-5.49,14.47-5.72,16.28-5.49,8.34,1.06,13.35,12.25,15.12,16.81,1.33-2.2,6.21-9.71,12.72-9.64,6.35.06,10.85,7.29,16,15.54a73.08,73.08,0,0,1,7.14,15.13l8.43-22.91c5.41-3.58,12.29-6.8,17.93-4.43,7.72,3.24,8.54,14.46,12.72,14.31,5.25-.18,4.91-18,14.29-21,4.78-1.55,10.19,1.34,15.55,4.21a41.5,41.5,0,0,1,11.23,8.8c1.55-2.8,9.75-17.22,17.76-15.95,2.78.44,6,4.65,12.19,13l10.92,14.71c5.8-11.34,8.87-20.45,12.19-26.48,8.24-15,11.38-16.16,13.44-16.38,3.33-.37,8.26,3,15.44,18.88,2.29-7.6,5.62-8.61,6.41-8.8,5.27-1.25,13.18,6.54,18.38,20.57a45.53,45.53,0,0,0,10.62-.4c11.74-1.84,16-7.36,20.59-5.88,3.2,1,6.77,5.65,7.56,22.27a44.2,44.2,0,0,1,2.1-14.71c1.56-4.83,3.23-10,6.72-12.18,6.14-3.83,18.33,1.33,29.42,13,1.56-10.92,5.59-19.82,10.92-20.59,3.63-.52,8.5,4.27,18.07,13.87,3.72,3.73,6.68,6.95,8.71,9.22,2.33-8.85,5.92-18.53,11-18.89,8.84-.61,15.24,27,24,26.06,7.18-.76,7.72-20,16-21.43,6-1.05,12.48,7.82,16.7,14.68a30.14,30.14,0,0,1,21-18.07c9.54,14.69,16.5,17.25,21.12,16.83,9.23-.83,14-14,20.48-12.63,4.21.9,6.4,7.32,7.56,12.19,1.45-2.54,3.42-5.86,5.88-9.67,7.94-12.25,12.72-19.62,16.08-18.88,5.66,1.24,3.6,24.61,8,25.21,3.67.5,6.94-15.7,12.6-15.55,4.27.12,4.18,9.39,11.77,13.87,6.73,4,10.79-1,21.85.42,14.55,1.84,17.08,11.63,29.3,12.16,4.77.21,11.63-1,20.17-7.56,7.12-15.2,12.24-17.88,15.55-17.65,6.08.42,7.71,11.33,17.76,23.55a71.45,71.45,0,0,0,21.85,17.65c11.92-18.56,19.59-21.38,24.37-20.59,7.76,1.29,8.13,12.15,21.43,18.91a39.39,39.39,0,0,0,21.85,3.78,40.39,40.39,0,0,0,19.33-7.56q13.57,30.18,27.16,60.36l19-19,27,25,24,6,24-15q22,28,44,56h35q12.49,22,25,44l28-39q12.49,12.51,25,25l24,60,31-21a42.9,42.9,0,0,1,17,4c20.28,9.6,25.29,32.52,26,36q11.49,31,23,62l25-23,33,5h29q9.49,32.51,19,65l12,87,34-25q14,14,28,28,19,81.51,38,163l41,54h31l34,39q3.49,20.51,7,41l-2379,10q7-17,14-34h30l31-16q2.49-59.49,5-119,6.5-40,13-80l19-23,18,23,3-94,33-85,18-20q7,26,14,52,23-52.5,46-105,4-25,8-50,8.49-18,17-36l28-56,34-8,30-32,28-20,36-40,21,13,24,25c18.82-7.66,27.44-9.14,31.28-8.23l.53.12c1.85.4,7.93,1.46,13.75-1.38a20.21,20.21,0,0,0,8.29-8,27.06,27.06,0,0,0,28.58-9.24Z"/></g></svg>