<svg xmlns="http://www.w3.org/2000/svg" viewBox="0 0 3516 1189"><defs><style>.cls-1{fill:#fff;}</style></defs><title>Artboard 55 copy 2</title><g id="ground"><path class="cls-1" d="M1174.27,261.93l10.93-.42,15.55-2.52a18.5,18.5,0,0,1,20.17-3.78l13.65,4.41,15.13-7.56,6.72,1.26,6.31-2.52,16.8-7.57a34.34,34.34,0,0,1,12.61-4.2,35.8,35.8,0,0,1,22.69,5.05,168.29,168.29,0,0,0,16,10.92c11,6.65,14.06,6.77,15.55,6.72,6.84-.23,7.4-5.23,16.8-8.82a38.09,38.09,0,0,1,23.53-.84,37,37,0,0,1,14.71,8.4,74.57,74.57,0,0,1,7.56-2.94,75.77,75.77,0,0,1,29.42-3.36,25.71,25.71,0,0,1,7.56-8c2.07-1.39,11-7,21.43-3.37,11.71,4,14.91,15.93,15.13,16.81a35.36,35.36,0,0,1,13.45-3.78,36.69,36.69,0,0,1,22.27,5.88,73,73,0,0,1,15.54-6.3,58.33,58.33,0,0,1,10.93-2.1c4.62-.41,5.73.1,13.45,0,5.22-.07,5-.3,10.5-.42,7.64-.16,11.46-.24,15.13.42a37.05,37.05,0,0,1,14.7,6.3,45.55,45.55,0,0,1,9.67-5.46c4.86-2,10.93-4.51,18.07-2.94a23.54,23.54,0,0,1,11.34,6.3l4.2-8.82q6.73-7.14,13.45-14.29l20.17,3.36,5,9.67a41.12,41.12,0,0,1,10.51,2.52,41.72,41.72,0,0,1,14.28,9.24,75.37,75.37,0,0,1,24.38-1.26,38.07,38.07,0,0,0,10.5-2.94c5-2.24,5.33-3.71,9.67-5.88,7.64-3.84,15.23-3.52,18.9-3.36a44.43,44.43,0,0,1,11.77,2.1,50.58,50.58,0,0,1,11.77-2.1c5.58-.33,11.14-.65,16.38,2.1,8.1,4.24,10.9,13.51,11.56,16.17,2,0,7.54-.42,14.92-.63,12.16-.33,15.53-.41,18.48-2.94,1.54-1.31,4.32-4.46,4.63-11.76a23.52,23.52,0,0,1,10.08-4.2c1.83-.29,6.47-1,10.51.84,5.82,2.69,9.22,10.28,8.82,18.91a30.43,30.43,0,0,1,7.56-10.93c4.4-4,8.78-5.56,13.45-7.14s12.51-4.16,22.69-3c5.58.67,12.72,1.52,18.91,7.15a27.07,27.07,0,0,1,7.56,12.18,35.73,35.73,0,0,1,5.89-9.66c2-2.32,5.69-6.67,11.76-8.82,4.07-1.45,7.32-1.24,12.61-.85a62.33,62.33,0,0,1,23.11,5.89c6.77,3.23,5.17,4,15.55,10.08,6.48,3.8,12.13,7.06,20.17,9.25,7.65,2.08,11.56,3.14,16.38,1.68,4.17-1.27,6.31-3.6,13.45-5.88a53.36,53.36,0,0,1,6.72-1.69,20.43,20.43,0,0,1,38.24-7.56l21.85,33.2c.92-3.76,5.83-22.72,16.39-24.38,2.94-.46,5.82.51,23.11,11.77,6.35,4.13,11.55,7.64,15.13,10.09l28.15,7.56,24-18.34,47,44,28-10,33-18,12-33,22-4,45,59,26,49q8.49-11.5,17-23l28,15,24,28q11,34.5,22,69l31-30,30-22,22,34,50,70q14,37.5,28,75l21-32,28,41q10,86.49,20,173l45,104q15.49,24,31,48,10-16,20-32l22,10,37,85-2530,23,21-89q14-20.5,28-41l21,15,24,8,39-108q5-61,10-122,9.5-16.5,19-33,7-12,14-24l17,12q15.5-33,31-66l24-98,33,10,16-18,23-3,36-45,23-17q15.5,41,31,82l12-55,15-18,14,17q5-27.51,10-55l21-44,17-15,18-8,23,22,14,4,16-16h12l11,26,24-41,19-3,20-9Z"/></g></svg>