<svg xmlns="http://www.w3.org/2000/svg" viewBox="0 0 1333 1628"><defs><style>.cls-1{fill:#fff;}</style></defs><title>Artboard 48 copy 3</title><g id="ground"><path class="cls-1" d="M172,727l10.92-.42,15.55-2.52a18.45,18.45,0,0,1,20.17-3.78l13.66,4.41,15.12-7.57,6.73,1.26,6.3-2.52,16.81-7.56a34.16,34.16,0,0,1,12.6-4.2,35.86,35.86,0,0,1,22.69,5,171.36,171.36,0,0,0,16,10.93c11,6.64,14.07,6.77,15.55,6.72,6.84-.24,7.41-5.23,16.81-8.83a38.09,38.09,0,0,1,23.53-.84,37.24,37.24,0,0,1,14.71,8.41,70.13,70.13,0,0,1,7.56-2.94,75.56,75.56,0,0,1,29.41-3.37,25.75,25.75,0,0,1,7.57-8c2.06-1.39,11-6.94,21.43-3.36,11.7,4,14.9,15.92,15.12,16.81A35,35,0,0,1,493.67,721a36.52,36.52,0,0,1,22.27,5.88,71.82,71.82,0,0,1,15.55-6.3,57.44,57.44,0,0,1,10.92-2.11c4.62-.4,5.74.1,13.45,0,5.22-.06,5-.3,10.5-.42,7.64-.16,11.46-.24,15.13.42a37,37,0,0,1,14.71,6.31,45.38,45.38,0,0,1,9.66-5.47c4.87-2,10.93-4.51,18.07-2.94a23.55,23.55,0,0,1,11.35,6.31,51.86,51.86,0,0,1,4.2-8.83c3.78-6.32,7-11.8,13.45-14.28,5.81-2.26,14.44-2.13,20.16,3.36a18,18,0,0,1,5,9.66,41.27,41.27,0,0,1,24.79,11.77,75.32,75.32,0,0,1,24.37-1.26,38.94,38.94,0,0,0,10.51-2.94c5-2.24,5.33-3.71,9.66-5.89,7.65-3.84,15.24-3.51,18.91-3.36a45.2,45.2,0,0,1,11.76,2.1,50.79,50.79,0,0,1,11.77-2.1c5.59-.32,11.14-.65,16.39,2.1,8.1,4.24,10.89,13.51,11.55,16.18,2-.06,7.54-.43,14.92-.63,12.16-.33,15.54-.41,18.49-2.94,1.53-1.32,4.32-4.47,4.62-11.77A23.51,23.51,0,0,1,866,709.6c1.82-.29,6.47-1,10.5.84,5.82,2.7,9.22,10.28,8.82,18.91a30.52,30.52,0,0,1,7.57-10.93c4.39-4,8.78-5.56,13.44-7.14a49.41,49.41,0,0,1,22.7-2.94c5.57.66,12.72,1.51,18.9,7.14a27.22,27.22,0,0,1,7.57,12.19,35.67,35.67,0,0,1,5.88-9.67c2-2.32,5.7-6.66,11.77-8.82,4.07-1.45,7.31-1.24,12.6-.84a62.06,62.06,0,0,1,23.11,5.88c6.77,3.24,5.18,4,15.55,10.09,6.49,3.8,12.13,7.05,20.17,9.24,7.65,2.08,11.57,3.15,16.39,1.68,4.16-1.26,6.3-3.6,13.44-5.88a54.85,54.85,0,0,1,6.73-1.68,20.42,20.42,0,0,1,38.24-7.56q10.92,16.59,21.85,33.19c.91-3.75,5.83-22.72,16.38-24.37,3-.46,5.82.5,23.11,11.76,6.35,4.14,11.55,7.65,15.13,10.09a62.15,62.15,0,0,1,28.16,7.56c12.18,6.67,19,700.75,22.06,705.38L56.66,1469a133.24,133.24,0,0,0,15.13-13.45c5.75-6,8.51-695,14.71-698.87a42.82,42.82,0,0,1,11.76-5,27.06,27.06,0,0,0,28.58-9.24l14.28-2.11Z"/></g></svg>