<svg xmlns="http://www.w3.org/2000/svg" viewBox="0 0 3516 1189"><defs><style>.cls-1{fill:#fff;}</style></defs><title>Artboard 55 copy 7</title><g id="tree"><path class="cls-1" d="M1552,189.24l8-.84c2.55.16,3.47.65,8.82,2.1,4.26,1.14,7.31,1.82,10.51,2.52,5.52,1.21,8.32,1.82,10.08,1.68,2.32-.18,4.66-.9,10.51-4.62,10.83-6.91,10.17-9.18,16-11.35,5.07-1.9,9.9-1.79,14.71-1.68a42.4,42.4,0,0,1,10.51,1.26c6.41,1.72,7.4,4.1,18.48,10.93,9.54,5.87,14.2,7.43,16,8a58.54,58.54,0,0,0,10.09,2.1c3.94.41,15.44-.48,29.41-6.3l21.85-1.26c5,5.36,10.2,11.06,15.39,17.11q9.18,10.74,17,21l11,8,13-11,17,14,19-1,14-23,14,11q2.49,9.51,5,19l3,18,9,3q5,8,10,16l6-4,6,14,24,33,16-4,13-19q5,4,10,8,6.49,16,13,32l22,33,32-23,19-34,24,10q15.49,27,31,54,7,63,14,126,25,15.51,50,31,9.49,48.51,19,97l62,38,33,64,36,181,34,18q24.49,38.5,49,77l64,14,21,52-1616-14,18-64,72-109,42-107q15.5-63,31-126l47,2,27-80q17.49-53.49,35-107l65-42,25-43,28-23,28,11,13-23,9-9,13-4,9-22,13,6,20,3,14-15,17,2,15-35,23,9q6.49-10.5,13-21l17-7,16-7C1529.8,204.12,1547.77,189.69,1552,189.24Z"/></g></svg>