<svg xmlns="http://www.w3.org/2000/svg" viewBox="0 0 3516 1189"><defs><style>.cls-1{fill:#fff;}</style></defs><title>Artboard 55</title><g id="ground"><path class="cls-1" d="M1079.27,173.6a17.21,17.21,0,0,1,4.63,3c1.68,2,3.42,5.23,5,10.43a81.86,81.86,0,0,0,19.85-13.68c10.29-9.65,13.09-17.44,18.81-17.42,3.53,0,8.71,3,15,18.05l10.62-12.17,11.23,5.86q18.55-16.78,37.09-33.59,7.15,23.53,14.29,47.06c12.83-12.19,19.38-13.41,23-11.79,3.21,1.44,7.43,6.59,14.94,6.73h.61c11-.29,15.23-19.95,24.48-20.57,4-.27,4.78,3.34,15.86,10.9a106.68,106.68,0,0,0,14.7,8.41,71.21,71.21,0,0,1,37-6.31c14.67-2.29,23.78-7.81,29.67-13.37,5.06-4.78,7.69-9.53,10.36-8.87,4.13,1,4.65,14,4.09,27.71.72-1.14,5.48-8.43,14.4-9.65,8.36-1.13,16.95,3.52,21.32,11.75,4.45-3.95,10.26-7.79,15.55-6.31,8,2.24,9.67,15.14,14,14.73,4.71-.44,4.94-16.06,10.4-16.83,4.68-.66,7.61,10.43,13.56,10.11,5-.27,6-8.44,12.18-10.08,5.17-1.39,10.76,2.71,14.6,6.28,6.25.21,14.65-.61,20.28-6.28,5.17-5.23,5.33-11.88,8.4-12.19,2-.2,5.31,2.39,10.39,16.37a53.89,53.89,0,0,0,12.72-12.59c7.62-10.66,7.09-18.57,11.35-19.33,4.56-.81,8.52,7.66,19.33,21.85a238.86,238.86,0,0,0,16.38,19.33c6.55,2.32,16.2,4.5,25.64.84,13.8-5.35,17.17-19.33,26.78-18.51,4.93.42,5.6,4.23,16.92,11.37a93.81,93.81,0,0,0,14.7,7.56,23.11,23.11,0,0,0,10.93-3.78c9.82-6.72,9.31-19,13.87-19.75,2.58-.41,6.76,2.91,13.75,19.31,7-28.3,11.66-35.08,14.82-34.85,8.21.57,11,48.77,18.91,48.74,3.83,0,4.23-11.26,13-15.55,6.45-3.15,14.27-1,20.9,2.08,6.19.46,14.77.06,22.81-4.6,10.67-6.2,11.74-14.92,20.89-16.41,9.31-1.52,17.62,6,18.91,7.14a27.22,27.22,0,0,1,7.57,12.19,27.18,27.18,0,0,0,14.39-5.86c10.24-8.64,7-21.44,13.87-24,8.83-3.24,23.58,14.5,25.1,16.36,7.52,9.19,6.71,13.66,13.14,17.25,7.62,4.26,11.35-.56,22.58,2.08,14.91,3.51,19,14.52,26.16,12.63,3.39-.89,7.64-4.69,10.4-18.51.39-1.35,4.67-15.18,15.54-17.65,8.5-1.94,15.81,4.25,22.69,10.08,5.55,4.7,15.66,14.83,21.85,33.2,7.47-20,12.74-24.68,16.39-24.37,6.07.51,6.73,14.62,18.18,20.61,6.72,3.52,14.26,2.72,20.06,1.24,3.78,4.6,9.36,9.78,16.08,9.69,6.29-.09,10-3.5,15.55-5.89,6.35-2.72,16.65-4.31,33.25,2.42l25-39,26,7,28,32,29,21,19-8,32-13,30,51,9,28,25,39,27,25,46,6,46,34,24-24,21-49,31-34,44,49,31,26,34,97,21-26q5,14.5,10,29l15,5,20.29,85.61,19.71,1.39,15,44,27,63q2.51,39.5,5,79l50,96,33.32,13.36L2940,917.27l-2532-5,43-41,43-7q7-24.49,14-49l32-19q5.5-63,11-126l14-19,18-99,25-43,22,5,30-57,27-18,40,13q10-48,20-96l30-16,19-27,28-3,17-36,38-8,15-28,30-20,39,24,30.12-27.07,15.44-14.31a53.23,53.23,0,0,0,17.23-.84C1051.67,194.41,1068.83,169.34,1079.27,173.6Z"/></g></svg>