<svg xmlns="http://www.w3.org/2000/svg" viewBox="0 0 1333 1628"><defs><style>.cls-1{fill:#fff;}</style></defs><title>Artboard 48 copy</title><g id="ground"><path class="cls-1" d="M205.14,715.9l14.39,8.59L235.08,722c8.63-12.78,13.69-13.74,16.29-13.21,2.21.45,3.23,2.12,9.66,7.56,3.28,2.78,6.06,4.92,7.87,6.28L284,715l6.72,1.26c7,5.14,11.8,5.34,14.82,4.65,3.17-.73,7.2-4.84,15.13-13s9.27-9.61,11.76-10.09c3.57-.68,8.91.59,16.7,9.23a168.29,168.29,0,0,0,16,10.92c9.71,5.86,13.23,6.65,14.94,6.72h.6c9.53-.34,11-17.5,19.87-19.72,3-.75,4.58.79,20.47,10.06,6.27,3.65,11.41,6.56,14.71,8.4a32.94,32.94,0,0,1,21.12-9.64,31.77,31.77,0,0,1,15.86,3.34c3-1.46,7.4-3.51,12.72-5.86,12.41-5.48,14.47-5.71,16.27-5.49C510,706.85,515,718,516.82,722.6c1.33-2.19,6.2-9.7,12.72-9.64,6.35.07,10.84,7.3,16,15.55a72.74,72.74,0,0,1,7.15,15.13l8.43-22.92c5.41-3.57,12.28-6.79,17.93-4.42,7.71,3.24,8.53,14.45,12.72,14.31,5.24-.18,4.9-18,14.28-21,4.78-1.55,10.19,1.34,15.55,4.2a41.7,41.7,0,0,1,11.23,8.8c1.55-2.8,9.76-17.21,17.76-15.94,2.78.44,6,4.64,12.19,13l10.92,14.71c5.81-11.34,8.88-20.44,12.19-26.47,8.25-15,11.39-16.16,13.45-16.39,3.32-.37,8.25,3,15.43,18.89,2.29-7.6,5.62-8.61,6.42-8.8,5.27-1.26,13.18,6.54,18.37,20.56a45.42,45.42,0,0,0,10.62-.39c11.75-1.85,16.05-7.36,20.59-5.89,3.21,1,6.78,5.65,7.56,22.27a44.51,44.51,0,0,1,2.11-14.7c1.55-4.84,3.22-10,6.72-12.19,6.14-3.82,18.33,1.33,29.41,13,1.57-10.93,5.6-19.82,10.93-20.59,3.63-.53,8.49,4.26,18.07,13.86,3.71,3.73,6.68,6.95,8.71,9.22,2.32-8.84,5.91-18.52,11-18.88,8.83-.62,15.24,27,24,26.05,7.17-.75,7.71-20,16-21.43,6-1,12.49,7.82,16.7,14.68a30.16,30.16,0,0,1,21-18.06C952.44,723.84,959.4,726.4,964,726c9.24-.83,14-14,20.48-12.63,4.21.9,6.4,7.32,7.56,12.18,1.46-2.54,3.42-5.86,5.89-9.66,7.93-12.25,12.71-19.63,16.08-18.89,5.66,1.25,3.6,24.62,8,25.22,3.68.5,7-15.7,12.61-15.55,4.27.11,4.18,9.39,11.76,13.87,6.73,4,10.79-1,21.85.42,14.56,1.83,17.08,11.62,29.3,12.16,4.77.21,11.63-1,20.17-7.57,7.12-15.19,12.24-17.87,15.55-17.64,6.09.42,7.71,11.32,17.76,23.55a71.45,71.45,0,0,0,21.85,17.65c11.93-18.57,19.6-21.38,24.37-20.59,7.77,1.29,8.13,12.14,21.43,18.91,2.41,1.23,11.3,5.39,21.85,3.78,10.78-1.65,13.26-7.79,19.33-7.56s13.92,691.54,22.79,718L83.29,1469c12.91-21.14,22.46-710.5,29-710.22,3.21.14,8.57,1.53,14.29-1.26a20.14,20.14,0,0,0,8.29-8,27.62,27.62,0,0,0,17.23-.85,27.22,27.22,0,0,0,11.34-8.4l14.29-2.1Z"/></g></svg>