<svg xmlns="http://www.w3.org/2000/svg" viewBox="0 0 1333 1628"><defs><style>.cls-1{fill:#fff;}</style></defs><title>Artboard 48 copy 2</title><g id="ground"><path class="cls-1" d="M170.27,724.33c2.68.53,6.44,3,9.66,13.45a81.86,81.86,0,0,0,19.85-13.68c10.29-9.65,13.09-17.44,18.81-17.42,3.53,0,8.71,3,15,18.05l10.62-12.16,11.23,5.85q18.56-16.78,37.09-33.59,7.15,23.53,14.29,47.06c12.83-12.19,19.38-13.41,23-11.78,3.21,1.43,7.43,6.58,14.94,6.72h.61c11-.29,15.23-20,24.48-20.57,4-.27,4.77,3.34,15.86,10.9a106.68,106.68,0,0,0,14.7,8.41,71.21,71.21,0,0,1,37-6.31c14.67-2.29,23.78-7.81,29.67-13.37,5.06-4.78,7.69-9.53,10.36-8.87,4.13,1,4.65,14,4.09,27.71.72-1.14,5.48-8.43,14.4-9.64,8.36-1.14,16.95,3.52,21.32,11.74,4.45-4,10.26-7.79,15.55-6.3,8,2.23,9.67,15.13,14,14.73,4.71-.45,4.94-16.07,10.4-16.84,4.68-.66,7.61,10.43,13.56,10.11,5-.27,6-8.44,12.18-10.08,5.17-1.39,10.76,2.71,14.6,6.28,6.25.21,14.65-.6,20.28-6.28,5.17-5.22,5.33-11.88,8.4-12.19,2-.2,5.31,2.39,10.39,16.37A53.69,53.69,0,0,0,649.29,710c7.62-10.66,7.09-18.57,11.35-19.33,4.56-.81,8.52,7.67,19.33,21.86a240.14,240.14,0,0,0,16.38,19.32c6.55,2.32,16.2,4.5,25.64.84,13.8-5.34,17.17-19.33,26.78-18.51,4.93.42,5.6,4.23,16.92,11.37a94.93,94.93,0,0,0,14.7,7.57,23.25,23.25,0,0,0,10.93-3.79c9.82-6.72,9.31-19,13.87-19.75,2.58-.41,6.76,2.92,13.75,19.31,7-28.3,11.66-35.08,14.82-34.85,8.21.57,11,48.77,18.91,48.74,3.83,0,4.23-11.25,13-15.55,6.45-3.15,14.27-1,20.9,2.08,6.19.46,14.77.06,22.81-4.6,10.67-6.2,11.74-14.92,20.89-16.41,9.31-1.52,17.62,6,18.91,7.14a27.22,27.22,0,0,1,7.57,12.19,27.18,27.18,0,0,0,14.39-5.86c10.24-8.64,7-21.44,13.87-23.95,8.83-3.24,23.58,14.5,25.1,16.36,7.52,9.19,6.71,13.66,13.14,17.25,7.62,4.26,11.35-.56,22.58,2.08,14.91,3.51,19,14.52,26.16,12.63,3.39-.89,7.64-4.69,10.4-18.51.39-1.35,4.67-15.18,15.54-17.65,8.5-1.93,15.81,4.26,22.69,10.09,5.55,4.69,15.66,14.82,21.85,33.19,7.47-20,12.74-24.68,16.39-24.37,6.07.51,6.73,14.62,18.18,20.61,6.72,3.52,14.26,2.72,20.06,1.24,3.78,4.61,9.36,9.78,16.08,9.69,7.09-.1,10-6,15.55-5.88,4.76.1,11.18,689.7,18.58,709.13L58,1469c8-4.54,16.94-695.43,26.16-703.05a182.26,182.26,0,0,0,15.44-14.31,27,27,0,0,0,28.57-9.24,41.82,41.82,0,0,0,14.29-2.11C157.79,735.12,162.93,722.87,170.27,724.33Z"/></g></svg>