<svg xmlns="http://www.w3.org/2000/svg" viewBox="0 0 2401 1189"><defs><style>.cls-1{fill:#fff;}</style></defs><title>Artboard 55 copy 9</title><g id="tree"><path class="cls-1" d="M1717,1048l-31,13-33-22-18-25-22-55-32-14q-17-62.5-34-125l-15-76-24-99-23-39c-10.26-55.45-17.32-100.17-22-132l-26-18q-14.51-48.49-29-97l-26-32V274c-7.56-14.19-14.47-26-20-35-7.44-12.15-10.73-16.66-16.12-17.6-10.79-1.89-20.67,12.12-23.88,9.6s6.12-18.23,2.08-21.31c-1.72-1.32-4,1.3-8.73,0-2.78-.78-4.34-2.12-8.31-5.31s-8.1-6.43-10.4-8.17c-6.52-4.94-9.78-7.41-12.89-8.17-5.13-1.25-7.76.34-10.39-2-2.18-2-1-3.59-3.32-7.35-1.77-2.81-4-4.34-8.32-7.35s-4.66-2.42-7.07-4.49c-4.42-3.81-3.44-5.9-6.65-8.17-4.24-3-6.77.08-13.72-2.45-5.27-1.92-4.2-3.82-10.81-6.53-4.39-1.8-6.59-1.67-8.73-4.08s-1-3.91-2.91-6.54c-3.74-5-12.12-5-14.6-4.94a30.51,30.51,0,0,0-7.75,1.21c-5.58,1.39-6,2.63-11.4,4.39-7.63,2.48-9.34.85-13.44,3.61-3.59,2.4-2.46,3.78-6.11,6-3.92,2.38-6.24,2.58-11,4.41a42.76,42.76,0,0,0-11.37,6.57,126.31,126.31,0,0,1-20.4-.18c-3.29-.29-6.42-.7-9.36-1.19l-9.78,2.39-9,1.61a59.65,59.65,0,0,0-25.25,4,35.26,35.26,0,0,1-9.78,4.4c-4.06,1.12-6,.84-9.36,2a24.5,24.5,0,0,0-9.78,6.4l-9.78,6a34.66,34.66,0,0,1-5.7,5.2,35.86,35.86,0,0,1-11.81,5.6c-2.73,1.11-5.72,2.2-9,3.2-2.56.79-5,1.45-7.33,2-3.64.08-8.83.13-15.07,0-8.2-.17-12.3-.26-14.84-.71-14-2.49-18.08-11.31-23-9-3.35,1.57-2,6-6.51,19-3.06,8.91-5.28,15.17-9.49,16-5.18,1-8.76-7.08-13-6-2.55.65-5.15,4.59-6,18l-15,38-7,22q1,20.5,2,41l-15,3q-2.5,13.5-5,27l-10.38,14.55Q850.32,412.77,849,441l-9-14-12,9q2,44,4,88-3,16.49-6,33-3.53,19.5-7,39v11h-6l-3,1q-5.5,69-11,138l-3,5-8-2q-1,6.5-2,13-2.5,9.5-5,19-2.5,27-5,54,.5,11.5,1,23l-4,2q-2.5,26.5-5,53l-14-6-8,10-6,46c-3.75,1.69-15.9,7.73-21.83,21.5A39.6,39.6,0,0,0,715,999l-16,14-19,46-24,22-12-10-14,22H1756Z"/></g></svg>