<svg id="Layer_6" data-name="Layer 6" xmlns="http://www.w3.org/2000/svg" viewBox="0 0 494.06 363.79"><defs><style>.cls-1{fill:#d1d1d1;}.cls-2{fill:#777474;}</style></defs><title>Bird2_2</title><path class="cls-1" d="M114.23,106.75c-9.94,2.08-22.52,6.51-32,17-14.77,16.33-13.44,37.85-23,39-6.77.82-12.62-9.33-13-10-7.39-13.14,1.47-29.37,4-34,11.59-21.24,34.35-28,41-30,21.88-6.52,40.76-1.69,49,1a124.32,124.32,0,0,1,29-8c11.62-1.72,39-6,63,7,16.08,8.71,15.25,16.83,32,31,17.21,14.57,37.27,22.22,57,26,1-6.23,4.57-24.3,20-35,7-4.88,20.72-11.15,26-6,4.41,4.31,2.4,16.11-6,28q24.74-9,28-4,4,6.09-24,33a56.56,56.56,0,0,1,10,19c6.11,20.55-1.85,38.78-5,46-18.34,42-77.6,62-121,65-19.17,1.34-44,3.09-71-10-39.68-19.27-54.47-56.44-73-103-4.55-11.41-8.91-24.84-6-41A66.75,66.75,0,0,1,114.23,106.75Z"/><path class="cls-2" d="M137.23,187.75a21.6,21.6,0,0,0-18-16c-28.12,16.64-46,32.78-43,40,4.16,9.93,47,.67,50,0A21.67,21.67,0,0,0,137.23,187.75Z"/><path class="cls-2" d="M233.11,205.45c5.44,8.41,46.11,72.61,23.79,104.71-1.94,2.78-10.15,14.59-21.25,14.09-10-.45-19.52-10.75-23.84-25.94-1.3,2.48-5.58,9.85-14.31,13.12-14.71,5.5-28-5.9-29.26-7a38.74,38.74,0,0,1-11.12-21.67C153.69,259.92,184.93,229.31,233.11,205.45Z"/></svg>