<svg id="Layer_6" data-name="Layer 6" xmlns="http://www.w3.org/2000/svg" viewBox="0 0 494.06 363.79"><defs><style>.cls-1{fill:#d1d1d1;}.cls-2{fill:#777474;}</style></defs><title>Bird1_1</title><path class="cls-1" d="M136.47,117.26a90.16,90.16,0,0,0-28,28c-4.87,7.74-17.22,30-13,58,.56,3.69,2.81,16.84,15,36,4.31,6.78,25.43,38.78,72,62,27.24,13.58,54.42,27.14,90,22,36.54-5.28,76.64-29.52,93-71,10.76-27.27,7.41-52.23,5-64a83.24,83.24,0,0,0,32-15c9.28-7.16,22.53-17.39,24-34,1.18-13.3-5.81-23.8-9-28a61.1,61.1,0,0,0-24,13c-17.81,16-20.89,39.51-23,39-3-.74,10.72-47.85-1-54-5.35-2.81-13.83,4-15,5-22.49,18.19-8.89,65.06-8,68-4.46,3.9-11.61,8.87-21,10-26.32,3.18-49.22-26.32-52-30-15.16-20-15.32-38.48-31-43-6.74-1.94-10.32.42-14-3-10.11-9.38,5.79-37.42,0-41-5.49-3.39-23.74,19.35-27,17-4.14-3,24.26-40.61,17-48-5-5.06-26.54,4.22-39,20a59.13,59.13,0,0,0-12,30,144.89,144.89,0,0,1-5-29c-2.1-30.4,6.54-46.63,2-49-6-3.11-31.41,19.5-37,50C123.25,89.27,131.84,108.56,136.47,117.26Z"/><path class="cls-2" d="M67.47,222.26l34-26c11.4-4.78,23.38.07,27,8,4.12,9-2,23.39-16,27Z"/><path class="cls-2" d="M240.47,259.26c4.15,3.72,27.55,25.37,24,53-1.9,14.79-11.86,33.88-22,33-8.69-.76-14-15.86-15-19-2.58,10.64-9.84,18.79-19,21a24.62,24.62,0,0,1-23-7c-13.7-14.75-6.21-51.24,16-69C216.18,259.5,233.49,259,240.47,259.26Z"/></svg>