<svg id="Layer_6" data-name="Layer 6" xmlns="http://www.w3.org/2000/svg" viewBox="0 0 494.06 363.79"><defs><style>.cls-1{fill:#d1d1d1;}.cls-2{fill:#777474;}</style></defs><title>Bird2</title><path class="cls-1" d="M145,111.48c-9.94,2.08-22.52,6.51-32,17-14.77,16.33-13.43,37.85-23,39-6.77.82-12.62-9.33-13-10-7.39-13.14,1.47-29.37,4-34,11.59-21.23,34.35-28,41-30,21.88-6.52,40.76-1.69,49,1a123.56,123.56,0,0,1,29-8c11.63-1.72,39-6,63,7,16.08,8.71,15.26,16.83,32,31,17.21,14.57,37.27,22.22,57,26,1-6.23,4.58-24.3,20-35,7-4.88,20.73-11.15,26-6,4.41,4.31,2.41,16.11-6,28q24.74-9,28-4,4,6.09-24,33a56.37,56.37,0,0,1,10,19c6.11,20.55-1.85,38.78-5,46-18.34,42-77.6,62-121,65-19.17,1.34-44,3.09-71-10-39.68-19.27-54.47-56.44-73-103-4.54-11.41-8.91-24.84-6-41A66.66,66.66,0,0,1,145,111.48Z"/><path class="cls-2" d="M168,192.48a21.57,21.57,0,0,0-18-16c-28.12,16.64-46,32.78-43,40,4.17,9.93,47,.67,50,0A21.68,21.68,0,0,0,168,192.48Z"/><path class="cls-2" d="M274.58,165.14c-5.31-8.5-45-73.33-22.14-105.07,2-2.76,10.38-14.43,21.47-13.76,10,.61,19.35,11,23.43,26.31,1.34-2.46,5.73-9.76,14.52-12.89,14.79-5.27,27.91,6.33,29.14,7.46A38.83,38.83,0,0,1,351.78,89C354.85,111.91,323.12,142,274.58,165.14Z"/></svg>