<svg id="Layer_6" data-name="Layer 6" xmlns="http://www.w3.org/2000/svg" viewBox="0 0 494.06 363.79"><defs><style>.cls-1{fill:#777474;}.cls-2{fill:#383636;}.cls-3{fill:#d1d1d1;}</style></defs><title>Bird5_1</title><path class="cls-1" d="M213,142a77.77,77.77,0,0,0-37.54-18.45c-9.63-2-37.13-7.61-58.54,10.18-14.38,11.94-18.09,27.86-19.09,32.45-5.29,24.26,5.31,48.69,10.82,48.36,5.76-.35,1.08-27.5,17.82-39.45,5.56-4,14.16-6.81,40.72-1.91a267.67,267.67,0,0,1,71.27,24.18C238.14,190.89,235.94,162.82,213,142Z"/><path class="cls-2" d="M241,211.4c-8.27,3.91-20.47,8-33.72,5.09-13.77-3-16.11-10.89-36.27-19.73-12.4-5.43-25.45-11.16-37.55-6.36-12.44,4.94-16,17.94-19.08,16.54s-2.17-15.57,5.72-25.45a35.37,35.37,0,0,1,10.18-8.27c13.42-6.93,55.48,2.33,108.18,24.18Q239.74,204.4,241,211.4Z"/><path class="cls-3" d="M218.1,135c12.72-15.33,32.14-16.71,38.81-17.18a69.07,69.07,0,0,1,29.27,4.45C325.41,136.74,343.34,185.42,346,193l19.09,17.18A111,111,0,0,1,383.54,212c14,2.62,19.29,6.4,29.27,8.27,6.87,1.27,16.87,1.84,29.91-1.91,2.41,2.09,5.14,5.18,5.09,8.91-.05,3.05-1.91,4.84-4.46,8.91-3.33,5.37-2.6,6.42-5.72,12.72-4.43,8.91-7.88,15.91-14,17.18-4.78,1-9.28-1.86-13.37-4.45-6.58-4.18-7-7.64-12.09-10.82-3.32-2.11-8.79-4.22-17.81-3.18a67.54,67.54,0,0,1-19.73,21c-3.94,2.68-24.73,16.84-50.27,10.18a59.2,59.2,0,0,1-29.27-18.45,217.62,217.62,0,0,1-53.45-54.09c-22.18-32.4-19.6-48.41-18.45-53.45A44,44,0,0,1,218.1,135Z"/><path class="cls-1" d="M279.18,165.58c-12.05-12.68-2.45-39.7,7.64-54.08A47.77,47.77,0,0,1,305.27,95a45.4,45.4,0,0,1,16.55-4.45,250.89,250.89,0,0,0,71.26-35.64c3.38,1.22,5,2.89,5.73,4.46,5.9,12.13-27.69,38.24-29.27,39.45,18.14-9.41,32.83-17.18,45.18-24.18,4.31-2.44,13.09-7.49,21-4.45,1,.4,5,1.9,6.36,5.72s-.42,8.56-4.45,12.09C419,104,403.84,113.57,393.13,119.43c0,0-8.14,4.45-7.68,5.43.86,1.84,36.53-17.56,43.9-8.91,2.81,3.3.51,9.47,0,10.82-8.34,22.37-53.24,26-52.81,28,.22,1.06,11.92-1.72,26.72,1.91,4.71,1.15,13.88,3.39,14.64,8.27.64,4.13-5,8.16-7,9.54-13.06,9.25-31,5.38-38.82,3.18,2.8.56,26.15,5.36,26.73,14.64.25,4-3.77,7.2-5.09,8.27-16.58,13.36-80.39-18-101.18-28.63C285.16,170.78,281.26,167.79,279.18,165.58Z"/></svg>