<svg id="Layer_6" data-name="Layer 6" xmlns="http://www.w3.org/2000/svg" viewBox="0 0 494.06 363.79"><defs><style>.cls-1{fill:#777474;}.cls-2{fill:#383636;}.cls-3{fill:#d1d1d1;}</style></defs><title>Bird4_2</title><path class="cls-1" d="M20,137.71l132-15q16.41,10.15,15,16Q163.07,155,20,137.71Z"/><path class="cls-2" d="M160,143.71c-.71,5.27-2.68,13.71-9,21-10.16,11.71-25,12.9-42,14-21.8,1.4-49,3.17-63-15-6.32-8.22-7.75-17.69-8-24Z"/><path class="cls-3" d="M127,117.71c-1.55-3.06-4.67-9.19-3-16,2.31-9.46,12.37-14.3,18-17,2.75-1.33,22.89-10.62,44-1,6.33,2.88,11.6,5.28,15,11,6.88,11.55-2.32,22.47,2,41a56.42,56.42,0,0,0,9,19c14.49,19,42.19,20.85,83,23a416.72,416.72,0,0,0,43,0l45-32c.82.48,5,3.06,6,8,1,5.32-2.15,11.19-8,14l16-5c.37.09,7.06,1.81,8,6s-3.9,10.56-13,12c11.94-1.27,20.24,2.57,21,7,.66,3.89-4.56,7.94-6,9l-71,14a113.32,113.32,0,0,1-29,20c-4.07,1.94-27,12.63-54,11-48.34-2.94-79.38-43.6-98-68C147.12,163.29,152.78,168.51,127,117.71Z"/><path class="cls-1" d="M227.62,166.79q-11.51,64-23,128,.23,9.13,3,10,6,1.86,24-35c1,5.56,6.45,35.24,12,35,5.78-.25,8.58-32.86,9-38,.65,1.29,12,23.68,17,22,4.42-1.49,1.42-21.33,1-24,8,9.63,16.3,16,20,14,4-2.16,3.09-14.43-3-30,14,16.3,19,18.14,21,17,7-3.91-11.89-48.12-14-53-12.18-28.19-19.16-43.68-35-49C247.27,159.64,235,163.53,227.62,166.79Z"/></svg>