<svg id="Layer_6" data-name="Layer 6" xmlns="http://www.w3.org/2000/svg" viewBox="0 0 494.06 363.79"><defs><style>.cls-1{fill:#777474;}.cls-2{fill:#383636;}.cls-3{fill:#d1d1d1;}</style></defs><title>Bird5</title><path class="cls-1" d="M175.69,99.38a77.77,77.77,0,0,0-37.54-18.45C128.51,79,101,73.32,79.6,91.11c-14.38,12-18.09,27.87-19.08,32.45-5.29,24.26,5.31,48.7,10.81,48.36,5.73-.34,1.08-27.49,17.82-39.45,5.56-4,14.16-6.81,40.72-1.91a267.55,267.55,0,0,1,71.27,24.18C200.8,148.26,198.62,120.17,175.69,99.38Z"/><path class="cls-2" d="M203.69,168.74c-8.28,3.91-20.48,8-33.73,5.09-13.77-3-16.1-10.89-36.27-19.73-12.4-5.42-25.45-11.15-37.54-6.36-12.44,4.94-16,17.94-19.09,16.54s-2.17-15.56,5.73-25.45A35.24,35.24,0,0,1,93,130.56c13.41-6.93,55.47,2.34,108.17,24.18C202,159.41,202.83,164.08,203.69,168.74Z"/><path class="cls-3" d="M180.78,92.38c12.73-15.33,32.15-16.7,38.81-17.18a69.46,69.46,0,0,1,29.28,4.45c39.22,14.43,57.15,63.12,59.81,70.64l19.09,17.18a111,111,0,0,1,18.45,1.91c14,2.62,19.29,6.4,29.27,8.27,6.86,1.27,16.88,1.84,29.91-1.91,2.42,2.09,5.14,5.18,5.09,8.91,0,3.06-1.91,4.85-4.45,8.91-3.33,5.37-2.61,6.42-5.73,12.72-4.42,8.91-7.88,15.91-14,17.18-4.78,1-9.28-1.86-13.36-4.45-6.58-4.18-7-7.64-12.09-10.82-3.33-2.11-8.8-4.21-17.82-3.18a67.5,67.5,0,0,1-19.72,21c-3.95,2.68-24.73,16.84-50.27,10.18a59.11,59.11,0,0,1-29.27-18.45,217.53,217.53,0,0,1-53.46-54.09c-22.18-32.4-19.59-48.41-18.45-53.45A44.08,44.08,0,0,1,180.78,92.38Z"/><path class="cls-1" d="M301.8,113.58c-14.13,5.88-81.42,35.51-98.63,101.17-12.16,46.4,3.86,98.63,13.36,98.63,4.5,0,10.61-11.73,17.82-62.36Q243.21,296,249,295.56q6.28-.42,8.9-54.72,15.67,35.84,21,34.36,6.06-1.68-1.27-51.54,19.85,29.67,24.82,27.36,5.73-2.66-8.27-47.72c11.48,7.93,24.35,15.75,27.36,12.72,5.18-5.21-22-39.76-18.46-42.63,2.75-2.23,18.77,18.9,26.09,15.27,6.95-3.43,3.71-28-5.09-46.45A86.31,86.31,0,0,0,301.8,113.58Z"/></svg>