<svg id="Layer_6" data-name="Layer 6" xmlns="http://www.w3.org/2000/svg" viewBox="0 0 494.06 363.79"><defs><style>.cls-1{fill:#d1d1d1;}.cls-2{fill:#777474;}</style></defs><title>Bird1</title><path class="cls-1" d="M158,117.25a90.69,90.69,0,0,0-28,28c-4.87,7.74-17.22,30-13,58,.56,3.69,2.82,16.85,15,36,4.31,6.79,25.43,38.78,72,62,27.24,13.59,54.43,27.14,90,22,36.54-5.27,76.64-29.52,93-71,10.76-27.27,7.41-52.22,5-64a82.52,82.52,0,0,0,32-15c9.28-7.15,22.53-17.38,24-34,1.18-13.3-5.81-23.8-9-28a61.75,61.75,0,0,0-24,13c-17.81,16-20.89,39.52-23,39-3-.73,10.72-47.84-1-54-5.35-2.8-13.83,4.06-15,5-22.49,18.19-8.89,65.07-8,68-4.46,3.9-11.61,8.87-21,10-26.32,3.19-49.21-26.31-52-30-15.16-20-15.32-38.47-31-43-6.74-1.94-10.31.42-14-3-10.11-9.38,5.8-37.42,0-41-5.49-3.38-23.74,19.35-27,17-4.14-3,24.27-40.6,17-48-5-5.06-26.54,4.22-39,20a59.37,59.37,0,0,0-12,30,146.08,146.08,0,0,1-5-29c-2.1-30.4,6.54-46.63,2-49-6-3.11-31.41,19.51-37,50C144.76,89.26,153.34,108.56,158,117.25Z"/><path class="cls-2" d="M89,222.25l34-26c11.4-4.78,23.38.08,27,8,4.12,9-2,23.4-16,27Z"/><path class="cls-2" d="M278,185.29c-2.56-4.95-16.75-33.49-3.63-58.07,7-13.15,23.11-27.47,32.28-23,7.85,3.79,7.42,19.78,7.28,23.09,6.19-9,15.87-14.08,25.22-12.89a24.63,24.63,0,0,1,19,14.7c7.57,18.66-12.39,50.11-39.45,58.83C300.75,193.69,284.41,188,278,185.29Z"/></svg>