<svg id="Layer_6" data-name="Layer 6" xmlns="http://www.w3.org/2000/svg" viewBox="0 0 494.06 363.79"><defs><style>.cls-1{fill:#d1d1d1;}.cls-2{fill:#777474;}</style></defs><title>Bird1_2</title><path class="cls-1" d="M141.5,128.61a90.37,90.37,0,0,0-28,28c-4.87,7.74-17.22,30-13,58,.56,3.69,2.81,16.85,15,36,4.31,6.79,25.43,38.78,72,62,27.24,13.59,54.42,27.14,90,22,36.54-5.27,76.64-29.52,93-71,10.76-27.27,7.41-52.22,5-64a82.73,82.73,0,0,0,32-15c9.28-7.15,22.53-17.38,24-34,1.18-13.3-5.81-23.8-9-28a61.42,61.42,0,0,0-24,13c-17.81,16-20.89,39.52-23,39-3-.73,10.72-47.84-1-54-5.35-2.8-13.83,4.06-15,5-22.49,18.19-8.89,65.07-8,68-4.46,3.9-11.61,8.87-21,10-26.32,3.19-49.22-26.31-52-30-15.16-20-15.32-38.47-31-43-6.74-1.94-10.32.42-14-3-10.11-9.38,5.79-37.42,0-41-5.49-3.38-23.74,19.35-27,17-4.14-3,24.26-40.6,17-48-5-5.06-26.54,4.22-39,20a59.25,59.25,0,0,0-12,30,145.48,145.48,0,0,1-5-29c-2.1-30.4,6.54-46.63,2-49-6-3.11-31.41,19.51-37,50C128.28,100.62,136.87,119.92,141.5,128.61Z"/><path class="cls-2" d="M72.5,233.61l34-26c11.4-4.78,23.38.08,27,8,4.12,9-2,23.4-16,27Z"/><path class="cls-2" d="M291.54,231.84c7.31,7.68,16.86,24.22,9.28,34.56-5.23,7.12-17.71,10-27.12,4.68-7.56-4.29-8.8-13.43-9-15.3-4.73,3.57-13,3.89-21.71.7-8.21-3-15.55-8.78-18.87-13.6a12.67,12.67,0,0,1-2.51-8.57c1-9.56,20.25-14.34,32.49-14.89C260.33,219.14,278.68,218.31,291.54,231.84Z"/></svg>