<svg id="Layer_6" data-name="Layer 6" xmlns="http://www.w3.org/2000/svg" viewBox="0 0 494.06 363.79"><defs><style>.cls-1{fill:#d1d1d1;}.cls-2{fill:#777474;}</style></defs><title>Bird2_1</title><path class="cls-1" d="M157.56,119.33c-9.93,2.08-22.51,6.51-32,17-14.77,16.33-13.43,37.85-23,39-6.76.82-12.62-9.32-13-10-7.39-13.14,1.48-29.37,4-34,11.6-21.23,34.36-28,41-30,21.89-6.52,40.77-1.69,49,1a124,124,0,0,1,29-8c11.63-1.72,39-6,63,7,16.09,8.71,15.26,16.83,32,31,17.22,14.57,37.27,22.23,57,26,1-6.23,4.58-24.29,20-35,7-4.88,20.73-11.15,26-6,4.42,4.31,2.41,16.11-6,28q24.75-9,28-4,4,6.09-24,33a56.74,56.74,0,0,1,10,19c6.12,20.55-1.85,38.79-5,46-18.33,42-77.6,62-121,65-19.17,1.35-44,3.09-71-10-39.67-19.27-54.47-56.44-73-103-4.54-11.41-8.9-24.84-6-41A66.75,66.75,0,0,1,157.56,119.33Z"/><path class="cls-2" d="M184.56,202.7a21.6,21.6,0,0,0-18-16c-28.12,16.64-46,32.78-43,40,4.17,9.93,47,.67,50,0A21.65,21.65,0,0,0,184.56,202.7Z"/><path class="cls-2" d="M332.32,206c7.15,8.27,10.79,21.54,7,25.27a15.45,15.45,0,0,1-9.43,3.7,44.11,44.11,0,0,1-17.62-2.86c-7-2.85-11.82-7.69-12.07-12.13a34,34,0,0,1-12.54-1.15,50.7,50.7,0,0,1-19.4-9.57c-3.39-3.3-4.34-5.79-3.87-7.71C266.89,191.33,313.79,184.63,332.32,206Z"/></svg>