<svg id="Layer_6" data-name="Layer 6" xmlns="http://www.w3.org/2000/svg" viewBox="0 0 494.06 363.79"><defs><style>.cls-1{fill:#777474;}.cls-2{fill:#d1d1d1;}</style></defs><title>Bird3_2</title><path class="cls-1" d="M139,148.52c-12.2-14.08-29.62-25.62-32-23-1.38,1.52,1.93,8.25,21,30-28.17,2.24-33.9,5-34,7-.19,3.89,20.14,7.76,36,8,8.18.13,15.94.16,18-4C150.34,161.78,144,154.25,139,148.52Z"/><path class="cls-2" d="M148,133.52c2.09-3,22.44-31.16,59-32,32.49-.75,52.91,20.65,56,24a223.48,223.48,0,0,1,41,37c16.72,19.44,21.85,32.5,40,47a120.83,120.83,0,0,0,34,19,229,229,0,0,1-22,17c-14.54,9.89-46,31.31-88,36-17.81,2-54.25,6.06-88-16-32.39-21.17-60.65-65.31-49-104A68.49,68.49,0,0,1,148,133.52Z"/><path class="cls-1" d="M297,197.52c-1-8.09-2.23-28.83,11-46,4.3-5.58,14.47-18.78,26-16,8.51,2,15.18,12.18,16,25,3-1.15,10.92-3.74,17,0,9.38,5.78,8.12,22.82,4,33-6.26,15.49-21.76,21.58-33,26-12.09,4.75-25.22,9.91-34,3C294.78,215.28,296.68,199.77,297,197.52Z"/></svg>