<svg id="Layer_6" data-name="Layer 6" xmlns="http://www.w3.org/2000/svg" viewBox="0 0 494.06 363.79"><defs><style>.cls-1{fill:#777474;}.cls-2{fill:#383636;}.cls-3{fill:#d1d1d1;}</style></defs><title>Bird4_1</title><path class="cls-1" d="M39.55,149.08l132-15q16.41,10.14,15,16Q182.62,166.4,39.55,149.08Z"/><path class="cls-2" d="M179.55,155.08c-.71,5.27-2.68,13.71-9,21-10.16,11.71-25,12.9-42,14-21.79,1.4-49,3.17-63-15-6.32-8.22-7.74-17.69-8-24Z"/><path class="cls-3" d="M146.55,129.08c-1.55-3.06-4.67-9.19-3-16,2.31-9.46,12.37-14.3,18-17,2.75-1.33,22.9-10.62,44-1,6.33,2.88,11.6,5.28,15,11,6.88,11.55-2.32,22.47,2,41a56.7,56.7,0,0,0,9,19c14.49,19,42.19,20.85,83,23a416.72,416.72,0,0,0,43,0l45-32c.82.48,5,3.06,6,8,1,5.32-2.15,11.19-8,14l16-5c.38.09,7.06,1.81,8,6s-3.9,10.56-13,12c11.94-1.27,20.25,2.57,21,7,.66,3.89-4.56,7.94-6,9l-71,14a113.32,113.32,0,0,1-29,20c-4.07,1.94-27,12.63-54,11-48.34-2.94-79.38-43.6-98-68C166.61,174.66,172.32,179.88,146.55,129.08Z"/><path class="cls-1" d="M264.44,221.16c52.44,51.64,68.61,75.94,75,72,3.07-1.89,4-10.37-8-42,1.61,1.93,22,26.19,27,23,4.78-3-6.65-29-8-32,11.51,9.16,28.81,22.07,32,19,2.79-2.68-6.19-16.7-15-29,12,4.85,14.8,5.42,15,5,.7-1.47-30.72-12.29-64-38-19.85-15.34-23-22.59-38-27-19.32-5.7-44.18-2.5-48,8C229.44,188.41,240.67,197.74,264.44,221.16Z"/></svg>