<svg id="Layer_6" data-name="Layer 6" xmlns="http://www.w3.org/2000/svg" viewBox="0 0 494.06 363.79"><defs><style>.cls-1{fill:#777474;}.cls-2{fill:#d1d1d1;}</style></defs><title>Bird3</title><path class="cls-1" d="M154.38,127.86c-12.2-14.08-29.62-25.62-32-23-1.39,1.53,1.93,8.25,21,30-28.17,2.25-33.9,5-34,7-.2,3.9,20.14,7.76,36,8,8.17.13,15.93.16,18-4C165.73,141.12,159.31,133.6,154.38,127.86Z"/><path class="cls-2" d="M163.38,112.86c2.08-3,22.44-31.15,59-32,32.48-.75,52.9,20.65,56,24a224.53,224.53,0,0,1,41,37c16.72,19.45,21.84,32.5,40,47a120.69,120.69,0,0,0,34,19,228.65,228.65,0,0,1-22,17c-14.54,9.9-46,31.31-88,36-17.81,2-54.25,6.06-88-16-32.39-21.16-60.65-65.31-49-104A68.55,68.55,0,0,1,163.38,112.86Z"/><path class="cls-1" d="M281.5,229.19c2,7.9,5.83,28.32-5.16,47-3.57,6.07-12,20.44-23.79,19.13-8.7-1-16.58-10.19-19-22.81-2.82,1.52-10.37,5.08-16.87,2.13-10-4.56-10.9-21.63-8.09-32.24,4.27-16.16,18.88-24.14,29.49-29.92,11.4-6.23,23.77-13,33.35-7.23C281.48,211.29,281.53,226.92,281.5,229.19Z"/></svg>