<svg xmlns="http://www.w3.org/2000/svg" viewBox="0 0 983 269"><defs><style>.cls-1{fill:#fff;}</style></defs><title>Artboard 52 copy 6</title><g id="Layer_2" data-name="Layer 2"><path class="cls-1" d="M700,110.11c-9.72,2.55-15.42,9.46-17.46,12.22-5.3-6.87-22.76-27.62-52.38-33.18a81.69,81.69,0,0,0-29.68,0,34.85,34.85,0,0,0-22.7-29.68c-13.16-4.74-26.6-.39-34.92,7a34.46,34.46,0,0,0-8.73,12.22c-20.5-9.77-43.29-7.68-57.61,5.24-10,9-13,20.74-14,26.19a14.44,14.44,0,0,0-21,12.22c-3.1-2.56-22.13-17.69-48.89-14-23.61,3.28-37.14,19-40.15,22.7a20.45,20.45,0,0,0-14-7c-10.68-.56-17,8.14-17.46,8.73a54.46,54.46,0,0,0-27.93-21c-5-1.58-20.35-6.23-36.67,1.75-15.08,7.37-21.15,20.73-22.7,24.44-.5-.52-9.9-9.92-22.69-7-10.29,2.35-15,10.9-15.72,12.22A44.19,44.19,0,0,0,171,132.8c-5.31-.47-17.54-1.56-26.19,7-1.58,1.56-10.05,10.37-7,21-2.51,7.06,1.68,18.73,8.73,22.69,6,3.39,14.62,1.44,20.95,0A55.65,55.65,0,0,0,178,179.94a20.56,20.56,0,0,0,7,7c7.17,4.24,14.72,2.41,17.46,1.74a28.62,28.62,0,0,0,15.71-10.47c1.65,1.34,4,3.19,7,5.23,9.15,6.31,18.75,12.94,29.68,14,13.55,1.28,24.71-6.44,29.69-10.47a130,130,0,0,0,62.85,3.49,49.64,49.64,0,0,0,15.71,21c17.43,13.33,37.81,9.5,41.91,8.73a58.44,58.44,0,0,0,31.42-17.46,33.87,33.87,0,0,0,24.44-1.75c13.08-6.33,16.9-18.95,17.46-20.95a22.78,22.78,0,0,0,8.73,5.24,23.2,23.2,0,0,0,14,0c-1.83,2.5-4.86,7.44-3.49,12.22,2.87,10,22.4,10.43,24.44,10.48,13.92.31,24.56-6.53,29.68-10.48,2,.71,19.54,6.7,33.18-3.49a30.25,30.25,0,0,0,8.73-10.48,33,33,0,0,0,40.15-7,52.87,52.87,0,0,0,33.17,7c22.57-2.88,34.72-19.87,36.67-22.69,1.06.34,14.53,4.53,24.44-3.49,9.56-7.75,11.89-23.7,3.49-36.67C726.62,109.45,710.52,107.33,700,110.11Z"/></g></svg>