<svg xmlns="http://www.w3.org/2000/svg" viewBox="0 0 983 269"><defs><style>.cls-1{fill:#fff;}</style></defs><title>Artboard 52 copy</title><g id="Layer_2" data-name="Layer 2"><path class="cls-1" d="M484.62,123c-8.54-4.61-17.12-2.92-19.68-2.31a39,39,0,0,0-23.15-11.58c-21.11-2.34-35,15.08-35.89,16.21-17.35-1.25-30.49,9.78-31.26,20.84q0,.56,0,1.11c-.55,20.49,10,36.46,23.19,39.4,7.33,1.64,14.17-1,18.52-3.47,2.19,2,13,11.18,28.94,10.42,19.23-.92,29.95-15.52,31.26-17.37,4,0,11.18-.71,16.2-5.78,4.76-4.8,6.08-12,5.57-18.83.08-.29.16-.57.22-.85C501.13,139.3,493.83,128,484.62,123Z"/></g></svg>