<svg xmlns="http://www.w3.org/2000/svg" viewBox="0 0 983 269"><defs><style>.cls-1{fill:#fff;}</style></defs><title>Artboard 52</title><g id="Layer_2" data-name="Layer 2"><path class="cls-1" d="M313.67,168.47a24.22,24.22,0,0,0,16.21,0,55.67,55.67,0,0,0,38.2,2.32,51.62,51.62,0,0,0,18.53,12.73c24.29,9.62,47.43-3.7,50.93-5.79A40.58,40.58,0,0,0,463,181.21c7.16,5.08,16.13,6,23.15,2.31a21,21,0,0,0,9.27-10.42c2.72,1.16,21.89,9,40.51-1.16a44.41,44.41,0,0,0,17.37-17.36,16.56,16.56,0,0,0,12.73,0c5.83-2.56,10.55-8.94,9.26-12.73-.48-1.43-1.82-2.49-3.7-3.26a9,9,0,0,0-.93-3.69c-2.47-4.93-9.88-7.19-16.2-3.47-.59-1.78-5.05-14.53-18.53-19.68a31.65,31.65,0,0,0-22,0c-.17-1.19-1.21-7.82-7-11.58-6-3.9-14.53-3.1-20.84,2.32-7.93-13.08-23-19.07-35.88-15C435.78,92,431,106.94,430.6,108.27a34.13,34.13,0,0,0-45.15,8.11c-2.44-1.19-25.95-12.24-46.31,0a41.84,41.84,0,0,0-13.89,13.89c-.86-.42-10.33-4.89-18.52,0-9.29,5.54-10.76,19.42-5.85,26.53A24,24,0,0,0,313.67,168.47Z"/></g></svg>