<svg xmlns="http://www.w3.org/2000/svg" viewBox="0 0 983 269"><defs><style>.cls-1{fill:#fff;}</style></defs><title>Artboard 52 copy 7</title><g id="Layer_2" data-name="Layer 2"><path class="cls-1" d="M646.59,137.81c-4.07-8.75-13.93-14.14-24.68-13.29-1-2.62-9.15-22-30.38-28.48a48,48,0,0,0-32.28,1.9c-22-22.23-53.05-29.65-77.85-19-20,8.58-29.31,26-32.28,32.28a33.81,33.81,0,0,0-17.09,0,34.61,34.61,0,0,0-19,13.29,65.53,65.53,0,0,0-36.08-19c-23.53-3.87-41.25,6.74-45.57,9.5-.23-1-5.64-23.86-26.58-30.38-3.46-1.08-17.38-4.84-30.38,3.79-12.8,8.51-14.9,22.5-15.19,24.69-.72-.34-14.4-6.38-26.58,1.9-9.69,6.58-11.19,17.3-11.4,19-9.08-4-19.34-1.41-24.68,5.7a20.2,20.2,0,0,0-3.73,15.19h-.07c.09,11,6.47,20.24,15.19,22.79,7,2.05,13.29-.91,15.19-1.9a49.11,49.11,0,0,0,17.09,24.68c12.39,9.3,25.57,9.43,32.28,9.5a65.47,65.47,0,0,0,34.18-9.5,77.07,77.07,0,0,0,9.49,3.8,80.82,80.82,0,0,0,28.48,3.8c21.11-1.31,36.63-12.91,41.78-17.09,1.54,2.2,12.32,17.05,32.28,19,22.23,2.16,36.56-13.59,38-15.19a60.1,60.1,0,0,0,20.89,20.88c22.17,12.94,53.3,10.4,64.56,1.9,1.25-.94,4.76-3.85,9.49-3.8,5.3.06,8.9,3.77,11.4,5.7,8.81,6.82,21.37,5.06,30.38,3.8,17.86-2.51,34.57-17.33,43.67-38,3.38,1.86,11.35,5.57,20.89,3.8,12.93-2.4,24.24-14,23-20.19.46-5.75-6-13.1-13.49-15.89a20.84,20.84,0,0,0-20.89,3.8C647.26,155.21,650.7,146.62,646.59,137.81ZM226.66,152.19a18.66,18.66,0,0,0,.3-3c1,.74,2.28,1.66,3.85,2.66Z"/></g></svg>