<svg xmlns="http://www.w3.org/2000/svg" viewBox="0 0 983 269"><defs><style>.cls-1{fill:#fff;}</style></defs><title>Artboard 52 copy 3</title><g id="Layer_2" data-name="Layer 2"><path class="cls-1" d="M405.83,145.3a10.79,10.79,0,0,0-9.27,2.32,15.45,15.45,0,0,0-9.26-5.79c-7.78-1.44-13.41,4.14-13.89,4.63a19,19,0,0,0-11.58-2.32c-5.46.73-12.6,4.32-13.89,10.42-.94,4.47,1.63,8.5,4.45,12.18a20.14,20.14,0,0,0,4.81,15.61A20.58,20.58,0,0,0,378,188.14a29,29,0,0,0,27.79,2.31h9.26c10.62,11.64,24.3,16.81,34.73,12.73a21,21,0,0,0,8.1-5.78c.4.26,5.84,3.72,11.58,1.15a12,12,0,0,0,5.79-5.78c6.24,4.09,13.81,3.95,18.52,0a14.24,14.24,0,0,0,4.63-9.27c8.7,2.62,17.95-.19,23.15-6.94,4.06-5.27,6.08-13.49,2.32-20.84a18.16,18.16,0,0,0-7-7.4,23.49,23.49,0,0,0,1.24-22.7c-4.71-9.48-15.39-14.26-23.15-12.73-5.65,1.11-5.72,4.75-13.9,6.94-3.31.89-7.27,1-15.05,1.16-5.26.11-9.64.07-12.73,0a26.44,26.44,0,0,0-15.05-4.63c-13.71.2-21.37,11.75-22,12.73-6.25,9.8-3.94,20.07-3.47,22A10.73,10.73,0,0,0,405.83,145.3Z"/></g></svg>