<svg xmlns="http://www.w3.org/2000/svg" viewBox="0 0 983 269"><defs><style>.cls-1{fill:#fff;}</style></defs><title>Artboard 52 copy 9</title><g id="Layer_2" data-name="Layer 2"><path class="cls-1" d="M282.25,152.31c7.7,26.26,34.42,34.08,37.64,35,29.19,8,52.12-12,53.78-13.45,2.35,4.36,6.51,10.12,13.44,13.45,13.43,6.46,32.08,1.33,45.71-13.45A95.66,95.66,0,0,0,457,187.27c34.64,13.06,66.94,1.77,78-2.69a55.29,55.29,0,0,0,32.26-5.38c4.79-2.46,19.22-10.82,24.2-26.89,1.27-4.08,3.46-11.13,0-16.13-1.78-2.58-4.66-4-7.77-4.82a14.17,14.17,0,0,0-3-5.93c-3.79-4.38-9.47-4.84-16.13-5.38a54.31,54.31,0,0,0-21.52,2.69c-1.8-8-6-19.84-16.13-29.58C515.67,82.36,502.61,79.42,492,77c-8.92-2-13.33-1.76-32.27-2.69-9.32-.46-23.2-1.26-40.33-2.69-14.17-11.69-27-13.19-32.27-13.45-19.88-1-35.09,11-48.4,21.52a128.57,128.57,0,0,0-21.51,21.51c-12.76-2.82-24.9,2-29.58,10.75C285.72,115.26,276.34,132.19,282.25,152.31Z"/></g></svg>