<svg xmlns="http://www.w3.org/2000/svg" viewBox="0 0 983 269"><defs><style>.cls-1{fill:#fff;}</style></defs><title>Artboard 52 copy 5</title><g id="Layer_2" data-name="Layer 2"><path class="cls-1" d="M572.07,190.79c1.65-1.93,2.45-3.81,1.91-4.89-1.46-2.91-12.61-.13-18.5,1.54,0-.6-.76-11.12-9.25-15.41a16.32,16.32,0,0,0-9.24-1.54,10.1,10.1,0,0,0-4.63-9.25A10.25,10.25,0,0,0,520,162.78a25.21,25.21,0,0,0-35.44-32.36c.27-1.75,2.93-20.21-9.25-30.83C462.13,88.08,442,95,432.19,101.13c-14.28,8.88-18.85,23.44-20,27.74A35.77,35.77,0,0,0,369,144.29a44.64,44.64,0,0,0-46.24,13.87c-17.11-3-29.82,5.48-30.82,13.87-.94,7.75,8.22,14.66,9.24,15.41-1,1.32-7.13,9.27-4.62,16.95,3.21,9.83,18.58,13.27,29.28,9.25,6.76-2.54,10.83-7.76,13.09-11.78,3.6,5.93,10.06,13.37,20.82,16.4,15.12,4.27,27.38-3.39,29.28-4.62a36.73,36.73,0,0,1,10.79,0c7,1.05,10.18,3.66,13.87,4.62,4.78,1.26,12.46.3,24.66-10.78a21.8,21.8,0,0,0,6.17,6.16c11.52,7.55,26.23.73,27.74,0a33.58,33.58,0,0,0,10.79,4.62c21,4.85,39.32-13.1,41.61-15.41,1.1.75,8.89,5.84,18.49,3.08a22.19,22.19,0,0,0,12-8.79l1.2.17c2.55,1.65,10,5.7,17.6,2.46,3.91-1.67,8.49-5.53,7.7-7.71C581.05,190.32,577.19,190.34,572.07,190.79Z"/></g></svg>