<svg xmlns="http://www.w3.org/2000/svg" viewBox="0 0 983 269"><defs><style>.cls-1{fill:#fff;}</style></defs><title>Artboard 52 copy 8</title><g id="Layer_2" data-name="Layer 2"><path class="cls-1" d="M287.82,121.24c-10.61,12.71-7.56,36,5.31,47.8,14,12.83,39.76,12.1,56.9-5.31,4.28,2.65,44.08,26.76,64.49,11.38a23.38,23.38,0,0,0,4.55-4.56c5,6.18,12.7,9.19,19.73,7.59,7.25-1.64,11.2-7.59,12.14-9.1a21.09,21.09,0,0,0,3-9.11,19.71,19.71,0,0,0,15.18,0c4.14,7.21,10.81,11.58,16.69,10.62,4.93-.8,8.65-5.24,10.62-7.58a28.35,28.35,0,0,0,4.55-7.59,13.35,13.35,0,0,0,21.25-1.52,19.27,19.27,0,0,0,13.65,0,19.5,19.5,0,0,0,10.62-10.62,19.83,19.83,0,0,0,1.52-7.59l4.55-3c3.33,8.52,10.72,13.94,18.21,13.66a17.24,17.24,0,0,0,10.62-4.56c5.28,2.07,9.73.74,10.62-1.51.73-1.83-.68-4.74-3-6.07-1.2-1.39-3.83-1.59-6.07,0a9.38,9.38,0,0,0-3-4.56c-3.81-3.05-8.62-1.66-9.11-1.51a14.08,14.08,0,0,0-6.93-6.83,10.68,10.68,0,0,0-8.24-.76c-3.76,1.33-5.55,4.91-6.07,6.07L543.5,125a19.13,19.13,0,0,0-12.14-7.58,18.18,18.18,0,0,0-8.67.74c1.72-3.49.4-7.24-2-8.33a5.08,5.08,0,0,0-4.38.34,5.33,5.33,0,0,0-1.69,1.18,6,6,0,0,0-10.62-4.56c.25-1.39,1.34-8.3-3-13.65a14,14,0,0,0-2.45-2.35c-5.67-4.7-14.45-5.19-20.31-.69a14.4,14.4,0,0,0-3.74,4.32,17.22,17.22,0,0,0-2.27,7.11c0,.06,0,.11,0,.17s0,.12,0,.18,0,.27,0,.36a9.76,9.76,0,0,0-.73-.69l-.07-.06c-.1-.09-.22-.18-.34-.27a9.89,9.89,0,0,0-2.13-1.27l-.15-.07c-.25-.1-.52-.2-.79-.28l-.45-.14-.46-.1c-.23,0-.47-.09-.71-.12a2,2,0,0,1-.24,0,9.73,9.73,0,0,0-7.38,2.58c.55-1.3,1.83-5.09-.2-8.65a9,9,0,0,0-5-4,10.41,10.41,0,0,0-5.62-.55c-4,.75-4.81,3.8-9.1,6.06a21.56,21.56,0,0,1-12.14,1.52c.25-1,2.07-8.79-3-15.17-1.08-1.35-6.42-7.58-13.66-6.07a10.82,10.82,0,0,0-3,1.09l-.1.06c-.24.13-.47.26-.7.41a15.11,15.11,0,0,0-5.28,6l-9.11,3a18.74,18.74,0,0,0-9.1-9.1,19.1,19.1,0,0,0-15.18,0C366,74.64,359.35,67,349.4,66.62c-12-.49-24.12,9.63-27.44,25-.43-.11-9.79-2.35-16.69,4.55s-4.66,16.26-4.55,16.69A27.74,27.74,0,0,0,287.82,121.24Z"/></g></svg>