<svg xmlns="http://www.w3.org/2000/svg" viewBox="0 0 983 321"><defs><style>.cls-1{fill:#fff;}</style></defs><title>Artboard 52 copy 10</title><g id="Layer_2" data-name="Layer 2"><path class="cls-1" d="M691.15,225.17a29.76,29.76,0,0,0-7.49-6.86,30.21,30.21,0,0,0-17.25-4.7c-.18-.73-3.52-13.46-15.69-17.26a23.64,23.64,0,0,0-17.25,1.57,17.29,17.29,0,0,0-6.28-11,17.56,17.56,0,0,0-14.12-3.14c-.2-2.37-2-20.66-17.25-29.8a34.19,34.19,0,0,0-15.69-4.71c1.6-2.91,12.7-24,3.14-47a53.68,53.68,0,0,0-22-25.1l-12.55-9.41c0-1.29-.67-13.43-11-20.4-8.25-5.57-19.38-5.58-28.23,0-4.75-6.64-9.71-9.67-14.12-11-5.75-1.7-9.62-.19-18.83,0a91.57,91.57,0,0,1-18.82-1.56c-.92-.65-10.63-7.22-22-3.14A24.31,24.31,0,0,0,420.13,52c-14.72,3.24-20.75,9.21-23.53,14.12-3.29,5.83-1.6,9.49-6.27,15.68C385,89,379.49,88.39,376.21,94.39c-1.76,3.23-2.95,8.49,0,17.26a12.09,12.09,0,0,0-4.7,7.84c-.87,6.51,4.45,10.78,4.7,11a80.43,80.43,0,0,0-6.84,23.73,65.56,65.56,0,0,0-24.53,15.49c-1.68-.65-22.55-8.28-40.78,4.7-14,10-16.77,25.18-17.26,28.24a24.67,24.67,0,0,0-14.12,6.27,24.33,24.33,0,0,0-6.27,9.41c-12-6.32-26-5.75-36.08,1.57-9.62,7-12,17.52-12.55,20.39a50.35,50.35,0,0,0-40.78,11c-17.72-.5-30.08,3.33-31.37,9.42-2.3,1.89-5.06,4.75-4.71,7.84,1.33,11.84,47,15.77,64.31,17.25a441.25,441.25,0,0,0,89.41-1.56c1.66,2,18.29,21.86,45.49,20.39,24.86-1.35,38.87-19.4,40.79-22,7.66,12.68,21.31,18.84,32.94,15.68,9.24-2.51,14.21-10.09,15.69-12.55a19.29,19.29,0,0,0,14.11,1.57,19,19,0,0,0,9.42-6.27c10.1,4.34,38.58,14.94,70.58,4.7a92.2,92.2,0,0,0,25.1-12.55,76,76,0,0,0,84.71,9.42A33,33,0,0,0,657,285.76a32.21,32.21,0,0,0,15.68-9.41c7.62.53,54.45,3.44,59.61-12.55,2.14-6.64-3.73-14-6.28-17.25C718.36,236.91,705.77,230,691.15,225.17Z"/></g></svg>