<svg xmlns="http://www.w3.org/2000/svg" viewBox="0 0 983 269"><defs><style>.cls-1{fill:#fff;}</style></defs><title>Artboard 52 copy 2</title><g id="Layer_2" data-name="Layer 2"><path class="cls-1" d="M549.53,137.35a12.89,12.89,0,0,0-8.18-3.28c1.82-14.77-4.62-28.93-16.37-36-12.34-7.44-25.37-4-27.84-3.27.49-4.18,3.34-32.87-18-55.67S429,17.31,421.83,17.83c-5.24.38-34.61,2.5-52.39,27.83-12.94,18.45-12,38.15-11.46,44.21-6-.52-15.38-.27-24.55,4.91-7.44,4.19-11.14,9.6-18,19.64-1.94,2.84-3.61,5.28-5,7.45a22.56,22.56,0,0,0-8.1,5.65c-9.9,11-5.26,29.68-3.28,37.66,1.68,6.72,12,44.42,47.48,54,21.28,5.77,39.49-1.86,45.84-4.91a85.48,85.48,0,0,0,81.86,6.55c32.84,18.75,68.12,18.09,86.77,0,10.25-9.94,22.44-31.88,13.1-49.11-6.06-11.18-18.33-15.14-22.92-16.38C554.59,148.73,553.77,141.38,549.53,137.35Z"/></g></svg>