<svg xmlns="http://www.w3.org/2000/svg" viewBox="0 0 983 269"><defs><style>.cls-1{fill:#fff;}</style></defs><title>Artboard 52 copy 4</title><g id="Layer_2" data-name="Layer 2"><path class="cls-1" d="M345.47,145.76c2.43,7.43,20.25,7.75,57.06,7.87,20.19.07,37.55.05,51.15,0,6.13,4.23,18.72,11.59,35.42,11.81,18.75.24,39.66-8.59,39.34-15.74-.1-2.44-2.67-4.46-5.89-6.09,0-1.23-1.37-1.94-9.85-9.65-7.89-7.18-8.77-8.43-11.8-9.84-2.73-1.27-4.79-1.54-13.77-2-14.38-.68-21.65-1-25.58,0A43.05,43.05,0,0,0,445.81,130a76.2,76.2,0,0,0-41.32-2A73.33,73.33,0,0,0,387,134.74c-5.76.38-11.32.78-16.59,1.19h-19a8.82,8.82,0,0,0-2.88,1.87l-1.05.09C346.07,140,344.56,143,345.47,145.76Z"/></g></svg>