<svg xmlns="http://www.w3.org/2000/svg" viewBox="0 0 127.33 233.43"><defs><style>.cls-1{fill:#d48428;}.cls-2{fill:#fdc277;}.cls-3{fill:#231f20;}.cls-4{fill:#f07422;}.cls-5{fill:#fdba40;}.cls-6{fill:#ffc859;}</style></defs><title>SFL</title><g id="Layer_2" data-name="Layer 2"><path class="cls-1" d="M65.62,188.52c-3.81-5.37-12.92-5.45-20.34-.18s-19,5-15.17,10.4l8.9,1.55Z"/><path class="cls-1" d="M69.43,189c3.71-5.43,12.81-5.68,20.33-.55s19.07,4.68,15.36,10.12l-8.87,1.71Z"/><polygon class="cls-2" points="89.19 71.91 51.03 71.91 56.3 40.7 83.92 40.7 89.19 71.91"/><ellipse class="cls-3" cx="63.32" cy="50.78" rx="1.15" ry="2.01"/><ellipse class="cls-3" cx="76.89" cy="50.78" rx="1.15" ry="2.01"/><path class="cls-3" d="M77.58,32.32C79.66,36.59,75,43.12,67.23,46.9S51.44,50.29,49.36,46"/><path class="cls-3" d="M85,43.17c-2,4.29-7.94,5.75-13.22,3.27s-7.91-8-5.89-12.27"/><ellipse class="cls-4" cx="70.11" cy="44.68" rx="13.75" ry="4.32"/><ellipse class="cls-5" cx="70.11" cy="39.5" rx="17.52" ry="6.4"/><ellipse class="cls-6" cx="70.11" cy="33.96" rx="19.19" ry="6.4"/><path class="cls-6" d="M71.31,130.44s-1.7,15-1.82,19.25-4.91,38.49-4.91,38.49H45.15s-.28-16.84-.65-35.45c-.37-18.29,0-18.69,0-24.75s5.86-53.56,5.86-53.56h39.5s5.77,47.44,5.87,51.4a109.07,109.07,0,0,1-.5,17.91c-.37,3.26-6.16,44.85-6.3,44.45H70.54s1.06-35,1.44-39.28c.23-2.5.5-18.62.5-18.62Z"/><path class="cls-1" d="M52.89,73.57l-1.68,8.78S41.46,86,39.65,89.88s-3.92,14.45-3.92,14.45l-8.12-.77s1.21-16.51,6-21.44C39.14,74.32,52.89,73.57,52.89,73.57Z"/><ellipse class="cls-1" cx="31.53" cy="111.47" rx="4.35" ry="5.23" transform="translate(-15.89 5.78) rotate(-8.37)"/><path class="cls-1" d="M88,76.15,85.06,84.6s6.61,8.06,6.25,12.3-3.83,14.47-3.83,14.47l7.42,3.39s7.2-14.9,5.51-21.58C99.53,83.67,88,76.15,88,76.15Z"/><ellipse class="cls-1" cx="87.55" cy="119.65" rx="5.23" ry="4.35" transform="translate(-60.6 114.02) rotate(-51.63)"/></g></svg>