<svg xmlns="http://www.w3.org/2000/svg" viewBox="0 0 127.33 233.43"><defs><style>.cls-1{fill:#d48428;}.cls-2{fill:#fdc277;}.cls-3{fill:#231f20;}.cls-4{fill:#f07422;}.cls-5{fill:#fdba40;}.cls-6{fill:#ffc859;}</style></defs><title>SFL</title><g id="Layer_2" data-name="Layer 2"><path class="cls-1" d="M65.82,188.52c3.81-5.37,12.92-5.45,20.34-.18s19,5,15.17,10.4l-8.9,1.55Z"/><path class="cls-1" d="M62,189c-3.72-5.43-12.82-5.68-20.34-.55s-19.07,4.68-15.36,10.12l8.87,1.71Z"/><polygon class="cls-2" points="42.26 71.91 80.41 71.91 75.15 40.7 47.52 40.7 42.26 71.91"/><ellipse class="cls-3" cx="68.12" cy="50.78" rx="1.15" ry="2.01"/><ellipse class="cls-3" cx="54.55" cy="50.78" rx="1.15" ry="2.01"/><path class="cls-3" d="M53.86,32.32c-2.07,4.27,2.57,10.8,10.36,14.58S80,50.29,82.08,46"/><path class="cls-3" d="M46.47,43.17c2,4.29,7.93,5.75,13.21,3.27s7.92-8,5.9-12.27"/><ellipse class="cls-4" cx="61.33" cy="44.68" rx="13.75" ry="4.32"/><ellipse class="cls-5" cx="61.33" cy="39.5" rx="17.52" ry="6.4"/><ellipse class="cls-6" cx="61.33" cy="33.96" rx="19.19" ry="6.4"/><path class="cls-6" d="M60.13,130.44s1.7,15,1.82,19.25,4.91,38.49,4.91,38.49H86.29s.29-16.84.66-35.45c.36-18.29,0-18.69,0-24.75s-5.86-53.56-5.86-53.56H41.58s-5.77,47.44-5.87,51.4a109.07,109.07,0,0,0,.5,17.91c.38,3.26,6.16,44.85,6.3,44.45h18.4s-1.07-35-1.45-39.28c-.22-2.5-.5-18.62-.5-18.62Z"/><path class="cls-1" d="M78.55,73.57l1.68,8.78S90,86,91.79,89.88s3.92,14.45,3.92,14.45l8.13-.77s-1.21-16.51-6-21.44C92.3,74.32,78.55,73.57,78.55,73.57Z"/><ellipse class="cls-1" cx="99.91" cy="111.47" rx="5.23" ry="4.35" transform="translate(-24.91 194.09) rotate(-81.63)"/><path class="cls-1" d="M43.45,76.15l2.93,8.45s-6.61,8.06-6.24,12.3S44,111.37,44,111.37l-7.43,3.39s-7.2-14.9-5.5-21.58C31.91,83.67,43.45,76.15,43.45,76.15Z"/><ellipse class="cls-1" cx="43.9" cy="119.65" rx="4.35" ry="5.23" transform="translate(-64.79 53.09) rotate(-38.37)"/></g></svg>