<svg xmlns="http://www.w3.org/2000/svg" viewBox="0 0 127.33 233.43"><defs><style>.cls-1{fill:#d48428;}.cls-2{fill:#fdc277;}.cls-3{fill:#231f20;}.cls-4{fill:#f07422;}.cls-5{fill:#fdba40;}.cls-6{fill:#ffc859;}</style></defs><title>SFL_2</title><g id="Layer_2" data-name="Layer 2"><path class="cls-1" d="M63.28,188.52c3.81-5.37,12.92-5.45,20.34-.18s19,5,15.17,10.4l-8.9,1.55Z"/><path class="cls-1" d="M59.48,189c-3.72-5.43-12.82-5.68-20.34-.55s-19.07,4.68-15.36,10.12l8.87,1.71Z"/><polygon class="cls-2" points="39.72 71.91 77.87 71.91 72.61 40.7 44.98 40.7 39.72 71.91"/><ellipse class="cls-3" cx="65.58" cy="50.78" rx="1.15" ry="2.01"/><ellipse class="cls-3" cx="52.01" cy="50.78" rx="1.15" ry="2.01"/><path class="cls-3" d="M51.32,32.32c-2.07,4.27,2.57,10.8,10.36,14.58S77.47,50.29,79.54,46"/><path class="cls-3" d="M43.93,43.17c2,4.29,7.93,5.75,13.21,3.27s7.92-8,5.9-12.27"/><ellipse class="cls-4" cx="58.79" cy="44.68" rx="13.75" ry="4.32"/><ellipse class="cls-5" cx="58.79" cy="39.5" rx="17.52" ry="6.4"/><ellipse class="cls-6" cx="58.79" cy="33.96" rx="19.19" ry="6.4"/><path class="cls-6" d="M57.59,130.44s1.7,15,1.82,19.25,4.91,38.49,4.91,38.49H83.75s.29-16.84.66-35.45c.36-18.29,0-18.69,0-24.75s-5.86-53.56-5.86-53.56H39s-5.77,47.44-5.87,51.4a109.07,109.07,0,0,0,.5,17.91c.38,3.26,6.16,44.85,6.3,44.45h18.4s-1.07-35-1.45-39.28c-.22-2.5-.5-18.62-.5-18.62Z"/><path class="cls-1" d="M76.62,75.25,75.2,84.08s7.91,6.8,8.29,11S82.23,110,82.23,110l7.9,2s4.5-15.92,1.67-22.21C89.29,80.66,76.62,75.25,76.62,75.25Z"/><ellipse class="cls-1" cx="83.73" cy="118.17" rx="5.23" ry="4.35" transform="translate(-60.03 135.7) rotate(-61.63)"/><path class="cls-1" d="M40.91,76.15l2.93,8.45s-6.61,8.06-6.24,12.3,3.83,14.47,3.83,14.47L34,114.76s-7.2-14.9-5.5-21.58C29.37,83.67,40.91,76.15,40.91,76.15Z"/><ellipse class="cls-1" cx="41.36" cy="119.65" rx="4.35" ry="5.23" transform="translate(-65.34 51.51) rotate(-38.37)"/></g></svg>