<svg xmlns="http://www.w3.org/2000/svg" viewBox="0 0 127.33 233.43"><defs><style>.cls-1{fill:#d48428;}.cls-2{fill:#fdc277;}.cls-3{fill:#231f20;}.cls-4{fill:#f07422;}.cls-5{fill:#fdba40;}.cls-6{fill:#ffc859;}</style></defs><title>SFL_2</title><g id="Layer_2" data-name="Layer 2"><path class="cls-1" d="M59.33,188.52c-3.81-5.37-12.92-5.45-20.34-.18s-19,5-15.17,10.4l8.9,1.55Z"/><path class="cls-1" d="M63.13,189c3.72-5.43,12.82-5.68,20.34-.55s19.07,4.68,15.36,10.12L90,200.29Z"/><polygon class="cls-2" points="82.89 71.91 44.74 71.91 50 40.7 77.63 40.7 82.89 71.91"/><ellipse class="cls-3" cx="57.03" cy="50.78" rx="1.15" ry="2.01"/><ellipse class="cls-3" cx="70.6" cy="50.78" rx="1.15" ry="2.01"/><path class="cls-3" d="M71.29,32.32c2.07,4.27-2.57,10.8-10.36,14.58S45.14,50.29,43.07,46"/><path class="cls-3" d="M78.68,43.17c-2,4.29-7.93,5.75-13.21,3.27s-7.92-8-5.9-12.27"/><ellipse class="cls-4" cx="63.81" cy="44.68" rx="13.75" ry="4.32"/><ellipse class="cls-5" cx="63.81" cy="39.5" rx="17.52" ry="6.4"/><ellipse class="cls-6" cx="63.81" cy="33.96" rx="19.19" ry="6.4"/><path class="cls-6" d="M65,130.44s-1.7,15-1.82,19.25-4.91,38.49-4.91,38.49H38.86s-.29-16.84-.66-35.45c-.36-18.29,0-18.69,0-24.75s5.86-53.56,5.86-53.56H83.57s5.77,47.44,5.87,51.4a109.07,109.07,0,0,1-.5,17.91c-.38,3.26-6.16,44.85-6.3,44.45H64.24s1.07-35,1.45-39.28c.22-2.5.5-18.62.5-18.62Z"/><path class="cls-1" d="M46,75.25l1.42,8.83s-7.91,6.8-8.29,11S40.38,110,40.38,110l-7.9,2S28,96.16,30.81,89.87C33.32,80.66,46,75.25,46,75.25Z"/><ellipse class="cls-1" cx="38.88" cy="118.17" rx="4.35" ry="5.23" transform="translate(-51.48 32.66) rotate(-28.37)"/><path class="cls-1" d="M81.7,76.15,78.77,84.6S85.38,92.66,85,96.9s-3.83,14.47-3.83,14.47l7.43,3.39s7.2-14.9,5.5-21.58C93.24,83.67,81.7,76.15,81.7,76.15Z"/><ellipse class="cls-1" cx="81.25" cy="119.65" rx="5.23" ry="4.35" transform="translate(-62.99 109.08) rotate(-51.63)"/></g></svg>