<svg xmlns="http://www.w3.org/2000/svg" viewBox="0 0 127.33 233.43"><defs><style>.cls-1{fill:#d48428;}.cls-2{fill:#fdc277;}.cls-3{fill:#231f20;}.cls-4{fill:#f07422;}.cls-5{fill:#fdba40;}.cls-6{fill:#ffc859;}</style></defs><title>SFL_1</title><g id="Layer_2" data-name="Layer 2"><path class="cls-1" d="M64.15,188.52c3.82-5.37,12.92-5.45,20.34-.18s19,5,15.17,10.4l-8.89,1.55Z"/><path class="cls-1" d="M60.35,189c-3.71-5.43-12.82-5.68-20.33-.55s-19.08,4.68-15.36,10.12l8.87,1.71Z"/><polygon class="cls-2" points="40.59 71.91 78.75 71.91 73.48 40.7 45.85 40.7 40.59 71.91"/><ellipse class="cls-3" cx="66.45" cy="50.78" rx="1.15" ry="2.01"/><ellipse class="cls-3" cx="52.88" cy="50.78" rx="1.15" ry="2.01"/><path class="cls-3" d="M52.19,32.32c-2.07,4.27,2.57,10.8,10.36,14.58S78.34,50.29,80.41,46"/><path class="cls-3" d="M44.8,43.17c2,4.29,7.94,5.75,13.21,3.27s7.92-8,5.9-12.27"/><ellipse class="cls-4" cx="59.67" cy="44.68" rx="13.75" ry="4.32"/><ellipse class="cls-5" cx="59.67" cy="39.5" rx="17.52" ry="6.4"/><ellipse class="cls-6" cx="59.67" cy="33.96" rx="19.19" ry="6.4"/><path class="cls-6" d="M58.46,130.44s1.71,15,1.82,19.25,4.92,38.49,4.92,38.49H84.63s.28-16.84.65-35.45c.37-18.29,0-18.69,0-24.75s-5.86-53.56-5.86-53.56H39.92s-5.77,47.44-5.87,51.4a109.07,109.07,0,0,0,.5,17.91c.37,3.26,6.15,44.85,6.3,44.45H59.24s-1.07-35-1.44-39.28c-.23-2.5-.5-18.62-.5-18.62Z"/><path class="cls-1" d="M77.26,74.39l.14,8.94s9,5.31,10.07,9.42,1.35,14.91,1.35,14.91l8.14.65s1.67-16.47-2.21-22.16C90.68,77.51,77.26,74.39,77.26,74.39Z"/><ellipse class="cls-1" cx="91.72" cy="115.41" rx="5.23" ry="4.35" transform="translate(-46.72 166.09) rotate(-71.63)"/><path class="cls-1" d="M41.78,76.15l2.93,8.45s-6.6,8.06-6.24,12.3,3.83,14.47,3.83,14.47l-7.43,3.39s-7.2-14.9-5.5-21.58C30.25,83.67,41.78,76.15,41.78,76.15Z"/><ellipse class="cls-1" cx="42.23" cy="119.65" rx="4.35" ry="5.23" transform="translate(-65.15 52.05) rotate(-38.37)"/></g></svg>