<svg xmlns="http://www.w3.org/2000/svg" viewBox="0 0 127.33 233.43"><defs><style>.cls-1{fill:#d48428;}.cls-2{fill:#fdc277;}.cls-3{fill:#231f20;}.cls-4{fill:#f07422;}.cls-5{fill:#fdba40;}.cls-6{fill:#ffc859;}</style></defs><title>SFL_4</title><g id="Layer_2" data-name="Layer 2"><path class="cls-1" d="M57.58,188.52c-3.81-5.37-12.92-5.45-20.34-.18s-19,5-15.17,10.4l8.9,1.55Z"/><path class="cls-1" d="M61.39,189c3.71-5.43,12.81-5.68,20.33-.55s19.07,4.68,15.36,10.12l-8.87,1.71Z"/><polygon class="cls-2" points="81.15 71.91 42.99 71.91 48.26 40.7 75.88 40.7 81.15 71.91"/><ellipse class="cls-3" cx="55.28" cy="50.78" rx="1.15" ry="2.01"/><ellipse class="cls-3" cx="68.85" cy="50.78" rx="1.15" ry="2.01"/><path class="cls-3" d="M69.54,32.32C71.61,36.59,67,43.12,59.19,46.9S43.4,50.29,41.32,46"/><path class="cls-3" d="M76.94,43.17c-2,4.29-7.94,5.75-13.22,3.27s-7.92-8-5.9-12.27"/><ellipse class="cls-4" cx="62.07" cy="44.68" rx="13.75" ry="4.32"/><ellipse class="cls-5" cx="62.07" cy="39.5" rx="17.52" ry="6.4"/><ellipse class="cls-6" cx="62.07" cy="33.96" rx="19.19" ry="6.4"/><path class="cls-6" d="M63.27,130.44s-1.7,15-1.82,19.25-4.91,38.49-4.91,38.49H37.11s-.28-16.84-.65-35.45c-.37-18.29,0-18.69,0-24.75s5.86-53.56,5.86-53.56h39.5s5.77,47.44,5.87,51.4a109.07,109.07,0,0,1-.5,17.91c-.38,3.26-6.16,44.85-6.3,44.45H62.5s1.06-35,1.44-39.28c.22-2.5.5-18.62.5-18.62Z"/><path class="cls-1" d="M44.16,76.15l2.93,8.45s-6.6,8.06-6.24,12.3,3.83,14.47,3.83,14.47l-7.43,3.39s-7.2-14.9-5.5-21.58C32.63,83.67,44.16,76.15,44.16,76.15Z"/><ellipse class="cls-1" cx="44.61" cy="119.65" rx="4.35" ry="5.23" transform="translate(-64.63 53.53) rotate(-38.37)"/><path class="cls-1" d="M79.88,75.25l-1.42,8.83s7.9,6.8,8.28,11S85.48,110,85.48,110l7.9,2s4.51-15.92,1.68-22.21C92.54,80.66,79.88,75.25,79.88,75.25Z"/><ellipse class="cls-1" cx="86.99" cy="118.17" rx="5.23" ry="4.35" transform="translate(-58.32 138.56) rotate(-61.63)"/></g></svg>