<svg xmlns="http://www.w3.org/2000/svg" viewBox="0 0 127.33 233.43"><defs><style>.cls-1{fill:#d48428;}.cls-2{fill:#fdc277;}.cls-3{fill:#231f20;}.cls-4{fill:#f07422;}.cls-5{fill:#fdba40;}.cls-6{fill:#ffc859;}</style></defs><title>SFL_5</title><g id="Layer_2" data-name="Layer 2"><path class="cls-1" d="M66.52,188.52c3.81-5.37,12.92-5.45,20.34-.18s19,5,15.17,10.4l-8.9,1.55Z"/><path class="cls-1" d="M62.71,189c-3.71-5.43-12.81-5.68-20.33-.55S23.31,193.14,27,198.58l8.87,1.71Z"/><polygon class="cls-2" points="42.95 71.91 81.11 71.91 75.84 40.7 48.22 40.7 42.95 71.91"/><ellipse class="cls-3" cx="68.82" cy="50.78" rx="1.15" ry="2.01"/><ellipse class="cls-3" cx="55.25" cy="50.78" rx="1.15" ry="2.01"/><path class="cls-3" d="M54.56,32.32c-2.07,4.27,2.56,10.8,10.36,14.58S80.7,50.29,82.78,46"/><path class="cls-3" d="M47.16,43.17c2,4.29,7.94,5.75,13.22,3.27s7.92-8,5.9-12.27"/><ellipse class="cls-4" cx="62.03" cy="44.68" rx="13.75" ry="4.32"/><ellipse class="cls-5" cx="62.03" cy="39.5" rx="17.52" ry="6.4"/><ellipse class="cls-6" cx="62.03" cy="33.96" rx="19.19" ry="6.4"/><path class="cls-6" d="M60.83,130.44s1.7,15,1.82,19.25,4.91,38.49,4.91,38.49H87s.28-16.84.65-35.45c.37-18.29,0-18.69,0-24.75s-5.85-53.56-5.85-53.56H42.28s-5.77,47.44-5.87,51.4a109.07,109.07,0,0,0,.5,17.91c.38,3.26,6.16,44.85,6.3,44.45H61.6s-1.06-35-1.44-39.28c-.22-2.5-.5-18.62-.5-18.62Z"/><path class="cls-1" d="M79.94,76.15,77,84.6s6.6,8.06,6.24,12.3-3.83,14.47-3.83,14.47l7.43,3.39s7.2-14.9,5.5-21.58C91.47,83.67,79.94,76.15,79.94,76.15Z"/><ellipse class="cls-1" cx="79.49" cy="119.65" rx="5.23" ry="4.35" transform="translate(-63.66 107.7) rotate(-51.63)"/><path class="cls-1" d="M44.46,74.39l-.14,8.94s-9,5.31-10.07,9.42-1.35,14.91-1.35,14.91l-8.14.65S23.09,91.84,27,86.15C31,77.51,44.46,74.39,44.46,74.39Z"/><ellipse class="cls-1" cx="30" cy="115.41" rx="4.35" ry="5.23" transform="translate(-34.84 15.34) rotate(-18.37)"/></g></svg>