<svg xmlns="http://www.w3.org/2000/svg" viewBox="0 0 127.33 233.43"><defs><style>.cls-1{fill:#d48428;}.cls-2{fill:#fdc277;}.cls-3{fill:#231f20;}.cls-4{fill:#f07422;}.cls-5{fill:#fdba40;}.cls-6{fill:#ffc859;}</style></defs><title>SFL_6</title><g id="Layer_2" data-name="Layer 2"><path class="cls-1" d="M70.47,188.52c3.81-5.37,12.92-5.45,20.34-.18s19,5,15.17,10.4l-8.9,1.55Z"/><path class="cls-1" d="M66.67,189c-3.72-5.43-12.82-5.68-20.34-.55S27.26,193.14,31,198.58l8.86,1.71Z"/><polygon class="cls-2" points="46.91 71.91 85.06 71.91 79.8 40.7 52.17 40.7 46.91 71.91"/><ellipse class="cls-3" cx="72.77" cy="50.78" rx="1.15" ry="2.01"/><ellipse class="cls-3" cx="59.2" cy="50.78" rx="1.15" ry="2.01"/><path class="cls-3" d="M58.51,32.32c-2.07,4.27,2.57,10.8,10.36,14.58S84.66,50.29,86.73,46"/><path class="cls-3" d="M51.12,43.17c2,4.29,7.93,5.75,13.21,3.27s7.92-8,5.9-12.27"/><ellipse class="cls-4" cx="65.99" cy="44.68" rx="13.75" ry="4.32"/><ellipse class="cls-5" cx="65.99" cy="39.5" rx="17.52" ry="6.4"/><ellipse class="cls-6" cx="65.99" cy="33.96" rx="19.19" ry="6.4"/><path class="cls-6" d="M64.78,130.44s1.7,15,1.82,19.25,4.91,38.49,4.91,38.49H91s.28-16.84.65-35.45c.36-18.29,0-18.69,0-24.75s-5.86-53.56-5.86-53.56H46.23s-5.77,47.44-5.87,51.4a110.18,110.18,0,0,0,.5,17.91c.38,3.26,6.16,44.85,6.3,44.45h18.4s-1.07-35-1.45-39.28c-.22-2.5-.5-18.62-.5-18.62Z"/><path class="cls-1" d="M83.89,76.15,81,84.6s6.61,8.06,6.24,12.3-3.83,14.47-3.83,14.47l7.43,3.39s7.2-14.9,5.5-21.58C95.43,83.67,83.89,76.15,83.89,76.15Z"/><ellipse class="cls-1" cx="83.44" cy="119.65" rx="5.23" ry="4.35" transform="translate(-62.16 110.8) rotate(-51.63)"/><path class="cls-1" d="M48.79,73.57l-1.68,8.78S37.35,86,35.55,89.88s-3.92,14.45-3.92,14.45l-8.13-.77s1.21-16.51,6-21.44C35,74.32,48.79,73.57,48.79,73.57Z"/><ellipse class="cls-1" cx="27.43" cy="111.47" rx="4.35" ry="5.23" transform="translate(-15.93 5.18) rotate(-8.37)"/></g></svg>