<svg xmlns="http://www.w3.org/2000/svg" viewBox="0 0 127.33 233.43"><defs><style>.cls-1{fill:#d48428;}.cls-2{fill:#fdc277;}.cls-3{fill:#231f20;}.cls-4{fill:#f07422;}.cls-5{fill:#fdba40;}.cls-6{fill:#ffc859;}</style></defs><title>SFL_4</title><g id="Layer_2" data-name="Layer 2"><path class="cls-1" d="M61.53,188.52c3.82-5.37,12.92-5.45,20.34-.18s19,5,15.17,10.4l-8.9,1.55Z"/><path class="cls-1" d="M57.73,189c-3.71-5.43-12.82-5.68-20.33-.55S18.32,193.14,22,198.58l8.87,1.71Z"/><polygon class="cls-2" points="37.97 71.91 76.13 71.91 70.86 40.7 43.23 40.7 37.97 71.91"/><ellipse class="cls-3" cx="63.83" cy="50.78" rx="1.15" ry="2.01"/><ellipse class="cls-3" cx="50.26" cy="50.78" rx="1.15" ry="2.01"/><path class="cls-3" d="M49.57,32.32c-2.07,4.27,2.57,10.8,10.36,14.58S75.72,50.29,77.79,46"/><path class="cls-3" d="M42.18,43.17c2,4.29,7.94,5.75,13.21,3.27s7.92-8,5.9-12.27"/><ellipse class="cls-4" cx="57.05" cy="44.68" rx="13.75" ry="4.32"/><ellipse class="cls-5" cx="57.05" cy="39.5" rx="17.52" ry="6.4"/><ellipse class="cls-6" cx="57.05" cy="33.96" rx="19.19" ry="6.4"/><path class="cls-6" d="M55.84,130.44s1.71,15,1.82,19.25,4.92,38.49,4.92,38.49H82s.28-16.84.65-35.45c.36-18.29,0-18.69,0-24.75S76.8,74.42,76.8,74.42H37.3s-5.77,47.44-5.87,51.4a108,108,0,0,0,.5,17.91c.37,3.26,6.15,44.85,6.3,44.45H56.62s-1.07-35-1.44-39.28c-.23-2.5-.5-18.62-.5-18.62Z"/><path class="cls-1" d="M75,76.15,72,84.6s6.61,8.06,6.25,12.3-3.83,14.47-3.83,14.47l7.42,3.39s7.2-14.9,5.51-21.58C86.49,83.67,75,76.15,75,76.15Z"/><ellipse class="cls-1" cx="74.51" cy="119.65" rx="5.23" ry="4.35" transform="translate(-65.55 103.79) rotate(-51.63)"/><path class="cls-1" d="M39.24,75.25l1.42,8.83s-7.91,6.8-8.28,11S33.63,110,33.63,110l-7.9,2s-4.5-15.92-1.67-22.21C26.57,80.66,39.24,75.25,39.24,75.25Z"/><ellipse class="cls-1" cx="32.13" cy="118.17" rx="4.35" ry="5.23" transform="translate(-52.29 29.46) rotate(-28.37)"/></g></svg>