<svg xmlns="http://www.w3.org/2000/svg" viewBox="0 0 127.33 233.43"><defs><style>.cls-1{fill:#d48428;}.cls-2{fill:#fdc277;}.cls-3{fill:#231f20;}.cls-4{fill:#f07422;}.cls-5{fill:#fdba40;}.cls-6{fill:#ffc859;}</style></defs><title>SFL_6</title><g id="Layer_2" data-name="Layer 2"><path class="cls-1" d="M55.47,188.52c-3.82-5.37-12.92-5.45-20.34-.18s-19,5-15.17,10.4l8.89,1.55Z"/><path class="cls-1" d="M59.27,189c3.71-5.43,12.82-5.68,20.33-.55S98.67,193.14,95,198.58l-8.87,1.71Z"/><polygon class="cls-2" points="79.03 71.91 40.87 71.91 46.14 40.7 73.77 40.7 79.03 71.91"/><ellipse class="cls-3" cx="53.17" cy="50.78" rx="1.15" ry="2.01"/><ellipse class="cls-3" cx="66.74" cy="50.78" rx="1.15" ry="2.01"/><path class="cls-3" d="M67.42,32.32c2.08,4.27-2.56,10.8-10.35,14.58S41.28,50.29,39.21,46"/><path class="cls-3" d="M74.82,43.17c-2,4.29-7.94,5.75-13.21,3.27s-7.92-8-5.9-12.27"/><ellipse class="cls-4" cx="59.95" cy="44.68" rx="13.75" ry="4.32"/><ellipse class="cls-5" cx="59.95" cy="39.5" rx="17.52" ry="6.4"/><ellipse class="cls-6" cx="59.95" cy="33.96" rx="19.19" ry="6.4"/><path class="cls-6" d="M61.16,130.44s-1.71,15-1.82,19.25-4.92,38.49-4.92,38.49H35s-.28-16.84-.65-35.45c-.37-18.29,0-18.69,0-24.75S40.2,74.42,40.2,74.42H79.7s5.77,47.44,5.87,51.4a109.07,109.07,0,0,1-.5,17.91c-.37,3.26-6.15,44.85-6.3,44.45H60.38s1.07-35,1.44-39.28c.23-2.5.5-18.62.5-18.62Z"/><path class="cls-1" d="M42.05,76.15,45,84.6s-6.61,8.06-6.25,12.3,3.83,14.47,3.83,14.47l-7.42,3.39s-7.2-14.9-5.51-21.58C30.51,83.67,42.05,76.15,42.05,76.15Z"/><ellipse class="cls-1" cx="42.49" cy="119.65" rx="4.35" ry="5.23" transform="translate(-65.09 52.22) rotate(-38.37)"/><path class="cls-1" d="M77.15,73.57l1.68,8.78S88.58,86,90.39,89.88s3.92,14.45,3.92,14.45l8.13-.77s-1.22-16.51-6-21.44C90.9,74.32,77.15,73.57,77.15,73.57Z"/><ellipse class="cls-1" cx="98.51" cy="111.47" rx="5.23" ry="4.35" transform="translate(-26.11 192.7) rotate(-81.63)"/></g></svg>