<svg xmlns="http://www.w3.org/2000/svg" viewBox="0 0 127.33 233.43"><defs><style>.cls-1{fill:#d48428;}.cls-2{fill:#fdc277;}.cls-3{fill:#231f20;}.cls-4{fill:#f07422;}.cls-5{fill:#fdba40;}.cls-6{fill:#ffc859;}</style></defs><title>SFL_1</title><g id="Layer_2" data-name="Layer 2"><path class="cls-1" d="M60.2,188.52c-3.81-5.37-12.92-5.45-20.34-.18s-19,5-15.17,10.4l8.9,1.55Z"/><path class="cls-1" d="M64,189c3.71-5.43,12.81-5.68,20.33-.55s19.07,4.68,15.36,10.12l-8.87,1.71Z"/><polygon class="cls-2" points="83.77 71.91 45.61 71.91 50.88 40.7 78.5 40.7 83.77 71.91"/><ellipse class="cls-3" cx="57.9" cy="50.78" rx="1.15" ry="2.01"/><ellipse class="cls-3" cx="71.47" cy="50.78" rx="1.15" ry="2.01"/><path class="cls-3" d="M72.16,32.32c2.07,4.27-2.56,10.8-10.35,14.58S46,50.29,43.94,46"/><path class="cls-3" d="M79.56,43.17c-2,4.29-7.94,5.75-13.22,3.27s-7.92-8-5.9-12.27"/><ellipse class="cls-4" cx="64.69" cy="44.68" rx="13.75" ry="4.32"/><ellipse class="cls-5" cx="64.69" cy="39.5" rx="17.52" ry="6.4"/><ellipse class="cls-6" cx="64.69" cy="33.96" rx="19.19" ry="6.4"/><path class="cls-6" d="M65.89,130.44s-1.7,15-1.82,19.25-4.91,38.49-4.91,38.49H39.73s-.28-16.84-.65-35.45c-.37-18.29,0-18.69,0-24.75s5.86-53.56,5.86-53.56h39.5s5.77,47.44,5.87,51.4a109.07,109.07,0,0,1-.5,17.91c-.38,3.26-6.16,44.85-6.3,44.45H65.12s1.06-35,1.44-39.28c.22-2.5.5-18.62.5-18.62Z"/><path class="cls-1" d="M47.09,74.39,47,83.33s-9,5.31-10.07,9.42-1.36,14.91-1.36,14.91l-8.13.65s-1.67-16.47,2.2-22.16C33.68,77.51,47.09,74.39,47.09,74.39Z"/><ellipse class="cls-1" cx="32.64" cy="115.41" rx="4.35" ry="5.23" transform="translate(-34.71 16.17) rotate(-18.37)"/><path class="cls-1" d="M82.57,76.15,79.64,84.6s6.61,8.06,6.25,12.3-3.83,14.47-3.83,14.47l7.42,3.39s7.2-14.9,5.51-21.58C94.11,83.67,82.57,76.15,82.57,76.15Z"/><ellipse class="cls-1" cx="82.13" cy="119.65" rx="5.23" ry="4.35" transform="translate(-62.66 109.77) rotate(-51.63)"/></g></svg>