<svg xmlns="http://www.w3.org/2000/svg" viewBox="0 0 127.33 233.43"><defs><style>.cls-1{fill:#d48428;}.cls-2{fill:#fdc277;}.cls-3{fill:#231f20;}.cls-4{fill:#f07422;}.cls-5{fill:#fdba40;}.cls-6{fill:#ffc859;}</style></defs><title>SFL_3</title><g id="Layer_2" data-name="Layer 2"><path class="cls-1" d="M60.13,188.52c3.82-5.37,12.92-5.45,20.34-.18s19,5,15.17,10.4l-8.9,1.55Z"/><path class="cls-1" d="M56.33,189c-3.71-5.43-12.82-5.68-20.33-.55s-19.08,4.68-15.36,10.12l8.87,1.71Z"/><polygon class="cls-2" points="36.57 71.91 74.73 71.91 69.46 40.7 41.84 40.7 36.57 71.91"/><ellipse class="cls-3" cx="62.43" cy="50.78" rx="1.15" ry="2.01"/><ellipse class="cls-3" cx="48.86" cy="50.78" rx="1.15" ry="2.01"/><path class="cls-3" d="M48.17,32.32c-2.07,4.27,2.57,10.8,10.36,14.58S74.32,50.29,76.39,46"/><path class="cls-3" d="M40.78,43.17c2,4.29,7.94,5.75,13.21,3.27s7.92-8,5.9-12.27"/><ellipse class="cls-4" cx="55.65" cy="44.68" rx="13.75" ry="4.32"/><ellipse class="cls-5" cx="55.65" cy="39.5" rx="17.52" ry="6.4"/><ellipse class="cls-6" cx="55.65" cy="33.96" rx="19.19" ry="6.4"/><path class="cls-6" d="M54.44,130.44s1.71,15,1.82,19.25,4.92,38.49,4.92,38.49H80.61s.28-16.84.65-35.45c.36-18.29,0-18.69,0-24.75S75.4,74.42,75.4,74.42H35.89s-5.77,47.44-5.86,51.4a108,108,0,0,0,.5,17.91c.37,3.26,6.15,44.85,6.3,44.45H55.22s-1.07-35-1.44-39.28c-.23-2.5-.5-18.62-.5-18.62Z"/><path class="cls-1" d="M73.55,76.15,70.62,84.6s6.61,8.06,6.24,12.3S73,111.37,73,111.37l7.42,3.39s7.2-14.9,5.51-21.58C85.09,83.67,73.55,76.15,73.55,76.15Z"/><ellipse class="cls-1" cx="73.11" cy="119.65" rx="5.23" ry="4.35" transform="translate(-66.08 102.7) rotate(-51.63)"/><path class="cls-1" d="M37.76,76.15l2.93,8.45s-6.6,8.06-6.24,12.3,3.83,14.47,3.83,14.47l-7.43,3.39s-7.2-14.9-5.5-21.58C26.22,83.67,37.76,76.15,37.76,76.15Z"/><ellipse class="cls-1" cx="38.21" cy="119.65" rx="4.35" ry="5.23" transform="translate(-66.02 49.56) rotate(-38.37)"/></g></svg>