<svg xmlns="http://www.w3.org/2000/svg" viewBox="0 0 127.33 233.43"><defs><style>.cls-1{fill:#d48428;}.cls-2{fill:#fdc277;}.cls-3{fill:#231f20;}.cls-4{fill:#f07422;}.cls-5{fill:#fdba40;}.cls-6{fill:#ffc859;}</style></defs><title>SFL_5</title><g id="Layer_2" data-name="Layer 2"><path class="cls-1" d="M59,188.52c-3.81-5.37-12.92-5.45-20.34-.18s-19,5-15.17,10.4l8.9,1.55Z"/><path class="cls-1" d="M62.79,189c3.71-5.43,12.81-5.68,20.33-.55s19.07,4.68,15.36,10.12l-8.87,1.71Z"/><polygon class="cls-2" points="82.55 71.91 44.39 71.91 49.66 40.7 77.28 40.7 82.55 71.91"/><ellipse class="cls-3" cx="56.68" cy="50.78" rx="1.15" ry="2.01"/><ellipse class="cls-3" cx="70.25" cy="50.78" rx="1.15" ry="2.01"/><path class="cls-3" d="M70.94,32.32C73,36.59,68.38,43.12,60.59,46.9S44.8,50.29,42.72,46"/><path class="cls-3" d="M78.34,43.17c-2,4.29-7.94,5.75-13.22,3.27s-7.92-8-5.89-12.27"/><ellipse class="cls-4" cx="63.47" cy="44.68" rx="13.75" ry="4.32"/><ellipse class="cls-5" cx="63.47" cy="39.5" rx="17.52" ry="6.4"/><ellipse class="cls-6" cx="63.47" cy="33.96" rx="19.19" ry="6.4"/><path class="cls-6" d="M64.67,130.44s-1.7,15-1.82,19.25-4.91,38.49-4.91,38.49H38.51s-.28-16.84-.65-35.45c-.37-18.29,0-18.69,0-24.75s5.86-53.56,5.86-53.56h39.5s5.77,47.44,5.87,51.4a109.07,109.07,0,0,1-.5,17.91c-.38,3.26-6.16,44.85-6.3,44.45H63.9s1.06-35,1.44-39.28c.22-2.5.5-18.62.5-18.62Z"/><path class="cls-1" d="M45.56,76.15l2.93,8.45s-6.6,8.06-6.24,12.3,3.83,14.47,3.83,14.47l-7.42,3.39s-7.21-14.9-5.51-21.58C34,83.67,45.56,76.15,45.56,76.15Z"/><ellipse class="cls-1" cx="46.01" cy="119.65" rx="4.35" ry="5.23" transform="translate(-64.33 54.4) rotate(-38.37)"/><path class="cls-1" d="M81,74.39l.14,8.94s9,5.31,10.07,9.42,1.36,14.91,1.36,14.91l8.13.65s1.67-16.47-2.21-22.16C94.46,77.51,81,74.39,81,74.39Z"/><ellipse class="cls-1" cx="95.5" cy="115.41" rx="5.23" ry="4.35" transform="translate(-44.13 169.68) rotate(-71.63)"/></g></svg>