<svg xmlns="http://www.w3.org/2000/svg" viewBox="0 0 127.33 233.43"><defs><style>.cls-1{fill:#d48428;}.cls-2{fill:#fdc277;}.cls-3{fill:#231f20;}.cls-4{fill:#f07422;}.cls-5{fill:#fdba40;}.cls-6{fill:#ffc859;}</style></defs><title>SFL_3</title><g id="Layer_2" data-name="Layer 2"><path class="cls-1" d="M56.18,188.52c-3.81-5.37-12.92-5.45-20.34-.18s-19,5-15.17,10.4l8.9,1.55Z"/><path class="cls-1" d="M60,189c3.71-5.43,12.81-5.68,20.33-.55s19.07,4.68,15.36,10.12l-8.87,1.71Z"/><polygon class="cls-2" points="79.75 71.91 41.59 71.91 46.85 40.7 74.48 40.7 79.75 71.91"/><ellipse class="cls-3" cx="53.88" cy="50.78" rx="1.15" ry="2.01"/><ellipse class="cls-3" cx="67.45" cy="50.78" rx="1.15" ry="2.01"/><path class="cls-3" d="M68.14,32.32c2.07,4.27-2.56,10.8-10.36,14.58S42,50.29,39.92,46"/><path class="cls-3" d="M75.54,43.17c-2,4.29-7.94,5.75-13.22,3.27s-7.92-8-5.9-12.27"/><ellipse class="cls-4" cx="60.67" cy="44.68" rx="13.75" ry="4.32"/><ellipse class="cls-5" cx="60.67" cy="39.5" rx="17.52" ry="6.4"/><ellipse class="cls-6" cx="60.67" cy="33.96" rx="19.19" ry="6.4"/><path class="cls-6" d="M61.87,130.44s-1.7,15-1.82,19.25-4.91,38.49-4.91,38.49H35.71s-.29-16.84-.66-35.45c-.36-18.29,0-18.69,0-24.75s5.86-53.56,5.86-53.56H80.42s5.77,47.44,5.87,51.4a109.07,109.07,0,0,1-.5,17.91c-.38,3.26-6.16,44.85-6.3,44.45H61.1s1.06-35,1.44-39.28c.22-2.5.5-18.62.5-18.62Z"/><path class="cls-1" d="M42.76,76.15l2.93,8.45s-6.6,8.06-6.24,12.3,3.83,14.47,3.83,14.47l-7.43,3.39s-7.2-14.9-5.5-21.58C31.23,83.67,42.76,76.15,42.76,76.15Z"/><ellipse class="cls-1" cx="43.21" cy="119.65" rx="4.35" ry="5.23" transform="translate(-64.94 52.66) rotate(-38.37)"/><path class="cls-1" d="M78.55,76.15,75.62,84.6s6.61,8.06,6.25,12.3S78,111.37,78,111.37l7.42,3.39s7.2-14.9,5.51-21.58C90.09,83.67,78.55,76.15,78.55,76.15Z"/><ellipse class="cls-1" cx="78.11" cy="119.65" rx="5.23" ry="4.35" transform="translate(-64.18 106.62) rotate(-51.63)"/></g></svg>