<svg id="sequence" xmlns="http://www.w3.org/2000/svg" viewBox="0 0 147.54 190.93"><defs><style>.cls-1{fill:#d48428;}.cls-2{fill:#fdc277;}.cls-3{fill:#ffc859;}.cls-4{fill:#231f20;}.cls-5{fill:#fdba40;}</style></defs><title>IdleBack</title><ellipse class="cls-1" cx="46.12" cy="99.59" rx="4.35" ry="5.23" transform="translate(-27.05 17.79) rotate(-16.96)"/><path class="cls-1" d="M61.58,58.93l-.35,8.93S52.13,73,50.93,77s-1.72,14.88-1.72,14.88l-8.15.45s-1.27-16.5,2.75-22.1C48.1,61.72,61.58,58.93,61.58,58.93Z"/><path class="cls-1" d="M87.12,58.93l.35,8.93S96.56,73,97.77,77s1.72,14.88,1.72,14.88l8.15.45s1.27-16.5-2.75-22.1C100.6,61.72,87.12,58.93,87.12,58.93Z"/><ellipse class="cls-1" cx="102.57" cy="99.59" rx="5.23" ry="4.35" transform="translate(-22.61 168.64) rotate(-73.04)"/><path class="cls-1" d="M69.65,167.88c-3.81-5.37-12.92-5.45-20.34-.18s-19,5-15.17,10.4l8.9,1.55Z"/><path class="cls-1" d="M73.45,168.38c3.72-5.44,12.82-5.69,20.34-.56s19.07,4.68,15.36,10.12l-8.87,1.71Z"/><polygon class="cls-2" points="93.21 51.27 55.06 51.27 60.32 20.06 87.95 20.06 93.21 51.27"/><path class="cls-3" d="M75.34,109.8s-1.7,15-1.82,19.25-4.91,38.49-4.91,38.49H49.18s-.29-16.83-.66-35.44c-.36-18.3,0-18.7,0-24.76s5.86-53.55,5.86-53.55H93.89s5.77,47.44,5.87,51.39a109.22,109.22,0,0,1-.5,17.92c-.38,3.25-6.16,44.84-6.3,44.44H74.56s1.07-35,1.45-39.28c.22-2.5.5-18.62.5-18.62Z"/><path class="cls-4" d="M89.14,19.72c0,11.31-6.72,20.47-15,20.47s-15-9.16-15-20.47"/><ellipse class="cls-5" cx="74.14" cy="18.86" rx="17.52" ry="6.4"/><ellipse class="cls-3" cx="74.14" cy="13.33" rx="19.19" ry="6.4"/></svg>