<svg id="sequence" xmlns="http://www.w3.org/2000/svg" viewBox="0 0 147.54 190.93"><defs><style>.cls-1{fill:#b76d29;}.cls-2{fill:#d48428;}.cls-3{fill:#fdc277;}.cls-4{fill:#231f20;}.cls-5{fill:#f07422;}.cls-6{fill:#fdba40;}.cls-7{fill:#ffc859;}</style></defs><title>Idle</title><path class="cls-1" d="M64.2,174.63c1.12-6.49,9.29-10.5,18.26-9s19.29-3.67,18.18,2.82l-7.36,5.24Z"/><path class="cls-2" d="M47.76,176.3c1.11-6.49,9.29-10.5,18.26-9s19.29-3.68,18.17,2.81l-7.35,5.24Z"/><polygon class="cls-3" points="88.88 54.62 50.72 54.62 55.98 23.41 83.61 23.41 88.88 54.62"/><ellipse class="cls-4" cx="74" cy="32.79" rx="1.15" ry="2.01"/><ellipse class="cls-4" cx="80.09" cy="32.79" rx="1.15" ry="2.01"/><path class="cls-4" d="M56.5,17.22a10.74,10.74,0,1,1-3.57,21.19"/><ellipse class="cls-5" cx="77.24" cy="25.76" rx="4.32" ry="17.52" transform="translate(43.94 100.06) rotate(-84.3)"/><ellipse class="cls-6" cx="71.1" cy="22.2" rx="17.52" ry="6.4"/><ellipse class="cls-7" cx="71.1" cy="16.67" rx="19.19" ry="6.4"/><path class="cls-7" d="M70.38,134.49l-.6,34L49.86,171.9s-1.92-31.4-2.22-37.06c-.22-4.17-.45-18.09-.45-24.16S50,57.13,50,57.13H89.55c5.18,37.06,3.88,47.2,3.88,47.2S92.05,117,91.22,125,88,169.12,87.85,166.58c0,0-8.56,0-10.31.22s-7.15.63-7.15.63"/><path class="cls-2" d="M58.63,61.13l5,7.44S59.21,78,60.63,82,68,95.1,68,95.1l-6.33,5.14S50.92,87.63,50.89,80.73C49.35,71.31,58.63,61.13,58.63,61.13Z"/><ellipse class="cls-2" cx="69.97" cy="103.13" rx="4.35" ry="5.23" transform="translate(-54.49 96.7) rotate(-52.89)"/></svg>