<svg id="sequence" xmlns="http://www.w3.org/2000/svg" viewBox="0 0 147.54 190.93"><defs><style>.cls-1{fill:#d48428;}.cls-2{fill:#fdc277;}.cls-3{fill:#231f20;}.cls-4{fill:#f07422;}.cls-5{fill:#fdba40;}.cls-6{fill:#ffc859;}</style></defs><title>IdleFront</title><path class="cls-1" d="M68,167.88c-3.81-5.37-12.92-5.45-20.34-.18s-19,5-15.17,10.4l8.9,1.55Z"/><path class="cls-1" d="M71.77,168.38c3.72-5.44,12.82-5.69,20.34-.56s19.07,4.68,15.35,10.12l-8.86,1.71Z"/><polygon class="cls-2" points="91.53 51.27 53.38 51.27 58.64 20.06 86.27 20.06 91.53 51.27"/><ellipse class="cls-3" cx="65.67" cy="30.14" rx="1.15" ry="2.01"/><ellipse class="cls-3" cx="79.24" cy="30.14" rx="1.15" ry="2.01"/><path class="cls-3" d="M79.93,11.68C82,16,77.36,22.48,69.57,26.26s-15.79,3.39-17.86-.87"/><path class="cls-3" d="M87.32,22.53c-2,4.29-7.93,5.76-13.21,3.27s-7.92-8-5.9-12.27"/><ellipse class="cls-4" cx="72.45" cy="24.04" rx="13.75" ry="4.32"/><ellipse class="cls-5" cx="72.45" cy="18.86" rx="17.52" ry="6.4"/><ellipse class="cls-6" cx="72.45" cy="13.33" rx="19.19" ry="6.4"/><path class="cls-6" d="M73.66,109.8s-1.7,15-1.82,19.25-4.91,38.49-4.91,38.49H47.49s-.28-16.83-.65-35.44c-.36-18.3,0-18.7,0-24.76S52.7,53.79,52.7,53.79H92.21s5.77,47.44,5.87,51.39a110.34,110.34,0,0,1-.5,17.92c-.38,3.25-6.16,44.84-6.3,44.44H72.88s1.07-35,1.45-39.28c.22-2.5.5-18.62.5-18.62Z"/><path class="cls-1" d="M54.55,55.51,57.48,64S50.87,72,51.24,76.26s3.83,14.47,3.83,14.47l-7.43,3.39s-7.2-14.89-5.5-21.57C43,63,54.55,55.51,54.55,55.51Z"/><ellipse class="cls-1" cx="55" cy="99.01" rx="4.35" ry="5.23" transform="translate(-49.58 55.52) rotate(-38.37)"/><path class="cls-1" d="M90.34,55.51,87.41,64S94,72,93.65,76.26s-3.83,14.47-3.83,14.47l7.43,3.39s7.2-14.89,5.5-21.57C101.88,63,90.34,55.51,90.34,55.51Z"/><ellipse class="cls-1" cx="89.89" cy="99.01" rx="5.23" ry="4.35" transform="translate(-43.53 108.03) rotate(-51.63)"/></svg>