<svg id="sequence" xmlns="http://www.w3.org/2000/svg" viewBox="0 0 147.54 190.93"><defs><style>.cls-1{fill:#d48428;}.cls-2{fill:#fdc277;}.cls-3{fill:#231f20;}.cls-4{fill:#f07422;}.cls-5{fill:#fdba40;}.cls-6{fill:#ffc859;}</style></defs><title>PullWhistle2</title><path class="cls-1" d="M92.84,67.89l1.22-9.56s14.89,5.23,16.28,4.6c1.15-.51.69-14.81.69-14.81l8.16.27s1.42,12.5-1,23.16C115.87,75.76,92.84,67.89,92.84,67.89Z"/><ellipse class="cls-1" cx="115.6" cy="40.91" rx="4.35" ry="5.23"/><path class="cls-1" d="M71.83,167.88c-3.81-5.37-12.92-5.45-20.34-.18s-19,5-15.17,10.4l8.9,1.55Z"/><path class="cls-1" d="M75.64,168.38c3.71-5.44,12.81-5.69,20.33-.56s19.07,4.68,15.36,10.12l-8.87,1.71Z"/><polygon class="cls-2" points="95.4 51.27 57.24 51.27 62.5 20.06 90.13 20.06 95.4 51.27"/><ellipse class="cls-3" cx="69.53" cy="30.14" rx="1.15" ry="2.01"/><ellipse class="cls-3" cx="83.1" cy="30.14" rx="1.15" ry="2.01"/><path class="cls-3" d="M83.79,11.68c2.07,4.27-2.56,10.8-10.36,14.58s-15.78,3.39-17.86-.87"/><path class="cls-3" d="M91.18,22.53c-2,4.29-7.93,5.76-13.21,3.27s-7.92-8-5.9-12.27"/><ellipse class="cls-4" cx="76.32" cy="24.04" rx="13.75" ry="4.32"/><ellipse class="cls-5" cx="76.32" cy="18.86" rx="17.52" ry="6.4"/><ellipse class="cls-6" cx="76.32" cy="13.33" rx="19.19" ry="6.4"/><path class="cls-6" d="M77.52,109.8s-1.7,15-1.82,19.25-4.91,38.49-4.91,38.49H51.36s-.29-16.83-.66-35.44c-.36-18.3,0-18.7,0-24.76s5.86-53.55,5.86-53.55H96.07s5.77,47.44,5.87,51.39a109.22,109.22,0,0,1-.5,17.92c-.38,3.25-6.16,44.84-6.3,44.44H76.75s1.06-35,1.44-39.28c.22-2.5.5-18.62.5-18.62Z"/><path class="cls-1" d="M58.41,55.51,61.34,64S54.74,72,55.1,76.26s3.83,14.47,3.83,14.47L51.5,94.12S44.3,79.23,46,72.55C46.88,63,58.41,55.51,58.41,55.51Z"/><ellipse class="cls-1" cx="58.86" cy="99.01" rx="4.35" ry="5.23" transform="matrix(0.78, -0.62, 0.62, 0.78, -48.75, 57.92)"/></svg>