<svg id="sequence" xmlns="http://www.w3.org/2000/svg" viewBox="0 0 147.54 190.93"><defs><style>.cls-1{fill:#d48428;}.cls-2{fill:#fdc277;}.cls-3{fill:#231f20;}.cls-4{fill:#f07422;}.cls-5{fill:#fdba40;}.cls-6{fill:#ffc859;}</style></defs><title>PullWhistle1</title><path class="cls-1" d="M90.32,67.89l1.21-9.56,16.29-7.41c1.14-.51.69-17.81.69-17.81l8.16.26s1.42,12.5-1,23.17C113.35,60.75,90.32,67.89,90.32,67.89Z"/><ellipse class="cls-1" cx="113.08" cy="25.9" rx="4.35" ry="5.23"/><path class="cls-1" d="M69.31,167.88c-3.81-5.37-12.92-5.45-20.34-.18s-19,5-15.17,10.4l8.9,1.55Z"/><path class="cls-1" d="M73.11,168.38c3.72-5.44,12.82-5.69,20.34-.56s19.07,4.68,15.36,10.12l-8.87,1.71Z"/><polygon class="cls-2" points="92.87 51.27 54.72 51.27 59.98 20.06 87.61 20.06 92.87 51.27"/><ellipse class="cls-3" cx="67.01" cy="30.14" rx="1.15" ry="2.01"/><ellipse class="cls-3" cx="80.58" cy="30.14" rx="1.15" ry="2.01"/><path class="cls-3" d="M81.27,11.68C83.34,16,78.7,22.48,70.91,26.26s-15.79,3.39-17.86-.87"/><path class="cls-3" d="M88.66,22.53c-2,4.29-7.93,5.76-13.21,3.27s-7.92-8-5.9-12.27"/><ellipse class="cls-4" cx="73.8" cy="24.04" rx="13.75" ry="4.32"/><ellipse class="cls-5" cx="73.8" cy="18.86" rx="17.52" ry="6.4"/><ellipse class="cls-6" cx="73.8" cy="13.33" rx="19.19" ry="6.4"/><path class="cls-6" d="M75,109.8s-1.7,15-1.82,19.25-4.91,38.49-4.91,38.49H48.84s-.29-16.83-.66-35.44c-.36-18.3,0-18.7,0-24.76S54,53.79,54,53.79H93.55s5.77,47.44,5.87,51.39a109.22,109.22,0,0,1-.5,17.92c-.38,3.25-6.16,44.84-6.3,44.44H74.22s1.07-35,1.45-39.28c.22-2.5.5-18.62.5-18.62Z"/><path class="cls-1" d="M55.89,55.51,58.82,64S52.21,72,52.58,76.26s3.83,14.47,3.83,14.47L49,94.12s-7.2-14.89-5.5-21.57C44.35,63,55.89,55.51,55.89,55.51Z"/><ellipse class="cls-1" cx="56.34" cy="99.01" rx="4.35" ry="5.23" transform="translate(-49.29 56.35) rotate(-38.37)"/></svg>