<svg id="sequence" xmlns="http://www.w3.org/2000/svg" viewBox="0 0 147.54 190.93"><defs><style>.cls-1{fill:#d48428;}.cls-2{fill:#fdc277;}.cls-3{fill:#231f20;}.cls-4{fill:#f07422;}.cls-5{fill:#fdba40;}.cls-6{fill:#ffc859;}</style></defs><title>Walk2</title><path class="cls-1" d="M44,176c1.11-6.49,9.29-10.5,18.26-9s19.29-3.68,18.17,2.81l-7.35,5.24Z"/><path class="cls-1" d="M62.27,151.75c5-4.24,13.88-2,19.73,4.94s17.11,9.65,12.07,13.88l-9-.74Z"/><polygon class="cls-2" points="90.44 54.95 52.28 54.95 57.55 23.74 85.17 23.74 90.44 54.95"/><ellipse class="cls-3" cx="75.57" cy="33.12" rx="1.15" ry="2.01"/><ellipse class="cls-3" cx="81.66" cy="33.12" rx="1.15" ry="2.01"/><path class="cls-3" d="M58.06,17.55A10.74,10.74,0,0,1,54.5,38.74"/><ellipse class="cls-4" cx="78.8" cy="26.09" rx="4.32" ry="17.52" transform="translate(45.02 101.92) rotate(-84.3)"/><ellipse class="cls-5" cx="72.66" cy="22.54" rx="17.52" ry="6.4"/><ellipse class="cls-6" cx="72.66" cy="17" rx="19.19" ry="6.4"/><path class="cls-6" d="M74.41,113.58s-3.57,22.92-3.69,27.15S65,168.87,65,168.87L46.4,171.22A160.77,160.77,0,0,0,47.25,136c-1.79-18.22-1.5-18.92-1.5-25s5.86-53.56,5.86-53.56h39.5s8.89,43.25,8.89,47.2,2.35,4.59-.21,20.64c-.52,3.23-16.45,34.26-16.59,33.87l-13.31-8.68S77,130,77.37,125.75c.23-2.5-1.79-12.34-1.79-12.34Z"/><path class="cls-1" d="M53.42,62.48l8.08,3.84s1.09,10.37,4.36,13.09,13,7.44,13,7.44l-2.8,7.67S60.39,89.18,56.83,83.28C50.67,76,53.42,62.48,53.42,62.48Z"/><ellipse class="cls-1" cx="84.69" cy="92.72" rx="4.35" ry="5.23" transform="translate(-16.71 166.79) rotate(-83.74)"/></svg>