<svg id="sequence" xmlns="http://www.w3.org/2000/svg" viewBox="0 0 147.54 190.93"><defs><style>.cls-1{fill:#d48428;}.cls-2{fill:#fdc277;}.cls-3{fill:#231f20;}.cls-4{fill:#f07422;}.cls-5{fill:#fdba40;}.cls-6{fill:#ffc859;}</style></defs><title>Walk3</title><path class="cls-1" d="M75.87,73.06l-5,7.4S60.43,80,57.25,82.79,47.92,94.5,47.92,94.5l-7.15-3.94s7.65-14.66,14-17.29C63,68.3,75.87,73.06,75.87,73.06Z"/><ellipse class="cls-1" cx="41.24" cy="99.38" rx="5.23" ry="4.35" transform="translate(-65.43 113.52) rotate(-75.01)"/><ellipse class="cls-1" cx="108.3" cy="72.87" rx="5.23" ry="4.35" transform="translate(-21.62 85.53) rotate(-39.5)"/><path class="cls-1" d="M20.13,158.64c4.45-4.85,13.49-3.8,20.2,2.35s18.21,7.36,13.76,12.21l-9,.42Z"/><path class="cls-1" d="M105.17,169.16c.48-6.57,8.23-11.35,17.31-10.69s18.84-5.52,18.36,1.05L134,165.44Z"/><polygon class="cls-2" points="94.5 57.3 56.34 57.3 61.61 26.09 89.24 26.09 94.5 57.3"/><ellipse class="cls-3" cx="79.63" cy="35.47" rx="1.15" ry="2.01"/><ellipse class="cls-3" cx="85.72" cy="35.47" rx="1.15" ry="2.01"/><path class="cls-3" d="M62.12,19.9a10.74,10.74,0,1,1-3.56,21.19"/><ellipse class="cls-4" cx="82.87" cy="28.44" rx="4.32" ry="17.52" transform="translate(46.34 108.07) rotate(-84.3)"/><ellipse class="cls-5" cx="76.72" cy="24.88" rx="17.52" ry="6.4"/><ellipse class="cls-6" cx="76.72" cy="19.35" rx="19.19" ry="6.4"/><path class="cls-6" d="M71.22,116.89s1.92,8.53-8.44,26.18-23.16,19.19-23.16,19.19l-18.92-4.8s11.24-3.21,19.2-19.06S49,113.78,49,113.78l6.63-54H95.18l11.23,47.83s5.33,9.57,7.75,16.82c3.32,10,10.8,38.2,10.66,37.8l-19.2,2.88s-1.27-8.13-9.71-27.95C88.62,122.74,82.7,117,82.7,117Z"/><path class="cls-1" d="M64.82,74.18l8.39-3.1s8.19,6.45,12.42,6S100,73,100,73l3.53,7.36S88.81,87.82,82.1,86.25C72.57,85.57,64.82,74.18,64.82,74.18Z"/></svg>