<svg id="sequence" xmlns="http://www.w3.org/2000/svg" viewBox="0 0 147.54 190.93"><defs><style>.cls-1{fill:#d48428;}.cls-2{fill:#fdc277;}.cls-3{fill:#231f20;}.cls-4{fill:#f07422;}.cls-5{fill:#fdba40;}.cls-6{fill:#ffc859;}</style></defs><title>Walk1</title><path class="cls-1" d="M84.75,70.76l8.94.25s5.2,9,9.29,10.19,14.9,1.55,14.9,1.55l.54,8.14s-16.48,1.46-22.13-2.49C87.71,84.21,84.75,70.76,84.75,70.76Z"/><ellipse class="cls-1" cx="125.59" cy="85.74" rx="5.23" ry="4.35" transform="translate(-20.07 42.08) rotate(-17.64)"/><path class="cls-1" d="M17.25,158.64c4.45-4.85,13.5-3.8,20.2,2.35s18.21,7.36,13.76,12.21l-9,.42Z"/><path class="cls-1" d="M102.29,169.16c.48-6.57,8.23-11.35,17.31-10.69S138.44,153,138,159.52l-6.81,5.92Z"/><polygon class="cls-2" points="91.62 57.3 53.47 57.3 58.73 26.09 86.36 26.09 91.62 57.3"/><ellipse class="cls-3" cx="76.75" cy="35.47" rx="1.15" ry="2.01"/><ellipse class="cls-3" cx="82.84" cy="35.47" rx="1.15" ry="2.01"/><path class="cls-3" d="M59.24,19.9a10.74,10.74,0,1,1-3.56,21.19"/><ellipse class="cls-4" cx="79.99" cy="28.44" rx="4.32" ry="17.52" transform="translate(43.75 105.21) rotate(-84.3)"/><ellipse class="cls-5" cx="73.84" cy="24.88" rx="17.52" ry="6.4"/><ellipse class="cls-6" cx="73.84" cy="19.35" rx="19.19" ry="6.4"/><path class="cls-6" d="M68.34,116.89s1.92,8.53-8.44,26.18-23.15,19.19-23.15,19.19l-18.93-4.8S29.07,154.25,37,138.4s9.14-24.62,9.14-24.62l6.63-54H92.3l11.23,47.83s5.33,9.57,7.75,16.82c3.32,10,10.8,38.2,10.66,37.8l-19.2,2.88S101.47,157,93,137.19C85.74,122.74,79.82,117,79.82,117Z"/><path class="cls-1" d="M59.91,65.87,57,74.33s-10.16,2.3-12.48,5.87S38.68,94,38.68,94l-7.94-1.89s3.47-16.17,8.91-20.4C46.19,64.71,59.91,65.87,59.91,65.87Z"/><ellipse class="cls-1" cx="33.54" cy="100.46" rx="4.35" ry="5.23" transform="translate(-0.8 0.27) rotate(-0.46)"/></svg>