<svg xmlns="http://www.w3.org/2000/svg" viewBox="0 0 127.33 233.43"><defs><style>.cls-1{fill:#f9c295;}.cls-2{fill:#7c4f4e;}.cls-3{fill:#2c395c;}.cls-4{fill:#eaeded;}.cls-5{fill:#231f20;}.cls-6{fill:#34353d;}.cls-7{fill:#2e2f35;}.cls-8{fill:#f2f4ef;}</style></defs><title>DFL</title><g id="Layer_2" data-name="Layer 2"><polygon class="cls-1" points="42.26 71.5 80.41 71.5 75.15 40.29 47.52 40.29 42.26 71.5"/><polyline class="cls-2" points="78.55 60.44 75.41 60.44 73.28 42.28 76.22 42.28"/><polyline class="cls-2" points="44.09 60.44 47.24 60.44 49.4 42 46.43 42.28"/><ellipse class="cls-3" cx="61.34" cy="39.09" rx="17.52" ry="6.4"/><ellipse class="cls-3" cx="61.34" cy="31.18" rx="17.52" ry="6.4"/><rect class="cls-3" x="43.81" y="31.18" width="35.04" height="7.91"/><rect class="cls-4" x="57.66" y="31.66" width="4.76" height="0.59" rx="0.3" transform="translate(120.07 63.91) rotate(-180)"/><rect class="cls-4" x="57.66" y="32.72" width="4.76" height="0.59" rx="0.3" transform="translate(120.07 66.02) rotate(-180)"/><path class="cls-4" d="M59,31.52l2.12-.28c.25,0,.41-.19.36-.35h0a.51.51,0,0,0-.55-.22l-2.12.27c-.26,0-.42.19-.37.35h0C58.5,31.45,58.75,31.55,59,31.52Z"/><path class="cls-4" d="M59.08,34.5l2.1-.27c.26,0,.42-.19.37-.35h0a.53.53,0,0,0-.56-.23l-2.1.27c-.25,0-.42.19-.36.35h0C58.58,34.43,58.83,34.53,59.08,34.5Z"/><path class="cls-4" d="M61.52,33.77l-2.18-2.64A.64.64,0,0,0,58.7,31h0c-.23.08-.32.25-.2.4L60.68,34a.66.66,0,0,0,.64.13h0C61.55,34.09,61.64,33.91,61.52,33.77Z"/><ellipse class="cls-5" cx="68.12" cy="50.37" rx="1.15" ry="2.01"/><ellipse class="cls-5" cx="54.55" cy="50.37" rx="1.15" ry="2.01"/><ellipse class="cls-6" cx="61.34" cy="43.55" rx="13.75" ry="5.04"/><path d="M65.82,188.11c3.81-5.37,12.92-5.45,20.34-.18s19,5,15.17,10.4l-8.9,1.55Z"/><path d="M62,188.61c-3.72-5.44-12.82-5.69-20.34-.56s-19.07,4.68-15.36,10.12l8.87,1.71Z"/><path class="cls-3" d="M60.13,130s1.7,15,1.82,19.25,4.91,38.49,4.91,38.49H86.29s.29-16.83.66-35.44c.36-18.3,0-18.7,0-24.76S81.09,74,81.09,74H41.58s-5.77,47.44-5.87,51.39a109.22,109.22,0,0,0,.5,17.92c.38,3.25,6.16,44.84,6.3,44.44h18.4s-1.07-35-1.45-39.28c-.22-2.5-.5-18.62-.5-18.62Z"/><path class="cls-7" d="M78.55,73.16l1.68,8.78S90,85.62,91.79,89.47s3.92,14.46,3.92,14.46l8.13-.78s-1.21-16.5-6-21.44C92.3,73.91,78.55,73.16,78.55,73.16Z"/><ellipse class="cls-1" cx="99.91" cy="111.06" rx="5.23" ry="4.35" transform="translate(-24.51 193.74) rotate(-81.63)"/><path class="cls-7" d="M43.45,75.74l2.93,8.45s-6.61,8.06-6.24,12.3S44,111,44,111l-7.43,3.39S29.34,99.46,31,92.78C31.91,83.27,43.45,75.74,43.45,75.74Z"/><ellipse class="cls-1" cx="43.9" cy="119.24" rx="4.35" ry="5.23" transform="translate(-64.54 53) rotate(-38.37)"/><circle class="cls-8" cx="61.34" cy="105.5" r="1.5"/><circle class="cls-8" cx="61.34" cy="88.5" r="1.5"/></g></svg>