<svg xmlns="http://www.w3.org/2000/svg" viewBox="0 0 127.33 233.43"><defs><style>.cls-1{fill:#f9c295;}.cls-2{fill:#7c4f4e;}.cls-3{fill:#2c395c;}.cls-4{fill:#eaeded;}.cls-5{fill:#231f20;}.cls-6{fill:#34353d;}.cls-7{fill:#2e2f35;}.cls-8{fill:#f2f4ef;}</style></defs><title>DFL</title><g id="Layer_2" data-name="Layer 2"><polygon class="cls-1" points="89.19 71.5 51.03 71.5 56.3 40.29 83.92 40.29 89.19 71.5"/><polyline class="cls-2" points="52.89 60.44 56.03 60.44 58.17 42.28 55.22 42.28"/><polyline class="cls-2" points="87.35 60.44 84.21 60.44 82.04 42 85.02 42.28"/><ellipse class="cls-3" cx="70.11" cy="39.09" rx="17.52" ry="6.4"/><ellipse class="cls-3" cx="70.11" cy="31.18" rx="17.52" ry="6.4"/><rect class="cls-3" x="52.59" y="31.18" width="35.04" height="7.91"/><rect class="cls-4" x="69.03" y="31.66" width="4.76" height="0.59" rx="0.3"/><rect class="cls-4" x="69.03" y="32.72" width="4.76" height="0.59" rx="0.3"/><path class="cls-4" d="M72.44,31.52l-2.12-.28c-.26,0-.42-.19-.37-.35h0a.51.51,0,0,1,.56-.22l2.12.27c.25,0,.41.19.36.35h0C72.94,31.45,72.69,31.55,72.44,31.52Z"/><path class="cls-4" d="M72.36,34.5l-2.1-.27c-.25,0-.42-.19-.36-.35h0c0-.16.3-.26.55-.23l2.1.27c.26,0,.42.19.37.35h0A.53.53,0,0,1,72.36,34.5Z"/><path class="cls-4" d="M69.92,33.77l2.19-2.64a.62.62,0,0,1,.63-.13h0c.23.08.32.25.2.4L70.76,34a.64.64,0,0,1-.63.13h0C69.9,34.09,69.81,33.91,69.92,33.77Z"/><ellipse class="cls-5" cx="63.32" cy="50.37" rx="1.15" ry="2.01"/><ellipse class="cls-5" cx="76.89" cy="50.37" rx="1.15" ry="2.01"/><ellipse class="cls-6" cx="70.11" cy="43.55" rx="13.75" ry="5.04"/><path d="M65.62,188.11c-3.81-5.37-12.92-5.45-20.34-.18s-19,5-15.17,10.4l8.9,1.55Z"/><path d="M69.43,188.61c3.71-5.44,12.81-5.69,20.33-.56s19.07,4.68,15.36,10.12l-8.87,1.71Z"/><path class="cls-3" d="M71.31,130s-1.7,15-1.82,19.25-4.91,38.49-4.91,38.49H45.15s-.28-16.83-.65-35.44c-.37-18.3,0-18.7,0-24.76S50.36,74,50.36,74h39.5s5.77,47.44,5.87,51.39a109.22,109.22,0,0,1-.5,17.92c-.37,3.25-6.16,44.84-6.3,44.44H70.54s1.06-35,1.44-39.28c.23-2.5.5-18.62.5-18.62Z"/><path class="cls-7" d="M52.89,73.16l-1.68,8.78s-9.75,3.68-11.56,7.53-3.92,14.46-3.92,14.46l-8.12-.78s1.21-16.5,6-21.44C39.14,73.91,52.89,73.16,52.89,73.16Z"/><ellipse class="cls-1" cx="31.53" cy="111.06" rx="4.35" ry="5.23" transform="translate(-15.83 5.77) rotate(-8.37)"/><path class="cls-7" d="M88,75.74l-2.94,8.45s6.61,8.06,6.25,12.3S87.48,111,87.48,111l7.42,3.39s7.2-14.89,5.51-21.57C99.53,83.27,88,75.74,88,75.74Z"/><ellipse class="cls-1" cx="87.55" cy="119.24" rx="5.23" ry="4.35" transform="translate(-60.28 113.86) rotate(-51.63)"/><circle class="cls-8" cx="70.11" cy="105.5" r="1.5"/><circle class="cls-8" cx="70.11" cy="88.5" r="1.5"/></g></svg>