<svg xmlns="http://www.w3.org/2000/svg" viewBox="0 0 127.33 233.43"><defs><style>.cls-1{fill:#f9c295;}.cls-2{fill:#7c4f4e;}.cls-3{fill:#2c395c;}.cls-4{fill:#eaeded;}.cls-5{fill:#231f20;}.cls-6{fill:#34353d;}.cls-7{fill:#2e2f35;}.cls-8{fill:#f2f4ef;}</style></defs><title>DFL_4</title><g id="Layer_2" data-name="Layer 2"><polygon class="cls-1" points="37.97 71.5 76.13 71.5 70.86 40.29 43.24 40.29 37.97 71.5"/><polyline class="cls-2" points="74.27 60.44 71.12 60.44 68.99 42.28 71.94 42.28"/><polyline class="cls-2" points="39.81 60.44 42.95 60.44 45.12 42 42.14 42.28"/><ellipse class="cls-3" cx="57.05" cy="39.09" rx="17.52" ry="6.4"/><ellipse class="cls-3" cx="57.05" cy="31.18" rx="17.52" ry="6.4"/><rect class="cls-3" x="39.53" y="31.18" width="35.04" height="7.91"/><rect class="cls-4" x="53.37" y="31.66" width="4.76" height="0.59" rx="0.3" transform="translate(111.5 63.91) rotate(-180)"/><rect class="cls-4" x="53.37" y="32.72" width="4.76" height="0.59" rx="0.3" transform="translate(111.5 66.02) rotate(-180)"/><path class="cls-4" d="M54.72,31.52l2.12-.28c.25,0,.42-.19.37-.35h0a.53.53,0,0,0-.56-.22l-2.12.27c-.25,0-.42.19-.36.35h0C54.22,31.45,54.47,31.55,54.72,31.52Z"/><path class="cls-4" d="M54.8,34.5l2.1-.27c.25,0,.41-.19.36-.35h0c0-.16-.3-.26-.56-.23l-2.09.27c-.26,0-.42.19-.37.35h0C54.29,34.43,54.54,34.53,54.8,34.5Z"/><path class="cls-4" d="M57.23,33.77l-2.18-2.64a.62.62,0,0,0-.63-.13h0c-.23.08-.32.25-.2.4L56.4,34a.64.64,0,0,0,.63.13h0C57.26,34.09,57.35,33.91,57.23,33.77Z"/><ellipse class="cls-5" cx="63.83" cy="50.37" rx="1.15" ry="2.01"/><ellipse class="cls-5" cx="50.26" cy="50.37" rx="1.15" ry="2.01"/><ellipse class="cls-6" cx="57.05" cy="43.55" rx="13.75" ry="5.04"/><path d="M61.53,188.11c3.82-5.37,12.92-5.45,20.34-.18s19,5,15.17,10.4l-8.9,1.55Z"/><path d="M57.73,188.61c-3.71-5.44-12.82-5.69-20.33-.56S18.32,192.73,22,198.17l8.87,1.71Z"/><path class="cls-3" d="M55.84,130s1.71,15,1.82,19.25,4.92,38.49,4.92,38.49H82s.28-16.83.65-35.44c.36-18.3,0-18.7,0-24.76S76.8,74,76.8,74H37.3s-5.77,47.44-5.87,51.39a108.12,108.12,0,0,0,.5,17.92c.37,3.25,6.15,44.84,6.3,44.44H56.62s-1.07-35-1.44-39.28c-.23-2.5-.5-18.62-.5-18.62Z"/><path class="cls-7" d="M75,75.74,72,84.19s6.61,8.06,6.25,12.3S74.44,111,74.44,111l7.42,3.39s7.2-14.89,5.51-21.57C86.49,83.27,75,75.74,75,75.74Z"/><ellipse class="cls-1" cx="74.51" cy="119.24" rx="5.23" ry="4.35" transform="translate(-65.23 103.64) rotate(-51.63)"/><path class="cls-7" d="M39.24,74.85l1.42,8.82s-7.91,6.8-8.28,11,1.25,14.92,1.25,14.92l-7.9,2s-4.5-15.92-1.67-22.2C26.57,80.25,39.24,74.85,39.24,74.85Z"/><ellipse class="cls-1" cx="32.13" cy="117.76" rx="4.35" ry="5.23" transform="translate(-52.1 29.41) rotate(-28.37)"/><circle class="cls-8" cx="57.05" cy="105.5" r="1.5"/><circle class="cls-8" cx="57.05" cy="88.5" r="1.5"/></g></svg>