<svg xmlns="http://www.w3.org/2000/svg" viewBox="0 0 127.33 233.43"><defs><style>.cls-1{fill:#f9c295;}.cls-2{fill:#7c4f4e;}.cls-3{fill:#2c395c;}.cls-4{fill:#eaeded;}.cls-5{fill:#231f20;}.cls-6{fill:#34353d;}.cls-7{fill:#2e2f35;}.cls-8{fill:#f2f4ef;}</style></defs><title>DFL_3</title><g id="Layer_2" data-name="Layer 2"><polygon class="cls-1" points="36.57 71.5 74.73 71.5 69.46 40.29 41.84 40.29 36.57 71.5"/><polyline class="cls-2" points="72.87 60.44 69.72 60.44 67.59 42.28 70.53 42.28"/><polyline class="cls-2" points="38.41 60.44 41.55 60.44 43.72 42 40.74 42.28"/><ellipse class="cls-3" cx="55.65" cy="39.09" rx="17.52" ry="6.4"/><ellipse class="cls-3" cx="55.65" cy="31.18" rx="17.52" ry="6.4"/><rect class="cls-3" x="38.13" y="31.18" width="35.04" height="7.91"/><rect class="cls-4" x="51.97" y="31.66" width="4.76" height="0.59" rx="0.3" transform="translate(108.7 63.91) rotate(-180)"/><rect class="cls-4" x="51.97" y="32.72" width="4.76" height="0.59" rx="0.3" transform="translate(108.7 66.02) rotate(-180)"/><path class="cls-4" d="M53.32,31.52l2.12-.28c.25,0,.42-.19.37-.35h0a.53.53,0,0,0-.56-.22l-2.12.27c-.25,0-.42.19-.37.35h0A.53.53,0,0,0,53.32,31.52Z"/><path class="cls-4" d="M53.4,34.5l2.09-.27c.26,0,.42-.19.37-.35h0c0-.16-.3-.26-.56-.23l-2.09.27c-.26,0-.42.19-.37.35h0C52.89,34.43,53.14,34.53,53.4,34.5Z"/><path class="cls-4" d="M55.83,33.77l-2.18-2.64A.62.62,0,0,0,53,31h0c-.23.08-.32.25-.2.4L55,34a.64.64,0,0,0,.63.13h0C55.86,34.09,56,33.91,55.83,33.77Z"/><ellipse class="cls-5" cx="62.43" cy="50.37" rx="1.15" ry="2.01"/><ellipse class="cls-5" cx="48.86" cy="50.37" rx="1.15" ry="2.01"/><ellipse class="cls-6" cx="55.65" cy="43.55" rx="13.75" ry="5.04"/><path d="M60.13,188.11c3.82-5.37,12.92-5.45,20.34-.18s19,5,15.17,10.4l-8.9,1.55Z"/><path d="M56.33,188.61c-3.71-5.44-12.82-5.69-20.33-.56s-19.08,4.68-15.36,10.12l8.87,1.71Z"/><path class="cls-3" d="M54.44,130s1.71,15,1.82,19.25,4.92,38.49,4.92,38.49H80.61s.28-16.83.65-35.44c.36-18.3,0-18.7,0-24.76S75.4,74,75.4,74H35.89S30.12,121.46,30,125.41a108.12,108.12,0,0,0,.5,17.92c.37,3.25,6.15,44.84,6.3,44.44H55.22s-1.07-35-1.44-39.28c-.23-2.5-.5-18.62-.5-18.62Z"/><path class="cls-7" d="M73.55,75.74l-2.93,8.45s6.61,8.06,6.24,12.3S73,111,73,111l7.42,3.39S87.66,99.46,86,92.78C85.09,83.27,73.55,75.74,73.55,75.74Z"/><ellipse class="cls-1" cx="73.11" cy="119.24" rx="5.23" ry="4.35" transform="translate(-65.76 102.54) rotate(-51.63)"/><path class="cls-7" d="M37.76,75.74l2.93,8.45s-6.6,8.06-6.24,12.3S38.28,111,38.28,111l-7.43,3.39s-7.2-14.89-5.5-21.57C26.22,83.27,37.76,75.74,37.76,75.74Z"/><ellipse class="cls-1" cx="38.21" cy="119.24" rx="4.35" ry="5.23" transform="translate(-65.76 49.47) rotate(-38.37)"/><circle class="cls-8" cx="55.65" cy="105.5" r="1.5"/><circle class="cls-8" cx="55.65" cy="88.5" r="1.5"/></g></svg>