<svg xmlns="http://www.w3.org/2000/svg" viewBox="0 0 127.33 233.43"><defs><style>.cls-1{fill:#f9c295;}.cls-2{fill:#7c4f4e;}.cls-3{fill:#2c395c;}.cls-4{fill:#eaeded;}.cls-5{fill:#231f20;}.cls-6{fill:#34353d;}.cls-7{fill:#2e2f35;}.cls-8{fill:#f2f4ef;}</style></defs><title>DFL_3</title><g id="Layer_2" data-name="Layer 2"><polygon class="cls-1" points="79.75 71.5 41.59 71.5 46.85 40.29 74.48 40.29 79.75 71.5"/><polyline class="cls-2" points="43.45 60.44 46.59 60.44 48.73 42.28 45.78 42.28"/><polyline class="cls-2" points="77.91 60.44 74.77 60.44 72.6 42 75.58 42.28"/><ellipse class="cls-3" cx="60.67" cy="39.09" rx="17.52" ry="6.4"/><ellipse class="cls-3" cx="60.67" cy="31.18" rx="17.52" ry="6.4"/><rect class="cls-3" x="43.14" y="31.18" width="35.04" height="7.91"/><rect class="cls-4" x="59.58" y="31.66" width="4.76" height="0.59" rx="0.3"/><rect class="cls-4" x="59.58" y="32.72" width="4.76" height="0.59" rx="0.3"/><path class="cls-4" d="M63,31.52l-2.11-.28c-.26,0-.42-.19-.37-.35h0a.51.51,0,0,1,.56-.22l2.12.27c.25,0,.41.19.36.35h0C63.5,31.45,63.25,31.55,63,31.52Z"/><path class="cls-4" d="M62.92,34.5l-2.1-.27c-.25,0-.42-.19-.36-.35h0c0-.16.3-.26.55-.23l2.1.27c.25,0,.42.19.37.35h0A.53.53,0,0,1,62.92,34.5Z"/><path class="cls-4" d="M60.48,33.77l2.18-2.64A.64.64,0,0,1,63.3,31h0c.23.08.32.25.2.4L61.32,34a.64.64,0,0,1-.63.13h0C60.46,34.09,60.36,33.91,60.48,33.77Z"/><ellipse class="cls-5" cx="53.88" cy="50.37" rx="1.15" ry="2.01"/><ellipse class="cls-5" cx="67.45" cy="50.37" rx="1.15" ry="2.01"/><ellipse class="cls-6" cx="60.67" cy="43.55" rx="13.75" ry="5.04"/><path d="M56.18,188.11c-3.81-5.37-12.92-5.45-20.34-.18s-19,5-15.17,10.4l8.9,1.55Z"/><path d="M60,188.61c3.71-5.44,12.81-5.69,20.33-.56s19.07,4.68,15.36,10.12l-8.87,1.71Z"/><path class="cls-3" d="M61.87,130s-1.7,15-1.82,19.25-4.91,38.49-4.91,38.49H35.71s-.29-16.83-.66-35.44c-.36-18.3,0-18.7,0-24.76S40.91,74,40.91,74H80.42s5.77,47.44,5.87,51.39a109.22,109.22,0,0,1-.5,17.92c-.38,3.25-6.16,44.84-6.3,44.44H61.1s1.06-35,1.44-39.28c.22-2.5.5-18.62.5-18.62Z"/><path class="cls-7" d="M42.76,75.74l2.93,8.45s-6.6,8.06-6.24,12.3S43.28,111,43.28,111l-7.43,3.39s-7.2-14.89-5.5-21.57C31.23,83.27,42.76,75.74,42.76,75.74Z"/><ellipse class="cls-1" cx="43.21" cy="119.24" rx="4.35" ry="5.23" transform="translate(-64.68 52.57) rotate(-38.37)"/><path class="cls-7" d="M78.55,75.74l-2.93,8.45s6.61,8.06,6.25,12.3S78,111,78,111l7.42,3.39S92.66,99.46,91,92.78C90.09,83.27,78.55,75.74,78.55,75.74Z"/><ellipse class="cls-1" cx="78.11" cy="119.24" rx="5.23" ry="4.35" transform="translate(-63.86 106.46) rotate(-51.63)"/><circle class="cls-8" cx="60.67" cy="105.5" r="1.5"/><circle class="cls-8" cx="60.67" cy="88.5" r="1.5"/></g></svg>