<svg xmlns="http://www.w3.org/2000/svg" viewBox="0 0 127.33 233.43"><defs><style>.cls-1{fill:#f9c295;}.cls-2{fill:#7c4f4e;}.cls-3{fill:#2c395c;}.cls-4{fill:#eaeded;}.cls-5{fill:#231f20;}.cls-6{fill:#34353d;}.cls-7{fill:#2e2f35;}.cls-8{fill:#f2f4ef;}</style></defs><title>DFL_6</title><g id="Layer_2" data-name="Layer 2"><polygon class="cls-1" points="46.91 71.5 85.06 71.5 79.8 40.29 52.17 40.29 46.91 71.5"/><polyline class="cls-2" points="83.2 60.44 80.06 60.44 77.93 42.28 80.87 42.28"/><polyline class="cls-2" points="48.75 60.44 51.89 60.44 54.05 42 51.08 42.28"/><ellipse class="cls-3" cx="65.99" cy="39.09" rx="17.52" ry="6.4"/><ellipse class="cls-3" cx="65.99" cy="31.18" rx="17.52" ry="6.4"/><rect class="cls-3" x="48.46" y="31.18" width="35.04" height="7.91"/><rect class="cls-4" x="62.31" y="31.66" width="4.76" height="0.59" rx="0.3" transform="translate(129.38 63.91) rotate(-180)"/><rect class="cls-4" x="62.31" y="32.72" width="4.76" height="0.59" rx="0.3" transform="translate(129.38 66.02) rotate(-180)"/><path class="cls-4" d="M63.66,31.52l2.12-.28c.25,0,.42-.19.36-.35h0a.51.51,0,0,0-.55-.22l-2.12.27c-.26,0-.42.19-.37.35h0A.53.53,0,0,0,63.66,31.52Z"/><path class="cls-4" d="M63.73,34.5l2.1-.27c.26,0,.42-.19.37-.35h0c0-.16-.3-.26-.56-.23l-2.1.27c-.25,0-.41.19-.36.35h0C63.23,34.43,63.48,34.53,63.73,34.5Z"/><path class="cls-4" d="M66.17,33.77,64,31.13a.62.62,0,0,0-.63-.13h0c-.23.08-.33.25-.21.4L65.33,34a.66.66,0,0,0,.64.13h0C66.2,34.09,66.29,33.91,66.17,33.77Z"/><ellipse class="cls-5" cx="72.77" cy="50.37" rx="1.15" ry="2.01"/><ellipse class="cls-5" cx="59.2" cy="50.37" rx="1.15" ry="2.01"/><ellipse class="cls-6" cx="65.99" cy="43.55" rx="13.75" ry="5.04"/><path d="M70.47,188.11c3.81-5.37,12.92-5.45,20.34-.18s19,5,15.17,10.4l-8.9,1.55Z"/><path d="M66.67,188.61c-3.72-5.44-12.82-5.69-20.34-.56S27.26,192.73,31,198.17l8.86,1.71Z"/><path class="cls-3" d="M64.78,130s1.7,15,1.82,19.25,4.91,38.49,4.91,38.49H91s.28-16.83.65-35.44c.36-18.3,0-18.7,0-24.76S85.74,74,85.74,74H46.23s-5.77,47.44-5.87,51.39a110.34,110.34,0,0,0,.5,17.92c.38,3.25,6.16,44.84,6.3,44.44h18.4s-1.07-35-1.45-39.28c-.22-2.5-.5-18.62-.5-18.62Z"/><path class="cls-7" d="M83.89,75.74,81,84.19s6.61,8.06,6.24,12.3S83.37,111,83.37,111l7.43,3.39S98,99.46,96.3,92.78C95.43,83.27,83.89,75.74,83.89,75.74Z"/><ellipse class="cls-1" cx="83.44" cy="119.24" rx="5.23" ry="4.35" transform="translate(-61.84 110.65) rotate(-51.63)"/><path class="cls-7" d="M48.79,73.16l-1.68,8.78s-9.76,3.68-11.56,7.53-3.92,14.46-3.92,14.46l-8.13-.78s1.21-16.5,6-21.44C35,73.91,48.79,73.16,48.79,73.16Z"/><ellipse class="cls-1" cx="27.43" cy="111.06" rx="4.35" ry="5.23" transform="translate(-15.87 5.18) rotate(-8.37)"/><circle class="cls-8" cx="65.99" cy="105.5" r="1.5"/><circle class="cls-8" cx="65.99" cy="88.5" r="1.5"/></g></svg>