<svg xmlns="http://www.w3.org/2000/svg" viewBox="0 0 127.33 233.43"><defs><style>.cls-1{fill:#f9c295;}.cls-2{fill:#7c4f4e;}.cls-3{fill:#2c395c;}.cls-4{fill:#eaeded;}.cls-5{fill:#231f20;}.cls-6{fill:#34353d;}.cls-7{fill:#2e2f35;}.cls-8{fill:#f2f4ef;}</style></defs><title>DFL_1</title><g id="Layer_2" data-name="Layer 2"><polygon class="cls-1" points="83.77 71.5 45.61 71.5 50.87 40.29 78.5 40.29 83.77 71.5"/><polyline class="cls-2" points="47.47 60.44 50.61 60.44 52.74 42.28 49.8 42.28"/><polyline class="cls-2" points="81.93 60.44 78.79 60.44 76.62 42 79.6 42.28"/><ellipse class="cls-3" cx="64.69" cy="39.09" rx="17.52" ry="6.4"/><ellipse class="cls-3" cx="64.69" cy="31.18" rx="17.52" ry="6.4"/><rect class="cls-3" x="47.16" y="31.18" width="35.04" height="7.91"/><rect class="cls-4" x="63.6" y="31.66" width="4.76" height="0.59" rx="0.3"/><rect class="cls-4" x="63.6" y="32.72" width="4.76" height="0.59" rx="0.3"/><path class="cls-4" d="M67,31.52l-2.11-.28c-.26,0-.42-.19-.37-.35h0a.51.51,0,0,1,.56-.22l2.12.27c.25,0,.41.19.36.35h0C67.52,31.45,67.27,31.55,67,31.52Z"/><path class="cls-4" d="M66.94,34.5l-2.1-.27c-.25,0-.42-.19-.36-.35h0c0-.16.3-.26.55-.23l2.1.27c.25,0,.42.19.37.35h0A.53.53,0,0,1,66.94,34.5Z"/><path class="cls-4" d="M64.5,33.77l2.18-2.64a.64.64,0,0,1,.64-.13h0c.23.08.32.25.2.4L65.34,34a.64.64,0,0,1-.63.13h0C64.48,34.09,64.39,33.91,64.5,33.77Z"/><ellipse class="cls-5" cx="57.9" cy="50.37" rx="1.15" ry="2.01"/><ellipse class="cls-5" cx="71.47" cy="50.37" rx="1.15" ry="2.01"/><ellipse class="cls-6" cx="64.69" cy="43.55" rx="13.75" ry="5.04"/><path d="M60.2,188.11c-3.81-5.37-12.92-5.45-20.34-.18s-19,5-15.17,10.4l8.9,1.55Z"/><path d="M64,188.61c3.71-5.44,12.81-5.69,20.33-.56s19.07,4.68,15.36,10.12l-8.87,1.71Z"/><path class="cls-3" d="M65.89,130s-1.7,15-1.82,19.25-4.91,38.49-4.91,38.49H39.73s-.28-16.83-.65-35.44c-.37-18.3,0-18.7,0-24.76S44.94,74,44.94,74h39.5s5.77,47.44,5.87,51.39a109.22,109.22,0,0,1-.5,17.92c-.38,3.25-6.16,44.84-6.3,44.44H65.12s1.06-35,1.44-39.28c.22-2.5.5-18.62.5-18.62Z"/><path class="cls-7" d="M47.09,74,47,82.92s-9,5.31-10.07,9.42-1.36,14.91-1.36,14.91l-8.13.65s-1.67-16.46,2.2-22.16C33.68,77.1,47.09,74,47.09,74Z"/><ellipse class="cls-1" cx="32.64" cy="115.01" rx="4.35" ry="5.23" transform="translate(-34.58 16.15) rotate(-18.37)"/><path class="cls-7" d="M82.57,75.74l-2.93,8.45s6.61,8.06,6.25,12.3S82.06,111,82.06,111l7.42,3.39S96.68,99.46,95,92.78C94.11,83.27,82.57,75.74,82.57,75.74Z"/><ellipse class="cls-1" cx="82.13" cy="119.24" rx="5.23" ry="4.35" transform="translate(-62.34 109.61) rotate(-51.63)"/><circle class="cls-8" cx="64.69" cy="105.5" r="1.5"/><circle class="cls-8" cx="64.69" cy="88.5" r="1.5"/></g></svg>