<svg xmlns="http://www.w3.org/2000/svg" viewBox="0 0 127.33 233.43"><defs><style>.cls-1{fill:#f9c295;}.cls-2{fill:#7c4f4e;}.cls-3{fill:#2c395c;}.cls-4{fill:#eaeded;}.cls-5{fill:#231f20;}.cls-6{fill:#34353d;}.cls-7{fill:#2e2f35;}.cls-8{fill:#f2f4ef;}</style></defs><title>DFL_2</title><g id="Layer_2" data-name="Layer 2"><polygon class="cls-1" points="39.72 71.5 77.87 71.5 72.61 40.29 44.98 40.29 39.72 71.5"/><polyline class="cls-2" points="76.01 60.44 72.87 60.44 70.74 42.28 73.68 42.28"/><polyline class="cls-2" points="41.55 60.44 44.7 60.44 46.86 42 43.89 42.28"/><ellipse class="cls-3" cx="58.8" cy="39.09" rx="17.52" ry="6.4"/><ellipse class="cls-3" cx="58.8" cy="31.18" rx="17.52" ry="6.4"/><rect class="cls-3" x="41.27" y="31.18" width="35.04" height="7.91"/><rect class="cls-4" x="55.12" y="31.66" width="4.76" height="0.59" rx="0.3" transform="translate(114.99 63.91) rotate(-180)"/><rect class="cls-4" x="55.12" y="32.72" width="4.76" height="0.59" rx="0.3" transform="translate(114.99 66.02) rotate(-180)"/><path class="cls-4" d="M56.47,31.52l2.12-.28c.25,0,.42-.19.36-.35h0a.51.51,0,0,0-.55-.22l-2.12.27c-.26,0-.42.19-.37.35h0C56,31.45,56.22,31.55,56.47,31.52Z"/><path class="cls-4" d="M56.54,34.5l2.1-.27c.26,0,.42-.19.37-.35h0a.53.53,0,0,0-.56-.23l-2.1.27c-.25,0-.42.19-.36.35h0C56,34.43,56.29,34.53,56.54,34.5Z"/><path class="cls-4" d="M59,33.77,56.8,31.13a.64.64,0,0,0-.64-.13h0c-.23.08-.32.25-.2.4L58.14,34a.66.66,0,0,0,.64.13h0C59,34.09,59.1,33.91,59,33.77Z"/><ellipse class="cls-5" cx="65.58" cy="50.37" rx="1.15" ry="2.01"/><ellipse class="cls-5" cx="52.01" cy="50.37" rx="1.15" ry="2.01"/><ellipse class="cls-6" cx="58.8" cy="43.55" rx="13.75" ry="5.04"/><path d="M63.28,188.11c3.81-5.37,12.92-5.45,20.34-.18s19,5,15.17,10.4l-8.9,1.55Z"/><path d="M59.48,188.61c-3.72-5.44-12.82-5.69-20.34-.56s-19.07,4.68-15.36,10.12l8.87,1.71Z"/><path class="cls-3" d="M57.59,130s1.7,15,1.82,19.25,4.91,38.49,4.91,38.49H83.75s.29-16.83.66-35.44c.36-18.3,0-18.7,0-24.76S78.55,74,78.55,74H39s-5.77,47.44-5.87,51.39a109.22,109.22,0,0,0,.5,17.92c.38,3.25,6.16,44.84,6.3,44.44h18.4s-1.07-35-1.45-39.28c-.22-2.5-.5-18.62-.5-18.62Z"/><path class="cls-7" d="M76.62,74.85,75.2,83.67s7.91,6.8,8.29,11-1.26,14.92-1.26,14.92l7.9,2s4.5-15.92,1.67-22.2C89.29,80.25,76.62,74.85,76.62,74.85Z"/><ellipse class="cls-1" cx="83.73" cy="117.76" rx="5.23" ry="4.35" transform="translate(-59.67 135.48) rotate(-61.63)"/><path class="cls-7" d="M40.91,75.74l2.93,8.45s-6.61,8.06-6.24,12.3S41.43,111,41.43,111L34,114.35s-7.2-14.89-5.5-21.57C29.37,83.27,40.91,75.74,40.91,75.74Z"/><ellipse class="cls-1" cx="41.36" cy="119.24" rx="4.35" ry="5.23" transform="matrix(0.78, -0.62, 0.62, 0.78, -65.08, 51.42)"/><circle class="cls-8" cx="58.8" cy="105.5" r="1.5"/><circle class="cls-8" cx="58.8" cy="88.5" r="1.5"/></g></svg>