<svg xmlns="http://www.w3.org/2000/svg" viewBox="0 0 127.33 233.43"><defs><style>.cls-1{fill:#f9c295;}.cls-2{fill:#7c4f4e;}.cls-3{fill:#2c395c;}.cls-4{fill:#eaeded;}.cls-5{fill:#231f20;}.cls-6{fill:#34353d;}.cls-7{fill:#2e2f35;}.cls-8{fill:#f2f4ef;}</style></defs><title>DFL_4</title><g id="Layer_2" data-name="Layer 2"><polygon class="cls-1" points="81.14 71.5 42.99 71.5 48.25 40.29 75.88 40.29 81.14 71.5"/><polyline class="cls-2" points="44.85 60.44 47.99 60.44 50.13 42.28 47.18 42.28"/><polyline class="cls-2" points="79.31 60.44 76.17 60.44 74 42 76.98 42.28"/><ellipse class="cls-3" cx="62.07" cy="39.09" rx="17.52" ry="6.4"/><ellipse class="cls-3" cx="62.07" cy="31.18" rx="17.52" ry="6.4"/><rect class="cls-3" x="44.54" y="31.18" width="35.04" height="7.91"/><rect class="cls-4" x="60.98" y="31.66" width="4.76" height="0.59" rx="0.3"/><rect class="cls-4" x="60.98" y="32.72" width="4.76" height="0.59" rx="0.3"/><path class="cls-4" d="M64.39,31.52l-2.11-.28c-.26,0-.42-.19-.37-.35h0a.51.51,0,0,1,.56-.22l2.12.27c.25,0,.41.19.36.35h0C64.9,31.45,64.65,31.55,64.39,31.52Z"/><path class="cls-4" d="M64.32,34.5l-2.1-.27c-.25,0-.42-.19-.36-.35h0c0-.16.3-.26.55-.23l2.1.27c.25,0,.42.19.37.35h0A.53.53,0,0,1,64.32,34.5Z"/><path class="cls-4" d="M61.88,33.77l2.18-2.64A.64.64,0,0,1,64.7,31h0c.23.08.32.25.2.4L62.72,34a.64.64,0,0,1-.63.13h0C61.86,34.09,61.76,33.91,61.88,33.77Z"/><ellipse class="cls-5" cx="55.28" cy="50.37" rx="1.15" ry="2.01"/><ellipse class="cls-5" cx="68.85" cy="50.37" rx="1.15" ry="2.01"/><ellipse class="cls-6" cx="62.07" cy="43.55" rx="13.75" ry="5.04"/><path d="M57.58,188.11c-3.81-5.37-12.92-5.45-20.34-.18s-19,5-15.17,10.4l8.9,1.55Z"/><path d="M61.39,188.61c3.71-5.44,12.81-5.69,20.33-.56s19.07,4.68,15.36,10.12l-8.87,1.71Z"/><path class="cls-3" d="M63.27,130s-1.7,15-1.82,19.25-4.91,38.49-4.91,38.49H37.11s-.28-16.83-.65-35.44c-.37-18.3,0-18.7,0-24.76S42.32,74,42.32,74h39.5s5.77,47.44,5.87,51.39a109.22,109.22,0,0,1-.5,17.92c-.38,3.25-6.16,44.84-6.3,44.44H62.5s1.06-35,1.44-39.28c.22-2.5.5-18.62.5-18.62Z"/><path class="cls-7" d="M44.16,75.74l2.93,8.45s-6.6,8.06-6.24,12.3S44.68,111,44.68,111l-7.43,3.39s-7.2-14.89-5.5-21.57C32.63,83.27,44.16,75.74,44.16,75.74Z"/><ellipse class="cls-1" cx="44.61" cy="119.24" rx="4.35" ry="5.23" transform="translate(-64.38 53.44) rotate(-38.37)"/><path class="cls-7" d="M79.88,74.85l-1.42,8.82s7.9,6.8,8.28,11-1.26,14.92-1.26,14.92l7.9,2s4.51-15.92,1.68-22.2C92.54,80.25,79.88,74.85,79.88,74.85Z"/><ellipse class="cls-1" cx="86.99" cy="117.76" rx="5.23" ry="4.35" transform="translate(-57.96 138.35) rotate(-61.63)"/><circle class="cls-8" cx="62.07" cy="105.5" r="1.5"/><circle class="cls-8" cx="62.07" cy="88.5" r="1.5"/></g></svg>