<svg xmlns="http://www.w3.org/2000/svg" viewBox="0 0 127.33 233.43"><defs><style>.cls-1{fill:#f9c295;}.cls-2{fill:#7c4f4e;}.cls-3{fill:#2c395c;}.cls-4{fill:#eaeded;}.cls-5{fill:#231f20;}.cls-6{fill:#34353d;}.cls-7{fill:#2e2f35;}.cls-8{fill:#f2f4ef;}</style></defs><title>DFL_1</title><g id="Layer_2" data-name="Layer 2"><polygon class="cls-1" points="40.59 71.5 78.75 71.5 73.48 40.29 45.86 40.29 40.59 71.5"/><polyline class="cls-2" points="76.89 60.44 73.74 60.44 71.61 42.28 74.56 42.28"/><polyline class="cls-2" points="42.43 60.44 45.57 60.44 47.73 42 44.76 42.28"/><ellipse class="cls-3" cx="59.67" cy="39.09" rx="17.52" ry="6.4"/><ellipse class="cls-3" cx="59.67" cy="31.18" rx="17.52" ry="6.4"/><rect class="cls-3" x="42.15" y="31.18" width="35.04" height="7.91"/><rect class="cls-4" x="55.99" y="31.66" width="4.76" height="0.59" rx="0.3" transform="translate(116.74 63.91) rotate(-180)"/><rect class="cls-4" x="55.99" y="32.72" width="4.76" height="0.59" rx="0.3" transform="translate(116.74 66.02) rotate(-180)"/><path class="cls-4" d="M57.34,31.52l2.12-.28c.25,0,.42-.19.37-.35h0a.53.53,0,0,0-.56-.22l-2.12.27c-.25,0-.42.19-.36.35h0C56.84,31.45,57.09,31.55,57.34,31.52Z"/><path class="cls-4" d="M57.42,34.5l2.1-.27c.25,0,.41-.19.36-.35h0c-.05-.16-.3-.26-.56-.23l-2.09.27c-.26,0-.42.19-.37.35h0C56.91,34.43,57.16,34.53,57.42,34.5Z"/><path class="cls-4" d="M59.85,33.77l-2.18-2.64A.62.62,0,0,0,57,31h0c-.23.08-.32.25-.2.4L59,34a.64.64,0,0,0,.63.13h0C59.88,34.09,60,33.91,59.85,33.77Z"/><ellipse class="cls-5" cx="66.45" cy="50.37" rx="1.15" ry="2.01"/><ellipse class="cls-5" cx="52.88" cy="50.37" rx="1.15" ry="2.01"/><ellipse class="cls-6" cx="59.67" cy="43.55" rx="13.75" ry="5.04"/><path d="M64.15,188.11c3.82-5.37,12.92-5.45,20.34-.18s19,5,15.17,10.4l-8.89,1.55Z"/><path d="M60.35,188.61c-3.71-5.44-12.82-5.69-20.33-.56s-19.08,4.68-15.36,10.12l8.87,1.71Z"/><path class="cls-3" d="M58.46,130s1.71,15,1.82,19.25,4.92,38.49,4.92,38.49H84.63s.28-16.83.65-35.44c.37-18.3,0-18.7,0-24.76S79.42,74,79.42,74H39.92s-5.77,47.44-5.87,51.39a109.22,109.22,0,0,0,.5,17.92c.37,3.25,6.15,44.84,6.3,44.44H59.24s-1.07-35-1.44-39.28c-.23-2.5-.5-18.62-.5-18.62Z"/><path class="cls-7" d="M77.26,74l.14,8.94s9,5.31,10.07,9.42,1.35,14.91,1.35,14.91l8.14.65s1.67-16.46-2.21-22.16C90.68,77.1,77.26,74,77.26,74Z"/><ellipse class="cls-1" cx="91.72" cy="115.01" rx="5.23" ry="4.35" transform="matrix(0.32, -0.95, 0.95, 0.32, -46.33, 165.81)"/><path class="cls-7" d="M41.78,75.74l2.93,8.45s-6.6,8.06-6.24,12.3S42.3,111,42.3,111l-7.43,3.39s-7.2-14.89-5.5-21.57C30.25,83.27,41.78,75.74,41.78,75.74Z"/><ellipse class="cls-1" cx="42.23" cy="119.24" rx="4.35" ry="5.23" transform="translate(-64.9 51.97) rotate(-38.37)"/><circle class="cls-8" cx="59.67" cy="105.5" r="1.5"/><circle class="cls-8" cx="59.67" cy="88.5" r="1.5"/></g></svg>