<svg xmlns="http://www.w3.org/2000/svg" viewBox="0 0 127.33 233.43"><defs><style>.cls-1{fill:#f9c295;}.cls-2{fill:#7c4f4e;}.cls-3{fill:#2c395c;}.cls-4{fill:#eaeded;}.cls-5{fill:#231f20;}.cls-6{fill:#34353d;}.cls-7{fill:#2e2f35;}.cls-8{fill:#f2f4ef;}</style></defs><title>DFL_5</title><g id="Layer_2" data-name="Layer 2"><polygon class="cls-1" points="42.95 71.5 81.11 71.5 75.85 40.29 48.22 40.29 42.95 71.5"/><polyline class="cls-2" points="79.25 60.44 76.11 60.44 73.97 42.28 76.92 42.28"/><polyline class="cls-2" points="44.79 60.44 47.94 60.44 50.1 42 47.12 42.28"/><ellipse class="cls-3" cx="62.03" cy="39.09" rx="17.52" ry="6.4"/><ellipse class="cls-3" cx="62.03" cy="31.18" rx="17.52" ry="6.4"/><rect class="cls-3" x="44.51" y="31.18" width="35.04" height="7.91"/><rect class="cls-4" x="58.35" y="31.66" width="4.76" height="0.59" rx="0.3" transform="translate(121.47 63.91) rotate(-180)"/><rect class="cls-4" x="58.35" y="32.72" width="4.76" height="0.59" rx="0.3" transform="translate(121.47 66.02) rotate(-180)"/><path class="cls-4" d="M59.71,31.52l2.11-.28c.26,0,.42-.19.37-.35h0a.51.51,0,0,0-.56-.22l-2.12.27c-.25,0-.41.19-.36.35h0C59.2,31.45,59.45,31.55,59.71,31.52Z"/><path class="cls-4" d="M59.78,34.5l2.1-.27c.25,0,.42-.19.36-.35h0c-.05-.16-.3-.26-.55-.23l-2.1.27c-.25,0-.42.19-.37.35h0A.53.53,0,0,0,59.78,34.5Z"/><path class="cls-4" d="M62.22,33.77,60,31.13A.64.64,0,0,0,59.4,31h0c-.23.08-.32.25-.2.4L61.38,34a.64.64,0,0,0,.63.13h0C62.24,34.09,62.34,33.91,62.22,33.77Z"/><ellipse class="cls-5" cx="68.82" cy="50.37" rx="1.15" ry="2.01"/><ellipse class="cls-5" cx="55.25" cy="50.37" rx="1.15" ry="2.01"/><ellipse class="cls-6" cx="62.03" cy="43.55" rx="13.75" ry="5.04"/><path d="M66.52,188.11c3.81-5.37,12.92-5.45,20.34-.18s19,5,15.17,10.4l-8.9,1.55Z"/><path d="M62.71,188.61c-3.71-5.44-12.81-5.69-20.33-.56S23.31,192.73,27,198.17l8.87,1.71Z"/><path class="cls-3" d="M60.83,130s1.7,15,1.82,19.25,4.91,38.49,4.91,38.49H87s.28-16.83.65-35.44c.37-18.3,0-18.7,0-24.76S81.79,74,81.79,74H42.28s-5.77,47.44-5.87,51.39a109.22,109.22,0,0,0,.5,17.92c.38,3.25,6.16,44.84,6.3,44.44H61.6s-1.06-35-1.44-39.28c-.22-2.5-.5-18.62-.5-18.62Z"/><path class="cls-7" d="M79.94,75.74,77,84.19s6.6,8.06,6.24,12.3S79.42,111,79.42,111l7.43,3.39s7.2-14.89,5.5-21.57C91.47,83.27,79.94,75.74,79.94,75.74Z"/><ellipse class="cls-1" cx="79.49" cy="119.24" rx="5.23" ry="4.35" transform="translate(-63.34 107.55) rotate(-51.63)"/><path class="cls-7" d="M44.46,74l-.14,8.94s-9,5.31-10.07,9.42-1.35,14.91-1.35,14.91l-8.14.65S23.09,91.44,27,85.74C31,77.1,44.46,74,44.46,74Z"/><ellipse class="cls-1" cx="30" cy="115.01" rx="4.35" ry="5.23" transform="translate(-34.71 15.31) rotate(-18.37)"/><circle class="cls-8" cx="62.03" cy="105.5" r="1.5"/><circle class="cls-8" cx="62.03" cy="88.5" r="1.5"/></g></svg>