<svg xmlns="http://www.w3.org/2000/svg" viewBox="0 0 127.33 233.43"><defs><style>.cls-1{fill:#f9c295;}.cls-2{fill:#7c4f4e;}.cls-3{fill:#2c395c;}.cls-4{fill:#eaeded;}.cls-5{fill:#231f20;}.cls-6{fill:#34353d;}.cls-7{fill:#2e2f35;}.cls-8{fill:#f2f4ef;}</style></defs><title>DFL_2</title><g id="Layer_2" data-name="Layer 2"><polygon class="cls-1" points="82.89 71.5 44.74 71.5 50 40.29 77.63 40.29 82.89 71.5"/><polyline class="cls-2" points="46.6 60.44 49.74 60.44 51.87 42.28 48.93 42.28"/><polyline class="cls-2" points="81.06 60.44 77.91 60.44 75.75 42 78.72 42.28"/><ellipse class="cls-3" cx="63.81" cy="39.09" rx="17.52" ry="6.4"/><ellipse class="cls-3" cx="63.81" cy="31.18" rx="17.52" ry="6.4"/><rect class="cls-3" x="46.29" y="31.18" width="35.04" height="7.91"/><rect class="cls-4" x="62.73" y="31.66" width="4.76" height="0.59" rx="0.3"/><rect class="cls-4" x="62.73" y="32.72" width="4.76" height="0.59" rx="0.3"/><path class="cls-4" d="M66.14,31.52,64,31.24c-.25,0-.42-.19-.36-.35h0a.51.51,0,0,1,.55-.22l2.12.27c.26,0,.42.19.37.35h0C66.65,31.45,66.39,31.55,66.14,31.52Z"/><path class="cls-4" d="M66.07,34.5,64,34.23c-.26,0-.42-.19-.37-.35h0a.53.53,0,0,1,.56-.23l2.1.27c.25,0,.42.19.36.35h0C66.57,34.43,66.32,34.53,66.07,34.5Z"/><path class="cls-4" d="M63.63,33.77l2.18-2.64a.64.64,0,0,1,.64-.13h0c.23.08.32.25.2.4L64.47,34a.66.66,0,0,1-.64.13h0C63.6,34.09,63.51,33.91,63.63,33.77Z"/><ellipse class="cls-5" cx="57.03" cy="50.37" rx="1.15" ry="2.01"/><ellipse class="cls-5" cx="70.6" cy="50.37" rx="1.15" ry="2.01"/><ellipse class="cls-6" cx="63.81" cy="43.55" rx="13.75" ry="5.04"/><path d="M59.33,188.11c-3.81-5.37-12.92-5.45-20.34-.18s-19,5-15.17,10.4l8.9,1.55Z"/><path d="M63.13,188.61c3.72-5.44,12.82-5.69,20.34-.56s19.07,4.68,15.36,10.12L90,199.88Z"/><path class="cls-3" d="M65,130s-1.7,15-1.82,19.25-4.91,38.49-4.91,38.49H38.86s-.29-16.83-.66-35.44c-.36-18.3,0-18.7,0-24.76S44.06,74,44.06,74H83.57s5.77,47.44,5.87,51.39a109.22,109.22,0,0,1-.5,17.92c-.38,3.25-6.16,44.84-6.3,44.44H64.24s1.07-35,1.45-39.28c.22-2.5.5-18.62.5-18.62Z"/><path class="cls-7" d="M46,74.85l1.42,8.82s-7.91,6.8-8.29,11,1.26,14.92,1.26,14.92l-7.9,2S28,95.75,30.81,89.47C33.32,80.25,46,74.85,46,74.85Z"/><ellipse class="cls-1" cx="38.88" cy="117.76" rx="4.35" ry="5.23" transform="translate(-51.29 32.61) rotate(-28.37)"/><path class="cls-7" d="M81.7,75.74l-2.93,8.45s6.61,8.06,6.24,12.3S81.18,111,81.18,111l7.43,3.39s7.2-14.89,5.5-21.57C93.24,83.27,81.7,75.74,81.7,75.74Z"/><ellipse class="cls-1" cx="81.25" cy="119.24" rx="5.23" ry="4.35" transform="matrix(0.62, -0.78, 0.78, 0.62, -62.67, 108.93)"/><circle class="cls-8" cx="63.81" cy="105.5" r="1.5"/><circle class="cls-8" cx="63.81" cy="88.5" r="1.5"/></g></svg>