<svg xmlns="http://www.w3.org/2000/svg" viewBox="0 0 127.33 233.43"><defs><style>.cls-1{fill:#f9c295;}.cls-2{fill:#7c4f4e;}.cls-3{fill:#2c395c;}.cls-4{fill:#eaeded;}.cls-5{fill:#231f20;}.cls-6{fill:#34353d;}.cls-7{fill:#2e2f35;}.cls-8{fill:#f2f4ef;}</style></defs><title>DFL_6</title><g id="Layer_2" data-name="Layer 2"><polygon class="cls-1" points="79.03 71.5 40.87 71.5 46.14 40.29 73.76 40.29 79.03 71.5"/><polyline class="cls-2" points="42.73 60.44 45.88 60.44 48.01 42.28 45.06 42.28"/><polyline class="cls-2" points="77.19 60.44 74.05 60.44 71.89 42 74.86 42.28"/><ellipse class="cls-3" cx="59.95" cy="39.09" rx="17.52" ry="6.4"/><ellipse class="cls-3" cx="59.95" cy="31.18" rx="17.52" ry="6.4"/><rect class="cls-3" x="42.43" y="31.18" width="35.04" height="7.91"/><rect class="cls-4" x="58.87" y="31.66" width="4.76" height="0.59" rx="0.3"/><rect class="cls-4" x="58.87" y="32.72" width="4.76" height="0.59" rx="0.3"/><path class="cls-4" d="M62.28,31.52l-2.12-.28c-.25,0-.42-.19-.37-.35h0a.53.53,0,0,1,.56-.22l2.12.27c.25,0,.42.19.36.35h0C62.78,31.45,62.53,31.55,62.28,31.52Z"/><path class="cls-4" d="M62.2,34.5l-2.1-.27c-.25,0-.41-.19-.36-.35h0c0-.16.3-.26.56-.23l2.09.27c.26,0,.42.19.37.35h0C62.71,34.43,62.46,34.53,62.2,34.5Z"/><path class="cls-4" d="M59.77,33.77,62,31.13a.62.62,0,0,1,.63-.13h0c.23.08.32.25.2.4L60.6,34a.64.64,0,0,1-.63.13h0C59.74,34.09,59.65,33.91,59.77,33.77Z"/><ellipse class="cls-5" cx="53.17" cy="50.37" rx="1.15" ry="2.01"/><ellipse class="cls-5" cx="66.74" cy="50.37" rx="1.15" ry="2.01"/><ellipse class="cls-6" cx="59.95" cy="43.55" rx="13.75" ry="5.04"/><path d="M55.47,188.11c-3.82-5.37-12.92-5.45-20.34-.18s-19,5-15.17,10.4l8.89,1.55Z"/><path d="M59.27,188.61c3.71-5.44,12.82-5.69,20.33-.56S98.67,192.73,95,198.17l-8.87,1.71Z"/><path class="cls-3" d="M61.16,130s-1.71,15-1.82,19.25-4.92,38.49-4.92,38.49H35s-.28-16.83-.65-35.44c-.37-18.3,0-18.7,0-24.76S40.2,74,40.2,74H79.7s5.77,47.44,5.87,51.39a109.22,109.22,0,0,1-.5,17.92c-.37,3.25-6.15,44.84-6.3,44.44H60.38s1.07-35,1.44-39.28c.23-2.5.5-18.62.5-18.62Z"/><path class="cls-7" d="M42.05,75.74,45,84.19s-6.61,8.06-6.25,12.3S42.56,111,42.56,111l-7.42,3.39s-7.2-14.89-5.51-21.57C30.51,83.27,42.05,75.74,42.05,75.74Z"/><ellipse class="cls-1" cx="42.49" cy="119.24" rx="4.35" ry="5.23" transform="translate(-64.84 52.13) rotate(-38.37)"/><path class="cls-7" d="M77.15,73.16l1.68,8.78s9.75,3.68,11.56,7.53,3.92,14.46,3.92,14.46l8.13-.78s-1.22-16.5-6-21.44C90.9,73.91,77.15,73.16,77.15,73.16Z"/><ellipse class="cls-1" cx="98.51" cy="111.06" rx="5.23" ry="4.35" transform="translate(-25.71 192.35) rotate(-81.63)"/><circle class="cls-8" cx="59.95" cy="105.5" r="1.5"/><circle class="cls-8" cx="59.95" cy="88.5" r="1.5"/></g></svg>