<svg xmlns="http://www.w3.org/2000/svg" viewBox="0 0 127.33 233.43"><defs><style>.cls-1{fill:#f9c295;}.cls-2{fill:#7c4f4e;}.cls-3{fill:#2c395c;}.cls-4{fill:#eaeded;}.cls-5{fill:#231f20;}.cls-6{fill:#34353d;}.cls-7{fill:#2e2f35;}.cls-8{fill:#f2f4ef;}</style></defs><title>DFL_5</title><g id="Layer_2" data-name="Layer 2"><polygon class="cls-1" points="82.55 71.5 44.39 71.5 49.65 40.29 77.28 40.29 82.55 71.5"/><polyline class="cls-2" points="46.25 60.44 49.39 60.44 51.52 42.28 48.58 42.28"/><polyline class="cls-2" points="80.71 60.44 77.57 60.44 75.4 42 78.38 42.28"/><ellipse class="cls-3" cx="63.47" cy="39.09" rx="17.52" ry="6.4"/><ellipse class="cls-3" cx="63.47" cy="31.18" rx="17.52" ry="6.4"/><rect class="cls-3" x="45.95" y="31.18" width="35.04" height="7.91"/><rect class="cls-4" x="62.38" y="31.66" width="4.76" height="0.59" rx="0.3"/><rect class="cls-4" x="62.38" y="32.72" width="4.76" height="0.59" rx="0.3"/><path class="cls-4" d="M65.79,31.52l-2.11-.28c-.26,0-.42-.19-.37-.35h0a.51.51,0,0,1,.56-.22l2.12.27c.25,0,.41.19.36.35h0C66.3,31.45,66.05,31.55,65.79,31.52Z"/><path class="cls-4" d="M65.72,34.5l-2.1-.27c-.25,0-.42-.19-.36-.35h0c.05-.16.3-.26.55-.23l2.1.27c.25,0,.42.19.37.35h0A.53.53,0,0,1,65.72,34.5Z"/><path class="cls-4" d="M63.28,33.77l2.18-2.64A.64.64,0,0,1,66.1,31h0c.23.08.32.25.2.4L64.12,34a.64.64,0,0,1-.63.13h0C63.26,34.09,63.17,33.91,63.28,33.77Z"/><ellipse class="cls-5" cx="56.68" cy="50.37" rx="1.15" ry="2.01"/><ellipse class="cls-5" cx="70.25" cy="50.37" rx="1.15" ry="2.01"/><ellipse class="cls-6" cx="63.47" cy="43.55" rx="13.75" ry="5.04"/><path d="M59,188.11c-3.81-5.37-12.92-5.45-20.34-.18s-19,5-15.17,10.4l8.9,1.55Z"/><path d="M62.79,188.61c3.71-5.44,12.81-5.69,20.33-.56s19.07,4.68,15.36,10.12l-8.87,1.71Z"/><path class="cls-3" d="M64.67,130s-1.7,15-1.82,19.25-4.91,38.49-4.91,38.49H38.51s-.28-16.83-.65-35.44c-.37-18.3,0-18.7,0-24.76S43.72,74,43.72,74h39.5s5.77,47.44,5.87,51.39a109.22,109.22,0,0,1-.5,17.92c-.38,3.25-6.16,44.84-6.3,44.44H63.9s1.06-35,1.44-39.28c.22-2.5.5-18.62.5-18.62Z"/><path class="cls-7" d="M45.56,75.74l2.93,8.45s-6.6,8.06-6.24,12.3S46.08,111,46.08,111l-7.42,3.39s-7.21-14.89-5.51-21.57C34,83.27,45.56,75.74,45.56,75.74Z"/><ellipse class="cls-1" cx="46.01" cy="119.24" rx="4.35" ry="5.23" transform="translate(-64.08 54.31) rotate(-38.37)"/><path class="cls-7" d="M81,74l.14,8.94s9,5.31,10.07,9.42,1.36,14.91,1.36,14.91l8.13.65s1.67-16.46-2.21-22.16C94.46,77.1,81,74,81,74Z"/><ellipse class="cls-1" cx="95.5" cy="115.01" rx="5.23" ry="4.35" transform="translate(-43.74 169.4) rotate(-71.63)"/><circle class="cls-8" cx="63.47" cy="105.5" r="1.5"/><circle class="cls-8" cx="63.47" cy="88.5" r="1.5"/></g></svg>