<svg id="Layer_1" data-name="Layer 1" xmlns="http://www.w3.org/2000/svg" viewBox="0 0 762.95 144.51"><defs><style>.cls-1{fill:#231f20;}.cls-2{fill:#282626;}.cls-3{fill:#292821;}.cls-4{fill:#6c6963;}.cls-5{fill:#5a4a44;}.cls-6{fill:#866255;}.cls-7{fill:#33322f;}.cls-8{fill:#72715d;}.cls-9{fill:#2e2f2d;}.cls-10{fill:#3a3c2b;}.cls-11{fill:#3a3a30;}.cls-12{fill:#7c7871;}.cls-13{fill:#2b2a28;}.cls-14{fill:#4a4841;}.cls-15{fill:#424138;}.cls-16{fill:#5d5a51;}.cls-17{fill:#908f8d;}</style></defs><title>Train2 Pass</title><rect class="cls-1" x="124.37" y="23.39" width="20.84" height="10.61" rx="3.41"/><rect class="cls-1" x="175.34" y="23.39" width="20.84" height="10.61" rx="3.41"/><rect class="cls-1" x="226.32" y="23.39" width="20.84" height="10.61" rx="3.41"/><rect class="cls-1" x="277.29" y="23.39" width="20.84" height="10.61" rx="3.41"/><rect class="cls-1" x="328.26" y="23.39" width="20.84" height="10.61" rx="3.41"/><rect class="cls-1" x="379.23" y="23.39" width="20.84" height="10.61" rx="3.41"/><rect class="cls-1" x="430.2" y="23.39" width="20.84" height="10.61" rx="3.41"/><rect class="cls-1" x="481.17" y="23.39" width="20.84" height="10.61" rx="3.41"/><rect class="cls-1" x="532.14" y="23.39" width="20.84" height="10.61" rx="3.41"/><rect class="cls-1" x="583.11" y="23.39" width="20.84" height="10.61" rx="3.41"/><path class="cls-2" d="M77.08,26.94H657.3a95.77,95.77,0,0,1,51.41,14.92l7.75,4.93a1.29,1.29,0,0,1-.72,2.38h-698A1.29,1.29,0,0,1,17,46.76l12-7A95.91,95.91,0,0,1,77.08,26.94Z"/><polygon class="cls-1" points="613.42 112.21 119.66 112.21 177.5 122.02 555.58 122.02 613.42 112.21"/><rect class="cls-3" x="318.48" y="103.25" width="109.64" height="28.55" rx="2.96"/><rect class="cls-3" x="203.53" y="106.79" width="83.87" height="22.74" rx="3.98"/><rect class="cls-4" x="210.79" y="108.49" width="4.74" height="22.55"/><rect class="cls-4" x="237.6" y="108.49" width="4.74" height="22.55"/><rect class="cls-4" x="274.2" y="108.49" width="4.74" height="22.55"/><circle class="cls-5" cx="83.15" cy="126.63" r="12.13"/><circle class="cls-5" cx="154.39" cy="126.63" r="12.13"/><circle class="cls-6" cx="83.15" cy="126.63" r="4.64"/><circle class="cls-6" cx="154.39" cy="126.63" r="4.64"/><rect class="cls-7" x="75.82" y="110.21" width="20.97" height="9.24"/><rect class="cls-8" x="92.56" y="118.07" width="14.65" height="7.05" transform="translate(79.98 -34.5) rotate(32.13)"/><rect class="cls-7" x="140.75" y="110.21" width="20.97" height="9.24" transform="translate(302.47 229.66) rotate(-180)"/><rect class="cls-8" x="130.32" y="118.07" width="14.65" height="7.05" transform="translate(318.89 151.36) rotate(147.87)"/><rect class="cls-9" x="103.36" y="122.59" width="30.82" height="6.57" rx="2.15"/><rect class="cls-10" x="103.36" y="117.74" width="30.82" height="6.57" rx="2.15"/><rect class="cls-9" x="103.36" y="112.88" width="30.82" height="6.57" rx="2.15"/><rect class="cls-10" x="103.36" y="108.03" width="30.82" height="6.57" rx="2.15"/><path class="cls-11" d="M169.72,122.92a19.52,19.52,0,0,0-13.34-5.18h-2.79a19.52,19.52,0,0,0-13.34,5.18l-1.76,1.65a12.1,12.1,0,0,1-8.29,3.23H107.34a12.1,12.1,0,0,1-8.29-3.23l-1.76-1.65A19.52,19.52,0,0,0,84,117.74H81.16a19.5,19.5,0,0,0-13.34,5.18l-1.08,1,2,1.88.07-.07a19.75,19.75,0,0,1,26.67,0l2,1.85a19.88,19.88,0,0,0,13.6,5.29h15.42a19.88,19.88,0,0,0,13.6-5.29l2-1.85a19.52,19.52,0,0,1,13.34-5.18h0a19.49,19.49,0,0,1,13.33,5.18l.07.07,2-1.88Z"/><circle class="cls-5" cx="583.88" cy="126.63" r="12.13"/><circle class="cls-5" cx="655.12" cy="126.63" r="12.13"/><circle class="cls-6" cx="583.88" cy="126.63" r="4.64"/><circle class="cls-6" cx="655.12" cy="126.63" r="4.64"/><rect class="cls-7" x="576.55" y="110.21" width="20.97" height="9.24"/><rect class="cls-8" x="593.29" y="118.07" width="14.65" height="7.05" transform="translate(156.68 -300.83) rotate(32.13)"/><rect class="cls-7" x="641.48" y="110.21" width="20.97" height="9.24" transform="translate(1303.93 229.66) rotate(-180)"/><rect class="cls-8" x="631.05" y="118.07" width="14.65" height="7.05" transform="translate(1243.65 -114.97) rotate(147.87)"/><rect class="cls-9" x="604.09" y="122.59" width="30.82" height="6.57" rx="2.15"/><rect class="cls-10" x="604.09" y="117.74" width="30.82" height="6.57" rx="2.15"/><rect class="cls-9" x="604.09" y="112.88" width="30.82" height="6.57" rx="2.15"/><rect class="cls-10" x="604.09" y="108.03" width="30.82" height="6.57" rx="2.15"/><path class="cls-11" d="M670.45,122.92a19.52,19.52,0,0,0-13.34-5.18h-2.79A19.5,19.5,0,0,0,641,122.92l-1.76,1.65a12.1,12.1,0,0,1-8.29,3.23H608.07a12.1,12.1,0,0,1-8.29-3.23L598,122.92a19.52,19.52,0,0,0-13.34-5.18h-2.79a19.5,19.5,0,0,0-13.34,5.18l-1.08,1,2,1.88.07-.07a19.75,19.75,0,0,1,26.67,0l2,1.85a19.88,19.88,0,0,0,13.6,5.29h15.42a19.88,19.88,0,0,0,13.6-5.29l2-1.85a19.5,19.5,0,0,1,13.34-5.18h0a19.49,19.49,0,0,1,13.33,5.18l.07.07,2-1.88Z"/><rect class="cls-12" x="25.68" y="110.81" width="20.34" height="20.34"/><rect class="cls-13" x="17.53" y="53.65" width="3.09" height="46.99"/><rect class="cls-14" x="14.43" y="53.65" width="3.09" height="46.99"/><rect class="cls-13" x="11.34" y="53.65" width="3.09" height="46.99"/><rect class="cls-14" x="13.64" y="103.58" width="6.98" height="4.83"/><rect class="cls-4" x="11.34" y="102.06" width="2.31" height="9.19"/><rect class="cls-13" x="712.42" y="53.65" width="3.09" height="46.99" transform="translate(1427.94 154.29) rotate(180)"/><rect class="cls-14" x="715.52" y="53.65" width="3.09" height="46.99" transform="translate(1434.13 154.29) rotate(180)"/><rect class="cls-13" x="718.61" y="53.65" width="3.09" height="46.99" transform="translate(1440.32 154.29) rotate(180)"/><rect class="cls-14" x="712.42" y="103.58" width="6.98" height="4.83" transform="translate(1431.82 211.99) rotate(180)"/><rect class="cls-4" x="719.4" y="102.06" width="2.31" height="9.19" transform="translate(1441.11 213.32) rotate(180)"/><path class="cls-15" d="M20.62,49.17v61.64H47.53a5,5,0,0,0,5,5H680.51a5,5,0,0,0,5-5h26.91V49.17ZM45.51,77H28.58V60.79H45.51ZM89,87.06H66.86V66.85H89Zm37.54,0H109.3V66.85h17.2Zm26.45,0H135.74V66.85H153Zm26.44,0h-17.2V66.85h17.2Zm26.45,0H188.63V66.85h17.21Zm26.44,0h-17.2V66.85h17.2Zm26.45,0H241.52V66.85h17.21Zm26.44,0H268V66.85h17.2Zm26.45,0H294.41V66.85h17.21Zm26.44,0h-17.2V66.85h17.2Zm26.45,0h-17.2V66.85h17.2Zm26.44,0h-17.2V66.85H391Zm26.45,0H400.2V66.85h17.2Zm26.44,0h-17.2V66.85h17.2Zm26.45,0h-17.2V66.85h17.2Zm26.44,0h-17.2V66.85h17.2Zm26.45,0H506V66.85h17.2Zm26.44,0h-17.2V66.85h17.2Zm26.45,0h-17.2V66.85h17.2Zm26.45,0H585.31V66.85h17.21Zm26.44,0h-17.2V66.85H629Zm40.93,0H647.78V66.85h22.11ZM708.66,77H691.74V60.79h16.92Z"/><rect class="cls-12" x="687.95" y="110.81" width="20.34" height="20.34"/><path class="cls-16" d="M685.55,55.36v55.45h25.14V55.36ZM708.66,77H691.74V60.79h16.92Z"/><path class="cls-16" d="M22.39,55.36v55.45H47.53V55.36ZM45.51,77H28.58V60.79H45.51Z"/><rect class="cls-17" x="310.77" y="97.17" width="111.54" height="8.08"/><rect class="cls-4" x="326.44" y="123.09" width="93.71" height="4.78"/><rect class="cls-17" x="157.39" y="55.99" width="111.54" height="6.82"/><rect class="cls-17" x="346.11" y="55.99" width="51.69" height="6.82"/><rect class="cls-17" x="470.29" y="55.99" width="121.16" height="6.82"/><rect class="cls-13" x="25.68" y="128.89" width="20.34" height="2.26"/><rect class="cls-13" x="687.95" y="128.89" width="20.34" height="2.26"/></svg>