<svg xmlns="http://www.w3.org/2000/svg" viewBox="0 0 127.33 233.43"><defs><style>.cls-1{fill:#f07422;}.cls-2{fill:#fdba40;}.cls-3{fill:#ffc859;}.cls-4{fill:#212121;}.cls-5{fill:#34353d;}.cls-11,.cls-13,.cls-6{fill:#231f20;}.cls-7{fill:#d23427;}.cls-8{fill:#ffc85a;}.cls-9{fill:#fcb96e;}.cls-10,.cls-16{fill:none;}.cls-10{stroke:#ffe2ae;stroke-width:0.25px;}.cls-10,.cls-11,.cls-12,.cls-16{stroke-miterlimit:10;}.cls-11,.cls-13{stroke:#231f20;}.cls-11,.cls-13,.cls-16{stroke-width:0.5px;}.cls-12,.cls-14{fill:#fff;stroke:#c8c8c8;}.cls-13,.cls-14{stroke-linejoin:round;}.cls-14{stroke-linecap:round;}.cls-15{fill:#0b0a0f;}.cls-16{stroke:#ffc85a;}</style></defs><title>BFL</title><g id="Layer_2" data-name="Layer 2"><ellipse class="cls-1" cx="61.34" cy="55.33" rx="13.75" ry="4.32"/><ellipse class="cls-2" cx="61.34" cy="50.15" rx="17.52" ry="6.4"/><ellipse class="cls-3" cx="61.34" cy="44.62" rx="19.19" ry="6.4"/><path class="cls-4" d="M65.82,199.18c3.81-5.37,12.92-5.45,20.34-.18s19,5,15.17,10.4l-8.9,1.54Z"/><path class="cls-4" d="M62,199.67c-3.72-5.44-12.82-5.69-20.34-.55s-19.07,4.68-15.36,10.11l8.87,1.71Z"/><path class="cls-5" d="M60.13,141.1s1.7,15,1.82,19.24,4.91,38.5,4.91,38.5H86.29s.29-16.84.66-35.45c.36-18.3,0-18.69,0-24.76s-5.86-53.55-5.86-53.55H41.58s-5.77,47.44-5.87,51.39a109.16,109.16,0,0,0,.5,17.92c.38,3.25,6.16,44.84,6.3,44.45h18.4s-1.07-35.05-1.45-39.28c-.22-2.5-.5-18.63-.5-18.63Z"/><path class="cls-6" d="M76.48,52.65c2.2-1.69,3.74-2.88,3.92-5.71.37-5.83-8.38-14.52-19-14.52S41.2,40.07,42.3,47.69c.38,2.62,3.37,4.55,5,5.92L61.33,43Z"/><path class="cls-7" d="M46.82,49c0,3.8,6.5,5.85,14.51,5.85s14.51-2,14.51-5.85-6.49-6.87-14.51-6.87S46.82,45.23,46.82,49Z"/><path class="cls-8" d="M46.82,50.83c0,3.54,6.5,5.38,14.51,5.38s14.51-1.84,14.51-5.38-6.49-6.41-14.51-6.41S46.82,47.29,46.82,50.83Z"/><path class="cls-7" d="M46.87,51.36c0,3,6.47,5.38,14.46,5.38S75.8,54.33,75.8,51.36,69.32,47,61.33,47,46.87,48.39,46.87,51.36Z"/><polygon class="cls-9" points="42.25 82.56 80.41 82.56 75.14 51.35 47.52 51.35 42.25 82.56"/><ellipse class="cls-8" cx="61.33" cy="38.11" rx="1.41" ry="1.43" transform="translate(-9.01 54.41) rotate(-44.9)"/><ellipse class="cls-10" cx="61.33" cy="38.25" rx="2.56" ry="2.57" transform="translate(-9.29 53.66) rotate(-44.26)"/><polygon class="cls-11" points="75.12 51.19 76.29 59.69 73.41 53.83 62.02 52.19 49.25 53.83 46.37 59.69 47.52 51.35 75.12 51.19"/><ellipse class="cls-6" cx="68.12" cy="61.43" rx="1.15" ry="2.01"/><ellipse class="cls-6" cx="54.55" cy="61.43" rx="1.15" ry="2.01"/><path class="cls-5" d="M45.38,53.24c0,3,7.88-1.76,16.81-1.76s15.09,4.81,15.09,1.76-6.8-5.79-15.73-5.79S45.38,50.19,45.38,53.24Z"/><polygon class="cls-12" points="81.09 85.08 41.58 85.08 36.2 131.15 86.37 131.15 81.09 85.08"/><polygon class="cls-13" points="61.28 92.36 62.93 90.16 64.58 87.95 61.28 87.95 57.99 87.95 59.64 90.16 61.28 92.36"/><polygon class="cls-13" points="61.28 92.36 64.43 109.69 61.28 115.28 57.99 109.69 61.28 92.36"/><path class="cls-9" d="M92.43,87.41,85.71,94.3s5.83,2,7.63,5.82,3.92,14.45,3.92,14.45l8.13-.77s-1.21-16.51-6-21.44C91.85,85.07,92.43,87.41,92.43,87.41Z"/><ellipse class="cls-9" cx="101.46" cy="121.71" rx="5.23" ry="4.35" transform="translate(-33.72 204.37) rotate(-81.63)"/><polyline class="cls-14" points="81.06 81.26 97.49 88.15 85.82 96.52 78.89 91.17"/><polygon class="cls-15" points="78.62 83.98 85.1 85.78 89.45 82.15 82.97 80.35 78.06 81.41 78.62 83.98"/><line class="cls-16" x1="83.84" y1="85.43" x2="88.19" y2="81.8"/><line class="cls-16" x1="82.63" y1="85.09" x2="86.98" y2="81.46"/><ellipse class="cls-8" cx="79.49" cy="81.8" rx="0.52" ry="0.27" transform="translate(-10.87 12.19) rotate(-8.21)"/><ellipse class="cls-16" cx="82.88" cy="82.75" rx="0.9" ry="0.47" transform="translate(-10.97 12.69) rotate(-8.21)"/><path class="cls-9" d="M34,96.08l9.26,2.62s-4.06,4.62-3.69,8.85S43.35,122,43.35,122l-7.43,3.39s-7.2-14.9-5.5-21.58C33.28,93.77,34,96.08,34,96.08Z"/><ellipse class="cls-9" cx="43.28" cy="130.3" rx="4.35" ry="5.23" transform="translate(-71.54 55.01) rotate(-38.37)"/><polyline class="cls-14" points="40.72 85.08 29.94 99.26 44.23 100.67 47.56 92.57"/><polygon class="cls-15" points="44.19 86.21 39.48 91.01 33.9 90.05 38.61 85.25 43.39 83.7 44.19 86.21"/><line class="cls-16" x1="40.4" y1="90.08" x2="34.82" y2="89.11"/><line class="cls-16" x1="41.28" y1="89.18" x2="35.7" y2="88.21"/><ellipse class="cls-8" cx="42.36" cy="84.76" rx="0.52" ry="0.27" transform="translate(-28.43 21.78) rotate(-21.79)"/><ellipse class="cls-16" cx="39.89" cy="87.27" rx="0.9" ry="0.47" transform="matrix(0.93, -0.37, 0.37, 0.93, -29.54, 21.04)"/></g></svg>