<svg xmlns="http://www.w3.org/2000/svg" viewBox="0 0 127.33 233.43"><defs><style>.cls-1{fill:#f07422;}.cls-2{fill:#fdba40;}.cls-3{fill:#ffc859;}.cls-4{fill:#212121;}.cls-5{fill:#34353d;}.cls-11,.cls-13,.cls-6{fill:#231f20;}.cls-7{fill:#d23427;}.cls-8{fill:#ffc85a;}.cls-9{fill:#fcb96e;}.cls-10,.cls-16{fill:none;}.cls-10{stroke:#ffe2ae;stroke-width:0.25px;}.cls-10,.cls-11,.cls-12,.cls-16{stroke-miterlimit:10;}.cls-11,.cls-13{stroke:#231f20;}.cls-11,.cls-13,.cls-16{stroke-width:0.5px;}.cls-12,.cls-14{fill:#fff;stroke:#c8c8c8;}.cls-13,.cls-14{stroke-linejoin:round;}.cls-14{stroke-linecap:round;}.cls-15{fill:#0b0a0f;}.cls-16{stroke:#ffc85a;}</style></defs><title>BFL</title><g id="Layer_2" data-name="Layer 2"><ellipse class="cls-1" cx="70.11" cy="55.33" rx="13.75" ry="4.32"/><ellipse class="cls-2" cx="70.11" cy="50.15" rx="17.52" ry="6.4"/><ellipse class="cls-3" cx="70.11" cy="44.62" rx="19.19" ry="6.4"/><path class="cls-4" d="M65.62,199.18c-3.81-5.37-12.92-5.45-20.34-.18s-19,5-15.17,10.4l8.9,1.54Z"/><path class="cls-4" d="M69.43,199.67c3.71-5.44,12.81-5.69,20.33-.55s19.07,4.68,15.36,10.11l-8.87,1.71Z"/><path class="cls-5" d="M71.31,141.1s-1.7,15-1.82,19.24-4.91,38.5-4.91,38.5H45.15s-.28-16.84-.65-35.45c-.37-18.3,0-18.69,0-24.76s5.86-53.55,5.86-53.55h39.5s5.77,47.44,5.87,51.39a109.16,109.16,0,0,1-.5,17.92c-.37,3.25-6.16,44.84-6.3,44.45H70.54S71.6,163.79,72,159.56c.23-2.5.5-18.63.5-18.63Z"/><path class="cls-6" d="M55,52.65c-2.2-1.69-3.73-2.88-3.91-5.71-.38-5.83,8.38-14.52,19-14.52s20.24,7.65,19.14,15.27c-.37,2.62-3.37,4.55-5,5.92L70.11,43Z"/><path class="cls-7" d="M84.62,49c0,3.8-6.5,5.85-14.51,5.85S55.6,52.82,55.6,49s6.5-6.87,14.51-6.87S84.62,45.23,84.62,49Z"/><path class="cls-8" d="M84.62,50.83c0,3.54-6.5,5.38-14.51,5.38S55.6,54.37,55.6,50.83s6.5-6.41,14.51-6.41S84.62,47.29,84.62,50.83Z"/><path class="cls-7" d="M84.58,51.36c0,3-6.48,5.38-14.47,5.38s-14.46-2.41-14.46-5.38S62.12,47,70.11,47,84.58,48.39,84.58,51.36Z"/><polygon class="cls-9" points="89.19 82.56 51.03 82.56 56.3 51.35 83.92 51.35 89.19 82.56"/><ellipse class="cls-8" cx="70.11" cy="38.11" rx="1.43" ry="1.41" transform="translate(-6.37 60.87) rotate(-45.1)"/><ellipse class="cls-10" cx="70.11" cy="38.25" rx="2.57" ry="2.56" transform="translate(-6.21 61.77) rotate(-45.74)"/><polygon class="cls-11" points="56.33 51.19 55.15 59.69 58.03 53.83 69.43 52.19 82.19 53.83 85.07 59.69 83.92 51.35 56.33 51.19"/><ellipse class="cls-6" cx="63.32" cy="61.43" rx="1.15" ry="2.01"/><ellipse class="cls-6" cx="76.89" cy="61.43" rx="1.15" ry="2.01"/><path class="cls-5" d="M86.06,53.24c0,3-7.88-1.76-16.81-1.76s-15.09,4.81-15.09,1.76,6.8-5.79,15.73-5.79S86.06,50.19,86.06,53.24Z"/><polygon class="cls-12" points="50.36 85.08 89.86 85.08 95.25 131.15 45.07 131.15 50.36 85.08"/><polygon class="cls-13" points="70.16 92.36 68.51 90.16 66.87 87.95 70.16 87.95 73.45 87.95 71.81 90.16 70.16 92.36"/><polygon class="cls-13" points="70.16 92.36 67.02 109.69 70.16 115.28 73.45 109.69 70.16 92.36"/><path class="cls-9" d="M39,87.41l6.71,6.89s-5.82,2-7.63,5.82-3.92,14.45-3.92,14.45l-8.12-.77s1.21-16.51,6-21.44C39.59,85.07,39,87.41,39,87.41Z"/><ellipse class="cls-9" cx="29.98" cy="121.71" rx="4.35" ry="5.23" transform="translate(-17.4 5.66) rotate(-8.37)"/><polyline class="cls-14" points="50.38 81.26 33.95 88.15 45.63 96.52 52.56 91.17"/><polygon class="cls-15" points="52.82 83.98 46.34 85.78 41.99 82.15 48.47 80.35 53.38 81.41 52.82 83.98"/><line class="cls-16" x1="47.61" y1="85.43" x2="43.26" y2="81.8"/><line class="cls-16" x1="48.81" y1="85.09" x2="44.46" y2="81.46"/><ellipse class="cls-8" cx="51.96" cy="81.8" rx="0.27" ry="0.52" transform="translate(-36.43 121.54) rotate(-81.79)"/><ellipse class="cls-16" cx="48.56" cy="82.75" rx="0.47" ry="0.9" transform="translate(-40.27 118.99) rotate(-81.79)"/><path class="cls-9" d="M97.49,96.08,88.23,98.7s4.06,4.62,3.7,8.85S88.1,122,88.1,122l7.42,3.39s7.2-14.9,5.51-21.58C98.16,93.77,97.49,96.08,97.49,96.08Z"/><ellipse class="cls-9" cx="88.17" cy="130.3" rx="5.23" ry="4.35" transform="translate(-68.72 118.55) rotate(-51.63)"/><polyline class="cls-14" points="90.72 85.08 101.51 99.26 87.21 100.67 83.89 92.57"/><polygon class="cls-15" points="87.25 86.21 91.96 91.01 97.55 90.05 92.83 85.25 88.05 83.7 87.25 86.21"/><line class="cls-16" x1="91.04" y1="90.08" x2="96.63" y2="89.11"/><line class="cls-16" x1="90.16" y1="89.18" x2="95.75" y2="88.21"/><ellipse class="cls-8" cx="89.09" cy="84.76" rx="0.27" ry="0.52" transform="translate(-22.68 136.02) rotate(-68.21)"/><ellipse class="cls-16" cx="91.56" cy="87.27" rx="0.47" ry="0.9" transform="translate(-23.46 139.9) rotate(-68.21)"/></g></svg>