<svg xmlns="http://www.w3.org/2000/svg" viewBox="0 0 127.33 233.43"><defs><style>.cls-1{fill:#f07422;}.cls-2{fill:#fdba40;}.cls-3{fill:#ffc859;}.cls-4{fill:#212121;}.cls-5{fill:#34353d;}.cls-11,.cls-13,.cls-6{fill:#231f20;}.cls-7{fill:#d23427;}.cls-8{fill:#ffc85a;}.cls-9{fill:#fcb96e;}.cls-10,.cls-16{fill:none;}.cls-10{stroke:#ffe2ae;stroke-width:0.25px;}.cls-10,.cls-11,.cls-12,.cls-16{stroke-miterlimit:10;}.cls-11,.cls-13{stroke:#231f20;}.cls-11,.cls-13,.cls-16{stroke-width:0.5px;}.cls-12,.cls-14{fill:#fff;stroke:#c8c8c8;}.cls-13,.cls-14{stroke-linejoin:round;}.cls-14{stroke-linecap:round;}.cls-15{fill:#0b0a0f;}.cls-16{stroke:#ffc85a;}</style></defs><title>BFL_5</title><g id="Layer_2" data-name="Layer 2"><ellipse class="cls-1" cx="63.47" cy="55.33" rx="13.75" ry="4.32"/><ellipse class="cls-2" cx="63.47" cy="50.15" rx="17.52" ry="6.4"/><ellipse class="cls-3" cx="63.47" cy="44.62" rx="19.19" ry="6.4"/><path class="cls-4" d="M59,199.18c-3.81-5.37-12.92-5.45-20.34-.18s-19,5-15.17,10.4l8.9,1.54Z"/><path class="cls-4" d="M62.79,199.67c3.71-5.44,12.81-5.69,20.33-.55s19.07,4.68,15.36,10.11l-8.87,1.71Z"/><path class="cls-5" d="M64.67,141.1s-1.7,15-1.82,19.24-4.91,38.5-4.91,38.5H38.51s-.28-16.84-.65-35.45c-.37-18.3,0-18.69,0-24.76s5.86-53.55,5.86-53.55h39.5s5.77,47.44,5.87,51.39a109.16,109.16,0,0,1-.5,17.92c-.38,3.25-6.16,44.84-6.3,44.45H63.9s1.06-35.05,1.44-39.28c.22-2.5.5-18.63.5-18.63Z"/><path class="cls-6" d="M48.32,52.65c-2.2-1.69-3.74-2.88-3.92-5.71-.37-5.83,8.39-14.52,19-14.52S83.6,40.07,82.5,47.69c-.37,2.62-3.37,4.55-5,5.92L63.47,43Z"/><path class="cls-7" d="M78,49c0,3.8-6.5,5.85-14.51,5.85S49,52.82,49,49s6.5-6.87,14.51-6.87S78,45.23,78,49Z"/><path class="cls-8" d="M78,50.83c0,3.54-6.5,5.38-14.51,5.38S49,54.37,49,50.83s6.5-6.41,14.51-6.41S78,47.29,78,50.83Z"/><path class="cls-7" d="M77.94,51.36c0,3-6.48,5.38-14.47,5.38S49,54.33,49,51.36,55.48,47,63.47,47,77.94,48.39,77.94,51.36Z"/><polygon class="cls-9" points="82.55 82.56 44.39 82.56 49.66 51.35 77.28 51.35 82.55 82.56"/><ellipse class="cls-8" cx="63.47" cy="38.11" rx="1.43" ry="1.41" transform="translate(-8.33 56.17) rotate(-45.1)"/><ellipse class="cls-10" cx="63.47" cy="38.25" rx="2.57" ry="2.56" transform="translate(-8.22 57.02) rotate(-45.74)"/><polygon class="cls-11" points="49.69 51.19 48.51 59.69 51.39 53.83 62.79 52.19 75.55 53.83 78.43 59.69 77.28 51.35 49.69 51.19"/><ellipse class="cls-6" cx="56.68" cy="61.43" rx="1.15" ry="2.01"/><ellipse class="cls-6" cx="70.25" cy="61.43" rx="1.15" ry="2.01"/><path class="cls-5" d="M79.42,53.24c0,3-7.88-1.76-16.81-1.76s-15.09,4.81-15.09,1.76,6.8-5.79,15.73-5.79S79.42,50.19,79.42,53.24Z"/><polygon class="cls-12" points="43.72 85.08 83.22 85.08 88.61 131.15 38.43 131.15 43.72 85.08"/><polygon class="cls-13" points="63.52 92.36 61.87 90.16 60.23 87.95 63.52 87.95 66.81 87.95 65.16 90.16 63.52 92.36"/><polygon class="cls-13" points="63.52 92.36 60.38 109.69 63.52 115.28 66.81 109.69 63.52 92.36"/><path class="cls-9" d="M36.69,96.08,46,98.7s-4.06,4.62-3.7,8.85S46.08,122,46.08,122l-7.42,3.39s-7.21-14.9-5.51-21.58C36,93.77,36.69,96.08,36.69,96.08Z"/><ellipse class="cls-9" cx="46.01" cy="130.3" rx="4.35" ry="5.23" transform="translate(-70.95 56.7) rotate(-38.37)"/><polyline class="cls-14" points="43.46 85.08 32.67 99.26 46.97 100.67 50.29 92.57"/><polygon class="cls-15" points="46.93 86.21 42.22 91.01 36.63 90.05 41.34 85.25 46.12 83.7 46.93 86.21"/><line class="cls-16" x1="43.14" y1="90.08" x2="37.55" y2="89.11"/><line class="cls-16" x1="44.01" y1="89.18" x2="38.43" y2="88.21"/><ellipse class="cls-8" cx="45.09" cy="84.76" rx="0.52" ry="0.27" transform="translate(-28.24 22.79) rotate(-21.79)"/><ellipse class="cls-16" cx="42.62" cy="87.27" rx="0.9" ry="0.47" transform="translate(-29.35 22.05) rotate(-21.79)"/><path class="cls-9" d="M94.24,90.53l-7.81,5.63s5.39,3,6.5,7.06,1.35,14.91,1.35,14.91l8.14.65s1.67-16.47-2.21-22.16C94.08,88.14,94.24,90.53,94.24,90.53Z"/><ellipse class="cls-9" cx="97.18" cy="125.88" rx="5.23" ry="4.35" transform="matrix(0.32, -0.95, 0.95, 0.32, -52.91, 178.44)"/><polyline class="cls-14" points="84.11 82.51 99.1 92.15 86.15 98.36 80.25 91.89"/><polygon class="cls-15" points="81.24 84.77 87.31 87.66 92.22 84.84 86.15 81.95 81.14 82.13 81.24 84.77"/><line class="cls-16" x1="86.12" y1="87.1" x2="91.04" y2="84.28"/><line class="cls-16" x1="84.99" y1="86.56" x2="89.91" y2="83.74"/><ellipse class="cls-8" cx="82.47" cy="82.77" rx="0.27" ry="0.52" transform="translate(-2.83 162.61) rotate(-88.21)"/><ellipse class="cls-16" cx="85.65" cy="84.29" rx="0.47" ry="0.9" transform="translate(-1.27 167.26) rotate(-88.21)"/></g></svg>