<svg xmlns="http://www.w3.org/2000/svg" viewBox="0 0 127.33 233.43"><defs><style>.cls-1{fill:#f07422;}.cls-2{fill:#fdba40;}.cls-3{fill:#ffc859;}.cls-4{fill:#212121;}.cls-5{fill:#34353d;}.cls-11,.cls-13,.cls-6{fill:#231f20;}.cls-7{fill:#d23427;}.cls-8{fill:#ffc85a;}.cls-9{fill:#fcb96e;}.cls-10,.cls-16{fill:none;}.cls-10{stroke:#ffe2ae;stroke-width:0.25px;}.cls-10,.cls-11,.cls-12,.cls-16{stroke-miterlimit:10;}.cls-11,.cls-13{stroke:#231f20;}.cls-11,.cls-13,.cls-16{stroke-width:0.5px;}.cls-12,.cls-14{fill:#fff;stroke:#c8c8c8;}.cls-13,.cls-14{stroke-linejoin:round;}.cls-14{stroke-linecap:round;}.cls-15{fill:#0b0a0f;}.cls-16{stroke:#ffc85a;}</style></defs><title>BFL_5</title><g id="Layer_2" data-name="Layer 2"><ellipse class="cls-1" cx="62.03" cy="55.33" rx="13.75" ry="4.32"/><ellipse class="cls-2" cx="62.03" cy="50.15" rx="17.52" ry="6.4"/><ellipse class="cls-3" cx="62.03" cy="44.62" rx="19.19" ry="6.4"/><path class="cls-4" d="M66.52,199.18c3.81-5.37,12.92-5.45,20.34-.18s19,5,15.17,10.4l-8.9,1.54Z"/><path class="cls-4" d="M62.71,199.67C59,194.23,49.9,194,42.38,199.12S23.31,203.8,27,209.23l8.87,1.71Z"/><path class="cls-5" d="M60.83,141.1s1.7,15,1.82,19.24,4.91,38.5,4.91,38.5H87s.28-16.84.65-35.45c.37-18.3,0-18.69,0-24.76s-5.85-53.55-5.85-53.55H42.28s-5.77,47.44-5.87,51.39a109.16,109.16,0,0,0,.5,17.92c.38,3.25,6.16,44.84,6.3,44.45H61.6s-1.06-35.05-1.44-39.28c-.22-2.5-.5-18.63-.5-18.63Z"/><path class="cls-6" d="M77.18,52.65c2.2-1.69,3.74-2.88,3.92-5.71.37-5.83-8.39-14.52-19-14.52S41.9,40.07,43,47.69c.38,2.62,3.37,4.55,5,5.92L62,43Z"/><path class="cls-7" d="M47.52,49c0,3.8,6.5,5.85,14.51,5.85s14.51-2,14.51-5.85S70,42.15,62,42.15,47.52,45.23,47.52,49Z"/><path class="cls-8" d="M47.52,50.83c0,3.54,6.5,5.38,14.51,5.38s14.51-1.84,14.51-5.38S70,44.42,62,44.42,47.52,47.29,47.52,50.83Z"/><path class="cls-7" d="M47.56,51.36c0,3,6.48,5.38,14.47,5.38s14.46-2.41,14.46-5.38S70,47,62,47,47.56,48.39,47.56,51.36Z"/><polygon class="cls-9" points="42.95 82.56 81.11 82.56 75.84 51.35 48.22 51.35 42.95 82.56"/><ellipse class="cls-8" cx="62.03" cy="38.11" rx="1.41" ry="1.43" transform="translate(-8.81 54.9) rotate(-44.9)"/><ellipse class="cls-10" cx="62.03" cy="38.25" rx="2.56" ry="2.57" transform="translate(-9.09 54.14) rotate(-44.26)"/><polygon class="cls-11" points="75.81 51.19 76.99 59.69 74.11 53.83 62.71 52.19 49.95 53.83 47.07 59.69 48.22 51.35 75.81 51.19"/><ellipse class="cls-6" cx="68.82" cy="61.43" rx="1.15" ry="2.01"/><ellipse class="cls-6" cx="55.25" cy="61.43" rx="1.15" ry="2.01"/><path class="cls-5" d="M46.08,53.24c0,3,7.88-1.76,16.81-1.76S78,56.29,78,53.24s-6.8-5.79-15.73-5.79S46.08,50.19,46.08,53.24Z"/><polygon class="cls-12" points="81.78 85.08 42.28 85.08 36.9 131.15 87.07 131.15 81.78 85.08"/><polygon class="cls-13" points="61.98 92.36 63.63 90.16 65.27 87.95 61.98 87.95 58.69 87.95 60.34 90.16 61.98 92.36"/><polygon class="cls-13" points="61.98 92.36 65.13 109.69 61.98 115.28 58.69 109.69 61.98 92.36"/><path class="cls-9" d="M88.82,96.08,79.55,98.7s4.06,4.62,3.7,8.85S79.42,122,79.42,122l7.43,3.39s7.2-14.9,5.5-21.58C89.48,93.77,88.82,96.08,88.82,96.08Z"/><ellipse class="cls-9" cx="79.49" cy="130.3" rx="5.23" ry="4.35" transform="translate(-72.01 111.74) rotate(-51.63)"/><polyline class="cls-14" points="82.04 85.08 92.83 99.26 78.53 100.67 75.21 92.57"/><polygon class="cls-15" points="78.57 86.21 83.29 91.01 88.87 90.05 84.16 85.25 79.38 83.7 78.57 86.21"/><line class="cls-16" x1="82.36" y1="90.08" x2="87.95" y2="89.11"/><line class="cls-16" x1="81.49" y1="89.18" x2="87.07" y2="88.21"/><ellipse class="cls-8" cx="80.41" cy="84.76" rx="0.27" ry="0.52" transform="translate(-28.14 127.96) rotate(-68.21)"/><ellipse class="cls-16" cx="82.88" cy="87.27" rx="0.47" ry="0.9" transform="translate(-28.92 131.84) rotate(-68.21)"/><path class="cls-9" d="M31.26,90.53l7.81,5.63s-5.39,3-6.5,7.06-1.35,14.91-1.35,14.91l-8.14.65s-1.67-16.47,2.21-22.16C31.42,88.14,31.26,90.53,31.26,90.53Z"/><ellipse class="cls-9" cx="28.32" cy="125.88" rx="4.35" ry="5.23" transform="translate(-38.23 15.34) rotate(-18.37)"/><polyline class="cls-14" points="41.39 82.51 26.4 92.15 39.35 98.36 45.25 91.89"/><polygon class="cls-15" points="44.26 84.77 38.19 87.66 33.28 84.84 39.35 81.95 44.36 82.13 44.26 84.77"/><line class="cls-16" x1="39.38" y1="87.1" x2="34.46" y2="84.28"/><line class="cls-16" x1="40.51" y1="86.56" x2="35.59" y2="83.74"/><ellipse class="cls-8" cx="43.03" cy="82.77" rx="0.52" ry="0.27" transform="translate(-2.56 1.38) rotate(-1.79)"/><ellipse class="cls-16" cx="39.85" cy="84.29" rx="0.9" ry="0.47" transform="translate(-2.61 1.28) rotate(-1.79)"/></g></svg>