<svg xmlns="http://www.w3.org/2000/svg" viewBox="0 0 127.33 233.43"><defs><style>.cls-1{fill:#f07422;}.cls-2{fill:#fdba40;}.cls-3{fill:#ffc859;}.cls-4{fill:#212121;}.cls-5{fill:#34353d;}.cls-11,.cls-13,.cls-6{fill:#231f20;}.cls-7{fill:#d23427;}.cls-8{fill:#ffc85a;}.cls-9{fill:#fcb96e;}.cls-10,.cls-16{fill:none;}.cls-10{stroke:#ffe2ae;stroke-width:0.25px;}.cls-10,.cls-11,.cls-12,.cls-16{stroke-miterlimit:10;}.cls-11,.cls-13{stroke:#231f20;}.cls-11,.cls-13,.cls-16{stroke-width:0.5px;}.cls-12,.cls-14{fill:#fff;stroke:#c8c8c8;}.cls-13,.cls-14{stroke-linejoin:round;}.cls-14{stroke-linecap:round;}.cls-15{fill:#0b0a0f;}.cls-16{stroke:#ffc85a;}</style></defs><title>BFL_6</title><g id="Layer_2" data-name="Layer 2"><ellipse class="cls-1" cx="61.63" cy="55.33" rx="13.75" ry="4.32"/><ellipse class="cls-2" cx="61.63" cy="50.15" rx="17.52" ry="6.4"/><ellipse class="cls-3" cx="61.63" cy="44.62" rx="19.19" ry="6.4"/><path class="cls-4" d="M57.15,199.18c-3.82-5.37-12.92-5.45-20.34-.18s-19,5-15.17,10.4l8.89,1.54Z"/><path class="cls-4" d="M61,199.67c3.71-5.44,12.82-5.69,20.33-.55s19.07,4.68,15.36,10.11l-8.87,1.71Z"/><path class="cls-5" d="M62.84,141.1s-1.71,15-1.82,19.24-4.92,38.5-4.92,38.5H36.67S36.39,182,36,163.39c-.37-18.3,0-18.69,0-24.76s5.86-53.55,5.86-53.55h39.5s5.77,47.44,5.87,51.39a109.16,109.16,0,0,1-.5,17.92c-.37,3.25-6.15,44.84-6.3,44.45H62.06s1.07-35.05,1.44-39.28c.23-2.5.5-18.63.5-18.63Z"/><path class="cls-6" d="M46.48,52.65c-2.2-1.69-3.73-2.88-3.91-5.71-.37-5.83,8.38-14.52,19-14.52s20.24,7.65,19.15,15.27c-.38,2.62-3.38,4.55-5,5.92L61.63,43Z"/><path class="cls-7" d="M76.14,49c0,3.8-6.49,5.85-14.51,5.85s-14.5-2-14.5-5.85,6.49-6.87,14.5-6.87S76.14,45.23,76.14,49Z"/><path class="cls-8" d="M76.14,50.83c0,3.54-6.49,5.38-14.51,5.38s-14.5-1.84-14.5-5.38,6.49-6.41,14.5-6.41S76.14,47.29,76.14,50.83Z"/><path class="cls-7" d="M76.1,51.36c0,3-6.48,5.38-14.47,5.38s-14.46-2.41-14.46-5.38S53.64,47,61.63,47,76.1,48.39,76.1,51.36Z"/><polygon class="cls-9" points="80.71 82.56 42.56 82.56 47.82 51.35 75.45 51.35 80.71 82.56"/><ellipse class="cls-8" cx="61.63" cy="38.11" rx="1.43" ry="1.41" transform="translate(-8.87 54.87) rotate(-45.1)"/><ellipse class="cls-10" cx="61.63" cy="38.25" rx="2.57" ry="2.56" transform="translate(-8.78 55.7) rotate(-45.74)"/><polygon class="cls-11" points="47.85 51.19 46.67 59.69 49.56 53.83 60.95 52.19 73.71 53.83 76.59 59.69 75.45 51.35 47.85 51.19"/><ellipse class="cls-6" cx="54.85" cy="61.43" rx="1.15" ry="2.01"/><ellipse class="cls-6" cx="68.42" cy="61.43" rx="1.15" ry="2.01"/><path class="cls-5" d="M77.58,53.24c0,3-7.88-1.76-16.81-1.76s-15.08,4.81-15.08,1.76,6.79-5.79,15.72-5.79S77.58,50.19,77.58,53.24Z"/><polygon class="cls-12" points="41.88 85.08 81.38 85.08 86.77 131.15 36.59 131.15 41.88 85.08"/><polygon class="cls-13" points="61.68 92.36 60.04 90.16 58.39 87.95 61.68 87.95 64.97 87.95 63.33 90.16 61.68 92.36"/><polygon class="cls-13" points="61.68 92.36 58.54 109.69 61.68 115.28 64.97 109.69 61.68 92.36"/><path class="cls-9" d="M34.85,96.08l9.26,2.62s-4.06,4.62-3.7,8.85S44.24,122,44.24,122l-7.42,3.39s-7.2-14.9-5.51-21.58C34.18,93.77,34.85,96.08,34.85,96.08Z"/><ellipse class="cls-9" cx="44.17" cy="130.3" rx="4.35" ry="5.23" transform="translate(-71.34 55.56) rotate(-38.37)"/><polyline class="cls-14" points="41.62 85.08 30.84 99.26 45.13 100.67 48.45 92.57"/><polygon class="cls-15" points="45.09 86.21 40.38 91.01 34.79 90.05 39.51 85.25 44.29 83.7 45.09 86.21"/><line class="cls-16" x1="41.3" y1="90.08" x2="35.71" y2="89.11"/><line class="cls-16" x1="42.18" y1="89.18" x2="36.59" y2="88.21"/><ellipse class="cls-8" cx="43.25" cy="84.76" rx="0.52" ry="0.27" transform="translate(-28.37 22.11) rotate(-21.79)"/><ellipse class="cls-16" cx="40.78" cy="87.27" rx="0.9" ry="0.47" transform="translate(-29.48 21.37) rotate(-21.79)"/><path class="cls-9" d="M93.32,87.41,86.61,94.3s5.82,2,7.63,5.82,3.92,14.45,3.92,14.45l8.12-.77s-1.21-16.51-6-21.44C92.75,85.07,93.32,87.41,93.32,87.41Z"/><ellipse class="cls-9" cx="102.36" cy="121.71" rx="5.23" ry="4.35" transform="translate(-32.95 205.26) rotate(-81.63)"/><polyline class="cls-14" points="81.96 81.26 98.39 88.15 86.71 96.52 79.78 91.17"/><polygon class="cls-15" points="79.52 83.98 86 85.78 90.35 82.15 83.87 80.35 78.96 81.41 79.52 83.98"/><line class="cls-16" x1="84.73" y1="85.43" x2="89.09" y2="81.8"/><line class="cls-16" x1="83.53" y1="85.09" x2="87.88" y2="81.46"/><ellipse class="cls-8" cx="80.38" cy="81.8" rx="0.52" ry="0.27" transform="matrix(0.99, -0.14, 0.14, 0.99, -10.86, 12.32)"/><ellipse class="cls-16" cx="83.78" cy="82.75" rx="0.9" ry="0.47" transform="translate(-10.96 12.81) rotate(-8.21)"/></g></svg>