<svg xmlns="http://www.w3.org/2000/svg" viewBox="0 0 127.33 233.43"><defs><style>.cls-1{fill:#f07422;}.cls-2{fill:#fdba40;}.cls-3{fill:#ffc859;}.cls-4{fill:#212121;}.cls-5{fill:#34353d;}.cls-11,.cls-13,.cls-6{fill:#231f20;}.cls-7{fill:#d23427;}.cls-8{fill:#ffc85a;}.cls-9{fill:#fcb96e;}.cls-10,.cls-16{fill:none;}.cls-10{stroke:#ffe2ae;stroke-width:0.25px;}.cls-10,.cls-11,.cls-12,.cls-16{stroke-miterlimit:10;}.cls-11,.cls-13{stroke:#231f20;}.cls-11,.cls-13,.cls-16{stroke-width:0.5px;}.cls-12,.cls-14{fill:#fff;stroke:#c8c8c8;}.cls-13,.cls-14{stroke-linejoin:round;}.cls-14{stroke-linecap:round;}.cls-15{fill:#0b0a0f;}.cls-16{stroke:#ffc85a;}</style></defs><title>BFL_1</title><g id="Layer_2" data-name="Layer 2"><ellipse class="cls-1" cx="64.69" cy="55.33" rx="13.75" ry="4.32"/><ellipse class="cls-2" cx="64.69" cy="50.15" rx="17.52" ry="6.4"/><ellipse class="cls-3" cx="64.69" cy="44.62" rx="19.19" ry="6.4"/><path class="cls-4" d="M60.2,199.18c-3.81-5.37-12.92-5.45-20.34-.18s-19,5-15.17,10.4l8.9,1.54Z"/><path class="cls-4" d="M64,199.67c3.71-5.44,12.81-5.69,20.33-.55s19.07,4.68,15.36,10.11l-8.87,1.71Z"/><path class="cls-5" d="M65.89,141.1s-1.7,15-1.82,19.24-4.91,38.5-4.91,38.5H39.73s-.28-16.84-.65-35.45c-.37-18.3,0-18.69,0-24.76s5.86-53.55,5.86-53.55h39.5s5.77,47.44,5.87,51.39a109.16,109.16,0,0,1-.5,17.92c-.38,3.25-6.16,44.84-6.3,44.45H65.12s1.06-35.05,1.44-39.28c.22-2.5.5-18.63.5-18.63Z"/><path class="cls-6" d="M49.54,52.65c-2.2-1.69-3.74-2.88-3.92-5.71-.37-5.83,8.39-14.52,19-14.52s20.24,7.65,19.14,15.27c-.37,2.62-3.37,4.55-5,5.92L64.69,43Z"/><path class="cls-7" d="M79.2,49c0,3.8-6.5,5.85-14.51,5.85s-14.51-2-14.51-5.85,6.5-6.87,14.51-6.87S79.2,45.23,79.2,49Z"/><path class="cls-8" d="M79.2,50.83c0,3.54-6.5,5.38-14.51,5.38s-14.51-1.84-14.51-5.38,6.5-6.41,14.51-6.41S79.2,47.29,79.2,50.83Z"/><path class="cls-7" d="M79.16,51.36c0,3-6.48,5.38-14.47,5.38s-14.46-2.41-14.46-5.38S56.7,47,64.69,47,79.16,48.39,79.16,51.36Z"/><polygon class="cls-9" points="83.77 82.56 45.61 82.56 50.88 51.35 78.5 51.35 83.77 82.56"/><ellipse class="cls-8" cx="64.69" cy="38.11" rx="1.43" ry="1.41" transform="translate(-7.97 57.03) rotate(-45.1)"/><ellipse class="cls-10" cx="64.69" cy="38.25" rx="2.57" ry="2.56" transform="translate(-7.85 57.89) rotate(-45.74)"/><polygon class="cls-11" points="50.91 51.19 49.73 59.69 52.61 53.83 64.01 52.19 76.77 53.83 79.65 59.69 78.5 51.35 50.91 51.19"/><ellipse class="cls-6" cx="57.9" cy="61.43" rx="1.15" ry="2.01"/><ellipse class="cls-6" cx="71.47" cy="61.43" rx="1.15" ry="2.01"/><path class="cls-5" d="M80.64,53.24c0,3-7.88-1.76-16.81-1.76s-15.09,4.81-15.09,1.76,6.8-5.79,15.73-5.79S80.64,50.19,80.64,53.24Z"/><polygon class="cls-12" points="44.94 85.08 84.44 85.08 89.83 131.15 39.65 131.15 44.94 85.08"/><polygon class="cls-13" points="64.74 92.36 63.09 90.16 61.45 87.95 64.74 87.95 68.03 87.95 66.38 90.16 64.74 92.36"/><polygon class="cls-13" points="64.74 92.36 61.6 109.69 64.74 115.28 68.03 109.69 64.74 92.36"/><path class="cls-9" d="M34.52,90.53l7.81,5.63s-5.4,3-6.5,7.06-1.36,14.91-1.36,14.91l-8.13.65s-1.67-16.47,2.2-22.16C34.68,88.14,34.52,90.53,34.52,90.53Z"/><ellipse class="cls-9" cx="31.58" cy="125.88" rx="4.35" ry="5.23" transform="translate(-38.06 16.37) rotate(-18.37)"/><polyline class="cls-14" points="44.65 82.51 29.66 92.15 42.61 98.36 48.51 91.89"/><polygon class="cls-15" points="47.52 84.77 41.45 87.66 36.53 84.84 42.6 81.95 47.62 82.13 47.52 84.77"/><line class="cls-16" x1="42.63" y1="87.1" x2="37.72" y2="84.28"/><line class="cls-16" x1="43.76" y1="86.56" x2="38.85" y2="83.74"/><ellipse class="cls-8" cx="46.29" cy="82.77" rx="0.52" ry="0.27" transform="translate(-2.56 1.48) rotate(-1.79)"/><ellipse class="cls-16" cx="43.11" cy="84.29" rx="0.9" ry="0.47" transform="translate(-2.61 1.39) rotate(-1.79)"/><path class="cls-9" d="M92.07,96.08,82.81,98.7s4.06,4.62,3.7,8.85S82.68,122,82.68,122l7.42,3.39s7.2-14.9,5.51-21.58C92.74,93.77,92.07,96.08,92.07,96.08Z"/><ellipse class="cls-9" cx="82.75" cy="130.3" rx="5.23" ry="4.35" transform="translate(-70.78 114.3) rotate(-51.63)"/><polyline class="cls-14" points="85.3 85.08 96.08 99.26 81.79 100.67 78.47 92.57"/><polygon class="cls-15" points="81.83 86.21 86.54 91.01 92.13 90.05 87.41 85.25 82.63 83.7 81.83 86.21"/><line class="cls-16" x1="85.62" y1="90.08" x2="91.21" y2="89.11"/><line class="cls-16" x1="84.74" y1="89.18" x2="90.33" y2="88.21"/><ellipse class="cls-8" cx="83.67" cy="84.76" rx="0.27" ry="0.52" transform="translate(-26.09 130.99) rotate(-68.21)"/><ellipse class="cls-16" cx="86.14" cy="87.27" rx="0.47" ry="0.9" transform="translate(-26.87 134.86) rotate(-68.21)"/></g></svg>