<svg xmlns="http://www.w3.org/2000/svg" viewBox="0 0 127.33 233.43"><defs><style>.cls-1{fill:#f07422;}.cls-2{fill:#fdba40;}.cls-3{fill:#ffc859;}.cls-4{fill:#212121;}.cls-5{fill:#34353d;}.cls-11,.cls-13,.cls-6{fill:#231f20;}.cls-7{fill:#d23427;}.cls-8{fill:#ffc85a;}.cls-9{fill:#fcb96e;}.cls-10,.cls-16{fill:none;}.cls-10{stroke:#ffe2ae;stroke-width:0.25px;}.cls-10,.cls-11,.cls-12,.cls-16{stroke-miterlimit:10;}.cls-11,.cls-13{stroke:#231f20;}.cls-11,.cls-13,.cls-16{stroke-width:0.5px;}.cls-12,.cls-14{fill:#fff;stroke:#c8c8c8;}.cls-13,.cls-14{stroke-linejoin:round;}.cls-14{stroke-linecap:round;}.cls-15{fill:#0b0a0f;}.cls-16{stroke:#ffc85a;}</style></defs><title>BFL_4</title><g id="Layer_2" data-name="Layer 2"><ellipse class="cls-1" cx="57.05" cy="55.33" rx="13.75" ry="4.32"/><ellipse class="cls-2" cx="57.05" cy="50.15" rx="17.52" ry="6.4"/><ellipse class="cls-3" cx="57.05" cy="44.62" rx="19.19" ry="6.4"/><path class="cls-4" d="M61.53,199.18c3.82-5.37,12.92-5.45,20.34-.18s19,5,15.17,10.4l-8.9,1.54Z"/><path class="cls-4" d="M57.73,199.67C54,194.23,44.91,194,37.4,199.12S18.32,203.8,22,209.23l8.87,1.71Z"/><path class="cls-5" d="M55.84,141.1s1.71,15,1.82,19.24,4.92,38.5,4.92,38.5H82s.28-16.84.65-35.45c.36-18.3,0-18.69,0-24.76S76.8,85.08,76.8,85.08H37.3s-5.77,47.44-5.87,51.39c-.17,6.84-.33,10.84.5,17.92.37,3.25,6.15,44.84,6.3,44.45H56.62s-1.07-35.05-1.44-39.28c-.23-2.5-.5-18.63-.5-18.63Z"/><path class="cls-6" d="M72.2,52.65c2.2-1.69,3.73-2.88,3.91-5.71.37-5.83-8.38-14.52-19-14.52S36.91,40.07,38,47.69c.38,2.62,3.37,4.55,5,5.92L57.05,43Z"/><path class="cls-7" d="M42.54,49c0,3.8,6.49,5.85,14.51,5.85s14.5-2,14.5-5.85-6.49-6.87-14.5-6.87S42.54,45.23,42.54,49Z"/><path class="cls-8" d="M42.54,50.83c0,3.54,6.49,5.38,14.51,5.38s14.5-1.84,14.5-5.38-6.49-6.41-14.5-6.41S42.54,47.29,42.54,50.83Z"/><path class="cls-7" d="M42.58,51.36c0,3,6.48,5.38,14.47,5.38s14.46-2.41,14.46-5.38S65,47,57.05,47,42.58,48.39,42.58,51.36Z"/><polygon class="cls-9" points="37.97 82.56 76.12 82.56 70.86 51.35 43.23 51.35 37.97 82.56"/><ellipse class="cls-8" cx="57.05" cy="38.11" rx="1.41" ry="1.43" transform="translate(-10.26 51.38) rotate(-44.9)"/><ellipse class="cls-10" cx="57.05" cy="38.25" rx="2.56" ry="2.57" transform="translate(-10.51 50.67) rotate(-44.26)"/><polygon class="cls-11" points="70.83 51.19 72.01 59.69 69.12 53.83 57.73 52.19 44.97 53.83 42.08 59.69 43.23 51.35 70.83 51.19"/><ellipse class="cls-6" cx="63.83" cy="61.43" rx="1.15" ry="2.01"/><ellipse class="cls-6" cx="50.26" cy="61.43" rx="1.15" ry="2.01"/><path class="cls-5" d="M41.1,53.24c0,3,7.87-1.76,16.81-1.76S73,56.29,73,53.24s-6.79-5.79-15.72-5.79S41.1,50.19,41.1,53.24Z"/><polygon class="cls-12" points="76.8 85.08 37.3 85.08 31.91 131.15 82.08 131.15 76.8 85.08"/><polygon class="cls-13" points="57 92.36 58.64 90.16 60.29 87.95 57 87.95 53.71 87.95 55.35 90.16 57 92.36"/><polygon class="cls-13" points="57 92.36 60.14 109.69 57 115.28 53.71 109.69 57 92.36"/><path class="cls-9" d="M83.83,96.08,74.57,98.7s4.06,4.62,3.7,8.85S74.44,122,74.44,122l7.42,3.39s7.2-14.9,5.51-21.58C84.5,93.77,83.83,96.08,83.83,96.08Z"/><ellipse class="cls-9" cx="74.51" cy="130.3" rx="5.23" ry="4.35" transform="translate(-73.9 107.83) rotate(-51.63)"/><polyline class="cls-14" points="77.06 85.08 87.84 99.26 73.55 100.67 70.22 92.57"/><polygon class="cls-15" points="73.59 86.21 78.3 91.01 83.89 90.05 79.17 85.25 74.39 83.7 73.59 86.21"/><line class="cls-16" x1="77.38" y1="90.08" x2="82.97" y2="89.11"/><line class="cls-16" x1="76.5" y1="89.18" x2="82.09" y2="88.21"/><ellipse class="cls-8" cx="75.43" cy="84.76" rx="0.27" ry="0.52" transform="matrix(0.37, -0.93, 0.93, 0.37, -31.27, 123.34)"/><ellipse class="cls-16" cx="77.9" cy="87.27" rx="0.47" ry="0.9" transform="matrix(0.37, -0.93, 0.93, 0.37, -32.06, 127.21)"/><path class="cls-9" d="M27.73,93.46l8.66,4.18s-4.79,3.84-5.17,8.08,1.25,14.92,1.25,14.92l-7.9,2s-4.5-15.92-1.67-22.21C27.47,91.07,27.73,93.46,27.73,93.46Z"/><ellipse class="cls-9" cx="30.97" cy="128.78" rx="4.35" ry="5.23" transform="translate(-57.47 30.18) rotate(-28.37)"/><polyline class="cls-14" points="36.31 83.8 23.22 95.89 37.06 99.76 41.74 92.36"/><polygon class="cls-15" points="39.53 85.52 34.05 89.42 28.72 87.5 34.2 83.59 39.17 82.91 39.53 85.52"/><line class="cls-16" x1="35.12" y1="88.66" x2="29.79" y2="86.74"/><line class="cls-16" x1="36.14" y1="87.93" x2="30.81" y2="86.01"/><ellipse class="cls-8" cx="37.97" cy="83.76" rx="0.52" ry="0.27" transform="translate(-16.31 9.52) rotate(-11.79)"/><ellipse class="cls-16" cx="35.1" cy="85.81" rx="0.9" ry="0.47" transform="translate(-16.79 8.98) rotate(-11.79)"/></g></svg>