<svg xmlns="http://www.w3.org/2000/svg" viewBox="0 0 127.33 233.43"><defs><style>.cls-1{fill:#f07422;}.cls-2{fill:#fdba40;}.cls-3{fill:#ffc859;}.cls-4{fill:#212121;}.cls-5{fill:#34353d;}.cls-11,.cls-13,.cls-6{fill:#231f20;}.cls-7{fill:#d23427;}.cls-8{fill:#ffc85a;}.cls-9{fill:#fcb96e;}.cls-10,.cls-16{fill:none;}.cls-10{stroke:#ffe2ae;stroke-width:0.25px;}.cls-10,.cls-11,.cls-12,.cls-16{stroke-miterlimit:10;}.cls-11,.cls-13{stroke:#231f20;}.cls-11,.cls-13,.cls-16{stroke-width:0.5px;}.cls-12,.cls-14{fill:#fff;stroke:#c8c8c8;}.cls-13,.cls-14{stroke-linejoin:round;}.cls-14{stroke-linecap:round;}.cls-15{fill:#0b0a0f;}.cls-16{stroke:#ffc85a;}</style></defs><title>BFL_6</title><g id="Layer_2" data-name="Layer 2"><ellipse class="cls-1" cx="64.31" cy="55.33" rx="13.75" ry="4.32"/><ellipse class="cls-2" cx="64.31" cy="50.15" rx="17.52" ry="6.4"/><ellipse class="cls-3" cx="64.31" cy="44.62" rx="19.19" ry="6.4"/><path class="cls-4" d="M68.79,199.18c3.81-5.37,12.92-5.45,20.34-.18s19,5,15.17,10.4l-8.9,1.54Z"/><path class="cls-4" d="M65,199.67c-3.72-5.44-12.82-5.69-20.33-.55S25.58,203.8,29.3,209.23l8.86,1.71Z"/><path class="cls-5" d="M63.1,141.1s1.7,15,1.82,19.24,4.91,38.5,4.91,38.5H89.27s.28-16.84.65-35.45c.36-18.3,0-18.69,0-24.76s-5.86-53.55-5.86-53.55H44.55s-5.77,47.44-5.87,51.39a110.28,110.28,0,0,0,.5,17.92c.38,3.25,6.16,44.84,6.3,44.45h18.4s-1.07-35.05-1.45-39.28c-.22-2.5-.5-18.63-.5-18.63Z"/><path class="cls-6" d="M79.45,52.65c2.2-1.69,3.74-2.88,3.92-5.71.37-5.83-8.38-14.52-19-14.52S44.17,40.07,45.27,47.69c.38,2.62,3.37,4.55,5,5.92L64.3,43Z"/><path class="cls-7" d="M49.79,49c0,3.8,6.5,5.85,14.51,5.85s14.51-2,14.51-5.85-6.49-6.87-14.51-6.87S49.79,45.23,49.79,49Z"/><path class="cls-8" d="M49.79,50.83c0,3.54,6.5,5.38,14.51,5.38s14.51-1.84,14.51-5.38-6.49-6.41-14.51-6.41S49.79,47.29,49.79,50.83Z"/><path class="cls-7" d="M49.84,51.36c0,3,6.47,5.38,14.46,5.38s14.47-2.41,14.47-5.38S72.29,47,64.3,47,49.84,48.39,49.84,51.36Z"/><polygon class="cls-9" points="45.23 82.56 83.38 82.56 78.12 51.35 50.49 51.35 45.23 82.56"/><ellipse class="cls-8" cx="64.3" cy="38.11" rx="1.41" ry="1.43" transform="translate(-8.15 56.51) rotate(-44.9)"/><ellipse class="cls-10" cx="64.3" cy="38.25" rx="2.56" ry="2.57" transform="translate(-8.45 55.73) rotate(-44.26)"/><polygon class="cls-11" points="78.09 51.19 79.26 59.69 76.38 53.83 64.99 52.19 52.23 53.83 49.34 59.69 50.49 51.35 78.09 51.19"/><ellipse class="cls-6" cx="71.09" cy="61.43" rx="1.15" ry="2.01"/><ellipse class="cls-6" cx="57.52" cy="61.43" rx="1.15" ry="2.01"/><path class="cls-5" d="M48.35,53.24c0,3,7.88-1.76,16.81-1.76s15.09,4.81,15.09,1.76-6.79-5.79-15.73-5.79S48.35,50.19,48.35,53.24Z"/><polygon class="cls-12" points="84.06 85.08 44.55 85.08 39.17 131.15 89.34 131.15 84.06 85.08"/><polygon class="cls-13" points="64.26 92.36 65.9 90.16 67.55 87.95 64.26 87.95 60.96 87.95 62.61 90.16 64.26 92.36"/><polygon class="cls-13" points="64.26 92.36 67.4 109.69 64.26 115.28 60.96 109.69 64.26 92.36"/><path class="cls-9" d="M91.09,96.08,81.83,98.7s4.06,4.62,3.69,8.85S81.69,122,81.69,122l7.43,3.39s7.2-14.9,5.5-21.58C91.76,93.77,91.09,96.08,91.09,96.08Z"/><ellipse class="cls-9" cx="81.76" cy="130.3" rx="5.23" ry="4.35" transform="translate(-71.15 113.53) rotate(-51.63)"/><polyline class="cls-14" points="84.32 85.08 95.1 99.26 80.81 100.67 77.48 92.57"/><polygon class="cls-15" points="80.85 86.21 85.56 91.01 91.14 90.05 86.43 85.25 81.65 83.7 80.85 86.21"/><line class="cls-16" x1="84.64" y1="90.08" x2="90.22" y2="89.11"/><line class="cls-16" x1="83.76" y1="89.18" x2="89.34" y2="88.21"/><ellipse class="cls-8" cx="82.68" cy="84.76" rx="0.27" ry="0.52" transform="translate(-26.71 130.08) rotate(-68.21)"/><ellipse class="cls-16" cx="85.15" cy="87.27" rx="0.47" ry="0.9" transform="translate(-27.49 133.95) rotate(-68.21)"/><path class="cls-9" d="M32.61,87.41l6.72,6.89s-5.83,2-7.63,5.82-3.92,14.45-3.92,14.45l-8.13-.77s1.22-16.51,6-21.44C33.19,85.07,32.61,87.41,32.61,87.41Z"/><ellipse class="cls-9" cx="23.58" cy="121.71" rx="4.35" ry="5.23" transform="translate(-17.46 4.73) rotate(-8.37)"/><polyline class="cls-14" points="43.98 81.26 27.55 88.15 39.22 96.52 46.16 91.17"/><polygon class="cls-15" points="46.42 83.98 39.94 85.78 35.59 82.15 42.07 80.35 46.98 81.41 46.42 83.98"/><line class="cls-16" x1="41.2" y1="85.43" x2="36.85" y2="81.8"/><line class="cls-16" x1="42.41" y1="85.09" x2="38.06" y2="81.46"/><ellipse class="cls-8" cx="45.56" cy="81.8" rx="0.27" ry="0.52" transform="translate(-41.91 115.21) rotate(-81.79)"/><ellipse class="cls-16" cx="42.16" cy="82.75" rx="0.47" ry="0.9" transform="translate(-45.76 112.65) rotate(-81.79)"/></g></svg>