<svg xmlns="http://www.w3.org/2000/svg" viewBox="0 0 127.33 233.43"><defs><style>.cls-1{fill:#f07422;}.cls-2{fill:#fdba40;}.cls-3{fill:#ffc859;}.cls-4{fill:#212121;}.cls-5{fill:#34353d;}.cls-11,.cls-13,.cls-6{fill:#231f20;}.cls-7{fill:#d23427;}.cls-8{fill:#ffc85a;}.cls-9{fill:#fcb96e;}.cls-10,.cls-16{fill:none;}.cls-10{stroke:#ffe2ae;stroke-width:0.25px;}.cls-10,.cls-11,.cls-12,.cls-16{stroke-miterlimit:10;}.cls-11,.cls-13{stroke:#231f20;}.cls-11,.cls-13,.cls-16{stroke-width:0.5px;}.cls-12,.cls-14{fill:#fff;stroke:#c8c8c8;}.cls-13,.cls-14{stroke-linejoin:round;}.cls-14{stroke-linecap:round;}.cls-15{fill:#0b0a0f;}.cls-16{stroke:#ffc85a;}</style></defs><title>BFL_3</title><g id="Layer_2" data-name="Layer 2"><ellipse class="cls-1" cx="55.65" cy="55.33" rx="13.75" ry="4.32"/><ellipse class="cls-2" cx="55.65" cy="50.15" rx="17.52" ry="6.4"/><ellipse class="cls-3" cx="55.65" cy="44.62" rx="19.19" ry="6.4"/><path class="cls-4" d="M60.13,199.18c3.82-5.37,12.92-5.45,20.34-.18s19,5,15.17,10.4l-8.9,1.54Z"/><path class="cls-4" d="M56.33,199.67c-3.71-5.44-12.82-5.69-20.33-.55s-19.08,4.68-15.36,10.11l8.87,1.71Z"/><path class="cls-5" d="M54.44,141.1s1.71,15,1.82,19.24,4.92,38.5,4.92,38.5H80.61s.28-16.84.65-35.45c.36-18.3,0-18.69,0-24.76S75.4,85.08,75.4,85.08H35.89S30.12,132.52,30,136.47c-.17,6.84-.33,10.84.5,17.92.37,3.25,6.15,44.84,6.3,44.45H55.22s-1.07-35.05-1.44-39.28c-.23-2.5-.5-18.63-.5-18.63Z"/><path class="cls-6" d="M70.8,52.65c2.2-1.69,3.73-2.88,3.91-5.71.37-5.83-8.38-14.52-18.95-14.52S35.51,40.07,36.61,47.69c.38,2.62,3.37,4.55,5,5.92L55.65,43Z"/><path class="cls-7" d="M41.14,49c0,3.8,6.49,5.85,14.51,5.85s14.5-2,14.5-5.85-6.49-6.87-14.5-6.87S41.14,45.23,41.14,49Z"/><path class="cls-8" d="M41.14,50.83c0,3.54,6.49,5.38,14.51,5.38s14.5-1.84,14.5-5.38-6.49-6.41-14.5-6.41S41.14,47.29,41.14,50.83Z"/><path class="cls-7" d="M41.18,51.36c0,3,6.48,5.38,14.47,5.38s14.46-2.41,14.46-5.38S63.63,47,55.65,47,41.18,48.39,41.18,51.36Z"/><polygon class="cls-9" points="36.57 82.56 74.72 82.56 69.46 51.35 41.83 51.35 36.57 82.56"/><ellipse class="cls-8" cx="55.65" cy="38.11" rx="1.41" ry="1.43" transform="translate(-10.67 50.39) rotate(-44.9)"/><ellipse class="cls-10" cx="55.65" cy="38.25" rx="2.56" ry="2.57" transform="translate(-10.9 49.69) rotate(-44.26)"/><polygon class="cls-11" points="69.43 51.19 70.61 59.69 67.72 53.83 56.33 52.19 43.57 53.83 40.68 59.69 41.83 51.35 69.43 51.19"/><ellipse class="cls-6" cx="62.43" cy="61.43" rx="1.15" ry="2.01"/><ellipse class="cls-6" cx="48.86" cy="61.43" rx="1.15" ry="2.01"/><path class="cls-5" d="M39.7,53.24c0,3,7.87-1.76,16.8-1.76s15.09,4.81,15.09,1.76-6.79-5.79-15.72-5.79S39.7,50.19,39.7,53.24Z"/><polygon class="cls-12" points="75.4 85.08 35.9 85.08 30.51 131.15 80.68 131.15 75.4 85.08"/><polygon class="cls-13" points="55.6 92.36 57.24 90.16 58.89 87.95 55.6 87.95 52.31 87.95 53.95 90.16 55.6 92.36"/><polygon class="cls-13" points="55.6 92.36 58.74 109.69 55.6 115.28 52.31 109.69 55.6 92.36"/><path class="cls-9" d="M82.43,96.08,73.17,98.7s4.06,4.62,3.69,8.85S73,122,73,122l7.42,3.39s7.2-14.9,5.51-21.58C83.1,93.77,82.43,96.08,82.43,96.08Z"/><ellipse class="cls-9" cx="73.11" cy="130.3" rx="5.23" ry="4.35" transform="translate(-74.43 106.74) rotate(-51.63)"/><polyline class="cls-14" points="75.66 85.08 86.44 99.26 72.15 100.67 68.83 92.57"/><polygon class="cls-15" points="72.19 86.21 76.9 91.01 82.48 90.05 77.77 85.25 72.99 83.7 72.19 86.21"/><line class="cls-16" x1="75.98" y1="90.08" x2="81.57" y2="89.11"/><line class="cls-16" x1="75.1" y1="89.18" x2="80.69" y2="88.21"/><ellipse class="cls-8" cx="74.03" cy="84.76" rx="0.27" ry="0.52" transform="translate(-32.15 122.04) rotate(-68.21)"/><ellipse class="cls-16" cx="76.5" cy="87.27" rx="0.47" ry="0.9" transform="translate(-32.94 125.91) rotate(-68.21)"/><path class="cls-9" d="M28.26,96.08l9.26,2.62s-4.05,4.62-3.69,8.85S37.66,122,37.66,122l-7.43,3.39s-7.2-14.9-5.5-21.58C27.6,93.77,28.26,96.08,28.26,96.08Z"/><ellipse class="cls-9" cx="37.59" cy="130.3" rx="4.35" ry="5.23" transform="translate(-72.76 51.48) rotate(-38.37)"/><polyline class="cls-14" points="35.04 85.08 24.25 99.26 38.54 100.67 41.87 92.57"/><polygon class="cls-15" points="38.51 86.21 33.79 91.01 28.21 90.05 32.92 85.25 37.7 83.7 38.51 86.21"/><line class="cls-16" x1="34.72" y1="90.08" x2="29.13" y2="89.11"/><line class="cls-16" x1="35.59" y1="89.18" x2="30.01" y2="88.21"/><ellipse class="cls-8" cx="36.67" cy="84.76" rx="0.52" ry="0.27" transform="translate(-28.84 19.67) rotate(-21.79)"/><ellipse class="cls-16" cx="34.2" cy="87.27" rx="0.9" ry="0.47" transform="translate(-29.95 18.93) rotate(-21.79)"/></g></svg>