<svg xmlns="http://www.w3.org/2000/svg" viewBox="0 0 127.33 233.43"><defs><style>.cls-1{fill:#f07422;}.cls-2{fill:#fdba40;}.cls-3{fill:#ffc859;}.cls-4{fill:#212121;}.cls-5{fill:#34353d;}.cls-11,.cls-13,.cls-6{fill:#231f20;}.cls-7{fill:#d23427;}.cls-8{fill:#ffc85a;}.cls-9{fill:#fcb96e;}.cls-10,.cls-16{fill:none;}.cls-10{stroke:#ffe2ae;stroke-width:0.25px;}.cls-10,.cls-11,.cls-12,.cls-16{stroke-miterlimit:10;}.cls-11,.cls-13{stroke:#231f20;}.cls-11,.cls-13,.cls-16{stroke-width:0.5px;}.cls-12,.cls-14{fill:#fff;stroke:#c8c8c8;}.cls-13,.cls-14{stroke-linejoin:round;}.cls-14{stroke-linecap:round;}.cls-15{fill:#0b0a0f;}.cls-16{stroke:#ffc85a;}</style></defs><title>BFL_3</title><g id="Layer_2" data-name="Layer 2"><ellipse class="cls-1" cx="60.67" cy="55.33" rx="13.75" ry="4.32"/><ellipse class="cls-2" cx="60.67" cy="50.15" rx="17.52" ry="6.4"/><ellipse class="cls-3" cx="60.67" cy="44.62" rx="19.19" ry="6.4"/><path class="cls-4" d="M56.18,199.18c-3.81-5.37-12.92-5.45-20.34-.18s-19,5-15.17,10.4l8.9,1.54Z"/><path class="cls-4" d="M60,199.67c3.71-5.44,12.81-5.69,20.33-.55s19.07,4.68,15.36,10.11l-8.87,1.71Z"/><path class="cls-5" d="M61.87,141.1s-1.7,15-1.82,19.24-4.91,38.5-4.91,38.5H35.71s-.29-16.84-.66-35.45c-.36-18.3,0-18.69,0-24.76s5.86-53.55,5.86-53.55H80.42s5.77,47.44,5.87,51.39a109.16,109.16,0,0,1-.5,17.92c-.38,3.25-6.16,44.84-6.3,44.45H61.1s1.06-35.05,1.44-39.28c.22-2.5.5-18.63.5-18.63Z"/><path class="cls-6" d="M45.52,52.65c-2.2-1.69-3.74-2.88-3.92-5.71-.37-5.83,8.39-14.52,19-14.52S80.8,40.07,79.7,47.69c-.38,2.62-3.37,4.55-5,5.92L60.67,43Z"/><path class="cls-7" d="M75.18,49c0,3.8-6.5,5.85-14.51,5.85s-14.51-2-14.51-5.85,6.5-6.87,14.51-6.87S75.18,45.23,75.18,49Z"/><path class="cls-8" d="M75.18,50.83c0,3.54-6.5,5.38-14.51,5.38s-14.51-1.84-14.51-5.38,6.5-6.41,14.51-6.41S75.18,47.29,75.18,50.83Z"/><path class="cls-7" d="M75.14,51.36c0,3-6.48,5.38-14.47,5.38s-14.46-2.41-14.46-5.38S52.68,47,60.67,47,75.14,48.39,75.14,51.36Z"/><polygon class="cls-9" points="79.75 82.56 41.59 82.56 46.86 51.35 74.48 51.35 79.75 82.56"/><ellipse class="cls-8" cx="60.67" cy="38.11" rx="1.43" ry="1.41" transform="translate(-9.15 54.19) rotate(-45.1)"/><ellipse class="cls-10" cx="60.67" cy="38.25" rx="2.57" ry="2.56" transform="translate(-9.07 55.01) rotate(-45.74)"/><polygon class="cls-11" points="46.88 51.19 45.71 59.69 48.59 53.83 59.99 52.19 72.75 53.83 75.63 59.69 74.48 51.35 46.88 51.19"/><ellipse class="cls-6" cx="53.88" cy="61.43" rx="1.15" ry="2.01"/><ellipse class="cls-6" cx="67.45" cy="61.43" rx="1.15" ry="2.01"/><path class="cls-5" d="M76.62,53.24c0,3-7.88-1.76-16.81-1.76s-15.09,4.81-15.09,1.76,6.8-5.79,15.73-5.79S76.62,50.19,76.62,53.24Z"/><polygon class="cls-12" points="40.91 85.08 80.42 85.08 85.8 131.15 35.63 131.15 40.91 85.08"/><polygon class="cls-13" points="60.72 92.36 59.07 90.16 57.43 87.95 60.72 87.95 64.01 87.95 62.36 90.16 60.72 92.36"/><polygon class="cls-13" points="60.72 92.36 57.58 109.69 60.72 115.28 64.01 109.69 60.72 92.36"/><path class="cls-9" d="M33.88,96.08l9.27,2.62s-4.06,4.62-3.7,8.85S43.28,122,43.28,122l-7.43,3.39s-7.2-14.9-5.5-21.58C33.22,93.77,33.88,96.08,33.88,96.08Z"/><ellipse class="cls-9" cx="43.21" cy="130.3" rx="4.35" ry="5.23" transform="translate(-71.55 54.96) rotate(-38.37)"/><polyline class="cls-14" points="40.66 85.08 29.87 99.26 44.16 100.67 47.49 92.57"/><polygon class="cls-15" points="44.13 86.21 39.41 91.01 33.83 90.05 38.54 85.25 43.32 83.7 44.13 86.21"/><line class="cls-16" x1="40.34" y1="90.08" x2="34.75" y2="89.11"/><line class="cls-16" x1="41.21" y1="89.18" x2="35.63" y2="88.21"/><ellipse class="cls-8" cx="42.29" cy="84.76" rx="0.52" ry="0.27" transform="translate(-28.44 21.75) rotate(-21.79)"/><ellipse class="cls-16" cx="39.82" cy="87.27" rx="0.9" ry="0.47" transform="translate(-29.55 21.01) rotate(-21.79)"/><path class="cls-9" d="M88.05,96.08,78.79,98.7s4.06,4.62,3.7,8.85S78.66,122,78.66,122l7.42,3.39s7.2-14.9,5.51-21.58C88.72,93.77,88.05,96.08,88.05,96.08Z"/><ellipse class="cls-9" cx="78.73" cy="130.3" rx="5.23" ry="4.35" transform="translate(-72.3 111.14) rotate(-51.63)"/><polyline class="cls-14" points="81.28 85.08 92.06 99.26 77.77 100.67 74.44 92.57"/><polygon class="cls-15" points="77.81 86.21 82.52 91.01 88.11 90.05 83.39 85.25 78.61 83.7 77.81 86.21"/><line class="cls-16" x1="81.6" y1="90.08" x2="87.19" y2="89.11"/><line class="cls-16" x1="80.72" y1="89.18" x2="86.31" y2="88.21"/><ellipse class="cls-8" cx="79.65" cy="84.76" rx="0.27" ry="0.52" transform="translate(-28.62 127.25) rotate(-68.21)"/><ellipse class="cls-16" cx="82.12" cy="87.27" rx="0.47" ry="0.9" transform="translate(-29.4 131.13) rotate(-68.21)"/></g></svg>