<svg xmlns="http://www.w3.org/2000/svg" viewBox="0 0 127.33 233.43"><defs><style>.cls-1{fill:#f07422;}.cls-2{fill:#fdba40;}.cls-3{fill:#ffc859;}.cls-4{fill:#212121;}.cls-5{fill:#34353d;}.cls-11,.cls-13,.cls-6{fill:#231f20;}.cls-7{fill:#d23427;}.cls-8{fill:#ffc85a;}.cls-9{fill:#fcb96e;}.cls-10,.cls-16{fill:none;}.cls-10{stroke:#ffe2ae;stroke-width:0.25px;}.cls-10,.cls-11,.cls-12,.cls-16{stroke-miterlimit:10;}.cls-11,.cls-13{stroke:#231f20;}.cls-11,.cls-13,.cls-16{stroke-width:0.5px;}.cls-12,.cls-14{fill:#fff;stroke:#c8c8c8;}.cls-13,.cls-14{stroke-linejoin:round;}.cls-14{stroke-linecap:round;}.cls-15{fill:#0b0a0f;}.cls-16{stroke:#ffc85a;}</style></defs><title>BFL_2</title><g id="Layer_2" data-name="Layer 2"><ellipse class="cls-1" cx="58.8" cy="55.33" rx="13.75" ry="4.32"/><ellipse class="cls-2" cx="58.8" cy="50.15" rx="17.52" ry="6.4"/><ellipse class="cls-3" cx="58.8" cy="44.62" rx="19.19" ry="6.4"/><path class="cls-4" d="M63.28,199.18c3.81-5.37,12.92-5.45,20.34-.18s19,5,15.17,10.4l-8.9,1.54Z"/><path class="cls-4" d="M59.48,199.67c-3.72-5.44-12.82-5.69-20.34-.55s-19.07,4.68-15.36,10.11l8.87,1.71Z"/><path class="cls-5" d="M57.59,141.1s1.7,15,1.82,19.24,4.91,38.5,4.91,38.5H83.75s.29-16.84.66-35.45c.36-18.3,0-18.69,0-24.76s-5.86-53.55-5.86-53.55H39s-5.77,47.44-5.87,51.39a109.16,109.16,0,0,0,.5,17.92c.38,3.25,6.16,44.84,6.3,44.45h18.4s-1.07-35.05-1.45-39.28c-.22-2.5-.5-18.63-.5-18.63Z"/><path class="cls-6" d="M73.94,52.65c2.2-1.69,3.74-2.88,3.92-5.71.37-5.83-8.38-14.52-19-14.52S38.66,40.07,39.76,47.69c.38,2.62,3.37,4.55,5,5.92L58.79,43Z"/><path class="cls-7" d="M44.28,49c0,3.8,6.5,5.85,14.51,5.85S73.3,52.82,73.3,49s-6.49-6.87-14.51-6.87S44.28,45.23,44.28,49Z"/><path class="cls-8" d="M44.28,50.83c0,3.54,6.5,5.38,14.51,5.38S73.3,54.37,73.3,50.83s-6.49-6.41-14.51-6.41S44.28,47.29,44.28,50.83Z"/><path class="cls-7" d="M44.33,51.36c0,3,6.47,5.38,14.46,5.38s14.47-2.41,14.47-5.38S66.78,47,58.79,47,44.33,48.39,44.33,51.36Z"/><polygon class="cls-9" points="39.71 82.56 77.87 82.56 72.61 51.35 44.98 51.35 39.71 82.56"/><ellipse class="cls-8" cx="58.79" cy="38.11" rx="1.41" ry="1.43" transform="translate(-9.75 52.62) rotate(-44.9)"/><ellipse class="cls-10" cx="58.79" cy="38.25" rx="2.56" ry="2.57" transform="translate(-10.01 51.88) rotate(-44.26)"/><polygon class="cls-11" points="72.58 51.19 73.75 59.69 70.87 53.83 59.48 52.19 46.71 53.83 43.83 59.69 44.98 51.35 72.58 51.19"/><ellipse class="cls-6" cx="65.58" cy="61.43" rx="1.15" ry="2.01"/><ellipse class="cls-6" cx="52.01" cy="61.43" rx="1.15" ry="2.01"/><path class="cls-5" d="M42.84,53.24c0,3,7.88-1.76,16.81-1.76s15.09,4.81,15.09,1.76S67.94,47.45,59,47.45,42.84,50.19,42.84,53.24Z"/><polygon class="cls-12" points="78.55 85.08 39.04 85.08 33.66 131.15 83.83 131.15 78.55 85.08"/><polygon class="cls-13" points="58.74 92.36 60.39 90.16 62.04 87.95 58.74 87.95 55.45 87.95 57.1 90.16 58.74 92.36"/><polygon class="cls-13" points="58.74 92.36 61.89 109.69 58.74 115.28 55.45 109.69 58.74 92.36"/><path class="cls-9" d="M87.51,93.46l-8.66,4.18s4.8,3.84,5.17,8.08-1.25,14.92-1.25,14.92l7.9,2s4.5-15.92,1.67-22.21C87.77,91.07,87.51,93.46,87.51,93.46Z"/><ellipse class="cls-9" cx="84.27" cy="128.78" rx="5.23" ry="4.35" transform="translate(-69.08 141.74) rotate(-61.63)"/><polyline class="cls-14" points="78.93 83.8 92.02 95.89 78.19 99.76 73.5 92.36"/><polygon class="cls-15" points="75.71 85.52 81.19 89.42 86.52 87.5 81.04 83.59 76.07 82.91 75.71 85.52"/><line class="cls-16" x1="80.12" y1="88.66" x2="85.45" y2="86.74"/><line class="cls-16" x1="79.1" y1="87.93" x2="84.43" y2="86.01"/><ellipse class="cls-8" cx="77.27" cy="83.76" rx="0.27" ry="0.52" transform="translate(-20.51 142.29) rotate(-78.21)"/><ellipse class="cls-16" cx="80.14" cy="85.81" rx="0.47" ry="0.9" transform="translate(-20.24 146.73) rotate(-78.21)"/><path class="cls-9" d="M31.41,96.08l9.26,2.62s-4.06,4.62-3.69,8.85S40.81,122,40.81,122l-7.43,3.39s-7.2-14.9-5.5-21.58C30.74,93.77,31.41,96.08,31.41,96.08Z"/><ellipse class="cls-9" cx="40.74" cy="130.3" rx="4.35" ry="5.23" transform="translate(-72.09 53.43) rotate(-38.37)"/><polyline class="cls-14" points="38.18 85.08 27.4 99.26 41.69 100.67 45.02 92.57"/><polygon class="cls-15" points="41.65 86.21 36.94 91.01 31.36 90.05 36.07 85.25 40.85 83.7 41.65 86.21"/><line class="cls-16" x1="37.86" y1="90.08" x2="32.28" y2="89.11"/><line class="cls-16" x1="38.74" y1="89.18" x2="33.16" y2="88.21"/><ellipse class="cls-8" cx="39.82" cy="84.76" rx="0.52" ry="0.27" transform="translate(-28.62 20.83) rotate(-21.79)"/><ellipse class="cls-16" cx="37.35" cy="87.27" rx="0.9" ry="0.47" transform="translate(-29.73 20.1) rotate(-21.79)"/></g></svg>