<svg xmlns="http://www.w3.org/2000/svg" viewBox="0 0 127.33 233.43"><defs><style>.cls-1{fill:#f07422;}.cls-2{fill:#fdba40;}.cls-3{fill:#ffc859;}.cls-4{fill:#212121;}.cls-5{fill:#34353d;}.cls-11,.cls-13,.cls-6{fill:#231f20;}.cls-7{fill:#d23427;}.cls-8{fill:#ffc85a;}.cls-9{fill:#fcb96e;}.cls-10,.cls-16{fill:none;}.cls-10{stroke:#ffe2ae;stroke-width:0.25px;}.cls-10,.cls-11,.cls-12,.cls-16{stroke-miterlimit:10;}.cls-11,.cls-13{stroke:#231f20;}.cls-11,.cls-13,.cls-16{stroke-width:0.5px;}.cls-12,.cls-14{fill:#fff;stroke:#c8c8c8;}.cls-13,.cls-14{stroke-linejoin:round;}.cls-14{stroke-linecap:round;}.cls-15{fill:#0b0a0f;}.cls-16{stroke:#ffc85a;}</style></defs><title>BFL_4</title><g id="Layer_2" data-name="Layer 2"><ellipse class="cls-1" cx="62.07" cy="55.33" rx="13.75" ry="4.32"/><ellipse class="cls-2" cx="62.07" cy="50.15" rx="17.52" ry="6.4"/><ellipse class="cls-3" cx="62.07" cy="44.62" rx="19.19" ry="6.4"/><path class="cls-4" d="M57.58,199.18c-3.81-5.37-12.92-5.45-20.34-.18s-19,5-15.17,10.4l8.9,1.54Z"/><path class="cls-4" d="M61.39,199.67c3.71-5.44,12.81-5.69,20.33-.55s19.07,4.68,15.36,10.11l-8.87,1.71Z"/><path class="cls-5" d="M63.27,141.1s-1.7,15-1.82,19.24-4.91,38.5-4.91,38.5H37.11s-.28-16.84-.65-35.45c-.37-18.3,0-18.69,0-24.76s5.86-53.55,5.86-53.55h39.5s5.77,47.44,5.87,51.39a109.16,109.16,0,0,1-.5,17.92c-.38,3.25-6.16,44.84-6.3,44.45H62.5s1.06-35.05,1.44-39.28c.22-2.5.5-18.63.5-18.63Z"/><path class="cls-6" d="M46.92,52.65C44.72,51,43.18,49.77,43,46.94c-.37-5.83,8.39-14.52,19-14.52S82.2,40.07,81.1,47.69c-.38,2.62-3.37,4.55-5,5.92L62.07,43Z"/><path class="cls-7" d="M76.58,49c0,3.8-6.5,5.85-14.51,5.85s-14.51-2-14.51-5.85,6.5-6.87,14.51-6.87S76.58,45.23,76.58,49Z"/><path class="cls-8" d="M76.58,50.83c0,3.54-6.5,5.38-14.51,5.38s-14.51-1.84-14.51-5.38,6.5-6.41,14.51-6.41S76.58,47.29,76.58,50.83Z"/><path class="cls-7" d="M76.54,51.36c0,3-6.48,5.38-14.47,5.38s-14.46-2.41-14.46-5.38S54.08,47,62.07,47,76.54,48.39,76.54,51.36Z"/><polygon class="cls-9" points="81.15 82.56 42.99 82.56 48.26 51.35 75.88 51.35 81.15 82.56"/><ellipse class="cls-8" cx="62.07" cy="38.11" rx="1.43" ry="1.41" transform="translate(-8.74 55.18) rotate(-45.1)"/><ellipse class="cls-10" cx="62.07" cy="38.25" rx="2.57" ry="2.56" transform="translate(-8.64 56.01) rotate(-45.74)"/><polygon class="cls-11" points="48.28 51.19 47.11 59.69 49.99 53.83 61.39 52.19 74.15 53.83 77.03 59.69 75.88 51.35 48.28 51.19"/><ellipse class="cls-6" cx="55.28" cy="61.43" rx="1.15" ry="2.01"/><ellipse class="cls-6" cx="68.85" cy="61.43" rx="1.15" ry="2.01"/><path class="cls-5" d="M78,53.24c0,3-7.88-1.76-16.81-1.76s-15.09,4.81-15.09,1.76,6.8-5.79,15.73-5.79S78,50.19,78,53.24Z"/><polygon class="cls-12" points="42.31 85.08 81.82 85.08 87.2 131.15 37.03 131.15 42.31 85.08"/><polygon class="cls-13" points="62.12 92.36 60.47 90.16 58.83 87.95 62.12 87.95 65.41 87.95 63.76 90.16 62.12 92.36"/><polygon class="cls-13" points="62.12 92.36 58.98 109.69 62.12 115.28 65.41 109.69 62.12 92.36"/><path class="cls-9" d="M35.28,96.08l9.27,2.62s-4.06,4.62-3.7,8.85S44.68,122,44.68,122l-7.43,3.39s-7.2-14.9-5.5-21.58C34.62,93.77,35.28,96.08,35.28,96.08Z"/><ellipse class="cls-9" cx="44.61" cy="130.3" rx="4.35" ry="5.23" transform="translate(-71.25 55.83) rotate(-38.37)"/><polyline class="cls-14" points="42.06 85.08 31.27 99.26 45.56 100.67 48.89 92.57"/><polygon class="cls-15" points="45.53 86.21 40.81 91.01 35.23 90.05 39.94 85.25 44.72 83.7 45.53 86.21"/><line class="cls-16" x1="41.74" y1="90.08" x2="36.15" y2="89.11"/><line class="cls-16" x1="42.61" y1="89.18" x2="37.03" y2="88.21"/><ellipse class="cls-8" cx="43.69" cy="84.76" rx="0.52" ry="0.27" transform="translate(-28.34 22.27) rotate(-21.79)"/><ellipse class="cls-16" cx="41.22" cy="87.27" rx="0.9" ry="0.47" transform="translate(-29.45 21.53) rotate(-21.79)"/><path class="cls-9" d="M91.39,93.46l-8.67,4.18s4.8,3.84,5.18,8.08-1.26,14.92-1.26,14.92l7.9,2s4.51-15.92,1.68-22.21C91.64,91.07,91.39,93.46,91.39,93.46Z"/><ellipse class="cls-9" cx="88.15" cy="128.78" rx="5.23" ry="4.35" transform="translate(-67.05 145.15) rotate(-61.63)"/><polyline class="cls-14" points="82.81 83.8 95.89 95.89 82.06 99.76 77.38 92.36"/><polygon class="cls-15" points="79.59 85.52 85.06 89.42 90.39 87.5 84.92 83.59 79.94 82.91 79.59 85.52"/><line class="cls-16" x1="83.99" y1="88.66" x2="89.32" y2="86.74"/><line class="cls-16" x1="82.97" y1="87.93" x2="88.3" y2="86.01"/><ellipse class="cls-8" cx="81.14" cy="83.76" rx="0.27" ry="0.52" transform="translate(-17.43 146.08) rotate(-78.21)"/><ellipse class="cls-16" cx="84.01" cy="85.81" rx="0.47" ry="0.9" transform="translate(-17.15 150.52) rotate(-78.21)"/></g></svg>