<svg xmlns="http://www.w3.org/2000/svg" viewBox="0 0 127.33 233.43"><defs><style>.cls-1{fill:#f07422;}.cls-2{fill:#fdba40;}.cls-3{fill:#ffc859;}.cls-4{fill:#212121;}.cls-5{fill:#34353d;}.cls-11,.cls-13,.cls-6{fill:#231f20;}.cls-7{fill:#d23427;}.cls-8{fill:#ffc85a;}.cls-9{fill:#fcb96e;}.cls-10,.cls-16{fill:none;}.cls-10{stroke:#ffe2ae;stroke-width:0.25px;}.cls-10,.cls-11,.cls-12,.cls-16{stroke-miterlimit:10;}.cls-11,.cls-13{stroke:#231f20;}.cls-11,.cls-13,.cls-16{stroke-width:0.5px;}.cls-12,.cls-14{fill:#fff;stroke:#c8c8c8;}.cls-13,.cls-14{stroke-linejoin:round;}.cls-14{stroke-linecap:round;}.cls-15{fill:#0b0a0f;}.cls-16{stroke:#ffc85a;}</style></defs><title>BFL_1</title><g id="Layer_2" data-name="Layer 2"><ellipse class="cls-1" cx="59.67" cy="55.33" rx="13.75" ry="4.32"/><ellipse class="cls-2" cx="59.67" cy="50.15" rx="17.52" ry="6.4"/><ellipse class="cls-3" cx="59.67" cy="44.62" rx="19.19" ry="6.4"/><path class="cls-4" d="M64.15,199.18c3.82-5.37,12.92-5.45,20.34-.18s19,5,15.17,10.4l-8.89,1.54Z"/><path class="cls-4" d="M60.35,199.67c-3.71-5.44-12.82-5.69-20.33-.55s-19.08,4.68-15.36,10.11l8.87,1.71Z"/><path class="cls-5" d="M58.46,141.1s1.71,15,1.82,19.24,4.92,38.5,4.92,38.5H84.63s.28-16.84.65-35.45c.37-18.3,0-18.69,0-24.76s-5.86-53.55-5.86-53.55H39.92s-5.77,47.44-5.87,51.39a109.16,109.16,0,0,0,.5,17.92c.37,3.25,6.15,44.84,6.3,44.45H59.24s-1.07-35.05-1.44-39.28c-.23-2.5-.5-18.63-.5-18.63Z"/><path class="cls-6" d="M74.82,52.65c2.2-1.69,3.73-2.88,3.91-5.71.37-5.83-8.38-14.52-19-14.52S39.54,40.07,40.63,47.69c.38,2.62,3.37,4.55,5,5.92L59.67,43Z"/><path class="cls-7" d="M45.16,49c0,3.8,6.49,5.85,14.51,5.85s14.5-2,14.5-5.85-6.49-6.87-14.5-6.87S45.16,45.23,45.16,49Z"/><path class="cls-8" d="M45.16,50.83c0,3.54,6.49,5.38,14.51,5.38s14.5-1.84,14.5-5.38-6.49-6.41-14.5-6.41S45.16,47.29,45.16,50.83Z"/><path class="cls-7" d="M45.2,51.36c0,3,6.48,5.38,14.47,5.38s14.46-2.41,14.46-5.38S67.65,47,59.67,47,45.2,48.39,45.2,51.36Z"/><polygon class="cls-9" points="40.59 82.56 78.74 82.56 73.48 51.35 45.85 51.35 40.59 82.56"/><ellipse class="cls-8" cx="59.67" cy="38.11" rx="1.41" ry="1.43" transform="translate(-9.5 53.23) rotate(-44.9)"/><ellipse class="cls-10" cx="59.67" cy="38.25" rx="2.56" ry="2.57" transform="translate(-9.76 52.49) rotate(-44.26)"/><polygon class="cls-11" points="73.45 51.19 74.63 59.69 71.74 53.83 60.35 52.19 47.59 53.83 44.7 59.69 45.85 51.35 73.45 51.19"/><ellipse class="cls-6" cx="66.45" cy="61.43" rx="1.15" ry="2.01"/><ellipse class="cls-6" cx="52.88" cy="61.43" rx="1.15" ry="2.01"/><path class="cls-5" d="M43.72,53.24c0,3,7.87-1.76,16.81-1.76s15.08,4.81,15.08,1.76-6.79-5.79-15.72-5.79S43.72,50.19,43.72,53.24Z"/><polygon class="cls-12" points="79.42 85.08 39.91 85.08 34.53 131.15 84.7 131.15 79.42 85.08"/><polygon class="cls-13" points="59.62 92.36 61.26 90.16 62.91 87.95 59.62 87.95 56.33 87.95 57.97 90.16 59.62 92.36"/><polygon class="cls-13" points="59.62 92.36 62.76 109.69 59.62 115.28 56.33 109.69 59.62 92.36"/><path class="cls-9" d="M89.84,90.53,82,96.16s5.39,3,6.5,7.06,1.35,14.91,1.35,14.91l8.14.65s1.67-16.47-2.21-22.16C89.68,88.14,89.84,90.53,89.84,90.53Z"/><ellipse class="cls-9" cx="92.78" cy="125.88" rx="5.23" ry="4.35" transform="translate(-55.93 174.26) rotate(-71.63)"/><polyline class="cls-14" points="79.71 82.51 94.7 92.15 81.75 98.36 75.85 91.89"/><polygon class="cls-15" points="76.84 84.77 82.91 87.66 87.82 84.84 81.75 81.95 76.74 82.13 76.84 84.77"/><line class="cls-16" x1="81.72" y1="87.1" x2="86.64" y2="84.28"/><line class="cls-16" x1="80.59" y1="86.56" x2="85.51" y2="83.74"/><ellipse class="cls-8" cx="78.07" cy="82.77" rx="0.27" ry="0.52" transform="translate(-7.1 158.22) rotate(-88.21)"/><ellipse class="cls-16" cx="81.25" cy="84.29" rx="0.47" ry="0.9" transform="translate(-5.53 162.87) rotate(-88.21)"/><path class="cls-9" d="M32.28,96.08l9.27,2.62s-4.06,4.62-3.7,8.85S41.68,122,41.68,122l-7.43,3.39s-7.2-14.9-5.5-21.58C31.62,93.77,32.28,96.08,32.28,96.08Z"/><ellipse class="cls-9" cx="41.61" cy="130.3" rx="4.35" ry="5.23" transform="translate(-71.9 53.97) rotate(-38.37)"/><polyline class="cls-14" points="39.06 85.08 28.27 99.26 42.56 100.67 45.89 92.57"/><polygon class="cls-15" points="42.53 86.21 37.81 91.01 32.23 90.05 36.94 85.25 41.72 83.7 42.53 86.21"/><line class="cls-16" x1="38.74" y1="90.08" x2="33.15" y2="89.11"/><line class="cls-16" x1="39.61" y1="89.18" x2="34.03" y2="88.21"/><ellipse class="cls-8" cx="40.69" cy="84.76" rx="0.52" ry="0.27" transform="translate(-28.55 21.16) rotate(-21.79)"/><ellipse class="cls-16" cx="38.22" cy="87.27" rx="0.9" ry="0.47" transform="translate(-29.66 20.42) rotate(-21.79)"/></g></svg>