<svg xmlns="http://www.w3.org/2000/svg" viewBox="0 0 127.33 233.43"><defs><style>.cls-1{fill:#f07422;}.cls-2{fill:#fdba40;}.cls-3{fill:#ffc859;}.cls-4{fill:#212121;}.cls-5{fill:#34353d;}.cls-11,.cls-13,.cls-6{fill:#231f20;}.cls-7{fill:#d23427;}.cls-8{fill:#ffc85a;}.cls-9{fill:#fcb96e;}.cls-10,.cls-16{fill:none;}.cls-10{stroke:#ffe2ae;stroke-width:0.25px;}.cls-10,.cls-11,.cls-12,.cls-16{stroke-miterlimit:10;}.cls-11,.cls-13{stroke:#231f20;}.cls-11,.cls-13,.cls-16{stroke-width:0.5px;}.cls-12,.cls-14{fill:#fff;stroke:#c8c8c8;}.cls-13,.cls-14{stroke-linejoin:round;}.cls-14{stroke-linecap:round;}.cls-15{fill:#0b0a0f;}.cls-16{stroke:#ffc85a;}</style></defs><title>BFL_2</title><g id="Layer_2" data-name="Layer 2"><ellipse class="cls-1" cx="63.81" cy="55.33" rx="13.75" ry="4.32"/><ellipse class="cls-2" cx="63.81" cy="50.15" rx="17.52" ry="6.4"/><ellipse class="cls-3" cx="63.81" cy="44.62" rx="19.19" ry="6.4"/><path class="cls-4" d="M59.33,199.18c-3.81-5.37-12.92-5.45-20.34-.18s-19,5-15.17,10.4l8.9,1.54Z"/><path class="cls-4" d="M63.13,199.67c3.72-5.44,12.82-5.69,20.34-.55s19.07,4.68,15.36,10.11L90,210.94Z"/><path class="cls-5" d="M65,141.1s-1.7,15-1.82,19.24-4.91,38.5-4.91,38.5H38.86s-.29-16.84-.66-35.45c-.36-18.3,0-18.69,0-24.76s5.86-53.55,5.86-53.55H83.57s5.77,47.44,5.87,51.39a109.16,109.16,0,0,1-.5,17.92c-.38,3.25-6.16,44.84-6.3,44.45H64.24s1.07-35.05,1.45-39.28c.22-2.5.5-18.63.5-18.63Z"/><path class="cls-6" d="M48.67,52.65c-2.2-1.69-3.74-2.88-3.92-5.71-.37-5.83,8.38-14.52,19-14.52S84,40.07,82.85,47.69c-.38,2.62-3.37,4.55-5,5.92L63.82,43Z"/><path class="cls-7" d="M78.33,49c0,3.8-6.5,5.85-14.51,5.85s-14.51-2-14.51-5.85,6.49-6.87,14.51-6.87S78.33,45.23,78.33,49Z"/><path class="cls-8" d="M78.33,50.83c0,3.54-6.5,5.38-14.51,5.38s-14.51-1.84-14.51-5.38,6.49-6.41,14.51-6.41S78.33,47.29,78.33,50.83Z"/><path class="cls-7" d="M78.28,51.36c0,3-6.47,5.38-14.46,5.38s-14.47-2.41-14.47-5.38S55.83,47,63.82,47,78.28,48.39,78.28,51.36Z"/><polygon class="cls-9" points="82.9 82.56 44.74 82.56 50 51.35 77.63 51.35 82.9 82.56"/><ellipse class="cls-8" cx="63.82" cy="38.11" rx="1.43" ry="1.41" transform="translate(-8.23 56.41) rotate(-45.1)"/><ellipse class="cls-10" cx="63.82" cy="38.25" rx="2.57" ry="2.56" transform="translate(-8.12 57.27) rotate(-45.74)"/><polygon class="cls-11" points="50.03 51.19 48.86 59.69 51.74 53.83 63.13 52.19 75.9 53.83 78.78 59.69 77.63 51.35 50.03 51.19"/><ellipse class="cls-6" cx="57.03" cy="61.43" rx="1.15" ry="2.01"/><ellipse class="cls-6" cx="70.6" cy="61.43" rx="1.15" ry="2.01"/><path class="cls-5" d="M79.77,53.24c0,3-7.88-1.76-16.81-1.76s-15.09,4.81-15.09,1.76,6.8-5.79,15.73-5.79S79.77,50.19,79.77,53.24Z"/><polygon class="cls-12" points="44.06 85.08 83.57 85.08 88.95 131.15 38.78 131.15 44.06 85.08"/><polygon class="cls-13" points="63.87 92.36 62.22 90.16 60.57 87.95 63.87 87.95 67.16 87.95 65.51 90.16 63.87 92.36"/><polygon class="cls-13" points="63.87 92.36 60.72 109.69 63.87 115.28 67.16 109.69 63.87 92.36"/><path class="cls-9" d="M35.1,93.46l8.66,4.18s-4.8,3.84-5.17,8.08,1.25,14.92,1.25,14.92l-7.9,2s-4.5-15.92-1.67-22.21C34.84,91.07,35.1,93.46,35.1,93.46Z"/><ellipse class="cls-9" cx="38.34" cy="128.78" rx="4.35" ry="5.23" transform="translate(-56.59 33.68) rotate(-28.37)"/><polyline class="cls-14" points="43.68 83.8 30.59 95.89 44.42 99.76 49.11 92.36"/><polygon class="cls-15" points="46.9 85.52 41.42 89.42 36.09 87.5 41.57 83.59 46.54 82.91 46.9 85.52"/><line class="cls-16" x1="42.49" y1="88.66" x2="37.16" y2="86.74"/><line class="cls-16" x1="43.51" y1="87.93" x2="38.18" y2="86.01"/><ellipse class="cls-8" cx="45.34" cy="83.76" rx="0.52" ry="0.27" transform="translate(-16.16 11.03) rotate(-11.79)"/><ellipse class="cls-16" cx="42.47" cy="85.81" rx="0.9" ry="0.47" transform="translate(-16.64 10.49) rotate(-11.79)"/><path class="cls-9" d="M91.2,96.08,81.94,98.7s4.06,4.62,3.69,8.85S81.8,122,81.8,122l7.43,3.39s7.2-14.9,5.5-21.58C91.87,93.77,91.2,96.08,91.2,96.08Z"/><ellipse class="cls-9" cx="81.87" cy="130.3" rx="5.23" ry="4.35" transform="translate(-71.11 113.61) rotate(-51.63)"/><polyline class="cls-14" points="84.43 85.08 95.21 99.26 80.92 100.67 77.59 92.57"/><polygon class="cls-15" points="80.96 86.21 85.67 91.01 91.25 90.05 86.54 85.25 81.76 83.7 80.96 86.21"/><line class="cls-16" x1="84.75" y1="90.08" x2="90.33" y2="89.11"/><line class="cls-16" x1="83.87" y1="89.18" x2="89.45" y2="88.21"/><ellipse class="cls-8" cx="82.79" cy="84.76" rx="0.27" ry="0.52" transform="translate(-26.64 130.18) rotate(-68.21)"/><ellipse class="cls-16" cx="85.26" cy="87.27" rx="0.47" ry="0.9" transform="translate(-27.42 134.05) rotate(-68.21)"/></g></svg>