<svg xmlns="http://www.w3.org/2000/svg" viewBox="0 0 659 340"><defs><style>.cls-1{fill:#fff;}</style></defs><title>Artboard 24</title><g id="Layer_2" data-name="Layer 2"><path class="cls-1" d="M271.62,138.85c-10.25-5.06-19.65-6.19-26.11-2.45A19,19,0,0,0,237.07,147c-2.58,9.78,5.63,18.29,6.33,19l4.22,12.66c-1,.74-7.81,5.83-8.44,14.78a20.49,20.49,0,0,0,10.55,19,17.49,17.49,0,0,0-4.22,8.44c-1.35,7.44,3,13.17,4.22,14.77S256,243.85,264.5,244c6.87.14,13.39-4,16.89-10.56a13.6,13.6,0,0,0,6.33,4.23c5.09,1.5,11.25-.48,17.53-5.25l1.46,9.47a144.85,144.85,0,0,0,2.11,35.87L296.16,320h23.21q1.06-23.22,2.11-46.43,2.11-6.33,4.22-12.66l8.45-8.44,1-14.44c12.28,5.67,26.41,6.44,32.8,1.78,1.94-1.42,4.92-4.61,10.55-6.34,5.32-1.63,7.82-.36,10.56-2.11,2.55-1.63,5.07-5.72,4.22-16.88a22.56,22.56,0,0,0,10.55-10.55c3.87-8.57,1.39-19.49-6.33-27.44,5.34-22.29,4.81-39-2.11-42.2-1.69-.79-4.84-1.26-10.56,2.11.37-2.38,1.49-11.43-4.22-19-6.11-8.11-18.74-12.77-27.71-8.84a32.71,32.71,0,0,0-6.05-8c5.36-6.25,5.87-14.32,2.11-19-2.72-3.37-6.91-4-8.44-4.22a6.83,6.83,0,0,0,0-8.44,6.65,6.65,0,0,0-6.33-2.11c0-1.53-.25-17.34-12.67-25.33-1.49-1-13.76-8.86-23.21-2.11-5.94,4.24-8.55,12.68-6.33,21.1-2.81.18-11.93,1.13-19,8.45-6.07,6.28-10.85,17.52-6.33,27.43a22.79,22.79,0,0,0,10.56,10.55c-6.47,6.22-7,9.08-6.34,10.55,1,2.09,4.47,1.54,6.34,4.23,1.71,2.47.87,6,0,8.44A25.2,25.2,0,0,0,271.62,138.85Zm44.68,82.37a35.65,35.65,0,0,0,12.94,13.62q-2.82,5.66-5.65,11.3l-6.33,6.33-8.82-22.68A67.57,67.57,0,0,0,316.3,221.22Z"/></g></svg>