<svg xmlns="http://www.w3.org/2000/svg" viewBox="0 0 433.96 448.47"><defs><style>.cls-1{fill:#fff;}</style></defs><title>Artboard 1 copy 4</title><g id="Layer_2" data-name="Layer 2"><path class="cls-1" d="M363.81,206.31a23.31,23.31,0,0,0,6.33-12.66,21.92,21.92,0,0,0-19-25.32,25.16,25.16,0,0,0-14.77,2.11c-.5-.72-8.19-11.24-21.1-10.56a24.76,24.76,0,0,0-16.89,8.45c4.6-15.5-1.4-31.9-14-39.86-14.78-9.35-35.89-5.35-47.2,10.31-6.49-22.82-26.5-38.7-48.8-39.31-18.48-.51-36.08,9.55-46,26-1.82-.69-16.69-6.08-29,2-12.69,8.32-17.62,27.66-9.15,45.08-16.89-7.05-35.2-8.12-44.85.92-16.07,15.05-5.55,55.76,19,68,10.8,5.38,22,4.07,28,2.83a28.13,28.13,0,0,0,37.9-2.09,224,224,0,0,0,21.19,31.63c18.36,22.93,25.27,22.29,30.95,35.63,7.89,18.51,2.48,38.29-4,62a187.84,187.84,0,0,1-11,30l34,2a238.65,238.65,0,0,1-4-42c-.17-27.93-.26-41.89,8-54,6.23-9.14,10.79-8.52,45.24-33.63,7.22-5.25,13.06-9.69,16.91-12.64a29.32,29.32,0,0,0,20.85,3.27c13.79-3.18,19.41-15.62,20-17,18,10.61,38.94,4.45,46-9C373.33,229.06,371.35,216.33,363.81,206.31ZM197.09,295a269.47,269.47,0,0,1-45.71-60.48,37.16,37.16,0,0,0,13-14,36.73,36.73,0,0,0,4-13l10-6A118.51,118.51,0,0,1,195,235.86,120.7,120.7,0,0,1,197.09,295Zm81.29-48.48a560.16,560.16,0,0,1-46.16,40q-7.07,5.48-14,10.54l-11.81-3.59a172.4,172.4,0,0,0-5-57c-4.84-18.57-13.43-27-10.71-29.57s11.43,6.42,25.71,8.57c12.07,1.81,22.92-2.13,30.83-6.3-6.46,16.94,1.23,32.38,11.08,35.13,6.5,1.81,14.29-1.8,20.09-7.83Z"/></g></svg>