<svg xmlns="http://www.w3.org/2000/svg" viewBox="0 0 659 340"><defs><style>.cls-1{fill:#fff;}</style></defs><title>Artboard 21</title><g id="Layer_2" data-name="Layer 2"><path class="cls-1" d="M229.44,214.53c-3.53,4.7-3.57,11.64,0,17.41-.21.4-2.75,5.54,0,10.45a11.31,11.31,0,0,0,12.19,5.22,16.54,16.54,0,0,0,1.74,12.19c3.63,5.85,11.33,8.75,19.15,7a97.78,97.78,0,0,0,11.86,3.75L273,317.25l31.33-3.48q-.68-20.58-1.37-41.17c1.6-.16,3.22-.35,4.86-.62,4.86-.79,38.13-6.22,41.78-24.37a20.28,20.28,0,0,0-1.74-12.19,13.22,13.22,0,0,0,8.71-3.48c4.13-4,4.95-11.12,1.74-17.41a34.28,34.28,0,0,0,1.74-8.71,35.07,35.07,0,0,0-3.48-17.41,14,14,0,0,0-1.75-13.92,14.26,14.26,0,0,0-10.44-5.23,17,17,0,0,0-8.71-29.6c4.46-13.79,1.74-27.57-7-34.82a24.52,24.52,0,0,0-12.19-5.22c.47-.14,6.94-2.24,8.71-8.7,1.22-4.46-.06-10-3.48-12.19s-7.78,0-8.71-1.74c-1.06-2,4.32-5.11,3.48-8.71-.54-2.32-3.38-3.61-7-5.22-4.92-2.22-6.85-1.55-8.71-3.48-1.18-1.23-2.43-3.62-1.74-8.71l3.48-8.7s-1.21-3.65-3.48-10.45c-1.23-4.79-4.07-8.52-7-8.7-3.69-.25-8.73,5.19-8.71,13.92-4.27-1.15-8.28,1.73-8.7,5.23a6.75,6.75,0,0,0,5.22,7,18.7,18.7,0,0,0-12.19,5.22c-6.3,6.24-5.35,14.67-5.22,15.67a7.26,7.26,0,0,0,0,13.93,22.86,22.86,0,0,0-7,8.71c-4.8,10.69.95,21.24,1.74,22.63a13.49,13.49,0,0,0-8.71,5.22c-3.32,4.79-2.75,12,1.74,17.41-6.38,5.59-7.41,9.52-7,12.19.58,3.43,3.63,4.84,3.48,8.71-.11,2.8-1.79,4.15-3.48,7s-3.48,7.21-3.48,13.93a24.82,24.82,0,0,0-5.23,10.44c-2.15,9.6,2.35,17.33,3.49,19.16A14.39,14.39,0,0,0,229.44,214.53Z"/></g></svg>