<svg xmlns="http://www.w3.org/2000/svg" viewBox="0 0 433.96 448.47"><defs><style>.cls-1{fill:#fff;}</style></defs><title>Artboard 1 copy 15</title><g id="Layer_2" data-name="Layer 2"><path class="cls-1" d="M345.12,129.54a16.19,16.19,0,0,0-14.37-12.32c.21-1.42,1.6-12-6.16-20.54a25.78,25.78,0,0,0-18.49-8.22,66.35,66.35,0,0,0-34.91-8.21,65.36,65.36,0,0,0-24.64,6.16c-10.34-7.06-23.22-7.88-32.86-2-8.58,5.18-11.53,13.78-12.32,16.43-4.38.06-11.81.87-16.43,6.16-3.37,3.86-2.76,7.25-4.11,20.53-2.06,20.34-4.6,23.28-2.05,30.81a32.53,32.53,0,0,0,10.27,14.37c-.38,1.86-2.52,13.11,4.11,20.54s20.38,9.11,32.85,2.19v47.1q-14.37,23.61-28.75,47.23L164.4,254.81q-1.16-12.78-2.32-25.55c7.94,1.61,15.55-1.54,18.75-7.31,3.5-6.31.44-13.41,0-14.38,3.45-8.43,1.69-17.54-4.1-22.59a18.16,18.16,0,0,0-12.33-4.1c-1.91-9.17-8.74-15.77-16.42-16.43-6.2-.54-10.91,3-12.33,4.11-12.08-6.1-24.68-4.9-30.8,2.05a17.49,17.49,0,0,0-4.11,10.27A11.71,11.71,0,0,0,82.26,193.2c-4.75,2.87-6.25,8.54-4.11,12.32a9,9,0,0,0,8.22,4.11c-6.33,7-5.84,15.55-2.06,18.48,3.6,2.8,9.78.21,10.27,0,.89,5.93,5.43,10.14,10.27,10.27,4.65.12,7.77-3.57,8.21-4.11a94.72,94.72,0,0,0,13.66,4.66q5.49,7.94,11,15.88L184.94,300q-1,28.74-2.05,57.5l37-2.05q-3.07-26.7-6.16-53.4l71.88-92.41q.39-7,.77-14a23.77,23.77,0,0,0,21.82,3.71c10.2-3.49,13.89-13.05,14.37-14.38,1.05-.18,11.75-2.29,16.43-12.32A22.62,22.62,0,0,0,334.85,148,16.31,16.31,0,0,0,345.12,129.54ZM143.87,250.7l-11.45-10.49,1.18.22c9.68,1.71,12.86.65,14.38,0,6.64-2.84,9.39-9.76,10.26-12.32.42.17.85.31,1.27.45q-.63,15.18-1.27,30.36Zm96.52-12.32q-4.63-23.19-9.28-46.38l1.06-.85c7.21,10.37,19.13,16,30.81,14.37a30.83,30.83,0,0,0,16.89-8.31l-4.57,14.47Z"/></g></svg>