<svg xmlns="http://www.w3.org/2000/svg" viewBox="0 0 433.96 448.47"><defs><style>.cls-1{fill:#fff;}</style></defs><title>Artboard 1 copy 16</title><g id="Layer_2" data-name="Layer 2"><path class="cls-1" d="M255,254.4a47.45,47.45,0,0,1,24.7-13.16,59,59,0,0,0,47.73-28,49.65,49.65,0,0,1-24.69,16.46,47.69,47.69,0,0,1-16.46,1.65c5.38-5.34,11.41-10.88,18.11-16.46,5.06-4.22,10-8.05,14.81-11.52l14.2-8.29a21,21,0,0,0,3.91.06l13.17-3.3,7.77-5.44c.15.17.29.34.46.51,3.73,3.74,8.65,3.38,9.87,3.29,4.87-.36,8.1-3.29,9.88-4.94,10.73-10,8.4-26.88,8.23-28-.7-4.54-2.15-14.06-9.88-18.11a17.06,17.06,0,0,0-9.87-1.64c3.77-8.37,2.28-15.94-1.65-18.11-.61-.34-2.73-1.35-6.58,0,1-4.33,1.39-10.11-1.65-14.82-5.2-8-17.4-8.13-28-8.23A78.44,78.44,0,0,0,306,99.68c.26-.6,2.06-4.89,0-8.23-1.72-2.8-5.76-4.31-10.13-3.47,2.53-1.76,3.87-4.36,3.55-6.41-.52-3.32-5.62-6.73-11.52-4.94A13.13,13.13,0,0,0,283,70.05c-4.18-2.8-9.91-2.76-14.82,0a20.1,20.1,0,0,0-11.52-6.59,20.32,20.32,0,0,0-14.81,3.3,11.91,11.91,0,0,0-16.46,0c-7.19-5.24-15.43-5.55-19.76-1.65a10.86,10.86,0,0,0-3.29,6.58,8.37,8.37,0,0,0-13.17,8.23c-7.77-5.9-16.88-6-21.4-1.64-2.6,2.52-3.18,6.06-3.29,8.23-1-.21-14.69-2.67-23,6.58a21.45,21.45,0,0,0-4.94,9.88c-4.44-2.91-9.82-2.81-13.17,0a10.08,10.08,0,0,0-3.29,6.58,35.32,35.32,0,0,0-23,3.29C94.07,114.41,87.43,118,83.82,126a26.85,26.85,0,0,0-1.65,16.46,35.57,35.57,0,0,0-11.52,14.82c-2.15,5.32-5.47,17.52,0,21.4a7.41,7.41,0,0,0,5,1.11c-1.64,4.54-2.34,9.16-.1,12,2.45,3.18,7.69,3.29,8.23,3.3,7.08.06,11.2-6.09,11.52-6.59a12.59,12.59,0,0,0,14.81,3.29,11.63,11.63,0,0,0,5.48-5.94l14.28,5.94,9.87,1.65,21.4,14.82,9.88,14.81-13.17-6.58-16.46-14.82h-3.29l19.75,23.05,14.81,6.58,29.63,21.4,9.88,14.81q.82,24.69,1.64,49.38l-4.93,13.17a65.89,65.89,0,0,0,41.15,0L243.48,317V274.16A47,47,0,0,1,255,254.4Zm70.35-61.84a18.41,18.41,0,0,0,5.27,2.07l-6.48,2.16C324.54,195.38,324.94,194,325.35,192.56Zm-16-2.35a60.71,60.71,0,0,0,.18-9.64,14.59,14.59,0,0,0,8.05-1.88,17,17,0,0,0,3.3,9.87,13.57,13.57,0,0,0,1.34,1.55L306,205A62,62,0,0,0,309.32,190.21Zm-179.41-3.29-13.79-2.3a14,14,0,0,0,.62-2.64,22.45,22.45,0,0,0,13.84-.45C130.35,183.33,130.13,185.12,129.91,186.92Zm8.23-1.65-3.38-5.9a21.44,21.44,0,0,0,6.67-7.27,50.44,50.44,0,0,0,8.23.28v11.24l8.23,13.17ZM159.53,182c-1.09-1.65-2.19-3.29-3.29-4.94l-.66-5.32c1.71-.3,3.32-.67,4.83-1.09Q160,176.3,159.53,182Zm31.28-17.37a62.52,62.52,0,0,0,6.58-2.38,15.41,15.41,0,0,0,8.23,4.93,13.7,13.7,0,0,0,2.33.28q-.34,6.45-.68,12.89l-4.94,18.11-6.58-1.65-4.94-11.52Zm-3.29.91,1-.27q-1.32,7.55-2.66,15.08-4.41-6.6-8.81-13.22A61.51,61.51,0,0,0,187.52,165.52ZM204,239.59l-18.11-14.81-18.11-24.7c-1.64-2.19-3.29-4.38-4.93-6.58l2.73-24.62c1.44-.57,2.74-1.16,3.85-1.72.64,0,1.32.06,2,.08l14.44,26.26L204,234.65Zm9.87-56v37.86l-4.93,1.65L204,214.9V205l9.87-21.4q-1.17-8.24-2.35-16.47l.31-.08,2,13.26Zm11.53,28q-4.12-17.3-8.23-34.57-1.91-5.21-3.79-10.41a19.44,19.44,0,0,0,7.08-4.4,40.82,40.82,0,0,1,7.84,1.53Q226.83,187.69,225.38,211.61Zm62.55-44.45a8.76,8.76,0,0,0,4.93,8.23,8.59,8.59,0,0,0,6.59,0,14.54,14.54,0,0,0,5.75,4.18,41,41,0,0,1-9,28.75,114.92,114.92,0,0,0-1.65-13.17,116.19,116.19,0,0,0-8.89-27.83C286.42,167.28,287.19,167.23,287.93,167.16Zm-11.53,6.59q-.82,8.22-1.64,16.46l-3.39-23.71a64.53,64.53,0,0,0,6.41.75q5.07,14,10.15,27.9.81,11.52,1.64,23l-23,18.11q4.11-9.06,8.23-18.11,2.46-18.1,4.94-36.21Zm-19.75-11.52a66.69,66.69,0,0,0,9.76,3.26q.88,6.6,1.76,13.2l-9.87-6.59c-.84-3-1.67-6.11-2.5-9.16Zm-21.4,4.41a20.35,20.35,0,0,0,4.94,2.17,11.1,11.1,0,0,0,4.24.11q-1.29,7.35-2.59,14.7l-6.59,11.53Zm4.94,73V198.44l8.23-11.52-1-18.82a23,23,0,0,0,3.81-1.88c.71,3.06,1.41,6.12,2.12,9.17l13.17,11.53v21.4l-4.94-6.59-9.88-13.17q-1.64,1.65-3.29,3.29l11.52,19.76,1.65,13.17-9.88,11.52-3.29,3.29Z"/></g></svg>