<svg xmlns="http://www.w3.org/2000/svg" viewBox="0 0 659 340"><defs><style>.cls-1{fill:#fff;}</style></defs><title>Artboard 22</title><g id="Layer_2" data-name="Layer 2"><path class="cls-1" d="M494.76,128.4c2.66-1.31,8.13-4,8.44-8.44.29-4.13-4-8.77-10.55-10.56A22.35,22.35,0,0,0,463.1,82,47.37,47.37,0,0,0,446.22,67.2,48.64,48.64,0,0,0,414.56,63,31.78,31.78,0,0,0,404,50.31c-2-1.38-9.86-6.83-18.82-6a34,34,0,0,0-12.83-8.76c-10.51-4-20.05-1.11-23.22,0-10.86-7.25-18.35-7.49-23.21-6.33-5.82,1.38-8.23,4.85-16.88,8.44a59.63,59.63,0,0,1-16.89,4.22,93.88,93.88,0,0,0-35.87-6.33c-10.68.25-25.1.59-38,10.55a48.86,48.86,0,0,0-12.66,14.78c-13.57,4.54-19.28,15.4-16.89,21.1,1.86,4.4,9,6.85,16.89,6.33-.67,2.73-2.69,12,0,21.1h0a11.79,11.79,0,0,0-21.11,8.45c-1.78-.35-7.51-1.23-12.66,2.11-7.15,4.63-8.79,14.55-6.33,21.1,3.46,9.2,16.27,15,29.55,10.55a18,18,0,0,0,6.33,6.33c7.56,4.4,18.31,2.63,27.43-4.22,1.46.59,14.9,5.73,27.44-2.11A30.34,30.34,0,0,0,269,134.73c5.9,2.1,9,1,10.55,0a7.58,7.58,0,0,0,1.1-.86,85.66,85.66,0,0,1,7.34,24.07,92.37,92.37,0,0,1,0,25.33,113.44,113.44,0,0,1-8.44,31.65,336.68,336.68,0,0,0-8.44,38A235.23,235.23,0,0,0,269,312H376.58A175,175,0,0,0,347,174.83q-1-14.78-2.11-29.55a72,72,0,0,1,8.44,0c11.53.68,16.94,3.8,31.66,6.33,9.66,1.66,12.39,1.19,14.77,0,5-2.5,7.19-7.52,8.44-10.55a33.69,33.69,0,0,0,2.49-11.66,12.82,12.82,0,0,0,5.95,3.22,13.48,13.48,0,0,0,10.56-2.11,15.06,15.06,0,0,0,6.33,8.44c6.37,3.72,16.21,1.5,23.21-6.33a25.48,25.48,0,0,0,25.33-2.11A23,23,0,0,0,494.76,128.4ZM309.05,153.72a10.42,10.42,0,0,1-6.34,0c-5.48-1.85-4.71-10.24-8.44-16.88-1.7-3-4.73-6.5-10.42-9.41a29.49,29.49,0,0,0,.08-10.82c2.62-.39,5.35-.69,8.23-.87a99,99,0,0,1,12.67,0c1.6.64,3.48,1.34,5.6,2Zm42.2-27.43c.1.49.22,1,.34,1.44a17.79,17.79,0,0,0-6.67,2.78,18.74,18.74,0,0,0-6.33,6.33c-3.67,6.4-1,12-4.22,14.77-1.42,1.22-4.24,2.16-10.55,0q-1.26-15.81-2.53-31.61a55.06,55.06,0,0,0,13.08,0,60,60,0,0,0,17.55-5.14A24.2,24.2,0,0,0,351.25,126.29Z"/></g></svg>