<svg xmlns="http://www.w3.org/2000/svg" viewBox="0 0 433.96 448.47"><defs><style>.cls-1{fill:#fff;}</style></defs><title>Artboard 1 copy 8</title><g id="Layer_2" data-name="Layer 2"><path class="cls-1" d="M120.11,224.54c.81,8.22,11.37,16.06,23.21,12.66-5.66,5.26-5.84,13.11-2.11,16.89,2.48,2.5,6.62,3.17,10.56,2.11a13.91,13.91,0,0,0,16.88,19c-.74,2.05-2,6.47,0,10.55,3,6.37,12.78,9.8,23.21,6.33a34.92,34.92,0,0,0,8.63,4.14l1.92,6.41q3.17,7.39,6.34,14.78a154,154,0,0,1-2.11,61.2h29.54A304,304,0,0,1,232,342.72c-.77-13.59-.23-20.64,0-23.21a129.32,129.32,0,0,1,4.22-23.22v-13c1.33.06,2.74.18,4.22.38,7.17,1,9.65,3.08,16.88,4.22,4.82.76,9.63,1.52,14.78,0,10.74-3.17,19.67-15.26,16.88-21.1-.58-1.21-2.26-3.42-8.44-4.22q1-5.28,2.11-10.55c5.15,1.69,10.51-.35,12.66-4.22,2.68-4.83.24-12.24-6.33-14.78,1.11,0,6.71,0,10.55-4.22,5.34-5.87,2.27-14.35,2.11-14.77-3.54-9.31-15.8-11.65-21.1-12.66a43.28,43.28,0,0,0-22,1.69,22.4,22.4,0,0,0,.9-12.24,21.61,21.61,0,0,0-6.33-10.56,9.82,9.82,0,0,0-4.22-19,24.19,24.19,0,0,0,4.26-12,22.13,22.13,0,0,0,4.18-9.14c.33-1.95,1.32-7.88-2.11-12.67-4.85-6.78-15.08-6.42-16.88-6.33a8.46,8.46,0,0,0,4.22-8.44c-.75-4.14-5.41-7.36-10.55-6.33,0-.42-.38-7.12-6.33-10.55-6.18-3.57-12.4-.15-12.66,0a14.12,14.12,0,0,0-10.56-4.22c-.89,0-7.6.54-10.55,6.33-2.53,5-.3,9.91,0,10.55a16.07,16.07,0,0,0-8.44,6.33,16.4,16.4,0,0,0-2.11,12.66,8.67,8.67,0,0,0-8.44,4.22c-2.33,4.07-.12,8.22,0,8.45-.87.06-10.58.91-14.77,8.44-3.19,5.71-.8,13.38,3.16,19.29a17,17,0,0,0-3.16,3.92,19.08,19.08,0,0,0-2.25,11.61,19.75,19.75,0,0,0-12.53,3.16c-6.55,4.4-9.89,12.73-8.44,21.11C125.39,209.7,119.43,217.72,120.11,224.54Zm107.63,59.09a48,48,0,0,1,5.15-.41q-2.58,12.87-5.15,25.74h-4.22c-.78-8.92-1.48-16.44-2.13-22.71A16.46,16.46,0,0,0,227.74,283.63Zm-16.88,12.66a13.18,13.18,0,0,0,4.28-2.6c0,4.56-.06,9.63-.06,15.27l-8.22-11.87A13.74,13.74,0,0,0,210.86,296.29Z"/></g></svg>