<svg xmlns="http://www.w3.org/2000/svg" viewBox="0 0 433.96 448.47"><defs><style>.cls-1{fill:#fff;}</style></defs><title>Artboard 1 copy 9</title><g id="Layer_2" data-name="Layer 2"><path class="cls-1" d="M177.93,235.54c.48,8.22,6.65,16.06,13.58,12.66-4.68,6.42-4.66,13.62-1.23,16.89a8.6,8.6,0,0,0,6.17,2.11c-.31,6.68-.52,20.9,4.22,22.27,1.19.34,3.05,0,6-3a14.57,14.57,0,0,0-.35,10.27c.52,1.46,2.31,6.45,7,7.51a9.11,9.11,0,0,0,6.6-1.18l5,4.14a94.08,94.08,0,0,1,2.73,9.26,96.28,96.28,0,0,1,2.1,11.93c.71,7.26,1.23,15.79,1.23,25.32a260.17,260.17,0,0,1-2.46,35.88h17.27a197.45,197.45,0,0,1-5.14-35.13,218.38,218.38,0,0,1,0-22,230.56,230.56,0,0,1,5.14-38.22c6.37,7.05,15.87,8.27,21,4.6,6.13-4.38,7.59-16.92-1.12-25.38,6.66.54,13-2.61,16-8,3.83-6.8,1.92-16.11-5-21.49,5.68-13,3-26.11-4.94-31.65-4.55-3.19-9.89-3.2-13.06-2.86a20.79,20.79,0,0,0,5-9c2.07-8.2-1.91-15.47-4.28-19.8a40.22,40.22,0,0,0-6.17-8.44c6.92-18.65,6.76-34.21-.29-38.71a9.91,9.91,0,0,0-5.88-1.39,11.17,11.17,0,0,0,2.47-8.44c-.44-4.14-3.17-7.36-6.17-6.33a14.82,14.82,0,0,0-3.71-10.55,14.18,14.18,0,0,0-13.57-4.22c-5.8,1.41-8.56,6.5-10.4,9.88-5.74,10.56-3.13,21.87-1.94,26-2-.36-4,1.3-4.94,4.22a15,15,0,0,0,0,8.45c-2.87-1-8.8-2.48-12.12.34-4.56,3.87-3.72,15.5,5.33,27.39-4.35-1.37-8.75-1.46-10.33.61-2,2.62.12,9.28,7.17,14.92-2.59-.34-5.18.7-7.33,3.16-3.83,4.4-5.78,12.73-4.94,21.11C181,220.7,177.54,228.72,177.93,235.54Zm62.95,59.09a16.72,16.72,0,0,1,3-.41q-2.74,12.87-5.48,25.74c-.45-8.92-.87-16.44-1.24-22.71A8.51,8.51,0,0,0,240.88,294.63ZM231,307.29a8.35,8.35,0,0,0,2.51-2.6c0,4.56,0,9.63,0,15.27l-4.8-11.87A5.24,5.24,0,0,0,231,307.29Z"/></g></svg>