<svg xmlns="http://www.w3.org/2000/svg" viewBox="0 0 433.96 448.47"><defs><style>.cls-1{fill:#fff;}</style></defs><title>Artboard 1 copy 5</title><g id="Layer_2" data-name="Layer 2"><path class="cls-1" d="M97.91,194.94c.72,8.26,5.76,18.58,14,20,1.25.22,5.66.77,11.26-3.18-5.14,8.35-1.79,18.69,5.1,22.09,7.16,3.53,17.87-.57,20.92-10.33.23,9.27,8.57,15.85,16.45,14.58,7.34-1.19,13-9,11.45-17.41q7.67,21.31,15.6,42.87,8.55,23.21,17.08,45.76a193.9,193.9,0,0,1,3.11,34.32c0,18.07-2.45,31.6-6.21,51.48-2,10.36-4.92,24.22-9.32,40h35.72a346.82,346.82,0,0,1-3.1-71.5c1-15.49,2-32.83,7.76-51.48,2.43-7.88,6.29-17.93,28-48.62,3.48-4.92,7.65-10.71,12.45-17.13A15.31,15.31,0,0,0,295.19,235c5.78,11.27,19.05,14.31,26.73,9.08,5.7-3.88,8.32-12.31,5.89-20.52,17-1.59,28.86-15.29,28.08-28.75-.55-9.54-7.4-18.32-17.21-22.73,16.31-7.55,21.54-26.93,13.81-39.27-6.31-10.1-20.82-14.73-34-9.35-1.11-30.84-20.63-53.39-41.59-55.21C261.55,66.9,249.37,77,245.48,80.54c.09-1.45.84-17-11.06-25.9-6.63-5-19.65-9.78-27.77-2.7-7.29,6.35-5.53,17.79-5.35,18.84-10.67-10.31-25-14.1-34.83-9.34C152.8,68.06,145.75,92.3,160,113a25.07,25.07,0,0,0-7.09-4c-14.39-5.2-28.8,6-29.73,6.8-12.05,9.65-16.08,28.81-9.71,47.68-1.2-.24-6.5-1-10.87,5.72-5.19,8-5,20.28-4.73,24.56C97.87,194.31,97.88,194.59,97.91,194.94ZM237,226.28l14.41-16.2q5.52,13.59,11,27.19Q248,264.45,233.58,291.63ZM210.64,222a13.49,13.49,0,0,1,15.29,8.49l-11,54.36q-7.23-25.47-14.44-51A13.39,13.39,0,0,1,210.64,222Z"/></g></svg>