<svg xmlns="http://www.w3.org/2000/svg" viewBox="0 0 433.96 448.47"><defs><style>.cls-1{fill:#fff;}</style></defs><title>Artboard 1 copy 12</title><g id="Layer_2" data-name="Layer 2"><path class="cls-1" d="M349.64,107.47c-8-6.34-20.64-6.52-31,0,.06-11.78-7.35-22-17.82-25.22-13.36-4-24.21,5.75-24.65,6.16A23.72,23.72,0,1,0,231,102.79a40,40,0,0,0-17.91,8.27c-1.75,1.44-14.69,12.44-14.44,30.41.29,21.44,19.11,32.66,20,33.19-.38,1.86-2.52,13.11,4.11,20.54,7.6,8.53,24.48,9.47,38.13-1.34a120.83,120.83,0,0,1-34,97.86A147.42,147.42,0,0,1,176,245.63a40.11,40.11,0,0,0,7.6-22.16c14.8,1.43,27-5.24,29-13,2.35-9.11-8.1-24.33-28-27-.86-16.47-13.82-28.38-27-28-9.6.27-18.64,7-23,17-11.1-2.26-21.89,4.16-25,14-3.5,11.06,3.52,23.95,16,27-6.91,23.07,7.79,43.84,23,46,7,1,14.9-1.79,21.47-7.42,14.66,24.58,34.59,28.51,44.45,49.94,5.17,11.22,8.43,29.11-2.05,57.5l37-2.05c-10.74-24.74-9.36-42.13-6.16-53.4,11.41-40.1,58.63-47.42,71.88-92.41a77.53,77.53,0,0,0,2.64-13c11.87,7.54,25.49,8.54,33.81,2.86,12.53-8.57,15.93-34.31-2-53C362.07,135.38,360.36,116,349.64,107.47Zm-72,131q-4.49-14.25-9-28.5A25.3,25.3,0,0,0,309,206.59a74.09,74.09,0,0,1-31.4,31.88ZM312.42,199a25.89,25.89,0,0,0,.72-3.77c.15.13.31.24.47.37C313.25,196.68,312.86,197.82,312.42,199Z"/></g></svg>