<svg xmlns="http://www.w3.org/2000/svg" viewBox="0 0 659 340"><defs><style>.cls-1{fill:#fff;}</style></defs><title>Artboard 20</title><g id="Layer_2" data-name="Layer 2"><path class="cls-1" d="M33.45,117.53c-.05,6.33,3.69,12.69,9.27,14.89,13.57,2.18,27.79,3.89,42.62,5a487.76,487.76,0,0,0,69.13.07l25.37,39.64c.86,9.1,1.76,21.88,1.85,37.22.1,16.18.16,25.85-1.85,37.22a113.54,113.54,0,0,1-16.68,42.19q-.93,7.44-1.85,14.89l57.44,2.48a33.56,33.56,0,0,0,0-9.92,28.64,28.64,0,0,0-9.26-17.38v-62c1.23-2.49,2.47-5,3.7-7.45a28.42,28.42,0,0,0,22.24,0c8.82-3.78,14-11.05,16.68-14.89a64.64,64.64,0,0,0,11.12-29.78,73.82,73.82,0,0,0,.25-14.89h77.57c6.19-1.25,10.06-8.49,9.27-14.89a12,12,0,0,0-7.41-9.92,16,16,0,0,0-5.56-7.45c-5.27-3.49-10.41-.44-11.12,0L317,112.57c-.55-1.08-5-9.26-12.94-11.73l53.71-.68a44.26,44.26,0,0,0,1.85-19.85A35.25,35.25,0,0,0,339.2,53a23.4,23.4,0,0,0-16.68,0,97.76,97.76,0,0,0-37.06-14.89,88.29,88.29,0,0,0-29.65,0c-1.53-7-6.52-11.08-11.11-9.93-3.54.9-6.45,4.82-7.42,9.93-.25-.34-5.88-7.57-13-5-4.43,1.62-6.77,6.12-7.41,7.44-.37-.56-6.21-9.26-14.82-7.44-7,1.47-10.57,8.77-11.12,9.92-1.51-1.68-7.85-8.38-16.68-7.44a21.4,21.4,0,0,0-13,7.44c-3.29,4-5.39,9.86-6.26,17a27.77,27.77,0,0,0-10.42,2.87c-10.71,5.27-16.5,15.76-18.53,19.85a22.36,22.36,0,0,1-14.82,0c-6.48-2.38-6.91-6.12-13-7.45-2.56-.56-4.27-.28-16.68,2.49L66.81,92.71c-9-4.47-16.53-2.65-18.53,2.49-.39,1-1,3.29,0,7.44C40.13,101.16,33.52,109.21,33.45,117.53ZM191,169.64c-6.21-1.35-9.41-8.42-14.83-17.37a174.53,174.53,0,0,0-10.7-15.7q13.47-1.24,26.13-3.11c-.23,7.58,2,15.55,6.81,21.29h20.17c-3.9,2.79-8.76,6.18-14.61,9.93C197.19,169,194.44,170.4,191,169.64Zm63,0a50.92,50.92,0,0,1-9.26,19.86c-2.54,3.33-5.78,7.6-11.12,9.92-2.38,1-11.41,4.4-18.53-2.48a18.61,18.61,0,0,1-5.56-9.93,24.38,24.38,0,0,1,1.85-14.89c6.66-8,11.07-13.59,13.92-17.37h30.21A60.42,60.42,0,0,1,254,169.64ZM294.44,101c-7.86,2.67-12.33,10.93-12.68,11.61l-9.27,2.48c-.28-1.06-2.68-9.7-8.86-13.7Zm-44.58.56a23.51,23.51,0,0,0-8.87,11c-1.46-6.46-6.17-10.64-11.12-9.93s-8.71,5.87-9.26,12.41a16.36,16.36,0,0,0-13.46-4.29,10.94,10.94,0,0,0-10.63-3.16c-.06-.7-.24-2.66-.71-5.4Z"/></g></svg>