<svg xmlns="http://www.w3.org/2000/svg" viewBox="0 0 433.96 448.47"><defs><style>.cls-1{fill:#fff;}</style></defs><title>Artboard 1 copy 17</title><g id="Layer_2" data-name="Layer 2"><path class="cls-1" d="M313.14,96.45c-2.27-4.73-9.18-7.31-16.46-5a15,15,0,0,0-6.58-16.42,14.83,14.83,0,0,0-14.82,0,19.7,19.7,0,0,0-7.6-11.58c-6.51-4.49-13.93-2.88-18-2a32.59,32.59,0,0,0-17.2,10.29,20,20,0,0,0-36.21,13.16c-9.4-13.25-27-16.94-39.59-9.45C146.11,81.75,140.63,95,143.6,108a8.89,8.89,0,0,0-16.46,6.58c-8.66-6.57-20-7.8-28.46-3.08-11.25,6.24-16.24,22.15-9.4,36-12-.58-21,7.07-21.6,14-.61,7.7,8.95,18,23,17-1.69,15.35,8.46,26.2,17,26,6-.15,12.06-5.82,15.06-13.56L137,196.85l9.88,1.65,21.4,14.82,9.87,14.81L165,221.55l-16.46-14.82h-3.3L165,229.78l14.81,6.58,29.63,21.4,9.88,14.81q.81,24.69,1.64,49.38-2.46,6.58-4.94,13.17a65.88,65.88,0,0,0,41.15,0L250.59,322V279.16a46.57,46.57,0,0,1,36.21-32.92,59.08,59.08,0,0,0,47.74-28,49.65,49.65,0,0,1-24.69,16.46,47.71,47.71,0,0,1-16.46,1.65c5-4.89,9.32-8.86,12.62-11.78,7-6.17,12.5-11,20.3-16.2a136.52,136.52,0,0,1,14.2-8.29,13.61,13.61,0,0,0,8.17,4.38c6.54.7,13.65-4.47,16.68-13.06,18.25-1.15,30.12-16.1,28.32-28.94-1.25-9-9.17-16.86-19.64-19.93.61-2.13,5.56-20.62-5.36-34.07-11.38-14-35.69-17.22-55.54-3.79C313.62,103.39,314.75,99.8,313.14,96.45ZM137,191.92l-13.78-2.3,6.45-8.15,8,5.06C137.46,188.33,137.24,190.12,137,191.92Zm13.67,1.55-8.81-9.1a9.31,9.31,0,0,0,4.39-4c2.56-4.69-.43-9.69-.58-9.93l12,12L165,201.79Zm16-6.49c-1.09-1.65-2.19-3.29-3.29-4.94l-.66-5.32c1.71-.3,3.32-.67,4.83-1.09Q167.07,181.3,166.64,187Zm33-10.51q2-6.51,4-13,5,6.5,10,13l.7,8.86-4.94,18.11-11.52-13.17Q198.81,183.37,199.68,176.47Zm-5.05-5.95,1-.27q-1.33,7.55-2.66,15.08-4.41-6.6-8.81-13.22A61.51,61.51,0,0,0,194.63,170.52Zm16.46,74.07L193,229.78l-23-31.28q.88-8.52,1.75-17l8-9q6.7,12.41,13.3,26c6.85,14.21,12.85,28,18.11,41.15Zm9.87-56v37.86L216,228.13l-4.93-8.23V210l9.87-21.4q-1.17-8.24-2.35-16.47l.31-.08,2,13.26Zm11.52,28q-4.11-17.3-8.23-34.57l-3.78-10.41a7.77,7.77,0,0,0,5-2.62c2.68-3.2,1.33-7.31,1.25-7.54l8.7,7.29Q233.94,192.69,232.48,216.61ZM268.32,169a12.21,12.21,0,0,0,5.2,1.53q.89,6.6,1.76,13.2l-9.87-6.59q-1.56-8.16-3.1-16.34A13.4,13.4,0,0,0,268.32,169Zm-24.64-4.49,7,1-1.74,23.15q-3.28,5.77-6.58,11.53Zm23.37,52.14,1.65,13.17-9.88,11.52-3.29,3.29H247.3V203.44l8.23-11.52-1-18.82a23,23,0,0,0,3.81-1.88c.71,3.06,1.41,6.12,2.12,9.17l13.17,11.53v21.4c-1.65-2.2-3.3-4.39-4.94-6.59l-9.88-13.17-3.29,3.29Zm6.59,24.69q4.11-9.06,8.23-18.11,2.46-18.1,4.93-36.21l-3.29-8.23q-.83,8.22-1.64,16.46l-3.39-23.71a64.53,64.53,0,0,0,6.41.75L295,200.15l1.65,23Zm61-53.83,6,6-9.43,8.32Q333,194.64,334.68,187.47Zm-16-15c1.36.68,9.23,4.79,11,13,2,9.29-4.54,20.31-16.54,24.55,1.23-4.52,2.37-9.46,3.29-14.81A157.92,157.92,0,0,0,318.68,172.47Zm-5-1c-.15,14.77-2.11,25.83-3.83,30.32a49.14,49.14,0,0,1-3.15,6.58,41.09,41.09,0,0,1-3.44,4.95,114.59,114.59,0,0,0-9.06-37.69,10,10,0,0,0,5.77,4.76C305.13,181.82,311.58,178.25,313.68,171.47Z"/></g></svg>