<svg xmlns="http://www.w3.org/2000/svg" viewBox="0 0 659 340"><defs><style>.cls-1{fill:#fff;}</style></defs><title>Artboard 26</title><g id="Layer_2" data-name="Layer 2"><path class="cls-1" d="M328,83.56a11.94,11.94,0,0,0,0-9.75,10.75,10.75,0,0,0-4.52-4.88A10.32,10.32,0,0,0,325,60.8a9.47,9.47,0,0,0-6-6.5c2.89-5,1.73-10.79-1.5-13s-7.23-.15-7.53,0a13.14,13.14,0,0,0-3-9.75c-4.24-4.71-10.22-3.34-10.55-3.26a28,28,0,0,0-10.54-9.75,26.2,26.2,0,0,0-19.58-1.63c-3-2.08-17-11.39-33.13-6.5A35.38,35.38,0,0,0,221,16.9c-1.67-1.31-9-6.76-18.07-4.87-7.37,1.53-11.65,7-15.06,11.38a47,47,0,0,0-9,21.13,20.23,20.23,0,0,0-9,4.88c-7.08,6.69-9.25,18.73-6,30.89a31.52,31.52,0,0,0,1.5,13c5.68,16.31,25.24,24.27,40.67,22.76A39,39,0,0,0,218,112.83c3,2.1,13.06,8.78,26.72,8.67q-.56,24.12-1.12,48.23H230.07q-.76,6.5-1.51,13l7.53,1.63c.5,1.63,1,3.25,1.51,4.88l4.51,1.62-1.5,76.41q-2.87,13.67-6,27.64Q229.5,317.4,224,338.81v8.13a55.25,55.25,0,0,0,24.1,8.13c18,1.58,31.37-6.53,36.14-9.76q-1.5-4.86-3-9.75-6.27-20.47-12-40.65l-1.5-47.15,13.55-17.88-1.5-8.13H261.69l-1.5-65,6-3.25v-8.13h-7.53q-.44-13-.86-26.06a46.15,46.15,0,0,0,14.42-8.08c1.28.9,10.53,7.15,21.08,3.25a23.42,23.42,0,0,0,10.54-8.13,13,13,0,0,0,10.55-4.88,15.49,15.49,0,0,0,3-11.38A11.1,11.1,0,0,0,328,83.56Z"/></g></svg>