<svg xmlns="http://www.w3.org/2000/svg" viewBox="0 0 433.96 448.47"><defs><style>.cls-1{fill:#fff;}</style></defs><title>Artboard 1 copy 13</title><g id="Layer_2" data-name="Layer 2"><path class="cls-1" d="M331,90.46c-.26-20.2-15.21-35.95-32.09-37-12.64-.78-25.18,6.75-32,19-8.28-11.26-23.37-14.26-34-8-12.2,7.18-16.26,25.23-6.64,38.32-3.5,0-20.55.15-29.36,11.68-10.83,14.19-6.32,41.82,17,60.19-4.59,11.5-.74,24.1,8,29.81,8.36,5.48,20.59,4.2,29-3.28v43.3l-28.75,47.23-32.86-34.91q-1.12-12.48-2.27-25a15.85,15.85,0,0,0,18.7-7.89c3.85-7.9,0-18.11-8.82-21.48,8-17,.68-34.63-11-39-7.9-3-17.88.12-25.36,7.09,4.46-14.8-4.71-28.35-14.64-30.09-10.11-1.78-23.59,8.22-24,24-13.23-12.78-31.87-10.09-38-1-5.14,7.61-2.84,21.68,8,31-1.89,2.11-9.41,11-9,24,.32,10.05,5.38,22.55,17,28,12.35,5.79,28.28,1.84,38.05-10.2a23.19,23.19,0,0,0,24.44,20.24l.21.3,23.3,43.66q-16,29.49-32,59l127-5q-9.5-26-19-52,23.79-44.49,47.56-89a48.54,48.54,0,0,0,33.44-31c8.64,1.35,17.06-1.72,20.95-7.81,5.55-8.67,1.89-23.41-10.95-30.19,2.57-.71,12.4-3.75,17.11-12.93,6.25-12.19-.56-27.36-10.11-35.07C348,86.83,333.15,90,331,90.46ZM171,254a23.36,23.36,0,0,0,12.11-23.88,12.88,12.88,0,0,0,1.26.69l-1.26,30.12Zm85.14-59.2c.31-.54.62-1.08.9-1.64A48.66,48.66,0,0,0,298.44,215L265.3,240.38Z"/></g></svg>