<svg xmlns="http://www.w3.org/2000/svg" viewBox="0 0 433.96 448.47"><defs><style>.cls-1{fill:#fff;}</style></defs><title>Artboard 1 copy 11</title><g id="Layer_2" data-name="Layer 2"><path class="cls-1" d="M147,202.47c-.87,13.79,7.23,27.43,20.5,34.73-5.67,5.26-5.85,13.11-2.11,16.89,2.47,2.5,6.61,3.17,10.55,2.11-7.36,10.61-7.09,24.35.06,33.27,8.89,11.07,27.16,13.15,40,2.6l8.62,4.14q4.14,10.59,8.26,21.19a152.87,152.87,0,0,1,2.11,25.32,154.3,154.3,0,0,1-4.22,35.88h29.55a304.37,304.37,0,0,1-4.23-35.88c-.74-13-.28-19.7-.08-22.16a128.45,128.45,0,0,1,4.31-24.27v-13A44.68,44.68,0,0,0,281,292.47c5.47.86,21.05,3.33,27-6,4-6.26,2.39-15.84-3.33-23.94q1.07-5.28,2.11-10.55c5.15,1.69,10.51-.35,12.67-4.22,2.68-4.83.23-12.24-6.34-14.78,10.53-6.74,13.55-20.22,7.89-29.51-4.62-7.58-14.43-11.43-24-9,.68-1,5.9-8.95,3-16-3.27-7.94-16-12.76-29-7a32,32,0,0,0,12-15c5.18-13.9-2.15-26.44-3.65-29-8-13.71-23.7-20-36.35-20-18.63,0-36.24,12.94-46,32.66-.86.06-10.57.91-14.77,8.44-3.18,5.71-.8,13.38,3.16,19.29C164.46,168.66,148.17,184.45,147,202.47Zm104.91,81.16a48.5,48.5,0,0,1,5.15-.41q-2.56,12.87-5.15,25.74h-4.22c-.77-8.92-1.48-16.44-2.12-22.71A16.38,16.38,0,0,0,251.94,283.63Zm-16.88,12.66a13.34,13.34,0,0,0,4.29-2.6c0,4.56-.07,9.63-.07,15.27l-8.22-11.87A13.67,13.67,0,0,0,235.06,296.29Z"/></g></svg>