<svg xmlns="http://www.w3.org/2000/svg" viewBox="0 0 659 340"><defs><style>.cls-1{fill:#fff;}</style></defs><title>Artboard 19</title><g id="Layer_2" data-name="Layer 2"><path class="cls-1" d="M395.06,85.63c.78-2.54,7.67-26.35-8.44-42.21-12.24-12-28.91-10.8-31.66-10.55A49.41,49.41,0,0,0,323.3,18.1c-21.67-1.41-35.89,12.63-38,14.77-2.13-.31-15.57-2-27.56,6.87a44,44,0,0,0-18.87-11.09,41,41,0,0,0-21.1,0,45.38,45.38,0,0,0-46.43,8.44c-2.49-.8-14.49-4.41-25.33,2.11C134.81,46,127.3,62.11,133.37,70.86c3.77,5.43,11.53,6.2,14.77,6.33-1.64,3.31-7.51,16-2.11,27.44,4.43,9.34,14.31,13.41,22.58,15.27-.37,10,5.46,20.84,15.41,29a38.74,38.74,0,0,0,14.77,14.78c13.2,7.23,27.22,4.07,35.35,1l.53,3.19a73.17,73.17,0,0,1,6.33,38v42.21A126.55,126.55,0,0,1,217.79,303h40.09c-.95-19.69-1.09-40.86,0-63.31q.75-15.25,2.11-29.55,23.31-25.45,33.1-37.58c24.77,2.38,44.42-6.07,49.21-19.4,1-2.85,2-7.72,0-14.77,3.13-3,6.69-7.52,6.33-12.66a10.51,10.51,0,0,0-.93-3.61,65.07,65.07,0,0,0,15.7-4.83C370.26,114.18,388.88,105.75,395.06,85.63ZM253.66,189l-4.22,2.11-12.88-27.37a46.78,46.78,0,0,0,4.44-2.17,38.56,38.56,0,0,0,16.88,12.66l.12,0Q255.83,181.68,253.66,189Zm8.44,2.11q.43-7.69.86-15.39a39.31,39.31,0,0,0,17.43-.3Q272.72,181.85,262.1,191.15Z"/></g></svg>