<svg xmlns="http://www.w3.org/2000/svg" viewBox="0 0 433.96 448.47"><defs><style>.cls-1{fill:#fff;}</style></defs><title>Tree1-1</title><g id="Layer_2" data-name="Layer 2"><path class="cls-1" d="M118.24,214.33c-.37,1.27-4.47,16.19,4.22,25.32,8.43,8.86,22.68,5.73,29.54,4.22a49.25,49.25,0,0,0,21.11-10.55,20.56,20.56,0,0,0,7.36,2l1.08,8.58,6.33,31.66q1.05,33.77,2.11,67.53a146.4,146.4,0,0,1-8.44,21.1c-4.9,9.94-7.45,15-12.67,19-2.49,1.92-9.08,6.3-20.5,6.38L253.3,391.6a40.36,40.36,0,0,1-16.88-10.55c-6.67-7.07-8.78-14.7-10.56-21.11a59.76,59.76,0,0,1-2.11-23.21c.92-7.9,4.14-14.52,10.56-27.44a287,287,0,0,1,16.88-29.54c6.11-9.33,11.95-17.09,16.88-23.22q.71-2.79,1.4-5.6a21.73,21.73,0,0,0,2.82-5h8.44a43.31,43.31,0,0,0,21.11,4.22c5.15-.31,19.28-1.17,23.21-10.55a15.47,15.47,0,0,0-2.11-14.77c-5.3-7.16-14.33-6.38-14.77-6.33a32.2,32.2,0,0,0,12.66-12.66c.79-1.46,6.64-12.66,2.11-25.33a28,28,0,0,0-4.47-8,25.14,25.14,0,0,0,4.47-6.73c.67-1.5,6.28-14.63,0-25.33-5.17-8.82-15.72-11.36-21.1-12.66a45.89,45.89,0,0,0-21.11,0,78.8,78.8,0,0,0-29.54-19c-18.3-6.52-33.76-4.1-46.43-2.11-13.11,2-21.67,3.4-29.54,10.55-9.42,8.55-11.89,20-12.67,25.32a20.71,20.71,0,0,0-12.66,2.11c-17.46-3.68-34.75.89-44.32,12.67-6.94,8.55-8,18.64-8.44,23.21-.71,7-2,19.41,6.33,27.44C108.51,212.87,114.9,214,118.24,214.33Zm116.07,38c5.2,3.22,15.34,7.08,24.23,5.32l-13.68,17.9h-19q-.47-16.26-1-32.51A30.49,30.49,0,0,0,234.31,252.31Zm-44.32-19a18.19,18.19,0,0,0,8.44-10.55L209,224.88l10,4c.35,1.48.76,2.91,1.22,4.3q-2.43,20.12-4.88,40.25a6.42,6.42,0,0,1-4.22,2.11c-3.06.07-5.37-3-6.33-4.22-3.44-4.51-11.07-21.77-17.43-36.84A17.38,17.38,0,0,0,190,233.32Zm-5.48-78.61c-3-.54-5.5-1.14-7.18-1.58a23.05,23.05,0,0,0-3-4.07Z"/></g></svg>