<svg xmlns="http://www.w3.org/2000/svg" viewBox="0 0 433.96 448.47"><defs><style>.cls-1{fill:#fff;}</style></defs><title>Tree1-3</title><g id="Layer_2" data-name="Layer 2"><path class="cls-1" d="M112,204.33c-.37,1.27-4.46,16.19,4.23,25.32,8.43,8.86,22.68,5.73,29.54,4.22a49.13,49.13,0,0,0,21.1-10.55l7.37,2a121.66,121.66,0,0,1,21.14,53.18,118.17,118.17,0,0,1-6,57c-7.37,19.83-18.74,33.25-26.73,37.69-6.6,3.67-19.31,6.28-19.9,6.33s-.76.05-.6.05L247,381.6a42.17,42.17,0,0,1-16.88-10.55c-10.77-11.25-11.61-25.86-12.67-44.32-.72-12.68-1.18-21.46,2.86-32.26,3.49-9.34,8.49-15.2,16-24a160.6,160.6,0,0,1,25.46-23.94q.7-2.79,1.4-5.6l11.26-5c1.44,1.72,10.94,12.7,25.88,12.49,9.15-.14,22.9-4.51,25-14,2-9.13-7-21.93-23.44-25.92,11.38,1,21.85-5.4,25.44-15.08,4.29-11.61-2-25.9-15.14-30.95,11.48-9.68,15.43-24.92,10.14-37.05a29.06,29.06,0,0,0-22-17c-15.05-2.3-25.13,8.5-25.88,9.33-1.05-4.37-7.06-27.4-30.12-41.33-20.35-12.3-40.69-9.47-48-8-9.27,1.86-28.06,5.64-38,23-10.52,18.35-3.24,38.06-2.06,41.1a52,52,0,0,0-17.94-3.1c-2.32,0-28,.51-39,17.88C89.47,162.75,93.7,187.37,112,204.33Zm116.38,38.14a36.33,36.33,0,0,0,23.93,5.16l-32.68,17.9q-.48-16.26-1-32.51A34.24,34.24,0,0,0,228.33,242.47Zm-15.64-23.6q-1.09,45.8-7.88,46.66-7.63,1-22.48-55.06Zm-34.47-74.16c-3-.54-5.5-1.14-7.18-1.58a22.25,22.25,0,0,0-3-4.07Z"/></g></svg>