<svg id="sequence" xmlns="http://www.w3.org/2000/svg" viewBox="0 0 180.38 225.85"><defs><style>.cls-1{fill:#d48428;}.cls-2{fill:#fdc277;}.cls-3{fill:#231f20;}.cls-4{fill:#f07422;}.cls-5{fill:#fdba40;}.cls-6{fill:#ffc859;}</style></defs><title>P3W1</title><path class="cls-1" d="M74.52,87.73l-5,7.4s-10.41-.49-13.6,2.33-9.33,11.71-9.33,11.71l-7.15-3.93s7.66-14.67,14-17.3C61.59,83,74.52,87.73,74.52,87.73Z"/><ellipse class="cls-1" cx="39.88" cy="114.05" rx="5.23" ry="4.35" transform="translate(-80.61 123.09) rotate(-75.01)"/><ellipse class="cls-1" cx="106.95" cy="87.55" rx="5.23" ry="4.35" transform="translate(-31.26 88.02) rotate(-39.5)"/><path class="cls-1" d="M18.77,173.31c4.45-4.85,13.5-3.8,20.21,2.35S57.19,183,52.74,187.87l-9,.42Z"/><path class="cls-1" d="M103.81,183.83c.49-6.57,8.24-11.35,17.31-10.69s18.85-5.52,18.37,1.05l-6.82,5.92Z"/><polygon class="cls-2" points="93.15 71.97 54.99 71.97 60.25 40.76 87.88 40.76 93.15 71.97"/><ellipse class="cls-3" cx="78.27" cy="50.14" rx="1.15" ry="2.01"/><ellipse class="cls-3" cx="84.36" cy="50.14" rx="1.15" ry="2.01"/><path class="cls-3" d="M60.77,34.57A10.74,10.74,0,1,1,57.2,55.76"/><ellipse class="cls-4" cx="81.51" cy="43.11" rx="4.32" ry="17.52" transform="translate(30.52 119.94) rotate(-84.3)"/><ellipse class="cls-5" cx="75.37" cy="39.55" rx="17.52" ry="6.4"/><ellipse class="cls-6" cx="75.37" cy="34.02" rx="19.19" ry="6.4"/><path class="cls-6" d="M69.87,131.56s1.91,8.53-8.45,26.19-23.15,19.18-23.15,19.18l-18.93-4.8s11.25-3.21,19.21-19.06,9.14-24.62,9.14-24.62l6.62-54H93.82l11.24,47.83s5.33,9.57,7.74,16.83c3.32,10,10.81,38.19,10.66,37.79l-19.19,2.88s-1.28-8.12-9.72-27.95c-7.29-14.45-13.21-20.22-13.21-20.22Z"/><path class="cls-1" d="M63.47,88.85l8.39-3.1s8.19,6.45,12.41,6,14.4-4.11,14.4-4.11L102.21,95s-14.75,7.49-21.47,5.93C71.22,100.24,63.47,88.85,63.47,88.85Z"/></svg>