<svg id="sequence" xmlns="http://www.w3.org/2000/svg" viewBox="0 0 180.38 225.85"><defs><style>.cls-1{fill:#d48428;}.cls-2{fill:#fdc277;}.cls-3{fill:#231f20;}.cls-4{fill:#f07422;}.cls-5{fill:#fdba40;}.cls-6{fill:#ffc859;}.cls-7{fill:#f8c162;}</style></defs><title>P3W2</title><path class="cls-1" d="M88.26,73.68l7.86,4.25s.58,10.41,3.71,13.29,12.6,8.09,12.6,8.09l-3.19,7.51S93.87,100.7,90.61,94.63C84.83,87,88.26,73.68,88.26,73.68Z"/><ellipse class="cls-1" cx="117.97" cy="105.46" rx="4.35" ry="5.23" transform="translate(-4.91 205.16) rotate(-80.85)"/><path class="cls-1" d="M72.78,188.29c.64-6.55,8.5-11.15,17.56-10.27s19-5.08,18.33,1.48l-7,5.76Z"/><polygon class="cls-2" points="107.53 66.8 69.37 66.8 74.64 35.59 102.27 35.59 107.53 66.8"/><ellipse class="cls-3" cx="92.66" cy="44.97" rx="1.15" ry="2.01"/><ellipse class="cls-3" cx="98.75" cy="44.97" rx="1.15" ry="2.01"/><path class="cls-3" d="M75.15,29.4a10.74,10.74,0,1,1-3.56,21.19"/><ellipse class="cls-4" cx="95.9" cy="37.94" rx="4.32" ry="17.52" transform="translate(48.62 129.6) rotate(-84.3)"/><ellipse class="cls-5" cx="89.75" cy="34.39" rx="17.52" ry="6.4"/><ellipse class="cls-6" cx="89.75" cy="28.85" rx="19.19" ry="6.4"/><path class="cls-6" d="M96,124s21,13.05,19.61,25-37,13.72-37,13.72L66,146.46l12.58-6.59s-11-7.67-11.69-17c-1.68-24.1,1.86-53.56,1.86-53.56h39.51s4.75,40.48,6,47.07c.25,7.57-.11,9.07-.53,15.57-.6,9-17.61,48.09-17.61,48.09l-19.47,1.55s16.21-49.77,17-51.27-.92-5.06-.92-5.06Z"/><path class="cls-1" d="M76.94,74.24l5.21,7.27s-4.05,9.61-2.5,13.56,7.78,12.8,7.78,12.8l-6.15,5.36S70.14,101,69.87,94.1C68,84.73,76.94,74.24,76.94,74.24Z"/><ellipse class="cls-1" cx="89.72" cy="115.82" rx="4.35" ry="5.23" transform="translate(-56.64 122.53) rotate(-54.86)"/><polygon class="cls-7" points="101.34 127.19 113.86 129.74 111.95 138.53 101.34 127.19"/><polygon class="cls-7" points="82.77 162.03 76.63 181.59 96.1 180.04 104.91 158.77 82.77 162.03"/><path class="cls-1" d="M59.4,145.79c6.21-2.17,13.69,3,16.7,11.62s12.58,15.08,6.36,17.26l-8.15-3.89Z"/></svg>