<svg id="sequence" xmlns="http://www.w3.org/2000/svg" viewBox="0 0 180.38 225.85"><defs><style>.cls-1{fill:#d48428;}.cls-2{fill:#fdc277;}.cls-3{fill:#231f20;}.cls-4{fill:#f07422;}.cls-5{fill:#fdba40;}.cls-6{fill:#ffc859;}.cls-7{fill:#f8c162;}</style></defs><title>P3W3</title><path class="cls-1" d="M106.13,89.5,114.34,86s8.52,6,12.72,5.31,14.16-4.89,14.16-4.89l3.92,7.16s-14.32,8.28-21.11,7.08C114.48,100.45,106.13,89.5,106.13,89.5Z"/><ellipse class="cls-1" cx="149.47" cy="85.83" rx="5.23" ry="4.35" transform="translate(-18.64 123.87) rotate(-42.61)"/><path class="cls-1" d="M52.86,167.26c5.33-3.87,14-1,19.33,6.33s16.38,10.84,11,14.7l-8.92-1.38Z"/><path class="cls-1" d="M129.39,183.34c-1.45-6.42,4.57-13.25,13.45-15.26s16.42-10.77,17.87-4.34l-4.8,7.65Z"/><polygon class="cls-2" points="116.63 72.37 78.47 72.37 83.73 41.16 111.36 41.16 116.63 72.37"/><ellipse class="cls-3" cx="101.75" cy="50.54" rx="1.15" ry="2.01"/><ellipse class="cls-3" cx="107.84" cy="50.54" rx="1.15" ry="2.01"/><path class="cls-3" d="M84.25,35a10.74,10.74,0,1,1-3.57,21.19"/><ellipse class="cls-4" cx="104.99" cy="43.51" rx="4.32" ry="17.52" transform="translate(51.27 143.66) rotate(-84.3)"/><ellipse class="cls-5" cx="98.85" cy="39.96" rx="17.52" ry="6.4"/><ellipse class="cls-6" cx="98.85" cy="34.43" rx="19.19" ry="6.4"/><path class="cls-6" d="M97.55,128s24,3.75,31.34,13.46,16.58,26.25,16.58,26.25l-14.87,8.39s-12-11.32-20.84-18.31c-8.12-6.41-32.45-14.5-34.59-28.95-2-13.28,2.62-54,2.62-54H117.3s4,48.07,3.67,59.1a46.48,46.48,0,0,1-16,25.33c-9.28,7.32-27.54,20.51-27.68,20.12L60.82,165.71s17-15,19.84-18.73,9.65-19,9.65-19Z"/><path class="cls-1" d="M87.55,81.29l-4,8s-10.39.85-13.18,4.06-7.74,12.81-7.74,12.81l-7.6-3s5.7-15.53,11.68-19C74.12,78.22,87.55,81.29,87.55,81.29Z"/><ellipse class="cls-1" cx="56.59" cy="111.85" rx="5.23" ry="4.35" transform="translate(-61.75 153.16) rotate(-82.41)"/><polygon class="cls-7" points="108.66 128.94 120.82 125.61 120.49 135.06 108.66 128.94"/><path class="cls-7" d="M83.71,142.47l-4.3,5.77L60.82,165.71l16.49,13.72s8.36-5.68,18.29-13c10.16-7.44,12.48-9.87,12.48-9.87Z"/></svg>