<svg id="sequence" xmlns="http://www.w3.org/2000/svg" viewBox="0 0 180.38 225.85"><defs><style>.cls-1{fill:#d48428;}.cls-2{fill:#fdc277;}.cls-3{fill:#231f20;}.cls-4{fill:#f07422;}.cls-5{fill:#fdba40;}.cls-6{fill:#ffc859;}.cls-7{fill:#f8c162;}</style></defs><title>P3W4</title><path class="cls-1" d="M97.45,72.45l7.47,4.92s-.33,10.42,2.54,13.56,11.85,9.15,11.85,9.15l-3.83,7.21S100.7,99.85,98,93.52C92.88,85.44,97.45,72.45,97.45,72.45Z"/><ellipse class="cls-1" cx="124.29" cy="106.69" rx="4.35" ry="5.23" transform="translate(-9.5 201.18) rotate(-75.87)"/><path class="cls-1" d="M65.3,146c6-2.73,13.91,1.76,17.7,10s13.91,13.86,7.92,16.6l-8.48-3.12Z"/><path class="cls-1" d="M88.92,188.29c.64-6.55,8.5-11.15,17.56-10.27s19-5.08,18.33,1.48l-7,5.76Z"/><polygon class="cls-2" points="115.66 66.8 77.51 66.8 82.77 35.59 110.4 35.59 115.66 66.8"/><ellipse class="cls-3" cx="100.79" cy="44.97" rx="1.15" ry="2.01"/><ellipse class="cls-3" cx="106.88" cy="44.97" rx="1.15" ry="2.01"/><path class="cls-3" d="M83.29,29.4a10.74,10.74,0,1,1-3.57,21.19"/><ellipse class="cls-4" cx="104.03" cy="37.94" rx="4.32" ry="17.52" transform="translate(55.94 137.69) rotate(-84.3)"/><ellipse class="cls-5" cx="97.88" cy="34.39" rx="17.52" ry="6.4"/><ellipse class="cls-6" cx="97.88" cy="28.85" rx="19.19" ry="6.4"/><path class="cls-6" d="M100.72,124.74l5.67,27.91L111,178.82l-19.91,4.47s-6.5-27.87-10.46-36.14c-4.25-8.9-5.35-21.42-5.62-24.28-2.34-24.05,1.85-53.56,1.85-53.56h39.51s7.72,43.34,9,47.07c2.05,7.1,2.68,8.42,2.67,14.77,0,11.36-44.94,27.57-44.94,27.57l-13-13.49s30.88-13.41,31.63-14.91-.91-5.06-.91-5.06Z"/><path class="cls-7" d="M101.72,130.32l21.91,7.84c-3.81,3.72-17.51,10.77-17.51,10.77"/><polygon class="cls-7" points="78.44 141.56 84.49 158.21 83.11 158.72 70.09 145.23 78.44 141.56"/><path class="cls-1" d="M79.65,75l7.87,4.26s.56,10.41,3.68,13.29,12.6,8.1,12.6,8.1l-3.2,7.51S85.24,102.06,82,96C76.21,88.38,79.65,75,79.65,75Z"/><ellipse class="cls-1" cx="109.33" cy="106.84" rx="4.35" ry="5.23" transform="translate(-13.62 197.69) rotate(-80.8)"/></svg>