<svg xmlns="http://www.w3.org/2000/svg" viewBox="0 0 936.76 190.99"><defs><style>.cls-1{fill:#3f3e3f;}.cls-2{fill:#373537;}.cls-3{fill:#2d2b2c;}.cls-4{fill:#464547;}.cls-5{fill:#231f20;}.cls-6{fill:#6a6a6c;}.cls-7{fill:#bfbebe;}.cls-8{fill:#413833;}.cls-9{fill:#a2a2a3;}.cls-10{fill:#779a95;}.cls-11{opacity:0.36;}</style></defs><title>DieselMid</title><g id="Layer_3" data-name="Layer 3"><path class="cls-1" d="M499.52,138.9H275.64a1.68,1.68,0,0,1-1.62-1.24l-5.41-20.09a1.68,1.68,0,0,1,1.62-2.11H499.52a1.67,1.67,0,0,1,1.67,1.67v20.1A1.67,1.67,0,0,1,499.52,138.9Z"/><path class="cls-2" d="M447.31,147.45H223.44a1.68,1.68,0,0,1-1.62-1.24l-5.41-20.1A1.68,1.68,0,0,1,218,124H447.31a1.68,1.68,0,0,1,1.68,1.68v20.09A1.68,1.68,0,0,1,447.31,147.45Z"/><rect class="cls-3" x="294.95" y="125.93" width="53.34" height="27.71" rx="3.79"/><rect class="cls-3" x="227.8" y="128.15" width="49.42" height="27.71" rx="3.79"/><path class="cls-1" d="M425.43,141.71H201.56a1.68,1.68,0,0,1-1.62-1.24l-5.41-20.09a1.67,1.67,0,0,1,1.62-2.11H425.43a1.68,1.68,0,0,1,1.68,1.67V140A1.68,1.68,0,0,1,425.43,141.71Z"/><path class="cls-1" d="M108.93,149.79H61.42a2.1,2.1,0,0,1-2.1-2.1V128.45a2.1,2.1,0,0,1,2.1-2.1H123a2.11,2.11,0,0,1,1.7,3.35l-14.1,19.23A2.12,2.12,0,0,1,108.93,149.79Z"/><path class="cls-1" d="M608,144.39H560a1.78,1.78,0,0,1-1.77-1.78v-19.9a1.77,1.77,0,0,1,1.77-1.77h62.6a1.77,1.77,0,0,1,1.43,2.82l-14.59,19.9A1.75,1.75,0,0,1,608,144.39Z"/><path class="cls-1" d="M705.26,144.66h49a1.24,1.24,0,0,0,1.24-1.24V133a1.24,1.24,0,0,0-1.24-1.24H691.38a1.24,1.24,0,0,0-.75,2.23l13.88,10.42A1.21,1.21,0,0,0,705.26,144.66Z"/><rect class="cls-3" x="628.88" y="129.99" width="32.7" height="13.21"/><path class="cls-3" d="M678.56,128.22v5.87H682v2.5h17.4a3,3,0,0,1,3,3V145H669.66V128.22Z"/><rect class="cls-2" x="650.79" y="133.56" width="5.6" height="16.64"/><rect class="cls-2" x="664.9" y="133.56" width="5.6" height="16.64"/><path class="cls-4" d="M629.29,153.57l17.53-9.7a20.07,20.07,0,0,1,1,17.29Z"/><rect class="cls-1" x="611.11" y="158.01" width="38.47" height="3.98" rx="0.7"/><path class="cls-5" d="M629.29,153.57l-15.57-8.72A17.84,17.84,0,0,1,644,143.39Z"/><circle class="cls-2" cx="629.29" cy="153.57" r="13.05"/><path class="cls-1" d="M614.37,147.73h5.22l2.32,6.2a4.81,4.81,0,0,1,0,3.5l0,.06a1.53,1.53,0,0,0,1.42,2.11h13a1.53,1.53,0,0,0,1.44-2.07h0a4.81,4.81,0,0,1,.23-3.86l.82-1.59a6.8,6.8,0,0,1,6.06-3.7h15.81v-8.1h-8.51a11.09,11.09,0,0,0-4.8,1.09h0a4.2,4.2,0,0,1-2,.4l-17.88-.89a9.06,9.06,0,0,0-6.31,2.12l-1.08.91a3.17,3.17,0,0,1-2,.75h-3.69Z"/><rect class="cls-3" x="621.08" y="151.97" width="16.43" height="3.21" rx="0.64"/><rect class="cls-6" x="626.06" y="147.12" width="6.47" height="5.25"/><path class="cls-6" d="M639.13,140.42l-2.91-2.14a1.07,1.07,0,0,0-.64-.21h-5.22a1.07,1.07,0,0,0-1.07,1.07v4.18a1.07,1.07,0,0,0,1.07,1.07h5.35a1.07,1.07,0,0,0,.43-.09l3.22-1.42a1.11,1.11,0,0,1,.43-.09h1a1.07,1.07,0,0,0,1.07-1.07v0a1.07,1.07,0,0,0-1.07-1.07h-1A1,1,0,0,1,639.13,140.42Z"/><rect class="cls-1" x="613.51" y="148.73" width="4.25" height="7.45" rx="1.06"/><path class="cls-6" d="M613.21,142h0a14.1,14.1,0,0,0-3.22,9.58l.07,1.67a14.11,14.11,0,0,0,1,4.75l.59,1.44a2.09,2.09,0,0,0,3.19.86h0a2.07,2.07,0,0,0,.59-2.58h0a10.9,10.9,0,0,1-.9-7.19l.26-1.18.45-1.88a3.41,3.41,0,0,0-.35-2.46Z"/><circle class="cls-2" cx="629.29" cy="153.57" r="4.84"/><circle class="cls-6" cx="629.29" cy="151.09" r="0.59"/><circle class="cls-6" cx="629.29" cy="156.06" r="0.59"/><circle class="cls-6" cx="627.54" cy="151.81" r="0.59"/><circle class="cls-6" cx="631.05" cy="155.33" r="0.59"/><circle class="cls-6" cx="626.81" cy="153.57" r="0.59"/><circle class="cls-6" cx="631.78" cy="153.57" r="0.59"/><circle class="cls-6" cx="627.54" cy="155.33" r="0.59"/><circle class="cls-6" cx="631.05" cy="151.81" r="0.59"/><path class="cls-4" d="M692,153.57l-17.53-9.7a20.07,20.07,0,0,0-1,17.29Z"/><rect class="cls-1" x="671.72" y="158.01" width="38.47" height="3.98" rx="0.7" transform="translate(1381.91 320.01) rotate(180)"/><path class="cls-5" d="M692,153.57l15.57-8.72a17.84,17.84,0,0,0-30.23-1.46Z"/><circle class="cls-2" cx="692.01" cy="153.57" r="13.05"/><path class="cls-1" d="M706.93,147.73h-5.22l-2.32,6.2a4.81,4.81,0,0,0,.05,3.5l0,.06A1.53,1.53,0,0,1,698,159.6H685a1.53,1.53,0,0,1-1.44-2.07h0a4.81,4.81,0,0,0-.23-3.86l-.82-1.59a6.8,6.8,0,0,0-6.06-3.7H660.65v-8.1h8.51a11.09,11.09,0,0,1,4.8,1.09h0a4.2,4.2,0,0,0,2,.4l17.88-.89a9.06,9.06,0,0,1,6.31,2.12l1.08.91a3.17,3.17,0,0,0,2,.75h3.69Z"/><rect class="cls-3" x="683.79" y="151.97" width="16.43" height="3.21" rx="0.64" transform="translate(1384.01 307.14) rotate(180)"/><rect class="cls-6" x="688.77" y="147.12" width="6.47" height="5.25" transform="translate(1384.01 299.49) rotate(180)"/><path class="cls-6" d="M682.17,140.42l2.91-2.14a1.07,1.07,0,0,1,.64-.21h5.22a1.07,1.07,0,0,1,1.07,1.07v4.18a1.07,1.07,0,0,1-1.07,1.07h-5.35a1.07,1.07,0,0,1-.43-.09l-3.22-1.42a1.11,1.11,0,0,0-.43-.09h-1a1.07,1.07,0,0,1-1.07-1.07v0a1.07,1.07,0,0,1,1.07-1.07h1A1,1,0,0,0,682.17,140.42Z"/><rect class="cls-1" x="703.53" y="148.73" width="4.25" height="7.45" rx="1.06" transform="translate(1411.32 304.91) rotate(180)"/><path class="cls-6" d="M708.09,142h0a14.1,14.1,0,0,1,3.22,9.58l-.07,1.67a14.11,14.11,0,0,1-1,4.75l-.59,1.44a2.09,2.09,0,0,1-3.19.86h0a2.07,2.07,0,0,1-.59-2.58h0a10.9,10.9,0,0,0,.9-7.19l-.26-1.18-.45-1.88a3.41,3.41,0,0,1,.35-2.46Z"/><circle class="cls-2" cx="692.01" cy="153.57" r="4.84"/><circle class="cls-6" cx="692.01" cy="151.09" r="0.59"/><circle class="cls-6" cx="692.01" cy="156.06" r="0.59"/><circle class="cls-6" cx="693.76" cy="151.81" r="0.59"/><circle class="cls-6" cx="690.25" cy="155.33" r="0.59"/><circle class="cls-6" cx="694.49" cy="153.57" r="0.59"/><circle class="cls-6" cx="689.52" cy="153.57" r="0.59"/><circle class="cls-6" cx="693.76" cy="155.33" r="0.59"/><circle class="cls-6" cx="690.25" cy="151.81" r="0.59"/><rect class="cls-2" x="645.45" y="138.62" width="30.4" height="6.76"/><rect class="cls-6" x="653.6" y="137.25" width="14.11" height="22.75"/><rect class="cls-4" x="656.68" y="143.65" width="7.95" height="1.91"/><rect class="cls-2" x="656.68" y="153.99" width="7.95" height="1.91"/><rect class="cls-4" x="655.3" y="149.27" width="10.7" height="4.72"/><rect class="cls-3" x="133.91" y="129.99" width="32.7" height="13.21"/><path class="cls-3" d="M183.6,128.22v5.87H187v2.5h17.4a3,3,0,0,1,3,3V145H174.69V128.22Z"/><rect class="cls-2" x="155.83" y="133.56" width="5.6" height="16.64"/><rect class="cls-2" x="169.93" y="133.56" width="5.6" height="16.64"/><path class="cls-4" d="M134.33,153.57l17.52-9.7a20,20,0,0,1,1,17.29Z"/><rect class="cls-1" x="116.14" y="158.01" width="38.47" height="3.98" rx="0.7"/><path class="cls-5" d="M134.33,153.57l-15.57-8.72A17.83,17.83,0,0,1,149,143.39Z"/><circle class="cls-2" cx="134.33" cy="153.57" r="13.05"/><path class="cls-1" d="M119.41,147.73h5.21l2.32,6.2a4.81,4.81,0,0,1,0,3.5l0,.06a1.54,1.54,0,0,0,1.43,2.11h13a1.53,1.53,0,0,0,1.44-2.07h0a4.81,4.81,0,0,1,.24-3.86l.81-1.59a6.82,6.82,0,0,1,6.06-3.7h15.81v-8.1h-8.5a11.1,11.1,0,0,0-4.81,1.09h0a4.17,4.17,0,0,1-2,.4l-17.88-.89a9,9,0,0,0-6.3,2.12l-1.09.91a3.17,3.17,0,0,1-2,.75h-3.68Z"/><rect class="cls-3" x="126.11" y="151.97" width="16.43" height="3.21" rx="0.64"/><rect class="cls-6" x="131.09" y="147.12" width="6.47" height="5.25"/><path class="cls-6" d="M144.16,140.42l-2.91-2.14a1.07,1.07,0,0,0-.64-.21H135.4a1.07,1.07,0,0,0-1.07,1.07v4.18a1.07,1.07,0,0,0,1.07,1.07h5.34a1,1,0,0,0,.43-.09l3.23-1.42a1,1,0,0,1,.43-.09h1a1.07,1.07,0,0,0,1.07-1.07v0a1.07,1.07,0,0,0-1.07-1.07h-1A1,1,0,0,1,144.16,140.42Z"/><rect class="cls-1" x="118.55" y="148.73" width="4.25" height="7.45" rx="1.06"/><path class="cls-6" d="M118.25,142h0a14.11,14.11,0,0,0-3.23,9.58l.07,1.67a14.35,14.35,0,0,0,1,4.75l.59,1.44a2.09,2.09,0,0,0,3.19.86h0a2.09,2.09,0,0,0,.6-2.58h0a10.84,10.84,0,0,1-.91-7.19l.26-1.18.45-1.88A3.36,3.36,0,0,0,120,145Z"/><circle class="cls-2" cx="134.33" cy="153.57" r="4.84"/><circle class="cls-6" cx="134.33" cy="151.09" r="0.59"/><circle class="cls-6" cx="134.33" cy="156.06" r="0.59"/><circle class="cls-6" cx="132.57" cy="151.81" r="0.59"/><circle class="cls-6" cx="136.09" cy="155.33" r="0.59"/><circle class="cls-6" cx="131.84" cy="153.57" r="0.59"/><circle class="cls-6" cx="136.81" cy="153.57" r="0.59"/><circle class="cls-6" cx="132.57" cy="155.33" r="0.59"/><circle class="cls-6" cx="136.09" cy="151.81" r="0.59"/><path class="cls-4" d="M197,153.57l-17.52-9.7a20,20,0,0,0-1,17.29Z"/><rect class="cls-1" x="176.76" y="158.01" width="38.47" height="3.98" rx="0.7" transform="translate(391.98 320.01) rotate(180)"/><path class="cls-5" d="M197,153.57l15.57-8.72a17.84,17.84,0,0,0-30.23-1.46Z"/><circle class="cls-2" cx="197.04" cy="153.57" r="13.05"/><path class="cls-1" d="M212,147.73h-5.22l-2.32,6.2a4.86,4.86,0,0,0,.05,3.5l0,.06a1.53,1.53,0,0,1-1.42,2.11H190a1.54,1.54,0,0,1-1.44-2.07h0a4.81,4.81,0,0,0-.23-3.86l-.82-1.59a6.8,6.8,0,0,0-6.06-3.7H165.68v-8.1h8.51a11.13,11.13,0,0,1,4.81,1.09h0a4.13,4.13,0,0,0,2,.4l17.89-.89a9.05,9.05,0,0,1,6.3,2.12l1.08.91a3.19,3.19,0,0,0,2,.75H212Z"/><rect class="cls-3" x="188.82" y="151.97" width="16.43" height="3.21" rx="0.64" transform="translate(394.08 307.14) rotate(180)"/><rect class="cls-6" x="193.8" y="147.12" width="6.47" height="5.25" transform="translate(394.08 299.49) rotate(180)"/><path class="cls-6" d="M187.21,140.42l2.91-2.14a1,1,0,0,1,.63-.21H196a1.07,1.07,0,0,1,1.07,1.07v4.18a1.07,1.07,0,0,1-1.07,1.07h-5.35a1.11,1.11,0,0,1-.43-.09L187,142.88a1.07,1.07,0,0,0-.43-.09h-1a1.07,1.07,0,0,1-1.07-1.07v0a1.07,1.07,0,0,1,1.07-1.07h1A1.07,1.07,0,0,0,187.21,140.42Z"/><rect class="cls-1" x="208.57" y="148.73" width="4.25" height="7.45" rx="1.06" transform="translate(421.38 304.91) rotate(180)"/><path class="cls-6" d="M213.12,142h0a14.1,14.1,0,0,1,3.22,9.58l-.07,1.67a14.11,14.11,0,0,1-1,4.75l-.59,1.44a2.08,2.08,0,0,1-3.18.86h0a2.06,2.06,0,0,1-.6-2.58h0a10.9,10.9,0,0,0,.9-7.19l-.25-1.18-.46-1.88a3.41,3.41,0,0,1,.35-2.46Z"/><circle class="cls-2" cx="197.04" cy="153.57" r="4.84"/><circle class="cls-6" cx="197.04" cy="151.09" r="0.59"/><circle class="cls-6" cx="197.04" cy="156.06" r="0.59"/><circle class="cls-6" cx="198.8" cy="151.81" r="0.59"/><circle class="cls-6" cx="195.28" cy="155.33" r="0.59"/><circle class="cls-6" cx="199.52" cy="153.57" r="0.59"/><circle class="cls-6" cx="194.55" cy="153.57" r="0.59"/><circle class="cls-6" cx="198.8" cy="155.33" r="0.59"/><circle class="cls-6" cx="195.28" cy="151.81" r="0.59"/><rect class="cls-2" x="150.48" y="138.62" width="30.4" height="6.76"/><rect class="cls-6" x="158.63" y="137.25" width="14.11" height="22.75"/><rect class="cls-4" x="161.71" y="143.65" width="7.95" height="1.91"/><rect class="cls-2" x="161.71" y="153.99" width="7.95" height="1.91"/><rect class="cls-4" x="160.33" y="149.27" width="10.7" height="4.72"/><rect class="cls-3" x="459.78" y="124.65" width="144.93" height="23.45" rx="1.43"/><rect class="cls-2" x="464.22" y="127.18" width="55.92" height="23.45" rx="1.05"/><rect class="cls-2" x="524.65" y="130.67" width="38.18" height="25.44" rx="2.59"/><path class="cls-7" d="M55.1,67.16v72.62H89.3a11.24,11.24,0,0,0,8-3.29h0a11.25,11.25,0,0,1,8-3.29H704.39a11.24,11.24,0,0,1,8,3.29h0a11.24,11.24,0,0,0,7.95,3.29H762V67.16a18.84,18.84,0,0,0-18.83-18.84H73.93A18.84,18.84,0,0,0,55.1,67.16Z"/><rect class="cls-8" x="61.57" y="74.23" width="693.95" height="6.83"/><rect class="cls-8" x="61.57" y="107.86" width="693.95" height="2.33"/><rect class="cls-9" x="328.22" y="118.4" width="160.65" height="6.88"/><path class="cls-9" d="M726.43,69h23.22a4.1,4.1,0,0,1,4.1,4.1v66.71a0,0,0,0,1,0,0H722.33a0,0,0,0,1,0,0V73.07a4.1,4.1,0,0,1,4.1-4.1Z"/><rect class="cls-4" x="47.89" y="122.97" width="7.21" height="7.21" transform="translate(102.98 253.14) rotate(180)"/><path class="cls-3" d="M47.89,121.19h0a2,2,0,0,1,2,2v6.72a2,2,0,0,1-2,2h0a0,0,0,0,1,0,0V121.19A0,0,0,0,1,47.89,121.19Z" transform="translate(97.8 253.14) rotate(-180)"/><rect class="cls-1" x="47.89" y="67.34" width="1.8" height="52.16" rx="0.9" transform="translate(97.58 186.84) rotate(180)"/><rect class="cls-6" x="49.69" y="67.34" width="1.8" height="52.16" rx="0.9" transform="translate(101.18 186.84) rotate(-180)"/><rect class="cls-1" x="51.49" y="67.34" width="1.8" height="52.16" rx="0.9" transform="translate(104.79 186.84) rotate(-180)"/><rect class="cls-6" x="53.29" y="67.34" width="1.8" height="52.16" rx="0.9" transform="translate(108.39 186.84) rotate(180)"/><rect class="cls-1" x="762" y="67.34" width="1.8" height="52.16" rx="0.9" transform="translate(1525.81 186.84) rotate(-180)"/><rect class="cls-6" x="763.81" y="67.34" width="1.8" height="52.16" rx="0.9" transform="translate(1529.41 186.84) rotate(-180)"/><rect class="cls-1" x="765.61" y="67.34" width="1.8" height="52.16" rx="0.9" transform="translate(1533.02 186.84) rotate(180)"/><rect class="cls-6" x="767.41" y="67.34" width="1.8" height="52.16" rx="0.9" transform="translate(1536.62 186.84) rotate(180)"/><rect class="cls-3" x="762" y="122.97" width="7.21" height="7.21"/><path class="cls-4" d="M767.19,121.19h0a2,2,0,0,1,2,2v6.72a2,2,0,0,1-2,2h0a0,0,0,0,1,0,0V121.19A0,0,0,0,1,767.19,121.19Z"/><rect class="cls-10" x="109.27" y="88.35" width="19.75" height="14.23" rx="1.07"/><rect class="cls-10" x="162.79" y="87.5" width="53.56" height="15.92" rx="1.07"/><rect class="cls-10" x="227.69" y="87.5" width="53.56" height="15.92" rx="1.07"/><rect class="cls-10" x="292.59" y="87.5" width="53.56" height="15.92" rx="1.07"/><rect class="cls-10" x="369.88" y="87.5" width="53.56" height="15.92" rx="1.07"/><rect class="cls-10" x="435.54" y="87.5" width="53.56" height="15.92" rx="1.07"/><rect class="cls-10" x="501.19" y="87.5" width="53.56" height="15.92" rx="1.07"/><rect class="cls-10" x="566.85" y="87.5" width="53.56" height="15.92" rx="1.07"/><rect class="cls-10" x="634.1" y="87.5" width="17.56" height="15.92" rx="1.07"/><rect class="cls-10" x="677.88" y="87.5" width="21.57" height="11.5" rx="1.07"/><rect class="cls-10" x="727.24" y="79.02" width="21.61" height="13.92" rx="1.07"/></g></svg>