<svg xmlns="http://www.w3.org/2000/svg" viewBox="0 0 936.76 190.99"><defs><style>.cls-1{fill:#779a95;}.cls-2{fill:#a2a2a3;}.cls-3{fill:#3f3e3f;}.cls-4{fill:#2d2b2c;}.cls-5{fill:#373537;}.cls-6{fill:#464547;}.cls-7{fill:#231f20;}.cls-8{fill:#6a6a6c;}.cls-9{fill:#bfbebe;}.cls-10{fill:#413833;}.cls-11{opacity:0.36;}</style></defs><title>DieselEnd</title><g id="Layer_3" data-name="Layer 3"><path class="cls-1" d="M446.64,40.49a29.39,29.39,0,0,1-20.73-8.55L422,28.08a29.36,29.36,0,0,0-20.72-8.55H264.82a29.36,29.36,0,0,0-20.72,8.55l-3.89,3.86a29.39,29.39,0,0,1-20.73,8.55h-28v32H474.62v-32Z"/><path class="cls-2" d="M436.35,40.49a25.54,25.54,0,0,1-18.85-8.55L414,28.08a25.54,25.54,0,0,0-18.85-8.55H271a25.54,25.54,0,0,0-18.85,8.55l-3.54,3.86a25.54,25.54,0,0,1-18.85,8.55H204.32v32H461.8v-32Z"/><path class="cls-1" d="M430.9,40.49a23.65,23.65,0,0,1-17.85-8.55l-3.35-3.86a23.68,23.68,0,0,0-17.86-8.55H274.28a23.68,23.68,0,0,0-17.86,8.55l-3.35,3.86a23.65,23.65,0,0,1-17.85,8.55H211.11v32H455v-32Z"/><path class="cls-2" d="M395.05,40.49c-4.24,0-8.31-3.07-11.31-8.55l-2.12-3.86c-3-5.48-7.08-8.55-11.32-8.55H295.82c-4.24,0-8.31,3.07-11.32,8.55l-2.12,3.86c-3,5.48-7.07,8.55-11.31,8.55H255.79v32H410.33v-32Z"/><path class="cls-1" d="M389.79,40.49c-3.88,0-7.6-3.07-10.36-8.55l-1.94-3.86c-2.75-5.48-6.47-8.55-10.35-8.55H299c-3.88,0-7.6,3.07-10.35,8.55l-1.95,3.86c-2.75,5.48-6.47,8.55-10.35,8.55h-14v32H403.77v-32Z"/><path class="cls-3" d="M421.83,137.46H198a1.67,1.67,0,0,1-1.62-1.24l-5.41-20.1a1.68,1.68,0,0,1,1.62-2.11H421.83a1.68,1.68,0,0,1,1.68,1.68v20.09A1.68,1.68,0,0,1,421.83,137.46Z"/><path class="cls-3" d="M105.33,142H57.82a2.12,2.12,0,0,1-2.11-2.11V120.62a2.11,2.11,0,0,1,2.11-2.1h61.61a2.11,2.11,0,0,1,1.7,3.35L107,141.1A2.1,2.1,0,0,1,105.33,142Z"/><path class="cls-3" d="M604.37,136.56h-48a1.78,1.78,0,0,1-1.77-1.78v-19.9a1.77,1.77,0,0,1,1.77-1.77H619a1.77,1.77,0,0,1,1.43,2.82l-14.59,19.9A1.75,1.75,0,0,1,604.37,136.56Z"/><path class="cls-3" d="M701.85,136.83h48.26a1.81,1.81,0,0,0,1.81-1.81v-9.28a1.81,1.81,0,0,0-1.81-1.81H689.5a1.82,1.82,0,0,0-1.09,3.27l12.35,9.27A1.78,1.78,0,0,0,701.85,136.83Z"/><rect class="cls-4" x="625.27" y="122.16" width="32.7" height="13.21"/><path class="cls-4" d="M675,120.39v5.87h3.43v2.5h17.4a3,3,0,0,1,3,3v5.38H666.06V120.39Z"/><rect class="cls-5" x="647.19" y="125.73" width="5.6" height="16.64"/><rect class="cls-5" x="661.3" y="125.73" width="5.6" height="16.64"/><path class="cls-6" d="M625.69,145.74l17.52-9.7a20,20,0,0,1,1,17.29Z"/><rect class="cls-3" x="607.51" y="150.19" width="38.47" height="3.98" rx="0.7"/><path class="cls-7" d="M625.69,145.74,610.12,137a17.84,17.84,0,0,1,30.23-1.46Z"/><circle class="cls-5" cx="625.69" cy="145.74" r="13.05"/><path class="cls-3" d="M610.77,139.9H616l2.33,6.2a4.86,4.86,0,0,1,0,3.5l0,.06a1.53,1.53,0,0,0,1.42,2.11h13a1.54,1.54,0,0,0,1.45-2.06h0a4.83,4.83,0,0,1,.23-3.87l.82-1.59a6.8,6.8,0,0,1,6.06-3.7h15.81v-8.1h-8.51a11.13,11.13,0,0,0-4.81,1.09h0a4.13,4.13,0,0,1-2,.4l-17.89-.89a9.05,9.05,0,0,0-6.3,2.12l-1.08.91a3.19,3.19,0,0,1-2,.75h-3.69Z"/><rect class="cls-4" x="617.47" y="144.14" width="16.43" height="3.21" rx="0.64"/><rect class="cls-8" x="622.46" y="139.29" width="6.47" height="5.25"/><path class="cls-8" d="M635.52,132.59l-2.91-2.14a1,1,0,0,0-.63-.21h-5.22a1.07,1.07,0,0,0-1.07,1.07v4.18a1.07,1.07,0,0,0,1.07,1.07h5.34a1.12,1.12,0,0,0,.44-.09l3.22-1.42a1.07,1.07,0,0,1,.43-.09h1a1.07,1.07,0,0,0,1.07-1.07v0a1.07,1.07,0,0,0-1.07-1.07h-1A1.07,1.07,0,0,1,635.52,132.59Z"/><rect class="cls-3" x="609.91" y="140.9" width="4.25" height="7.45" rx="1.06"/><path class="cls-8" d="M609.61,134.18h0a14.06,14.06,0,0,0-3.22,9.57l.07,1.67a14.11,14.11,0,0,0,1,4.75l.59,1.44a2.08,2.08,0,0,0,3.18.86h0a2.06,2.06,0,0,0,.6-2.58h0a10.9,10.9,0,0,1-.9-7.19l.25-1.18.46-1.88a3.43,3.43,0,0,0-.35-2.45Z"/><circle class="cls-5" cx="625.69" cy="145.74" r="4.84"/><circle class="cls-8" cx="625.69" cy="143.26" r="0.59"/><circle class="cls-8" cx="625.69" cy="148.23" r="0.59"/><circle class="cls-8" cx="623.93" cy="143.99" r="0.59"/><circle class="cls-8" cx="627.45" cy="147.5" r="0.59"/><circle class="cls-8" cx="623.21" cy="145.74" r="0.59"/><circle class="cls-8" cx="628.18" cy="145.74" r="0.59"/><circle class="cls-8" cx="623.93" cy="147.5" r="0.59"/><circle class="cls-8" cx="627.45" cy="143.99" r="0.59"/><path class="cls-6" d="M688.4,145.74,670.88,136a20,20,0,0,0-1,17.29Z"/><rect class="cls-3" x="668.12" y="150.19" width="38.47" height="3.98" rx="0.7" transform="translate(1374.71 304.35) rotate(180)"/><path class="cls-7" d="M688.4,145.74,704,137a17.83,17.83,0,0,0-30.22-1.46Z"/><circle class="cls-5" cx="688.4" cy="145.74" r="13.05"/><path class="cls-3" d="M703.32,139.9h-5.21l-2.32,6.2a4.81,4.81,0,0,0,0,3.5l0,.06a1.54,1.54,0,0,1-1.43,2.11h-13a1.53,1.53,0,0,1-1.44-2.06h0a4.83,4.83,0,0,0-.24-3.87l-.81-1.59a6.82,6.82,0,0,0-6.06-3.7H657.05v-8.1h8.5a11.1,11.1,0,0,1,4.81,1.09h0a4.17,4.17,0,0,0,2,.4l17.88-.89a9,9,0,0,1,6.3,2.12l1.09.91a3.17,3.17,0,0,0,2,.75h3.68Z"/><rect class="cls-4" x="680.19" y="144.14" width="16.43" height="3.21" rx="0.64" transform="translate(1376.81 291.49) rotate(180)"/><rect class="cls-8" x="685.17" y="139.29" width="6.47" height="5.25" transform="translate(1376.81 283.83) rotate(180)"/><path class="cls-8" d="M678.57,132.59l2.91-2.14a1.07,1.07,0,0,1,.64-.21h5.21a1.07,1.07,0,0,1,1.07,1.07v4.18a1.07,1.07,0,0,1-1.07,1.07H682a1,1,0,0,1-.43-.09l-3.23-1.42a1,1,0,0,0-.43-.09h-1a1.07,1.07,0,0,1-1.07-1.07v0a1.07,1.07,0,0,1,1.07-1.07h1A1,1,0,0,0,678.57,132.59Z"/><rect class="cls-3" x="699.93" y="140.9" width="4.25" height="7.45" rx="1.06" transform="translate(1404.11 289.26) rotate(180)"/><path class="cls-8" d="M704.48,134.18h0a14.11,14.11,0,0,1,3.23,9.57l-.07,1.67a14.12,14.12,0,0,1-1,4.75l-.58,1.44a2.09,2.09,0,0,1-3.19.86h0a2.09,2.09,0,0,1-.6-2.58h0a10.84,10.84,0,0,0,.91-7.19l-.26-1.18-.45-1.88a3.33,3.33,0,0,1,.35-2.45Z"/><circle class="cls-5" cx="688.4" cy="145.74" r="4.84"/><circle class="cls-8" cx="688.4" cy="143.26" r="0.59"/><circle class="cls-8" cx="688.4" cy="148.23" r="0.59"/><circle class="cls-8" cx="690.16" cy="143.99" r="0.59"/><circle class="cls-8" cx="686.64" cy="147.5" r="0.59"/><circle class="cls-8" cx="690.89" cy="145.74" r="0.59"/><circle class="cls-8" cx="685.92" cy="145.74" r="0.59"/><circle class="cls-8" cx="690.16" cy="147.5" r="0.59"/><circle class="cls-8" cx="686.64" cy="143.99" r="0.59"/><rect class="cls-5" x="641.85" y="130.8" width="30.4" height="6.76"/><rect class="cls-8" x="649.99" y="129.42" width="14.11" height="22.75"/><rect class="cls-6" x="653.07" y="135.82" width="7.95" height="1.91"/><rect class="cls-5" x="653.07" y="146.17" width="7.95" height="1.91"/><rect class="cls-6" x="651.7" y="141.44" width="10.7" height="4.72"/><rect class="cls-4" x="130.31" y="122.16" width="32.7" height="13.21"/><path class="cls-4" d="M180,120.39v5.87h3.43v2.5h17.4a3,3,0,0,1,3,3v5.38H171.09V120.39Z"/><rect class="cls-5" x="152.22" y="125.73" width="5.6" height="16.64"/><rect class="cls-5" x="166.33" y="125.73" width="5.6" height="16.64"/><path class="cls-6" d="M130.72,145.74l17.53-9.7a20.07,20.07,0,0,1,1,17.29Z"/><rect class="cls-3" x="112.54" y="150.19" width="38.47" height="3.98" rx="0.7"/><path class="cls-7" d="M130.72,145.74,115.15,137a17.84,17.84,0,0,1,30.23-1.46Z"/><circle class="cls-5" cx="130.72" cy="145.74" r="13.05"/><path class="cls-3" d="M115.8,139.9H121l2.32,6.2a4.81,4.81,0,0,1,0,3.5l0,.06a1.53,1.53,0,0,0,1.42,2.11h13a1.53,1.53,0,0,0,1.44-2.06h0a4.83,4.83,0,0,1,.23-3.87l.82-1.59a6.8,6.8,0,0,1,6.06-3.7h15.81v-8.1h-8.51a11.09,11.09,0,0,0-4.8,1.09h0a4.2,4.2,0,0,1-2,.4l-17.88-.89a9.06,9.06,0,0,0-6.31,2.12l-1.08.91a3.17,3.17,0,0,1-2,.75H115.8Z"/><rect class="cls-4" x="122.51" y="144.14" width="16.43" height="3.21" rx="0.64"/><rect class="cls-8" x="127.49" y="139.29" width="6.47" height="5.25"/><path class="cls-8" d="M140.56,132.59l-2.91-2.14a1.07,1.07,0,0,0-.64-.21h-5.22a1.07,1.07,0,0,0-1.07,1.07v4.18a1.07,1.07,0,0,0,1.07,1.07h5.35a1.07,1.07,0,0,0,.43-.09l3.22-1.42a1.11,1.11,0,0,1,.43-.09h1a1.07,1.07,0,0,0,1.07-1.07v0a1.07,1.07,0,0,0-1.07-1.07h-1A1,1,0,0,1,140.56,132.59Z"/><rect class="cls-3" x="114.94" y="140.9" width="4.25" height="7.45" rx="1.06"/><path class="cls-8" d="M114.64,134.18h0a14.06,14.06,0,0,0-3.22,9.57l.07,1.67a14.11,14.11,0,0,0,1,4.75l.59,1.44a2.09,2.09,0,0,0,3.19.86h0a2.07,2.07,0,0,0,.59-2.58h0a10.9,10.9,0,0,1-.9-7.19l.26-1.18.45-1.88a3.38,3.38,0,0,0-.35-2.45Z"/><circle class="cls-5" cx="130.72" cy="145.74" r="4.84"/><circle class="cls-8" cx="130.72" cy="143.26" r="0.59"/><circle class="cls-8" cx="130.72" cy="148.23" r="0.59"/><circle class="cls-8" cx="128.97" cy="143.99" r="0.59"/><circle class="cls-8" cx="132.48" cy="147.5" r="0.59"/><circle class="cls-8" cx="128.24" cy="145.74" r="0.59"/><circle class="cls-8" cx="133.21" cy="145.74" r="0.59"/><circle class="cls-8" cx="128.97" cy="147.5" r="0.59"/><circle class="cls-8" cx="132.48" cy="143.99" r="0.59"/><path class="cls-6" d="M193.44,145.74,175.91,136a20.07,20.07,0,0,0-1,17.29Z"/><rect class="cls-3" x="173.15" y="150.19" width="38.47" height="3.98" rx="0.7" transform="translate(384.77 304.35) rotate(180)"/><path class="cls-7" d="M193.44,145.74,209,137a17.84,17.84,0,0,0-30.23-1.46Z"/><circle class="cls-5" cx="193.44" cy="145.74" r="13.05"/><path class="cls-3" d="M208.36,139.9h-5.22l-2.32,6.2a4.81,4.81,0,0,0,.05,3.5l0,.06a1.53,1.53,0,0,1-1.42,2.11h-13a1.53,1.53,0,0,1-1.44-2.06h0a4.83,4.83,0,0,0-.23-3.87l-.82-1.59a6.8,6.8,0,0,0-6.06-3.7H162.08v-8.1h8.51a11.09,11.09,0,0,1,4.8,1.09h0a4.2,4.2,0,0,0,2,.4l17.88-.89a9.06,9.06,0,0,1,6.31,2.12l1.08.91a3.17,3.17,0,0,0,2,.75h3.69Z"/><rect class="cls-4" x="185.22" y="144.14" width="16.43" height="3.21" rx="0.64" transform="translate(386.87 291.49) rotate(180)"/><rect class="cls-8" x="190.2" y="139.29" width="6.47" height="5.25" transform="translate(386.87 283.83) rotate(180)"/><path class="cls-8" d="M183.6,132.59l2.91-2.14a1.07,1.07,0,0,1,.64-.21h5.21a1.07,1.07,0,0,1,1.08,1.07v4.18a1.07,1.07,0,0,1-1.08,1.07H187a1.07,1.07,0,0,1-.43-.09l-3.22-1.42a1.12,1.12,0,0,0-.44-.09h-1a1.07,1.07,0,0,1-1.07-1.07v0A1.07,1.07,0,0,1,182,132.8h1A1,1,0,0,0,183.6,132.59Z"/><rect class="cls-3" x="204.96" y="140.9" width="4.25" height="7.45" rx="1.06" transform="translate(414.18 289.26) rotate(180)"/><path class="cls-8" d="M209.52,134.18h0a14.06,14.06,0,0,1,3.22,9.57l-.07,1.67a14.11,14.11,0,0,1-1,4.75l-.59,1.44a2.09,2.09,0,0,1-3.19.86h0a2.07,2.07,0,0,1-.59-2.58h0a10.9,10.9,0,0,0,.9-7.19l-.26-1.18-.45-1.88a3.38,3.38,0,0,1,.35-2.45Z"/><circle class="cls-5" cx="193.44" cy="145.74" r="4.84"/><circle class="cls-8" cx="193.44" cy="143.26" r="0.59"/><circle class="cls-8" cx="193.44" cy="148.23" r="0.59"/><circle class="cls-8" cx="195.19" cy="143.99" r="0.59"/><circle class="cls-8" cx="191.68" cy="147.5" r="0.59"/><circle class="cls-8" cx="195.92" cy="145.74" r="0.59"/><circle class="cls-8" cx="190.95" cy="145.74" r="0.59"/><circle class="cls-8" cx="195.19" cy="147.5" r="0.59"/><circle class="cls-8" cx="191.68" cy="143.99" r="0.59"/><rect class="cls-5" x="146.88" y="130.8" width="30.4" height="6.76"/><rect class="cls-8" x="155.03" y="129.42" width="14.11" height="22.75"/><rect class="cls-6" x="158.11" y="135.82" width="7.95" height="1.91"/><rect class="cls-5" x="158.11" y="146.17" width="7.95" height="1.91"/><rect class="cls-6" x="156.73" y="141.44" width="10.7" height="4.72"/><rect class="cls-4" x="456.18" y="116.82" width="144.93" height="23.45" rx="1.43"/><rect class="cls-5" x="460.61" y="119.35" width="55.92" height="23.45" rx="1.05"/><rect class="cls-5" x="521.05" y="122.84" width="38.18" height="25.44" rx="2.59"/><rect class="cls-7" x="235.29" y="124.21" width="197.28" height="23.45" rx="4.49"/><rect class="cls-5" x="218.87" y="117.64" width="226.84" height="23.45" rx="1.41"/><rect class="cls-3" x="434.31" y="118.1" width="22.79" height="27.71" rx="3.79"/><path class="cls-9" d="M739.56,40.49H159.13A262.38,262.38,0,0,0,60.79,59.62h0a14.86,14.86,0,0,0-9.3,13.78V132H85.91a11.15,11.15,0,0,0,7.81-3.36,11.26,11.26,0,0,1,7.88-3.22H220.25a11.17,11.17,0,0,1,7.8,3.36,11.3,11.3,0,0,0,7.89,3.22H428.4a11.12,11.12,0,0,0,7.8-3.36,11.28,11.28,0,0,1,7.89-3.22H701a11.17,11.17,0,0,1,7.8,3.36,11.28,11.28,0,0,0,7.89,3.22H758.4V59.33A18.84,18.84,0,0,0,739.56,40.49Z"/><path class="cls-10" d="M51.5,73.23H751.92V66.4H53.25A14.8,14.8,0,0,0,51.5,73.23Z"/><rect class="cls-10" x="51.49" y="100.03" width="700.43" height="2.33"/><rect class="cls-2" x="250.87" y="110.57" width="160.65" height="6.88"/><path class="cls-2" d="M722.83,61.14H746a4.1,4.1,0,0,1,4.1,4.1V132a0,0,0,0,1,0,0H718.72a0,0,0,0,1,0,0V65.24A4.1,4.1,0,0,1,722.83,61.14Z"/><rect class="cls-3" x="758.4" y="59.51" width="1.8" height="52.16" rx="0.81" transform="translate(1518.61 171.18) rotate(-180)"/><rect class="cls-8" x="760.2" y="59.51" width="1.8" height="52.16" rx="0.81" transform="translate(1522.21 171.18) rotate(180)"/><rect class="cls-3" x="762" y="59.51" width="1.8" height="52.16" rx="0.81" transform="translate(1525.81 171.18) rotate(-180)"/><rect class="cls-8" x="763.81" y="59.51" width="1.8" height="52.16" rx="0.81" transform="translate(1529.41 171.18) rotate(180)"/><rect class="cls-4" x="758.4" y="115.14" width="7.21" height="7.21"/><path class="cls-6" d="M763.59,113.36h0a2,2,0,0,1,2,2v6.72a2,2,0,0,1-2,2h0a0,0,0,0,1,0,0V113.36A0,0,0,0,1,763.59,113.36Z"/><rect class="cls-1" x="596.04" y="80.45" width="28.57" height="17.99" rx="1.07"/><rect class="cls-1" x="552.09" y="80.45" width="28.57" height="17.99" rx="1.07"/><rect class="cls-1" x="493.92" y="80.45" width="28.57" height="17.99" rx="1.07"/><rect class="cls-1" x="418.7" y="80.45" width="45.09" height="17.99" rx="1.07"/><rect class="cls-1" x="364.13" y="85.49" width="24.22" height="12.94" rx="1.07"/><rect class="cls-1" x="323.96" y="85.49" width="24.22" height="12.94" rx="1.07"/><rect class="cls-1" x="283.79" y="85.49" width="24.22" height="12.94" rx="1.07"/><rect class="cls-1" x="198.34" y="85.49" width="16.67" height="12.94" rx="1.07"/><rect class="cls-1" x="149.45" y="85.49" width="36.76" height="12.94" rx="1.07"/><rect class="cls-1" x="107.58" y="85.49" width="22.73" height="12.94" rx="1.07"/><rect class="cls-1" x="77.26" y="85.49" width="18.95" height="12.94" rx="1.07"/><rect class="cls-1" x="53.96" y="85.49" width="13.83" height="12.94" rx="1.07"/><rect class="cls-1" x="676.88" y="79.67" width="21.61" height="13.92" rx="1.07"/><rect class="cls-1" x="723.63" y="71.19" width="21.61" height="13.92" rx="1.07"/></g></svg>