<svg xmlns="http://www.w3.org/2000/svg" viewBox="0 0 936.76 190.99"><defs><style>.cls-1{fill:#779a95;}.cls-2{fill:#a2a2a3;}.cls-3{fill:#3f3e3f;}.cls-4{fill:#2d2b2c;}.cls-5{fill:#373537;}.cls-6{fill:#464547;}.cls-7{fill:#231f20;}.cls-8{fill:#6a6a6c;}.cls-9{fill:#bfbebe;}.cls-10{fill:#413833;}.cls-11{opacity:0.36;}</style></defs><title>DieselMidView</title><g id="Layer_3" data-name="Layer 3"><path class="cls-1" d="M473.19,60.47a29.41,29.41,0,0,1-20.72-8.55l-3.89-3.87a29.43,29.43,0,0,0-20.73-8.55H291.38a29.43,29.43,0,0,0-20.73,8.55l-3.88,3.87A29.43,29.43,0,0,1,246,60.47h-28v32H501.18v-32Z"/><path class="cls-2" d="M462.9,60.47a25.59,25.59,0,0,1-18.85-8.55l-3.53-3.87a25.59,25.59,0,0,0-18.85-8.55H297.56a25.59,25.59,0,0,0-18.85,8.55l-3.53,3.87a25.59,25.59,0,0,1-18.85,8.55H230.88v32H488.35v-32Z"/><path class="cls-1" d="M457.46,60.47a23.72,23.72,0,0,1-17.86-8.55l-3.34-3.87A23.72,23.72,0,0,0,418.4,39.5H300.83A23.68,23.68,0,0,0,283,48.05l-3.35,3.87a23.72,23.72,0,0,1-17.86,8.55H237.66v32H481.57v-32Z"/><path class="cls-2" d="M421.61,60.47c-4.24,0-8.31-3.08-11.32-8.55l-2.12-3.87c-3-5.47-7.07-8.55-11.31-8.55H322.37c-4.24,0-8.3,3.08-11.31,8.55l-2.12,3.87c-3,5.47-7.08,8.55-11.31,8.55H282.35v32H436.88v-32Z"/><path class="cls-1" d="M416.34,60.47c-3.88,0-7.6-3.08-10.35-8.55l-1.94-3.87c-2.75-5.47-6.47-8.55-10.35-8.55H325.54c-3.88,0-7.61,3.08-10.36,8.55l-1.94,3.87c-2.75,5.47-6.47,8.55-10.35,8.55h-14v32H430.32v-32Z"/><path class="cls-3" d="M448.39,157.43H224.51a1.68,1.68,0,0,1-1.62-1.24l-5.4-20.09a1.68,1.68,0,0,1,1.62-2.12H448.39a1.68,1.68,0,0,1,1.68,1.68v20.09A1.68,1.68,0,0,1,448.39,157.43Z"/><path class="cls-3" d="M131.88,161.94H84.38a2.1,2.1,0,0,1-2.11-2.11V140.6a2.1,2.1,0,0,1,2.11-2.11H146a2.1,2.1,0,0,1,1.7,3.35l-14.1,19.24A2.09,2.09,0,0,1,131.88,161.94Z"/><path class="cls-3" d="M630.93,156.53h-48a1.77,1.77,0,0,1-1.77-1.77v-19.9a1.78,1.78,0,0,1,1.77-1.78h62.6A1.78,1.78,0,0,1,647,135.9l-14.59,19.91A1.8,1.8,0,0,1,630.93,156.53Z"/><path class="cls-3" d="M728.41,156.81h48.25a1.82,1.82,0,0,0,1.82-1.82v-9.27a1.81,1.81,0,0,0-1.82-1.82h-60.6a1.82,1.82,0,0,0-1.09,3.27l12.34,9.27A1.82,1.82,0,0,0,728.41,156.81Z"/><rect class="cls-4" x="651.83" y="142.13" width="32.7" height="13.21"/><path class="cls-4" d="M701.52,140.36v5.88h3.42v2.49h17.4a3,3,0,0,1,3,3v5.38H692.62V140.36Z"/><rect class="cls-5" x="673.75" y="145.71" width="5.6" height="16.64"/><rect class="cls-5" x="687.86" y="145.71" width="5.6" height="16.64"/><path class="cls-6" d="M652.25,165.72,669.77,156a20.05,20.05,0,0,1,1,17.3Z"/><rect class="cls-3" x="634.06" y="170.16" width="38.47" height="3.98" rx="0.7"/><path class="cls-7" d="M652.25,165.72,636.68,157a17.85,17.85,0,0,1,30.23-1.46Z"/><circle class="cls-5" cx="652.25" cy="165.72" r="13.05"/><path class="cls-3" d="M637.33,159.87h5.21l2.32,6.21a4.78,4.78,0,0,1,0,3.49l0,.06a1.54,1.54,0,0,0,1.43,2.12h13a1.54,1.54,0,0,0,1.44-2.07h0a4.83,4.83,0,0,1,.24-3.87l.81-1.58a6.81,6.81,0,0,1,6.06-3.7H683.6v-8.11h-8.5a11.24,11.24,0,0,0-4.81,1.09h0a4.06,4.06,0,0,1-2,.4L650.44,153a9.13,9.13,0,0,0-6.3,2.12l-1.09.92a3.16,3.16,0,0,1-2,.74h-3.68Z"/><rect class="cls-4" x="644.03" y="164.11" width="16.43" height="3.21" rx="0.64"/><rect class="cls-8" x="649.01" y="159.27" width="6.47" height="5.25"/><path class="cls-8" d="M662.08,152.56l-2.91-2.14a1.11,1.11,0,0,0-.63-.21h-5.22a1.07,1.07,0,0,0-1.07,1.07v4.18a1.07,1.07,0,0,0,1.07,1.07h5.34a1,1,0,0,0,.43-.09l3.23-1.42a1,1,0,0,1,.43-.09h1a1.07,1.07,0,0,0,1.07-1.07v0a1.07,1.07,0,0,0-1.07-1.07h-1A1,1,0,0,1,662.08,152.56Z"/><rect class="cls-3" x="636.47" y="160.87" width="4.25" height="7.45" rx="1.06"/><path class="cls-8" d="M636.17,154.15h0a14.06,14.06,0,0,0-3.22,9.57l.07,1.68a13.81,13.81,0,0,0,1,4.74l.59,1.44a2.07,2.07,0,0,0,3.18.87h0a2.1,2.1,0,0,0,.6-2.59h0a10.84,10.84,0,0,1-.91-7.19l.26-1.17.45-1.89a3.33,3.33,0,0,0-.35-2.45Z"/><circle class="cls-5" cx="652.25" cy="165.72" r="4.84"/><circle class="cls-8" cx="652.25" cy="163.23" r="0.59"/><circle class="cls-8" cx="652.25" cy="168.2" r="0.59"/><circle class="cls-8" cx="650.49" cy="163.96" r="0.59"/><circle class="cls-8" cx="654.01" cy="167.47" r="0.59"/><circle class="cls-8" cx="649.76" cy="165.72" r="0.59"/><circle class="cls-8" cx="654.73" cy="165.72" r="0.59"/><circle class="cls-8" cx="650.49" cy="167.47" r="0.59"/><circle class="cls-8" cx="654.01" cy="163.96" r="0.59"/><path class="cls-6" d="M715,165.72,697.44,156a20.05,20.05,0,0,0-1,17.3Z"/><rect class="cls-3" x="694.68" y="170.16" width="38.47" height="3.98" rx="0.7" transform="translate(1427.82 344.29) rotate(180)"/><path class="cls-7" d="M715,165.72,730.53,157a17.85,17.85,0,0,0-30.23-1.46Z"/><circle class="cls-5" cx="714.96" cy="165.72" r="13.05"/><path class="cls-3" d="M729.88,159.87h-5.21l-2.33,6.21a4.83,4.83,0,0,0,0,3.49l0,.06a1.54,1.54,0,0,1-1.42,2.12H708a1.55,1.55,0,0,1-1.45-2.07h0a4.83,4.83,0,0,0-.23-3.87l-.81-1.58a6.81,6.81,0,0,0-6.06-3.7H683.6v-8.11h8.51a11.28,11.28,0,0,1,4.81,1.09h0a4,4,0,0,0,2,.4l17.89-.89a9.15,9.15,0,0,1,6.3,2.12l1.08.92a3.2,3.2,0,0,0,2,.74h3.69Z"/><rect class="cls-4" x="706.74" y="164.11" width="16.43" height="3.21" rx="0.64" transform="translate(1429.92 331.43) rotate(180)"/><rect class="cls-8" x="711.72" y="159.27" width="6.47" height="5.25" transform="translate(1429.92 323.78) rotate(180)"/><path class="cls-8" d="M705.13,152.56l2.91-2.14a1.08,1.08,0,0,1,.63-.21h5.22a1.07,1.07,0,0,1,1.07,1.07v4.18a1.07,1.07,0,0,1-1.07,1.07h-5.34a1,1,0,0,1-.43-.09L704.89,155a1.07,1.07,0,0,0-.43-.09h-1a1.06,1.06,0,0,1-1.07-1.07v0a1.06,1.06,0,0,1,1.07-1.07h1A1.07,1.07,0,0,0,705.13,152.56Z"/><rect class="cls-3" x="726.49" y="160.87" width="4.25" height="7.45" rx="1.06" transform="translate(1457.23 329.2) rotate(180)"/><path class="cls-8" d="M731,154.15h0a14.06,14.06,0,0,1,3.22,9.57l-.07,1.68a14,14,0,0,1-1,4.74l-.59,1.44a2.07,2.07,0,0,1-3.18.87h0a2.08,2.08,0,0,1-.6-2.59h0a10.9,10.9,0,0,0,.9-7.19l-.25-1.17-.45-1.89a3.33,3.33,0,0,1,.35-2.45Z"/><circle class="cls-5" cx="714.96" cy="165.72" r="4.84"/><circle class="cls-8" cx="714.96" cy="163.23" r="0.59"/><circle class="cls-8" cx="714.96" cy="168.2" r="0.59"/><circle class="cls-8" cx="716.72" cy="163.96" r="0.59"/><circle class="cls-8" cx="713.2" cy="167.47" r="0.59"/><circle class="cls-8" cx="717.45" cy="165.72" r="0.59"/><circle class="cls-8" cx="712.47" cy="165.72" r="0.59"/><circle class="cls-8" cx="716.72" cy="167.47" r="0.59"/><circle class="cls-8" cx="713.2" cy="163.96" r="0.59"/><rect class="cls-5" x="668.4" y="150.77" width="30.4" height="6.76"/><rect class="cls-8" x="676.55" y="149.4" width="14.11" height="22.75"/><rect class="cls-6" x="679.63" y="155.79" width="7.95" height="1.91"/><rect class="cls-5" x="679.63" y="166.14" width="7.95" height="1.91"/><rect class="cls-6" x="678.26" y="161.42" width="10.7" height="4.72"/><rect class="cls-4" x="156.86" y="142.13" width="32.7" height="13.21"/><path class="cls-4" d="M206.55,140.36v5.88H210v2.49h17.4a3,3,0,0,1,3,3v5.38H197.65V140.36Z"/><rect class="cls-5" x="178.78" y="145.71" width="5.6" height="16.64"/><rect class="cls-5" x="192.89" y="145.71" width="5.6" height="16.64"/><path class="cls-6" d="M157.28,165.72,174.8,156a20.05,20.05,0,0,1,1,17.3Z"/><rect class="cls-3" x="139.1" y="170.16" width="38.47" height="3.98" rx="0.7"/><path class="cls-7" d="M157.28,165.72,141.71,157a17.85,17.85,0,0,1,30.23-1.46Z"/><circle class="cls-5" cx="157.28" cy="165.72" r="13.05"/><path class="cls-3" d="M142.36,159.87h5.21l2.33,6.21a4.83,4.83,0,0,1-.05,3.49l0,.06a1.54,1.54,0,0,0,1.42,2.12h13a1.55,1.55,0,0,0,1.45-2.07h0a4.83,4.83,0,0,1,.23-3.87l.82-1.58a6.78,6.78,0,0,1,6-3.7h15.82v-8.11h-8.51a11.28,11.28,0,0,0-4.81,1.09h0a4,4,0,0,1-2,.4L155.47,153a9.15,9.15,0,0,0-6.3,2.12l-1.08.92a3.2,3.2,0,0,1-2,.74h-3.69Z"/><rect class="cls-4" x="149.06" y="164.11" width="16.43" height="3.21" rx="0.64"/><rect class="cls-8" x="154.05" y="159.27" width="6.47" height="5.25"/><path class="cls-8" d="M167.11,152.56l-2.91-2.14a1.08,1.08,0,0,0-.63-.21h-5.22a1.07,1.07,0,0,0-1.07,1.07v4.18a1.07,1.07,0,0,0,1.07,1.07h5.34a1,1,0,0,0,.43-.09l3.23-1.42a1.07,1.07,0,0,1,.43-.09h1a1.06,1.06,0,0,0,1.07-1.07v0a1.06,1.06,0,0,0-1.07-1.07h-1A1.07,1.07,0,0,1,167.11,152.56Z"/><rect class="cls-3" x="141.5" y="160.87" width="4.25" height="7.45" rx="1.06"/><path class="cls-8" d="M141.2,154.15h0a14.06,14.06,0,0,0-3.22,9.57l.07,1.68a14,14,0,0,0,1,4.74l.59,1.44a2.07,2.07,0,0,0,3.18.87h0a2.08,2.08,0,0,0,.6-2.59h0a10.9,10.9,0,0,1-.9-7.19l.25-1.17.45-1.89a3.37,3.37,0,0,0-.34-2.45Z"/><circle class="cls-5" cx="157.28" cy="165.72" r="4.84"/><circle class="cls-8" cx="157.28" cy="163.23" r="0.59"/><circle class="cls-8" cx="157.28" cy="168.2" r="0.59"/><circle class="cls-8" cx="155.52" cy="163.96" r="0.59"/><circle class="cls-8" cx="159.04" cy="167.47" r="0.59"/><circle class="cls-8" cx="154.79" cy="165.72" r="0.59"/><circle class="cls-8" cx="159.77" cy="165.72" r="0.59"/><circle class="cls-8" cx="155.52" cy="167.47" r="0.59"/><circle class="cls-8" cx="159.04" cy="163.96" r="0.59"/><path class="cls-6" d="M220,165.72,202.47,156a20,20,0,0,0-1,17.3Z"/><rect class="cls-3" x="199.71" y="170.16" width="38.47" height="3.98" rx="0.7" transform="translate(437.89 344.29) rotate(180)"/><path class="cls-7" d="M220,165.72,235.56,157a17.85,17.85,0,0,0-30.23-1.46Z"/><circle class="cls-5" cx="219.99" cy="165.72" r="13.05"/><path class="cls-3" d="M234.91,159.87H229.7l-2.32,6.21a4.78,4.78,0,0,0,0,3.49l0,.06a1.54,1.54,0,0,1-1.43,2.12H213a1.54,1.54,0,0,1-1.44-2.07h0a4.83,4.83,0,0,0-.24-3.87l-.81-1.58a6.81,6.81,0,0,0-6.06-3.7H188.64v-8.11h8.5a11.24,11.24,0,0,1,4.81,1.09h0a4.06,4.06,0,0,0,2,.4L221.8,153a9.13,9.13,0,0,1,6.3,2.12l1.09.92a3.16,3.16,0,0,0,2,.74h3.68Z"/><rect class="cls-4" x="211.77" y="164.11" width="16.43" height="3.21" rx="0.64" transform="translate(439.98 331.43) rotate(180)"/><rect class="cls-8" x="216.76" y="159.27" width="6.47" height="5.25" transform="translate(439.98 323.78) rotate(180)"/><path class="cls-8" d="M210.16,152.56l2.91-2.14a1.11,1.11,0,0,1,.64-.21h5.21a1.07,1.07,0,0,1,1.07,1.07v4.18a1.07,1.07,0,0,1-1.07,1.07h-5.34a1,1,0,0,1-.43-.09L209.92,155a1,1,0,0,0-.43-.09h-1a1.07,1.07,0,0,1-1.07-1.07v0a1.07,1.07,0,0,1,1.07-1.07h1A1,1,0,0,0,210.16,152.56Z"/><rect class="cls-3" x="231.52" y="160.87" width="4.25" height="7.45" rx="1.06" transform="translate(467.29 329.2) rotate(180)"/><path class="cls-8" d="M236.07,154.15h0a14.11,14.11,0,0,1,3.23,9.57l-.08,1.68a13.81,13.81,0,0,1-1,4.74l-.59,1.44a2.07,2.07,0,0,1-3.18.87h0a2.1,2.1,0,0,1-.6-2.59h0a10.84,10.84,0,0,0,.91-7.19l-.26-1.17-.45-1.89a3.33,3.33,0,0,1,.35-2.45Z"/><circle class="cls-5" cx="219.99" cy="165.72" r="4.84"/><circle class="cls-8" cx="219.99" cy="163.23" r="0.59"/><circle class="cls-8" cx="219.99" cy="168.2" r="0.59"/><circle class="cls-8" cx="221.75" cy="163.96" r="0.59"/><circle class="cls-8" cx="218.23" cy="167.47" r="0.59"/><circle class="cls-8" cx="222.48" cy="165.72" r="0.59"/><circle class="cls-8" cx="217.51" cy="165.72" r="0.59"/><circle class="cls-8" cx="221.75" cy="167.47" r="0.59"/><circle class="cls-8" cx="218.23" cy="163.96" r="0.59"/><rect class="cls-5" x="173.44" y="150.77" width="30.4" height="6.76"/><rect class="cls-8" x="181.58" y="149.4" width="14.11" height="22.75"/><rect class="cls-6" x="184.66" y="155.79" width="7.95" height="1.91"/><rect class="cls-5" x="184.66" y="166.14" width="7.95" height="1.91"/><rect class="cls-6" x="183.29" y="161.42" width="10.7" height="4.72"/><rect class="cls-4" x="482.73" y="136.79" width="144.93" height="23.45" rx="1.43"/><rect class="cls-5" x="487.17" y="139.32" width="55.92" height="23.45" rx="1.05"/><rect class="cls-5" x="547.61" y="142.81" width="38.18" height="25.44" rx="2.59"/><rect class="cls-7" x="261.85" y="144.18" width="197.28" height="23.45" rx="4.49"/><rect class="cls-5" x="245.43" y="137.61" width="226.84" height="23.45" rx="1.41"/><rect class="cls-3" x="460.87" y="138.07" width="22.79" height="27.71" rx="3.79"/><path class="cls-9" d="M78.05,79.31v72.62h34.21a11.25,11.25,0,0,0,7.95-3.3h0a11.24,11.24,0,0,1,8-3.29H246.59a11.24,11.24,0,0,1,7.95,3.29h0a11.25,11.25,0,0,0,8,3.3H454.74a11.25,11.25,0,0,0,7.95-3.3h0a11.24,11.24,0,0,1,7.95-3.29h256.7a11.24,11.24,0,0,1,7.95,3.29h0a11.25,11.25,0,0,0,8,3.3H785V79.31a18.84,18.84,0,0,0-18.84-18.84H96.89A18.83,18.83,0,0,0,78.05,79.31Z"/><rect class="cls-10" x="84.53" y="86.38" width="693.95" height="6.83"/><rect class="cls-10" x="84.53" y="120" width="693.95" height="2.33"/><rect class="cls-2" x="277.43" y="130.54" width="160.65" height="6.88"/><path class="cls-2" d="M749.38,81.11H772.6a4.1,4.1,0,0,1,4.1,4.1v66.71a0,0,0,0,1,0,0H745.28a0,0,0,0,1,0,0V85.21A4.1,4.1,0,0,1,749.38,81.11Z"/><rect class="cls-6" x="70.84" y="135.11" width="7.21" height="7.21" transform="translate(148.89 277.43) rotate(180)"/><path class="cls-4" d="M70.84,133.34h0a2,2,0,0,1,2,2v6.72a2,2,0,0,1-2,2h0a0,0,0,0,1,0,0V133.34A0,0,0,0,1,70.84,133.34Z" transform="translate(143.7 277.43) rotate(-180)"/><rect class="cls-3" x="70.84" y="79.49" width="1.8" height="52.16" rx="0.9" transform="translate(143.49 211.13) rotate(-180)"/><rect class="cls-8" x="72.64" y="79.49" width="1.8" height="52.16" rx="0.9" transform="translate(147.09 211.13) rotate(180)"/><rect class="cls-3" x="74.45" y="79.49" width="1.8" height="52.16" rx="0.9" transform="translate(150.69 211.13) rotate(-180)"/><rect class="cls-8" x="76.25" y="79.49" width="1.8" height="52.16" rx="0.9" transform="translate(154.3 211.13) rotate(-180)"/><rect class="cls-3" x="784.96" y="79.49" width="1.8" height="52.16" rx="0.81" transform="translate(1571.72 211.13) rotate(-180)"/><rect class="cls-8" x="786.76" y="79.49" width="1.8" height="52.16" rx="0.81" transform="translate(1575.32 211.13) rotate(180)"/><rect class="cls-3" x="788.56" y="79.49" width="1.8" height="52.16" rx="0.81" transform="translate(1578.92 211.13) rotate(-180)"/><rect class="cls-8" x="790.36" y="79.49" width="1.8" height="52.16" rx="0.81" transform="translate(1582.53 211.13) rotate(180)"/><rect class="cls-4" x="784.96" y="135.11" width="7.21" height="7.21"/><path class="cls-6" d="M790.15,133.34h0a2,2,0,0,1,2,2v6.72a2,2,0,0,1-2,2h0a0,0,0,0,1,0,0V133.34a0,0,0,0,1,0,0Z"/><rect class="cls-1" x="92.03" y="100.49" width="13.92" height="12.16" rx="1.07"/><rect class="cls-1" x="126.29" y="98.53" width="36.2" height="16.08" rx="1.07"/><rect class="cls-1" x="181.85" y="98.53" width="36.2" height="16.08" rx="1.07"/><rect class="cls-1" x="232.92" y="98.53" width="25.02" height="16.08" rx="1.07"/><rect class="cls-1" x="284.38" y="102.92" width="25.02" height="11.68" rx="1.07"/><rect class="cls-1" x="328.09" y="102.92" width="25.02" height="11.68" rx="1.07"/><rect class="cls-1" x="363.14" y="102.92" width="25.02" height="11.68" rx="1.07"/><rect class="cls-1" x="405.94" y="101.21" width="25.02" height="11.68" rx="1.07"/><rect class="cls-1" x="489.7" y="97.2" width="25.02" height="17.99" rx="1.07"/><rect class="cls-1" x="529.87" y="97.2" width="48.92" height="17.99" rx="1.07"/><rect class="cls-1" x="596.95" y="97.2" width="48.92" height="17.99" rx="1.07"/><rect class="cls-1" x="659.44" y="98.12" width="21.61" height="13.92" rx="1.07"/><rect class="cls-1" x="714.53" y="98.12" width="21.61" height="13.92" rx="1.07"/><rect class="cls-1" x="750.19" y="91.17" width="21.61" height="13.92" rx="1.07"/></g></svg>