<svg xmlns="http://www.w3.org/2000/svg" xmlns:xlink="http://www.w3.org/1999/xlink" viewBox="0 0 936.76 190.99"><defs><style>.cls-1{fill:#56556a;}.cls-2{fill:#5a5256;}.cls-3{fill:#9d957d;}.cls-4{fill:#3f3e3f;}.cls-5{fill:#2f2d2f;}.cls-6{fill:#373537;}.cls-7{fill:#2d2b2c;}.cls-8{fill:#464547;}.cls-9{fill:#231f20;}.cls-10{fill:#6a6a6c;}.cls-11{fill:#525254;}.cls-12{fill:#343334;}.cls-13{fill:#5d5c5e;}.cls-14{fill:#8c8c8d;}.cls-15{fill:#b1b6b6;}.cls-16{fill:#9c7b89;}.cls-17{fill:#98878d;}.cls-18{fill:#857c80;}.cls-19{fill:#828283;}.cls-20{fill:#7f6c73;}.cls-21{fill:#545456;}.cls-22{fill:#6f7071;}.cls-23{fill:#5f4a4f;}.cls-24{fill:#948676;}.cls-25{fill:#bdb2a5;}.cls-26{fill:#101314;}.cls-27{fill:#b6a48e;}.cls-28{clip-path:url(#clip-path);}.cls-29{fill:#69555d;}.cls-30{fill:#969499;}.cls-31{fill:#272727;}.cls-32{fill:#c3b897;}.cls-33{fill:#8b8278;}.cls-34{fill:#dbdbdc;}.cls-35{fill:#cfcdce;}.cls-36{fill:#565658;}.cls-37{opacity:0.36;}</style><clipPath id="clip-path"><path class="cls-1" d="M528.13,50.55s-3.66,13.5-8.65,20.65a81.56,81.56,0,0,1-14.84,16.11H176.51V65h4.16V50.55Z"/></clipPath></defs><title>DieselFront</title><g id="Layer_3" data-name="Layer 3"><rect class="cls-2" x="380.02" y="47.04" width="64.72" height="18.05" rx="6.16" transform="translate(824.76 112.12) rotate(-180)"/><rect class="cls-1" x="361.75" y="39.56" width="6.63" height="18.7" rx="1.21" transform="translate(730.13 97.83) rotate(-180)"/><rect class="cls-3" x="541.9" y="45.86" width="17.49" height="8.05" rx="0.94" transform="translate(1099.22 -19.26) rotate(167.64)"/><rect class="cls-2" x="518.66" y="45.87" width="4.81" height="6.79" transform="translate(1042.14 98.52) rotate(-180)"/><rect class="cls-4" x="326.93" y="144.38" width="29.58" height="9.46" transform="translate(683.43 298.22) rotate(-180)"/><rect class="cls-5" x="629.57" y="143.09" width="13.15" height="10.66" transform="translate(1272.29 296.84) rotate(-180)"/><path class="cls-6" d="M582.7,143.5c-.08.06-15.54-10.55-15.45-10.23s5.39,10.56,5.39,10.56Z"/><rect class="cls-7" x="536.14" y="136.57" width="32.7" height="13.21" transform="translate(1104.98 286.34) rotate(-180)"/><path class="cls-7" d="M519.15,134.8v5.87h-3.43v2.5H498.33a3,3,0,0,0-3,3v5.38h32.71V134.8Z"/><rect class="cls-6" x="541.32" y="140.14" width="5.6" height="16.64" transform="translate(1088.24 296.93) rotate(-180)"/><rect class="cls-6" x="527.21" y="140.14" width="5.6" height="16.64" transform="translate(1060.02 296.93) rotate(-180)"/><path class="cls-8" d="M568.42,160.15l-17.52-9.7a20,20,0,0,0-1,17.29Z"/><rect class="cls-4" x="548.14" y="164.59" width="38.47" height="3.98" rx="0.7" transform="translate(1134.74 333.17) rotate(-180)"/><path class="cls-9" d="M568.42,160.15,584,151.43A17.84,17.84,0,0,0,553.76,150Z"/><circle class="cls-6" cx="568.42" cy="160.15" r="13.05"/><path class="cls-4" d="M583.34,154.31h-5.21l-2.32,6.2a4.81,4.81,0,0,0,0,3.5l0,.06a1.54,1.54,0,0,1-1.43,2.11h-13a1.53,1.53,0,0,1-1.44-2.07h0a4.81,4.81,0,0,0-.24-3.86l-.81-1.59a6.82,6.82,0,0,0-6.06-3.7H537.06v-8.1h8.51a11.1,11.1,0,0,1,4.81,1.09h0a4.16,4.16,0,0,0,2,.4l17.89-.89a9.05,9.05,0,0,1,6.3,2.12l1.09.91a3.16,3.16,0,0,0,2,.75h3.69Z"/><rect class="cls-7" x="560.2" y="158.55" width="16.43" height="3.21" rx="0.64" transform="translate(1136.84 320.3) rotate(-180)"/><rect class="cls-10" x="565.19" y="153.7" width="6.47" height="5.25" transform="translate(1136.84 312.65) rotate(-180)"/><path class="cls-10" d="M558.59,147l2.91-2.14a1,1,0,0,1,.63-.21h5.22a1.07,1.07,0,0,1,1.07,1.07v4.18a1.07,1.07,0,0,1-1.07,1.07H562a1,1,0,0,1-.43-.09l-3.23-1.42a1.07,1.07,0,0,0-.43-.09h-1a1.07,1.07,0,0,1-1.07-1.07v0a1.07,1.07,0,0,1,1.07-1.07h1A1.07,1.07,0,0,0,558.59,147Z"/><rect class="cls-4" x="579.95" y="155.31" width="4.25" height="7.45" rx="1.06" transform="translate(1164.15 318.07) rotate(-180)"/><path class="cls-10" d="M584.5,148.58h0a14.1,14.1,0,0,1,3.22,9.58l-.07,1.67a14.11,14.11,0,0,1-1,4.75L586,166a2.08,2.08,0,0,1-3.18.86h0a2.06,2.06,0,0,1-.6-2.58h0a10.83,10.83,0,0,0,.9-7.19l-.25-1.18-.45-1.88a3.36,3.36,0,0,1,.35-2.46Z"/><circle class="cls-6" cx="568.42" cy="160.15" r="4.84"/><circle class="cls-10" cx="568.42" cy="157.67" r="0.59"/><circle class="cls-10" cx="568.42" cy="162.64" r="0.59"/><circle class="cls-10" cx="570.18" cy="158.39" r="0.59"/><circle class="cls-10" cx="566.66" cy="161.91" r="0.59"/><circle class="cls-10" cx="570.91" cy="160.15" r="0.59"/><circle class="cls-10" cx="565.93" cy="160.15" r="0.59"/><circle class="cls-10" cx="570.18" cy="161.91" r="0.59"/><circle class="cls-10" cx="566.66" cy="158.39" r="0.59"/><path class="cls-8" d="M505.71,160.15l17.52-9.7a20,20,0,0,1,1,17.29Z"/><rect class="cls-4" x="487.52" y="164.59" width="38.47" height="3.98" rx="0.7"/><path class="cls-9" d="M505.71,160.15l-15.57-8.72A17.84,17.84,0,0,1,520.37,150Z"/><circle class="cls-6" cx="505.71" cy="160.15" r="13.05"/><path class="cls-4" d="M490.79,154.31H496l2.32,6.2a4.81,4.81,0,0,1,0,3.5l0,.06a1.54,1.54,0,0,0,1.43,2.11h13a1.53,1.53,0,0,0,1.44-2.07h0a4.81,4.81,0,0,1,.24-3.86l.81-1.59a6.82,6.82,0,0,1,6.06-3.7h15.81v-8.1h-8.5a11.1,11.1,0,0,0-4.81,1.09h0a4.16,4.16,0,0,1-2,.4l-17.89-.89a9,9,0,0,0-6.3,2.12l-1.09.91a3.17,3.17,0,0,1-2,.75h-3.68Z"/><rect class="cls-7" x="497.49" y="158.55" width="16.43" height="3.21" rx="0.64"/><rect class="cls-10" x="502.47" y="153.7" width="6.47" height="5.25"/><path class="cls-10" d="M515.54,147l-2.91-2.14a1,1,0,0,0-.63-.21h-5.22a1.07,1.07,0,0,0-1.07,1.07v4.18a1.07,1.07,0,0,0,1.07,1.07h5.34a1,1,0,0,0,.43-.09l3.23-1.42a1,1,0,0,1,.43-.09h1a1.07,1.07,0,0,0,1.07-1.07v0a1.07,1.07,0,0,0-1.07-1.07h-1A1.07,1.07,0,0,1,515.54,147Z"/><rect class="cls-4" x="489.93" y="155.31" width="4.25" height="7.45" rx="1.06"/><path class="cls-10" d="M489.63,148.58h0a14.1,14.1,0,0,0-3.22,9.58l.07,1.67a14.11,14.11,0,0,0,1,4.75l.59,1.44a2.08,2.08,0,0,0,3.18.86h0a2.08,2.08,0,0,0,.6-2.58h0a10.84,10.84,0,0,1-.91-7.19l.26-1.18.45-1.88a3.36,3.36,0,0,0-.35-2.46Z"/><circle class="cls-6" cx="505.71" cy="160.15" r="4.84"/><circle class="cls-10" cx="505.71" cy="157.67" r="0.59"/><circle class="cls-10" cx="505.71" cy="162.64" r="0.59"/><circle class="cls-10" cx="503.95" cy="158.39" r="0.59"/><circle class="cls-10" cx="507.47" cy="161.91" r="0.59"/><circle class="cls-10" cx="503.22" cy="160.15" r="0.59"/><circle class="cls-10" cx="508.2" cy="160.15" r="0.59"/><circle class="cls-10" cx="503.95" cy="161.91" r="0.59"/><circle class="cls-10" cx="507.47" cy="158.39" r="0.59"/><rect class="cls-6" x="564.11" y="144.65" width="28.42" height="7.63" rx="1.29" transform="translate(1156.65 296.93) rotate(-180)"/><rect class="cls-8" x="570.04" y="141.95" width="19.81" height="3.76" rx="0.98" transform="translate(1159.89 287.66) rotate(-180)"/><rect class="cls-6" x="591.62" y="150.77" width="20.27" height="11.55" transform="translate(1203.51 313.09) rotate(-180)"/><rect class="cls-11" x="609.01" y="160.37" width="4.18" height="6.31" transform="translate(1222.2 327.05) rotate(-180)"/><rect class="cls-9" x="586.61" y="143.11" width="25.15" height="13.73" rx="1.72" transform="translate(1198.36 299.96) rotate(-180)"/><rect class="cls-12" x="617.46" y="148.12" width="5.38" height="8.4" transform="translate(1240.3 304.64) rotate(-180)"/><rect class="cls-8" x="585.31" y="147.51" width="3.76" height="21.06" rx="1.33" transform="translate(1174.38 316.08) rotate(-180)"/><rect class="cls-6" x="595.56" y="143.8" width="12.67" height="22.22" transform="translate(1216.43 247.76) rotate(174.16)"/><rect class="cls-13" x="595.78" y="149.2" width="11.37" height="1.79" transform="matrix(-0.99, 0.1, -0.1, -0.99, 1215.08, 238.18)"/><rect class="cls-13" x="596.55" y="156.74" width="11.37" height="1.79" transform="matrix(-0.99, 0.1, -0.1, -0.99, 1217.39, 253.15)"/><rect class="cls-8" x="610.73" y="146.08" width="8.26" height="11.86" transform="translate(1229.72 304.03) rotate(-180)"/><rect class="cls-13" x="622.42" y="147.15" width="15.31" height="10.25" transform="translate(1260.15 304.55) rotate(-180)"/><rect class="cls-12" x="631.84" y="151.6" width="5.89" height="3.53" transform="translate(1269.57 306.73) rotate(-180)"/><rect class="cls-8" x="594.73" y="143.8" width="1.72" height="22.22" transform="matrix(-0.99, 0.1, -0.1, -0.99, 1203.86, 248.4)"/><rect class="cls-8" x="607.33" y="142.51" width="1.72" height="22.22" transform="translate(1228.86 244.55) rotate(174.16)"/><rect class="cls-13" x="594.79" y="164.58" width="16.5" height="1.79" transform="translate(1219.79 268.71) rotate(174.16)"/><rect class="cls-6" x="521.86" y="145.2" width="30.4" height="6.76" transform="translate(1074.13 297.17) rotate(-180)"/><rect class="cls-10" x="530.01" y="143.83" width="14.11" height="22.75" transform="translate(1074.13 310.41) rotate(-180)"/><rect class="cls-8" x="533.09" y="150.23" width="7.95" height="1.91" transform="translate(1074.13 302.36) rotate(-180)"/><rect class="cls-6" x="533.09" y="160.57" width="7.95" height="1.91" transform="translate(1074.13 323.06) rotate(-180)"/><rect class="cls-8" x="531.72" y="155.85" width="10.7" height="4.72" transform="translate(1074.13 316.43) rotate(-180)"/><rect class="cls-5" x="169.31" y="143.09" width="13.15" height="10.66"/><path class="cls-6" d="M229.33,143.5c.08.06,15.54-10.55,15.45-10.23s-5.39,10.56-5.39,10.56Z"/><rect class="cls-7" x="243.19" y="136.57" width="32.7" height="13.21"/><path class="cls-7" d="M292.88,134.8v5.87h3.43v2.5H313.7a3,3,0,0,1,3,3v5.38H284V134.8Z"/><rect class="cls-6" x="265.11" y="140.14" width="5.6" height="16.64"/><rect class="cls-6" x="279.22" y="140.14" width="5.6" height="16.64"/><path class="cls-8" d="M243.61,160.15l17.52-9.7a20,20,0,0,1,1,17.29Z"/><rect class="cls-4" x="225.42" y="164.59" width="38.47" height="3.98" rx="0.7"/><path class="cls-9" d="M243.61,160.15,228,151.43A17.84,17.84,0,0,1,258.27,150Z"/><circle class="cls-6" cx="243.61" cy="160.15" r="13.05"/><path class="cls-4" d="M228.69,154.31h5.21l2.32,6.2a4.81,4.81,0,0,1,0,3.5l0,.06a1.54,1.54,0,0,0,1.43,2.11h13a1.53,1.53,0,0,0,1.44-2.07h0a4.81,4.81,0,0,1,.24-3.86l.81-1.59a6.82,6.82,0,0,1,6.06-3.7H275v-8.1h-8.51a11.1,11.1,0,0,0-4.81,1.09h0a4.16,4.16,0,0,1-2,.4l-17.89-.89a9.05,9.05,0,0,0-6.3,2.12l-1.09.91a3.16,3.16,0,0,1-2,.75h-3.69Z"/><rect class="cls-7" x="235.39" y="158.55" width="16.43" height="3.21" rx="0.64"/><rect class="cls-10" x="240.37" y="153.7" width="6.47" height="5.25"/><path class="cls-10" d="M253.44,147l-2.91-2.14a1,1,0,0,0-.63-.21h-5.22a1.07,1.07,0,0,0-1.07,1.07v4.18a1.07,1.07,0,0,0,1.07,1.07H250a1,1,0,0,0,.43-.09l3.23-1.42a1.07,1.07,0,0,1,.43-.09h1a1.07,1.07,0,0,0,1.07-1.07v0a1.07,1.07,0,0,0-1.07-1.07h-1A1.07,1.07,0,0,1,253.44,147Z"/><rect class="cls-4" x="227.83" y="155.31" width="4.25" height="7.45" rx="1.06"/><path class="cls-10" d="M227.53,148.58h0a14.1,14.1,0,0,0-3.22,9.58l.07,1.67a14.11,14.11,0,0,0,1,4.75L226,166a2.08,2.08,0,0,0,3.18.86h0a2.06,2.06,0,0,0,.6-2.58h0a10.83,10.83,0,0,1-.9-7.19l.25-1.18.45-1.88a3.36,3.36,0,0,0-.35-2.46Z"/><circle class="cls-6" cx="243.61" cy="160.15" r="4.84"/><circle class="cls-10" cx="243.61" cy="157.67" r="0.59"/><circle class="cls-10" cx="243.61" cy="162.64" r="0.59"/><circle class="cls-10" cx="241.85" cy="158.39" r="0.59"/><circle class="cls-10" cx="245.37" cy="161.91" r="0.59"/><circle class="cls-10" cx="241.12" cy="160.15" r="0.59"/><circle class="cls-10" cx="246.1" cy="160.15" r="0.59"/><circle class="cls-10" cx="241.85" cy="161.91" r="0.59"/><circle class="cls-10" cx="245.37" cy="158.39" r="0.59"/><path class="cls-8" d="M306.32,160.15l-17.52-9.7a20,20,0,0,0-1,17.29Z"/><rect class="cls-4" x="286.04" y="164.59" width="38.47" height="3.98" rx="0.7" transform="translate(610.54 333.17) rotate(180)"/><path class="cls-9" d="M306.32,160.15l15.57-8.72A17.84,17.84,0,0,0,291.66,150Z"/><circle class="cls-6" cx="306.32" cy="160.15" r="13.05"/><path class="cls-4" d="M321.24,154.31H316l-2.32,6.2a4.81,4.81,0,0,0,0,3.5l0,.06a1.54,1.54,0,0,1-1.43,2.11h-13a1.53,1.53,0,0,1-1.44-2.07h0a4.81,4.81,0,0,0-.24-3.86l-.81-1.59a6.82,6.82,0,0,0-6.06-3.7H275v-8.1h8.5a11.1,11.1,0,0,1,4.81,1.09h0a4.16,4.16,0,0,0,2,.4l17.89-.89a9.05,9.05,0,0,1,6.3,2.12l1.09.91a3.16,3.16,0,0,0,2,.75h3.69Z"/><rect class="cls-7" x="298.1" y="158.55" width="16.43" height="3.21" rx="0.64" transform="translate(612.64 320.3) rotate(-180)"/><rect class="cls-10" x="303.09" y="153.7" width="6.47" height="5.25" transform="translate(612.64 312.65) rotate(-180)"/><path class="cls-10" d="M296.49,147l2.91-2.14a1,1,0,0,1,.63-.21h5.22a1.07,1.07,0,0,1,1.07,1.07v4.18a1.07,1.07,0,0,1-1.07,1.07h-5.34a1,1,0,0,1-.43-.09l-3.23-1.42a1,1,0,0,0-.43-.09h-1a1.07,1.07,0,0,1-1.07-1.07v0a1.07,1.07,0,0,1,1.07-1.07h1A1.07,1.07,0,0,0,296.49,147Z"/><rect class="cls-4" x="317.85" y="155.31" width="4.25" height="7.45" rx="1.06" transform="translate(639.95 318.07) rotate(180)"/><path class="cls-10" d="M322.4,148.58h0a14.1,14.1,0,0,1,3.22,9.58l-.07,1.67a14.11,14.11,0,0,1-1,4.75l-.59,1.44a2.08,2.08,0,0,1-3.18.86h0a2.08,2.08,0,0,1-.6-2.58h0a10.83,10.83,0,0,0,.9-7.19l-.25-1.18-.45-1.88a3.36,3.36,0,0,1,.35-2.46Z"/><circle class="cls-6" cx="306.32" cy="160.15" r="4.84"/><circle class="cls-10" cx="306.32" cy="157.67" r="0.59"/><circle class="cls-10" cx="306.32" cy="162.64" r="0.59"/><circle class="cls-10" cx="308.08" cy="158.39" r="0.59"/><circle class="cls-10" cx="304.56" cy="161.91" r="0.59"/><circle class="cls-10" cx="308.81" cy="160.15" r="0.59"/><circle class="cls-10" cx="303.83" cy="160.15" r="0.59"/><circle class="cls-10" cx="308.08" cy="161.91" r="0.59"/><circle class="cls-10" cx="304.56" cy="158.39" r="0.59"/><rect class="cls-6" x="219.49" y="144.65" width="28.42" height="7.63" rx="1.29"/><rect class="cls-8" x="222.18" y="141.95" width="19.81" height="3.76" rx="0.98"/><rect class="cls-6" x="200.14" y="150.77" width="20.27" height="11.55"/><rect class="cls-11" x="198.84" y="160.37" width="4.18" height="6.31"/><rect class="cls-9" x="200.28" y="143.11" width="25.15" height="13.73" rx="1.72"/><rect class="cls-12" x="189.19" y="148.12" width="5.38" height="8.4"/><rect class="cls-8" x="222.96" y="147.51" width="3.76" height="21.06" rx="1.33"/><rect class="cls-6" x="203.8" y="143.8" width="12.67" height="22.22" transform="translate(16.86 -20.59) rotate(5.84)"/><rect class="cls-13" x="204.88" y="149.2" width="11.37" height="1.79" transform="translate(16.37 -20.65) rotate(5.84)"/><rect class="cls-13" x="204.11" y="156.74" width="11.37" height="1.79" transform="translate(17.14 -20.54) rotate(5.84)"/><rect class="cls-8" x="193.04" y="146.08" width="8.26" height="11.86"/><rect class="cls-13" x="174.3" y="147.15" width="15.31" height="10.25"/><rect class="cls-12" x="174.3" y="151.6" width="5.89" height="3.53"/><rect class="cls-8" x="215.58" y="143.8" width="1.72" height="22.22" transform="translate(16.89 -21.23) rotate(5.84)"/><rect class="cls-8" x="202.98" y="142.51" width="1.72" height="22.22" transform="translate(16.7 -19.95) rotate(5.84)"/><rect class="cls-13" x="200.74" y="164.58" width="16.5" height="1.79" transform="translate(17.93 -20.41) rotate(5.84)"/><rect class="cls-6" x="259.76" y="145.2" width="30.4" height="6.76"/><rect class="cls-10" x="267.91" y="143.83" width="14.11" height="22.75"/><rect class="cls-8" x="270.99" y="150.23" width="7.95" height="1.91"/><rect class="cls-6" x="270.99" y="160.57" width="7.95" height="1.91"/><rect class="cls-8" x="269.62" y="155.85" width="10.7" height="4.72"/><rect class="cls-6" x="401.44" y="129.64" width="38.08" height="32.19" rx="3.28" transform="translate(840.97 291.47) rotate(-180)"/><rect class="cls-7" x="366.2" y="140.07" width="64.62" height="17.02" rx="2.6" transform="translate(797.03 297.17) rotate(-180)"/><rect class="cls-9" x="363.69" y="136.23" width="29.92" height="15.3" rx="2.96" transform="translate(757.31 287.77) rotate(-180)"/><rect class="cls-7" x="316.44" y="134.32" width="54.51" height="12.9" rx="2.67" transform="translate(687.39 281.54) rotate(-180)"/><path class="cls-7" d="M497.9,135.2c-4.07,1.94-15.53,11.07-15.53,12.2s4.74,18.48-13.21,17.66-30.28-14.15-31.82-17-5.84-14.6-5.84-14.6Z"/><path class="cls-14" d="M176.51,140.55H570.65V64.87a14.32,14.32,0,0,0-14.32-14.32H176.51v90Z"/><path class="cls-14" d="M545.82,140.55h76.44a2.52,2.52,0,0,0,2.5-2.85l-7-53.35a14,14,0,0,0-13.88-12.19H545.82Z"/><path class="cls-15" d="M574.29,55.43l12.44,16.63H560.82a5.36,5.36,0,0,1-5.36-5.36V50.55h9.1A12.14,12.14,0,0,1,574.29,55.43Z"/><circle class="cls-16" cx="469.18" cy="61.55" r="17.68"/><circle class="cls-17" cx="384.11" cy="61.63" r="17.68"/><circle class="cls-18" cx="345.08" cy="63.55" r="17.68"/><circle class="cls-17" cx="317.03" cy="63.55" r="17.68"/><rect class="cls-19" x="256.78" y="31.93" width="35.62" height="40.55" rx="6.16" transform="translate(549.18 104.41) rotate(-180)"/><rect class="cls-20" x="286.55" y="39.56" width="13.64" height="22.07" rx="3.58" transform="translate(586.74 101.19) rotate(-180)"/><rect class="cls-14" x="201.33" y="43.3" width="10.69" height="18.33" transform="translate(413.34 104.93) rotate(-180)"/><rect class="cls-21" x="217.57" y="42.56" width="1.3" height="18.6" transform="translate(436.45 103.71) rotate(-180)"/><rect class="cls-22" x="221.57" y="45.77" width="1.91" height="13.81" transform="translate(445.05 105.36) rotate(-180)"/><rect class="cls-19" x="225.22" y="44.95" width="2.26" height="12.94" transform="translate(452.69 102.84) rotate(-180)"/><rect class="cls-22" x="245.98" y="32.53" width="2.35" height="31.03" transform="translate(494.3 96.08) rotate(-180)"/><rect class="cls-14" x="245.98" y="36.52" width="4.86" height="10.51" transform="translate(496.82 83.56) rotate(-180)"/><rect class="cls-8" x="173.37" y="57" width="3.14" height="79.75" transform="translate(349.88 193.75) rotate(-180)"/><rect class="cls-6" x="169.31" y="129.55" width="7.21" height="7.21" transform="translate(345.82 266.3) rotate(-180)"/><polygon class="cls-23" points="575.02 140.77 594.87 109.33 184.03 109.33 184.03 133.15 184.03 140.77 575.02 140.77"/><path class="cls-22" d="M538.78,139.55a1,1,0,0,0,1-1V71.71a1,1,0,0,0-2,0v66.84A1,1,0,0,0,538.78,139.55Z"/><path class="cls-22" d="M523.51,139.55a1,1,0,0,0,1-1V71.71a1,1,0,0,0-2,0v66.84A1,1,0,0,0,523.51,139.55Z"/><path class="cls-22" d="M251.52,136.78a1,1,0,0,0,1-1V93.27a1,1,0,0,0-2,0v42.51A1,1,0,0,0,251.52,136.78Z"/><path class="cls-22" d="M236.25,136.78a1,1,0,0,0,1-1V93.27a1,1,0,1,0-2,0v42.51A1,1,0,0,0,236.25,136.78Z"/><rect class="cls-24" x="525.6" y="112.67" width="11.08" height="7.98" transform="translate(1062.29 233.31) rotate(-180)"/><rect class="cls-25" x="526.11" y="72.16" width="7.37" height="4.78" transform="translate(1059.59 149.1) rotate(-180)"/><rect class="cls-24" x="525.6" y="124.71" width="11.08" height="7.98" transform="translate(1062.29 257.39) rotate(-180)"/><path class="cls-26" d="M604.62,102.94h15.6L619,93.22H604.62a3.43,3.43,0,0,0-3.42,3.43v2.86A3.42,3.42,0,0,0,604.62,102.94Z"/><rect class="cls-10" x="620.89" y="129.64" width="8.68" height="5.89" transform="translate(1250.45 265.16) rotate(-180)"/><rect class="cls-6" x="596.47" y="133.55" width="25.11" height="7" transform="translate(1218.04 274.09) rotate(-180)"/><circle class="cls-25" cx="276.99" cy="98.15" r="6.91"/><circle class="cls-25" cx="466.12" cy="95.55" r="7.24"/><path class="cls-27" d="M620.94,108.45H609.08a2.1,2.1,0,0,0-1.9,1.19l-7.85,16a2.11,2.11,0,0,0,1.9,3h22.36Z"/><path class="cls-10" d="M620.89,140.55l-3.17,5a3,3,0,0,1-2.56,1.42h-16a3,3,0,0,1-2.18-.93l-5.32-5.54Z"/><path class="cls-1" d="M528.13,50.55s-3.66,13.5-8.65,20.65a81.56,81.56,0,0,1-14.84,16.11H176.51V65h4.16V50.55Z"/><g class="cls-28"><rect class="cls-29" x="169.31" y="44.37" width="363.51" height="26.25" transform="translate(702.12 114.99) rotate(-180)"/><rect class="cls-30" x="169.31" y="70.62" width="363.51" height="26.25" transform="translate(702.12 167.5) rotate(-180)"/></g><path class="cls-31" d="M188.74,67.9V87.31H184v18.37h-2.3v27.47h-5.22V67.9Z"/><rect class="cls-6" x="325.73" y="149.28" width="35.93" height="14.27" rx="7.14" transform="translate(687.39 312.84) rotate(-180)"/><rect class="cls-32" x="517.19" y="43.86" width="14.12" height="3.27" transform="translate(1048.5 90.98) rotate(-180)"/><rect class="cls-33" x="426.93" y="116.65" width="75.55" height="12.99" rx="3.78" transform="translate(929.4 246.29) rotate(-180)"/><rect class="cls-33" x="316.44" y="116.65" width="57.14" height="12.99" rx="3.78" transform="translate(690.02 246.29) rotate(-180)"/><rect class="cls-33" x="190.84" y="116.65" width="36.57" height="12.99" rx="3.78" transform="translate(418.26 246.29) rotate(-180)"/><rect class="cls-24" x="238.47" y="129.64" width="10.83" height="2.4" transform="translate(487.76 261.68) rotate(-180)"/><path class="cls-8" d="M169.31,127.77h0a2,2,0,0,1,2,2v6.72a2,2,0,0,1-2,2h0a0,0,0,0,1,0,0V127.77a0,0,0,0,1,0,0Z" transform="translate(340.63 266.3) rotate(-180)"/><rect class="cls-34" x="603.17" y="94.93" width="12.13" height="6.3" rx="2.05" transform="translate(1218.46 196.16) rotate(-180)"/><rect class="cls-35" x="268.19" y="63.55" width="176.6" height="69.92" rx="4"/><rect class="cls-36" x="263.89" y="128.46" width="185.19" height="5.86"/></g></svg>