<svg xmlns="http://www.w3.org/2000/svg" viewBox="0 0 127.33 233.43"><defs><style>.cls-1{fill:#fcb96e;}.cls-2{fill:#212121;}.cls-3{fill:#34353d;}.cls-10,.cls-4,.cls-5{fill:#231f20;}.cls-10,.cls-5{stroke:#231f20;}.cls-12,.cls-5,.cls-8,.cls-9{stroke-miterlimit:10;}.cls-10,.cls-12,.cls-5{stroke-width:0.5px;}.cls-6{fill:#d23427;}.cls-7{fill:#ffc85a;}.cls-12,.cls-8{fill:none;}.cls-8{stroke:#ffe2ae;stroke-width:0.25px;}.cls-9{fill:#fff;stroke:#c8c8c8;}.cls-10{stroke-linejoin:round;}.cls-11{fill:#0b0a0f;}.cls-12{stroke:#ffc85a;}</style></defs><title>BSL</title><g id="Layer_2" data-name="Layer 2"><path class="cls-1" d="M61.84,102.83l-4-8.12a8.72,8.72,0,0,1-6,1.3c-4.15-.65-13.66-6.14-13.66-6.14l-4.56,6.77s13.53,9.53,20.39,9C59.54,104.46,61.84,102.83,61.84,102.83Z"/><ellipse class="cls-1" cx="30.04" cy="88.59" rx="4.35" ry="5.23" transform="translate(-51.75 43.2) rotate(-42.25)"/><path d="M42.28,207.4c1.12-6.49,9.3-10.5,18.27-9s19.29-3.68,18.17,2.81l-7.35,5.24Z"/><path class="cls-2" d="M25.84,209.07c1.12-6.49,9.29-10.5,18.26-9s19.29-3.68,18.18,2.81l-7.36,5.24Z"/><path class="cls-3" d="M48.47,167.25l-.6,34L28,204.66s-1.92-31.39-2.22-37c-.22-4.18-.46-18.1-.46-24.16S28.13,89.9,28.13,89.9H67.64c5.17,37.05,3.88,47.2,3.88,47.2s-1.39,12.61-2.21,20.63-3.25,44.15-3.38,41.61c0,0-8.55,0-10.31.23s-7.14.62-7.14.62"/><polygon class="cls-1" points="66.96 87.39 28.8 87.39 34.07 56.18 61.7 56.18 66.96 87.39"/><ellipse class="cls-4" cx="52.09" cy="65.56" rx="1.15" ry="2.01"/><ellipse class="cls-4" cx="58.18" cy="65.56" rx="1.15" ry="2.01"/><polygon class="cls-5" points="31.61 71.18 32.63 71.18 37.32 62.64 53.19 61.2 33.26 56.73 31.61 71.18"/><ellipse class="cls-3" cx="55.32" cy="58.53" rx="4.32" ry="17.52" transform="translate(-8.41 107.77) rotate(-84.3)"/><ellipse class="cls-6" cx="49.18" cy="54.98" rx="17.52" ry="6.4"/><ellipse class="cls-7" cx="49.18" cy="53.07" rx="17.52" ry="6.4"/><ellipse class="cls-6" cx="49.18" cy="50.38" rx="17.52" ry="6.4"/><ellipse class="cls-4" cx="47.73" cy="47.45" rx="19.23" ry="7.52"/><path class="cls-4" d="M69.58,39.55c.62.88-2.84,9-2.84,9l-6.5.43S69,38.67,69.58,39.55Z"/><ellipse class="cls-3" cx="49.23" cy="43.64" rx="21.03" ry="8.59" transform="translate(-7.45 10.23) rotate(-11.04)"/><ellipse class="cls-7" cx="65.56" cy="48.23" rx="0.68" ry="0.49" transform="translate(15.95 112.75) rotate(-88.78)"/><ellipse class="cls-8" cx="65.47" cy="48.23" rx="1.35" ry="0.88" transform="translate(16.75 113.34) rotate(-89.57)"/><path class="cls-9" d="M28.13,89.9H67.64s4.81,45.62,4,45.69c-.58.38-45.82.38-45.82.38Z"/><polygon class="cls-10" points="62.49 92.5 65.9 92.32 66.68 96.73 62.49 92.5"/><polygon class="cls-10" points="66.58 96.22 65.31 114.86 69.29 119.65 69.6 114.84 66.58 96.22"/><path class="cls-1" d="M31,105.5l8.45,3.24a8.71,8.71,0,0,0-.76,6.07c1,4.07,7.34,13.06,7.34,13.06L39.71,133S29,120.39,29,113.5C29.61,107.94,31,105.5,31,105.5Z"/><ellipse class="cls-1" cx="48.06" cy="135.89" rx="4.35" ry="5.23" transform="translate(-89.31 92.22) rotate(-52.89)"/><polygon class="cls-11" points="35.97 94.49 33.52 101.25 39.78 103.52 42.24 96.77 40.14 92.78 35.97 94.49"/><line class="cls-12" x1="34" y1="99.93" x2="40.26" y2="102.2"/><line class="cls-12" x1="34.45" y1="98.67" x2="40.72" y2="100.94"/><circle class="cls-7" cx="39.6" cy="94.26" r="0.46"/><circle class="cls-12" cx="38.32" cy="97.8" r="0.8"/></g></svg>