<svg xmlns="http://www.w3.org/2000/svg" viewBox="0 0 127.33 233.43"><defs><style>.cls-1{fill:#fcb96e;}.cls-2{fill:#212121;}.cls-3{fill:#34353d;}.cls-10,.cls-4,.cls-5{fill:#231f20;}.cls-10,.cls-5{stroke:#231f20;}.cls-12,.cls-5,.cls-8,.cls-9{stroke-miterlimit:10;}.cls-10,.cls-12,.cls-5{stroke-width:0.5px;}.cls-6{fill:#d23427;}.cls-7{fill:#ffc85a;}.cls-12,.cls-8{fill:none;}.cls-8{stroke:#ffe2ae;stroke-width:0.25px;}.cls-9{fill:#fff;stroke:#c8c8c8;}.cls-10{stroke-linejoin:round;}.cls-11{fill:#0b0a0f;}.cls-12{stroke:#ffc85a;}</style></defs><title>BSL</title><g id="Layer_2" data-name="Layer 2"><path class="cls-1" d="M61.84,102.83l-4-8.12a8.72,8.72,0,0,1-6,1.3c-4.15-.65-13.66-6.14-13.66-6.14l-4.56,6.77s13.53,9.53,20.39,9C59.54,104.46,61.84,102.83,61.84,102.83Z"/><ellipse class="cls-1" cx="30.04" cy="88.59" rx="4.35" ry="5.23" transform="translate(-51.75 43.2) rotate(-42.25)"/><path d="M79.47,207.4c-1.12-6.49-9.29-10.5-18.26-9S41.92,194.76,43,201.25l7.36,5.24Z"/><path class="cls-2" d="M95.91,209.07c-1.11-6.49-9.29-10.5-18.26-9s-19.29-3.68-18.17,2.81l7.35,5.24Z"/><path class="cls-3" d="M73.29,167.25l.59,34,19.92,3.41s1.92-31.39,2.22-37c.23-4.18.46-18.1.46-24.16S93.62,89.9,93.62,89.9H54.12c-5.18,37.05-3.88,47.2-3.88,47.2s1.38,12.61,2.21,20.63,3.24,44.15,3.37,41.61c0,0,8.56,0,10.31.23s7.14.62,7.14.62"/><polygon class="cls-1" points="54.79 87.39 92.95 87.39 87.69 56.18 60.06 56.18 54.79 87.39"/><ellipse class="cls-4" cx="69.67" cy="65.56" rx="1.15" ry="2.01"/><ellipse class="cls-4" cx="63.58" cy="65.56" rx="1.15" ry="2.01"/><polygon class="cls-5" points="90.14 71.18 89.13 71.18 84.43 62.64 68.56 61.2 88.5 56.73 90.14 71.18"/><ellipse class="cls-3" cx="66.43" cy="58.53" rx="17.52" ry="4.32" transform="translate(-5.48 6.89) rotate(-5.7)"/><ellipse class="cls-6" cx="72.57" cy="54.98" rx="17.52" ry="6.4"/><ellipse class="cls-7" cx="72.57" cy="53.07" rx="17.52" ry="6.4"/><ellipse class="cls-6" cx="72.57" cy="50.38" rx="17.52" ry="6.4"/><ellipse class="cls-4" cx="74.03" cy="47.45" rx="19.23" ry="7.52"/><path class="cls-4" d="M52.18,39.55c-.63.88,2.83,9,2.83,9l6.5.43S52.8,38.67,52.18,39.55Z"/><ellipse class="cls-3" cx="72.53" cy="43.64" rx="8.59" ry="21.03" transform="translate(15.81 106.46) rotate(-78.96)"/><ellipse class="cls-7" cx="56.2" cy="48.23" rx="0.49" ry="0.68" transform="translate(-1.01 1.2) rotate(-1.22)"/><ellipse class="cls-8" cx="56.28" cy="48.23" rx="0.88" ry="1.35" transform="translate(-0.36 0.42) rotate(-0.43)"/><path class="cls-9" d="M93.62,89.9H54.12s-4.82,45.62-4,45.69c.59.38,45.82.38,45.82.38Z"/><polygon class="cls-10" points="59.27 92.5 55.85 92.32 55.07 96.73 59.27 92.5"/><polygon class="cls-10" points="55.18 96.22 56.45 114.86 52.46 119.65 52.15 114.84 55.18 96.22"/><path class="cls-1" d="M90.73,105.5l-8.44,3.24a8.74,8.74,0,0,1,.75,6.07c-1,4.07-7.33,13.06-7.33,13.06L82,133s10.71-12.62,10.74-19.51C92.14,107.94,90.73,105.5,90.73,105.5Z"/><ellipse class="cls-1" cx="73.7" cy="135.89" rx="5.23" ry="4.35" transform="translate(-67.07 71.99) rotate(-37.11)"/><polygon class="cls-11" points="85.78 94.49 88.24 101.25 81.97 103.52 79.52 96.77 81.61 92.78 85.78 94.49"/><line class="cls-12" x1="87.76" y1="99.93" x2="81.49" y2="102.2"/><line class="cls-12" x1="87.3" y1="98.67" x2="81.03" y2="100.94"/><circle class="cls-7" cx="82.15" cy="94.26" r="0.46"/><circle class="cls-12" cx="83.44" cy="97.8" r="0.8"/></g></svg>