<svg xmlns="http://www.w3.org/2000/svg" viewBox="0 0 127.33 233.43"><defs><style>.cls-1{fill:#fcb96e;}.cls-2{fill:#fff;stroke:#c8c8c8;}.cls-12,.cls-2,.cls-6,.cls-9{stroke-miterlimit:10;}.cls-3{fill:#212121;}.cls-4{fill:#34353d;}.cls-10,.cls-5,.cls-6{fill:#231f20;}.cls-10,.cls-6{stroke:#231f20;}.cls-10,.cls-12,.cls-6{stroke-width:0.5px;}.cls-7{fill:#d23427;}.cls-8{fill:#ffc85a;}.cls-12,.cls-9{fill:none;}.cls-9{stroke:#ffe2ae;stroke-width:0.25px;}.cls-10{stroke-linejoin:round;}.cls-11{fill:#0b0a0f;}.cls-12{stroke:#ffc85a;}</style></defs><title>BSL_2</title><g id="Layer_2" data-name="Layer 2"><path class="cls-1" d="M58.4,94l-5-2.72s-3,7-4.62,10.07c-1.9,3.74-12.08,12.08-12.08,12.08l5,6.43S57,108.92,58.6,102.21C59.23,96.65,58.4,94,58.4,94Z"/><ellipse class="cls-1" cx="32.97" cy="120.75" rx="5.23" ry="4.35" transform="translate(-46.5 24.04) rotate(-24.14)"/><polyline class="cls-2" points="53.27 90.57 48.77 99.5 53.27 103.52"/><path d="M78.84,207.4c-1.12-6.49-9.29-10.5-18.26-9s-19.29-3.68-18.18,2.81l7.36,5.24Z"/><path class="cls-3" d="M95.28,209.07c-1.11-6.49-9.29-10.5-18.26-9s-19.29-3.68-18.17,2.81l7.35,5.24Z"/><path class="cls-4" d="M72.66,167.25l.6,34,19.92,3.41s1.92-31.39,2.22-37c.22-4.18.45-18.1.45-24.16S93,89.9,93,89.9H53.49c-5.18,37.05-3.88,47.2-3.88,47.2s1.38,12.61,2.21,20.63,3.24,44.15,3.37,41.61c0,0,8.56,0,10.31.23s7.15.62,7.15.62"/><polygon class="cls-1" points="54.16 87.39 92.32 87.39 87.06 56.18 59.43 56.18 54.16 87.39"/><ellipse class="cls-5" cx="69.04" cy="65.56" rx="1.15" ry="2.01"/><ellipse class="cls-5" cx="62.95" cy="65.56" rx="1.15" ry="2.01"/><polygon class="cls-6" points="89.51 71.18 88.5 71.18 83.8 62.64 67.93 61.2 87.87 56.73 89.51 71.18"/><ellipse class="cls-4" cx="65.8" cy="58.53" rx="17.52" ry="4.32" transform="translate(-5.49 6.82) rotate(-5.7)"/><ellipse class="cls-7" cx="71.94" cy="54.98" rx="17.52" ry="6.4"/><ellipse class="cls-8" cx="71.94" cy="53.07" rx="17.52" ry="6.4"/><ellipse class="cls-7" cx="71.94" cy="50.38" rx="17.52" ry="6.4"/><ellipse class="cls-5" cx="73.4" cy="47.45" rx="19.23" ry="7.52"/><path class="cls-5" d="M51.55,39.55c-.63.88,2.83,9,2.83,9l6.5.43S52.18,38.67,51.55,39.55Z"/><ellipse class="cls-4" cx="71.9" cy="43.64" rx="8.59" ry="21.03" transform="translate(15.3 105.85) rotate(-78.96)"/><ellipse class="cls-8" cx="55.57" cy="48.23" rx="0.49" ry="0.68" transform="matrix(1, -0.02, 0.02, 1, -1.01, 1.19)"/><ellipse class="cls-9" cx="55.65" cy="48.23" rx="0.88" ry="1.35" transform="translate(-0.36 0.42) rotate(-0.43)"/><path class="cls-2" d="M93,89.9H53.49s-4.82,45.62-4,45.69c.59.38,45.82.38,45.82.38Z"/><polygon class="cls-10" points="58.64 92.5 55.23 92.32 54.44 96.73 58.64 92.5"/><polygon class="cls-10" points="54.55 96.22 55.82 114.86 51.83 119.65 51.52 114.84 54.55 96.22"/><path class="cls-1" d="M90.1,105.5l-8.44,3.24a8.74,8.74,0,0,1,.75,6.07c-1,4.07-7.33,13.06-7.33,13.06L81.41,133s10.71-12.62,10.74-19.51C91.51,107.94,90.1,105.5,90.1,105.5Z"/><ellipse class="cls-1" cx="73.07" cy="135.89" rx="5.23" ry="4.35" transform="translate(-67.2 71.61) rotate(-37.11)"/><polygon class="cls-11" points="85.15 94.49 87.61 101.25 81.34 103.52 78.89 96.77 80.98 92.78 85.15 94.49"/><line class="cls-12" x1="87.13" y1="99.93" x2="80.86" y2="102.2"/><line class="cls-12" x1="86.67" y1="98.67" x2="80.4" y2="100.94"/><circle class="cls-8" cx="81.52" cy="94.26" r="0.46"/><circle class="cls-12" cx="82.81" cy="97.8" r="0.8"/></g></svg>