<svg xmlns="http://www.w3.org/2000/svg" viewBox="0 0 127.33 233.43"><defs><style>.cls-1{fill:#fcb96e;}.cls-2{fill:#fff;stroke:#c8c8c8;}.cls-12,.cls-2,.cls-6,.cls-9{stroke-miterlimit:10;}.cls-3{fill:#212121;}.cls-4{fill:#34353d;}.cls-10,.cls-5,.cls-6{fill:#231f20;}.cls-10,.cls-6{stroke:#231f20;}.cls-10,.cls-12,.cls-6{stroke-width:0.5px;}.cls-7{fill:#d23427;}.cls-8{fill:#ffc85a;}.cls-12,.cls-9{fill:none;}.cls-9{stroke:#ffe2ae;stroke-width:0.25px;}.cls-10{stroke-linejoin:round;}.cls-11{fill:#0b0a0f;}.cls-12{stroke:#ffc85a;}</style></defs><title>BSL_1</title><g id="Layer_2" data-name="Layer 2"><path class="cls-1" d="M53.56,98.31l6.16-6.84s2.85,5.86,5.89,7.54c3.68,2,16.68,4.23,16.68,4.23l-.54,8.14S63.1,109.92,58,105.25C54.38,101,53.56,98.31,53.56,98.31Z"/><path class="cls-1" d="M93.69,106.45c.42,2.37-.55,4.56-3.39,5.07s-5.49-1-5.91-3.38,1.55-4.7,4.39-5.2S93.28,104.08,93.69,106.45Z"/><polyline class="cls-2" points="61.44 90.82 64.51 97.39 60.1 102.85"/><path d="M36.07,207.4c1.12-6.49,9.29-10.5,18.26-9s19.3-3.68,18.18,2.81l-7.36,5.24Z"/><path class="cls-3" d="M19.63,209.07c1.11-6.49,9.29-10.5,18.26-9s19.29-3.68,18.18,2.81l-7.36,5.24Z"/><path class="cls-4" d="M42.25,167.25l-.59,34-19.92,3.41s-1.92-31.39-2.22-37c-.22-4.18-.46-18.1-.46-24.16S21.92,89.9,21.92,89.9h39.5C66.6,127,65.3,137.1,65.3,137.1s-1.38,12.61-2.21,20.63-3.24,44.15-3.37,41.61c0,0-8.55,0-10.31.23s-7.14.62-7.14.62"/><polygon class="cls-1" points="60.75 87.39 22.59 87.39 27.86 56.18 55.48 56.18 60.75 87.39"/><ellipse class="cls-5" cx="45.87" cy="65.56" rx="1.15" ry="2.01"/><ellipse class="cls-5" cx="51.97" cy="65.56" rx="1.15" ry="2.01"/><polygon class="cls-6" points="25.4 71.18 26.41 71.18 31.11 62.64 46.98 61.2 27.04 56.73 25.4 71.18"/><ellipse class="cls-4" cx="49.11" cy="58.53" rx="4.32" ry="17.52" transform="translate(-14.01 101.59) rotate(-84.3)"/><ellipse class="cls-7" cx="42.97" cy="54.98" rx="17.52" ry="6.4"/><ellipse class="cls-8" cx="42.97" cy="53.07" rx="17.52" ry="6.4"/><ellipse class="cls-7" cx="42.97" cy="50.38" rx="17.52" ry="6.4"/><ellipse class="cls-5" cx="41.51" cy="47.45" rx="19.23" ry="7.52"/><path class="cls-5" d="M63.36,39.55c.63.88-2.83,9-2.83,9L54,49S62.74,38.67,63.36,39.55Z"/><ellipse class="cls-4" cx="43.01" cy="43.64" rx="21.03" ry="8.59" transform="translate(-7.56 9.04) rotate(-11.04)"/><ellipse class="cls-8" cx="59.35" cy="48.23" rx="0.68" ry="0.49" transform="translate(9.87 106.54) rotate(-88.78)"/><ellipse class="cls-9" cx="59.26" cy="48.23" rx="1.35" ry="0.88" transform="translate(10.58 107.13) rotate(-89.57)"/><path class="cls-2" d="M21.92,89.9h39.5s4.82,45.62,4,45.69c-.59.38-45.82.38-45.82.38Z"/><polygon class="cls-10" points="56.27 92.5 59.69 92.32 60.47 96.73 56.27 92.5"/><polygon class="cls-10" points="60.37 96.22 59.1 114.86 63.08 119.65 63.39 114.84 60.37 96.22"/><path class="cls-1" d="M24.81,105.5l8.45,3.24a8.71,8.71,0,0,0-.76,6.07c1,4.07,7.34,13.06,7.34,13.06L33.5,133S22.79,120.39,22.76,113.5C23.4,107.94,24.81,105.5,24.81,105.5Z"/><ellipse class="cls-1" cx="41.84" cy="135.89" rx="4.35" ry="5.23" transform="translate(-91.77 87.27) rotate(-52.89)"/><polygon class="cls-11" points="29.76 94.49 27.3 101.25 33.57 103.52 36.03 96.77 33.93 92.78 29.76 94.49"/><line class="cls-12" x1="27.78" y1="99.93" x2="34.05" y2="102.2"/><line class="cls-12" x1="28.24" y1="98.67" x2="34.51" y2="100.94"/><circle class="cls-8" cx="33.39" cy="94.26" r="0.46"/><circle class="cls-12" cx="32.1" cy="97.8" r="0.8"/></g></svg>