<svg xmlns="http://www.w3.org/2000/svg" viewBox="0 0 127.33 233.43"><defs><style>.cls-1{fill:#fcb96e;}.cls-2{fill:#fff;stroke:#c8c8c8;}.cls-12,.cls-2,.cls-6,.cls-9{stroke-miterlimit:10;}.cls-3{fill:#212121;}.cls-4{fill:#34353d;}.cls-10,.cls-5,.cls-6{fill:#231f20;}.cls-10,.cls-6{stroke:#231f20;}.cls-10,.cls-12,.cls-6{stroke-width:0.5px;}.cls-7{fill:#d23427;}.cls-8{fill:#ffc85a;}.cls-12,.cls-9{fill:none;}.cls-9{stroke:#ffe2ae;stroke-width:0.25px;}.cls-10{stroke-linejoin:round;}.cls-11{fill:#0b0a0f;}.cls-12{stroke:#ffc85a;}</style></defs><title>BSL_1</title><g id="Layer_2" data-name="Layer 2"><path class="cls-1" d="M59.29,98.31l-6.16-6.84s-2.85,5.86-5.9,7.54c-3.67,2-16.67,4.23-16.67,4.23l.54,8.14s18.65-1.46,23.72-6.13C58.46,101,59.29,98.31,59.29,98.31Z"/><path class="cls-1" d="M19.15,106.45c-.42,2.37.56,4.56,3.4,5.07s5.48-1,5.9-3.38-1.54-4.7-4.39-5.2S19.57,104.08,19.15,106.45Z"/><polyline class="cls-2" points="51.41 90.82 48.34 97.39 52.74 102.85"/><path d="M76.77,207.4c-1.11-6.49-9.29-10.5-18.26-9s-19.29-3.68-18.17,2.81l7.35,5.24Z"/><path class="cls-3" d="M93.22,209.07c-1.12-6.49-9.29-10.5-18.26-9s-19.29-3.68-18.18,2.81l7.36,5.24Z"/><path class="cls-4" d="M70.59,167.25l.6,34,19.92,3.41s1.92-31.39,2.22-37c.22-4.18.46-18.1.46-24.16S90.93,89.9,90.93,89.9H51.42c-5.18,37.05-3.88,47.2-3.88,47.2s1.39,12.61,2.21,20.63,3.25,44.15,3.38,41.61c0,0,8.55,0,10.31.23s7.14.62,7.14.62"/><polygon class="cls-1" points="52.1 87.39 90.26 87.39 84.99 56.18 57.36 56.18 52.1 87.39"/><ellipse class="cls-5" cx="66.97" cy="65.56" rx="1.15" ry="2.01"/><ellipse class="cls-5" cx="60.88" cy="65.56" rx="1.15" ry="2.01"/><polygon class="cls-6" points="87.45 71.18 86.43 71.18 81.74 62.64 65.87 61.2 85.8 56.73 87.45 71.18"/><ellipse class="cls-4" cx="63.73" cy="58.53" rx="17.52" ry="4.32" transform="translate(-5.5 6.62) rotate(-5.7)"/><ellipse class="cls-7" cx="69.88" cy="54.98" rx="17.52" ry="6.4"/><ellipse class="cls-8" cx="69.88" cy="53.07" rx="17.52" ry="6.4"/><ellipse class="cls-7" cx="69.88" cy="50.38" rx="17.52" ry="6.4"/><ellipse class="cls-5" cx="71.33" cy="47.45" rx="19.23" ry="7.52"/><path class="cls-5" d="M49.48,39.55c-.62.88,2.83,9,2.83,9l6.5.43S50.11,38.67,49.48,39.55Z"/><ellipse class="cls-4" cx="69.83" cy="43.64" rx="8.59" ry="21.03" transform="translate(13.63 103.82) rotate(-78.96)"/><ellipse class="cls-8" cx="53.5" cy="48.23" rx="0.49" ry="0.68" transform="translate(-1.01 1.15) rotate(-1.22)"/><ellipse class="cls-9" cx="53.59" cy="48.23" rx="0.88" ry="1.35" transform="translate(-0.36 0.4) rotate(-0.43)"/><path class="cls-2" d="M90.93,89.9H51.42s-4.81,45.62-4,45.69c.58.38,45.82.38,45.82.38Z"/><polygon class="cls-10" points="56.57 92.5 53.16 92.32 52.38 96.73 56.57 92.5"/><polygon class="cls-10" points="52.48 96.22 53.75 114.86 49.77 119.65 49.46 114.84 52.48 96.22"/><path class="cls-1" d="M88,105.5l-8.45,3.24a8.71,8.71,0,0,1,.76,6.07c-1,4.07-7.34,13.06-7.34,13.06L79.35,133s10.7-12.62,10.74-19.51C89.45,107.94,88,105.5,88,105.5Z"/><ellipse class="cls-1" cx="71" cy="135.89" rx="5.23" ry="4.35" transform="translate(-67.61 70.36) rotate(-37.11)"/><polygon class="cls-11" points="83.09 94.49 85.54 101.25 79.28 103.52 76.82 96.77 78.92 92.78 83.09 94.49"/><line class="cls-12" x1="85.06" y1="99.93" x2="78.8" y2="102.2"/><line class="cls-12" x1="84.6" y1="98.67" x2="78.34" y2="100.94"/><circle class="cls-8" cx="79.46" cy="94.26" r="0.46"/><circle class="cls-12" cx="80.74" cy="97.8" r="0.8"/></g></svg>