<svg xmlns="http://www.w3.org/2000/svg" viewBox="0 0 127.33 233.43"><defs><style>.cls-1{fill:#fcb96e;}.cls-2{fill:#fff;stroke:#c8c8c8;}.cls-12,.cls-2,.cls-6,.cls-9{stroke-miterlimit:10;}.cls-3{fill:#212121;}.cls-4{fill:#34353d;}.cls-10,.cls-5,.cls-6{fill:#231f20;}.cls-10,.cls-6{stroke:#231f20;}.cls-10,.cls-12,.cls-6{stroke-width:0.5px;}.cls-7{fill:#d23427;}.cls-8{fill:#ffc85a;}.cls-12,.cls-9{fill:none;}.cls-9{stroke:#ffe2ae;stroke-width:0.25px;}.cls-10{stroke-linejoin:round;}.cls-11{fill:#0b0a0f;}.cls-12{stroke:#ffc85a;}</style></defs><title>BSL_2</title><g id="Layer_2" data-name="Layer 2"><path class="cls-1" d="M65.34,94l5-2.72s3,7,4.62,10.07C76.83,105,87,113.38,87,113.38l-5,6.43s-15.27-10.89-16.85-17.6C64.51,96.65,65.34,94,65.34,94Z"/><ellipse class="cls-1" cx="90.76" cy="120.75" rx="4.35" ry="5.23" transform="translate(-56.55 154.2) rotate(-65.86)"/><polyline class="cls-2" points="70.46 90.57 74.96 99.5 70.46 103.52"/><path d="M44.89,207.4c1.12-6.49,9.29-10.5,18.26-9s19.3-3.68,18.18,2.81L74,206.49Z"/><path class="cls-3" d="M28.45,209.07c1.12-6.49,9.29-10.5,18.26-9s19.29-3.68,18.18,2.81l-7.36,5.24Z"/><path class="cls-4" d="M51.08,167.25l-.6,34-19.92,3.41s-1.92-31.39-2.22-37c-.22-4.18-.46-18.1-.46-24.16S30.74,89.9,30.74,89.9H70.25c5.17,37.05,3.88,47.2,3.88,47.2s-1.39,12.61-2.21,20.63-3.25,44.15-3.38,41.61c0,0-8.55,0-10.31.23s-7.14.62-7.14.62"/><polygon class="cls-1" points="69.57 87.39 31.41 87.39 36.68 56.18 64.3 56.18 69.57 87.39"/><ellipse class="cls-5" cx="54.7" cy="65.56" rx="1.15" ry="2.01"/><ellipse class="cls-5" cx="60.79" cy="65.56" rx="1.15" ry="2.01"/><polygon class="cls-6" points="34.22 71.18 35.23 71.18 39.93 62.64 55.8 61.2 35.87 56.73 34.22 71.18"/><ellipse class="cls-4" cx="57.93" cy="58.53" rx="4.32" ry="17.52" transform="translate(-6.06 110.37) rotate(-84.3)"/><ellipse class="cls-7" cx="51.79" cy="54.98" rx="17.52" ry="6.4"/><ellipse class="cls-8" cx="51.79" cy="53.07" rx="17.52" ry="6.4"/><ellipse class="cls-7" cx="51.79" cy="50.38" rx="17.52" ry="6.4"/><ellipse class="cls-5" cx="50.34" cy="47.45" rx="19.23" ry="7.52"/><path class="cls-5" d="M72.19,39.55c.62.88-2.84,9-2.84,9l-6.5.43S71.56,38.67,72.19,39.55Z"/><ellipse class="cls-4" cx="51.84" cy="43.64" rx="21.03" ry="8.59" transform="translate(-7.4 10.73) rotate(-11.04)"/><ellipse class="cls-8" cx="68.17" cy="48.23" rx="0.68" ry="0.49" transform="translate(18.5 115.36) rotate(-88.78)"/><ellipse class="cls-9" cx="68.08" cy="48.23" rx="1.35" ry="0.88" transform="translate(19.34 115.95) rotate(-89.57)"/><path class="cls-2" d="M30.74,89.9H70.25s4.81,45.62,4,45.69c-.58.38-45.82.38-45.82.38Z"/><polygon class="cls-10" points="65.1 92.5 68.51 92.32 69.29 96.73 65.1 92.5"/><polygon class="cls-10" points="69.19 96.22 67.92 114.86 71.9 119.65 72.21 114.84 69.19 96.22"/><path class="cls-1" d="M33.63,105.5l8.45,3.24a8.71,8.71,0,0,0-.76,6.07c1,4.07,7.34,13.06,7.34,13.06L42.32,133S31.61,120.39,31.58,113.5C32.22,107.94,33.63,105.5,33.63,105.5Z"/><ellipse class="cls-1" cx="50.67" cy="135.89" rx="4.35" ry="5.23" transform="translate(-88.28 94.3) rotate(-52.89)"/><polygon class="cls-11" points="38.58 94.49 36.13 101.25 42.39 103.52 44.85 96.77 42.75 92.78 38.58 94.49"/><line class="cls-12" x1="36.6" y1="99.93" x2="42.87" y2="102.2"/><line class="cls-12" x1="37.06" y1="98.67" x2="43.33" y2="100.94"/><circle class="cls-8" cx="42.21" cy="94.26" r="0.46"/><circle class="cls-12" cx="40.92" cy="97.8" r="0.8"/></g></svg>