<svg xmlns="http://www.w3.org/2000/svg" viewBox="0 0 127.33 233.43"><defs><style>.cls-1{fill:#2e2f35;}.cls-2{fill:#f9c295;}.cls-3{fill:#212121;}.cls-4{fill:#2c395c;}.cls-5{fill:#f2f4ef;}.cls-6{fill:#231f20;}.cls-7{fill:#7c4f4e;}.cls-8{fill:#34353d;}.cls-9{fill:#eaeded;}</style></defs><title>DSL</title><g id="Layer_2" data-name="Layer 2"><path class="cls-1" d="M61.84,91.36l-4-8.12a8.66,8.66,0,0,1-6,1.3c-4.15-.65-13.66-6.14-13.66-6.14l-4.56,6.77s13.53,9.54,20.39,9C59.54,93,61.84,91.36,61.84,91.36Z"/><ellipse class="cls-2" cx="30.04" cy="77.12" rx="4.35" ry="5.23" transform="translate(-44.05 40.23) rotate(-42.25)"/><path d="M79.47,194.87c-1.12-6.49-9.29-10.5-18.26-9S41.92,182.23,43,188.72L50.39,194Z"/><path class="cls-3" d="M95.91,196.54c-1.11-6.49-9.29-10.5-18.26-9s-19.29-3.68-18.17,2.81l7.35,5.24Z"/><path class="cls-4" d="M73.29,154.72l.59,34,19.92,3.41s1.92-31.39,2.22-37c.23-4.18.46-18.1.46-24.16s-2.86-53.55-2.86-53.55H54.12c-5.18,37.05-3.88,47.2-3.88,47.2s1.38,12.61,2.21,20.63,3.24,44.15,3.37,41.61c0,0,8.56,0,10.31.23s7.14.62,7.14.62"/><path class="cls-1" d="M90.73,93l-8.44,3.24a8.74,8.74,0,0,1,.75,6.07c-1,4.07-7.33,13.06-7.33,13.06L82,120.48S92.75,107.86,92.78,101C92.14,95.41,90.73,93,90.73,93Z"/><ellipse class="cls-2" cx="73.7" cy="123.37" rx="5.23" ry="4.35" transform="translate(-59.51 69.45) rotate(-37.11)"/><circle class="cls-5" cx="56.16" cy="108.83" r="1.5"/><circle class="cls-5" cx="58.19" cy="91.84" r="1.5"/><polygon class="cls-2" points="54.81 74.84 92.96 74.84 87.7 43.63 60.07 43.63 54.81 74.84"/><ellipse class="cls-6" cx="69.68" cy="53.01" rx="1.15" ry="2.01"/><ellipse class="cls-6" cx="63.59" cy="53.01" rx="1.15" ry="2.01"/><polyline class="cls-7" points="89.97 57.35 87.72 57.45 86.9 55.58 85.53 55.58 85.53 63.14 81.9 63.14 81.9 50.17 62.44 50.33 87.91 44.86"/><ellipse class="cls-8" cx="66.44" cy="45.98" rx="17.52" ry="4.32" transform="translate(-4.24 6.82) rotate(-5.7)"/><ellipse class="cls-4" cx="72.59" cy="42.42" rx="17.52" ry="6.4"/><ellipse class="cls-4" cx="72.59" cy="34.51" rx="17.52" ry="6.4"/><rect class="cls-4" x="55.06" y="34.51" width="35.04" height="7.91"/><rect class="cls-9" x="61.45" y="34.92" width="4.76" height="0.59" rx="0.3" transform="translate(127.66 70.43) rotate(180)"/><rect class="cls-9" x="61.45" y="35.97" width="4.76" height="0.59" rx="0.3" transform="translate(127.66 72.54) rotate(-180)"/><path class="cls-9" d="M62.8,34.78l2.12-.28c.25,0,.42-.19.37-.35h0a.53.53,0,0,0-.56-.23l-2.12.28c-.25,0-.42.19-.36.35h0C62.3,34.71,62.55,34.81,62.8,34.78Z"/><path class="cls-9" d="M62.88,37.76l2.1-.28c.25,0,.41-.19.36-.34h0a.5.5,0,0,0-.56-.23l-2.09.27c-.26,0-.42.19-.37.35h0C62.37,37.69,62.62,37.79,62.88,37.76Z"/><path class="cls-9" d="M65.31,37l-2.18-2.64a.6.6,0,0,0-.63-.13h0c-.23.07-.32.25-.2.4l2.18,2.64a.62.62,0,0,0,.63.12h0C65.34,37.35,65.43,37.17,65.31,37Z"/><path class="cls-1" d="M61.84,91.36l-4-8.12a8.66,8.66,0,0,1-6,1.3c-4.15-.65-13.66-6.14-13.66-6.14l-4.56,6.77s13.53,9.54,20.39,9C59.54,93,61.84,91.36,61.84,91.36Z"/><ellipse class="cls-2" cx="30.04" cy="77.12" rx="4.35" ry="5.23" transform="translate(-44.05 40.23) rotate(-42.25)"/><path class="cls-1" d="M61.84,91.36l-4-8.12a8.66,8.66,0,0,1-6,1.3c-4.15-.65-13.66-6.14-13.66-6.14l-4.56,6.77s13.53,9.54,20.39,9C59.54,93,61.84,91.36,61.84,91.36Z"/><ellipse class="cls-2" cx="30.04" cy="77.12" rx="4.35" ry="5.23" transform="translate(-44.05 40.23) rotate(-42.25)"/></g></svg>