<svg xmlns="http://www.w3.org/2000/svg" viewBox="0 0 127.33 233.43"><defs><style>.cls-1{fill:#2e2f35;}.cls-2{fill:#f9c295;}.cls-3{fill:#212121;}.cls-4{fill:#2c395c;}.cls-5{fill:#f2f4ef;}.cls-6{fill:#231f20;}.cls-7{fill:#7c4f4e;}.cls-8{fill:#34353d;}.cls-9{fill:#eaeded;}</style></defs><title>DSL</title><g id="Layer_2" data-name="Layer 2"><path class="cls-1" d="M59.91,91.36l4-8.12a8.69,8.69,0,0,0,6,1.3C74,83.89,83.54,78.4,83.54,78.4l4.55,6.77s-13.52,9.54-20.39,9C62.22,93,59.91,91.36,59.91,91.36Z"/><ellipse class="cls-2" cx="91.71" cy="77.12" rx="5.23" ry="4.35" transform="translate(-27.04 93.16) rotate(-47.75)"/><path d="M42.28,194.87c1.12-6.49,9.3-10.5,18.27-9s19.29-3.68,18.17,2.81L71.37,194Z"/><path class="cls-3" d="M25.84,196.54c1.12-6.49,9.29-10.5,18.26-9s19.29-3.68,18.18,2.81l-7.36,5.24Z"/><path class="cls-4" d="M48.47,154.72l-.6,34L28,192.13s-1.92-31.39-2.22-37c-.22-4.18-.46-18.1-.46-24.16s2.86-53.55,2.86-53.55H67.64c5.17,37.05,3.88,47.2,3.88,47.2s-1.39,12.61-2.21,20.63-3.25,44.15-3.38,41.61c0,0-8.55,0-10.31.23s-7.14.62-7.14.62"/><path class="cls-1" d="M31,93l8.45,3.24a8.71,8.71,0,0,0-.76,6.07c1,4.07,7.34,13.06,7.34,13.06l-6.34,5.14S29,107.86,29,101C29.61,95.41,31,93,31,93Z"/><ellipse class="cls-2" cx="48.06" cy="123.37" rx="4.35" ry="5.23" transform="translate(-79.32 87.25) rotate(-52.89)"/><circle class="cls-5" cx="65.59" cy="108.83" r="1.5"/><circle class="cls-5" cx="63.57" cy="91.84" r="1.5"/><polygon class="cls-2" points="66.95 74.84 28.79 74.84 34.06 43.63 61.68 43.63 66.95 74.84"/><ellipse class="cls-6" cx="52.07" cy="53.01" rx="1.15" ry="2.01"/><ellipse class="cls-6" cx="58.17" cy="53.01" rx="1.15" ry="2.01"/><polyline class="cls-7" points="31.79 57.35 34.04 57.45 34.85 55.58 36.22 55.58 36.22 63.14 39.86 63.14 39.86 50.17 59.32 50.33 33.85 44.86"/><ellipse class="cls-8" cx="55.31" cy="45.98" rx="4.32" ry="17.52" transform="translate(4.07 96.45) rotate(-84.3)"/><ellipse class="cls-4" cx="49.17" cy="42.42" rx="17.52" ry="6.4"/><ellipse class="cls-4" cx="49.17" cy="34.51" rx="17.52" ry="6.4"/><rect class="cls-4" x="31.65" y="34.51" width="35.04" height="7.91"/><rect class="cls-9" x="55.54" y="34.92" width="4.76" height="0.59" rx="0.3"/><rect class="cls-9" x="55.54" y="35.97" width="4.76" height="0.59" rx="0.3"/><path class="cls-9" d="M59,34.78l-2.12-.28c-.25,0-.41-.19-.36-.35h0c.05-.16.3-.26.55-.23l2.12.28c.26,0,.42.19.37.35h0C59.46,34.71,59.21,34.81,59,34.78Z"/><path class="cls-9" d="M58.88,37.76l-2.1-.28c-.26,0-.42-.19-.37-.34h0a.52.52,0,0,1,.56-.23l2.1.27c.25,0,.42.19.36.35h0C59.38,37.69,59.13,37.79,58.88,37.76Z"/><path class="cls-9" d="M56.44,37l2.18-2.64a.62.62,0,0,1,.64-.13h0c.23.07.32.25.2.4L57.28,37.3a.64.64,0,0,1-.64.12h0C56.41,37.35,56.32,37.17,56.44,37Z"/><path class="cls-1" d="M59.91,91.36l4-8.12a8.69,8.69,0,0,0,6,1.3C74,83.89,83.54,78.4,83.54,78.4l4.55,6.77s-13.52,9.54-20.39,9C62.22,93,59.91,91.36,59.91,91.36Z"/><ellipse class="cls-2" cx="91.71" cy="77.12" rx="5.23" ry="4.35" transform="translate(-27.04 93.16) rotate(-47.75)"/><path class="cls-1" d="M59.91,91.36l4-8.12a8.69,8.69,0,0,0,6,1.3C74,83.89,83.54,78.4,83.54,78.4l4.55,6.77s-13.52,9.54-20.39,9C62.22,93,59.91,91.36,59.91,91.36Z"/><ellipse class="cls-2" cx="91.71" cy="77.12" rx="5.23" ry="4.35" transform="translate(-27.04 93.16) rotate(-47.75)"/></g></svg>