<svg xmlns="http://www.w3.org/2000/svg" viewBox="0 0 127.33 233.43"><defs><style>.cls-1{fill:#2e2f35;}.cls-2{fill:#f9c295;}.cls-3{fill:#212121;}.cls-4{fill:#2c395c;}.cls-5{fill:#f2f4ef;}.cls-6{fill:#231f20;}.cls-7{fill:#7c4f4e;}.cls-8{fill:#34353d;}.cls-9{fill:#eaeded;}</style></defs><title>DSL_2</title><g id="Layer_2" data-name="Layer 2"><path class="cls-1" d="M58.4,82.48l-5-2.72s-3,7-4.62,10.07c-1.9,3.74-12.08,12.08-12.08,12.08l5,6.43S57,97.45,58.6,90.74C59.23,85.18,58.4,82.48,58.4,82.48Z"/><ellipse class="cls-2" cx="32.97" cy="109.28" rx="5.23" ry="4.35" transform="translate(-41.81 23.04) rotate(-24.14)"/><path class="cls-1" d="M58.4,82.48l-5-2.72s-3,7-4.62,10.07c-1.9,3.74-12.08,12.08-12.08,12.08l5,6.43S57,97.45,58.6,90.74C59.23,85.18,58.4,82.48,58.4,82.48Z"/><ellipse class="cls-2" cx="32.97" cy="109.28" rx="5.23" ry="4.35" transform="translate(-41.81 23.04) rotate(-24.14)"/><path class="cls-1" d="M58.4,82.48l-5-2.72s-3,7-4.62,10.07c-1.9,3.74-12.08,12.08-12.08,12.08l5,6.43S57,97.45,58.6,90.74C59.23,85.18,58.4,82.48,58.4,82.48Z"/><ellipse class="cls-2" cx="32.97" cy="109.28" rx="5.23" ry="4.35" transform="translate(-41.81 23.04) rotate(-24.14)"/><path d="M78.84,194.87c-1.12-6.49-9.29-10.5-18.26-9s-19.29-3.68-18.18,2.81L49.76,194Z"/><path class="cls-3" d="M95.28,196.54c-1.11-6.49-9.29-10.5-18.26-9s-19.29-3.68-18.17,2.81l7.35,5.24Z"/><path class="cls-4" d="M72.66,154.72l.6,34,19.92,3.41s1.92-31.39,2.22-37c.22-4.18.45-18.1.45-24.16S93,77.37,93,77.37H53.49c-5.18,37.05-3.88,47.2-3.88,47.2S51,137.18,51.82,145.2s3.24,44.15,3.37,41.61c0,0,8.56,0,10.31.23s7.15.62,7.15.62"/><path class="cls-1" d="M90.1,93l-8.44,3.24a8.74,8.74,0,0,1,.75,6.07c-1,4.07-7.33,13.06-7.33,13.06l6.33,5.14S92.12,107.86,92.15,101C91.51,95.41,90.1,93,90.1,93Z"/><ellipse class="cls-2" cx="73.07" cy="123.37" rx="5.23" ry="4.35" transform="translate(-59.64 69.07) rotate(-37.11)"/><circle class="cls-5" cx="55.53" cy="108.83" r="1.5"/><circle class="cls-5" cx="57.56" cy="91.84" r="1.5"/><polygon class="cls-2" points="54.18 74.84 92.33 74.84 87.07 43.63 59.44 43.63 54.18 74.84"/><ellipse class="cls-6" cx="69.05" cy="53.01" rx="1.15" ry="2.01"/><ellipse class="cls-6" cx="62.96" cy="53.01" rx="1.15" ry="2.01"/><polyline class="cls-7" points="89.34 57.35 87.09 57.45 86.27 55.58 84.9 55.58 84.9 63.14 81.27 63.14 81.27 50.17 61.81 50.33 87.28 44.86"/><ellipse class="cls-8" cx="65.81" cy="45.98" rx="17.52" ry="4.32" transform="translate(-4.24 6.76) rotate(-5.7)"/><ellipse class="cls-4" cx="71.96" cy="42.42" rx="17.52" ry="6.4"/><ellipse class="cls-4" cx="71.96" cy="34.51" rx="17.52" ry="6.4"/><rect class="cls-4" x="54.43" y="34.51" width="35.04" height="7.91"/><rect class="cls-9" x="60.82" y="34.92" width="4.76" height="0.59" rx="0.3" transform="translate(126.4 70.43) rotate(180)"/><rect class="cls-9" x="60.82" y="35.97" width="4.76" height="0.59" rx="0.3" transform="translate(126.4 72.54) rotate(-180)"/><path class="cls-9" d="M62.17,34.78l2.12-.28c.26,0,.42-.19.37-.35h0a.53.53,0,0,0-.56-.23L62,34.2c-.25,0-.42.19-.36.35h0C61.67,34.71,61.92,34.81,62.17,34.78Z"/><path class="cls-9" d="M62.25,37.76l2.1-.28c.25,0,.41-.19.36-.34h0a.5.5,0,0,0-.55-.23l-2.1.27c-.26,0-.42.19-.37.35h0C61.74,37.69,62,37.79,62.25,37.76Z"/><path class="cls-9" d="M64.68,37,62.5,34.39a.6.6,0,0,0-.63-.13h0c-.23.07-.32.25-.2.4l2.18,2.64a.62.62,0,0,0,.63.12h0C64.71,37.35,64.8,37.17,64.68,37Z"/></g></svg>