<svg xmlns="http://www.w3.org/2000/svg" viewBox="0 0 127.33 233.43"><defs><style>.cls-1{fill:#2e2f35;}.cls-2{fill:#f9c295;}.cls-3{fill:#212121;}.cls-4{fill:#2c395c;}.cls-5{fill:#f2f4ef;}.cls-6{fill:#231f20;}.cls-7{fill:#7c4f4e;}.cls-8{fill:#34353d;}.cls-9{fill:#eaeded;}</style></defs><title>DSL_2</title><g id="Layer_2" data-name="Layer 2"><path class="cls-1" d="M65.34,82.48l5-2.72s3,7,4.62,10.07C76.83,93.57,87,101.91,87,101.91l-5,6.43S66.71,97.45,65.13,90.74C64.51,85.18,65.34,82.48,65.34,82.48Z"/><ellipse class="cls-2" cx="90.76" cy="109.28" rx="4.35" ry="5.23" transform="matrix(0.41, -0.91, 0.91, 0.41, -46.08, 147.42)"/><path class="cls-1" d="M65.34,82.48l5-2.72s3,7,4.62,10.07C76.83,93.57,87,101.91,87,101.91l-5,6.43S66.71,97.45,65.13,90.74C64.51,85.18,65.34,82.48,65.34,82.48Z"/><ellipse class="cls-2" cx="90.76" cy="109.28" rx="4.35" ry="5.23" transform="matrix(0.41, -0.91, 0.91, 0.41, -46.08, 147.42)"/><path class="cls-1" d="M65.34,82.48l5-2.72s3,7,4.62,10.07C76.83,93.57,87,101.91,87,101.91l-5,6.43S66.71,97.45,65.13,90.74C64.51,85.18,65.34,82.48,65.34,82.48Z"/><ellipse class="cls-2" cx="90.76" cy="109.28" rx="4.35" ry="5.23" transform="matrix(0.41, -0.91, 0.91, 0.41, -46.08, 147.42)"/><path d="M44.89,194.87c1.12-6.49,9.29-10.5,18.26-9s19.3-3.68,18.18,2.81L74,194Z"/><path class="cls-3" d="M28.45,196.54c1.12-6.49,9.29-10.5,18.26-9S66,183.9,64.89,190.39l-7.36,5.24Z"/><path class="cls-4" d="M51.08,154.72l-.6,34-19.92,3.41s-1.92-31.39-2.22-37c-.22-4.18-.46-18.1-.46-24.16s2.86-53.55,2.86-53.55H70.25c5.17,37.05,3.88,47.2,3.88,47.2s-1.39,12.61-2.21,20.63-3.25,44.15-3.38,41.61c0,0-8.55,0-10.31.23s-7.14.62-7.14.62"/><path class="cls-1" d="M33.63,93l8.45,3.24a8.71,8.71,0,0,0-.76,6.07c1,4.07,7.34,13.06,7.34,13.06l-6.34,5.14S31.61,107.86,31.58,101C32.22,95.41,33.63,93,33.63,93Z"/><ellipse class="cls-2" cx="50.67" cy="123.37" rx="4.35" ry="5.23" transform="translate(-78.28 89.33) rotate(-52.89)"/><circle class="cls-5" cx="68.2" cy="108.83" r="1.5"/><circle class="cls-5" cx="66.18" cy="91.84" r="1.5"/><polygon class="cls-2" points="69.56 74.84 31.4 74.84 36.67 43.63 64.29 43.63 69.56 74.84"/><ellipse class="cls-6" cx="54.68" cy="53.01" rx="1.15" ry="2.01"/><ellipse class="cls-6" cx="60.77" cy="53.01" rx="1.15" ry="2.01"/><polyline class="cls-7" points="34.4 57.35 36.65 57.45 37.46 55.58 38.83 55.58 38.83 63.14 42.47 63.14 42.47 50.17 61.93 50.33 36.46 44.86"/><ellipse class="cls-8" cx="57.92" cy="45.98" rx="4.32" ry="17.52" transform="translate(6.42 99.05) rotate(-84.3)"/><ellipse class="cls-4" cx="51.78" cy="42.42" rx="17.52" ry="6.4"/><ellipse class="cls-4" cx="51.78" cy="34.51" rx="17.52" ry="6.4"/><rect class="cls-4" x="34.26" y="34.51" width="35.04" height="7.91"/><rect class="cls-9" x="58.15" y="34.92" width="4.76" height="0.59" rx="0.3"/><rect class="cls-9" x="58.15" y="35.97" width="4.76" height="0.59" rx="0.3"/><path class="cls-9" d="M61.56,34.78l-2.12-.28c-.25,0-.42-.19-.36-.35h0c.05-.16.3-.26.55-.23l2.12.28c.26,0,.42.19.37.35h0A.53.53,0,0,1,61.56,34.78Z"/><path class="cls-9" d="M61.49,37.76l-2.1-.28c-.26,0-.42-.19-.37-.34h0a.5.5,0,0,1,.56-.23l2.1.27c.25,0,.41.19.36.35h0C62,37.69,61.74,37.79,61.49,37.76Z"/><path class="cls-9" d="M59.05,37l2.18-2.64a.6.6,0,0,1,.63-.13h0c.23.07.33.25.21.4L59.89,37.3a.64.64,0,0,1-.64.12h0C59,37.35,58.93,37.17,59.05,37Z"/></g></svg>