<svg xmlns="http://www.w3.org/2000/svg" viewBox="0 0 127.33 233.43"><defs><style>.cls-1{fill:#2e2f35;}.cls-2{fill:#f9c295;}.cls-3{fill:#212121;}.cls-4{fill:#2c395c;}.cls-5{fill:#f2f4ef;}.cls-6{fill:#231f20;}.cls-7{fill:#7c4f4e;}.cls-8{fill:#34353d;}.cls-9{fill:#eaeded;}</style></defs><title>DSL_1</title><g id="Layer_2" data-name="Layer 2"><path class="cls-1" d="M59.29,86.84,53.13,80s-2.85,5.86-5.9,7.54c-3.67,2-16.67,4.23-16.67,4.23l.54,8.15s18.65-1.47,23.72-6.13C58.46,89.54,59.29,86.84,59.29,86.84Z"/><path class="cls-2" d="M19.15,95c-.42,2.37.56,4.57,3.4,5.07s5.48-1,5.9-3.38-1.54-4.69-4.39-5.2S19.57,92.62,19.15,95Z"/><path class="cls-1" d="M59.29,86.84,53.13,80s-2.85,5.86-5.9,7.54c-3.67,2-16.67,4.23-16.67,4.23l.54,8.15s18.65-1.47,23.72-6.13C58.46,89.54,59.29,86.84,59.29,86.84Z"/><path class="cls-2" d="M19.15,95c-.42,2.37.56,4.57,3.4,5.07s5.48-1,5.9-3.38-1.54-4.69-4.39-5.2S19.57,92.62,19.15,95Z"/><path class="cls-1" d="M59.29,86.84,53.13,80s-2.85,5.86-5.9,7.54c-3.67,2-16.67,4.23-16.67,4.23l.54,8.15s18.65-1.47,23.72-6.13C58.46,89.54,59.29,86.84,59.29,86.84Z"/><path class="cls-2" d="M19.15,95c-.42,2.37.56,4.57,3.4,5.07s5.48-1,5.9-3.38-1.54-4.69-4.39-5.2S19.57,92.62,19.15,95Z"/><path d="M76.77,194.87c-1.11-6.49-9.29-10.5-18.26-9s-19.29-3.68-18.17,2.81L47.69,194Z"/><path class="cls-3" d="M93.22,196.54c-1.12-6.49-9.29-10.5-18.26-9s-19.29-3.68-18.18,2.81l7.36,5.24Z"/><path class="cls-4" d="M70.59,154.72l.6,34,19.92,3.41s1.92-31.39,2.22-37c.22-4.18.46-18.1.46-24.16s-2.86-53.55-2.86-53.55H51.42c-5.18,37.05-3.88,47.2-3.88,47.2s1.39,12.61,2.21,20.63,3.25,44.15,3.38,41.61c0,0,8.55,0,10.31.23s7.14.62,7.14.62"/><path class="cls-1" d="M88,93l-8.45,3.24a8.71,8.71,0,0,1,.76,6.07c-1,4.07-7.34,13.06-7.34,13.06l6.34,5.14S90.05,107.86,90.09,101C89.45,95.41,88,93,88,93Z"/><ellipse class="cls-2" cx="71" cy="123.37" rx="5.23" ry="4.35" transform="translate(-60.05 67.83) rotate(-37.11)"/><circle class="cls-5" cx="53.47" cy="108.83" r="1.5"/><circle class="cls-5" cx="55.49" cy="91.84" r="1.5"/><polygon class="cls-2" points="52.11 74.84 90.27 74.84 85 43.63 57.38 43.63 52.11 74.84"/><ellipse class="cls-6" cx="66.98" cy="53.01" rx="1.15" ry="2.01"/><ellipse class="cls-6" cx="60.89" cy="53.01" rx="1.15" ry="2.01"/><polyline class="cls-7" points="87.27 57.35 85.02 57.45 84.21 55.58 82.84 55.58 82.84 63.14 79.2 63.14 79.2 50.17 59.74 50.33 85.21 44.86"/><ellipse class="cls-8" cx="63.75" cy="45.98" rx="17.52" ry="4.32" transform="translate(-4.25 6.56) rotate(-5.7)"/><ellipse class="cls-4" cx="69.89" cy="42.42" rx="17.52" ry="6.4"/><ellipse class="cls-4" cx="69.89" cy="34.51" rx="17.52" ry="6.4"/><rect class="cls-4" x="52.37" y="34.51" width="35.04" height="7.91"/><rect class="cls-9" x="58.75" y="34.92" width="4.76" height="0.59" rx="0.3" transform="translate(122.27 70.43) rotate(180)"/><rect class="cls-9" x="58.75" y="35.97" width="4.76" height="0.59" rx="0.3" transform="translate(122.27 72.54) rotate(-180)"/><path class="cls-9" d="M60.11,34.78l2.12-.28c.25,0,.41-.19.36-.35h0c-.05-.16-.3-.26-.56-.23l-2.11.28c-.26,0-.42.19-.37.35h0C59.6,34.71,59.85,34.81,60.11,34.78Z"/><path class="cls-9" d="M60.18,37.76l2.1-.28c.25,0,.42-.19.37-.34h0a.52.52,0,0,0-.56-.23l-2.1.27c-.25,0-.42.19-.36.35h0C59.68,37.69,59.93,37.79,60.18,37.76Z"/><path class="cls-9" d="M62.62,37l-2.18-2.64a.62.62,0,0,0-.64-.13h0c-.23.07-.32.25-.2.4l2.18,2.64a.64.64,0,0,0,.64.12h0C62.65,37.35,62.74,37.17,62.62,37Z"/></g></svg>