<svg xmlns="http://www.w3.org/2000/svg" viewBox="0 0 127.33 233.43"><defs><style>.cls-1{fill:#2e2f35;}.cls-2{fill:#f9c295;}.cls-3{fill:#212121;}.cls-4{fill:#2c395c;}.cls-5{fill:#f2f4ef;}.cls-6{fill:#231f20;}.cls-7{fill:#7c4f4e;}.cls-8{fill:#34353d;}.cls-9{fill:#eaeded;}</style></defs><title>DSL_1</title><g id="Layer_2" data-name="Layer 2"><path class="cls-1" d="M53.56,86.84,59.72,80s2.85,5.86,5.89,7.54c3.68,2,16.68,4.23,16.68,4.23l-.54,8.15S63.1,98.45,58,93.79C54.38,89.54,53.56,86.84,53.56,86.84Z"/><path class="cls-2" d="M93.69,95c.42,2.37-.55,4.57-3.39,5.07s-5.49-1-5.91-3.38,1.55-4.69,4.39-5.2A3.94,3.94,0,0,1,93.69,95Z"/><path class="cls-1" d="M53.56,86.84,59.72,80s2.85,5.86,5.89,7.54c3.68,2,16.68,4.23,16.68,4.23l-.54,8.15S63.1,98.45,58,93.79C54.38,89.54,53.56,86.84,53.56,86.84Z"/><path class="cls-2" d="M93.69,95c.42,2.37-.55,4.57-3.39,5.07s-5.49-1-5.91-3.38,1.55-4.69,4.39-5.2A3.94,3.94,0,0,1,93.69,95Z"/><path class="cls-1" d="M53.56,86.84,59.72,80s2.85,5.86,5.89,7.54c3.68,2,16.68,4.23,16.68,4.23l-.54,8.15S63.1,98.45,58,93.79C54.38,89.54,53.56,86.84,53.56,86.84Z"/><path class="cls-2" d="M93.69,95c.42,2.37-.55,4.57-3.39,5.07s-5.49-1-5.91-3.38,1.55-4.69,4.39-5.2A3.94,3.94,0,0,1,93.69,95Z"/><path d="M36.07,194.87c1.12-6.49,9.29-10.5,18.26-9s19.3-3.68,18.18,2.81L65.15,194Z"/><path class="cls-3" d="M19.63,196.54c1.11-6.49,9.29-10.5,18.26-9s19.29-3.68,18.18,2.81l-7.36,5.24Z"/><path class="cls-4" d="M42.25,154.72l-.59,34-19.92,3.41s-1.92-31.39-2.22-37c-.22-4.18-.46-18.1-.46-24.16s2.86-53.55,2.86-53.55h39.5c5.18,37.05,3.88,47.2,3.88,47.2s-1.38,12.61-2.21,20.63-3.24,44.15-3.37,41.61c0,0-8.55,0-10.31.23s-7.14.62-7.14.62"/><path class="cls-1" d="M24.81,93l8.45,3.24a8.71,8.71,0,0,0-.76,6.07c1,4.07,7.34,13.06,7.34,13.06l-6.34,5.14S22.79,107.86,22.76,101C23.4,95.41,24.81,93,24.81,93Z"/><ellipse class="cls-2" cx="41.84" cy="123.37" rx="4.35" ry="5.23" transform="translate(-81.78 82.3) rotate(-52.89)"/><circle class="cls-5" cx="59.38" cy="108.83" r="1.5"/><circle class="cls-5" cx="57.35" cy="91.84" r="1.5"/><polygon class="cls-2" points="60.74 74.84 22.58 74.84 27.84 43.63 55.47 43.63 60.74 74.84"/><ellipse class="cls-6" cx="45.86" cy="53.01" rx="1.15" ry="2.01"/><ellipse class="cls-6" cx="51.95" cy="53.01" rx="1.15" ry="2.01"/><polyline class="cls-7" points="25.58 57.35 27.83 57.45 28.64 55.58 30.01 55.58 30.01 63.14 33.65 63.14 33.65 50.17 53.1 50.33 27.64 44.86"/><ellipse class="cls-8" cx="49.1" cy="45.98" rx="4.32" ry="17.52" transform="translate(-1.53 90.27) rotate(-84.3)"/><ellipse class="cls-4" cx="42.96" cy="42.42" rx="17.52" ry="6.4"/><ellipse class="cls-4" cx="42.96" cy="34.51" rx="17.52" ry="6.4"/><rect class="cls-4" x="25.43" y="34.51" width="35.04" height="7.91"/><rect class="cls-9" x="49.33" y="34.92" width="4.76" height="0.59" rx="0.3"/><rect class="cls-9" x="49.33" y="35.97" width="4.76" height="0.59" rx="0.3"/><path class="cls-9" d="M52.74,34.78l-2.12-.28c-.25,0-.42-.19-.36-.35h0c.05-.16.3-.26.55-.23l2.12.28c.25,0,.42.19.37.35h0A.53.53,0,0,1,52.74,34.78Z"/><path class="cls-9" d="M52.66,37.76l-2.09-.28c-.26,0-.42-.19-.37-.34h0a.5.5,0,0,1,.56-.23l2.1.27c.25,0,.41.19.36.35h0C53.17,37.69,52.92,37.79,52.66,37.76Z"/><path class="cls-9" d="M50.23,37l2.18-2.64a.6.6,0,0,1,.63-.13h0c.23.07.32.25.21.4L51.07,37.3a.64.64,0,0,1-.64.12h0C50.2,37.35,50.11,37.17,50.23,37Z"/></g></svg>