<svg xmlns="http://www.w3.org/2000/svg" viewBox="0 0 180.38 225.85"><defs><style>.cls-1{fill:#212121;}.cls-2{fill:#2c395c;}.cls-3{fill:#2e2f35;}.cls-4{fill:#f9c295;}.cls-5{fill:#f2f4ef;}.cls-6{fill:#231f20;}.cls-7{fill:#7c4f4e;}.cls-8{fill:#34353d;}.cls-9{fill:#eaeded;}</style></defs><title>P1S1</title><g id="diesel_train_driver" data-name="diesel train driver"><path d="M85.77,197.38c1.11-6.49,9.29-10.5,18.26-9s19.29-3.68,18.17,2.81l-7.35,5.24Z"/><path class="cls-1" d="M69.32,199.05c1.12-6.49,9.29-10.5,18.26-9s19.29-3.68,18.18,2.81l-7.36,5.24Z"/><path class="cls-2" d="M92,157.23l-.6,34-19.92,3.41s-1.92-31.39-2.22-37c-.22-4.18-.46-18.1-.46-24.16s2.86-53.55,2.86-53.55h39.51c5.18,37.05,3.88,47.2,3.88,47.2s-1.39,12.61-2.21,20.63-3.25,44.15-3.38,41.61c0,0-8.55,0-10.31.23s-7.14.62-7.14.62"/><path class="cls-3" d="M74.5,95.48,83,98.72a8.71,8.71,0,0,0-.76,6.07c1,4.07,7.34,13.06,7.34,13.06L83.19,123s-10.7-12.62-10.74-19.51C73.09,97.92,74.5,95.48,74.5,95.48Z"/><ellipse class="cls-4" cx="91.54" cy="125.88" rx="4.35" ry="5.23" transform="translate(-64.07 122.92) rotate(-52.89)"/><circle class="cls-5" cx="109.07" cy="111.34" r="1.5"/><circle class="cls-5" cx="107.05" cy="94.35" r="1.5"/><polygon class="cls-4" points="110.43 77.35 72.27 77.35 77.54 46.14 105.16 46.14 110.43 77.35"/><ellipse class="cls-6" cx="95.56" cy="55.52" rx="1.15" ry="2.01"/><ellipse class="cls-6" cx="101.65" cy="55.52" rx="1.15" ry="2.01"/><polyline class="cls-7" points="75.27 59.86 77.52 59.96 78.33 58.09 79.7 58.09 79.7 65.65 83.34 65.65 83.34 52.68 102.8 52.84 77.33 47.37"/><ellipse class="cls-8" cx="98.79" cy="48.49" rx="4.32" ry="17.52" transform="translate(40.73 141.98) rotate(-84.3)"/><ellipse class="cls-2" cx="92.65" cy="44.93" rx="17.52" ry="6.4"/><ellipse class="cls-2" cx="92.65" cy="37.02" rx="17.52" ry="6.4"/><rect class="cls-2" x="75.13" y="37.02" width="35.04" height="7.91"/><rect class="cls-9" x="99.02" y="37.43" width="4.76" height="0.59" rx="0.3"/><rect class="cls-9" x="99.02" y="38.48" width="4.76" height="0.59" rx="0.3"/><path class="cls-9" d="M102.43,37.29,100.31,37c-.25,0-.41-.19-.36-.35h0c0-.16.3-.26.55-.23l2.12.28c.26,0,.42.19.37.35h0C102.94,37.22,102.69,37.32,102.43,37.29Z"/><path class="cls-9" d="M102.36,40.27l-2.1-.28c-.25,0-.42-.19-.37-.35h0a.53.53,0,0,1,.56-.22l2.1.27c.25,0,.42.19.36.35h0C102.86,40.2,102.61,40.3,102.36,40.27Z"/><path class="cls-9" d="M99.92,39.54l2.18-2.65a.64.64,0,0,1,.64-.12h0c.23.07.32.25.2.4l-2.18,2.64a.64.64,0,0,1-.64.12h0C99.89,39.86,99.8,39.68,99.92,39.54Z"/></g></svg>