<svg xmlns="http://www.w3.org/2000/svg" viewBox="0 0 180.38 225.85"><defs><style>.cls-1{fill:#2e2f35;}.cls-2{fill:#f9c295;}.cls-3{fill:#212121;}.cls-4{fill:#231f20;}.cls-5{fill:#2c395c;}.cls-6{fill:#7c4f4e;}.cls-7{fill:#34353d;}.cls-8{fill:#eaeded;}.cls-9{fill:#f2f4ef;}</style></defs><title>P1W1</title><g id="diesel_train_driver" data-name="diesel train driver"><path class="cls-1" d="M81.33,98.49l-5,7.39s-10.42-.49-13.6,2.33-9.33,11.72-9.33,11.72L46.23,116s7.66-14.67,14-17.29C68.41,93.72,81.33,98.49,81.33,98.49Z"/><ellipse class="cls-2" cx="46.7" cy="124.81" rx="5.23" ry="4.35" transform="translate(-85.94 137.65) rotate(-75.01)"/><path class="cls-3" d="M25.59,184.07c4.45-4.86,13.5-3.8,20.21,2.35s18.2,7.35,13.75,12.21l-9,.42Z"/><path class="cls-3" d="M110.63,194.58c.49-6.56,8.23-11.35,17.31-10.68s18.85-5.52,18.36,1l-6.81,5.93Z"/><polygon class="cls-2" points="99.96 82.72 61.81 82.72 67.07 51.51 94.7 51.51 99.96 82.72"/><ellipse class="cls-4" cx="85.09" cy="60.9" rx="1.15" ry="2.01"/><ellipse class="cls-4" cx="91.18" cy="60.9" rx="1.15" ry="2.01"/><path class="cls-5" d="M76.68,142.32s1.92,8.53-8.44,26.18-23.15,19.19-23.15,19.19l-18.93-4.8s11.25-3.21,19.21-19.06,9.14-24.62,9.14-24.62l6.62-54h39.51l11.23,47.83s5.34,9.57,7.75,16.82c3.32,10,10.8,38.19,10.66,37.8l-19.19,2.87s-1.28-8.12-9.72-27.94c-7.29-14.46-13.21-20.23-13.21-20.23Z"/><polygon class="cls-5" points="61.13 85.24 100.64 85.24 111.3 130.63 55.56 130.63 61.13 85.24"/><polyline class="cls-6" points="64.81 65.23 67.06 65.34 67.87 63.46 69.24 63.46 69.24 71.02 72.87 71.02 72.87 58.05 92.33 58.21 66.86 52.75"/><ellipse class="cls-7" cx="88.33" cy="53.87" rx="4.32" ry="17.52" transform="translate(25.96 136.41) rotate(-84.3)"/><ellipse class="cls-5" cx="82.18" cy="50.31" rx="17.52" ry="6.4"/><ellipse class="cls-5" cx="82.18" cy="42.4" rx="17.52" ry="6.4"/><rect class="cls-5" x="64.66" y="42.4" width="35.04" height="7.91"/><rect class="cls-8" x="88.56" y="42.8" width="4.76" height="0.59" rx="0.3"/><rect class="cls-8" x="88.56" y="43.86" width="4.76" height="0.59" rx="0.3"/><path class="cls-8" d="M92,42.66l-2.12-.27c-.25,0-.42-.19-.37-.35h0a.53.53,0,0,1,.56-.23l2.12.27c.25,0,.42.19.36.35h0C92.47,42.59,92.22,42.69,92,42.66Z"/><path class="cls-8" d="M91.89,45.64l-2.1-.27c-.25,0-.41-.19-.36-.35h0c0-.16.3-.26.56-.23l2.09.27c.26,0,.42.19.37.35h0A.5.5,0,0,1,91.89,45.64Z"/><path class="cls-8" d="M89.46,44.91l2.18-2.64a.64.64,0,0,1,.63-.13h0c.23.08.32.26.2.4l-2.18,2.64a.62.62,0,0,1-.63.13h0C89.43,45.23,89.34,45.06,89.46,44.91Z"/><circle class="cls-9" cx="99.61" cy="116.69" r="1.5"/><circle class="cls-9" cx="96.58" cy="99.7" r="1.5"/><ellipse class="cls-2" cx="113.77" cy="98.3" rx="5.23" ry="4.35" transform="translate(-36.55 94.82) rotate(-39.5)"/><path class="cls-1" d="M72.87,102l5.8-5.5s8.2,6.45,12.42,6,14.4-4.11,14.4-4.11l3.54,7.35s-14.76,7.5-21.47,5.93C78,111,72.87,102,72.87,102Z"/></g></svg>