<svg xmlns="http://www.w3.org/2000/svg" viewBox="0 0 180.38 225.85"><defs><style>.cls-1{fill:#2e2f35;}.cls-2{fill:#f9c295;}.cls-3{fill:#212121;}.cls-4{fill:#2c395c;}.cls-5{fill:#293551;}.cls-6{fill:#231f20;}.cls-7{fill:#7c4f4e;}.cls-8{fill:#34353d;}.cls-9{fill:#eaeded;}.cls-10{fill:#f2f4ef;}</style></defs><title>P1W2</title><g id="diesel_train_driver" data-name="diesel train driver"><path class="cls-1" d="M89.43,84.44l7.87,4.25S97.87,99.1,101,102s12.6,8.1,12.6,8.1l-3.19,7.51S95,111.46,91.78,105.38C86,97.78,89.43,84.44,89.43,84.44Z"/><ellipse class="cls-2" cx="119.14" cy="116.22" rx="4.35" ry="5.23" transform="translate(-14.54 215.36) rotate(-80.85)"/><path class="cls-3" d="M72,199.05c.64-6.55,8.5-11.15,17.56-10.27s19-5.08,18.33,1.47l-7,5.77Z"/><path class="cls-4" d="M95.12,134.73s21,13,19.61,25S77.4,173.32,77.4,173.32L65.12,157.21l12.58-6.58s-11-7.67-11.69-17c-1.68-24.1,1.86-53.55,1.86-53.55h39.51s4.75,40.47,6,47.07c.26,7.57-.1,9.07-.53,15.57-.6,9-17.61,48.09-17.61,48.09L75.8,192.35s16.21-49.77,17-51.27-.92-5.06-.92-5.06Z"/><polygon class="cls-5" points="100.52 137.94 113.03 140.5 111.13 149.29 100.52 137.94"/><polygon class="cls-5" points="81.94 172.79 75.8 192.35 95.27 190.8 104.08 169.53 81.94 172.79"/><path class="cls-3" d="M58.57,156.55c6.21-2.18,13.69,3,16.7,11.61s12.58,15.09,6.36,17.26l-8.15-3.89Z"/><path class="cls-1" d="M71.54,93.38l7.21,3.47s-1.48,5,.07,9,7.78,12.8,7.78,12.8L80.45,124S69.31,111.74,69,104.85C68.31,95.44,71.54,93.38,71.54,93.38Z"/><ellipse class="cls-2" cx="88.89" cy="126.58" rx="4.35" ry="5.23" transform="translate(-65.78 126.42) rotate(-54.86)"/><polygon class="cls-2" points="106.46 77.42 68.31 77.42 73.57 46.22 101.2 46.22 106.46 77.42"/><ellipse class="cls-6" cx="91.59" cy="55.6" rx="1.15" ry="2.01"/><ellipse class="cls-6" cx="97.68" cy="55.6" rx="1.15" ry="2.01"/><polyline class="cls-7" points="71.31 59.93 73.56 60.04 74.37 58.16 75.74 58.16 75.74 65.72 79.37 65.72 79.37 52.75 98.83 52.91 73.36 47.45"/><ellipse class="cls-8" cx="94.83" cy="48.57" rx="4.32" ry="17.52" transform="translate(37.09 138.11) rotate(-84.3)"/><ellipse class="cls-4" cx="88.68" cy="45.01" rx="17.52" ry="6.4"/><ellipse class="cls-4" cx="88.68" cy="37.1" rx="17.52" ry="6.4"/><rect class="cls-4" x="71.16" y="37.1" width="35.04" height="7.91"/><rect class="cls-9" x="95.06" y="37.51" width="4.76" height="0.59" rx="0.3"/><rect class="cls-9" x="95.06" y="38.56" width="4.76" height="0.59" rx="0.3"/><path class="cls-9" d="M98.47,37.36l-2.12-.27c-.25,0-.42-.19-.37-.35h0a.53.53,0,0,1,.56-.23l2.12.28c.25,0,.42.19.36.34h0A.5.5,0,0,1,98.47,37.36Z"/><path class="cls-9" d="M98.39,40.34l-2.1-.27c-.25,0-.41-.19-.36-.35h0c0-.16.3-.26.56-.23l2.09.28c.26,0,.42.19.37.34h0A.5.5,0,0,1,98.39,40.34Z"/><path class="cls-9" d="M96,39.61,98.14,37a.62.62,0,0,1,.63-.12h0c.23.07.32.25.2.39l-2.18,2.64a.6.6,0,0,1-.63.13h0C95.93,39.94,95.84,39.76,96,39.61Z"/><circle class="cls-10" cx="105.11" cy="111.39" r="1.5"/><circle class="cls-10" cx="103.08" cy="94.4" r="1.5"/></g></svg>