<svg xmlns="http://www.w3.org/2000/svg" viewBox="0 0 180.38 225.85"><defs><style>.cls-1{fill:#2e2f35;}.cls-2{fill:#f9c295;}.cls-3{fill:#212121;}.cls-4{fill:#2c395c;}.cls-5{fill:#293551;}.cls-6{fill:#231f20;}.cls-7{fill:#7c4f4e;}.cls-8{fill:#34353d;}.cls-9{fill:#eaeded;}.cls-10{fill:#f2f4ef;}</style></defs><title>P1W3</title><g id="diesel_train_driver" data-name="diesel train driver"><path class="cls-1" d="M97.92,100.25l8.21-3.55s8.53,6,12.72,5.32S133,97.13,133,97.13l3.93,7.15s-14.33,8.29-21.11,7.09C106.28,111.2,97.92,100.25,97.92,100.25Z"/><ellipse class="cls-2" cx="141.27" cy="96.59" rx="5.23" ry="4.35" transform="translate(-28.09 121.15) rotate(-42.61)"/><path class="cls-3" d="M44.65,178c5.33-3.87,14-1,19.33,6.33S80.36,195.18,75,199.05l-8.93-1.38Z"/><path class="cls-3" d="M121.18,194.1c-1.45-6.42,4.57-13.26,13.45-15.26s16.42-10.77,17.87-4.35l-4.79,7.66Z"/><path class="cls-4" d="M89.34,138.77s24,3.76,31.35,13.46,16.58,26.25,16.58,26.25l-14.88,8.4s-12-11.32-20.84-18.31c-8.12-6.42-32.45-14.5-34.59-29-2-13.28,2.63-54,2.63-54h39.5s4,48.06,3.68,59.1a46.53,46.53,0,0,1-16,25.33c-9.28,7.32-27.53,20.51-27.68,20.11L52.61,176.46s17-15,19.84-18.73,9.65-19,9.65-19Z"/><polygon class="cls-5" points="100.45 139.7 112.61 136.37 112.28 145.82 100.45 139.7"/><path class="cls-5" d="M75.53,152.52s-2.84,5.17-4.23,6.54c-.57.76-18.69,17.4-18.69,17.4L69.1,190.18s8.36-5.68,18.29-13c10.17-7.45,12.48-9.87,12.48-9.87Z"/><ellipse class="cls-2" cx="48.38" cy="122.6" rx="5.23" ry="4.35" transform="matrix(0.13, -0.99, 0.99, 0.13, -79.54, 154.36)"/><path class="cls-1" d="M70.76,91.12l3.53,7.67s-9.37,2.09-12.16,5.29-7.75,12.82-7.75,12.82l-7.6-3s5.71-15.54,11.69-19C65.91,89,70.76,91.12,70.76,91.12Z"/><polygon class="cls-2" points="108.4 83.1 70.24 83.1 75.5 51.89 103.13 51.89 108.4 83.1"/><ellipse class="cls-6" cx="93.52" cy="61.27" rx="1.15" ry="2.01"/><ellipse class="cls-6" cx="99.61" cy="61.27" rx="1.15" ry="2.01"/><polyline class="cls-7" points="73.24 65.61 75.49 65.71 76.3 63.84 77.67 63.84 77.67 71.4 81.31 71.4 81.31 58.43 100.77 58.59 75.3 53.12"/><ellipse class="cls-8" cx="96.76" cy="54.24" rx="4.32" ry="17.52" transform="translate(33.18 145.14) rotate(-84.3)"/><ellipse class="cls-4" cx="90.62" cy="50.68" rx="17.52" ry="6.4"/><ellipse class="cls-4" cx="90.62" cy="42.77" rx="17.52" ry="6.4"/><rect class="cls-4" x="73.09" y="42.77" width="35.04" height="7.91"/><rect class="cls-9" x="96.99" y="43.18" width="4.76" height="0.59" rx="0.3"/><rect class="cls-9" x="96.99" y="44.23" width="4.76" height="0.59" rx="0.3"/><path class="cls-9" d="M100.4,43l-2.12-.28c-.25,0-.42-.19-.36-.35h0c0-.16.3-.26.55-.23l2.12.28c.25,0,.42.19.37.35h0A.53.53,0,0,1,100.4,43Z"/><path class="cls-9" d="M100.33,46l-2.1-.28c-.26,0-.42-.19-.37-.35h0a.51.51,0,0,1,.56-.22l2.1.27c.25,0,.41.19.36.35h0C100.83,46,100.58,46.05,100.33,46Z"/><path class="cls-9" d="M97.89,45.29l2.18-2.65a.62.62,0,0,1,.63-.12h0c.23.07.32.25.21.4l-2.18,2.64a.64.64,0,0,1-.64.12h0C97.86,45.61,97.77,45.43,97.89,45.29Z"/><circle class="cls-10" cx="107.04" cy="117.09" r="1.5"/><circle class="cls-10" cx="105.01" cy="100.1" r="1.5"/></g></svg>