<svg xmlns="http://www.w3.org/2000/svg" viewBox="0 0 180.38 225.85"><defs><style>.cls-1{fill:#2e2f35;}.cls-2{fill:#f9c295;}.cls-3{fill:#212121;}.cls-4{fill:#2c395c;}.cls-5{fill:#293551;}.cls-6{fill:#231f20;}.cls-7{fill:#7c4f4e;}.cls-8{fill:#34353d;}.cls-9{fill:#eaeded;}.cls-10{fill:#f2f4ef;}</style></defs><title>P1W4</title><g id="diesel_train_driver" data-name="diesel train driver"><path class="cls-1" d="M84.33,83.21l7.47,4.91s-.33,10.42,2.54,13.56,11.85,9.16,11.85,9.16l-3.83,7.2s-14.78-7.43-17.5-13.76C79.76,96.2,84.33,83.21,84.33,83.21Z"/><ellipse class="cls-2" cx="111.17" cy="117.44" rx="4.35" ry="5.23" transform="translate(-29.85 196.59) rotate(-75.87)"/><path class="cls-3" d="M52.18,156.79c6-2.74,13.91,1.76,17.7,10s13.91,13.87,7.92,16.6l-8.48-3.12Z"/><path class="cls-3" d="M75.8,199.05c.64-6.55,8.5-11.15,17.56-10.27s19-5.08,18.33,1.47l-7,5.77Z"/><path class="cls-4" d="M87.6,135.49l5.67,27.92,4.58,26.17L77.94,194s-6.5-27.86-10.46-36.13c-4.25-8.9-5.35-21.43-5.63-24.29-2.34-24,1.86-53.55,1.86-53.55h39.51s7.72,43.34,9,47.07c2.06,7.09,2.69,8.41,2.68,14.77,0,11.36-44.95,27.56-44.95,27.56L57,156s30.88-13.41,31.63-14.91-.92-5.06-.92-5.06Z"/><path class="cls-5" d="M93,159.68s13.69-7.05,17.51-10.77L88.6,141.08Z"/><polygon class="cls-5" points="65.31 152.32 71.36 168.96 69.98 169.47 56.97 155.99 65.31 152.32"/><path class="cls-1" d="M65.42,94.19l8.46,4.38a23.22,23.22,0,0,0,4.2,4.77c3.09,2.84,12.6,8.1,12.6,8.1L87.48,119s-15.36-6.14-18.62-12.22C63.09,99.13,65.42,94.19,65.42,94.19Z"/><ellipse class="cls-2" cx="96.21" cy="117.6" rx="4.35" ry="5.23" transform="translate(-35.26 193.77) rotate(-80.8)"/><polygon class="cls-2" points="102.58 77.5 64.42 77.5 69.68 46.29 97.31 46.29 102.58 77.5"/><ellipse class="cls-6" cx="87.7" cy="55.67" rx="1.15" ry="2.01"/><ellipse class="cls-6" cx="93.79" cy="55.67" rx="1.15" ry="2.01"/><polyline class="cls-7" points="67.42 60.01 69.67 60.11 70.48 58.23 71.85 58.23 71.85 65.8 75.48 65.8 75.48 52.83 94.94 52.98 69.47 47.52"/><ellipse class="cls-8" cx="90.94" cy="48.64" rx="4.32" ry="17.52" transform="translate(33.51 134.3) rotate(-84.3)"/><ellipse class="cls-4" cx="84.8" cy="45.08" rx="17.52" ry="6.4"/><ellipse class="cls-4" cx="84.8" cy="37.17" rx="17.52" ry="6.4"/><rect class="cls-4" x="67.27" y="37.17" width="35.04" height="7.91"/><rect class="cls-9" x="91.17" y="37.58" width="4.76" height="0.59" rx="0.3"/><rect class="cls-9" x="91.17" y="38.63" width="4.76" height="0.59" rx="0.3"/><path class="cls-9" d="M94.58,37.44l-2.12-.28c-.25,0-.42-.19-.37-.35h0a.53.53,0,0,1,.56-.23l2.12.28c.25,0,.42.19.37.35h0A.53.53,0,0,1,94.58,37.44Z"/><path class="cls-9" d="M94.5,40.42l-2.1-.28c-.25,0-.41-.19-.36-.35h0a.51.51,0,0,1,.56-.22l2.09.27c.26,0,.42.19.37.35h0C95,40.35,94.76,40.45,94.5,40.42Z"/><path class="cls-9" d="M92.07,39.69,94.25,37a.62.62,0,0,1,.63-.12h0c.23.07.32.25.2.4L92.9,40a.62.62,0,0,1-.63.12h0C92,40,92,39.83,92.07,39.69Z"/><circle class="cls-10" cx="102.22" cy="111.49" r="1.5"/><circle class="cls-10" cx="99.19" cy="94.5" r="1.5"/></g></svg>