<svg id="Layer_1" data-name="Layer 1" xmlns="http://www.w3.org/2000/svg" viewBox="0 0 4662.57 1142.83"><defs><style>.cls-1{fill:#b04333;}</style></defs><title>Artboard 1 copy 2</title><path class="cls-1" d="M4620.34,92.14c-3.12-.88-19.46-1-21.79-2.4-2.6-1.54-1.8-3.83-1.33-5.84s-.14-4.53-3.86-5.27a12.68,12.68,0,0,1-4.08,6.33c2.21.14,3,1.92,1.11,2.52-5.15-1.24-8.13-4.42-6.73-7.22.53-1.05,1.6-2.06,1.58-3.15s-1-2-2-2.86l-9.85-9.09c-2.77.56-4.81,2-5.07,3.46l-3.09,14a1.58,1.58,0,0,1-.55,1c-1.46,1.11-4.88.2-6.64-.81l-1.83-13.77c-.3-2.2-.72-4.56-3.55-6.23-1.72-.56-4.4.18-4.42,1.2,1,4.83-.12,9.77-3.3,14.36-1.09,1.57-1.78,3.87,1.35,4.4-10.75-1.48-21.34-3.27-31.7-5.34-1.66-3.55-5.32-6.86-10.43-9.44,1.15,2.15.11,4.56-2.72,6.27,3.3.63,5.74,2.27,6,4l-12.16-2.72c-1.2-.27-2.53-.6-3-1.23s.95-1.47,2.06-1.11l-4.2-2.85c2.23-.41,1.58-2.48-.8-2.52,2.93-.94.64-3.21-1.79-4.46l4.35-2.58a31.64,31.64,0,0,1-13.25,1.54l3,3c-5,2.25-8.45,5.38-9.57,8.71-2.93-.37-6.21.92-6.21,2.44h-7.75l.14-11.85c-2.47-1.16-5.77-2.4-8.89-1.76a9.34,9.34,0,0,0-3.53,1.66l-8.28,5.67c-1.17.8-1.65,2.4.34,2.38a26.16,26.16,0,0,0-7.08,1.66c2.22.53,3.87,1.62,4.28,2.84-7.35,1-14.81,1.72-22.32,2.25l-6.89-9.51c-1.19-1.65-1.36-4.22,2.1-4.41l-7.54-3.32c-.51,1.17-1,2.35-1.51,3.52l-5.55.09c2.57,1.29,2.62,3.63.1,5l-3.35,2.47a13.72,13.72,0,0,1-9.14-1.64,10.73,10.73,0,0,1-3.9-4.81l-4.44-8.84a5.73,5.73,0,0,0-1.52-2.09c-2.1-1.68-7.25-2.13-10.35-.9l-2.67,12c-5.58-1.09-11.76-2.45-13.91-5.27-.8-1-.94-2.19-1.54-3.27-1-1.74-3.17-3.29-6.11-4.32a10.13,10.13,0,0,0-5.61-.48c-2.71.76-2,2.79-3,4.27-1.59,2.34-6.88,2.9-11.82,3.71V59.3c-4.83.43-11.55-2.2-14.08-5.19s-3.84-6.45-6.45-9.41l1.9-2.56-5.18-.42-1-1.6c-4.24-.72-7.79,1.8-10,4.69a15.29,15.29,0,0,0-3.51,0l-1.23,1.45-6.69.37,2.45,2.33c-3.36,2.67-5.06,5.8-8.33,8.5a10.93,10.93,0,0,1-1.93,1.25c-3.94-1-8.31-1.53-9.58-4.21-.78-1.64-.23-3.89-2.33-4.73a5.69,5.69,0,0,0-4.35.54,9.44,9.44,0,0,0-4.73,4.77,30.08,30.08,0,0,1-1.2,3.62c-1.66,3.11-6.45,4.62-10.78,5.82l-2.07-13.24c-2.4-1.36-6.39-.86-8,1a6.63,6.63,0,0,0-1.18,2.3q-1.71,4.89-3.44,9.78a12.16,12.16,0,0,1-3,5.32,8.08,8.08,0,0,1-7.09,1.81l-2.59-2.73a3.26,3.26,0,0,1,.08-5.47l-4.3-.1-1.17-3.89L4190.51,63c2.68.21,2.55,3.05,1.63,4.87l-5.34,10.51c-5.82-.58-11.6-1.41-17.3-2.48a4.85,4.85,0,0,1,3.32-3.14,15.28,15.28,0,0,0-5.49-1.83c1.54,0,1.17-1.75.26-2.64L4161.17,62a6.48,6.48,0,0,0-2.73-1.84c-2.42-.71-5,.66-6.89,1.94q0,6.56.1,13.11h-6c0-1.69-2.54-3.11-4.81-2.7a16.28,16.28,0,0,0-7.42-9.63l2.31-3.35a17.71,17.71,0,0,1-10.28-1.71l3.37,2.86c-1.88,1.38-3.66,3.89-1.39,4.93-1.83,0-2.34,2.33-.61,2.79l-3.26,3.14c.86-.39,1.93.54,1.6,1.23s-1.36,1.07-2.3,1.37l-9.42,3c.22-2,2.11-3.76,4.67-4.46a6.23,6.23,0,0,1-2.1-6.94,21.44,21.44,0,0,0-8.09,10.44q-12,3.44-24.57,5.91c2.43-.59,1.89-3.13,1.05-4.87a27.1,27.1,0,0,1-2.56-15.87c0-1.14-2.09-2-3.43-1.34-2.19,1.85-2.52,4.47-2.74,6.89q-.72,7.62-1.43,15.24c-1.36,1.1-4,2.12-5.14.88a2,2,0,0,1-.43-1.11q-1.2-7.77-2.39-15.52c-.2-1.66-1.78-3.2-3.93-3.82l-7.64,10.05a5.87,5.87,0,0,0-1.54,3.16c0,1.21.81,2.32,1.22,3.49,1.08,3.09-1.22,6.61-5.22,8-1.46-.66-.85-2.63.86-2.79a15.47,15.47,0,0,1-3.16-7c-2.89.83-3.36,3.61-3,5.83s1,4.76-1,6.46a4.36,4.36,0,0,1-1.61.63c-2.16-.41-4.09-.92-4.63-1.75-1.43-2.18-1-5.43-.73-8.28s-.08-6.42-2.12-7.48a29.68,29.68,0,0,1-2.24,9c1.21.2,1.64,2.73.61,3.58-2.83-1.76-4.47-6.28-3.7-10.23a22.89,22.89,0,0,0,.87-4.48,10.8,10.8,0,0,0-1.1-4q-2.7-6.45-5.41-12.9a6.06,6.06,0,0,0-2.78,4.91q-.86,9.95-1.7,19.9A4,4,0,0,1,4018,80c-.8,1.58-2.68.28-3.65-1.14q-.49-9.77-1-19.53c-.16-3.12-.39-6.47-1.94-8.84-.95-.79-2.42.25-2.43,1.71a60.69,60.69,0,0,1-1.81,20.36c-.6,2.22-1,5.48.74,6.24a141.75,141.75,0,0,1-17.41-7.58,31.3,31.3,0,0,0-5.73-13.38,12.44,12.44,0,0,1-1.49,8.89,6.91,6.91,0,0,1,3.31,5.73l-6.68-3.86a3,3,0,0,1-1.62-1.75c-.24-.89.52-2.08,1.13-1.57l-2.31-4c1.22-.58.86-3.52-.44-3.58,1.61-1.33.35-4.55-1-6.32q1.18-1.83,2.39-3.66a7.89,7.89,0,0,1-7.28,2.19l1.63,4.29a23.92,23.92,0,0,0-5.26,12.36c-1.61-.53-3.41,1.29-3.41,3.45h-4.25q0-8.4.07-16.81c-1.35-1.64-3.16-3.4-4.88-2.49a5.74,5.74,0,0,0-1.93,2.36l-4.55,8c-.65,1.15-.91,3.41.18,3.39a8.34,8.34,0,0,0-3.89,2.34,5.6,5.6,0,0,1,2.35,4A87,87,0,0,1,3934.6,74l-3.78-13.49c-.65-2.33-.74-6,1.16-6.24l-4.15-4.71c-.27,1.66-.55,3.33-.82,5l-3.05.13a6.39,6.39,0,0,1,.06,7l-1.85,3.51c-1.77.87-3.84-.39-5-2.33a21.28,21.28,0,0,1-2.14-6.82q-1.22-6.27-2.44-12.54a12.45,12.45,0,0,0-.83-3c-1.16-2.38-4-3-5.69-1.27q-.72,8.49-1.46,17c-3.07-1.54-6.46-3.48-7.64-7.47-.44-1.48-.52-3.11-.85-4.64a11.58,11.58,0,0,0-3.35-6.12c-.91-.81-2.12-1.38-3.08-.69-1.49,1.08-1.1,4-1.65,6.06-1.11,4.23-5.53,4.35-8.64,6.38v-3.5c-2.76.53-6.61-2.73-8.06-6.45s-2.2-8-3.69-11.68c.36-1.06.72-2.13,1.09-3.19l-3-.52-.55-2c-1.57-.57-3,.54-4.11,2.36a4.25,4.25,0,0,0-.6.12l-.68,2.06-3.67.53,1.35,3.3c-1.85,3.79-2.79,8.22-4.58,12.06a12.34,12.34,0,0,1-2.83,3.75c-2.52-2.08-6.21-2.12-7.13-6.29-.44-2-.13-4.83-1.33-5.87-.78-.67-1.76-.12-2.49.67a11.84,11.84,0,0,0-2.71,5.92c-.27,1.48-.33,3.06-.69,4.5-.95,3.86-3.69,5.74-6.17,7.23q-.58-8.23-1.18-16.45c-1.38-1.69-3.66-1.07-4.6,1.24a13.43,13.43,0,0,0-.67,2.86q-1,6.08-2,12.15a23.51,23.51,0,0,1-1.73,6.6c-1,1.88-2.62,3.1-4.06,2.25l-1.49-3.39a7.22,7.22,0,0,1,0-6.79l-2.47-.13-.66-4.83-3.35,4.56c1.53.26,1.46,3.79.93,6.05L3805.3,70a61.45,61.45,0,0,1-9.9-3.08,5.7,5.7,0,0,1,1.89-3.91,6.49,6.49,0,0,0-3.14-2.27c.88,0,.67-2.17.15-3.28-1.22-2.59-2.45-5.18-3.67-7.78a5.54,5.54,0,0,0-1.57-2.29c-1.39-.88-2.85.83-3.94,2.42l.06,16.28h-3.44c0-2.09-1.46-3.86-2.76-3.34a25.5,25.5,0,0,0-4.25-12l1.32-4.15a5.73,5.73,0,0,1-5.88-2.12c.65,1.18,1.29,2.36,1.93,3.54-1.08,1.72-2.09,4.84-.79,6.13-1.06.05-1.35,2.9-.36,3.46l-1.86,3.91c.49-.49,1.1.67.91,1.53a2.78,2.78,0,0,1-1.31,1.69l-5.4,3.73c.13-2.43,1.21-4.68,2.68-5.54a14.07,14.07,0,0,1-1.21-8.61,33.68,33.68,0,0,0-4.63,13,104.89,104.89,0,0,1-14.07,7.34c1.39-.74,1.08-3.89.6-6a69.63,69.63,0,0,1-1.46-19.71c0-1.42-1.2-2.42-2-1.66-1.26,2.3-1.45,5.54-1.58,8.56l-.81,18.91c-.78,1.38-2.3,2.64-2.95,1.11a4.45,4.45,0,0,1-.24-1.39q-.69-9.63-1.37-19.27a6.15,6.15,0,0,0-2.26-4.75q-2.18,6.24-4.37,12.49a12.12,12.12,0,0,0-.88,3.92,24.39,24.39,0,0,0,.7,4.34c.62,3.83-.7,8.2-3,9.91-.84-.82-.49-3.27.49-3.46a33.54,33.54,0,0,1-1.81-8.7c-1.65,1-1.92,4.48-1.71,7.24s.56,5.91-.59,8a2.21,2.21,0,0,1-.86.74v-.19c-3.37.42-8.06-2.13-9.82-5s-2.69-6.27-4.51-9.14c.44-.83.88-1.66,1.33-2.49l-3.62-.4-.67-1.56c-3.62-.85-6.52,3-7.9,6.45a47.44,47.44,0,0,0-3.31,14.61c-2,1.76-4.73-.77-7-2.07-3.07-1.72-7.73-1.68-8.87-5-.54-1.59-.16-3.77-1.62-4.59a3,3,0,0,0-3,.53,8.4,8.4,0,0,0-3.3,4.62c-.33,1.17-.4,2.4-.84,3.52-1.16,3-4.5,4.49-7.52,5.65q-.72-6.42-1.45-12.85a4,4,0,0,0-5.59,1,7.58,7.58,0,0,0-.83,2.23l-2.4,9.5a13.48,13.48,0,0,1-2.11,5.16,4.57,4.57,0,0,1-4.94,1.76l-1.82-2.66a3.92,3.92,0,0,1,.06-5.3l-3-.1c-.28-1.26-.55-2.52-.82-3.78l-4.08,3.57c1.87.2,1.78,3,1.14,4.72q-1.87,5.11-3.73,10.21a105.79,105.79,0,0,1-12.08-2.41,4.26,4.26,0,0,1,2.32-3,8.85,8.85,0,0,0-3.83-1.77c1.07,0,.82-1.7.18-2.57l-4.48-6.08a4.9,4.9,0,0,0-1.91-1.79c-1.69-.68-3.47.65-4.81,1.89q0,6.36.08,12.73H3603a2.83,2.83,0,0,0-3.36-2.62,16.35,16.35,0,0,0-5.18-9.36c.53-1.08,1.07-2.16,1.61-3.24a9.4,9.4,0,0,1-7.17-1.66l2.35,2.77c-1.32,1.34-2.55,3.78-1,4.79-1.28,0-1.64,2.26-.43,2.71-.76,1-1.52,2-2.27,3,.6-.38,1.34.52,1.11,1.19a2.64,2.64,0,0,1-1.6,1.33l-6.58,2.92a5.22,5.22,0,0,1,3.26-4.34,7.6,7.6,0,0,1-1.47-6.73,21.43,21.43,0,0,0-5.64,10.13,164.3,164.3,0,0,1-17.15,5.74c1.69-.57,1.32-3,.73-4.73a35.53,35.53,0,0,1-1.78-15.41,1.65,1.65,0,0,0-2.4-1.3c-1.53,1.8-1.76,4.34-1.91,6.7q-.51,7.38-1,14.78c-.95,1.08-2.8,2.06-3.59.87a2.54,2.54,0,0,1-.3-1.09q-.83-7.53-1.67-15.06a4.49,4.49,0,0,0-2.74-3.71l-5.33,9.75a6.75,6.75,0,0,0-1.08,3.08,13.63,13.63,0,0,0,.85,3.38,6.51,6.51,0,0,1-.08,3.42,4.44,4.44,0,0,1-2-.86c-1.8-1.89-1.24-4.71-.92-7.18s-.09-5.57-2.65-6.49a19.68,19.68,0,0,1-2.81,7.79,1.72,1.72,0,0,1,.77,3.1A7.75,7.75,0,0,1,3527,95c.36-1.3,1.1-2.54,1.08-3.88a7.29,7.29,0,0,0-1.37-3.52l-6.77-11.19a5.27,5.27,0,0,0-3.49,4.26q-1.07,8.63-2.12,17.27a2.69,2.69,0,0,1-.38,1.24c-1,1.37-3.36.24-4.56-1q-.63-8.48-1.27-17c-.2-2.7-.49-5.61-2.43-7.67-1.19-.68-3,.22-3,1.48a37.2,37.2,0,0,1-2.27,17.67c-.75,1.94-1.23,4.76.92,5.42a222.25,222.25,0,0,1-21.78-6.58A24,24,0,0,0,3472.32,80a8.06,8.06,0,0,1-1.86,7.72,6.07,6.07,0,0,1,4.14,5l-8.36-3.35c-.83-.33-1.74-.74-2-1.52s.65-1.81,1.41-1.37l-2.89-3.5c1.54-.5,1.09-3-.54-3.11,2-1.15.44-3.94-1.24-5.48l3-3.18a13,13,0,0,1-9.11,1.91l2.05,3.72a18.27,18.27,0,0,0-6.59,10.72c-2-.46-4.26,1.13-4.26,3h-5.33q0-7.29.1-14.59c-1.7-1.42-4-3-6.11-2.16a6,6,0,0,0-2.43,2l-5.69,7c-.81,1-1.14,3,.23,2.94a11.84,11.84,0,0,0-4.87,2,4.91,4.91,0,0,1,2.94,3.5A146.61,146.61,0,0,1,3409.53,94l-4.74-11.7c-.82-2-.93-5.18,1.45-5.42l-5.19-4.09c-.34,1.45-.69,2.89-1,4.34l-3.81.11a4.18,4.18,0,0,1,.07,6.08l-2.3,3a6.18,6.18,0,0,1-6.29-2,14.7,14.7,0,0,1-2.68-5.91Q3383.48,73,3382,67.55a8.29,8.29,0,0,0-1-2.56,5.41,5.41,0,0,0-7.11-1.11q-.91,7.37-1.84,14.74c-3.83-1.34-8.08-3-9.56-6.48-.55-1.29-.64-2.7-1.06-4a9.73,9.73,0,0,0-4.2-5.31,4.15,4.15,0,0,0-3.85-.6c-1.87.94-1.38,3.44-2.07,5.26-1.44,3.82-7.37,3.78-11.27,5.75-2.93,1.48-6.44,4.39-8.94,2.36a50.3,50.3,0,0,0-4.2-16.74c-1.76-4-5.45-8.37-10.05-7.4l-.85,1.79-4.59.46,1.68,2.86c-2.31,3.29-3.48,7.14-5.72,10.47l-.16.21a10.43,10.43,0,0,1-3.29-3.17c-1.77-2.9-2.69-6.26-4.51-9.13.44-.83.88-1.66,1.33-2.49L3297,52l-.66-1.55c-3.63-.85-6.53,3-7.91,6.45a47.31,47.31,0,0,0-3.31,14.6c-2,1.77-4.73-.77-7-2.06-3.06-1.72-7.73-1.68-8.87-5-.54-1.59-.15-3.77-1.62-4.59a3,3,0,0,0-3,.52,8.46,8.46,0,0,0-3.3,4.63c-.33,1.16-.4,2.39-.83,3.52-1.17,3-4.51,4.49-7.53,5.65l-1.44-12.86a4,4,0,0,0-5.6,1,7.75,7.75,0,0,0-.83,2.24l-2.4,9.49a13.42,13.42,0,0,1-2.11,5.16c-1.16,1.47-3.19,2.43-4.94,1.77l-1.82-2.66a3.93,3.93,0,0,1,.06-5.31l-3-.09c-.27-1.26-.55-2.52-.82-3.78l-4.08,3.56c1.87.21,1.78,3,1.14,4.73q-1.87,5.1-3.73,10.21a105.19,105.19,0,0,1-12.07-2.41,4.19,4.19,0,0,1,2.31-3,8.82,8.82,0,0,0-3.83-1.78c1.07,0,.82-1.69.18-2.56l-4.48-6.08a4.82,4.82,0,0,0-1.91-1.79c-1.69-.69-3.47.65-4.81,1.89q0,6.36.08,12.72h-4.19a2.83,2.83,0,0,0-3.36-2.61,16.35,16.35,0,0,0-5.18-9.36l1.61-3.24a9.44,9.44,0,0,1-7.17-1.66c.78.92,1.57,1.84,2.35,2.77-1.32,1.34-2.55,3.77-1,4.78-1.28.05-1.63,2.27-.43,2.71L3179.2,81c.6-.39,1.34.52,1.11,1.19a2.63,2.63,0,0,1-1.6,1.32l-6.58,2.92a5.2,5.2,0,0,1,3.26-4.33,7.6,7.6,0,0,1-1.46-6.73,21.36,21.36,0,0,0-5.65,10.13,165.87,165.87,0,0,1-17.15,5.74c1.7-.58,1.32-3,.73-4.73a35.53,35.53,0,0,1-1.78-15.41,1.65,1.65,0,0,0-2.4-1.3c-1.53,1.8-1.75,4.34-1.91,6.69q-.49,7.4-1,14.79c-.95,1.07-2.8,2.06-3.59.86a2.35,2.35,0,0,1-.29-1.08L3139.21,76a4.52,4.52,0,0,0-2.74-3.71l-5.33,9.76a6.83,6.83,0,0,0-1.08,3.07,14,14,0,0,0,.85,3.39,6.47,6.47,0,0,1-.08,3.41,4.4,4.4,0,0,1-2-.85c-1.79-1.89-1.24-4.71-.92-7.18s-.09-5.58-2.65-6.5a19.72,19.72,0,0,1-2.81,7.8,1.72,1.72,0,0,1,.77,3.1,7.75,7.75,0,0,1-4.63-8.88c.36-1.3,1.1-2.54,1.08-3.88a7.19,7.19,0,0,0-1.37-3.52l-6.77-11.19a5.28,5.28,0,0,0-3.49,4.25q-1,8.64-2.12,17.27a2.48,2.48,0,0,1-.38,1.25c-1,1.37-3.36.24-4.56-1l-1.26-16.95c-.21-2.71-.49-5.61-2.44-7.68-1.18-.67-3,.23-3,1.49A37,37,0,0,1,3092,77.13c-.75,1.93-1.22,4.76.93,5.42A225.22,225.22,0,0,1,3071.13,76,24,24,0,0,0,3064,64.36a8,8,0,0,1-1.86,7.71,6.09,6.09,0,0,1,4.14,5l-8.36-3.34c-.83-.34-1.74-.75-2-1.52s.65-1.81,1.41-1.37l-2.88-3.5c1.53-.51,1.08-3.06-.55-3.11,2-1.15.44-4-1.23-5.48l3-3.18a13,13,0,0,1-9.12,1.9c.69,1.24,1.37,2.48,2.05,3.72a18.25,18.25,0,0,0-6.58,10.73c-2-.46-4.27,1.12-4.27,3h-5.32l.09-14.59c-1.7-1.42-4-2.95-6.11-2.17a6.13,6.13,0,0,0-2.43,2.05l-5.69,7c-.81,1-1.13,2.95.23,2.93a12,12,0,0,0-4.87,2,4.91,4.91,0,0,1,2.94,3.5,149.27,149.27,0,0,1-15.34,2.76q-2.37-5.85-4.73-11.7c-.82-2-.94-5.19,1.44-5.42l-5.19-4.09c-.34,1.44-.69,2.89-1,4.33l-3.82.11a4.18,4.18,0,0,1,.07,6.09l-2.3,3a6.18,6.18,0,0,1-6.29-2,14.68,14.68,0,0,1-2.68-5.92q-1.52-5.43-3.05-10.88a8.41,8.41,0,0,0-1-2.56,5.41,5.41,0,0,0-7.12-1.11q-.91,7.36-1.84,14.73c-3.83-1.33-8.08-3-9.56-6.47-.55-1.29-.64-2.71-1.06-4a9.74,9.74,0,0,0-4.2-5.3,4.09,4.09,0,0,0-3.85-.6c-1.87.93-1.38,3.43-2.07,5.26-1.44,3.81-7.37,3.77-11.27,5.74-2.93,1.48-6.44,4.39-8.94,2.37a50,50,0,0,0-4.2-16.74c-1.76-4-5.45-8.37-10-7.4l-.85,1.78-4.59.47,1.68,2.85c-2.31,3.29-3.48,7.15-5.72,10.47-1.57,2.33-5,4.46-8.32,5.37l.11-.2-3.62-.38-.67-1.5c-3.62-.81-6.52,2.88-7.9,6.19a43.72,43.72,0,0,0-3.31,14c-2,1.69-4.73-.74-7-2-3.07-1.65-7.73-1.61-8.87-4.8-.54-1.52-.15-3.61-1.62-4.4a3.12,3.12,0,0,0-3,.51,8.07,8.07,0,0,0-3.3,4.43c-.33,1.11-.4,2.29-.84,3.37-1.16,2.89-4.5,4.3-7.52,5.41q-.72-6.15-1.45-12.31a4.08,4.08,0,0,0-5.59.92,7.21,7.21,0,0,0-.83,2.15l-2.4,9.09a12.63,12.63,0,0,1-2.11,5,4.68,4.68,0,0,1-4.94,1.69l-1.82-2.55a3.64,3.64,0,0,1,.06-5.08l-3-.09c-.28-1.21-.55-2.42-.82-3.63L2816,75.94c1.87.2,1.78,2.84,1.14,4.53l-3.73,9.78a109.34,109.34,0,0,1-12.07-2.31,4,4,0,0,1,2.31-2.92,9.09,9.09,0,0,0-3.83-1.7c1.07,0,.82-1.63.18-2.46L2795.5,75a4.72,4.72,0,0,0-1.91-1.72c-1.69-.66-3.47.62-4.81,1.81q0,6.09.08,12.19h-4.19a2.8,2.8,0,0,0-3.36-2.5,15.48,15.48,0,0,0-5.18-9l1.61-3.11a9.66,9.66,0,0,1-7.17-1.59l2.35,2.66c-1.32,1.28-2.55,3.62-1,4.58a1.39,1.39,0,0,0-.43,2.6l-2.27,2.92c.6-.36,1.34.5,1.11,1.15s-1,1-1.6,1.27l-6.58,2.79a5,5,0,0,1,3.26-4.15,7,7,0,0,1-1.46-6.45,20.25,20.25,0,0,0-5.65,9.71,166.91,166.91,0,0,1-17.15,5.49c1.69-.54,1.32-2.91.73-4.52a32.73,32.73,0,0,1-1.78-14.77,1.65,1.65,0,0,0-2.4-1.24c-1.53,1.72-1.76,4.15-1.91,6.41q-.51,7.08-1,14.17c-1,1-2.8,2-3.59.82a2.32,2.32,0,0,1-.3-1q-.82-7.22-1.67-14.43a4.34,4.34,0,0,0-2.74-3.55q-2.67,4.67-5.33,9.35a6.23,6.23,0,0,0-1.08,2.94,12.92,12.92,0,0,0,.85,3.24,6,6,0,0,1-.08,3.27,4.56,4.56,0,0,1-2-.81c-1.79-1.82-1.24-4.52-.92-6.89s-.09-5.34-2.65-6.22a18.36,18.36,0,0,1-2.81,7.47,1.63,1.63,0,0,1,.77,3c-3.55-1.46-5.59-5.21-4.63-8.5.36-1.25,1.1-2.44,1.08-3.72a6.85,6.85,0,0,0-1.37-3.38l-6.77-10.72a5.11,5.11,0,0,0-3.49,4.08L2696,85.21a2.53,2.53,0,0,1-.38,1.19c-1,1.31-3.36.23-4.56-1l-1.27-16.24c-.2-2.59-.49-5.38-2.43-7.35-1.19-.65-3,.21-3,1.42A34.27,34.27,0,0,1,2682,80.21c-.75,1.85-1.23,4.56.93,5.19-7.39-1.75-14.67-3.85-21.79-6.3A22.85,22.85,0,0,0,2654,68a7.5,7.5,0,0,1-1.86,7.4,5.89,5.89,0,0,1,4.14,4.76l-8.36-3.21c-.83-.32-1.74-.71-2-1.45s.65-1.74,1.41-1.31l-2.89-3.36c1.54-.48,1.09-2.93-.54-3,2-1.1.44-3.78-1.23-5.25l3-3a13.42,13.42,0,0,1-9.11,1.83l2,3.56A17.39,17.39,0,0,0,2632,75.19c-2-.44-4.27,1.08-4.27,2.87h-5.33q.06-7,.1-14c-1.7-1.36-4-2.83-6.11-2.07a5.94,5.94,0,0,0-2.43,2q-2.85,3.33-5.69,6.68c-.81.94-1.14,2.83.23,2.81a12.13,12.13,0,0,0-4.87,2,4.75,4.75,0,0,1,2.94,3.35,154.56,154.56,0,0,1-15.34,2.65l-4.74-11.21c-.81-2-.93-5,1.45-5.2l-5.19-3.91c-.34,1.38-.69,2.76-1,4.15l-3.82.1a3.89,3.89,0,0,1,.07,5.83l-2.3,2.92a6.32,6.32,0,0,1-6.29-1.94,13.8,13.8,0,0,1-2.68-5.67q-1.51-5.21-3-10.42a7.75,7.75,0,0,0-1.05-2.46c-1.44-2-5-2.51-7.11-1.06q-.91,7.05-1.84,14.12c-3.83-1.28-8.08-2.89-9.56-6.21-.55-1.24-.64-2.59-1.06-3.86a9.41,9.41,0,0,0-4.2-5.09,4.28,4.28,0,0,0-3.85-.57c-1.87.9-1.38,3.29-2.07,5-1.44,3.65-7.37,3.61-11.27,5.5-2.93,1.42-6.44,4.21-8.94,2.27a46.59,46.59,0,0,0-4.2-16c-1.76-3.79-5.45-8-10.05-7.09l-.85,1.71-4.59.45,1.68,2.73c-2.31,3.15-3.48,6.84-5.72,10-1.7,2.41-5.51,4.6-9.12,5.33l.84-1.41-3.62-.37-.66-1.39c-3.62-.76-6.53,2.69-7.91,5.79a38.9,38.9,0,0,0-3.31,13.11c-2,1.59-4.73-.69-7-1.85-3.07-1.55-7.74-1.51-8.88-4.5-.54-1.43-.15-3.39-1.62-4.12a3.27,3.27,0,0,0-3,.47,7.61,7.61,0,0,0-3.31,4.15c-.33,1.05-.4,2.15-.83,3.16-1.17,2.71-4.51,4-7.53,5.07l-1.44-11.54a4.29,4.29,0,0,0-5.6.87,6.27,6.27,0,0,0-.82,2q-1.22,4.26-2.41,8.52a11.46,11.46,0,0,1-2.11,4.64,4.88,4.88,0,0,1-4.94,1.58l-1.82-2.39a3.26,3.26,0,0,1,.06-4.76l-3-.09c-.27-1.13-.55-2.26-.82-3.39l-4.08,3.2c1.87.19,1.78,2.66,1.14,4.25q-1.86,4.57-3.73,9.16a116.82,116.82,0,0,1-12.07-2.16,3.83,3.83,0,0,1,2.31-2.74,9.39,9.39,0,0,0-3.83-1.6c1.07,0,.82-1.52.18-2.3l-4.48-5.46a4.73,4.73,0,0,0-1.91-1.6c-1.69-.62-3.47.58-4.8,1.69q0,5.72.07,11.43h-4.19a2.77,2.77,0,0,0-3.36-2.34,14.32,14.32,0,0,0-5.18-8.4l1.61-2.91a10.25,10.25,0,0,1-7.17-1.5l2.35,2.49c-1.31,1.21-2.55,3.39-1,4.3a1.28,1.28,0,0,0-.43,2.43l-2.27,2.74c.6-.34,1.34.47,1.11,1.07s-1,.93-1.6,1.19L2352.17,90a4.75,4.75,0,0,1,3.25-3.89,6.29,6.29,0,0,1-1.46-6,18.71,18.71,0,0,0-5.65,9.09,175.56,175.56,0,0,1-17.15,5.15c1.7-.51,1.32-2.73.73-4.24a28.87,28.87,0,0,1-1.78-13.84,1.66,1.66,0,0,0-2.39-1.16c-1.54,1.62-1.76,3.89-1.92,6q-.5,6.63-1,13.27c-.94,1-2.8,1.85-3.59.78a2.11,2.11,0,0,1-.29-1l-1.68-13.52a4.11,4.11,0,0,0-2.74-3.33L2311.17,86a5.8,5.8,0,0,0-1.08,2.76,11.26,11.26,0,0,0,.86,3,6.08,6.08,0,0,1-3.65,7,1.35,1.35,0,0,1,.6-2.43,15.32,15.32,0,0,1-2.2-6.1,3.29,3.29,0,0,0-2.06,2.77,3.67,3.67,0,0,0-2.35-3.23,15.73,15.73,0,0,1-2.46,6.48,1.41,1.41,0,0,1,.67,2.57c-3.12-1.27-4.91-4.52-4.07-7.37a11.35,11.35,0,0,0,1-3.23,5.78,5.78,0,0,0-1.2-2.92l-6-9.3a4.43,4.43,0,0,0-3.06,3.54q-.93,7.17-1.87,14.34a2.16,2.16,0,0,1-.33,1c-.88,1.14-2.95.2-4-.83L2278.84,80c-.18-2.24-.43-4.66-2.15-6.37-1-.56-2.66.18-2.67,1.23a29.27,29.27,0,0,1-2,14.68c-.66,1.61-1.08,4,.81,4.5-6.5-1.52-12.89,8.45-19.16,6.33a19.74,19.74,0,0,0-6.3-9.65,6.44,6.44,0,0,1-1.64,6.41,5.13,5.13,0,0,1,3.64,4.13L2242,98.52c-.73-.27-1.53-.61-1.79-1.26s.58-1.5,1.25-1.14c-.85-1-1.7-1.93-2.54-2.9a1.35,1.35,0,0,0-.48-2.59c1.77-1,.38-3.27-1.09-4.55l2.63-2.64a12,12,0,0,1-8,1.58l1.8,3.09A15.09,15.09,0,0,0,2228,97c-1.77-.38-3.75.93-3.75,2.49h-4.68q0-6.06.08-12.12c-1.49-1.18-3.48-2.45-5.37-1.79a5,5,0,0,0-2.13,1.7l-5,5.79c-.71.82-1,2.46.2,2.44a10.72,10.72,0,0,0-4.28,1.69,4.15,4.15,0,0,1,2.59,2.91c-4.44,1-8.95,1.75-13.49,2.29q-2.09-4.86-4.16-9.72c-.72-1.68-.82-4.3,1.26-4.5l-4.55-3.4c-.31,1.2-.61,2.4-.92,3.6l-3.35.1a3.33,3.33,0,0,1,.06,5.05l-2,2.53a5.62,5.62,0,0,1-5.53-1.68,11.87,11.87,0,0,1-2.35-4.92c-.9-3-1.79-6-2.69-9a6.69,6.69,0,0,0-.92-2.13,5,5,0,0,0-6.25-.92l-1.62,12.24c-3.37-1.1-7.1-2.5-8.4-5.38a32,32,0,0,1-.94-3.35,8.17,8.17,0,0,0-3.69-4.4,3.8,3.8,0,0,0-3.39-.5c-1.64.78-1.21,2.85-1.81,4.37-1.27,3.17-6.49,3.13-9.91,4.77-2.58,1.23-5.66,3.65-7.86,2a40,40,0,0,0-3.7-13.9c-1.55-3.29-4.79-7-8.84-6.15l-.74,1.48-4,.39c.5.79,1,1.58,1.48,2.37a57.74,57.74,0,0,0-3.76,6.67,18.29,18.29,0,0,0-1.21-1.61l1.51-2.1-4.14-.34-.76-1.31c-4.15-.72-7.47,2.53-9.06,5.43a31.57,31.57,0,0,0-3.79,12.3c-2.25,1.49-5.41-.65-8-1.74-3.52-1.44-8.86-1.41-10.16-4.22-.63-1.34-.19-3.17-1.87-3.86a4.43,4.43,0,0,0-3.47.44,7.61,7.61,0,0,0-3.79,3.9,24.25,24.25,0,0,1-.95,3c-1.34,2.54-5.16,3.78-8.62,4.76q-.83-5.41-1.66-10.83c-1.92-1.11-5.11-.7-6.41.82a5.36,5.36,0,0,0-.94,1.88c-.92,2.67-1.84,5.33-2.75,8a9.9,9.9,0,0,1-2.42,4.34,6.33,6.33,0,0,1-5.66,1.49L2027.25,96a2.7,2.7,0,0,1,.07-4.47l-3.44-.08c-.32-1.06-.63-2.12-.94-3.18l-4.67,3c2.14.18,2,2.5,1.3,4q-2.13,4.31-4.27,8.6c-4.66-.48-9.28-1.15-13.83-2a3.9,3.9,0,0,1,2.65-2.57,12.08,12.08,0,0,0-4.39-1.49c1.23,0,.94-1.43.21-2.16l-5.13-5.12a5.25,5.25,0,0,0-2.19-1.51c-1.93-.58-4,.54-5.5,1.59,0,3.57.05,7.15.08,10.72h-4.8c0-1.38-2-2.54-3.85-2.21a13.32,13.32,0,0,0-5.93-7.88l1.85-2.73a13.91,13.91,0,0,1-8.22-1.4l2.7,2.34c-1.51,1.12-2.93,3.18-1.11,4-1.47,0-1.88,1.92-.5,2.29l-2.6,2.57c.69-.32,1.54.44,1.27,1s-1.08.87-1.83,1.11l-7.53,2.46c.18-1.6,1.69-3.08,3.73-3.65a5.16,5.16,0,0,1-1.68-5.67,17.47,17.47,0,0,0-6.47,8.53q-9.63,2.82-19.64,4.83c1.94-.48,1.51-2.56.84-4a22.58,22.58,0,0,1-2-13c0-.93-1.68-1.59-2.75-1.09-1.75,1.52-2,3.65-2.19,5.64L1925.31,107c-1.09.91-3.21,1.74-4.11.73a1.6,1.6,0,0,1-.34-.92l-1.92-12.68A4.14,4.14,0,0,0,1915.8,91l-6.11,8.22a4.79,4.79,0,0,0-1.23,2.59c0,1,.65,1.89,1,2.85a4.27,4.27,0,0,1-.31,3.33c-3-8.62-6-22.29-7.42-23.94-2.1-2.44-3.19-5.27-5.35-7.69l1.05-1.4c-1.43-.11-2.34-.93-3.77-1l-.78-1.31c-4.3-.71-5,2.86-6.62,5.76-2.21,3.92-6.31,7.76-6.69,12-2.34,1.49-5.61-.65-8.35-1.74-3.64-1.45-9.18-1.42-10.52-4.22-.65-1.34-.19-3.18-1.93-3.87a4.79,4.79,0,0,0-3.6.44,7.78,7.78,0,0,0-3.92,3.9,26.51,26.51,0,0,1-1,3c-1.38,2.54-5.35,3.78-8.93,4.75l-1.71-10.82c-2-1.12-5.3-.71-6.65.81a5.4,5.4,0,0,0-1,1.89l-2.85,8a9.89,9.89,0,0,1-2.51,4.35,6.73,6.73,0,0,1-5.86,1.49L1818.6,96a2.65,2.65,0,0,1,.07-4.47l-3.56-.08c-.32-1.07-.64-2.13-1-3.19l-4.84,3c2.22.17,2.11,2.49,1.35,4l-4.42,8.6q-7.24-.72-14.33-2a4,4,0,0,1,2.75-2.57,12.85,12.85,0,0,0-4.55-1.5c1.28,0,1-1.43.22-2.16L1785,90.49a5.43,5.43,0,0,0-2.26-1.51c-2-.58-4.12.55-5.71,1.59l.09,10.72h-5c0-1.38-2.1-2.54-4-2.2a13.35,13.35,0,0,0-6.15-7.88l1.91-2.74a14.76,14.76,0,0,1-8.51-1.4l2.79,2.34c-1.56,1.13-3,3.18-1.15,4-1.52,0-1.94,1.91-.51,2.28l-2.7,2.58c.72-.33,1.6.43,1.33,1s-1.13.87-1.9,1.12l-7.81,2.46c.19-1.61,1.76-3.09,3.87-3.66a5.06,5.06,0,0,1-1.74-5.67,17.65,17.65,0,0,0-6.7,8.54q-10,2.81-20.34,4.83c2-.48,1.56-2.56.86-4a21.86,21.86,0,0,1-2.11-13c0-.93-1.74-1.59-2.84-1.1-1.82,1.52-2.09,3.66-2.28,5.64q-.59,6.22-1.18,12.46c-1.12.9-3.32,1.73-4.26.72a1.56,1.56,0,0,1-.35-.91l-2-12.69a4.25,4.25,0,0,0-3.26-3.13l-6.32,8.23a4.68,4.68,0,0,0-1.28,2.58c0,1,.67,1.9,1,2.86.9,2.52-1,5.4-4.32,6.52-1.21-.54-.71-2.15.71-2.28a12.69,12.69,0,0,1-2.62-5.73,3.34,3.34,0,0,0-1.72,1.11c-3.26-.49-10.58-.71-11.77-1.65-1.56-1.23-1.08-3.06-.8-4.66s-.08-3.62-2.31-4.22a10.88,10.88,0,0,1-2.44,5.06c1.32.11,1.79,1.54.67,2-3.09-1-4.87-3.54-4-5.77.31-.85,1-1.65.94-2.52a4.18,4.18,0,0,0-1.19-2.29l-5.9-7.27a3.83,3.83,0,0,0-3,2.77q-.93,5.61-1.85,11.21a1.41,1.41,0,0,1-.33.81c-.87.89-2.92.16-4-.64q-.55-5.5-1.1-11c-.18-1.76-.43-3.65-2.12-5-1-.44-2.64.15-2.65,1a18.51,18.51,0,0,1-2,11.48c-.66,1.25-1.07,3.09.8,3.52-6.43-1.19-12.77-2.62-19-4.28a15.66,15.66,0,0,0-6.24-7.54,4.34,4.34,0,0,1-1.63,5c2,.51,3.44,1.82,3.61,3.23l-7.28-2.17c-.72-.22-1.51-.49-1.77-1s.57-1.17,1.24-.89L1612,87.17c1.33-.33.94-2-.48-2,1.76-.75.39-2.57-1.07-3.56l2.6-2.07a14.48,14.48,0,0,1-7.93,1.24c.6.8,1.19,1.61,1.78,2.42a11.88,11.88,0,0,0-5.73,7c-1.75-.3-3.71.73-3.71,2h-4.64l.08-9.47c-1.48-.93-3.45-1.92-5.32-1.41a5.16,5.16,0,0,0-2.11,1.33l-5,4.53c-.71.65-1,1.92.2,1.91a12.39,12.39,0,0,0-4.24,1.32,3.61,3.61,0,0,1,2.56,2.28q-6.6,1.16-13.36,1.79-2.06-3.81-4.12-7.6c-.71-1.32-.81-3.37,1.26-3.52l-4.52-2.66-.9,2.82-3.32.07a2.28,2.28,0,0,1,.06,4l-2,2a6.52,6.52,0,0,1-5.47-1.32,8.55,8.55,0,0,1-2.34-3.84c-.88-2.36-1.77-4.71-2.66-7.07a4.61,4.61,0,0,0-.91-1.66c-1.25-1.35-4.33-1.71-6.19-.73-.53,3.19-1.06,6.39-1.6,9.58-3.34-.87-7-2-8.32-4.21a20.89,20.89,0,0,1-.92-2.62,7.09,7.09,0,0,0-3.66-3.45,4.69,4.69,0,0,0-3.36-.39c-1.62.61-1.19,2.24-1.79,3.42-1.26,2.48-6.42,2.45-9.82,3.73-2.55,1-5.6,2.86-7.78,1.54-.36-3.73-4.17-7.12-6.24-10.59-1.53-2.57-2.16-5.72-6.17-5.09l-.73,1.16c-1.33.1-2.18.82-3.51.92l1,1.24c-2,2.13-3,4.63-5,6.8s-6.8,26-10.5,27.32c-3.53-.42-9.84-.67-10.94-1.54-1.56-1.23-1.08-3.06-.79-4.66s-.09-3.62-2.32-4.22a10.88,10.88,0,0,1-2.44,5.06c1.33.11,1.8,1.54.67,2-3.09-1-4.87-3.54-4-5.77.31-.85,1-1.65.94-2.52a4.12,4.12,0,0,0-1.19-2.29l-5.9-7.27a3.83,3.83,0,0,0-3,2.77q-.93,5.61-1.85,11.21a1.41,1.41,0,0,1-.33.81c-.87.89-2.92.16-4-.64q-.56-5.5-1.1-11c-.18-1.76-.43-3.65-2.12-5-1-.44-2.64.15-2.65,1a18.51,18.51,0,0,1-2,11.48c-.65,1.25-1.07,3.09.8,3.52-6.43-1.19-12.77-2.62-19-4.28a15.66,15.66,0,0,0-6.24-7.54,4.33,4.33,0,0,1-1.62,5c2,.51,3.43,1.82,3.6,3.23l-7.27-2.17c-.73-.22-1.52-.49-1.78-1s.57-1.17,1.24-.89l-2.52-2.27c1.34-.33.95-2-.47-2,1.75-.75.38-2.57-1.08-3.56l2.61-2.07a14.53,14.53,0,0,1-7.94,1.24c.6.8,1.19,1.61,1.79,2.42a11.87,11.87,0,0,0-5.74,7c-1.75-.3-3.71.73-3.71,2h-4.64l.09-9.47c-1.48-.93-3.45-1.92-5.32-1.41a5,5,0,0,0-2.11,1.33l-5,4.53c-.71.65-1,1.92.2,1.91a12.46,12.46,0,0,0-4.24,1.32,3.61,3.61,0,0,1,2.56,2.28c-4.39.77-8.86,1.36-13.36,1.79q-2.05-3.81-4.12-7.6c-.71-1.32-.81-3.37,1.26-3.52l-4.51-2.66c-.3.94-.61,1.88-.91,2.82l-3.32.07a2.28,2.28,0,0,1,.07,4l-2,2a6.52,6.52,0,0,1-5.47-1.32,8.44,8.44,0,0,1-2.33-3.84c-.89-2.36-1.78-4.71-2.66-7.07a4.77,4.77,0,0,0-.91-1.66c-1.26-1.35-4.34-1.71-6.2-.73l-1.59,9.58c-3.35-.87-7-2-8.33-4.21a20.89,20.89,0,0,1-.92-2.62,7.09,7.09,0,0,0-3.66-3.45,4.66,4.66,0,0,0-3.35-.39c-1.63.61-1.2,2.24-1.8,3.42-1.26,2.48-6.42,2.45-9.81,3.73-2.56,1-5.61,2.86-7.79,1.54a26,26,0,0,0-3.66-10.88c-.12-.21-.27-.43-.42-.65V69.11a8.83,8.83,0,0,1-1.46,0,8.05,8.05,0,0,0-6.86-2.44l0,0a10,10,0,0,1-2.63-2.4c-2-2.77-3-6-5-8.7l1.48-2.37-4-.39-.74-1.48c-4-.81-7.29,2.86-8.84,6.14a39.84,39.84,0,0,0-3.69,13.91c-2.2,1.68-5.28-.73-7.86-2-3.43-1.64-8.64-1.61-9.91-4.78-.61-1.51-.18-3.59-1.82-4.37a3.83,3.83,0,0,0-3.39.5,8.23,8.23,0,0,0-3.69,4.41,31.92,31.92,0,0,1-.93,3.35c-1.3,2.87-5,4.27-8.41,5.38q-.81-6.12-1.61-12.24a5,5,0,0,0-6.26.92,6.72,6.72,0,0,0-.92,2.13l-2.68,9a11.79,11.79,0,0,1-2.36,4.91,5.61,5.61,0,0,1-5.52,1.68l-2-2.52a3.35,3.35,0,0,1,.07-5.06l-3.36-.09c-.3-1.2-.61-2.4-.91-3.6l-4.56,3.39c2.09.2,2,2.83,1.27,4.51q-2.09,4.86-4.16,9.72c-4.55-.54-9.06-1.31-13.5-2.29a4.17,4.17,0,0,1,2.59-2.91,10.72,10.72,0,0,0-4.28-1.69c1.2,0,.92-1.62.2-2.44l-5-5.79a5.26,5.26,0,0,0-2.13-1.71c-1.89-.65-3.88.62-5.38,1.8l.09,12.12h-4.69c0-1.56-2-2.87-3.75-2.49a15,15,0,0,0-5.79-8.91l1.8-3.09a12,12,0,0,1-8-1.58l2.63,2.64c-1.47,1.27-2.85,3.59-1.08,4.55a1.34,1.34,0,0,0-.48,2.58l-2.54,2.91c.67-.36,1.5.5,1.24,1.14s-1.06,1-1.79,1.26l-7.34,2.78a5.1,5.1,0,0,1,3.64-4.13,6.43,6.43,0,0,1-1.64-6.41,19.76,19.76,0,0,0-6.31,9.65c-6.26,2.12-12.66-7.85-19.16-6.33,1.89-.55,1.47-2.9.82-4.5a29.28,29.28,0,0,1-2-14.68c0-1.05-1.63-1.8-2.67-1.23-1.71,1.71-2,4.12-2.14,6.37L1083,78.46c-1.06,1-3.13,2-4,.82a2,2,0,0,1-.34-1l-1.86-14.35a4.45,4.45,0,0,0-3.07-3.53l-6,9.29a5.92,5.92,0,0,0-1.21,2.93c0,1.11.64,2.14,1,3.22.85,2.86-1,6.11-4.06,7.38a1.41,1.41,0,0,1,.67-2.58,15.85,15.85,0,0,1-2.47-6.47,3.63,3.63,0,0,0-2.34,3.22,3.35,3.35,0,0,0-2.06-2.77A15.53,15.53,0,0,1,1055,80.7a1.35,1.35,0,0,1,.6,2.43,6.08,6.08,0,0,1-3.64-7,11.14,11.14,0,0,0,.85-3,5.61,5.61,0,0,0-1.08-2.75q-2.65-4.38-5.33-8.76a4.11,4.11,0,0,0-2.74,3.33q-.84,6.75-1.67,13.52a1.94,1.94,0,0,1-.3,1c-.79,1.08-2.64.19-3.59-.77l-1-13.27c-.16-2.12-.39-4.4-1.92-6a1.67,1.67,0,0,0-2.4,1.16A28.87,28.87,0,0,1,1031,74.39c-.59,1.51-1,3.73.73,4.24a176.39,176.39,0,0,1-17.15-5.15,18.83,18.83,0,0,0-5.64-9.1,6.31,6.31,0,0,1-1.47,6.05,4.76,4.76,0,0,1,3.26,3.89l-6.58-2.62c-.65-.26-1.37-.58-1.6-1.19s.51-1.42,1.12-1.07l-2.28-2.74a1.29,1.29,0,0,0-.43-2.44c1.59-.9.35-3.09-1-4.29l2.35-2.49A10.23,10.23,0,0,1,995.19,59l1.62,2.91a14.31,14.31,0,0,0-5.19,8.4,2.76,2.76,0,0,0-3.35,2.35h-4.19c0-3.81,0-7.61.07-11.42-1.34-1.12-3.12-2.31-4.81-1.7a4.74,4.74,0,0,0-1.91,1.61L973,66.57c-.64.78-.89,2.31.18,2.3a9.29,9.29,0,0,0-3.83,1.59,3.88,3.88,0,0,1,2.32,2.74,119.79,119.79,0,0,1-12.08,2.17l-3.72-9.17c-.65-1.58-.74-4.06,1.13-4.24l-4.08-3.2-.81,3.39-3,.09a3.25,3.25,0,0,1,.06,4.76l-1.81,2.39a4.88,4.88,0,0,1-4.95-1.59,11.42,11.42,0,0,1-2.11-4.63l-2.4-8.52a6.65,6.65,0,0,0-.82-2,4.28,4.28,0,0,0-5.6-.87q-.72,5.77-1.45,11.54c-3-1-6.36-2.36-7.52-5.07a31.28,31.28,0,0,1-.84-3.16,7.63,7.63,0,0,0-3.3-4.15,3.23,3.23,0,0,0-3-.47c-1.46.73-1.08,2.69-1.62,4.11-1.14,3-5.8,3-8.87,4.5-2.31,1.16-5.07,3.44-7,1.86a39.06,39.06,0,0,0-3.3-13.11c-1.39-3.1-4.29-6.56-7.91-5.8l-.67,1.4-3.61.36.83,1.41c-3.61-.73-7.42-2.91-9.11-5.32-2.24-3.19-3.42-6.88-5.73-10l1.69-2.74-4.6-.44L864.49,25c-4.61-.93-8.29,3.29-10,7.09a46.09,46.09,0,0,0-4.2,16c-2.51,1.94-6-.85-9-2.27C837.4,43.92,831.47,44,830,40.3c-.69-1.74-.2-4.14-2.06-5a4.33,4.33,0,0,0-3.86.58,9.47,9.47,0,0,0-4.2,5.08,36.89,36.89,0,0,1-1.06,3.87c-1.48,3.31-5.72,4.93-9.56,6.2q-.91-7.05-1.84-14.12a5.57,5.57,0,0,0-7.11,1.07,7.7,7.7,0,0,0-1.05,2.45q-1.51,5.22-3,10.43a13.61,13.61,0,0,1-2.68,5.67,6.35,6.35,0,0,1-6.28,1.94L785,55.51a3.89,3.89,0,0,1,.08-5.83l-3.82-.11c-.35-1.38-.69-2.76-1-4.15L775,49.34c2.37.22,2.26,3.25,1.44,5.19l-4.73,11.21a151.87,151.87,0,0,1-15.35-2.64,4.8,4.8,0,0,1,2.94-3.36,12.23,12.23,0,0,0-4.86-2c1.36,0,1-1.86.23-2.81L749,48.3a5.82,5.82,0,0,0-2.42-2c-2.15-.76-4.41.71-6.11,2.07l.09,14H735.2c0-1.8-2.25-3.32-4.26-2.87a17.33,17.33,0,0,0-6.59-10.28l2-3.56a13.49,13.49,0,0,1-9.11-1.83l3,3c-1.67,1.48-3.25,4.15-1.23,5.26-1.63.05-2.08,2.49-.55,3l-2.89,3.35c.76-.42,1.71.57,1.42,1.31s-1.21,1.14-2,1.46l-8.35,3.2a5.87,5.87,0,0,1,4.14-4.76,7.5,7.5,0,0,1-1.87-7.39,22.83,22.83,0,0,0-7.17,11.13c-7.12,2.44-14.4,4.55-21.79,6.3,2.15-.63,1.67-3.34.92-5.19a34.17,34.17,0,0,1-2.26-16.93c0-1.21-1.86-2.08-3-1.43-2,2-2.24,4.76-2.44,7.35l-1.26,16.25c-1.21,1.18-3.56,2.26-4.57.94a2.35,2.35,0,0,1-.37-1.19L664.8,53a5.11,5.11,0,0,0-3.48-4.08l-6.78,10.72A6.86,6.86,0,0,0,653.17,63c0,1.29.72,2.48,1.09,3.72,1,3.29-1.09,7-4.63,8.51a1.63,1.63,0,0,1,.76-3,18.34,18.34,0,0,1-2.8-7.47c-2.56.88-3,3.85-2.66,6.22s.88,5.07-.91,6.88a4.54,4.54,0,0,1-2,.82,6.15,6.15,0,0,1-.08-3.27,12.29,12.29,0,0,0,.85-3.25,6.23,6.23,0,0,0-1.08-2.94l-5.32-9.35a4.34,4.34,0,0,0-2.75,3.56q-.84,7.22-1.67,14.43a2.2,2.2,0,0,1-.3,1c-.79,1.15-2.64.2-3.59-.83L627.1,64c-.16-2.26-.39-4.69-1.92-6.42a1.65,1.65,0,0,0-2.39,1.25A32.7,32.7,0,0,1,621,73.54c-.58,1.62-1,4,.73,4.53a168.55,168.55,0,0,1-17.15-5.5,20.2,20.2,0,0,0-5.64-9.7,7.06,7.06,0,0,1-1.47,6.45,5,5,0,0,1,3.26,4.15l-6.58-2.8a2.61,2.61,0,0,1-1.6-1.26c-.23-.65.52-1.52,1.12-1.15l-2.28-2.93a1.38,1.38,0,0,0-.43-2.59c1.59-1,.35-3.3-1-4.59l2.36-2.65a9.76,9.76,0,0,1-7.17,1.59c.53,1,1.07,2.07,1.61,3.11a15.42,15.42,0,0,0-5.19,9,2.8,2.8,0,0,0-3.35,2.51h-4.19q0-6.09.07-12.19c-1.34-1.19-3.12-2.47-4.81-1.81a4.83,4.83,0,0,0-1.91,1.71l-4.48,5.83c-.63.83-.89,2.47.18,2.45a9.09,9.09,0,0,0-3.83,1.7,4.07,4.07,0,0,1,2.32,2.93,112.36,112.36,0,0,1-12.08,2.31l-3.72-9.78c-.65-1.7-.74-4.34,1.13-4.53l-4.08-3.42L542,60.48l-3,.1a3.63,3.63,0,0,1,.06,5.08l-1.81,2.54a4.68,4.68,0,0,1-4.95-1.69,12.52,12.52,0,0,1-2.11-4.94l-2.4-9.1a7.41,7.41,0,0,0-.82-2.14,4.11,4.11,0,0,0-5.6-.93q-.72,6.16-1.45,12.32c-3-1.11-6.36-2.52-7.52-5.41a32.48,32.48,0,0,1-.83-3.37,8.15,8.15,0,0,0-3.31-4.44,3.1,3.1,0,0,0-3-.5c-1.47.78-1.09,2.87-1.63,4.4-1.13,3.18-5.8,3.15-8.87,4.8-2.31,1.24-5.07,3.67-7,2a44,44,0,0,0-3.3-14c-1.39-3.3-4.29-7-7.91-6.18l-.67,1.49-3.61.39.11.19c-3.37-.9-6.75-3-8.32-5.36-2.24-3.33-3.42-7.18-5.73-10.47L460,22.38l-4.6-.46-.84-1.78c-4.61-1-8.3,3.44-10.05,7.39a50.13,50.13,0,0,0-4.21,16.74c-2.5,2-6-.88-8.94-2.36-3.9-2-9.83-1.93-11.27-5.75-.69-1.82-.2-4.32-2.06-5.26a4.16,4.16,0,0,0-3.86.6,9.77,9.77,0,0,0-4.2,5.31,39.79,39.79,0,0,1-1.06,4c-1.48,3.46-5.72,5.15-9.56,6.48q-.91-7.37-1.84-14.74a5.42,5.42,0,0,0-7.11,1.11,8.34,8.34,0,0,0-1.05,2.57q-1.51,5.45-3.05,10.88a14.54,14.54,0,0,1-2.68,5.92,6.18,6.18,0,0,1-6.29,2L375,52a4.17,4.17,0,0,1,.08-6.08l-3.82-.11c-.35-1.45-.69-2.89-1-4.34l-5.18,4.09c2.37.24,2.26,3.4,1.44,5.42q-2.37,5.85-4.73,11.71A152.21,152.21,0,0,1,346.41,60a4.91,4.91,0,0,1,2.94-3.51,11.93,11.93,0,0,0-4.86-2c1.36,0,1-2,.23-2.94l-5.7-7a6,6,0,0,0-2.42-2c-2.15-.79-4.41.74-6.11,2.16l.09,14.59h-5.33c0-1.87-2.25-3.45-4.26-3A18.26,18.26,0,0,0,314.4,45.5c.69-1.24,1.37-2.48,2.05-3.72a13,13,0,0,1-9.11-1.9l3,3.17c-1.67,1.54-3.25,4.33-1.23,5.49-1.63.05-2.08,2.6-.55,3.1l-2.89,3.51c.76-.44,1.71.59,1.42,1.37s-1.21,1.18-2,1.51l-8.36,3.35a6.08,6.08,0,0,1,4.15-5A8.06,8.06,0,0,1,299,48.69a23.94,23.94,0,0,0-7.17,11.62A222.39,222.39,0,0,1,270,66.88c2.15-.65,1.67-3.48.92-5.41a37.1,37.1,0,0,1-2.26-17.67c0-1.27-1.86-2.17-3-1.49-1.95,2.06-2.24,5-2.44,7.67l-1.26,17c-1.21,1.24-3.57,2.37-4.57,1a2.56,2.56,0,0,1-.37-1.24l-2.13-17.27a5.25,5.25,0,0,0-3.49-4.25q-3.37,5.6-6.77,11.18a7.36,7.36,0,0,0-1.37,3.52c0,1.35.72,2.59,1.09,3.89a7.79,7.79,0,0,1-4.63,8.88,1.72,1.72,0,0,1,.76-3.1,19.7,19.7,0,0,1-2.8-7.8c-2.56.92-3,4-2.66,6.49s.88,5.3-.91,7.19a4.51,4.51,0,0,1-2,.85,6.68,6.68,0,0,1-.08-3.41,13.7,13.7,0,0,0,.85-3.39,6.67,6.67,0,0,0-1.08-3.07q-2.66-4.89-5.33-9.76a4.52,4.52,0,0,0-2.74,3.71q-.84,7.53-1.67,15.06a2.4,2.4,0,0,1-.3,1.09c-.79,1.2-2.64.21-3.59-.86l-1-14.79c-.16-2.36-.39-4.89-1.92-6.69a1.63,1.63,0,0,0-2.39,1.29,35.52,35.52,0,0,1-1.79,15.41c-.59,1.69-1,4.16.73,4.73a162.75,162.75,0,0,1-17.15-5.74A21.34,21.34,0,0,0,189,59.71a7.59,7.59,0,0,1-1.47,6.73,5.21,5.21,0,0,1,3.26,4.34l-6.58-2.92a2.66,2.66,0,0,1-1.6-1.32c-.23-.68.52-1.58,1.12-1.2l-2.28-3.05c1.21-.44.86-2.67-.43-2.71,1.59-1,.35-3.45-1-4.79L182.4,52a9.42,9.42,0,0,1-7.18,1.66l1.62,3.25a16.25,16.25,0,0,0-5.19,9.36,2.81,2.81,0,0,0-3.35,2.61h-4.19q0-6.36.07-12.73c-1.34-1.24-3.12-2.57-4.81-1.88a4.82,4.82,0,0,0-1.91,1.79L153,62.15c-.63.86-.89,2.58.18,2.56a9,9,0,0,0-3.83,1.77,4.23,4.23,0,0,1,2.32,3.06A108,108,0,0,1,139.57,72l-3.72-10.21C135.2,60,135.11,57.22,137,57l-4.08-3.57-.81,3.78-3,.1a3.92,3.92,0,0,1,.06,5.31l-1.81,2.65c-1.75.67-3.79-.29-5-1.76a13.48,13.48,0,0,1-2.11-5.16l-2.4-9.49a7.81,7.81,0,0,0-.82-2.24,4,4,0,0,0-5.6-1q-.72,6.44-1.45,12.85c-3-1.16-6.36-2.62-7.52-5.64-.44-1.13-.51-2.36-.84-3.52a8.42,8.42,0,0,0-3.3-4.63,3,3,0,0,0-3-.52c-1.47.81-1.09,3-1.63,4.58-1.14,3.33-5.8,3.3-8.87,5-2.31,1.29-5.07,3.83-7,2.06a47.59,47.59,0,0,0-3.3-14.6c-1.39-3.46-4.29-7.3-7.91-6.46l-.67,1.56-3.61.4,1.32,2.5c-1.82,2.87-2.74,6.23-4.5,9.13s-6.45,5.45-9.83,5V135H60.63v993.7H4570.52V138.15h49.82Zm-2316.73,3.2h0c.19,1.48.49,3.13,0,4.48A9.83,9.83,0,0,1,2303.61,95.34ZM1059.31,79.68h0a9.87,9.87,0,0,1,0,4.49A9.68,9.68,0,0,1,1059.31,79.68Z"/></svg>