<svg id="Layer_1" data-name="Layer 1" xmlns="http://www.w3.org/2000/svg" viewBox="0 0 4662.57 360.69"><defs><style>.cls-1{fill:#f79533;}</style></defs><title>Artboard 1</title><path class="cls-1" d="M122.48,111.43c11.45,2.79,19.31,12.91,27.2,21.65s18.56,17.29,30.17,15.29c4.07-.7,7.84-2.68,11.92-3.38,11.77-2,22.33,6.58,32.51,12.83,2.13,1.3,4.48,2.56,7,2.36,4.88-.37,7.54-5.82,11.66-8.47,8.27-5.34,18.71,1.76,26.15,8.2a7.65,7.65,0,0,0,4,2.23c2.81.29,4.89-2.36,7.11-4.1,4.39-3.45,10.66-3.64,16-1.89s9.85,5.18,14.3,8.55a95.91,95.91,0,0,1,37.09-25.57c4.65-1.78,9.72-3.38,12.82-7.28,2.51-3.13,3.33-7.29,5.45-10.7,6.75-10.82,23.1-10.15,32.9-18.32-.87,2.42,3.29,3.63,5.37,2.12s3.36-4.18,5.81-5c4.31-1.36,7.52,3.8,9.55,7.83,9,17.84,27.46,29.35,46.74,34.5s39.54,4.79,59.49,4.39l.57.06a106.71,106.71,0,0,1,52.59,1.86c1.41,4.06,0,10.85,0,10.85v136H41.85S52,212.25,65.49,188.58c10.65-18.74,28.83-32.81,37.11-52.71,4.21-10.14,8.12-23.59,19.05-24.61Z"/><path class="cls-1" d="M121.82,113.84c14.71,4,22.14,18.61,33.14,27.91,5,4.2,10.73,7.88,17.24,9,7.78,1.34,13.7-2.72,21.17-3.49,7.74-.79,14.9,3.38,21.22,7.33,4.84,3,10.84,8.62,17,8,6.62-.63,8.85-7.87,14.67-9.81,8-2.67,16,4.91,21.65,9.35,2.1,1.64,4.38,2.95,7.16,2.29,3.45-.82,5.59-4.12,8.66-5.63,9-4.44,18.58,2.84,25.44,8a2.51,2.51,0,0,0,3-.39A96,96,0,0,1,337,146.75a128.9,128.9,0,0,1,14.71-6.55c3.86-1.54,7.68-3.33,10.4-6.58s3.56-7.63,5.84-11.21c2.43-3.81,6.42-6,10.49-7.74,7.57-3.14,15.45-4.91,22-10.07l-4.27-1.77c-.46,3.7,3.41,5.72,6.69,5.17,2.09-.34,3.38-1.63,4.83-3.07,1.9-1.85,3-3.56,6-1.25,1.3,1,2.18,2.89,3,4.29a69.54,69.54,0,0,0,24.73,26.51c24.48,15.17,56.38,16.56,84.38,14.76,8.07-.52,15.89-2.46,24.09-2.38a106.88,106.88,0,0,1,28.26,4.19l-1.75-1.74c1.22,4.43-.08,9.28-.08,13.85V295.48l2.5-2.5H41.85l2.5,2.5c2.34-19.09,5.4-38.14,9.14-57,2.57-13,5.37-26.08,9.79-38.58,5.46-15.46,16.86-27.16,26.92-39.76,6.43-8,11.93-16.4,15.78-26,1.73-4.32,3.35-8.74,5.78-12.73,1.79-2.94,5.94-8.44,10.06-7.57,3.14.66,4.48-4.16,1.33-4.82-6.68-1.41-12.58,4.73-15.7,9.86-4.9,8.05-7.1,17.39-12,25.46-9.9,16.2-25.52,28.74-33.67,46-5.55,11.81-8.45,25-11.2,37.65-3.06,14.15-5.54,28.44-7.73,42.75-1.27,8.22-2.46,16.45-3.47,24.7a2.52,2.52,0,0,0,2.5,2.5H578.79a2.54,2.54,0,0,0,2.5-2.5v-96.1c0-13.16-.64-26.45,0-39.59,0-.83-.11,1.1,0-.25.11-1.13.35-2.24.46-3.36.22-2.43.75-7.38-1.22-9.31-2.34-2.29-8.67-2.61-11.8-3.18A112.62,112.62,0,0,0,554.44,142a106.92,106.92,0,0,0-14.65.24c-4.71.4-9.35,1.62-14,2-9.88.81-20.24.38-30.14-.13-21.63-1.11-44.12-6-60.82-20.65a56.84,56.84,0,0,1-9.46-10.5c-2.52-3.64-4.12-7.9-6.86-11.37-1.83-2.32-4.36-4.42-7.49-4.3a7.91,7.91,0,0,0-4.54,1.84c-.3.23-5.42,4.75-5.29,3.7.3-2.43-2.81-2.92-4.27-1.77-6.7,5.28-15.49,6.55-23,10.19a25.12,25.12,0,0,0-8.77,6.6c-2.82,3.46-3.63,7.86-6.06,11.52-3,4.6-8.88,6-13.71,7.95a97.83,97.83,0,0,0-13,6.32,100.33,100.33,0,0,0-23.7,19.29l3-.39c-5.59-4.22-11.52-8.58-18.63-9.66a21.14,21.14,0,0,0-8.16.22c-3.46.84-5.22,3-8.15,4.59-4.72,2.61-8-1.45-11.47-4a38.61,38.61,0,0,0-9-5c-5.46-2-11.22-1.8-15.94,1.84-2.34,1.81-4.12,4.8-6.74,6.22-4.29,2.32-8.64-1.46-12.19-3.74-6.12-3.93-12.4-8.21-19.55-10-7.34-1.83-13,.47-20,2.31-8.75,2.31-16.66-1.56-23.28-7.13C146.66,128.27,139,113.38,123.15,109,120,108.17,118.72,113,121.82,113.84Z"/><path class="cls-1" d="M612.13,108.59c11.44,2.79,19.3,12.91,27.2,21.65s18.55,17.28,30.16,15.29c4.07-.7,7.84-2.68,11.92-3.38,11.77-2,22.33,6.58,32.51,12.83,2.13,1.3,4.48,2.56,7,2.36,4.88-.37,7.54-5.82,11.66-8.47,8.27-5.34,18.71,1.76,26.15,8.2a7.65,7.65,0,0,0,4,2.23c2.81.29,4.9-2.36,7.11-4.1,4.39-3.45,10.66-3.64,16-1.89s9.85,5.18,14.3,8.55a95.91,95.91,0,0,1,37.09-25.57c4.65-1.78,9.72-3.38,12.83-7.28,2.5-3.13,3.32-7.29,5.44-10.7,6.75-10.82,23.1-10.15,32.9-18.32-.87,2.42,3.29,3.63,5.37,2.12s3.36-4.18,5.81-5C903.8,95.8,907,101,909,105c9,17.84,27.46,29.35,46.74,34.5s39.54,4.79,59.49,4.39l.57.06a106.71,106.71,0,0,1,52.59,1.86c1.42,4.06,0,10.85,0,10.85v136H531.49s10.18-83.23,23.64-106.9C565.79,167,584,152.93,592.24,133c4.21-10.14,8.12-23.59,19-24.62Z"/><path class="cls-1" d="M611.46,111c14.71,4,22.15,18.61,33.14,27.91,5,4.2,10.73,7.88,17.24,9,7.79,1.34,13.7-2.72,21.17-3.49,7.74-.79,14.9,3.38,21.22,7.33,4.84,3,10.84,8.62,17,8,6.62-.63,8.85-7.87,14.67-9.81,8-2.67,16,4.91,21.65,9.35,2.1,1.64,4.38,2.95,7.16,2.29,3.46-.82,5.59-4.12,8.66-5.63,9-4.44,18.58,2.84,25.44,8a2.5,2.5,0,0,0,3-.4,96.19,96.19,0,0,1,24.8-19.71,128.9,128.9,0,0,1,14.71-6.55c3.86-1.54,7.68-3.33,10.4-6.58s3.56-7.63,5.84-11.21c2.43-3.81,6.42-6,10.49-7.74,7.57-3.14,15.46-4.91,22-10.07L885.81,100c-.46,3.7,3.41,5.72,6.69,5.17,2.09-.34,3.38-1.63,4.84-3.07,1.89-1.85,3-3.56,6-1.25,1.29,1,2.18,2.89,2.95,4.29A69.54,69.54,0,0,0,931,131.64c24.48,15.17,56.39,16.56,84.38,14.76,8.07-.52,15.89-2.46,24.09-2.38a106.88,106.88,0,0,1,28.26,4.19l-1.74-1.74c1.21,4.43-.09,9.28-.09,13.85V292.64l2.5-2.5H531.49l2.5,2.5c2.34-19.09,5.4-38.14,9.14-57,2.57-13,5.37-26.08,9.79-38.58,5.46-15.46,16.87-27.16,26.93-39.76,6.42-8,11.92-16.4,15.77-26a85,85,0,0,1,5.79-12.74c1.78-2.93,5.93-8.43,10.05-7.56,3.14.66,4.48-4.16,1.33-4.82-6.68-1.41-12.58,4.73-15.7,9.86-4.9,8-7.1,17.39-12,25.46-9.9,16.2-25.51,28.74-33.66,46-5.56,11.81-8.46,25-11.2,37.65-3.07,14.15-5.54,28.44-7.74,42.75-1.26,8.22-2.46,16.45-3.47,24.7a2.52,2.52,0,0,0,2.5,2.5h536.94a2.54,2.54,0,0,0,2.5-2.5v-96.1c0-13.16-.64-26.45,0-39.59,0-.83-.11,1.1,0-.25.11-1.13.35-2.24.46-3.37.22-2.42.75-7.37-1.22-9.3-2.34-2.29-8.67-2.61-11.8-3.18a110.84,110.84,0,0,0-14.31-1.69,106.92,106.92,0,0,0-14.65.24c-4.71.4-9.34,1.62-14,2-9.88.81-20.24.38-30.14-.13-21.63-1.11-44.11-6-60.82-20.65a57.2,57.2,0,0,1-9.46-10.5c-2.52-3.64-4.11-7.9-6.86-11.37-1.83-2.32-4.35-4.42-7.49-4.31a8,8,0,0,0-4.54,1.85c-.3.23-5.42,4.75-5.29,3.7.3-2.43-2.81-2.92-4.27-1.77-6.7,5.28-15.49,6.55-23,10.19a25.21,25.21,0,0,0-8.77,6.6c-2.82,3.46-3.63,7.86-6.06,11.52-3,4.6-8.88,6-13.71,7.95a97.83,97.83,0,0,0-13,6.32,100.33,100.33,0,0,0-23.7,19.29l3-.39c-5.59-4.22-11.52-8.58-18.63-9.66a21.09,21.09,0,0,0-8.15.22c-3.46.84-5.23,3-8.16,4.59-4.71,2.61-8-1.45-11.47-4a38.61,38.61,0,0,0-9-5c-5.46-2-11.22-1.8-15.94,1.84-2.34,1.81-4.12,4.8-6.74,6.21-4.29,2.33-8.64-1.45-12.19-3.73-6.12-3.93-12.4-8.21-19.55-10-7.34-1.83-13,.47-20,2.31-8.75,2.31-16.66-1.56-23.28-7.13-11.83-9.94-19.51-24.84-35.34-29.19C609.68,105.32,608.36,110.15,611.46,111Z"/><path class="cls-1" d="M1080.29,131.8c9.22,2.13,15.54,9.86,21.9,16.54s14.93,13.19,24.28,11.67c3.28-.54,6.32-2,9.6-2.58,9.47-1.56,18,5,26.17,9.8,1.71,1,3.6,2,5.6,1.8,3.94-.29,6.07-4.44,9.39-6.47,6.66-4.08,15.06,1.34,21,6.27a6.43,6.43,0,0,0,3.22,1.7c2.25.22,3.94-1.8,5.72-3.13,3.53-2.64,8.58-2.78,12.85-1.44s7.93,3.95,11.51,6.52A77.39,77.39,0,0,1,1261.44,153c3.74-1.36,7.82-2.59,10.32-5.56,2-2.4,2.68-5.58,4.39-8.18,5.43-8.26,18.59-7.75,26.48-14-.7,1.85,2.65,2.77,4.33,1.62s2.7-3.19,4.68-3.78c3.46-1,6,2.9,7.68,6,7.21,13.62,22.11,22.41,37.63,26.35s31.83,3.66,47.89,3.35l.46.05a90.35,90.35,0,0,1,42.34,1.42c1.14,3.1,0,8.28,0,8.28V272.36H1015.37s8.2-63.57,19-81.64c8.58-14.31,23.21-25.06,29.88-40.26,3.39-7.74,6.54-18,15.34-18.79Z"/><path class="cls-1" d="M1079.62,134.21c14.36,3.84,20.71,19.58,33.71,25.92,6.28,3.05,12,3,18.6,1,9.46-2.83,16.16.44,24.23,5.34,4.86,3,10.15,7.09,15.86,3.69,2.77-1.65,4.52-4.67,7.55-5.89,4.48-1.82,9.22.86,12.91,3.32,5.21,3.47,8,7.46,14.12,3.51,4.11-2.67,7-4.24,12.08-2.93,4.33,1.12,8,3.9,11.64,6.47a2.53,2.53,0,0,0,3-.39,76.7,76.7,0,0,1,20.28-15.18c6.11-3.14,14.47-4.39,19.4-9.39,2.59-2.63,3.21-6.26,5.28-9.19s5.18-4.48,8.38-5.74c5.86-2.3,12-3.56,17.2-7.36l-3.76-2.16c-.2,4.29,4.85,5.56,8.09,3.78.9-.5,1.47-1.53,2.31-2,2-1.27,3.64-1.25,5.23,1,2,2.77,3.35,5.86,5.46,8.59,7.76,10,19.35,16.55,31.33,20.23,15.06,4.63,31.1,4.82,46.73,4.59,7-.1,13.76-1.57,20.77-1.84a90.26,90.26,0,0,1,26.92,3.12l-1.74-1.75c.89,3.41-.09,7.21-.09,10.75V272.36l2.5-2.5H1015.37l2.5,2.5c1.84-14.21,4.46-29.74,7.52-44.2,2.06-9.78,4.3-19.67,7.85-29,4.55-12,14.12-20.93,22.18-30.65a76.4,76.4,0,0,0,12-19c1.74-4.09,5.92-16.48,12.21-15.22,3.15.63,4.49-4.19,1.33-4.82-12.36-2.47-16.68,16.37-20.9,24-7.64,13.77-21,23.44-28.47,37.27-4.7,8.65-7,18.75-9.25,28.25-2.64,11.27-4.73,22.66-6.59,34.08-1,6.45-2,12.91-2.87,19.4a2.53,2.53,0,0,0,2.5,2.5h432.27a2.54,2.54,0,0,0,2.5-2.5V172c0-4.24,1.18-7.56-.09-12.41a2.51,2.51,0,0,0-1.75-1.74,96.34,96.34,0,0,0-21.74-3.31c-7.37-.25-14.23,1.21-21.49,1.77-14.55,1.14-30.52.52-44.76-2.65-12.85-2.85-25.6-8.74-34.22-19-3.32-3.94-5.13-10.39-9.67-13.11a6.84,6.84,0,0,0-5.45-.88c-1.28.37-5.77,3.25-5.84,4.57.09-1.77-2.23-3.28-3.76-2.16-5.32,3.92-11.82,5-17.8,7.58a23,23,0,0,0-7.68,4.91c-2.42,2.51-3.26,5.73-5,8.64-2.56,4.26-7.33,5.24-11.66,6.93a84.12,84.12,0,0,0-10.28,4.78,81.62,81.62,0,0,0-19.13,14.8l3-.39c-6-4.27-12.53-8.47-20.21-7.55a14.94,14.94,0,0,0-7.18,2.86c-2.82,2-3.47,2.53-6.63.44-1.08-.71-2.06-1.6-3.13-2.34-5.18-3.57-12.1-6.86-18.37-4-2.78,1.25-4.44,3.61-6.8,5.4-4.14,3.15-8.93-1.21-12.53-3.38-5.74-3.46-11.92-6.92-18.8-7-3.87-.07-7.29,1.38-11,2.33a18,18,0,0,1-13.76-1.94c-12.66-7-18.85-21.78-33.52-25.7C1077.84,128.56,1076.51,133.38,1079.62,134.21Z"/><path class="cls-1" d="M1441.9,125.25c12.59,2.41,21.23,11.13,29.92,18.67s20.41,14.91,33.19,13.19c4.48-.6,8.63-2.31,13.11-2.92,13-1.75,24.57,5.69,35.78,11.07,2.33,1.13,4.91,2.21,7.65,2,5.37-.32,8.29-5,12.82-7.31,9.11-4.6,20.59,1.52,28.78,7.08a9.2,9.2,0,0,0,4.39,1.92c3.08.25,5.38-2,7.82-3.53,4.83-3,11.73-3.14,17.55-1.63s10.84,4.46,15.74,7.37c11.11-9.75,25.22-17.38,40.8-22.06,5.12-1.53,10.7-2.92,14.11-6.28,2.76-2.7,3.66-6.29,6-9.23,7.42-9.34,25.41-8.76,36.19-15.8-1,2.08,3.61,3.12,5.91,1.82s3.7-3.6,6.39-4.27c4.74-1.17,8.28,3.29,10.5,6.76,9.86,15.39,30.22,25.32,51.43,29.76s43.5,4.14,65.45,3.79l.63.05a148.77,148.77,0,0,1,57.85,1.61c1.56,3.5,0,9.35,0,9.35V284H1353.18s11.2-71.8,26-92.22c11.73-16.16,31.72-28.3,40.83-45.47,4.64-8.75,8.94-20.35,21-21.24Z"/><path class="cls-1" d="M1441.23,127.66c15.28,3.29,24.34,15.81,36.71,24.13,5.68,3.82,12.08,6.84,18.91,7.75,7.68,1,14.16-1.84,21.61-2.84,8.66-1.17,16.92,2.19,24.55,5.92,5.67,2.77,12.27,7.63,18.87,7.14,6.87-.51,10.51-7.37,17.08-8.63,7.91-1.52,16,3.56,22.3,7.68,2.58,1.68,5.22,3.17,8.42,2.52,3.87-.78,6.54-4.09,10.3-5.19,9.79-2.83,19.26,2.39,27.41,7.22a2.59,2.59,0,0,0,3-.39A104.77,104.77,0,0,1,1677,156.35a152.52,152.52,0,0,1,16.24-5.72c4.07-1.25,8.33-2.63,11.57-5.52,3.43-3.07,4.51-7.75,7.69-11,3-3.07,7.33-4.63,11.34-5.89,7.84-2.46,16.1-3.86,23.19-8.24l-3.67-2.83c-.63,4,3,5.87,6.62,5.51,2.32-.24,3.73-1.48,5.54-2.78,2-1.47,3.74-2.81,6.39-1.47,2,1,3.3,3.24,4.51,5,7.35,10.63,17.58,18.11,29.32,23.35,13.21,5.89,27.4,8.85,41.74,10.31a294.64,294.64,0,0,0,48.44,1.17c9.18-.6,18-2.21,27.32-2.06a147.14,147.14,0,0,1,30,3.59L1941.5,158c1.26,3.71-.09,7.73-.09,11.59V284l2.5-2.5H1353.18l2.41,3.16c2.74-17.49,6.31-34.93,10.75-52.07,3-11.49,6.18-23.35,11.65-34,7.06-13.7,20.51-23.15,31-34a86.11,86.11,0,0,0,15.28-21.26c3-5.82,8.63-17.11,16.91-15.74,3.15.52,4.5-4.3,1.33-4.82-15-2.48-20.76,16.44-26.93,26-10.06,15.61-26.58,25.71-37.7,40.49-6.81,9-10.29,20.57-13.46,31.27-3.86,13-6.86,26.35-9.52,39.69-1.53,7.66-3,15.34-4.18,23.05a2.55,2.55,0,0,0,2.41,3.17h590.73a2.54,2.54,0,0,0,2.5-2.5V179c0-3.79-.16-7.61,0-11.39,0-.3,0-.61,0-.91-.1,1.26.34-1.54.36-1.66.39-2.51.83-6-.45-8.4-1.47-2.7-5.38-2.55-8.13-3.06q-6.8-1.23-13.67-1.86a149.63,149.63,0,0,0-29.17.2,284.27,284.27,0,0,1-56,.29c-19.76-1.84-40.5-6.64-56.63-18.81a54.23,54.23,0,0,1-9.11-8.61c-2.58-3.12-4.37-7-7.57-9.58a9.84,9.84,0,0,0-8.62-2.28,10.94,10.94,0,0,0-3.45,1.76c-.7.5-1.29,1.11-2,1.62l-1.93,1.27c-1.57-.65-2.19-.36-1.88.87.32-2-1.65-4.07-3.67-2.82-7.47,4.62-16.35,5.65-24.5,8.57a31.66,31.66,0,0,0-9.77,5.18c-3.54,3-4.75,7.25-7.63,10.68-3.77,4.48-10.14,5.46-15.47,7.15a124.19,124.19,0,0,0-14.22,5.48,109.53,109.53,0,0,0-26,16.7l3-.39c-6.24-3.69-12.69-7.33-20-8.32a27.94,27.94,0,0,0-9.82.25c-3.3.71-5.53,2.47-8.43,4-5,2.6-8.35-.94-12.52-3.34a48.44,48.44,0,0,0-10.14-4.52c-6-1.78-12.35-1.71-17.66,1.82-2.42,1.6-4.48,3.91-7.13,5.14-4.81,2.22-10-1.38-14.21-3.5-6.57-3.32-13.28-6.79-20.54-8.29-7.77-1.6-14.28.17-21.82,1.82-8.69,1.91-17-.36-24.48-4.87-14.15-8.5-23.67-22.71-40.61-26.36C1439.42,122.16,1438.08,127,1441.23,127.66Z"/><path class="cls-1" d="M3008,125.25c-27.76,2.41-46.82,11.13-66,18.67s-45,14.91-73.17,13.19c-9.88-.6-19-2.31-28.9-2.92-28.56-1.75-54.16,5.69-78.87,11.07a69.19,69.19,0,0,1-16.87,2c-11.85-.32-18.29-5-28.28-7.31-20.07-4.6-45.38,1.52-63.43,7.08a36.09,36.09,0,0,1-9.68,1.92c-6.8.25-11.87-2-17.25-3.53-10.64-3-25.85-3.14-38.7-1.63s-23.9,4.46-34.69,7.37c-24.49-9.75-55.61-17.38-89.95-22.06-11.28-1.53-23.58-2.92-31.12-6.28-6.07-2.7-8.06-6.29-13.21-9.23-16.36-9.34-56-8.76-79.79-15.8,2.11,2.08-8,3.12-13,1.82s-8.16-3.6-14.11-4.27c-10.43-1.17-18.23,3.29-23.15,6.76-21.72,15.39-66.6,25.32-113.36,29.76s-95.91,4.14-144.3,3.79l-1.39.05a716.94,716.94,0,0,0-127.54,1.61c-3.44,3.5,0,9.35,0,9.35V284H3203.6s-24.69-71.8-57.34-92.22c-25.85-16.16-69.93-28.3-90-45.47-10.22-8.75-19.7-20.35-46.22-21.24Z"/><path class="cls-1" d="M3008,122.75c-21.64,2-41.51,8.72-61.56,16.74-21.69,8.68-44.2,15.14-67.74,15.37-13,.12-25.78-2.38-38.74-3.17a170.9,170.9,0,0,0-36.91,2.17c-12.14,1.92-24.09,4.81-36.06,7.53-12.32,2.79-23.75,4.93-36.07.88-10-3.28-19.07-6.28-29.73-6.39-11.3-.13-22.64,1.79-33.59,4.43-11.38,2.73-22.37,8.1-34.19,4.91-10.42-2.81-20-4.85-30.87-4.83a158.5,158.5,0,0,0-34.44,4.19c-4.83,1.09-10.86,3.88-15.77,3.59-5.17-.31-11.11-3.73-16.1-5.35-23-7.48-46.91-12.36-70.88-15.75-12.56-1.77-28.37-1.78-38.77-10a53.45,53.45,0,0,0-22.82-11c-21.43-4.85-43.79-4.6-65-10.65a2.52,2.52,0,0,0-2.82,3.67c-2.44-4.3,1.68-.88-1-1.7a32.94,32.94,0,0,0-3.8.33,22.93,22.93,0,0,1-8.08-1.3c-4.78-1.64-9.18-3.51-14.31-3.7-9.52-.36-16.9,3.91-24.59,8.86-18.46,11.9-41.51,17.09-62.79,21.21-56.1,10.85-113.91,10.82-170.83,10.53-27-.13-53.88-2.32-80.89-2.16q-21,.12-41.92,1.46-10.29.66-20.56,1.63c-4,.38-7.62-.31-9.37,3.84-1.43,3.38.13,6.06.93,9.26.29,1.18-.19-1.64,0,.14.08,1,0,2,0,2.94V284a2.53,2.53,0,0,0,2.5,2.5H3203.6a2.53,2.53,0,0,0,2.41-3.17c-9-26-21.3-52.53-38.26-74.32-12.41-15.95-28.13-24.59-46.38-32.7-20.45-9.08-43.42-16.27-61.3-30.12-7-5.43-13-12-20.81-16.32a58.06,58.06,0,0,0-31.25-7.14c-3.19.23-3.21,5.24,0,5a53.37,53.37,0,0,1,29.35,6.81c6.85,3.91,12.18,9.54,18.24,14.47,15.94,12.95,36.43,20.05,55.08,28.06,17.92,7.7,36.17,15.21,49.23,30.21,12,13.8,20.9,30.35,28.64,46.82a309.3,309.3,0,0,1,12.63,30.56l2.42-3.16H1901.26l2.5,2.5V179.16c0-4.11.76-9.06-.09-13.12-.24-1.15-1.28-2.14-1.29-3.37-.05-4.43,5.46-3.48,8.45-3.75q10.9-1,21.85-1.6,21-1.2,42-1.17c27.48,0,54.84,2.1,82.32,2.2,56,.2,112.87-.18,168-11.18,22.77-4.54,45.68-10.72,65.21-23.63,5.6-3.69,11.79-6.07,18.6-5.82,6.21.23,11.32,3.69,17.32,4.67,3,.48,18.1,1.09,14.16-5.83l-2.82,3.68c19,5.42,38.93,5.9,58.28,9.32,8.64,1.53,17.75,3.34,24.77,8.94,7.86,6.27,15.21,9.08,25.19,10.79,24.89,4.25,49.66,7.2,74.1,13.86q7.61,2.07,15.1,4.49c5.17,1.67,10.48,4.44,15.75,5.62,4,.88,8.54-1.37,12.45-2.34,6.13-1.54,12.31-2.9,18.55-3.87,12.59-2,26-2.64,38.58-.26,9.79,1.86,18.23,6.12,28.43,3.92,23-5,45.7-14.36,69.51-7.55,9.94,2.85,18.78,7.05,29.4,6.6,11.11-.47,22.13-3.9,32.92-6.33,12.72-2.87,25.55-5.48,38.57-6.5s25.89.14,38.92,1.65c26.86,3.12,53.23-.76,78.59-9.93,23.76-8.6,45.92-18.5,71.43-20.9C3011.19,127.45,3011.22,122.44,3008,122.75Z"/><path class="cls-1" d="M3378,117.67c-8,2.75-13.56,12.71-19.11,21.32s-13,17-21.19,15c-2.87-.69-5.52-2.63-8.38-3.32-8.27-2-15.69,6.48-22.84,12.63-1.5,1.28-3.15,2.52-4.89,2.33-3.43-.37-5.3-5.73-8.19-8.35-5.82-5.25-13.15,1.74-18.38,8.08-.82,1-1.72,2-2.8,2.2-2,.28-3.44-2.32-5-4-3.08-3.39-7.48-3.58-11.21-1.86s-6.92,5.1-10.05,8.42c-7.09-11.14-16.11-19.85-26.05-25.18-3.27-1.75-6.83-3.33-9-7.17-1.75-3.09-2.33-7.18-3.82-10.54-4.74-10.66-16.23-10-23.12-18a2.23,2.23,0,0,1-3.77,2.09c-1.46-1.49-2.36-4.11-4.09-4.88-3-1.33-5.28,3.75-6.7,7.72a56,56,0,0,1-32.84,34c-13.54,5.08-27.78,4.72-41.8,4.33l-.4,0a54.36,54.36,0,0,0-36.95,1.84c-1,4,0,10.67,0,10.67V298.91h377.26s-7.16-82-16.61-105.26c-7.49-18.46-20.26-32.32-26.08-51.92-3-10-5.7-23.22-13.38-24.23Z"/><path class="cls-1" d="M3377.34,115.26c-14.3,5.6-18,22.8-28.65,32.43-4.35,3.92-8.54,5-13.92,2.53-2.64-1.19-5.22-2.34-8.17-2.3-7,.09-12.79,5.51-17.68,9.91-1.29,1.15-2.69,2.93-4.21,3.75-4.39,2.37-4.7.14-6.76-2.62-1.61-2.18-3.22-4.31-5.83-5.33-5.74-2.26-11.32,2.05-15.17,5.9-1.13,1.13-2.36,3.33-3.69,4.12-.53,1.21-1.33,1.35-2.41.4q-.92-1.14-1.86-2.25a11.48,11.48,0,0,0-7.14-3.55c-7.4-.75-13,5.2-17.65,10.11l3.92.5a82.62,82.62,0,0,0-16.45-18.93,66,66,0,0,0-9.21-6.42c-3.94-2.26-7.82-3.77-9.91-8.12-3.15-6.53-3.56-12.63-9.81-17.24-5.48-4.05-12.3-5.58-17-10.72a2.53,2.53,0,0,0-4.27,1.77c-.06-2-3.37-4.87-5.18-5.31-2.32-.55-4.25.62-5.71,2.37-2.08,2.49-3,5.78-4.15,8.74a57.27,57.27,0,0,1-6.32,11.74c-10.14,14.46-26.07,21.61-43.35,23-7.74.62-17,1.33-24.34-.4a58.88,58.88,0,0,0-25.24-.61c-3.15.63-8.51,1.32-11,3.42-1.91,1.59-1.69,4.84-1.68,7.13,0,1.77.43,5,.48,6,0-.26,0,1.78,0,2.3V298.91a2.54,2.54,0,0,0,2.5,2.5h377.26a2.53,2.53,0,0,0,2.5-2.5q-2.57-29.25-6.7-58.35c-1.84-12.88-3.8-25.87-7.11-38.48-4.19-15.94-13.84-29.19-21.54-43.54-5.25-9.8-7.56-20.09-11.35-30.41-1.76-4.8-6.24-14.9-13.12-12.87-3.08.91-1.77,5.74,1.33,4.82,5-1.48,9,15.88,9.93,19A113.86,113.86,0,0,0,3399,163.87c7.38,13.17,15.92,25.57,19.7,40.37,6.19,24.19,8.74,49.49,11.39,74.26.73,6.8,1.43,13.6,2,20.41l2.5-2.5H3057.4l2.5,2.5V170.8c0-5.22-1.08-10.73-.09-15.82l-1.74,1.75a54.56,54.56,0,0,1,24.84-3.95c3.93.34,7.59,1.75,11.44,2.2a89.54,89.54,0,0,0,9.56.14c14,.11,28.49-1.2,41-8.13a58.9,58.9,0,0,0,24.16-25.66c1.42-2.93,2.21-7.52,4.19-10,2.49-3.14,3.54.65,5.67,2.12,3.53,2.42,7.67-.14,7.53-4.25l-4.26,1.77c4.2,4.57,9.72,6.56,15,9.56a17.06,17.06,0,0,1,8.06,8.86c1.34,3.45,1.89,7.16,3.93,10.32,3.7,5.75,11.1,7.89,16.43,11.8a75.17,75.17,0,0,1,18.2,19.88,2.53,2.53,0,0,0,3.92.5c3-3.19,6.41-7.32,10.86-8.44,5.49-1.39,6.58,3,10.21,5.51,5.37,3.71,8.95-3.32,12.25-6.46s7.35-6.35,11.42-2.54c2.12,2,3.08,4.93,5.46,6.73,5,3.78,9.61-.9,13.31-4.24,3.15-2.83,6.28-5.89,10.05-7.91,4.54-2.43,7.88-1.29,12.34.65a15.18,15.18,0,0,0,15.7-1.62c5.74-4,9.69-10.11,13.38-15.93,4.09-6.43,8.48-14.63,16-17.56C3381.63,118.92,3380.34,114.08,3377.34,115.26Z"/><path class="cls-1" d="M3964.43,126.67c-14,2.75-23.7,12.71-33.39,21.32s-22.77,17-37,15c-5-.69-9.63-2.63-14.63-3.33-14.45-2-27.41,6.49-39.91,12.64-2.61,1.28-5.49,2.52-8.54,2.33-6-.37-9.26-5.73-14.31-8.35-10.16-5.25-23,1.73-32.1,8.08a10.29,10.29,0,0,1-4.9,2.2c-3.44.28-6-2.33-8.73-4-5.38-3.4-13.08-3.59-19.58-1.86s-12.1,5.1-17.56,8.41c-12.39-11.13-28.14-19.84-45.52-25.17-5.71-1.76-11.94-3.34-15.75-7.17-3.07-3.09-4.08-7.18-6.68-10.54-8.29-10.66-28.36-10-40.39-18,1.07,2.38-4,3.57-6.59,2.09s-4.12-4.12-7.13-4.88c-5.28-1.33-9.23,3.75-11.72,7.72-11,17.56-33.71,28.89-57.37,34s-48.54,4.72-73,4.32l-.7.06a162.19,162.19,0,0,0-64.55,1.83c-1.74,4,0,10.68,0,10.68V307.91h659.09s-12.5-82-29-105.27c-13.08-18.45-35.39-32.31-45.55-51.91-5.18-10-10-23.23-23.39-24.23Z"/><path class="cls-1" d="M3963.76,124.26c-16.39,3.57-26.48,16-39.15,25.84-7.55,5.83-16.59,10.72-26.36,10.72-8.7,0-16.61-4.42-25.43-3.83-8.12.54-15.69,3.68-22.91,7.23-3.69,1.82-7.28,3.82-11,5.61-5.68,2.76-9.72,2.88-14.75-1.06-5.62-4.42-10.74-7.43-18.19-6.61-7.82.86-15,4.93-21.46,9.23-2.75,1.83-4.9,3.28-8.28,1.77-1.92-.85-3.5-2.5-5.38-3.48a25.41,25.41,0,0,0-11.73-2.54c-9.82.05-18.48,4.88-26.65,9.82l3,.39a121.24,121.24,0,0,0-29-19,136.42,136.42,0,0,0-15.95-6.28c-6.26-2-13.91-3.24-17.9-9-2.73-3.95-4.16-8.25-7.93-11.44a34.07,34.07,0,0,0-10.16-5.55c-9.25-3.49-19.43-4.62-27.9-10-2-1.26-4,.81-3.68,2.82-.11-.59-2.5-.53-2.91-.73a22.24,22.24,0,0,1-3.46-2.77,11.91,11.91,0,0,0-4.28-2.36,10.28,10.28,0,0,0-8.79,2.09c-2.81,2.09-4.58,5.09-6.5,7.94a55.63,55.63,0,0,1-9.41,10.57c-14.34,12.67-33.55,19.1-52.11,22.32a234.25,234.25,0,0,1-33.86,3.05c-10.73.29-21.74.65-32.46,0-10.37-.65-20.41-2.52-30.9-2.34a164.75,164.75,0,0,0-31.07,3.49c-3.91.82-5.38,1.09-6,5.27-.46,3.09.29,5.88.59,8.9a11.59,11.59,0,0,0,0,1.78V307.91a2.54,2.54,0,0,0,2.5,2.5h659.09a2.55,2.55,0,0,0,2.41-3.17A607.91,607.91,0,0,0,4052.58,243c-3.47-13-7.21-26.83-14.08-38.57-9.64-16.44-26.36-27.62-38.58-42-7-8.27-10.44-18.15-16.46-27-4.26-6.23-11.56-12.59-19.7-11.21-3.16.53-1.82,5.35,1.33,4.82,8.38-1.42,14.64,9.29,17.78,15.33,4.13,7.93,8.13,15.34,14,22.16,11.91,13.81,28.27,24.73,37.48,40.71,6.52,11.31,10.05,24.51,13.38,37,3.62,13.6,6.58,27.38,9.22,41.21,1.46,7.65,2.85,15.33,4,23l2.41-3.16H3404.32l2.5,2.5V179.8c0-4.87-1.59-11.41-.08-15.82l-1.75,1.74a161.52,161.52,0,0,1,56.55-2.85c17.19,2.2,35.07,1.69,52.37.54,29.82-2,64.93-9.26,84.63-34,2.4-3,4.16-6.79,7-9.44,5.49-5.14,8.2,1,13,2.85,4,1.58,10.3-.08,9.33-5.31l-3.68,2.83c7.72,4.91,16.8,6.53,25.4,9.25,4.4,1.39,9.09,3.07,12.52,6.29,3.81,3.57,5,9,8.64,12.65,3.28,3.28,7.8,5,12.13,6.36,5.9,1.91,11.8,3.68,17.52,6.12A116.92,116.92,0,0,1,3732,180.89a2.58,2.58,0,0,0,3,.39c8.21-5,17-10,26.95-9,4.55.46,7.42,2.58,11.16,4.84,2.62,1.57,5.49,2.5,8.53,1.62,3.44-1,6.41-3.81,9.44-5.63a43.82,43.82,0,0,1,12.83-5.56c4.32-1,8.72-.73,12.58,1.58,3.14,1.88,5.57,4.75,8.84,6.45,6.88,3.57,13.51-.08,19.74-3.28,7.92-4.08,15.94-8.58,24.86-10,9.1-1.42,16.91,2.71,25.78,3.4,8,.61,15.8-1.81,22.74-5.6,16.62-9.08,27.3-26.84,46.63-31C3968.23,128.39,3966.9,123.57,3963.76,124.26Z"/><path class="cls-1" d="M4537.63,126.67c-14.05,2.75-23.69,12.71-33.38,21.32s-22.78,17-37,15c-5-.69-9.63-2.63-14.63-3.33-14.45-2-27.41,6.49-39.91,12.64-2.61,1.28-5.49,2.52-8.54,2.33-6-.37-9.26-5.73-14.31-8.35-10.16-5.25-23,1.73-32.1,8.08a10.29,10.29,0,0,1-4.9,2.2c-3.45.28-6-2.33-8.73-4-5.39-3.4-13.08-3.59-19.59-1.86s-12.09,5.1-17.55,8.41c-12.4-11.13-28.15-19.84-45.52-25.17-5.71-1.76-11.94-3.34-15.75-7.17-3.07-3.09-4.08-7.18-6.69-10.54-8.28-10.66-28.35-10-40.38-18,1.07,2.38-4,3.57-6.59,2.09s-4.13-4.12-7.14-4.88c-5.28-1.33-9.23,3.75-11.71,7.72-11,17.56-33.71,28.89-57.37,34s-48.54,4.72-73,4.32l-.7.06a162.18,162.18,0,0,0-64.55,1.83c-1.74,4,0,10.68,0,10.68V307.91h659.08s-12.49-82-29-105.27c-13.08-18.45-35.39-32.31-45.55-51.91-5.18-10-10-23.23-23.39-24.23Z"/><path class="cls-1" d="M4537,124.26c-16.39,3.57-26.48,16-39.16,25.84-7.55,5.83-16.58,10.72-26.35,10.72-8.71,0-16.61-4.42-25.44-3.83-8.12.54-15.69,3.68-22.9,7.23-3.69,1.82-7.29,3.82-11,5.61-5.69,2.76-9.72,2.88-14.75-1.06-5.62-4.42-10.74-7.43-18.19-6.61-7.82.86-15,4.93-21.47,9.23-2.74,1.83-4.89,3.28-8.27,1.77-1.92-.85-3.5-2.5-5.38-3.48a25.41,25.41,0,0,0-11.73-2.54c-9.83.05-18.48,4.88-26.65,9.82l3,.39a121.24,121.24,0,0,0-29-19,136.42,136.42,0,0,0-15.95-6.28c-6.27-2-13.91-3.24-17.91-9-2.73-3.95-4.15-8.25-7.92-11.44a34.07,34.07,0,0,0-10.16-5.55c-9.25-3.49-19.44-4.62-27.91-10-2-1.26-4,.81-3.67,2.82-.11-.59-2.5-.53-2.92-.73a22.64,22.64,0,0,1-3.45-2.77,11.91,11.91,0,0,0-4.28-2.36,10.31,10.31,0,0,0-8.8,2.09c-2.8,2.09-4.57,5.09-6.49,7.94a56.32,56.32,0,0,1-9.41,10.57c-14.34,12.67-33.55,19.1-52.12,22.32a234,234,0,0,1-33.85,3.05c-10.73.29-21.74.65-32.46,0-10.38-.65-20.42-2.52-30.9-2.34a164.75,164.75,0,0,0-31.07,3.49c-3.91.82-5.39,1.09-6,5.27-.47,3.09.29,5.88.59,8.9-.07-.66,0,1,0,1.78V307.91a2.54,2.54,0,0,0,2.5,2.5h659.08a2.54,2.54,0,0,0,2.41-3.17A605.41,605.41,0,0,0,4625.78,243c-3.46-13-7.2-26.83-14.08-38.57-9.63-16.44-26.36-27.62-38.57-42-7-8.27-10.44-18.15-16.47-27-4.25-6.23-11.55-12.59-19.69-11.21-3.17.53-1.82,5.35,1.33,4.82,8.38-1.42,14.64,9.29,17.78,15.33,4.13,7.93,8.13,15.34,14,22.16,11.91,13.81,28.28,24.73,37.49,40.71,6.51,11.31,10.05,24.51,13.38,37,3.62,13.6,6.58,27.38,9.21,41.21,1.46,7.65,2.85,15.33,4,23l2.41-3.16H3977.53l2.5,2.5V179.8c0-4.87-1.59-11.41-.09-15.82l-1.74,1.74a161.5,161.5,0,0,1,56.55-2.85c17.18,2.2,35.07,1.69,52.37.54,29.82-2,64.93-9.26,84.62-34,2.41-3,4.16-6.79,7-9.44,5.48-5.14,8.2,1,13,2.85,4,1.58,10.31-.08,9.33-5.31l-3.67,2.83c7.72,4.91,16.8,6.53,25.4,9.25,4.4,1.39,9.09,3.07,12.52,6.29,3.81,3.57,5,9,8.64,12.65,3.28,3.28,7.8,5,12.12,6.36,5.91,1.91,11.8,3.68,17.53,6.12a117.23,117.23,0,0,1,31.62,19.86,2.57,2.57,0,0,0,3,.39c8.21-5,17-10,26.95-9,4.54.46,7.42,2.58,11.16,4.84,2.61,1.57,5.49,2.5,8.52,1.62,3.45-1,6.41-3.81,9.45-5.63a43.82,43.82,0,0,1,12.83-5.56c4.31-1,8.71-.73,12.57,1.58,3.15,1.88,5.57,4.75,8.85,6.45,6.88,3.57,13.5-.08,19.74-3.28,7.92-4.08,15.94-8.58,24.86-10,9.09-1.42,16.91,2.71,25.77,3.4,8,.61,15.81-1.81,22.74-5.6,16.63-9.08,27.31-26.84,46.64-31C4541.44,128.39,4540.11,123.57,4537,124.26Z"/></svg>