<svg id="Layer_1" data-name="Layer 1" xmlns="http://www.w3.org/2000/svg" viewBox="0 0 4662.57 360.69"><defs><style>.cls-1{fill:#fde8bf;}</style></defs><title>Artboard 1 copy 4</title><path class="cls-1" d="M190.06,195.18a58.26,58.26,0,0,1,42.55-5.66l.77-.57c9.9-7,22.73-9.07,34.79-7.57a38.9,38.9,0,0,1,10.09,2.47,55.37,55.37,0,0,1,7.13,3.8l9.62,5.76-1.83.31a14,14,0,0,1,10.44.12,22,22,0,0,1,5.16,3.29,49.35,49.35,0,0,1,10.77,12.32l1.34.56q-82.74.7-165.43-3.09l1.08.32A51,51,0,0,1,188.65,196Z"/><path class="cls-1" d="M821.36,162.06a54,54,0,0,0-46.44-7.48l-.83-.75c-10.81-9.3-24.82-12-38-10a36.55,36.55,0,0,0-11,3.26,57.56,57.56,0,0,0-7.78,5l-10.5,7.6,2,.42a12.78,12.78,0,0,0-11.39.15,23.43,23.43,0,0,0-5.63,4.35A62.77,62.77,0,0,0,680,180.92l-1.46.74q90.3.93,180.57-4.08L858,178c-9.82-9.59-22.43-14.92-35.05-14.8Z"/><path class="cls-1" d="M492.64,209.9c5.95-4.83,13.22-6.21,19.84-3.79l.36-.38a17.79,17.79,0,0,1,16.23-5.06,13.63,13.63,0,0,1,4.7,1.65,24.66,24.66,0,0,1,3.33,2.54l4.49,3.85-.86.21a4.71,4.71,0,0,1,4.87.08,10.55,10.55,0,0,1,2.41,2.2,32.39,32.39,0,0,1,5,8.24l.62.38q-38.58.47-77.15-2.07l.5.21c4.2-4.85,9.59-7.55,15-7.49Z"/><path class="cls-1" d="M411.12,142.87a58.23,58.23,0,0,1,42.54-5.66l.77-.57c9.9-7,22.74-9.07,34.79-7.57a38.8,38.8,0,0,1,10.09,2.47,53.59,53.59,0,0,1,7.13,3.81l9.63,5.75-1.84.32a13.92,13.92,0,0,1,10.44.11,21.56,21.56,0,0,1,5.16,3.3,49.13,49.13,0,0,1,10.77,12.31l1.34.56q-82.74.7-165.43-3.09l1.08.32a51,51,0,0,1,32.11-11.2Z"/><path class="cls-1" d="M1017.73,142.87a58.26,58.26,0,0,1,42.55-5.66l.76-.57c9.9-7,22.74-9.07,34.79-7.57a38.87,38.87,0,0,1,10.1,2.47,54.86,54.86,0,0,1,7.13,3.81l9.62,5.75-1.84.32a13.92,13.92,0,0,1,10.44.11,21.56,21.56,0,0,1,5.16,3.3,49.13,49.13,0,0,1,10.77,12.31l1.34.56q-82.74.7-165.43-3.09l1.08.32a51,51,0,0,1,32.11-11.2Z"/><path class="cls-1" d="M1353.29,181.71c8.7-7.09,19.31-9.13,29-5.58l.52-.55a25.88,25.88,0,0,1,23.7-7.45,20.26,20.26,0,0,1,6.88,2.43,35.82,35.82,0,0,1,4.86,3.74l6.55,5.67-1.24.31a6.84,6.84,0,0,1,7.11.11,15.42,15.42,0,0,1,3.51,3.24,47.51,47.51,0,0,1,7.34,12.12l.91.55q-56.37.69-112.71-3l.74.32c6.13-7.15,14-11.11,21.88-11Z"/><path class="cls-1" d="M1707.63,157.47a58.29,58.29,0,0,1,42.54-5.66l.77-.57c9.9-7,22.74-9.07,34.79-7.56a39.26,39.26,0,0,1,10.1,2.46A54.86,54.86,0,0,1,1803,150l9.62,5.76-1.84.31a14,14,0,0,1,10.44.11,21.56,21.56,0,0,1,5.16,3.3,49.18,49.18,0,0,1,10.77,12.32l1.34.56q-82.74.69-165.43-3.09l1.08.32a50.94,50.94,0,0,1,32.11-11.21Z"/><path class="cls-1" d="M2243,157.47a58.31,58.31,0,0,1,42.55-5.66l.76-.57c9.9-7,22.74-9.07,34.79-7.56a39.26,39.26,0,0,1,10.1,2.46,54.86,54.86,0,0,1,7.13,3.81l9.62,5.76-1.83.31a14,14,0,0,1,10.43.11,21.37,21.37,0,0,1,5.16,3.3,49,49,0,0,1,10.77,12.32l1.34.56q-82.74.69-165.43-3.09l1.08.32a51,51,0,0,1,32.12-11.21Z"/><path class="cls-1" d="M2577.19,224.67a41.75,41.75,0,0,1,31.39-4.33l.57-.43c7.3-5.37,16.77-6.93,25.66-5.78a27.75,27.75,0,0,1,7.45,1.89,39.11,39.11,0,0,1,5.26,2.9l7.1,4.4-1.36.24a10,10,0,0,1,7.71.09,16.16,16.16,0,0,1,3.8,2.51,37.24,37.24,0,0,1,7.94,9.41l1,.43q-61,.54-122-2.36l.8.24a36.83,36.83,0,0,1,23.69-8.55Z"/><path class="cls-1" d="M2485.62,152.36c6-5.23,13.35-6.73,20-4.11l.36-.41a17.18,17.18,0,0,1,16.38-5.48,13.34,13.34,0,0,1,4.76,1.78,25.87,25.87,0,0,1,3.36,2.76l4.53,4.18-.86.22a4.47,4.47,0,0,1,4.91.09,10.91,10.91,0,0,1,2.43,2.38,35.66,35.66,0,0,1,5.07,8.93l.64.41q-39,.51-77.92-2.24l.51.23c4.23-5.26,9.68-8.18,15.12-8.12Z"/><path class="cls-1" d="M2840.3,162.85a58.26,58.26,0,0,0-42.55-5.66l-.77-.57c-9.9-7-22.73-9.07-34.79-7.57a38.9,38.9,0,0,0-10.09,2.47,55.37,55.37,0,0,0-7.13,3.8l-9.62,5.76,1.83.31a14,14,0,0,0-10.44.12,21.78,21.78,0,0,0-5.15,3.29,49,49,0,0,0-10.77,12.32l-1.35.56q82.74.7,165.43-3.09l-1.08.32a51,51,0,0,0-32.11-11.2Z"/><path class="cls-1" d="M2996.84,179.65c7.25-7.21,16.1-9.29,24.17-5.67l.44-.57c5.62-7,12.92-9.07,19.77-7.56a15,15,0,0,1,5.73,2.46,32,32,0,0,1,4.06,3.81l5.46,5.76-1,.31a4.85,4.85,0,0,1,5.93.12,14.14,14.14,0,0,1,2.93,3.29,50.79,50.79,0,0,1,6.12,12.32l.77.56q-47,.71-94-3.09l.61.32c5.12-7.26,11.68-11.29,18.25-11.21Z"/><path class="cls-1" d="M3361.75,187a50.21,50.21,0,0,0-42.55-6.75l-.76-.67c-9.9-8.37-22.74-10.8-34.79-9a34.2,34.2,0,0,0-10.1,2.94,53.45,53.45,0,0,0-7.13,4.53l-9.62,6.85,1.83.38a11.89,11.89,0,0,0-10.44.13,21.61,21.61,0,0,0-5.15,3.93A56.27,56.27,0,0,0,3232.27,204l-1.34.67q82.72.82,165.42-3.68l-1.07.38c-9-8.65-20.55-13.44-32.12-13.34Z"/><path class="cls-1" d="M3586.8,142.87a58.26,58.26,0,0,1,42.55-5.66l.77-.57c9.9-7,22.73-9.07,34.79-7.57a38.9,38.9,0,0,1,10.09,2.47,54.22,54.22,0,0,1,7.13,3.81l9.62,5.75-1.83.32a13.92,13.92,0,0,1,10.44.11,21.51,21.51,0,0,1,5.15,3.3,48.74,48.74,0,0,1,10.77,12.31l1.34.56q-82.73.7-165.42-3.09l1.08.32a51,51,0,0,1,32.11-11.2Z"/><path class="cls-1" d="M3831.27,181.47a58.26,58.26,0,0,1,42.55-5.66l.77-.57c9.9-7,22.74-9.07,34.79-7.57a38.8,38.8,0,0,1,10.09,2.47,55.37,55.37,0,0,1,7.13,3.8l9.62,5.76-1.83.31a14,14,0,0,1,10.44.12,21.84,21.84,0,0,1,5.16,3.29,49.35,49.35,0,0,1,10.77,12.32l1.34.56q-82.74.7-165.43-3.09l1.08.32a51,51,0,0,1,32.11-11.2Z"/><path class="cls-1" d="M4425.31,162.85a58.24,58.24,0,0,1,42.54-5.66l.77-.57c9.9-7,22.74-9.07,34.79-7.57a38.8,38.8,0,0,1,10.09,2.47,54.71,54.71,0,0,1,7.13,3.8l9.63,5.76-1.84.31a14,14,0,0,1,10.44.12,21.84,21.84,0,0,1,5.16,3.29,49.35,49.35,0,0,1,10.77,12.32l1.34.56q-82.74.7-165.43-3.09l1.08.32a51,51,0,0,1,32.11-11.2Z"/><path class="cls-1" d="M4135.35,162.91a39.32,39.32,0,0,1,31.58-4.69l.57-.47c7.35-5.83,16.88-7.52,25.83-6.27a26.53,26.53,0,0,1,7.49,2,39.52,39.52,0,0,1,5.29,3.16l7.15,4.76-1.36.26a9.37,9.37,0,0,1,7.74.1,15.86,15.86,0,0,1,3.83,2.73,39.72,39.72,0,0,1,8,10.2l1,.46q-61.41.59-122.8-2.55l.8.26a35.47,35.47,0,0,1,23.84-9.28Z"/></svg>