<svg id="Layer_1" data-name="Layer 1" xmlns="http://www.w3.org/2000/svg" viewBox="0 0 4662.57 360.69"><defs><style>.cls-1{fill:#b04333;}</style></defs><title>Artboard 1 copy 2</title><path class="cls-1" d="M251.85,205.71c-1.7-1-10.53-1.1-11.79-2.58-1.41-1.65-1-4.11-.72-6.26s-.08-4.87-2.09-5.67A18.38,18.38,0,0,1,235,198a1.56,1.56,0,0,1,.6,2.71A7,7,0,0,1,232,193a13.59,13.59,0,0,0,.85-3.39,6.75,6.75,0,0,0-1.08-3.07l-5.33-9.75a4.49,4.49,0,0,0-2.74,3.71L222,195.52a2.4,2.4,0,0,1-.3,1.09c-.79,1.19-2.64.21-3.59-.87l-1-14.78c-.16-2.36-.39-4.9-1.92-6.7a1.64,1.64,0,0,0-2.39,1.3A35.54,35.54,0,0,1,211.05,191c-.59,1.69-1,4.16.73,4.73A165.08,165.08,0,0,1,194.63,190,21.34,21.34,0,0,0,189,179.83a7.6,7.6,0,0,1-1.47,6.73,5.22,5.22,0,0,1,3.26,4.34L184.2,188a2.64,2.64,0,0,1-1.6-1.33c-.23-.67.52-1.57,1.12-1.19l-2.28-3.06a1.47,1.47,0,0,0-.43-2.71c1.59-1,.35-3.44-1-4.78l2.36-2.77a9.42,9.42,0,0,1-7.18,1.66l1.62,3.24a16.31,16.31,0,0,0-5.19,9.36A2.82,2.82,0,0,0,168.3,189h-4.19l.07-12.73c-1.34-1.24-3.12-2.57-4.81-1.89a5,5,0,0,0-1.91,1.79L153,182.26c-.63.87-.89,2.58.18,2.56a9,9,0,0,0-3.83,1.78,4.22,4.22,0,0,1,2.32,3.05,105.79,105.79,0,0,1-12.08,2.41l-3.72-10.21c-.65-1.76-.74-4.52,1.13-4.72l-4.08-3.57-.81,3.78-3,.1a3.91,3.91,0,0,1,.06,5.3l-1.81,2.66a4.58,4.58,0,0,1-5-1.76,13.48,13.48,0,0,1-2.11-5.16l-2.4-9.5a8,8,0,0,0-.82-2.24,4,4,0,0,0-5.6-1L110,178.63c-3-1.16-6.36-2.63-7.52-5.65-.44-1.12-.51-2.35-.84-3.52a8.4,8.4,0,0,0-3.3-4.62,3,3,0,0,0-3-.53c-1.47.82-1.09,3-1.63,4.59-1.14,3.33-5.8,3.29-8.87,5-2.31,1.3-5.07,3.83-7,2.07a47.65,47.65,0,0,0-3.3-14.61c-1.39-3.45-4.29-7.3-7.91-6.45l-.67,1.56-3.61.4,1.32,2.49c-1.82,2.87-2.74,6.23-4.5,9.13s-6.45,5.46-9.83,5V255.1H251.85Z"/><path class="cls-1" d="M219.08,198.48c2.16-1.09,13.39-1.27,15-3,1.79-1.89,1.24-4.71.91-7.18s.1-5.57,2.66-6.49a19.66,19.66,0,0,0,2.8,7.79,1.72,1.72,0,0,0-.76,3.1,7.77,7.77,0,0,0,4.63-8.88c-.37-1.3-1.11-2.54-1.09-3.88a7.29,7.29,0,0,1,1.37-3.52l6.77-11.19a5.27,5.27,0,0,1,3.49,4.26L257,186.8a2.56,2.56,0,0,0,.37,1.24c1,1.37,3.36.24,4.57-1l1.26-17c.2-2.7.49-5.61,2.44-7.67,1.18-.68,3,.22,3,1.48a37.07,37.07,0,0,0,2.26,17.67c.75,1.94,1.23,4.76-.92,5.42a222.44,222.44,0,0,0,21.79-6.58A23.87,23.87,0,0,1,299,168.81a8.07,8.07,0,0,0,1.87,7.72,6.07,6.07,0,0,0-4.15,5l8.36-3.35a3.31,3.31,0,0,0,2-1.52c.29-.77-.66-1.81-1.42-1.37l2.89-3.5c-1.53-.51-1.08-3,.55-3.11-2-1.15-.44-3.94,1.23-5.48l-3-3.18a13,13,0,0,0,9.11,1.91l-2.05,3.72A18.21,18.21,0,0,1,321,176.34c2-.46,4.27,1.13,4.26,3h5.33l-.09-14.59c1.7-1.42,4-3,6.11-2.16a5.88,5.88,0,0,1,2.42,2l5.7,7c.8,1,1.13,3-.23,2.94a11.8,11.8,0,0,1,4.86,2,4.91,4.91,0,0,0-2.94,3.5,146.8,146.8,0,0,0,15.35,2.76l4.73-11.7c.82-2,.93-5.18-1.44-5.42l5.18-4.09,1,4.33,3.82.12a4.17,4.17,0,0,0-.08,6.08l2.3,3a6.16,6.16,0,0,0,6.29-2,14.44,14.44,0,0,0,2.68-5.91l3.05-10.89a8.29,8.29,0,0,1,1.05-2.56,5.41,5.41,0,0,1,7.11-1.11l1.84,14.74c3.84-1.34,8.08-3,9.56-6.48a39.29,39.29,0,0,0,1.06-4,9.79,9.79,0,0,1,4.2-5.3A4.16,4.16,0,0,1,418,151c1.86.94,1.37,3.44,2.06,5.26,1.44,3.82,7.37,3.77,11.27,5.75,2.94,1.48,6.44,4.39,8.94,2.36a50.07,50.07,0,0,1,4.21-16.74c1.75-4,5.44-8.37,10.05-7.4l.84,1.79,4.6.46-1.69,2.86c2.31,3.29,3.49,7.14,5.73,10.47s8.2,6.25,12.48,5.77v93.5H219.08Z"/><path class="cls-1" d="M661.8,207.78c-1.69-.91-10.53-1.06-11.79-2.47-1.41-1.58-1-3.94-.72-6s-.08-4.66-2.09-5.43a17.07,17.07,0,0,1-2.21,6.51,1.47,1.47,0,0,1,.6,2.6,6.6,6.6,0,0,1-3.64-7.42,12.29,12.29,0,0,0,.85-3.25,6.23,6.23,0,0,0-1.08-2.94L636.4,180a4.34,4.34,0,0,0-2.75,3.55L632,198a2.24,2.24,0,0,1-.3,1c-.79,1.14-2.64.2-3.59-.83l-1-14.17c-.16-2.26-.39-4.69-1.92-6.41a1.64,1.64,0,0,0-2.39,1.24A32.74,32.74,0,0,1,621,193.66c-.58,1.61-1,4,.73,4.53a171.09,171.09,0,0,1-17.15-5.5,20.28,20.28,0,0,0-5.64-9.71,7.05,7.05,0,0,1-1.47,6.45,5,5,0,0,1,3.26,4.16l-6.58-2.8c-.65-.28-1.37-.62-1.6-1.27s.52-1.51,1.12-1.14l-2.28-2.93a1.39,1.39,0,0,0-.43-2.6c1.59-1,.35-3.3-1-4.58l2.36-2.66a9.71,9.71,0,0,1-7.17,1.6l1.61,3.1a15.47,15.47,0,0,0-5.19,9,2.79,2.79,0,0,0-3.35,2.5h-4.19l.07-12.2c-1.34-1.19-3.12-2.46-4.81-1.81a4.86,4.86,0,0,0-1.91,1.72l-4.48,5.83c-.63.82-.89,2.47.18,2.45a9.09,9.09,0,0,0-3.83,1.7,4,4,0,0,1,2.32,2.93,109.93,109.93,0,0,1-12.08,2.3l-3.72-9.78c-.65-1.69-.74-4.33,1.13-4.53L542.85,177,542,180.6l-3,.09a3.64,3.64,0,0,1,.06,5.09l-1.81,2.54a4.7,4.7,0,0,1-4.95-1.69,12.58,12.58,0,0,1-2.11-4.94l-2.4-9.1a7.3,7.3,0,0,0-.82-2.14,4.09,4.09,0,0,0-5.6-.93L520,181.84c-3-1.12-6.36-2.52-7.52-5.42a32.48,32.48,0,0,1-.83-3.37,8.17,8.17,0,0,0-3.31-4.43,3.08,3.08,0,0,0-3-.5c-1.47.78-1.09,2.87-1.63,4.39-1.13,3.19-5.8,3.16-8.87,4.8-2.31,1.24-5.07,3.67-7,2a44,44,0,0,0-3.3-14c-1.39-3.31-4.29-7-7.91-6.18l-.67,1.49-3.61.39,1.32,2.38c-1.82,2.75-2.74,6-4.5,8.75s-6.45,5.23-9.83,4.83V255.1H661.8Z"/><path class="cls-1" d="M1071.82,207.73c-1.7-.85-10.53-1-11.79-2.31-1.41-1.48-1-3.69-.72-5.63s-.08-4.36-2.09-5.08a15.49,15.49,0,0,1-2.21,6.1,1.35,1.35,0,0,1,.6,2.43,6.06,6.06,0,0,1-3.64-7,11.24,11.24,0,0,0,.85-3,5.64,5.64,0,0,0-1.08-2.76l-5.33-8.76a4.14,4.14,0,0,0-2.74,3.33L1042,198.59a2,2,0,0,1-.3,1c-.79,1.08-2.64.19-3.59-.77l-1-13.28c-.16-2.12-.39-4.39-1.92-6a1.68,1.68,0,0,0-2.4,1.17A28.84,28.84,0,0,1,1031,194.5c-.59,1.52-1,3.73.73,4.25q-8.73-2.16-17.15-5.15a18.79,18.79,0,0,0-5.64-9.1,6.29,6.29,0,0,1-1.47,6,4.78,4.78,0,0,1,3.26,3.9l-6.58-2.63c-.65-.26-1.37-.58-1.6-1.18s.51-1.42,1.12-1.08l-2.28-2.74a1.28,1.28,0,0,0-.43-2.43c1.59-.91.35-3.09-1-4.3l2.35-2.48a10.28,10.28,0,0,1-7.17,1.49l1.62,2.91a14.28,14.28,0,0,0-5.19,8.4,2.76,2.76,0,0,0-3.35,2.35h-4.19l.07-11.43c-1.34-1.11-3.12-2.31-4.81-1.69a4.74,4.74,0,0,0-1.91,1.61L973,186.69c-.64.77-.89,2.31.18,2.29a9.45,9.45,0,0,0-3.83,1.6,3.86,3.86,0,0,1,2.32,2.74,117,117,0,0,1-12.08,2.16l-3.72-9.16c-.65-1.59-.74-4.06,1.13-4.25l-4.08-3.2-.81,3.4-3,.08a3.27,3.27,0,0,1,.06,4.77l-1.81,2.38a4.85,4.85,0,0,1-4.95-1.58,11.42,11.42,0,0,1-2.11-4.63l-2.4-8.53a6.76,6.76,0,0,0-.82-2,4.28,4.28,0,0,0-5.6-.86L930,183.43c-3-1.05-6.36-2.37-7.52-5.08a31.09,31.09,0,0,1-.84-3.15,7.65,7.65,0,0,0-3.3-4.16,3.29,3.29,0,0,0-3-.47c-1.46.73-1.08,2.69-1.62,4.12-1.14,3-5.8,3-8.87,4.5-2.31,1.16-5.07,3.44-7,1.85a39.12,39.12,0,0,0-3.3-13.11c-1.39-3.1-4.29-6.55-7.91-5.79l-.67,1.4-3.61.36,1.32,2.24c-1.82,2.57-2.74,5.59-4.5,8.19s-6.46,4.9-9.83,4.53v73.21h202.58Z"/><path class="cls-1" d="M1468.27,224.64c-1.87-.71-11.65-.82-13-1.92-1.56-1.23-1.08-3.06-.79-4.67s-.09-3.62-2.32-4.22a10.86,10.86,0,0,1-2.44,5.07c1.33.11,1.8,1.54.67,2-3.09-1-4.87-3.53-4-5.76.31-.85,1-1.66.94-2.53a4.09,4.09,0,0,0-1.19-2.28l-5.9-7.27a3.82,3.82,0,0,0-3,2.76l-1.85,11.22a1.44,1.44,0,0,1-.33.81c-.87.89-2.92.16-4-.64l-1.1-11c-.18-1.75-.43-3.64-2.12-5-1-.44-2.64.14-2.65,1a18.47,18.47,0,0,1-2,11.47c-.65,1.26-1.07,3.1.8,3.52-6.43-1.18-12.77-2.61-19-4.27a15.61,15.61,0,0,0-6.24-7.54,4.33,4.33,0,0,1-1.62,5c2,.5,3.43,1.81,3.6,3.23l-7.27-2.18c-.73-.21-1.52-.48-1.78-1s.57-1.18,1.24-.89l-2.52-2.28c1.34-.33.95-2-.47-2,1.75-.75.38-2.56-1.08-3.56l2.61-2.06a14.62,14.62,0,0,1-7.94,1.24l1.79,2.41a11.91,11.91,0,0,0-5.74,7c-1.75-.3-3.71.73-3.71,2h-4.64l.09-9.48c-1.48-.92-3.45-1.92-5.32-1.4a5,5,0,0,0-2.11,1.33l-5,4.53c-.71.64-1,1.92.2,1.91a12.46,12.46,0,0,0-4.24,1.32,3.62,3.62,0,0,1,2.56,2.27c-4.39.77-8.86,1.37-13.36,1.79l-4.12-7.6c-.71-1.31-.81-3.36,1.26-3.52l-4.51-2.65-.91,2.81-3.32.07a2.29,2.29,0,0,1,.07,4l-2,2a6.51,6.51,0,0,1-5.47-1.31,8.44,8.44,0,0,1-2.33-3.84l-2.66-7.07a4.72,4.72,0,0,0-.91-1.67c-1.26-1.34-4.34-1.7-6.2-.72l-1.59,9.57c-3.35-.86-7-2-8.33-4.2a21.47,21.47,0,0,1-.92-2.62,7.09,7.09,0,0,0-3.66-3.45,4.61,4.61,0,0,0-3.35-.39c-1.63.61-1.2,2.23-1.8,3.42-1.26,2.48-6.42,2.45-9.81,3.73-2.56,1-5.61,2.85-7.79,1.54a26,26,0,0,0-3.66-10.88c-1.53-2.57-4.74-5.44-8.74-4.8l-.74,1.15-4,.31,1.47,1.85c-2,2.14-3,4.64-5,6.8s-7.13,4.06-10.86,3.75v60.74h224.08Z"/><path class="cls-1" d="M1689.89,224.64c-1.87-.71-11.65-.82-13-1.92-1.56-1.23-1.08-3.06-.8-4.67s-.08-3.62-2.31-4.22a10.86,10.86,0,0,1-2.44,5.07c1.32.11,1.79,1.54.67,2-3.09-1-4.87-3.53-4-5.76.31-.85,1-1.66.94-2.53a4.15,4.15,0,0,0-1.19-2.28l-5.9-7.27a3.82,3.82,0,0,0-3,2.76l-1.85,11.22a1.44,1.44,0,0,1-.33.81c-.87.89-2.92.16-4-.64l-1.1-11c-.18-1.75-.43-3.64-2.12-5-1-.44-2.64.14-2.65,1a18.47,18.47,0,0,1-2,11.47c-.66,1.26-1.07,3.1.8,3.52-6.43-1.18-12.77-2.61-19-4.27a15.61,15.61,0,0,0-6.24-7.54,4.34,4.34,0,0,1-1.63,5c2,.5,3.44,1.81,3.61,3.23l-7.28-2.18c-.72-.21-1.51-.48-1.77-1s.57-1.18,1.24-.89l-2.52-2.28c1.33-.33.94-2-.48-2,1.76-.75.39-2.56-1.07-3.56l2.6-2.06a14.57,14.57,0,0,1-7.93,1.24l1.78,2.41a11.93,11.93,0,0,0-5.73,7c-1.75-.3-3.71.73-3.71,2h-4.64l.08-9.48c-1.48-.92-3.45-1.92-5.32-1.4a5.06,5.06,0,0,0-2.11,1.33l-5,4.53c-.71.64-1,1.92.2,1.91a12.39,12.39,0,0,0-4.24,1.32,3.62,3.62,0,0,1,2.56,2.27q-6.6,1.15-13.36,1.79l-4.12-7.6c-.71-1.31-.81-3.36,1.26-3.52l-4.52-2.65-.9,2.81-3.32.07a2.29,2.29,0,0,1,.06,4l-2,2a6.51,6.51,0,0,1-5.47-1.31,8.55,8.55,0,0,1-2.34-3.84l-2.66-7.07a4.57,4.57,0,0,0-.91-1.67c-1.25-1.34-4.33-1.7-6.19-.72l-1.6,9.57c-3.34-.86-7-2-8.32-4.2a21.47,21.47,0,0,1-.92-2.62,7.09,7.09,0,0,0-3.66-3.45,4.64,4.64,0,0,0-3.36-.39c-1.62.61-1.19,2.23-1.79,3.42-1.26,2.48-6.42,2.45-9.82,3.73-2.55,1-5.6,2.85-7.78,1.54-.36-3.73-4.17-7.13-6.24-10.59-1.53-2.57-2.16-5.73-6.17-5.09l-.73,1.15c-1.33.1-2.18.82-3.51.92l1,1.24c-2,2.14-3,4.64-5,6.8s-7.14,27.69-10.87,27.38v37.11h224.09Z"/><path class="cls-1" d="M1045.31,208.07c1.89-.91,11.77-1,13.17-2.46,1.58-1.57,1.09-3.91.81-6s.08-4.63,2.33-5.4a15.89,15.89,0,0,0,2.47,6.48,1.41,1.41,0,0,0-.67,2.57c3.11-1.26,4.91-4.52,4.06-7.37-.31-1.08-1-2.11-1-3.23a5.88,5.88,0,0,1,1.21-2.92l6-9.29a4.42,4.42,0,0,1,3.07,3.53l1.86,14.34a2,2,0,0,0,.34,1c.88,1.14,3,.2,4-.82l1.11-14.09c.17-2.24.43-4.65,2.14-6.37,1-.56,2.66.19,2.67,1.24a29.25,29.25,0,0,0,2,14.67c.65,1.61,1.07,4-.82,4.5,6.5-1.51,12.9,8.45,19.16,6.33a19.69,19.69,0,0,1,6.31-9.64,6.43,6.43,0,0,0,1.64,6.41,5.09,5.09,0,0,0-3.64,4.12l7.34-2.78c.73-.27,1.53-.61,1.79-1.26s-.57-1.5-1.24-1.13l2.54-2.91a1.34,1.34,0,0,1,.48-2.58c-1.77-1-.39-3.28,1.08-4.56l-2.63-2.64a11.92,11.92,0,0,0,8,1.58l-1.8,3.09a15,15,0,0,1,5.79,8.91c1.77-.38,3.76.94,3.75,2.49h4.69l-.09-12.12c1.5-1.19,3.49-2.46,5.38-1.8a5.24,5.24,0,0,1,2.13,1.7l5,5.79c.72.83,1,2.46-.2,2.44a10.86,10.86,0,0,1,4.28,1.69,4.17,4.17,0,0,0-2.59,2.91,135.35,135.35,0,0,0,13.5,2.29l4.16-9.72c.72-1.68.82-4.3-1.27-4.5l4.56-3.39.91,3.6,3.36.09a3.34,3.34,0,0,0-.07,5.05l2,2.53a5.61,5.61,0,0,0,5.52-1.68,11.85,11.85,0,0,0,2.36-4.91l2.68-9a6.72,6.72,0,0,1,.92-2.13,5,5,0,0,1,6.26-.93l1.61,12.25c3.38-1.11,7.11-2.51,8.41-5.38a32.79,32.79,0,0,0,.93-3.36,8.17,8.17,0,0,1,3.69-4.4,3.8,3.8,0,0,1,3.39-.5c1.64.78,1.21,2.85,1.82,4.37,1.27,3.17,6.48,3.13,9.91,4.77,2.58,1.23,5.66,3.65,7.86,2a39.78,39.78,0,0,1,3.69-13.91c1.55-3.29,4.79-6.95,8.84-6.14l.74,1.48,4,.38-1.48,2.38c2,2.73,3.06,5.93,5,8.69s7.2,5.2,11,4.8V255.1H1045.31Z"/><path class="cls-1" d="M629,200.85c2.15-1,13.38-1.21,15-2.83,1.79-1.81,1.24-4.52.91-6.88s.1-5.34,2.66-6.22a18.3,18.3,0,0,0,2.8,7.46,1.64,1.64,0,0,0-.76,3c3.54-1.46,5.59-5.22,4.63-8.51-.37-1.25-1.11-2.44-1.09-3.72a6.85,6.85,0,0,1,1.37-3.38L661.32,169a5.09,5.09,0,0,1,3.48,4.07l2.13,16.55a2.41,2.41,0,0,0,.37,1.19c1,1.32,3.36.23,4.57-.95l1.26-16.24c.2-2.59.49-5.37,2.44-7.35,1.18-.65,3,.21,3,1.42a34.14,34.14,0,0,0,2.26,16.93c.75,1.85,1.23,4.56-.92,5.19,7.39-1.75,14.67-3.85,21.79-6.3a22.92,22.92,0,0,1,7.17-11.13,7.52,7.52,0,0,0,1.87,7.4,5.86,5.86,0,0,0-4.14,4.76l8.35-3.21a3.29,3.29,0,0,0,2-1.45c.29-.74-.66-1.73-1.42-1.31l2.89-3.36c-1.53-.48-1.08-2.92.55-3-2-1.11-.44-3.79,1.23-5.26l-3-3a13.43,13.43,0,0,0,9.11,1.82l-2,3.56a17.39,17.39,0,0,1,6.59,10.28c2-.44,4.27,1.08,4.26,2.87h5.33l-.09-14c1.7-1.37,4-2.83,6.11-2.08a5.92,5.92,0,0,1,2.42,2l5.7,6.68c.8,1,1.13,2.83-.23,2.81a12.09,12.09,0,0,1,4.86,2,4.78,4.78,0,0,0-2.94,3.36c5,1.13,10.18,2,15.35,2.64l4.73-11.21c.82-1.94.93-5-1.44-5.2l5.18-3.91,1,4.15,3.82.11a3.89,3.89,0,0,0-.08,5.83l2.31,2.91a6.32,6.32,0,0,0,6.28-1.93,13.67,13.67,0,0,0,2.68-5.67l3-10.43a7.75,7.75,0,0,1,1.05-2.46c1.44-2,5-2.51,7.11-1.06l1.84,14.12c3.84-1.28,8.08-2.89,9.56-6.21A36.71,36.71,0,0,0,819.9,161a9.4,9.4,0,0,1,4.2-5.08,4.27,4.27,0,0,1,3.86-.58c1.86.9,1.37,3.29,2.06,5,1.45,3.66,7.38,3.62,11.27,5.5,2.94,1.43,6.44,4.21,9,2.27a46.15,46.15,0,0,1,4.2-16c1.76-3.79,5.45-8,10-7.09l.84,1.71,4.6.45L868.24,150c2.31,3.15,3.49,6.84,5.73,10s8.2,6,12.48,5.53V255.1H629Z"/><path class="cls-1" d="M3111.07,221.37c1.69-1,10.53-1.1,11.79-2.57,1.41-1.65,1-4.12.72-6.27s.07-4.86,2.09-5.66a18.42,18.42,0,0,0,2.2,6.8,1.55,1.55,0,0,0-.6,2.7,7,7,0,0,0,3.64-7.74,14.16,14.16,0,0,1-.85-3.39,6.79,6.79,0,0,1,1.08-3.07l5.33-9.76a4.52,4.52,0,0,1,2.74,3.71l1.68,15.06a2.39,2.39,0,0,0,.29,1.09c.79,1.2,2.64.21,3.59-.86l1-14.79c.16-2.36.38-4.89,1.91-6.69a1.64,1.64,0,0,1,2.4,1.29,35.52,35.52,0,0,0,1.78,15.41c.59,1.69,1,4.16-.73,4.73a161.23,161.23,0,0,0,17.15-5.74,21.36,21.36,0,0,1,5.65-10.13,7.59,7.59,0,0,0,1.46,6.73,5.22,5.22,0,0,0-3.26,4.34l6.58-2.92a2.66,2.66,0,0,0,1.6-1.32c.23-.68-.51-1.58-1.11-1.2l2.27-3.05c-1.2-.44-.85-2.67.43-2.71-1.58-1-.35-3.45,1-4.79l-2.35-2.77a9.4,9.4,0,0,0,7.17,1.66l-1.61,3.25a16.29,16.29,0,0,1,5.18,9.36,2.82,2.82,0,0,1,3.36,2.61h4.19l-.08-12.73c1.34-1.24,3.12-2.57,4.81-1.88a4.76,4.76,0,0,1,1.91,1.79l4.48,6.08c.64.86.89,2.58-.18,2.56a8.91,8.91,0,0,1,3.83,1.77,4.22,4.22,0,0,0-2.31,3.06,107.38,107.38,0,0,0,12.07,2.41l3.73-10.21c.64-1.77.73-4.52-1.14-4.73l4.08-3.57.82,3.78,3,.1a3.93,3.93,0,0,0-.06,5.31l1.82,2.65a4.57,4.57,0,0,0,4.94-1.76,13.48,13.48,0,0,0,2.11-5.16l2.4-9.49a7.54,7.54,0,0,1,.83-2.24,4,4,0,0,1,5.6-1l1.44,12.85c3-1.16,6.36-2.62,7.53-5.64.43-1.13.5-2.36.83-3.52a8.42,8.42,0,0,1,3.3-4.63,3,3,0,0,1,3-.52c1.47.81,1.08,3,1.62,4.58,1.14,3.33,5.81,3.3,8.87,5,2.31,1.29,5.07,3.83,7,2.06a47.31,47.31,0,0,1,3.31-14.6c1.38-3.46,4.28-7.3,7.91-6.46l.66,1.56,3.62.4-1.33,2.5c1.82,2.87,2.74,6.23,4.51,9.13s6.45,5.45,9.82,5v81.55H3111.07Z"/><path class="cls-1" d="M4026,212.55c2.43-1,15.09-1.14,16.9-2.66,2-1.7,1.39-4.23,1-6.45s.1-5,3-5.83a15.52,15.52,0,0,0,3.16,7c-1.71.15-2.32,2.13-.86,2.79,4-1.37,6.3-4.9,5.22-8-.41-1.17-1.25-2.29-1.22-3.49a5.87,5.87,0,0,1,1.54-3.16l7.64-10.06c2.15.63,3.73,2.17,3.93,3.83l2.39,15.51a2,2,0,0,0,.43,1.12c1.13,1.23,3.78.22,5.14-.89l1.43-15.23c.22-2.43.55-5,2.74-6.89,1.34-.61,3.41.2,3.43,1.33a27.13,27.13,0,0,0,2.56,15.88c.84,1.73,1.38,4.28-1.05,4.87q12.51-2.48,24.57-5.91a21.4,21.4,0,0,1,8.09-10.44,6.21,6.21,0,0,0,2.1,6.93c-2.55.7-4.45,2.51-4.67,4.47l9.42-3c.94-.3,2-.66,2.3-1.36s-.74-1.63-1.6-1.23l3.26-3.15c-1.73-.45-1.22-2.74.61-2.79-2.27-1-.49-3.55,1.39-4.93l-3.37-2.85a17.71,17.71,0,0,0,10.28,1.71l-2.31,3.34a16.33,16.33,0,0,1,7.42,9.64c2.27-.41,4.81,1,4.81,2.69h6l-.1-13.1c1.92-1.28,4.47-2.66,6.89-2a6.57,6.57,0,0,1,2.73,1.84l6.42,6.27c.91.89,1.28,2.65-.26,2.64a15.46,15.46,0,0,1,5.49,1.82,4.87,4.87,0,0,0-3.32,3.15c5.7,1.07,11.48,1.89,17.3,2.48l5.34-10.51c.92-1.82,1-4.66-1.63-4.87l5.85-3.68,1.17,3.9,4.3.1a3.25,3.25,0,0,0-.08,5.46l2.59,2.74a8.05,8.05,0,0,0,7.09-1.82,12.07,12.07,0,0,0,3-5.31l3.44-9.78a6.67,6.67,0,0,1,1.18-2.31c1.63-1.86,5.62-2.35,8-1l2.07,13.24c4.33-1.2,9.12-2.71,10.78-5.82a29.66,29.66,0,0,0,1.2-3.63,9.46,9.46,0,0,1,4.73-4.76,5.69,5.69,0,0,1,4.35-.54c2.1.84,1.55,3.09,2.33,4.72,1.63,3.43,8.31,3.4,12.71,5.17,3.3,1.33,7.26,3.94,10.08,2.12a37.65,37.65,0,0,1,4.74-15c2-3.56,6.14-7.52,11.32-6.65l1,1.61,5.18.41-1.9,2.57c2.61,3,3.93,6.42,6.45,9.41s9.25,5.62,14.08,5.19v84H4026Z"/><path class="cls-1" d="M4620.34,212.25c-3.12-.88-19.46-1-21.79-2.39-2.6-1.54-1.8-3.84-1.33-5.84s-.14-4.53-3.86-5.28a12.66,12.66,0,0,1-4.08,6.34c2.21.14,3,1.92,1.11,2.52-5.15-1.24-8.13-4.43-6.73-7.22.53-1.06,1.6-2.06,1.58-3.15s-1-2-2-2.87l-9.85-9.09c-2.77.57-4.81,2-5.07,3.46l-3.09,14a1.6,1.6,0,0,1-.55,1c-1.46,1.11-4.88.19-6.64-.81l-1.83-13.77c-.3-2.2-.72-4.56-3.55-6.24-1.72-.55-4.4.18-4.42,1.21,1,4.83-.12,9.77-3.3,14.36-1.09,1.57-1.78,3.87,1.35,4.4-10.75-1.49-21.34-3.27-31.7-5.34-1.66-3.56-5.32-6.86-10.43-9.44,1.15,2.14.11,4.56-2.72,6.27,3.3.63,5.74,2.27,6,4l-12.16-2.72c-1.2-.27-2.53-.61-3-1.23s.95-1.48,2.06-1.12l-4.2-2.84c2.23-.41,1.58-2.49-.8-2.53,2.93-.94.64-3.21-1.79-4.46L4492,181a31.48,31.48,0,0,1-13.25,1.55l3,3c-5,2.25-8.45,5.38-9.57,8.72-2.93-.38-6.21.91-6.21,2.43h-7.75l.14-11.86c-2.47-1.15-5.77-2.4-8.89-1.76a9.35,9.35,0,0,0-3.53,1.67l-8.28,5.67c-1.17.8-1.65,2.4.34,2.38a26.17,26.17,0,0,0-7.08,1.65c2.22.53,3.87,1.63,4.28,2.85-7.35,1-14.81,1.71-22.32,2.24l-6.89-9.51c-1.19-1.64-1.36-4.21,2.1-4.4l-7.54-3.32-1.51,3.52-5.55.09c2.57,1.28,2.62,3.63.1,4.94l-3.35,2.48a13.78,13.78,0,0,1-9.14-1.65,10.71,10.71,0,0,1-3.9-4.8L4372.7,178a5.7,5.7,0,0,0-1.52-2.08c-2.1-1.69-7.25-2.13-10.35-.9l-2.67,12c-5.58-1.08-11.76-2.45-13.91-5.26-.8-1.05-.94-2.2-1.54-3.28-1-1.73-3.17-3.29-6.11-4.31a10.13,10.13,0,0,0-5.61-.49c-2.71.76-2,2.8-3,4.28-2.1,3.1-10.73,3.06-16.4,4.67-4.27,1.2-9.36,3.56-13,1.92a27.65,27.65,0,0,0-6.12-13.61,16.6,16.6,0,0,0-14.61-6l-1.23,1.45-6.69.38,2.45,2.32c-3.36,2.67-5.06,5.8-8.33,8.51s-11.92,5.08-18.15,4.69v76h374.43Z"/><path class="cls-1" d="M3143.83,214.14c-2.15-1.09-13.38-1.26-15-2.95-1.79-1.89-1.24-4.72-.92-7.19s-.09-5.57-2.65-6.49a19.72,19.72,0,0,1-2.81,7.8,1.72,1.72,0,0,1,.77,3.1c-3.55-1.53-5.59-5.45-4.63-8.88.36-1.3,1.1-2.54,1.08-3.89a7.26,7.26,0,0,0-1.37-3.52l-6.77-11.18a5.25,5.25,0,0,0-3.49,4.25l-2.12,17.27a2.47,2.47,0,0,1-.38,1.24c-1,1.38-3.36.25-4.56-1l-1.26-17c-.21-2.7-.49-5.61-2.44-7.67-1.18-.68-3,.22-3,1.49a37,37,0,0,1-2.27,17.67c-.75,1.93-1.22,4.76.93,5.41a222.39,222.39,0,0,1-21.79-6.57,24,24,0,0,0-7.18-11.62,8.06,8.06,0,0,1-1.86,7.72,6.09,6.09,0,0,1,4.14,5l-8.36-3.35c-.83-.33-1.74-.74-2-1.51s.65-1.81,1.41-1.37l-2.88-3.51c1.53-.5,1.08-3-.55-3.1,2-1.16.44-3.95-1.23-5.49l3-3.17a13,13,0,0,1-9.12,1.9l2.05,3.72a18.25,18.25,0,0,0-6.58,10.73c-2-.46-4.27,1.12-4.27,3h-5.32l.09-14.59c-1.7-1.42-4-3-6.11-2.16a6,6,0,0,0-2.43,2l-5.69,7c-.81,1-1.13,3,.23,2.94a12,12,0,0,0-4.87,2,4.91,4.91,0,0,1,2.94,3.51,152,152,0,0,1-15.34,2.76l-4.73-11.71c-.82-2-.94-5.18,1.44-5.42l-5.19-4.09-1,4.34-3.82.11a4.17,4.17,0,0,1,.07,6.08l-2.3,3.05a6.18,6.18,0,0,1-6.29-2,14.8,14.8,0,0,1-2.68-5.92L2973.58,172a8.32,8.32,0,0,0-1-2.57,5.43,5.43,0,0,0-7.12-1.11l-1.84,14.74c-3.83-1.33-8.08-3-9.56-6.48-.55-1.29-.64-2.7-1.06-4a9.73,9.73,0,0,0-4.2-5.31,4.15,4.15,0,0,0-3.85-.6c-1.87.94-1.38,3.44-2.07,5.26-1.44,3.82-7.37,3.78-11.27,5.75-2.93,1.48-6.44,4.39-8.94,2.36a50.12,50.12,0,0,0-4.2-16.74c-1.76-3.95-5.45-8.37-10-7.39l-.85,1.78-4.59.46,1.68,2.86c-2.31,3.29-3.48,7.14-5.72,10.47s-8.2,6.25-12.49,5.78v93.49h257.42Z"/><path class="cls-1" d="M2701.12,223.44c1.69-.91,10.53-1.05,11.79-2.47,1.41-1.58,1-3.94.72-6s.07-4.66,2.09-5.43a17.15,17.15,0,0,0,2.2,6.52,1.47,1.47,0,0,0-.6,2.59,6.58,6.58,0,0,0,3.64-7.42,13.11,13.11,0,0,1-.85-3.25,6.23,6.23,0,0,1,1.08-2.94l5.33-9.35a4.34,4.34,0,0,1,2.74,3.56l1.67,14.43a2.32,2.32,0,0,0,.3,1c.79,1.15,2.64.2,3.59-.83l1-14.16c.15-2.26.38-4.69,1.91-6.42a1.66,1.66,0,0,1,2.4,1.25,32.69,32.69,0,0,0,1.78,14.76c.59,1.62,1,4-.73,4.53a167,167,0,0,0,17.15-5.5,20.22,20.22,0,0,1,5.65-9.7,7,7,0,0,0,1.46,6.45,5,5,0,0,0-3.26,4.15l6.58-2.8a2.61,2.61,0,0,0,1.6-1.26c.23-.65-.51-1.52-1.11-1.15l2.27-2.93a1.38,1.38,0,0,1,.43-2.59c-1.58-1-.35-3.3,1-4.59l-2.35-2.65a9.76,9.76,0,0,0,7.17,1.59l-1.61,3.11a15.46,15.46,0,0,1,5.18,9,2.81,2.81,0,0,1,3.36,2.51h4.19l-.08-12.19c1.34-1.19,3.12-2.47,4.81-1.81a4.77,4.77,0,0,1,1.91,1.71L2800,201c.64.83.89,2.47-.18,2.45a9.09,9.09,0,0,1,3.83,1.7,4.08,4.08,0,0,0-2.31,2.93,111.72,111.72,0,0,0,12.07,2.31l3.73-9.78c.64-1.7.73-4.34-1.14-4.53l4.08-3.42.82,3.62,3,.1a3.64,3.64,0,0,0-.06,5.08l1.82,2.54a4.66,4.66,0,0,0,4.94-1.69,12.52,12.52,0,0,0,2.11-4.94l2.4-9.1a7.16,7.16,0,0,1,.83-2.14,4.09,4.09,0,0,1,5.59-.93L2843,197.5c3-1.11,6.36-2.52,7.52-5.41.44-1.08.51-2.26.84-3.37a8.09,8.09,0,0,1,3.3-4.44,3.12,3.12,0,0,1,3-.5c1.47.78,1.08,2.87,1.62,4.4,1.14,3.18,5.8,3.15,8.87,4.8,2.31,1.24,5.07,3.67,7,2a43.78,43.78,0,0,1,3.31-14c1.38-3.3,4.28-7,7.9-6.18l.67,1.49,3.62.39-1.33,2.39c1.82,2.75,2.74,6,4.51,8.75s6.45,5.22,9.82,4.82v78.14H2701.12Z"/><path class="cls-1" d="M2291.1,223.39c1.69-.85,10.53-1,11.79-2.31,1.41-1.48,1-3.69.72-5.62s.07-4.37,2.09-5.09a15.36,15.36,0,0,0,2.2,6.11,1.35,1.35,0,0,0-.6,2.43,6.09,6.09,0,0,0,3.65-7,11.16,11.16,0,0,1-.86-3,5.81,5.81,0,0,1,1.08-2.75l5.33-8.76a4.11,4.11,0,0,1,2.74,3.33l1.68,13.52a2,2,0,0,0,.29,1c.79,1.08,2.65.19,3.59-.77l1-13.27c.16-2.12.38-4.4,1.92-6a1.66,1.66,0,0,1,2.39,1.16,28.87,28.87,0,0,0,1.78,13.84c.59,1.51,1,3.73-.73,4.24a175.56,175.56,0,0,0,17.15-5.15,18.78,18.78,0,0,1,5.65-9.1,6.31,6.31,0,0,0,1.46,6.05,4.73,4.73,0,0,0-3.25,3.89l6.57-2.62c.65-.26,1.37-.58,1.6-1.19s-.51-1.42-1.11-1.07l2.27-2.74a1.29,1.29,0,0,1,.43-2.44c-1.58-.9-.34-3.09,1-4.29l-2.35-2.49a10.24,10.24,0,0,0,7.17,1.49l-1.61,2.91a14.35,14.35,0,0,1,5.18,8.4,2.77,2.77,0,0,1,3.36,2.35h4.19l-.07-11.42c1.33-1.12,3.11-2.31,4.8-1.7a4.67,4.67,0,0,1,1.91,1.61l4.48,5.46c.64.78.89,2.31-.18,2.3a9.24,9.24,0,0,1,3.83,1.59,3.86,3.86,0,0,0-2.31,2.74,119.59,119.59,0,0,0,12.07,2.17l3.73-9.17c.64-1.58.73-4.06-1.14-4.24l4.08-3.2.82,3.39,3,.09a3.26,3.26,0,0,0-.06,4.76l1.82,2.39a4.87,4.87,0,0,0,4.94-1.59,11.42,11.42,0,0,0,2.11-4.63l2.41-8.52a6.09,6.09,0,0,1,.82-2,4.28,4.28,0,0,1,5.6-.87l1.44,11.54c3-1,6.36-2.36,7.53-5.07.43-1,.5-2.12.83-3.16a7.61,7.61,0,0,1,3.31-4.15,3.22,3.22,0,0,1,3-.47c1.47.73,1.08,2.69,1.62,4.11,1.14,3,5.81,3,8.88,4.5,2.3,1.16,5.06,3.44,7,1.85a38.84,38.84,0,0,1,3.31-13.1c1.38-3.1,4.29-6.56,7.91-5.8l.66,1.4,3.62.36-1.33,2.24c1.82,2.58,2.74,5.59,4.51,8.2s6.45,4.9,9.82,4.52v73.21H2291.1Z"/><path class="cls-1" d="M1886.7,235.48c1.94-.8,12.06-.93,13.51-2.17,1.61-1.39,1.11-3.46.82-5.28s.09-4.09,2.4-4.77A12.82,12.82,0,0,0,1906,229c-1.37.13-1.85,1.74-.69,2.28,3.2-1.12,5-4,4.18-6.52-.33-1-1-1.87-1-2.86a4.8,4.8,0,0,1,1.23-2.58l6.11-8.22a4.13,4.13,0,0,1,3.14,3.12l1.92,12.69a1.55,1.55,0,0,0,.34.91c.9,1,3,.18,4.11-.72l1.14-12.46c.18-2,.44-4.12,2.19-5.63,1.07-.5,2.73.16,2.75,1.09a22.6,22.6,0,0,0,2,13c.67,1.42,1.1,3.5-.84,4q10-2,19.64-4.83a17.54,17.54,0,0,1,6.47-8.54,5.15,5.15,0,0,0,1.68,5.67c-2,.57-3.55,2.06-3.73,3.66l7.53-2.46c.75-.25,1.57-.55,1.83-1.12s-.58-1.33-1.27-1l2.6-2.58c-1.38-.37-1-2.24.5-2.28-1.82-.85-.4-2.9,1.11-4l-2.7-2.33a13.91,13.91,0,0,0,8.22,1.4l-1.85,2.73a13.26,13.26,0,0,1,5.93,7.88c1.82-.34,3.85.82,3.85,2.2h4.8l-.08-10.71c1.53-1,3.57-2.17,5.5-1.59a5.23,5.23,0,0,1,2.19,1.5l5.13,5.13c.73.72,1,2.17-.21,2.15a12.09,12.09,0,0,1,4.39,1.5,3.88,3.88,0,0,0-2.65,2.57c4.55.87,9.17,1.55,13.83,2l4.27-8.6c.74-1.49.84-3.81-1.3-4l4.67-3,.94,3.19,3.44.08a2.7,2.7,0,0,0-.07,4.47l2.08,2.24a6.36,6.36,0,0,0,5.66-1.49,10,10,0,0,0,2.42-4.35l2.75-8a5.41,5.41,0,0,1,.94-1.89c1.3-1.52,4.49-1.92,6.41-.81l1.66,10.83c3.46-1,7.28-2.22,8.62-4.76a24.4,24.4,0,0,0,.95-3,7.63,7.63,0,0,1,3.79-3.89,4.39,4.39,0,0,1,3.47-.44c1.68.68,1.24,2.52,1.87,3.86,1.3,2.8,6.64,2.77,10.16,4.22,2.64,1.09,5.8,3.23,8,1.74a31.57,31.57,0,0,1,3.79-12.3c1.59-2.91,4.91-6.15,9.06-5.44l.76,1.31,4.14.35-1.51,2.1c2.08,2.41,3.14,5.24,5.16,7.69s7.39,4.59,11.25,4.24v68.69h-232Z"/><path class="cls-1" d="M1673,235.48c2-.8,12.5-.93,14-2.17,1.67-1.39,1.16-3.47.85-5.28s.09-4.09,2.48-4.77A12.74,12.74,0,0,0,1693,229c-1.42.12-1.92,1.74-.71,2.28,3.31-1.12,5.22-4,4.32-6.53-.34-1-1-1.87-1-2.85a4.67,4.67,0,0,1,1.28-2.59l6.32-8.22a4.23,4.23,0,0,1,3.26,3.13l2,12.69a1.61,1.61,0,0,0,.35.91c.94,1,3.14.18,4.26-.73l1.18-12.45c.19-2,.46-4.12,2.28-5.64,1.1-.5,2.82.16,2.84,1.09a21.84,21.84,0,0,0,2.11,13c.7,1.43,1.15,3.5-.86,4q10.35-2,20.34-4.84a17.58,17.58,0,0,1,6.7-8.53,5.06,5.06,0,0,0,1.74,5.67c-2.11.57-3.68,2.05-3.87,3.65l7.81-2.46c.77-.24,1.62-.54,1.9-1.11s-.61-1.33-1.33-1l2.7-2.57c-1.43-.37-1-2.25.51-2.28-1.88-.85-.41-2.91,1.15-4l-2.79-2.34a14.85,14.85,0,0,0,8.51,1.4l-1.91,2.73a13.4,13.4,0,0,1,6.15,7.89c1.88-.34,4,.82,4,2.2h5l-.09-10.72c1.59-1.05,3.7-2.17,5.71-1.59a5.43,5.43,0,0,1,2.26,1.51l5.32,5.12c.75.73,1.06,2.17-.22,2.16a12.84,12.84,0,0,1,4.55,1.49,4,4,0,0,0-2.75,2.58q7.08,1.31,14.33,2l4.42-8.6c.76-1.48.87-3.8-1.35-4l4.84-3,1,3.18,3.56.08a2.65,2.65,0,0,0-.07,4.47l2.16,2.24a6.73,6.73,0,0,0,5.86-1.48,9.89,9.89,0,0,0,2.51-4.35l2.85-8a5.44,5.44,0,0,1,1-1.88c1.35-1.53,4.66-1.93,6.65-.82l1.71,10.83c3.58-1,7.55-2.22,8.93-4.76a26.35,26.35,0,0,0,1-3,7.74,7.74,0,0,1,3.92-3.9,4.75,4.75,0,0,1,3.6-.44c1.74.69,1.28,2.52,1.93,3.86,1.34,2.81,6.88,2.78,10.52,4.22,2.74,1.09,6,3.23,8.35,1.74.38-4.21,4.48-8.05,6.69-12,1.64-2.91,2.32-6.48,6.62-5.76l.78,1.31c1.43.11,2.34.92,3.77,1l-1.05,1.4c2.16,2.41,3.25,5.24,5.35,7.69s7.65,31.32,11.65,31v42H1673Z"/><path class="cls-1" d="M2317.6,223.73c-1.89-.9-11.76-1-13.17-2.45-1.57-1.57-1.09-3.92-.8-6s-.08-4.63-2.34-5.39a15.69,15.69,0,0,1-2.46,6.47,1.41,1.41,0,0,1,.67,2.58c-3.12-1.27-4.91-4.52-4.07-7.38a11.29,11.29,0,0,0,1-3.22,5.81,5.81,0,0,0-1.2-2.93l-6-9.29a4.43,4.43,0,0,0-3.06,3.53L2284.29,214a2.09,2.09,0,0,1-.33,1c-.88,1.14-2.95.2-4-.82l-1.11-14.08c-.18-2.25-.43-4.66-2.15-6.37-1-.57-2.66.18-2.67,1.23a29.27,29.27,0,0,1-2,14.68c-.66,1.6-1.08,4,.81,4.5-6.5-1.52-12.89,8.45-19.16,6.33a19.74,19.74,0,0,0-6.3-9.65,6.45,6.45,0,0,1-1.64,6.41,5.12,5.12,0,0,1,3.64,4.13l-7.35-2.78c-.73-.28-1.53-.62-1.79-1.26s.58-1.5,1.25-1.14l-2.54-2.91a1.35,1.35,0,0,0-.48-2.58c1.77-1,.38-3.28-1.09-4.56l2.63-2.63a12,12,0,0,1-8,1.58l1.8,3.09a15.09,15.09,0,0,0-5.79,8.91c-1.77-.38-3.75.93-3.75,2.49h-4.68l.08-12.12c-1.49-1.18-3.48-2.45-5.37-1.8a5.13,5.13,0,0,0-2.13,1.71l-5,5.79c-.71.82-1,2.45.2,2.44a10.72,10.72,0,0,0-4.28,1.69,4.15,4.15,0,0,1,2.59,2.91c-4.44,1-8.95,1.75-13.49,2.29l-4.16-9.72c-.72-1.68-.82-4.31,1.26-4.51l-4.55-3.39-.92,3.6-3.35.09a3.33,3.33,0,0,1,.06,5.05l-2,2.53a5.62,5.62,0,0,1-5.53-1.68,11.77,11.77,0,0,1-2.35-4.91l-2.69-9a6.5,6.5,0,0,0-.92-2.13,5,5,0,0,0-6.25-.92l-1.62,12.24c-3.37-1.11-7.1-2.51-8.4-5.38a32,32,0,0,1-.94-3.35,8.23,8.23,0,0,0-3.69-4.41,3.83,3.83,0,0,0-3.39-.5c-1.64.78-1.21,2.86-1.81,4.37-1.27,3.17-6.49,3.14-9.91,4.78-2.58,1.23-5.66,3.64-7.86,2a40.07,40.07,0,0,0-3.7-13.91c-1.55-3.28-4.79-7-8.84-6.14l-.74,1.48-4,.39,1.48,2.37c-2,2.73-3.06,5.93-5,8.7s-7.21,5.19-11,4.79v65.87H2317.6Z"/><path class="cls-1" d="M2733.88,216.51c-2.15-1-13.38-1.21-15-2.83-1.79-1.81-1.24-4.51-.92-6.88s-.09-5.34-2.65-6.22a18.36,18.36,0,0,1-2.81,7.47,1.63,1.63,0,0,1,.77,3c-3.55-1.46-5.59-5.22-4.63-8.51.36-1.24,1.1-2.43,1.08-3.72a6.86,6.86,0,0,0-1.37-3.37l-6.77-10.72a5.09,5.09,0,0,0-3.49,4.08L2696,205.32a2.46,2.46,0,0,1-.38,1.19c-1,1.32-3.36.24-4.56-.94l-1.27-16.25c-.2-2.59-.49-5.37-2.43-7.35-1.19-.65-3,.22-3,1.43a34.29,34.29,0,0,1-2.27,16.93c-.75,1.85-1.23,4.56.93,5.19-7.39-1.75-14.67-3.86-21.79-6.3a22.85,22.85,0,0,0-7.18-11.13,7.47,7.47,0,0,1-1.86,7.39,5.9,5.9,0,0,1,4.14,4.76l-8.36-3.2c-.83-.32-1.74-.71-2-1.46s.65-1.73,1.41-1.31l-2.89-3.35c1.54-.49,1.09-2.93-.54-3,2-1.11.44-3.78-1.23-5.26l3-3a13.42,13.42,0,0,1-9.11,1.82l2,3.57a17.36,17.36,0,0,0-6.58,10.28c-2-.45-4.27,1.07-4.27,2.87h-5.33l.1-14c-1.7-1.36-4-2.83-6.11-2.07a5.91,5.91,0,0,0-2.43,2l-5.69,6.68c-.81,1-1.14,2.83.23,2.81a12.28,12.28,0,0,0-4.87,2,4.78,4.78,0,0,1,2.94,3.36,151.67,151.67,0,0,1-15.34,2.64l-4.74-11.21c-.81-1.94-.93-5,1.45-5.19l-5.19-3.92-1,4.15-3.82.11a3.89,3.89,0,0,1,.07,5.83l-2.3,2.92a6.36,6.36,0,0,1-6.29-1.94,13.86,13.86,0,0,1-2.68-5.67l-3-10.43a7.7,7.7,0,0,0-1.05-2.45,5.57,5.57,0,0,0-7.11-1.07l-1.84,14.12c-3.83-1.27-8.08-2.89-9.56-6.2a39.5,39.5,0,0,1-1.06-3.87,9.43,9.43,0,0,0-4.2-5.08A4.32,4.32,0,0,0,2535,171c-1.87.9-1.38,3.3-2.07,5-1.44,3.66-7.37,3.62-11.27,5.51-2.93,1.42-6.44,4.21-8.94,2.26a46.54,46.54,0,0,0-4.2-16c-1.76-3.8-5.45-8-10.05-7.09l-.85,1.71-4.59.44,1.68,2.74c-2.31,3.15-3.48,6.84-5.72,10s-8.2,6-12.49,5.53v89.58h257.42Z"/><path class="cls-1" d="M3519.44,237c1.69-.94,10.53-1.1,11.79-2.57,1.41-1.65,1-4.11.72-6.27s.07-4.86,2.09-5.66a18.37,18.37,0,0,0,2.2,6.8,1.55,1.55,0,0,0-.6,2.7,7,7,0,0,0,3.64-7.74,13.7,13.7,0,0,1-.85-3.39,6.71,6.71,0,0,1,1.08-3.07l5.33-9.76a4.52,4.52,0,0,1,2.74,3.71l1.67,15.07a2.49,2.49,0,0,0,.3,1.08c.79,1.2,2.64.21,3.59-.86l1-14.79c.15-2.36.38-4.89,1.91-6.69a1.65,1.65,0,0,1,2.4,1.3,35.53,35.53,0,0,0,1.78,15.41c.59,1.68,1,4.15-.73,4.73a166.67,166.67,0,0,0,17.15-5.74,21.43,21.43,0,0,1,5.64-10.13,7.61,7.61,0,0,0,1.47,6.73,5.2,5.2,0,0,0-3.26,4.33l6.58-2.92a2.63,2.63,0,0,0,1.6-1.32c.23-.67-.51-1.58-1.11-1.19l2.27-3.06c-1.21-.44-.85-2.66.43-2.71-1.58-1-.35-3.44,1-4.78l-2.35-2.77a9.44,9.44,0,0,0,7.17,1.66l-1.61,3.24a16.32,16.32,0,0,1,5.18,9.36,2.83,2.83,0,0,1,3.36,2.61h4.19l-.08-12.72c1.34-1.24,3.12-2.58,4.81-1.89a4.82,4.82,0,0,1,1.91,1.79l4.48,6.08c.64.86.89,2.58-.18,2.56a8.87,8.87,0,0,1,3.83,1.78,4.22,4.22,0,0,0-2.32,3,105.79,105.79,0,0,0,12.08,2.41l3.73-10.21c.64-1.77.73-4.52-1.14-4.73l4.08-3.56.82,3.78,3,.09a3.93,3.93,0,0,0-.06,5.31l1.82,2.66c1.75.66,3.78-.3,4.94-1.77a13.42,13.42,0,0,0,2.11-5.16l2.4-9.49a7.75,7.75,0,0,1,.83-2.24,4,4,0,0,1,5.59-1l1.45,12.86c3-1.16,6.36-2.63,7.52-5.65.44-1.13.51-2.36.84-3.52a8.46,8.46,0,0,1,3.3-4.63,3,3,0,0,1,3-.52c1.46.82,1.08,3,1.62,4.59,1.14,3.33,5.8,3.29,8.87,5,2.31,1.29,5.07,3.83,7,2.06a47.31,47.31,0,0,1,3.31-14.6c1.38-3.45,4.28-7.3,7.9-6.45l.67,1.55,3.62.41-1.33,2.49c1.82,2.87,2.74,6.23,4.51,9.13s6.45,5.46,9.82,5V286.4H3519.44Z"/><path class="cls-1" d="M3552.2,229.77c-2.15-1.08-13.38-1.26-15-3-1.8-1.89-1.24-4.71-.92-7.18s-.09-5.58-2.65-6.5a19.72,19.72,0,0,1-2.81,7.8,1.72,1.72,0,0,1,.77,3.1,7.75,7.75,0,0,1-4.63-8.88c.36-1.3,1.1-2.54,1.08-3.88a7.29,7.29,0,0,0-1.37-3.52l-6.77-11.19a5.28,5.28,0,0,0-3.49,4.25l-2.12,17.27a2.69,2.69,0,0,1-.38,1.25c-1,1.37-3.36.24-4.56-1l-1.27-16.95c-.2-2.71-.49-5.61-2.43-7.68-1.19-.67-3,.22-3.05,1.49a37.08,37.08,0,0,1-2.26,17.67c-.75,1.93-1.23,4.76.92,5.42a225,225,0,0,1-21.78-6.58,24,24,0,0,0-7.18-11.61,8,8,0,0,1-1.86,7.71,6.09,6.09,0,0,1,4.14,5l-8.36-3.34c-.83-.34-1.74-.75-2-1.52s.65-1.81,1.41-1.37l-2.89-3.5c1.54-.51,1.09-3.06-.54-3.11,2-1.16.44-3.95-1.24-5.48l3-3.18a13,13,0,0,1-9.11,1.9l2.05,3.72a18.26,18.26,0,0,0-6.59,10.73c-2-.46-4.26,1.12-4.26,3h-5.33l.1-14.59c-1.7-1.43-4-3-6.11-2.17a6,6,0,0,0-2.43,2l-5.69,7c-.81,1-1.14,2.95.23,2.93a11.85,11.85,0,0,0-4.87,2,4.91,4.91,0,0,1,2.94,3.5,149.27,149.27,0,0,1-15.34,2.76l-4.74-11.7c-.82-2-.93-5.19,1.45-5.42l-5.19-4.09-1,4.33-3.81.11a4.19,4.19,0,0,1,.07,6.09l-2.3,3a6.18,6.18,0,0,1-6.29-2,14.74,14.74,0,0,1-2.68-5.92L3382,187.67a8.19,8.19,0,0,0-1-2.56,5.4,5.4,0,0,0-7.11-1.11L3372,198.73c-3.83-1.33-8.08-3-9.56-6.47-.55-1.29-.64-2.71-1.06-4a9.74,9.74,0,0,0-4.2-5.3,4.09,4.09,0,0,0-3.85-.6c-1.87.93-1.38,3.43-2.07,5.26-1.44,3.81-7.37,3.77-11.27,5.74-2.93,1.48-6.44,4.39-8.94,2.37a50.24,50.24,0,0,0-4.2-16.74c-1.76-4-5.45-8.37-10.05-7.4l-.85,1.78-4.59.47,1.68,2.85c-2.31,3.29-3.48,7.14-5.72,10.47s-8.2,6.26-12.49,5.78v93.5H3552.2Z"/><path class="cls-1" d="M3713.2,207.58c1.38-1.21,8.63-1.41,9.67-3.3,1.15-2.11.8-5.26.59-8s.06-6.22,1.71-7.25a33.45,33.45,0,0,0,1.81,8.7c-1,.19-1.33,2.64-.49,3.46,2.29-1.7,3.61-6.07,3-9.91a24.28,24.28,0,0,1-.7-4.33,12.18,12.18,0,0,1,.88-3.93l4.37-12.48c1.24.77,2.14,2.68,2.26,4.75l1.37,19.27a4.34,4.34,0,0,0,.24,1.38c.65,1.54,2.17.27,2.95-1.1l.81-18.92c.13-3,.32-6.25,1.58-8.56.76-.75,2,.25,2,1.66a69.7,69.7,0,0,0,1.46,19.72c.48,2.15.79,5.31-.6,6a104.89,104.89,0,0,0,14.07-7.34,33.8,33.8,0,0,1,4.63-13,14.09,14.09,0,0,0,1.21,8.62c-1.47.86-2.55,3.11-2.68,5.54l5.4-3.73a2.77,2.77,0,0,0,1.31-1.7c.19-.86-.42-2-.91-1.52l1.86-3.91c-1-.57-.7-3.41.36-3.47-1.3-1.29-.29-4.4.79-6.12l-1.93-3.54a5.73,5.73,0,0,0,5.88,2.12l-1.32,4.15a25.5,25.5,0,0,1,4.25,12c1.3-.51,2.76,1.25,2.76,3.34h3.44l-.06-16.28c1.09-1.58,2.55-3.29,3.94-2.41a5.54,5.54,0,0,1,1.57,2.29l3.67,7.78c.52,1.1.73,3.3-.15,3.27a6.56,6.56,0,0,1,3.14,2.27,5.74,5.74,0,0,0-1.89,3.91,60.46,60.46,0,0,0,9.9,3.08l3.06-13.06c.53-2.26.6-5.78-.93-6l3.35-4.57.66,4.84,2.47.12a7.22,7.22,0,0,0,0,6.79l1.49,3.4c1.44.85,3.1-.38,4.06-2.26a23.51,23.51,0,0,0,1.73-6.6l2-12.14a13.43,13.43,0,0,1,.67-2.86c.94-2.32,3.22-2.93,4.6-1.24l1.18,16.44c2.48-1.48,5.22-3.36,6.17-7.22.36-1.44.42-3,.69-4.51a11.92,11.92,0,0,1,2.71-5.92c.73-.78,1.71-1.34,2.49-.67,1.2,1,.89,3.84,1.33,5.87.93,4.26,4.76,4.22,7.28,6.41,1.89,1.66,4.16,4.9,5.77,2.64a91,91,0,0,1,2.72-18.68c1.13-4.41,3.51-9.33,6.48-8.25l.55,2,3,.52-1.09,3.19c1.49,3.67,2.25,8,3.69,11.68s5.3,7,8.06,6.44V270.76H3713.2Z"/><path class="cls-1" d="M4048.58,212.18c-1.72-1.25-10.69-1.45-12-3.4-1.43-2.18-1-5.43-.73-8.28s-.08-6.42-2.12-7.48a29.83,29.83,0,0,1-2.24,9c1.21.2,1.64,2.73.61,3.57-2.83-1.75-4.47-6.27-3.7-10.23a22.94,22.94,0,0,0,.87-4.47,10.85,10.85,0,0,0-1.1-4.06l-5.41-12.89a6,6,0,0,0-2.78,4.9l-1.7,19.9a4,4,0,0,1-.3,1.44c-.8,1.58-2.68.27-3.65-1.15l-1-19.53c-.16-3.11-.39-6.46-1.94-8.84-.95-.78-2.42.26-2.43,1.71a60.67,60.67,0,0,1-1.81,20.36c-.6,2.23-1,5.49.74,6.25a141.75,141.75,0,0,1-17.41-7.58,31.29,31.29,0,0,0-5.73-13.39,12.47,12.47,0,0,1-1.49,8.9,6.9,6.9,0,0,1,3.31,5.72l-6.68-3.85a3,3,0,0,1-1.62-1.75c-.24-.89.52-2.09,1.13-1.58l-2.31-4c1.22-.59.86-3.52-.44-3.58,1.61-1.34.35-4.55-1-6.32l2.39-3.66a7.92,7.92,0,0,1-7.28,2.19l1.63,4.29a23.89,23.89,0,0,0-5.26,12.36c-1.61-.53-3.41,1.29-3.41,3.45h-4.25l.07-16.81c-1.35-1.64-3.16-3.4-4.88-2.5a5.77,5.77,0,0,0-1.93,2.37l-4.55,8c-.65,1.14-.91,3.41.18,3.38a8.28,8.28,0,0,0-3.89,2.35,5.58,5.58,0,0,1,2.35,4,85.64,85.64,0,0,1-12.26,3.18l-3.78-13.48c-.65-2.33-.74-6,1.16-6.25l-4.15-4.71-.82,5-3.05.13a6.38,6.38,0,0,1,.06,7l-1.85,3.51c-1.77.88-3.84-.39-5-2.33a21.3,21.3,0,0,1-2.14-6.81l-2.44-12.54a12.2,12.2,0,0,0-.83-3c-1.16-2.39-4-3-5.69-1.28l-1.46,17c-3.07-1.53-6.46-3.47-7.64-7.46-.44-1.49-.52-3.11-.85-4.65a11.55,11.55,0,0,0-3.35-6.11c-.91-.81-2.12-1.39-3.08-.69-1.49,1.08-1.1,4-1.65,6.06-1.16,4.4-5.89,4.35-9,6.62-2.34,1.71-5.14,5.06-7.14,2.72a78.83,78.83,0,0,0-3.36-19.28c-1.4-4.57-4.35-9.65-8-8.53l-.68,2.06-3.67.53,1.35,3.29c-1.85,3.79-2.79,8.23-4.58,12.07s-6.55,7.2-10,6.65V277.42h205.64Z"/></svg>