<svg id="Layer_1" data-name="Layer 1" xmlns="http://www.w3.org/2000/svg" viewBox="0 0 4662.57 1142.83"><defs><style>.cls-1{fill:#46172c;}.cls-2{fill:#231125;}.cls-3{fill:#2a1422;}</style></defs><title>Artboard 1 copy</title><path class="cls-1" d="M232.8,191.37l6.41-4.86c2.88-2.19,5.91-4.56,7.13-8a5.67,5.67,0,0,0,.25-3.52c-.85-2.84-4.32-3.82-7.26-4.22a103.44,103.44,0,0,0-20.44-.7c-6.75.45-14,1.45-19.88-2a8.57,8.57,0,0,1-4-4.47,4.74,4.74,0,0,1,1.69-5.45c.8-.48,1.86-.75,2.23-1.6a2.9,2.9,0,0,0-.34-2.31l-2.18-4.8a4.08,4.08,0,0,0-1.7-2.17,5.61,5.61,0,0,0-3,0c-3.56.41-6.82-1.79-10-3.55s-7.15-3.1-10.15-1.13c-1.56,1-2.49,2.74-3.67,4.19a14.16,14.16,0,0,1-7.76,4.83c-2.1.49-4.44.55-6.09,1.94-4,3.34-.13,10-1.79,14.88a43.25,43.25,0,0,0-10.21,3.62,33.37,33.37,0,0,0-13.94,13.68c-.39.7-.36,5.73.44,5.58Z"/><path class="cls-1" d="M832.46,188.26,844.11,185c5.24-1.47,10.75-3.08,13-5.37.73-.76,1.07-1.6.45-2.37-1.55-1.92-7.86-2.58-13.2-2.85-12.31-.61-24.79-.77-37.18-.47s-25.54,1-36.17-1.33c-3.22-.7-6.14-1.7-7.29-3s-.11-3,3.07-3.67c1.46-.32,3.38-.5,4.07-1.08s0-1.06-.63-1.55l-4-3.24a6.06,6.06,0,0,0-3.08-1.46,26.23,26.23,0,0,0-5.39,0c-6.48.27-12.41-1.21-18.1-2.4s-13-2.09-18.46-.76c-2.84.69-4.53,1.85-6.68,2.82a44.64,44.64,0,0,1-14.12,3.27c-3.82.32-8.08.36-11.06,1.3-7.19,2.25-.24,6.73-3.27,10a185.81,185.81,0,0,0-18.57,2.44c-10.68,2.05-19.64,5.3-25.36,9.22-.7.48-.64,3.87.8,3.76Z"/><path class="cls-2" d="M166.59,200.76c-.11-1.23-.42,1.11-.88,0-1.47-3.55-4.51-10-8-11.82-4.53-2.41-9.71-3.21-14.8-3.89a5.89,5.89,0,0,1-3.5-1.28c-1.92-1.92-.75-5.94-3.12-7.25,0,1.31-2.07,1.23-3.19.55-5.9-3.6-9.28-11.58-16.13-12.43-1.46-.19-3.09,0-4.22-1-2.35-2-.26-6.32-2.32-8.57-1.61-1.76-4.58-1-6.49.47s-3.64,3.38-6,3.75c-3,.48-5.74-1.87-7.49-4.37s-3.1-5.42-5.62-7.14c-4-2.73-10.78-2.49-12.06-7.18-.41-1.51,0-3.16-.49-4.66-1-3.39-5.47-4.17-9-3.93a47.18,47.18,0,0,0-14,3.14l.72,65.6Z"/><path class="cls-2" d="M466.83,189.6c-.11-1.14-.41,1-.86,0-1.44-3.29-4.43-9.28-7.81-11-4.44-2.23-9.53-3-14.51-3.61a6,6,0,0,1-3.44-1.18c-1.88-1.78-.73-5.52-3.06-6.74,0,1.22-2,1.15-3.13.51-5.78-3.34-9.1-10.74-15.82-11.54-1.43-.17-3-.05-4.14-.92-2.3-1.81-.25-5.87-2.27-8-1.58-1.63-4.49-.88-6.37.44s-3.57,3.14-5.88,3.48c-3,.45-5.63-1.73-7.34-4s-3-5-5.51-6.63c-3.93-2.54-10.57-2.32-11.83-6.67-.4-1.4,0-2.94-.49-4.33-1-3.14-5.36-3.87-8.83-3.65a48.35,48.35,0,0,0-13.78,2.92l.7,60.91Z"/><path class="cls-2" d="M219.08,189.47a38.86,38.86,0,0,1,19.26-5.61c4.39-.11,9,.45,13-1.14,4.23-1.69,6.67-5.43,10.33-7.89,5.25-3.52,12.75-4.21,17.59-8.11,3-2.46,4.95-6.11,8.87-7.47,1.93-.66,4.41-.84,5.39-2.38.59-.93.39-2.07.59-3.11.64-3.36,5.2-5.23,6.69-8.4,1.14-2.42.27-5.21-1.26-7.47s-3.69-4.2-5.39-6.38a3,3,0,0,1-.87-2c.15-1.79,3-2.3,5.15-2.26,10.51.22,21.17,2,31.46.13,3.3-.59,6.55-1.56,9.93-1.63,6.79-.14,13.11,3.34,19.9,3.28v60.45Z"/><path class="cls-2" d="M712.79,206.63c-.12-1-.43.91-.91,0-1.51-2.91-4.64-8.21-8.19-9.7-4.67-2-10-2.64-15.23-3.2a7,7,0,0,1-3.61-1c-2-1.58-.77-4.88-3.21-6,0,1.08-2.13,1-3.29.46-6.07-3-9.55-9.5-16.61-10.21-1.5-.15-3.18,0-4.34-.81-2.42-1.6-.27-5.19-2.39-7-1.65-1.45-4.71-.78-6.68.38s-3.74,2.78-6.17,3.08c-3.1.39-5.91-1.53-7.7-3.58s-3.2-4.45-5.79-5.86c-4.13-2.25-11.1-2-12.41-5.89-.43-1.25,0-2.6-.52-3.83-1.07-2.78-5.63-3.42-9.27-3.23A59.19,59.19,0,0,0,592,152.79l.74,53.84Z"/><path class="cls-2" d="M444.88,204.06c.15-1,.55.92,1.15,0,1.91-2.91,5.86-8.2,10.34-9.7,5.88-2,12.62-2.64,19.22-3.19a10.63,10.63,0,0,0,4.55-1c2.49-1.57,1-4.87,4.05-6,.05,1.08,2.69,1,4.15.45,7.66-3,12.05-9.5,21-10.2,1.9-.15,4,0,5.48-.81,3.05-1.6.34-5.19,3-7,2.09-1.44,6-.78,8.44.38s4.72,2.78,7.78,3.09a13,13,0,0,0,9.72-3.59c2.27-2,4-4.45,7.3-5.86,5.21-2.24,14-2,15.67-5.89.53-1.24,0-2.6.65-3.83,1.35-2.78,7.1-3.42,11.69-3.23a93.25,93.25,0,0,1,18.25,2.58l-.93,53.84Z"/><path class="cls-2" d="M1244.19,202.39c-.33-1-1.2.94-2.52,0-4.19-3-12.86-8.38-22.68-9.91-12.92-2-27.7-2.69-42.19-3.26-3.58-.14-7.44-.31-10-1.06-5.46-1.61-2.12-5-8.89-6.08-.11,1.1-5.89,1-9.09.46-16.82-3-26.45-9.71-46-10.42-4.15-.16-8.8-.05-12-.83-6.69-1.64-.74-5.3-6.61-7.19-4.59-1.47-13-.79-18.52.4s-10.35,2.83-17.07,3.14a50.77,50.77,0,0,1-21.33-3.66c-5-2.09-8.84-4.54-16-6-11.44-2.3-30.73-2.09-34.38-6-1.18-1.27-.11-2.65-1.43-3.91-3-2.84-15.58-3.49-25.66-3.29-13.71.26-27.27,1.15-40,2.63l2,55Z"/><path class="cls-2" d="M766.83,202.24a49.06,49.06,0,0,1,21-5.07c4.78-.1,9.84.41,14.16-1,4.62-1.53,7.28-4.91,11.27-7.12,5.74-3.17,13.92-3.8,19.21-7.32,3.33-2.21,5.4-5.51,9.68-6.73,2.1-.6,4.82-.76,5.89-2.15.64-.84.42-1.86.64-2.81.69-3,5.67-4.71,7.3-7.57,1.25-2.19.3-4.7-1.37-6.75s-4-3.78-5.89-5.75a2.5,2.5,0,0,1-.94-1.81c.16-1.61,3.26-2.08,5.61-2,11.49.2,23.12,1.8,34.35.12,3.61-.54,7.16-1.41,10.85-1.47,7.41-.13,14.31,3,21.72,3v54.53Z"/><path class="cls-1" d="M1699.31,231.9l15.34-6.35c6.9-2.86,14.15-6,17.09-10.43,1-1.47,1.41-3.11.59-4.61-2-3.72-10.34-5-17.38-5.52a451.47,451.47,0,0,0-49-.92c-16.18.59-33.62,1.9-47.62-2.57-4.24-1.36-8.08-3.32-9.6-5.87s-.15-5.72,4-7.12c1.92-.63,4.45-1,5.36-2.1.77-1,0-2.06-.83-3l-5.23-6.28a7.42,7.42,0,0,0-4.06-2.84c-2.17-.56-4.71-.15-7.09,0-8.54.53-16.34-2.35-23.83-4.65s-17.13-4.05-24.31-1.48c-3.74,1.34-6,3.59-8.79,5.48-4.69,3.16-11.35,5.42-18.6,6.33-5,.64-10.63.72-14.57,2.53-9.46,4.38-.31,13.08-4.3,19.49a169.56,169.56,0,0,0-24.45,4.72c-14.06,4-25.85,10.3-33.39,17.91-.92.93-.85,7.5,1,7.3Z"/><path class="cls-2" d="M1512.09,215.94c-.12-1-.43.92-.91,0-1.51-2.91-4.64-8.2-8.19-9.7-4.67-2-10-2.64-15.23-3.19a7,7,0,0,1-3.61-1.05c-2-1.57-.77-4.87-3.21-5.95,0,1.08-2.13,1-3.29.45-6.07-2.95-9.55-9.5-16.61-10.2-1.5-.15-3.18,0-4.34-.81-2.41-1.6-.26-5.19-2.39-7-1.65-1.44-4.71-.78-6.68.38s-3.74,2.78-6.17,3.09c-3.1.39-5.91-1.54-7.7-3.59s-3.19-4.45-5.79-5.86c-4.13-2.24-11.1-2-12.41-5.89-.43-1.24,0-2.6-.52-3.83-1.07-2.78-5.63-3.42-9.27-3.22a59.18,59.18,0,0,0-14.46,2.57l.74,53.84Z"/><path class="cls-2" d="M1244.19,213.37c.14-1,.54.92,1.14,0,1.91-2.9,5.86-8.2,10.34-9.7,5.88-2,12.62-2.63,19.22-3.19a10.78,10.78,0,0,0,4.55-1c2.49-1.58,1-4.88,4-6,0,1.08,2.69,1,4.15.46,7.66-3,12-9.51,21-10.21,1.89-.15,4,0,5.47-.81,3-1.6.34-5.19,3-7,2.09-1.44,6-.78,8.44.39s4.72,2.77,7.78,3.08a13,13,0,0,0,9.72-3.59c2.27-2,4-4.44,7.3-5.85,5.21-2.25,14-2,15.67-5.9.54-1.24,0-2.59.65-3.82,1.35-2.78,7.1-3.42,11.69-3.23a91.76,91.76,0,0,1,18.25,2.58l-.93,53.83Z"/><path class="cls-2" d="M1566.13,204.86c.33-.64,1.2.57,2.52,0a77.31,77.31,0,0,1,22.68-6.13c12.92-1.24,27.69-1.66,42.18-2a74.55,74.55,0,0,0,10-.65c5.47-1,2.13-3.08,8.9-3.76.11.68,5.89.64,9.09.28,16.82-1.86,26.45-6,46-6.44a114.51,114.51,0,0,0,12-.51c6.7-1,.74-3.28,6.62-4.45,4.58-.91,13.05-.49,18.52.25s10.35,1.75,17.07,1.94a79.43,79.43,0,0,0,21.33-2.26c5-1.3,8.84-2.81,16-3.7,11.44-1.42,30.73-1.29,34.38-3.72,1.18-.78.11-1.64,1.42-2.42,3-1.75,15.59-2.16,25.67-2,13.7.16,27.26.71,40,1.62l-2,34Z"/><path class="cls-2" d="M2069.67,187.84a234.49,234.49,0,0,0-27.21-1.64c-6.2,0-12.75.13-18.34-.33-6-.49-9.42-1.59-14.59-2.3-7.42-1-18-1.23-24.86-2.37-4.31-.72-7-1.79-12.53-2.19-2.72-.19-6.24-.24-7.62-.69-.84-.28-.55-.61-.83-.91-.9-1-7.35-1.53-9.46-2.46-1.61-.71-.39-1.52,1.78-2.18s5.22-1.23,7.62-1.87c.67-.17,1.32-.37,1.23-.58-.22-.53-4.23-.68-7.27-.66-14.87.06-29.93.58-44.46,0-4.68-.18-9.26-.46-14-.48-9.6,0-18.53,1-28.12,1v17.66Z"/><path class="cls-1" d="M2457.24,197.58l11.65-3.28c5.25-1.47,10.75-3.07,13-5.37.74-.75,1.07-1.6.45-2.37-1.55-1.91-7.85-2.58-13.2-2.84-12.31-.62-24.79-.78-37.18-.48s-25.53,1-36.17-1.32c-3.21-.7-6.13-1.71-7.29-3s-.11-3,3.07-3.67c1.46-.33,3.38-.51,4.07-1.08s0-1.07-.63-1.56l-4-3.23a6.06,6.06,0,0,0-3.08-1.47,27.72,27.72,0,0,0-5.39,0c-6.48.28-12.41-1.21-18.1-2.39s-13-2.09-18.46-.77c-2.84.69-4.53,1.85-6.67,2.83a45,45,0,0,1-14.13,3.26c-3.81.33-8.07.37-11.06,1.3-7.19,2.26-.24,6.74-3.27,10a183.35,183.35,0,0,0-18.57,2.43c-10.68,2-19.63,5.31-25.36,9.23-.7.47-.64,3.86.8,3.76Z"/><path class="cls-2" d="M2337.57,215.94c-.12-1-.43.92-.91,0-1.51-2.91-4.64-8.2-8.19-9.7-4.66-2-10-2.64-15.23-3.19a7.05,7.05,0,0,1-3.61-1.05c-2-1.57-.77-4.87-3.21-5.95,0,1.08-2.13,1-3.28.45-6.08-2.95-9.56-9.5-16.62-10.2-1.49-.15-3.17,0-4.34-.81-2.41-1.6-.26-5.19-2.38-7-1.66-1.44-4.72-.78-6.69.38s-3.74,2.78-6.17,3.09c-3.1.39-5.9-1.54-7.7-3.59s-3.19-4.45-5.79-5.86c-4.13-2.24-11.09-2-12.41-5.89-.43-1.24,0-2.6-.52-3.83-1.07-2.78-5.62-3.42-9.26-3.22a59.26,59.26,0,0,0-14.47,2.57l.74,53.84Z"/><path class="cls-2" d="M2069.67,213.37c.15-1,.54.92,1.15,0,1.9-2.9,5.85-8.2,10.33-9.7,5.89-2,12.62-2.63,19.22-3.19a10.78,10.78,0,0,0,4.55-1c2.49-1.58,1-4.88,4-6,.05,1.08,2.69,1,4.15.46,7.66-3,12.05-9.51,21-10.21,1.89-.15,4,0,5.47-.81,3-1.6.34-5.19,3-7,2.09-1.44,5.95-.78,8.44.39s4.71,2.77,7.77,3.08a13,13,0,0,0,9.73-3.59c2.26-2,4-4.44,7.29-5.85,5.22-2.25,14-2,15.67-5.9.54-1.24.05-2.59.65-3.82,1.35-2.78,7.1-3.42,11.69-3.23a91.66,91.66,0,0,1,18.25,2.58l-.93,53.83Z"/><path class="cls-2" d="M2869,204.76c-.33-1-1.2.93-2.52,0-4.19-3-12.86-8.38-22.68-9.91-12.92-2-27.69-2.69-42.18-3.26-3.58-.14-7.44-.32-10-1.07-5.46-1.61-2.13-5-8.89-6.08-.11,1.1-5.9,1-9.1.46-16.82-3-26.45-9.7-46-10.42-4.15-.15-8.79,0-12-.83-6.7-1.63-.74-5.29-6.61-7.18-4.59-1.48-13.06-.8-18.53.39s-10.35,2.84-17.07,3.15a50.93,50.93,0,0,1-21.33-3.66c-5-2.1-8.84-4.54-16-6-11.44-2.29-30.73-2.09-34.38-6-1.18-1.27-.11-2.66-1.42-3.91-3-2.84-15.59-3.5-25.67-3.3-13.7.27-27.26,1.16-40.05,2.63l2,55Z"/><path class="cls-2" d="M2439,204.6a31,31,0,0,1,16.21-5.06c3.69-.1,7.58.4,10.91-1,3.56-1.52,5.61-4.9,8.69-7.11,4.42-3.18,10.73-3.8,14.8-7.32,2.57-2.22,4.17-5.51,7.46-6.73,1.63-.61,3.72-.77,4.54-2.16.5-.84.33-1.86.5-2.8.53-3,4.37-4.72,5.63-7.58,1-2.18.23-4.7-1.06-6.74s-3.11-3.78-4.54-5.75a2.88,2.88,0,0,1-.73-1.81c.13-1.62,2.52-2.08,4.33-2,8.85.2,17.82,1.79,26.48.12,2.78-.54,5.51-1.41,8.36-1.48,5.71-.12,11,3,16.74,3V204.6Z"/><path class="cls-1" d="M3331.81,204.26l11.65-3.27c5.24-1.47,10.75-3.08,13-5.37.74-.76,1.08-1.6.45-2.37-1.54-1.92-7.85-2.58-13.19-2.85-12.31-.61-24.79-.77-37.18-.47s-25.54,1-36.17-1.33c-3.22-.7-6.14-1.71-7.29-3s-.11-3,3.07-3.67c1.45-.32,3.38-.5,4.06-1.08s0-1.06-.62-1.55l-4-3.24a6.1,6.1,0,0,0-3.08-1.46,26.23,26.23,0,0,0-5.39,0c-6.49.27-12.41-1.21-18.1-2.4s-13-2.09-18.46-.76c-2.84.69-4.53,1.85-6.68,2.82a44.39,44.39,0,0,1-14.12,3.26c-3.82.33-8.08.37-11.07,1.31-7.18,2.25-.23,6.73-3.26,10a185.42,185.42,0,0,0-18.57,2.44c-10.68,2.05-19.64,5.3-25.36,9.22-.7.48-.64,3.87.8,3.76Z"/><path class="cls-2" d="M3212.14,222.63c-.12-1-.44.91-.91,0-1.51-2.91-4.64-8.21-8.19-9.71-4.67-2-10-2.63-15.24-3.19a7.11,7.11,0,0,1-3.6-1c-2-1.58-.77-4.88-3.21-6,0,1.08-2.13,1-3.29.46-6.07-3-9.55-9.5-16.61-10.21-1.5-.15-3.18,0-4.34-.81-2.42-1.6-.27-5.19-2.39-7-1.65-1.44-4.71-.77-6.69.39s-3.74,2.77-6.16,3.08c-3.1.39-5.91-1.53-7.7-3.58s-3.2-4.45-5.79-5.86c-4.13-2.25-11.1-2-12.42-5.89-.42-1.25,0-2.6-.51-3.83-1.07-2.78-5.63-3.42-9.27-3.23a58.72,58.72,0,0,0-14.46,2.58l.74,53.84Z"/><path class="cls-2" d="M2944.23,220.06c.15-1,.55.92,1.15,0,1.91-2.91,5.86-8.2,10.34-9.7,5.88-2,12.61-2.64,19.22-3.19a10.63,10.63,0,0,0,4.55-1c2.49-1.57,1-4.87,4.05-6,.05,1.08,2.69,1,4.14.45,7.67-3,12.06-9.5,21-10.2,1.89-.15,4,0,5.48-.81,3.05-1.6.34-5.19,3-7,2.09-1.45,5.95-.78,8.44.38s4.72,2.78,7.78,3.08a13,13,0,0,0,9.72-3.58c2.27-2,4-4.45,7.3-5.86,5.21-2.25,14-2,15.67-5.89.53-1.24.05-2.6.64-3.83,1.36-2.78,7.11-3.42,11.7-3.23a93.35,93.35,0,0,1,18.25,2.58l-.93,53.84Z"/><path class="cls-2" d="M3743.53,211.44c-.33-1-1.23.94-2.58,0-4.31-3-13.22-8.38-23.32-9.91-13.28-2-28.48-2.69-43.37-3.26-3.68-.14-7.65-.31-10.27-1.06-5.62-1.61-2.19-5-9.15-6.08-.11,1.1-6.06,1-9.35.46-17.29-3-27.19-9.7-47.29-10.42-4.27-.16-9,0-12.35-.83-6.89-1.63-.76-5.3-6.8-7.19-4.72-1.47-13.42-.79-19,.4s-10.65,2.83-17.55,3.14a53.56,53.56,0,0,1-21.94-3.66c-5.11-2.09-9.09-4.54-16.47-6-11.76-2.3-31.6-2.09-35.35-6-1.21-1.27-.11-2.65-1.46-3.91-3-2.84-16-3.49-26.39-3.29-14.09.26-28,1.16-41.18,2.63l2.1,55Z"/><path class="cls-2" d="M3266.18,211.29a49.34,49.34,0,0,1,20.91-5c4.76-.1,9.79.39,14.08-1,4.59-1.5,7.24-4.81,11.21-7,5.7-3.11,13.84-3.72,19.1-7.17,3.31-2.17,5.37-5.4,9.63-6.59,2.09-.59,4.79-.75,5.85-2.11.64-.83.42-1.83.64-2.75.69-3,5.64-4.62,7.27-7.42,1.23-2.14.29-4.6-1.37-6.6s-4-3.71-5.86-5.63a2.54,2.54,0,0,1-.94-1.77c.17-1.59,3.25-2,5.59-2,11.42.19,23,1.75,34.16.11,3.58-.52,7.11-1.38,10.78-1.44,7.37-.12,14.23,3,21.61,2.9v53.4Z"/><path class="cls-1" d="M3984.58,188.4l-13.17-2.83c-5.92-1.27-12.14-2.65-14.66-4.64-.83-.65-1.21-1.38-.51-2,1.75-1.66,8.88-2.23,14.92-2.46,13.91-.53,28-.67,42-.41s28.85.84,40.86-1.15c3.64-.6,6.94-1.47,8.24-2.61s.12-2.54-3.47-3.17c-1.64-.28-3.82-.43-4.59-.93s0-.92.7-1.35l4.49-2.79a7.93,7.93,0,0,1,3.48-1.27,40,40,0,0,1,6.09,0c7.33.23,14-1,20.45-2.07s14.7-1.81,20.86-.66a42.59,42.59,0,0,1,7.54,2.44,64.29,64.29,0,0,0,16,2.82c4.31.28,9.13.31,12.5,1.12,8.12,2,.27,5.82,3.7,8.67,7.24.48,14.37,1.14,21,2.11,12.06,1.76,22.18,4.58,28.65,8,.79.42.73,3.34-.9,3.25Z"/><path class="cls-2" d="M4036.19,206.63c-.14-1-.49.91-1,0-1.71-2.91-5.25-8.21-9.26-9.7-5.27-2-11.3-2.64-17.21-3.2a8.77,8.77,0,0,1-4.08-1c-2.22-1.58-.86-4.88-3.62-6,0,1.08-2.41,1-3.71.46-6.87-3-10.8-9.5-18.77-10.21-1.7-.15-3.59,0-4.91-.81-2.73-1.6-.3-5.19-2.69-7-1.88-1.45-5.33-.78-7.56.38s-4.23,2.78-7,3.08c-3.5.39-6.67-1.53-8.7-3.58s-3.61-4.45-6.54-5.86c-4.67-2.25-12.54-2-14-5.89-.48-1.25,0-2.6-.58-3.83-1.21-2.78-6.36-3.42-10.47-3.23a74.7,74.7,0,0,0-16.34,2.58l.83,53.84Z"/><path class="cls-2" d="M3733.48,204.06c.17-1,.62.92,1.29,0,2.16-2.91,6.62-8.2,11.68-9.7,6.65-2,14.26-2.64,21.72-3.19a13.31,13.31,0,0,0,5.14-1c2.82-1.57,1.1-4.87,4.58-6,.06,1.08,3,1,4.68.45,8.66-3,13.62-9.5,23.69-10.2,2.13-.15,4.53,0,6.18-.81,3.45-1.6.38-5.19,3.41-7,2.36-1.44,6.72-.78,9.53.38s5.33,2.78,8.79,3.09a15.88,15.88,0,0,0,11-3.59c2.56-2,4.55-4.45,8.24-5.86,5.89-2.24,15.83-2,17.7-5.89.61-1.24.06-2.6.74-3.83,1.52-2.78,8-3.42,13.21-3.23a118.15,118.15,0,0,1,20.62,2.58l-1.05,53.84Z"/><path class="cls-2" d="M4636.61,195.52c-.38-.71-1.4.65-2.94,0a92.68,92.68,0,0,0-26.49-6.89c-15.09-1.41-32.36-1.88-49.28-2.27a89.66,89.66,0,0,1-11.67-.75c-6.38-1.12-2.49-3.46-10.39-4.23-.13.77-6.89.72-10.62.32-19.65-2.1-30.9-6.75-53.74-7.25-4.85-.11-10.28,0-14-.58-7.82-1.13-.86-3.68-7.72-5-5.36-1-15.25-.55-21.64.27s-12.1,2-19.94,2.2a96.27,96.27,0,0,1-24.92-2.55c-5.82-1.46-10.33-3.16-18.72-4.17-13.36-1.59-35.9-1.45-40.16-4.19-1.38-.88-.13-1.84-1.66-2.72-3.47-2-18.21-2.43-30-2.29-16,.19-31.85.81-46.78,1.83l2.38,38.27Z"/><path class="cls-2" d="M4097.25,195.41a75.73,75.73,0,0,1,22.4-3.52c5.1-.07,10.49.28,15.09-.71,4.92-1.07,7.76-3.42,12-5,6.11-2.21,14.83-2.64,20.46-5.09,3.55-1.54,5.76-3.84,10.32-4.69,2.24-.42,5.13-.53,6.27-1.5.69-.58.45-1.29.68-1.95.75-2.11,6.05-3.28,7.79-5.27,1.33-1.52.32-3.27-1.47-4.69s-4.29-2.64-6.27-4c-.55-.38-1.08-.8-1-1.26.18-1.12,3.48-1.45,6-1.42,12.23.14,24.63,1.25,36.6.09,3.84-.38,7.62-1,11.55-1,7.9-.09,15.25,2.1,23.15,2.06v37.95Z"/><rect class="cls-3" x="49.14" y="181.72" width="4563.44" height="927.77"/></svg>