<svg id="Layer_1" data-name="Layer 1" xmlns="http://www.w3.org/2000/svg" viewBox="0 0 4662.57 1142.83"><defs><style>.cls-1{fill:#f79533;stroke:#f79533;stroke-miterlimit:10;}</style></defs><title>Artboard 1</title><path class="cls-1" d="M4626.84,257.61c-5.05-21.63-11.73-44.37-19.24-55-13.08-18.45-35.39-32.31-45.55-51.91-5.18-10-10-23.23-23.39-24.23l-1,.17c-14.05,2.75-23.69,12.71-33.38,21.32s-22.78,17-37,15c-5-.69-9.63-2.63-14.63-3.33-14.45-2-27.41,6.49-39.91,12.64-2.61,1.28-5.49,2.52-8.54,2.33-6-.37-9.26-5.73-14.31-8.35-10.16-5.25-23,1.73-32.1,8.08a10.29,10.29,0,0,1-4.9,2.2c-3.45.28-6-2.33-8.73-4-5.39-3.4-13.08-3.59-19.59-1.86s-12.09,5.1-17.55,8.41c-12.4-11.13-28.15-19.84-45.52-25.17-5.71-1.76-11.94-3.34-15.75-7.17-3.07-3.09-4.08-7.18-6.69-10.54-8.28-10.66-28.35-10-40.38-18,1.07,2.38-4,3.57-6.59,2.09s-4.13-4.12-7.14-4.88c-5.28-1.33-9.23,3.75-11.71,7.72-11,17.56-33.71,28.89-57.37,34s-48.54,4.72-73,4.32l-.7.06a162.51,162.51,0,0,0-47.13-1.23,66,66,0,0,1-6.11-9.52c-5.18-10-10-23.23-23.39-24.23l-1,.17c-14,2.75-23.7,12.71-33.39,21.32s-22.77,17-37,15c-5-.69-9.63-2.63-14.63-3.33-14.45-2-27.41,6.49-39.91,12.64-2.61,1.28-5.49,2.52-8.54,2.33-6-.37-9.26-5.73-14.31-8.35-10.16-5.25-23,1.73-32.1,8.08a10.29,10.29,0,0,1-4.9,2.2c-3.44.28-6-2.33-8.73-4-5.38-3.4-13.08-3.59-19.58-1.86s-12.1,5.1-17.56,8.41c-12.39-11.13-28.14-19.84-45.52-25.17-5.71-1.76-11.94-3.34-15.75-7.17-3.07-3.09-4.08-7.18-6.68-10.54-8.29-10.66-28.36-10-40.39-18,1.07,2.38-4,3.57-6.59,2.09s-4.12-4.12-7.13-4.88c-5.28-1.33-9.23,3.75-11.72,7.72-11,17.56-33.71,28.89-57.37,34s-48.54,4.72-73,4.32l-.7.06a162.19,162.19,0,0,0-64.55,1.83,10.4,10.4,0,0,0-.73,3.45c-4.57-7.79-8.87-15.77-11.62-25-3-10-5.7-23.22-13.38-24.23l-.59.17c-8,2.75-13.56,12.71-19.11,21.32s-13,17-21.19,15c-2.87-.69-5.52-2.63-8.38-3.32-8.27-2-15.69,6.48-22.84,12.63-1.5,1.28-3.15,2.52-4.89,2.33-3.43-.37-5.3-5.73-8.19-8.35-5.82-5.25-13.15,1.74-18.38,8.08-.82,1-1.72,2-2.8,2.2-2,.28-3.44-2.32-5-4-3.08-3.39-7.48-3.58-11.21-1.86s-6.92,5.1-10.05,8.42c-7.09-11.14-16.11-19.85-26.05-25.18-3.27-1.75-6.83-3.33-9-7.17-1.75-3.09-2.33-7.18-3.82-10.54-4.74-10.66-16.23-10-23.12-18a2.23,2.23,0,0,1-3.77,2.09c-1.46-1.49-2.36-4.11-4.09-4.88-3-1.33-5.28,3.75-6.7,7.72a56,56,0,0,1-32.84,34c-13.54,5.08-27.78,4.72-41.8,4.33l-.4,0a54.13,54.13,0,0,0-30.3-.44,73.22,73.22,0,0,1-7.8-5.71c-10.22-8.75-19.7-20.35-46.22-21.24l-2,.16c-27.76,2.41-46.82,11.13-66,18.67s-45,14.91-73.17,13.19c-9.88-.6-19-2.31-28.9-2.92-28.56-1.75-54.16,5.69-78.87,11.07a69.19,69.19,0,0,1-16.87,2c-11.85-.32-18.29-5-28.28-7.31-20.07-4.6-45.38,1.52-63.43,7.08a36.09,36.09,0,0,1-9.68,1.92c-6.8.25-11.87-2-17.25-3.53-10.64-3-25.85-3.14-38.7-1.63s-23.9,4.46-34.69,7.37c-24.49-9.75-55.61-17.38-89.95-22.06-11.28-1.53-23.58-2.92-31.12-6.28-6.07-2.7-8.06-6.29-13.21-9.23-16.36-9.34-56-8.76-79.79-15.8,2.11,2.08-8,3.12-13,1.82s-8.16-3.6-14.11-4.27c-10.43-1.17-18.23,3.29-23.15,6.76-21.72,15.39-66.6,25.32-113.36,29.76s-95.91,4.14-144.3,3.79l-1.39.05a721.23,721.23,0,0,0-98.2-.79,149.1,149.1,0,0,0-44.54.79l-.63-.05c-22,.35-44.25.66-65.45-3.79s-41.57-14.37-51.43-29.76c-2.22-3.47-5.76-7.93-10.5-6.76-2.69.67-4.1,3-6.39,4.27s-6.87.26-5.91-1.82c-10.78,7-28.77,6.46-36.19,15.8-2.34,2.94-3.24,6.53-6,9.23-3.41,3.36-9,4.75-14.11,6.28-15.58,4.68-29.69,12.31-40.8,22.06-4.9-2.91-9.91-5.86-15.74-7.37s-12.72-1.35-17.55,1.63c-2.44,1.5-4.74,3.78-7.82,3.53a9.2,9.2,0,0,1-4.39-1.92c-8.19-5.56-19.67-11.68-28.78-7.08-4.53,2.29-7.45,7-12.82,7.31-2.74.17-5.32-.91-7.65-2-11.21-5.38-22.83-12.82-35.78-11.07-4.48.61-8.63,2.32-13.11,2.92-12.78,1.72-24.5-5.64-33.19-13.19s-17.33-16.26-29.92-18.67l-.92-.16c-12,.89-16.32,12.49-21,21.24a63.15,63.15,0,0,1-8,11.35c-2.27.29-4.53.65-6.77,1.12l-.46-.05c-16.06.31-32.37.59-47.89-3.35s-30.42-12.73-37.63-26.35c-1.63-3.08-4.22-7-7.68-6-2,.59-3,2.63-4.68,3.78s-5,.23-4.33-1.62c-7.89,6.24-21.05,5.73-26.48,14-1.71,2.6-2.37,5.78-4.39,8.18-2.5,3-6.58,4.2-10.32,5.56a77.39,77.39,0,0,0-29.86,19.52c-3.58-2.57-7.25-5.19-11.51-6.52s-9.32-1.2-12.85,1.44c-1.78,1.33-3.47,3.35-5.72,3.13a6.43,6.43,0,0,1-3.22-1.7c-6-4.93-14.39-10.35-21-6.27-3.32,2-5.45,6.18-9.39,6.47-2,.15-3.89-.81-5.6-1.8-8.2-4.77-16.7-11.36-26.17-9.8-3.28.53-6.32,2-9.6,2.58-9.35,1.52-17.93-5-24.28-11.67s-12.68-14.41-21.9-16.54l-.67-.13c-6.92.61-10.34,7.09-13.14,13.59a106.7,106.7,0,0,0-50.64-1.32l-.57-.06c-19.95.4-40.21.77-59.49-4.39S918,122.83,909,105c-2-4-5.24-9.19-9.55-7.83-2.45.77-3.73,3.44-5.81,5s-6.24.3-5.37-2.12c-9.8,8.17-26.15,7.5-32.9,18.32-2.12,3.41-2.94,7.57-5.44,10.7-3.11,3.9-8.18,5.5-12.83,7.28a95.91,95.91,0,0,0-37.09,25.57c-4.45-3.37-9-6.79-14.3-8.55s-11.57-1.56-16,1.89c-2.21,1.74-4.3,4.39-7.11,4.1a7.65,7.65,0,0,1-4-2.23c-7.44-6.44-17.88-13.54-26.15-8.2-4.12,2.65-6.78,8.1-11.66,8.47-2.48.2-4.83-1.06-7-2.36-10.18-6.25-20.74-14.87-32.51-12.83-4.08.7-7.85,2.68-11.92,3.38-11.61,2-22.27-6.54-30.17-15.29s-15.75-18.86-27.19-21.65l-.84-.18c-10.93,1-14.84,14.48-19,24.62-3.16,7.59-7.76,14.33-12.83,20.81a15.42,15.42,0,0,0-.62-5.2,106.71,106.71,0,0,0-52.59-1.86l-.57-.06c-19.95.4-40.22.77-59.49-4.39s-37.79-16.66-46.74-34.5c-2-4-5.24-9.19-9.55-7.83-2.45.77-3.73,3.44-5.81,5s-6.24.3-5.37-2.12c-9.8,8.17-26.15,7.5-32.9,18.32-2.12,3.41-2.94,7.57-5.45,10.7-3.1,3.9-8.17,5.5-12.82,7.28a95.91,95.91,0,0,0-37.09,25.57c-4.45-3.37-9-6.79-14.3-8.55s-11.57-1.56-16,1.89c-2.22,1.74-4.3,4.39-7.11,4.1a7.65,7.65,0,0,1-4-2.23c-7.44-6.44-17.88-13.54-26.15-8.2-4.12,2.65-6.78,8.1-11.66,8.47-2.48.2-4.83-1.06-7-2.36C214.1,151.57,203.54,143,191.77,145c-4.08.7-7.85,2.68-11.92,3.38-11.61,2-22.27-6.54-30.17-15.29s-15.75-18.86-27.2-21.65l-.83-.17c-10.93,1-14.84,14.47-19.05,24.61-8.28,19.9-26.46,34-37.11,52.71C52,212.25,41.85,295.48,41.85,295.48h7.42v823.1H4636.61v-861Z"/></svg>