<svg id="Layer_1" data-name="Layer 1" xmlns="http://www.w3.org/2000/svg" viewBox="0 0 165.98 203.12"><defs><style>.cls-1{fill:#6a2f23;}.cls-2{fill:#fff;}.cls-3{fill:#6b6b6c;}.cls-4{fill:#828383;}</style></defs><title>Clip Board</title><rect class="cls-1" x="25.01" y="33.64" width="105.37" height="143.63" rx="12"/><rect class="cls-2" x="31.98" y="41.21" width="90.86" height="129.71" rx="0.88" transform="translate(-1.2 0.88) rotate(-0.65)"/><rect class="cls-3" x="74.63" y="17.08" width="6.12" height="34.77" rx="1.05" transform="translate(41.54 111.39) rotate(-88.74)"/><path class="cls-3" d="M77.92,24.32a4.29,4.29,0,1,0,4.19,4.38A4.28,4.28,0,0,0,77.92,24.32Zm-.15,6.88a2.6,2.6,0,1,1,2.65-2.54A2.59,2.59,0,0,1,77.77,31.2Z"/><path class="cls-4" d="M106.58,45.35,48.36,44.08l0-1.63a6.73,6.73,0,0,1,6.87-6.56l44.79,1a6.71,6.71,0,0,1,6.57,6.86Z"/></svg>