<svg id="Layer_1" data-name="Layer 1" xmlns="http://www.w3.org/2000/svg" viewBox="0 0 570 405"><defs><style>.cls-1{fill:none;stroke:#39b54a;stroke-miterlimit:10;stroke-width:55px;}.cls-2{fill:#39b54a;}</style></defs><title>HandleGo</title><line class="cls-1" x1="274.65" y1="97.73" x2="274.88" y2="339.81"/><path class="cls-2" d="M315.13,109.12l-.62,1.55-.62,1.43L312.65,115l-2.47,5.16-.61,1.28-.62,1.18-1.24,2.37c-.82,1.48-1.64,3-2.47,4.4-.2.28-.41.39-.61.32a3.26,3.26,0,0,1-.62-.4.89.89,0,0,0-.62-.14H246l-2.47-4.47c-.82-1.6-1.65-3.05-2.47-4.8l-2.47-5.08L237.3,112l-.62-1.39-.61-1.49.61-1.49.62-1.39,1.24-2.78L241,98.39c.82-1.75,1.65-3.21,2.47-4.81L246,89.12h57.44A1,1,0,0,0,304,89a3.2,3.2,0,0,1,.62-.39c.2-.07.41,0,.61.32.83,1.41,1.65,2.92,2.47,4.4L309,95.66l.62,1.18.61,1.29,2.47,5.15,1.24,2.86.62,1.43Z"/></svg>