<svg id="Layer_1" data-name="Layer 1" xmlns="http://www.w3.org/2000/svg" viewBox="0 0 413 455"><defs><style>.cls-1{fill:none;stroke:#f15a24;stroke-miterlimit:10;stroke-width:55px;}.cls-2{fill:#f15a24;}</style></defs><title>HandleStop</title><line class="cls-1" x1="230.07" y1="82.47" x2="230.3" y2="324.55"/><path class="cls-2" d="M270.55,93.85l-.62,1.55-.62,1.43-1.23,2.86-2.47,5.15-.62,1.29-.62,1.18-1.23,2.36c-.83,1.48-1.65,3-2.47,4.4-.21.28-.41.39-.62.32a3.53,3.53,0,0,1-.62-.39.94.94,0,0,0-.62-.15H201.37l-2.47-4.46c-.82-1.6-1.64-3.06-2.47-4.81L194,99.5l-1.23-2.77-.62-1.39-.62-1.49.62-1.49.62-1.39L194,88.2l2.47-5.08c.83-1.75,1.65-3.2,2.47-4.8l2.47-4.47h57.44a.94.94,0,0,0,.62-.15,4.23,4.23,0,0,1,.62-.39c.21-.07.41,0,.62.32.82,1.41,1.64,2.92,2.47,4.4l1.23,2.36.62,1.19.62,1.28L268.08,88l1.23,2.85.62,1.43Z"/></svg>