<svg id="Layer_1" data-name="Layer 1" xmlns="http://www.w3.org/2000/svg" viewBox="0 0 266.78 144.51"><defs><style>.cls-1{fill:#2b2a28;}.cls-2{fill:#4a4841;}.cls-3{fill:#424138;}.cls-4{fill:#2a2827;}.cls-5{fill:#5a4a44;}.cls-6{fill:#231f20;}.cls-7{fill:#292821;}.cls-8{fill:#353434;}.cls-9{fill:#646159;}.cls-10{fill:#827372;}.cls-11{fill:#2b2a25;}</style></defs><title>Train2 Coal</title><rect class="cls-1" x="247.86" y="103.58" width="9.88" height="4.83" transform="translate(505.61 211.99) rotate(180)"/><rect class="cls-2" x="257.75" y="102.06" width="2.31" height="9.19" transform="translate(517.8 213.32) rotate(180)"/><path class="cls-3" d="M31.77,108v12.12a1,1,0,0,0,1,1h7a1,1,0,0,0,1-1V108a1,1,0,0,0-1-1h-7A1,1,0,0,0,31.77,108Zm6.49,9.67c-1,.6-2.82-.53-4-2.52s-1.24-4.1-.2-4.7,2.82.53,4,2.52S39.3,117,38.26,117.64Z"/><path class="cls-1" d="M37.88,105.38v19a1.23,1.23,0,0,0,1.23,1.23H48a1.23,1.23,0,0,0,1.23-1.23v-19A1.23,1.23,0,0,0,48,104.15H39.11A1.23,1.23,0,0,0,37.88,105.38Zm6.3,16.39c-1.28,0-2.32-2-2.32-4.41s1-4.4,2.32-4.4,2.32,2,2.32,4.4S45.46,121.77,44.18,121.77Z"/><path class="cls-4" d="M231,29.31h11.94A2.08,2.08,0,0,1,245,31.39v8.34a0,0,0,0,1,0,0H228.87a0,0,0,0,1,0,0V31.39A2.08,2.08,0,0,1,231,29.31Z"/><path class="cls-4" d="M183.14,12.82h3.92A3.16,3.16,0,0,1,190.22,16V30.44a0,0,0,0,1,0,0H180a0,0,0,0,1,0,0V16A3.16,3.16,0,0,1,183.14,12.82Z"/><path class="cls-4" d="M190.22,32.72h21.44a2.05,2.05,0,0,1,2.05,2.05v3.82a0,0,0,0,1,0,0H190.22a0,0,0,0,1,0,0V32.72A0,0,0,0,1,190.22,32.72Z"/><path class="cls-2" d="M64.22,23.05H187.75a4.74,4.74,0,0,1,4.74,4.74V46.93a0,0,0,0,1,0,0h-133a0,0,0,0,1,0,0V27.79A4.74,4.74,0,0,1,64.22,23.05Z"/><circle class="cls-5" cx="72.74" cy="122.84" r="15.92"/><circle class="cls-5" cx="139.06" cy="122.84" r="15.92"/><circle class="cls-5" cx="205.37" cy="122.84" r="15.92"/><path class="cls-6" d="M58.85,86.46l-4,7.83H26v7.58l33.6,24.26H226.85l22.23-4.8V86.46Zm159.91,32.85h-146v-8.85h146Z"/><path class="cls-7" d="M154.46,103.8l-1,1.39a2.61,2.61,0,0,1-2.13,1.1H126.77a2.61,2.61,0,0,1-2.13-1.1l-1-1.39a2.6,2.6,0,0,0-4.19-.09h0a2.6,2.6,0,0,0,1,4l12.71,5.87a14.13,14.13,0,0,0,11.83,0l12.71-5.87a2.6,2.6,0,0,0,1-4h0A2.6,2.6,0,0,0,154.46,103.8Z"/><rect class="cls-8" x="163.75" y="101.81" width="17.04" height="14.65" rx="1.49"/><rect class="cls-1" x="92.88" y="94.33" width="18.14" height="23.48" rx="1.49"/><rect class="cls-1" x="158.01" y="114.13" width="28.54" height="10.35" rx="1.49"/><rect class="cls-3" x="108.74" y="95.05" width="15.92" height="26.72" rx="1.49"/><rect class="cls-3" x="82.07" y="94.33" width="7.96" height="26.72" rx="1.49"/><rect class="cls-7" x="59.48" y="41.24" width="197.05" height="55.33"/><rect class="cls-3" x="65.42" y="48.82" width="185.18" height="40.17"/><rect class="cls-9" x="59.48" y="37.45" width="197.05" height="7.58"/><path class="cls-10" d="M75.27,70.41h-6a1.5,1.5,0,0,1,0-3h6a1.5,1.5,0,1,1,0,3Z"/><path class="cls-10" d="M226.38,70.41H213.79a1.5,1.5,0,0,1,0-3h12.59a1.5,1.5,0,0,1,0,3Zm-25.18,0H188.6a1.5,1.5,0,0,1,0-3h12.6a1.5,1.5,0,0,1,0,3Zm-25.19,0H163.42a1.5,1.5,0,0,1,0-3H176a1.5,1.5,0,0,1,0,3Zm-25.18,0h-12.6a1.5,1.5,0,0,1,0-3h12.6a1.5,1.5,0,0,1,0,3Zm-25.19,0H113.05a1.5,1.5,0,1,1,0-3h12.59a1.5,1.5,0,1,1,0,3Zm-25.19,0H87.86a1.5,1.5,0,1,1,0-3h12.59a1.5,1.5,0,1,1,0,3Z"/><path class="cls-10" d="M245,70.41h-6a1.5,1.5,0,0,1,0-3h6a1.5,1.5,0,0,1,0,3Z"/><path class="cls-10" d="M96.49,59a1.5,1.5,0,0,1-1.5-1.5v-6a1.5,1.5,0,1,1,3,0v6A1.5,1.5,0,0,1,96.49,59Z"/><path class="cls-10" d="M96.49,74.22a1.5,1.5,0,0,1-1.5-1.5V65.09a1.5,1.5,0,0,1,3,0v7.63A1.5,1.5,0,0,1,96.49,74.22Z"/><path class="cls-10" d="M96.49,87.84a1.5,1.5,0,0,1-1.5-1.5v-6a1.5,1.5,0,0,1,3,0v6A1.5,1.5,0,0,1,96.49,87.84Z"/><path class="cls-10" d="M124.66,59a1.5,1.5,0,0,1-1.5-1.5v-6a1.5,1.5,0,0,1,3,0v6A1.5,1.5,0,0,1,124.66,59Z"/><path class="cls-10" d="M124.66,74.22a1.5,1.5,0,0,1-1.5-1.5V65.09a1.5,1.5,0,0,1,3,0v7.63A1.5,1.5,0,0,1,124.66,74.22Z"/><path class="cls-10" d="M124.66,87.84a1.5,1.5,0,0,1-1.5-1.5v-6a1.5,1.5,0,0,1,3,0v6A1.5,1.5,0,0,1,124.66,87.84Z"/><path class="cls-10" d="M152.83,59a1.5,1.5,0,0,1-1.5-1.5v-6a1.5,1.5,0,0,1,3,0v6A1.5,1.5,0,0,1,152.83,59Z"/><path class="cls-10" d="M152.83,74.22a1.5,1.5,0,0,1-1.5-1.5V65.09a1.5,1.5,0,0,1,3,0v7.63A1.51,1.51,0,0,1,152.83,74.22Z"/><path class="cls-10" d="M152.83,87.84a1.5,1.5,0,0,1-1.5-1.5v-6a1.5,1.5,0,0,1,3,0v6A1.5,1.5,0,0,1,152.83,87.84Z"/><path class="cls-10" d="M181,59a1.5,1.5,0,0,1-1.5-1.5v-6a1.5,1.5,0,0,1,3,0v6A1.5,1.5,0,0,1,181,59Z"/><path class="cls-10" d="M181,74.22a1.5,1.5,0,0,1-1.5-1.5V65.09a1.5,1.5,0,0,1,3,0v7.63A1.51,1.51,0,0,1,181,74.22Z"/><path class="cls-10" d="M181,87.84a1.5,1.5,0,0,1-1.5-1.5v-6a1.5,1.5,0,0,1,3,0v6A1.5,1.5,0,0,1,181,87.84Z"/><path class="cls-10" d="M218.76,59a1.5,1.5,0,0,1-1.5-1.5v-6a1.5,1.5,0,0,1,3,0v6A1.5,1.5,0,0,1,218.76,59Z"/><path class="cls-10" d="M218.76,74.22a1.5,1.5,0,0,1-1.5-1.5V65.09a1.5,1.5,0,0,1,3,0v7.63A1.5,1.5,0,0,1,218.76,74.22Z"/><path class="cls-10" d="M218.76,87.84a1.5,1.5,0,0,1-1.5-1.5v-6a1.5,1.5,0,0,1,3,0v6A1.5,1.5,0,0,1,218.76,87.84Z"/><rect class="cls-11" x="64.41" y="118.26" width="16.67" height="10.42" rx="2.29"/><rect class="cls-11" x="130.72" y="118.26" width="16.67" height="10.42" rx="2.29"/><rect class="cls-11" x="197.04" y="118.26" width="16.67" height="10.42" rx="2.29"/><path class="cls-7" d="M220.78,103.8l-1,1.39a2.59,2.59,0,0,1-2.12,1.1H193.08a2.62,2.62,0,0,1-2.13-1.1l-1-1.39a2.6,2.6,0,0,0-4.19-.09h0a2.61,2.61,0,0,0,1,4l12.71,5.87a14.13,14.13,0,0,0,11.83,0L224,107.67a2.6,2.6,0,0,0,1-4h0A2.59,2.59,0,0,0,220.78,103.8Z"/><path class="cls-7" d="M88.14,103.8l-1,1.39a2.61,2.61,0,0,1-2.13,1.1H60.45a2.61,2.61,0,0,1-2.13-1.1l-1-1.39a2.6,2.6,0,0,0-4.19-.09h0a2.6,2.6,0,0,0,1,4l12.71,5.87a14.13,14.13,0,0,0,11.83,0l12.71-5.87a2.6,2.6,0,0,0,1-4h0A2.6,2.6,0,0,0,88.14,103.8Z"/><rect class="cls-8" x="108.17" y="62.53" width="99.66" height="12.76"/></svg>