<svg id="Layer_1" data-name="Layer 1" xmlns="http://www.w3.org/2000/svg" viewBox="0 0 2150.97 646.96"><defs><style>.cls-1{fill:#6e6e6e;}.cls-2{fill:#8b8b8d;}.cls-3{fill:#4c4c4d;}.cls-4{fill:#231f20;}.cls-5{fill:#56556a;}.cls-6{fill:#69595c;}.cls-7{fill:#3b3a3c;}</style></defs><title>Train Station</title><rect class="cls-1" x="941.47" y="343.04" width="308.21" height="61.64"/><rect class="cls-2" x="70.9" y="404.68" width="2049.35" height="205.89" rx="27.16"/><rect class="cls-1" x="1020.54" y="288.09" width="150.06" height="103.07"/><rect class="cls-3" x="1015.24" y="252.47" width="160.67" height="51.54"/><rect class="cls-4" x="1165.3" y="294.16" width="90.19" height="51.54"/><rect class="cls-4" x="935.66" y="294.16" width="90.19" height="51.54" transform="translate(1961.5 639.85) rotate(-180)"/><rect class="cls-4" x="935.66" y="339.63" width="319.83" height="10.48" transform="translate(2191.15 689.75) rotate(-180)"/><rect class="cls-5" x="1044.54" y="311.46" width="29.31" height="20.21"/><rect class="cls-5" x="1080.92" y="311.46" width="29.31" height="20.21"/><rect class="cls-5" x="1117.3" y="311.46" width="29.31" height="20.21"/><rect class="cls-5" x="952.58" y="359.21" width="29.31" height="18.47"/><rect class="cls-5" x="988.96" y="359.21" width="29.31" height="18.47"/><rect class="cls-5" x="1025.34" y="359.21" width="29.31" height="18.47"/><rect class="cls-5" x="1209.26" y="359.21" width="29.31" height="18.47" transform="translate(2447.82 736.89) rotate(-180)"/><rect class="cls-5" x="1172.88" y="359.21" width="29.31" height="18.47" transform="translate(2375.06 736.89) rotate(-180)"/><rect class="cls-5" x="1136.5" y="359.21" width="29.31" height="18.47" transform="translate(2302.3 736.89) rotate(-180)"/><rect class="cls-3" x="1073.85" y="359.21" width="43.45" height="45.47" transform="translate(2191.15 763.89) rotate(-180)"/><polygon class="cls-6" points="1069.87 255.18 1044.16 277.44 1095.57 277.44 1069.87 255.18"/><rect class="cls-1" x="1050.98" y="277.44" width="37.77" height="18.99"/><rect class="cls-5" x="1055.22" y="280.52" width="29.31" height="9.85"/><rect class="cls-7" x="960.16" y="350.12" width="7.07" height="54.57"/><rect class="cls-7" x="1223.91" y="350.12" width="7.07" height="54.57"/><rect class="cls-7" x="810.12" y="265.74" width="3.54" height="138.95"/><rect class="cls-7" x="799" y="234.28" width="3.54" height="31.45"/><rect class="cls-7" x="821.23" y="234.28" width="3.54" height="31.45"/><rect class="cls-7" x="810.12" y="251.46" width="3.54" height="25.77" transform="translate(1076.23 -547.54) rotate(90)"/><rect class="cls-2" x="815.29" y="231.14" width="15.41" height="26.44" transform="translate(1646 488.73) rotate(-180)"/><rect class="cls-2" x="793.06" y="231.14" width="15.41" height="26.44" transform="translate(1601.54 488.73) rotate(-180)"/><rect class="cls-7" x="236.37" y="265.74" width="3.54" height="138.95"/><rect class="cls-7" x="225.26" y="234.28" width="3.54" height="31.45"/><rect class="cls-7" x="247.49" y="234.28" width="3.54" height="31.45"/><rect class="cls-7" x="236.37" y="251.46" width="3.54" height="25.77" transform="translate(502.49 26.21) rotate(90)"/><rect class="cls-2" x="241.55" y="231.14" width="15.41" height="26.44" transform="translate(498.51 488.73) rotate(-180)"/><rect class="cls-2" x="219.32" y="231.14" width="15.41" height="26.44" transform="translate(454.05 488.73) rotate(-180)"/><rect class="cls-7" x="1561.02" y="265.74" width="3.54" height="138.95"/><rect class="cls-7" x="1549.9" y="234.28" width="3.54" height="31.45"/><rect class="cls-7" x="1572.13" y="234.28" width="3.54" height="31.45"/><rect class="cls-7" x="1561.02" y="251.46" width="3.54" height="25.77" transform="translate(1827.13 -1298.44) rotate(90)"/><rect class="cls-2" x="1566.2" y="231.14" width="15.41" height="26.44" transform="translate(3147.8 488.73) rotate(-180)"/><rect class="cls-2" x="1543.96" y="231.14" width="15.41" height="26.44" transform="translate(3103.34 488.73) rotate(-180)"/><rect class="cls-7" x="2023.49" y="265.74" width="3.54" height="138.95"/><rect class="cls-7" x="2012.37" y="234.28" width="3.54" height="31.45"/><rect class="cls-7" x="2034.6" y="234.28" width="3.54" height="31.45"/><rect class="cls-7" x="2023.49" y="251.46" width="3.54" height="25.77" transform="translate(2289.6 -1760.91) rotate(90)"/><rect class="cls-2" x="2028.67" y="231.14" width="15.41" height="26.44" transform="translate(4072.75 488.73) rotate(-180)"/><rect class="cls-2" x="2006.44" y="231.14" width="15.41" height="26.44" transform="translate(4028.28 488.73) rotate(-180)"/></svg>