<svg id="Layer_1" data-name="Layer 1" xmlns="http://www.w3.org/2000/svg" xmlns:xlink="http://www.w3.org/1999/xlink" viewBox="0 0 520.46 144.51"><defs><style>.cls-1{fill:none;stroke:#6e6e6e;stroke-miterlimit:10;stroke-width:1.5px;}.cls-2{fill:#23241a;}.cls-3{fill:#424138;}.cls-4{fill:#231f20;}.cls-5{fill:#5a4a44;}.cls-6{fill:#2c2a26;}.cls-7{fill:#2a2827;}.cls-8{fill:#292821;}.cls-9{fill:#646159;}.cls-10{fill:#8d8a83;}.cls-11{fill:#353434;}.cls-12{fill:#5d5a51;}.cls-13{fill:#b8b7a2;}.cls-14{fill:#bea9a0;}.cls-15{fill:#674c42;}.cls-16{fill:#866255;}.cls-17{fill:#6e6561;}.cls-18{fill:#ae9388;}.cls-19{fill:#87746d;}.cls-20{fill:#878788;}.cls-21{fill:#2b2a28;}.cls-22{fill:#6e6e6e;}.cls-23{clip-path:url(#clip-path);}.cls-24{fill:#f58020;}.cls-25{fill:#282626;}.cls-26{fill:#9e7f73;}.cls-27{fill:#b9a198;}</style><clipPath id="clip-path"><path class="cls-1" d="M479.66,49.46V22.68H505.6l-2-8H371.71L378.06,44l11.19,20.22a17.83,17.83,0,0,1,2.23,8.62V83.51h89.8l24.79-1.08v-33Zm-45.31,3.91H407.93v-21h26.42Zm34.34,0H442.28v-21h26.41Z"/></clipPath></defs><title>Train2</title><polygon class="cls-2" points="81.71 118.07 76.66 118.07 69.52 134.34 74.57 134.34 81.71 118.07"/><rect class="cls-3" x="311.51" y="4.99" width="2.78" height="10.36" rx="1.39"/><rect class="cls-3" x="277.56" y="11.94" width="2.78" height="10.36" rx="1.39"/><rect class="cls-3" x="285.36" y="10.17" width="2.78" height="10.36" rx="1.39"/><polygon class="cls-4" points="224.64 14.72 231.71 7.64 247.63 7.64 254.64 14.65 224.64 14.72"/><path class="cls-2" d="M398.41,12.4,89.59,15.17a7.76,7.76,0,0,0-7.39,5.62L80,28.48,83.8,68.27H410.49Z"/><path class="cls-4" d="M483.84,106.42V68.27H73.44L67.12,85l-6.78,6.78a6.6,6.6,0,0,0-1.93,4.67v13.18H68.9a24.57,24.57,0,0,0,11.94-3.1l2.92-1.62A15.26,15.26,0,0,1,91.15,103h1.9a15.2,15.2,0,0,1,10.26,4H142v-3.41H173.1v28.42H211v-9.6H371.42v7.07h38.65L424,123.85h51v-7.32h-3.79V106.42ZM126.52,94.32V83.23H392.38V94.32ZM413.86,123.6H388.28v-6H425Z"/><circle class="cls-5" cx="445.06" cy="123.6" r="15.16"/><path class="cls-2" d="M168.55,92.27v16.17c0,3.77,6.37,6.82,14.21,6.82S197,112.21,197,108.44V92.27Z"/><path class="cls-6" d="M405.78,130.13l-20.88-3.07.76-2.65H411.9l5.26-2.64a39.68,39.68,0,0,0,12-9.16l.5-.56a20.23,20.23,0,0,1,31.45,1.51l2,2.7,10.42,1.37v11.8l-8.12-.24a2.86,2.86,0,0,1-2.49-1.6l-.85-1.76H425.26l-6.37,2.66A24.61,24.61,0,0,1,405.78,130.13Z"/><path class="cls-3" d="M439.55,107.62h11a7.88,7.88,0,0,1,7.88,7.88v13a0,0,0,0,1,0,0H431.67a0,0,0,0,1,0,0v-13A7.88,7.88,0,0,1,439.55,107.62Z"/><rect class="cls-7" x="119.51" y="106.11" width="6.6" height="11.97"/><rect class="cls-8" x="383.64" y="7.36" width="16.11" height="3.6"/><rect class="cls-2" x="454.41" y="10.14" width="16.11" height="3.6"/><rect class="cls-7" x="75.08" y="116.59" width="102.88" height="9.52"/><rect class="cls-2" x="98.95" y="115.26" width="41.12" height="5.49"/><path class="cls-3" d="M53.69,123.2a2.66,2.66,0,0,1-2.63-2.33l-.66-5.39a5.66,5.66,0,0,1,0-1.59l.16-1.07a1,1,0,1,1,2,.3l-.16,1.06h0a4.17,4.17,0,0,0,0,1l.65,5.4a.65.65,0,0,0,.72.57l4.35-.48a1,1,0,0,1,.22,2l-4.35.48Z"/><rect class="cls-3" x="157.34" y="13.14" width="7.78" height="3.03"/><rect class="cls-9" x="112.78" y="11.62" width="19.04" height="3.03"/><rect class="cls-10" x="111.17" y="14.08" width="22.26" height="3.03"/><path class="cls-4" d="M175.88,14.4l-86.29.77a7.76,7.76,0,0,0-7.39,5.62L80,28.48,83.8,68.27h92.08Z"/><rect class="cls-3" x="249.21" y="111.73" width="7.77" height="18.95"/><rect class="cls-2" x="96.3" y="80.07" width="53.43" height="11.37" transform="translate(3.25 -4.48) rotate(2.11)"/><path class="cls-11" d="M109.47,115.26v11.37c0,2.65,6.36,4.8,14.21,4.8s14.21-2.15,14.21-4.8V115.26Z"/><rect class="cls-12" x="105.21" y="72.35" width="34.48" height="40.36" rx="0.98" transform="translate(13.12 -15.19) rotate(7.5)"/><rect class="cls-13" x="107.22" y="70.57" width="3.37" height="40.36" transform="translate(12.77 -13.43) rotate(7.5)"/><rect class="cls-13" x="134.31" y="74.14" width="3.37" height="40.36" transform="translate(13.47 -16.94) rotate(7.5)"/><circle class="cls-5" cx="209.8" cy="107.68" r="31.83"/><circle class="cls-5" cx="279.02" cy="107.68" r="31.83"/><circle class="cls-5" cx="348.24" cy="107.68" r="31.83"/><circle class="cls-5" cx="155.42" cy="123.6" r="15.16"/><circle class="cls-5" cx="91.94" cy="123.6" r="15.16"/><rect class="cls-4" x="46.37" y="98.68" width="10.04" height="9.38"/><rect class="cls-10" x="38.23" y="95.46" width="1.89" height="13.64"/><rect class="cls-9" x="40.12" y="100.63" width="6.25" height="4.97"/><path class="cls-2" d="M61,106.55v18.94h7.77V106.55Zm4.18,13.73h-.53a1,1,0,0,1-.59-.2l-.71-.55a1,1,0,0,1-.36-.75v-6.16a.91.91,0,0,1,.28-.66l.77-.78a.94.94,0,0,1,.67-.27h.47a.94.94,0,0,1,.94.94v7.49A.94.94,0,0,1,65.14,120.28Z"/><path class="cls-3" d="M68.73,106.55v17.62h6.92V106.55Zm4.59,12.22-.59.47a1.15,1.15,0,0,1-.69.24h-.29a1.12,1.12,0,0,1-1.12-1.12v-7.14a1.12,1.12,0,0,1,1.12-1.12H72a1.14,1.14,0,0,1,.8.33l.67.67a1.1,1.1,0,0,1,.32.79v6A1.08,1.08,0,0,1,73.32,118.77Z"/><path class="cls-6" d="M56.42,133.41a1,1,0,0,1-.91-.57l-5.26-11.09-4.59-7.32a2.66,2.66,0,0,1-.09-2.67L49,105.5a1,1,0,0,1,1.76,1l-3.38,6.26a.67.67,0,0,0,0,.66l4.56,7.25q.08.12.15.27L57.32,132a1,1,0,0,1-.47,1.33A1,1,0,0,1,56.42,133.41Z"/><path class="cls-7" d="M54,129.81a1,1,0,0,1-.41-1.91l3.69-1.64a.67.67,0,0,0,.39-.61l-.2-10.5a.62.62,0,0,0-.39-.59.63.63,0,0,0-.7.12,2.69,2.69,0,0,1-2.3.65L52.61,115a2.66,2.66,0,0,1-1.15-4.68l5.37-4.31a1,1,0,0,1,1.41.16,1,1,0,0,1-.16,1.4l-5.37,4.31a.66.66,0,0,0-.23.67.63.63,0,0,0,.51.48l1.47.29a.65.65,0,0,0,.57-.16,2.65,2.65,0,0,1,4.44,1.91l.2,10.5a2.66,2.66,0,0,1-1.58,2.48l-3.68,1.63A1,1,0,0,1,54,129.81Z"/><polygon class="cls-14" points="171.86 13.9 174.83 13.87 174.83 64.74 171.86 64.74 171.86 13.9"/><polygon class="cls-14" points="205.21 13.6 208.18 13.57 208.18 64.74 205.21 64.74 205.21 13.6"/><polygon class="cls-14" points="214.3 13.51 217.27 13.48 217.27 64.74 214.3 64.74 214.3 13.51"/><polygon class="cls-14" points="257.83 13.12 260.8 13.1 260.8 64.74 257.83 64.74 257.83 13.12"/><polygon class="cls-14" points="296.86 12.77 299.83 12.75 299.83 64.74 296.86 64.74 296.86 12.77"/><polygon class="cls-14" points="336.78 12.4 336.78 64.74 333.81 64.74 333.81 12.43 336.78 12.4"/><path class="cls-15" d="M366.35,47.86a1,1,0,0,1-1-1V41.19a2.69,2.69,0,0,0-.78-1.9l-.12-.12a4.64,4.64,0,0,1-1.37-3.3V13.41a1,1,0,0,1,2,0V35.87a2.73,2.73,0,0,0,.78,1.89l.12.12a4.62,4.62,0,0,1,1.37,3.31v5.67A1,1,0,0,1,366.35,47.86Z"/><path class="cls-6" d="M92.26,68.27,84.68,87.6H65.92a3.47,3.47,0,0,1-3.47-3.47V43.45A18.76,18.76,0,0,1,81.21,24.69h55.7A5.12,5.12,0,0,1,142,29.81V68.53Z"/><rect class="cls-3" x="111.17" y="9.16" width="22.26" height="3.03"/><path class="cls-10" d="M68.07,77.42a1,1,0,0,1-1-1V43.93a14,14,0,0,1,14-14h56.18a1,1,0,0,1,0,2H81.05a12,12,0,0,0-12,12V76.42A1,1,0,0,1,68.07,77.42Z"/><rect class="cls-9" x="74.51" y="40.99" width="58.55" height="5.31"/><rect class="cls-8" x="56.42" y="96.88" width="18.66" height="12.69"/><circle class="cls-4" cx="468.14" cy="123.6" r="2.08"/><rect class="cls-5" x="433.2" y="121.09" width="3.02" height="5.02" rx="1.51"/><rect class="cls-5" x="453.9" y="121.09" width="3.02" height="5.02" rx="1.51"/><rect class="cls-5" x="438.6" y="119.15" width="12.92" height="8.91"/><rect class="cls-5" x="424.53" y="113.12" width="41.05" height="3.16"/><circle class="cls-16" cx="445.06" cy="123.6" r="4.23"/><polygon class="cls-8" points="438.27 99.74 435.46 101.72 414.58 115.08 391.5 119.15 391.69 117.54 394.56 106.61 438.27 99.74"/><polygon class="cls-2" points="451.52 70.17 450.81 83.51 449.12 89.09 383.46 99.4 380.51 91.2 369.16 69.03 451.52 70.17"/><polygon class="cls-7" points="449.12 89.09 447.97 92.91 438.27 99.74 394.56 106.61 394.72 105.98 383.92 100.68 383.46 99.4 449.12 89.09"/><path class="cls-17" d="M400.47,105.91h-9a7.64,7.64,0,0,1-7.63-7.64V92.66a2.77,2.77,0,0,0-.47-1.55l-14-21.28a1,1,0,0,1,.28-1.38,1,1,0,0,1,1.39.28L385,90a4.8,4.8,0,0,1,.8,2.65v5.61a5.64,5.64,0,0,0,5.63,5.64h9a1,1,0,0,1,0,2Z"/><path class="cls-18" d="M413.23,106.54a1,1,0,0,1-.56-.17,1,1,0,0,1-.27-1.39l.76-1.13A11.61,11.61,0,0,1,422,98.79l13.73-.85a50,50,0,0,0,18-4.58l5.38-2.5a1,1,0,0,1,.85,1.82l-5.39,2.5a52,52,0,0,1-18.76,4.75l-13.72.85a9.62,9.62,0,0,0-7.33,4.19l-.75,1.13A1,1,0,0,1,413.23,106.54Z"/><path class="cls-19" d="M414.49,113h-2.78a1,1,0,1,1,0-2h2.78a10.69,10.69,0,0,0,9.48-5.73,7.7,7.7,0,0,1,6.83-4.12h36.11a1,1,0,0,1,0,2H430.8a5.7,5.7,0,0,0-5.06,3.05A12.67,12.67,0,0,1,414.49,113Z"/><polygon class="cls-3" points="90.49 64.74 78.21 97.55 58.41 97.55 58.41 101.72 81.9 101.72 94.03 71.81 439.63 71.81 439.63 64.74 90.49 64.74"/><path class="cls-20" d="M479.66,49.46V22.68H505.6l-2-8H371.71L378.06,44l11.19,20.22a17.83,17.83,0,0,1,2.23,8.62V83.51h89.8l24.79-1.08v-33Zm-45.31,3.91H407.93v-21h26.42Zm34.34,0H442.28v-21h26.41Z"/><circle class="cls-16" cx="348.24" cy="107.68" r="6.51"/><circle class="cls-16" cx="279.02" cy="107.68" r="6.51"/><circle class="cls-16" cx="209.8" cy="107.68" r="6.51"/><rect class="cls-21" x="473.94" y="83.62" width="11.87" height="24"/><circle class="cls-16" cx="155.42" cy="123.6" r="3.89"/><circle class="cls-16" cx="91.94" cy="123.6" r="3.89"/><rect class="cls-22" x="467.91" y="14.72" width="1.56" height="65.76"/><rect class="cls-22" x="441.49" y="14.72" width="1.56" height="65.76"/><rect class="cls-22" x="433.56" y="14.72" width="1.56" height="65.76"/><g class="cls-23"><path class="cls-4" d="M410.24,76.67a6.34,6.34,0,0,0,6.34-6.54A6.52,6.52,0,0,0,410,64H375.66l3.51,6.35v6.34Z"/><path class="cls-24" d="M410.24,64H395.81v2.76a2.81,2.81,0,0,0,2.81,2.81h12.21a2.81,2.81,0,0,0,2.81-2.81V65A6.36,6.36,0,0,0,410.24,64Z"/></g><path class="cls-1" d="M479.66,49.46V22.68H505.6l-2-8H371.71L378.06,44l11.19,20.22a17.83,17.83,0,0,1,2.23,8.62V83.51h89.8l24.79-1.08v-33Zm-45.31,3.91H407.93v-21h26.42Zm34.34,0H442.28v-21h26.41Z"/><polygon class="cls-25" points="507.28 80.47 389.94 80.47 389.94 85.44 474.7 85.44 507.28 83.23 507.28 80.47"/><path class="cls-9" d="M341.73,9.16c.66,0,169.47,3,169.47,3v2.53H341.73Z"/><path class="cls-26" d="M304.41,32H165.61a1,1,0,0,1,0-2h138.8a1.64,1.64,0,0,0,1.53-1l.18-.45a3.64,3.64,0,0,1,3.4-2.3H437.18a1,1,0,0,1,0,2H309.52a1.65,1.65,0,0,0-1.54,1l-.18.45A3.63,3.63,0,0,1,304.41,32Z"/><path class="cls-16" d="M399,32.13h-31.9a3.7,3.7,0,0,1-2.24-.77l-8.67-6.72a1.69,1.69,0,0,0-1-.35H157.8a1,1,0,0,1,0-2H355.21a3.7,3.7,0,0,1,2.24.77l8.67,6.72a1.69,1.69,0,0,0,1,.35H399a1,1,0,0,1,0,2Z"/><path class="cls-27" d="M377.2,57.41H377l-12.94-.88a2.81,2.81,0,0,1-2.61-2.8V45.45a2.81,2.81,0,0,1,1.88-2.65,2.82,2.82,0,0,1,3.7,2.26l.47,3.37a.79.79,0,0,0,.43.6.78.78,0,0,0,.74,0L375,45.68a2.85,2.85,0,0,1,2.32-.13c6.63,2.58,11.48,4.4,12.14,4.57a1,1,0,0,1-.13,2c-.26,0-.65,0-12.73-4.7a.82.82,0,0,0-.67,0l-6.35,3.35a2.81,2.81,0,0,1-4.08-2.09l-.47-3.37a.83.83,0,0,0-.38-.58.81.81,0,0,0-1.22.69v8.27a.81.81,0,0,0,.75.8l12.94.89h.14l7.82-.84a.49.49,0,0,0,.2-.05L391,52.32a1,1,0,0,1,1.29.58,1,1,0,0,1-.58,1.29L386,56.38a2.76,2.76,0,0,1-.7.17l-7.82.84Z"/><path class="cls-5" d="M168.94,45.85H134.7a1,1,0,0,1,0-2h34.24a1.74,1.74,0,0,0,.45-.06l5.1-1.44a3.72,3.72,0,0,1,1-.14H395.12a1,1,0,0,1,0,2H175.49a1.63,1.63,0,0,0-.45.06l-5.11,1.44A3.29,3.29,0,0,1,168.94,45.85Z"/></svg>