<svg id="Layer_1" data-name="Layer 1" xmlns="http://www.w3.org/2000/svg" viewBox="0 0 14761 2298"><defs><style>.cls-1{fill:#231f20;}.cls-2{fill:#1a1a1a;}.cls-3{fill:#1f2621;}.cls-4{fill:#4d4c45;}.cls-5{fill:#29332b;}.cls-6{fill:#181818;}.cls-7{fill:#484848;}.cls-8{fill:#303030;}.cls-9{fill:#8e8e8e;}.cls-10{fill:#bc7646;}.cls-11{fill:#7f7f7f;}.cls-12,.cls-14,.cls-16,.cls-17,.cls-19,.cls-22,.cls-23,.cls-25{fill:none;}.cls-12{stroke:#333;}.cls-12,.cls-13,.cls-14,.cls-16,.cls-17,.cls-19,.cls-20,.cls-22,.cls-23,.cls-25{stroke-miterlimit:10;}.cls-12,.cls-14{stroke-width:20px;}.cls-13{fill:#fff;stroke:#fff;stroke-width:6px;}.cls-14,.cls-19{stroke:#8a5e56;}.cls-15{fill:#534554;}.cls-16,.cls-17{stroke:#f84b07;}.cls-16,.cls-19,.cls-22{stroke-width:40px;}.cls-17{stroke-width:30px;}.cls-18{fill:#f84b07;}.cls-20{fill:#544a34;stroke:#68361a;stroke-width:16px;}.cls-21{fill:#39b54a;}.cls-22{stroke:#4c390a;}.cls-23,.cls-25{stroke:#000;}.cls-23{stroke-width:2px;}.cls-24{fill:#ed1c24;}.cls-25{stroke-width:7px;}</style></defs><title>Train</title><rect class="cls-1" x="275" y="1720" width="7475" height="117" transform="translate(8025 3557) rotate(180)"/><path class="cls-2" d="M12809.58,704c93.3-.13,168.26-461.2,168.26-461.2l-168.93.25-168.93.25S12716.29,704.09,12809.58,704Z"/><path class="cls-3" d="M12683,846.45h252.45c5.51,0,10-3.55,10-7.88l-52-187.25c0-4.68-2.79-8.51-6.19-8.51h-156c-3.4,0-6.19,3.83-6.19,8.51l-52,187.25C12673,842.9,12677.51,846.45,12683,846.45Z"/><path class="cls-4" d="M13149.35,1228.07c0,66.36,221.57,120.16,221.57,120.16V1107.92S13149.35,1161.72,13149.35,1228.07Z"/><path class="cls-4" d="M13131.08,834.1c0,45.56,91.13,82.49,91.13,82.49v-165S13131.08,788.54,13131.08,834.1Z"/><path class="cls-5" d="M12293.87,952.44h857.57c7.87,0,14.32-4.75,14.32-10.56l17.57-107.78-17.57-107.78c0-5.8-6.45-10.55-14.32-10.55l-737.32,111.51c-7.87,0-14.32,10.55-14.32,10.55l-120.24,104C12279.56,947.69,12286,952.44,12293.87,952.44Z"/><path class="cls-6" d="M9921.86,1837.33h3233.67c32.19,0,58.53-18,58.53-40.06l71.85-569.2-71.85-248.94c0-22-26.34-40.06-58.53-40.06H9921.86c-32.19,0-58.53,18-58.53,40.06v818.14C9863.33,1819.3,9889.67,1837.33,9921.86,1837.33Z"/><rect class="cls-7" x="7741.5" y="587.73" width="2868.28" height="1249.59" transform="translate(18351.28 2425.06) rotate(180)"/><rect class="cls-8" x="7742" y="858" width="2868" height="584"/><rect class="cls-9" x="7860" y="720.69" width="2622.42" height="683.31" rx="12" transform="translate(18342.42 2124.69) rotate(180)"/><rect class="cls-10" x="10034.13" y="1163.64" width="606.2" height="165.07" rx="75.43" transform="translate(20674.45 2492.35) rotate(180)"/><path class="cls-8" d="M10563.75,1441.6h2527.12c25.16,0,45.75-8.59,45.75-19.08l45.92-192a12.45,12.45,0,0,0,0-5.82l-45.92-192c0-10.5-20.59-19.08-45.75-19.08H10563.75c-25.16,0-45.75,8.58-45.75,19.08v389.88C10518,1433,10538.59,1441.6,10563.75,1441.6Z"/><path class="cls-1" d="M7742,588l2671.36-.27h550l-275,61.26-82.14,18.29L7742,682Z"/><rect class="cls-7" x="7742" y="1441.6" width="5732.77" height="151.64" transform="translate(21216.77 3034.84) rotate(180)"/><polygon class="cls-1" points="14095 1837.33 7742 1837.33 7742 1593.24 13390.25 1593.24 14095 1837.33"/><path class="cls-11" d="M12837.77,1013.56h48a10.27,10.27,0,0,1,10.27,10.27v204.25a0,0,0,0,1,0,0h-68.57a0,0,0,0,1,0,0V1023.83A10.27,10.27,0,0,1,12837.77,1013.56Z" transform="translate(25723.56 2241.63) rotate(-180)"/><path class="cls-11" d="M12695.63,1013.56h40.06a5,5,0,0,1,5,5v118.77a0,0,0,0,1,0,0h-50.06a0,0,0,0,1,0,0V1018.56a5,5,0,0,1,5-5Z" transform="translate(25431.32 2150.88) rotate(180)"/><path class="cls-11" d="M10685.93,1181.27h68.57a0,0,0,0,1,0,0v250.06a10.27,10.27,0,0,1-10.27,10.27h-48a10.27,10.27,0,0,1-10.27-10.27V1181.27A0,0,0,0,1,10685.93,1181.27Z" transform="translate(21440.43 2622.87) rotate(180)"/><rect class="cls-11" x="10685.93" y="1181.27" width="2210.13" height="46.8" rx="7.01" transform="translate(23582 2409.35) rotate(-180)"/><path class="cls-11" d="M10618.69,1084.52h2122a0,0,0,0,1,0,0v52.81a0,0,0,0,1,0,0h-2122a7,7,0,0,1-7-7v-38.78A7,7,0,0,1,10618.69,1084.52Z" transform="translate(23352.38 2221.85) rotate(180)"/><path class="cls-11" d="M12985.12,1013.56h48a10.27,10.27,0,0,1,10.27,10.27V1321.6a0,0,0,0,1,0,0h-68.57a0,0,0,0,1,0,0V1023.83a10.27,10.27,0,0,1,10.27-10.27Z" transform="translate(26018.27 2335.16) rotate(180)"/><path class="cls-11" d="M10833.29,1274.8h68.57a0,0,0,0,1,0,0v156.53a10.27,10.27,0,0,1-10.27,10.27h-48a10.27,10.27,0,0,1-10.27-10.27V1274.8A0,0,0,0,1,10833.29,1274.8Z" transform="translate(21735.14 2716.4) rotate(-180)"/><rect class="cls-11" x="10833.29" y="1274.8" width="2210.13" height="46.8" rx="5.26" transform="translate(23876.71 2596.4) rotate(-180)"/><line class="cls-12" x1="13334.88" y1="1596.19" x2="13587.44" y2="1836.68"/><line class="cls-12" x1="13211.15" y1="1593.52" x2="13272.25" y2="1837.28"/><line class="cls-12" x1="13087.42" y1="1593.49" x2="13087.37" y2="1837.27"/><line class="cls-12" x1="12903.37" y1="1593.45" x2="12903.32" y2="1837.26"/><line class="cls-12" x1="12719.32" y1="1593.42" x2="12719.27" y2="1837.24"/><line class="cls-12" x1="12535.27" y1="1593.38" x2="12535.23" y2="1837.23"/><line class="cls-12" x1="12351.23" y1="1593.34" x2="12351.18" y2="1837.22"/><line class="cls-12" x1="12167.18" y1="1593.31" x2="12167.13" y2="1837.2"/><line class="cls-12" x1="11983.13" y1="1593.27" x2="11983.08" y2="1837.19"/><line class="cls-12" x1="11799.08" y1="1593.24" x2="11799.03" y2="1837.18"/><line class="cls-12" x1="11615.03" y1="1593.2" x2="11614.99" y2="1837.17"/><line class="cls-12" x1="11430.99" y1="1593.17" x2="11430.94" y2="1837.15"/><line class="cls-12" x1="11246.94" y1="1593.13" x2="11246.89" y2="1837.14"/><line class="cls-12" x1="11062.89" y1="1593.09" x2="11062.84" y2="1837.13"/><line class="cls-12" x1="10878.84" y1="1593.06" x2="10878.79" y2="1837.11"/><line class="cls-12" x1="10694.79" y1="1593.02" x2="10694.75" y2="1837.1"/><line class="cls-12" x1="10510.75" y1="1592.99" x2="10510.7" y2="1837.09"/><line class="cls-12" x1="10326.7" y1="1592.95" x2="10326.65" y2="1837.07"/><line class="cls-12" x1="10142.65" y1="1592.92" x2="10142.6" y2="1837.06"/><line class="cls-12" x1="9958.6" y1="1592.88" x2="9958.55" y2="1837.05"/><line class="cls-12" x1="9774.55" y1="1592.84" x2="9774.51" y2="1837.03"/><line class="cls-12" x1="9590.5" y1="1592.81" x2="9590.46" y2="1837.02"/><line class="cls-12" x1="9406.46" y1="1592.77" x2="9406.41" y2="1837.01"/><line class="cls-12" x1="9222.41" y1="1592.74" x2="9222.36" y2="1837"/><line class="cls-12" x1="9038.36" y1="1592.7" x2="9038.31" y2="1836.98"/><line class="cls-12" x1="8854.31" y1="1592.67" x2="8854.26" y2="1836.97"/><line class="cls-12" x1="8670.26" y1="1592.63" x2="8670.22" y2="1836.96"/><line class="cls-12" x1="8486.22" y1="1592.59" x2="8486.17" y2="1836.94"/><line class="cls-12" x1="8302.17" y1="1592.56" x2="8302.12" y2="1836.93"/><line class="cls-12" x1="8118.12" y1="1592.52" x2="8118.07" y2="1836.92"/><line class="cls-12" x1="7934.07" y1="1592.49" x2="7934.02" y2="1836.91"/><line class="cls-12" x1="7753.02" y1="1592.45" x2="7752.98" y2="1836.89"/><rect class="cls-1" x="3480" y="635" width="3138.01" height="1193.98" rx="12" transform="translate(10098.01 2463.98) rotate(180)"/><rect class="cls-1" x="275.15" y="635" width="3040.85" height="1193.98" rx="12" transform="translate(3591.15 2463.98) rotate(180)"/><rect class="cls-13" x="5737.88" y="1074" width="590.72" height="358.86" rx="3" transform="translate(12066.47 2506.86) rotate(180)"/><rect class="cls-13" x="4738.02" y="1073.78" width="590.72" height="347.89" rx="3" transform="translate(10066.76 2495.46) rotate(180)"/><rect class="cls-13" x="3738.16" y="1073.78" width="590.72" height="347.89" rx="3" transform="translate(8067.05 2495.46) rotate(180)"/><rect class="cls-1" x="6682" y="1057.47" width="968.82" height="779.32" rx="48.58" transform="translate(14332.82 2894.26) rotate(180)"/><line class="cls-12" x1="7651" y1="1228.5" x2="6682" y2="1228.5"/><rect class="cls-13" x="2537.26" y="1043" width="590.72" height="359.18" rx="3" transform="translate(5665.25 2445.18) rotate(180)"/><rect class="cls-13" x="1537.41" y="1043.1" width="590.72" height="347.89" rx="3" transform="translate(3665.53 2434.08) rotate(180)"/><rect class="cls-13" x="537.55" y="1043.1" width="590.72" height="347.89" rx="3" transform="translate(1665.82 2434.08) rotate(180)"/><path class="cls-14" d="M9444,1059c-3.69-35.41,10.22-51.23,10.22-51.23"/><path class="cls-14" d="M8748.31,1059c-3.69-35.41,10.22-51.23,10.22-51.23"/><path class="cls-14" d="M9356.22,1062.76c3.69-35.42-10.22-51.23-10.22-51.23"/><path class="cls-14" d="M8616.87,1053.27c3.69-35.42-10.23-51.23-10.23-51.23"/><line class="cls-14" x1="9454.24" y1="1213.92" x2="9454.24" y2="1378.99"/><rect class="cls-15" x="9319.53" y="1058.96" width="178.99" height="168.87" rx="39.33" transform="translate(18818.04 2286.8) rotate(180)"/><circle class="cls-16" cx="9409.65" cy="1149.09" r="66.09"/><line class="cls-17" x1="9452.87" y1="1099.1" x2="9372.37" y2="1192.3"/><path class="cls-18" d="M9350.76,1097a156.23,156.23,0,0,1,15.78,3.82c2.57.7,5,1.53,7.51,2.29s4.9,1.64,7.31,2.51a4,4,0,0,1,1.42,1.05c.38.44.69.95,1,1.43a9,9,0,0,0,1.18,1.29l1.25,1.22,5,4.87,10,9.75,40,39,40,39,20,19.49,2.66,7.27c.84,2.48,1.73,4.91,2.51,7.44,1.62,5,3.14,10.12,4.38,15.53-5.43-1.09-10.59-2.48-15.64-4-2.55-.72-5-1.54-7.5-2.31l-7.34-2.47-20-19.49-40-39-40-39-10-9.74-5-4.87-1.25-1.22a9.09,9.09,0,0,0-1.33-1.14c-.48-.34-1-.64-1.45-1a4,4,0,0,1-1.09-1.39c-.93-2.38-1.81-4.81-2.7-7.23s-1.73-4.91-2.49-7.45A158.47,158.47,0,0,1,9350.76,1097Z"/><path class="cls-19" d="M9763,1342.31c.19-33.21.19-97.72.19-97.72-5.06-37.95-34.15-78.42-34.15-78.42-11.39-46.17-12-89.81-12-89.81a177.77,177.77,0,0,0-24-55.66"/><path class="cls-19" d="M9713.67,1368.24c.2-33.21.2-97.72.2-97.72-5.06-37.94-34.15-78.42-34.15-78.42-11.39-46.17-12-89.81-12-89.81a177.77,177.77,0,0,0-24-55.66"/><path class="cls-19" d="M8301.14,1342.31c-.2-33.21-.2-97.72-.2-97.72,5.06-37.95,34.15-78.42,34.15-78.42,11.39-46.17,12-89.81,12-89.81a177.77,177.77,0,0,1,24-55.66"/><path class="cls-19" d="M8346.67,1380.89c-.19-33.21-.19-97.72-.19-97.72,5.06-38,34.15-78.42,34.15-78.42,11.39-46.17,12-89.81,12-89.81a177.77,177.77,0,0,1,24-55.66"/><line class="cls-14" x1="9361.9" y1="1227.83" x2="9361.9" y2="1392.91"/><line class="cls-14" x1="8724.38" y1="1208.23" x2="8724.38" y2="1373.3"/><rect class="cls-15" x="8589.66" y="1053.27" width="178.99" height="168.87" rx="39.33" transform="translate(17358.31 2275.41) rotate(180)"/><circle class="cls-16" cx="8679.79" cy="1143.4" r="66.09"/><line class="cls-17" x1="8723" y1="1093.4" x2="8642.5" y2="1186.61"/><path class="cls-18" d="M8620.9,1091.29a155.38,155.38,0,0,1,15.77,3.82c2.57.7,5,1.53,7.52,2.29s4.9,1.64,7.3,2.51a4,4,0,0,1,1.42,1c.39.44.7,1,1,1.42a8.54,8.54,0,0,0,1.17,1.3l1.25,1.22,5,4.87,10,9.75,40,39,40,39,20,19.49,2.67,7.27c.84,2.48,1.72,4.91,2.51,7.44,1.62,5,3.14,10.12,4.37,15.53-5.43-1.09-10.58-2.48-15.64-4-2.55-.72-5-1.54-7.5-2.31l-7.34-2.47-20-19.49-40-39-40-39-10-9.74-5-4.87-1.25-1.22a9,9,0,0,0-1.33-1.14c-.49-.34-1-.64-1.46-1a4,4,0,0,1-1.08-1.39c-.93-2.38-1.81-4.82-2.71-7.24s-1.72-4.9-2.49-7.45A154.85,154.85,0,0,1,8620.9,1091.29Z"/><line class="cls-14" x1="8632.04" y1="1222.14" x2="8632.04" y2="1387.21"/><path class="cls-19" d="M9130.3,1398c-.2-33.21-.2-97.72-.2-97.72,5.06-38,34.16-78.43,34.16-78.43,11.38-46.17,12-89.81,12-89.81a177.67,177.67,0,0,1,24-55.65"/><path class="cls-19" d="M9087.29,1364.44c-.19-33.2-.19-97.71-.19-97.71,5.06-38,34.15-78.43,34.15-78.43,11.38-46.17,12-89.81,12-89.81a177.79,177.79,0,0,1,24-55.65"/><path class="cls-19" d="M8963.57,1390.38c.19-33.21.19-97.72.19-97.72-5.06-38-34.15-78.43-34.15-78.43-11.38-46.17-12-89.81-12-89.81a177.52,177.52,0,0,0-24-55.65"/><path class="cls-19" d="M9014.17,1377.73c.19-33.21.19-97.72.19-97.72-5.06-38-34.15-78.43-34.15-78.43-11.39-46.17-12-89.81-12-89.81a177.79,177.79,0,0,0-24-55.65"/><rect class="cls-15" x="9704.7" y="1095.65" width="41.11" height="73.37" rx="12" transform="translate(19450.51 2264.66) rotate(180)"/><path class="cls-15" d="M9807.79,1095.65v1.7l-.06,1.59-.12,3.18-.47,5.86-.12,1.46-.16,1.36-.32,2.73c-.25,1.74-.5,3.5-.78,5.17-.1.35-.27.55-.51.58a4.52,4.52,0,0,1-.8-.08,1.16,1.16,0,0,0-.7.16l-.65.28-2.57,1.15-5.14,2.29-20.55,9.17-20.56,9.17L9744,1146l-4.39-2.93c-1.51-1.08-3-2-4.53-3.24l-4.64-3.49-2.41-2-1.21-1-1.25-1.07,0-1.65.07-1.55.16-3.11.5-5.78c.14-2,.4-3.69.61-5.54l.75-5.22,10.28-4.59,20.55-9.17,20.56-9.17,5.14-2.29,2.57-1.15.64-.28a1.24,1.24,0,0,0,.58-.42,4.21,4.21,0,0,1,.48-.65.67.67,0,0,1,.77,0c1.44.9,2.91,1.9,4.37,2.87l2.24,1.58,1.13.8,1.16.88,4.67,3.57,2.45,2,1.23,1Z"/><rect class="cls-15" x="9110.81" y="1095.65" width="41.11" height="73.37" rx="12"/><path class="cls-15" d="M9048.83,1095.65l1.27-1.13,1.23-1,2.45-2,4.67-3.57,1.16-.88,1.13-.8,2.25-1.58c1.46-1,2.93-2,4.36-2.87.33-.16.59-.17.77,0a3.65,3.65,0,0,1,.48.65,1.29,1.29,0,0,0,.58.42l.65.28,2.57,1.15,5.14,2.29,20.55,9.17,20.56,9.17,10.27,4.59.75,5.22c.21,1.85.47,3.56.62,5.54l.5,5.78.15,3.11.08,1.55,0,1.65-1.25,1.07-1.21,1-2.41,2-4.64,3.49c-1.57,1.21-3,2.16-4.53,3.24l-4.38,2.93-10.28-4.59-20.56-9.17-20.55-9.17-5.14-2.29-2.57-1.15-.64-.28a1.19,1.19,0,0,0-.71-.16,4.52,4.52,0,0,1-.8.08c-.24,0-.41-.23-.51-.58-.28-1.67-.52-3.43-.78-5.17l-.32-2.73-.16-1.36-.12-1.46-.47-5.86-.12-3.18-.06-1.59Z"/><rect class="cls-15" x="8318.97" y="1077.3" width="41.11" height="73.37" rx="12"/><path class="cls-15" d="M8257,1077.3l1.28-1.12,1.22-1,2.45-2,4.67-3.56,1.17-.89,1.12-.79,2.25-1.58c1.46-1,2.93-2,4.36-2.87.33-.17.59-.17.77,0a4,4,0,0,1,.48.64,1.22,1.22,0,0,0,.59.43l.64.28,2.57,1.15,5.14,2.29,20.55,9.17,20.56,9.17,10.28,4.59.75,5.22c.2,1.84.46,3.56.61,5.54l.5,5.78.15,3.1.08,1.56,0,1.65-1.25,1.07-1.2,1-2.42,2-4.64,3.5c-1.57,1.21-3,2.16-4.52,3.24l-4.39,2.93-10.28-4.59-20.55-9.17-20.56-9.17-5.14-2.29-2.57-1.15-.64-.29a1.25,1.25,0,0,0-.7-.15,3.77,3.77,0,0,1-.8.07c-.25,0-.42-.22-.52-.57-.28-1.67-.52-3.43-.77-5.17l-.33-2.73-.16-1.37-.12-1.46-.46-5.85-.13-3.18L8257,1079Z"/><rect class="cls-15" x="8950.17" y="1112.72" width="41.11" height="73.37" rx="12" transform="translate(17941.44 2298.81) rotate(180)"/><path class="cls-15" d="M9034.6,1121.26l.13,1.64.08,1.53.17,3,.1,5.6,0,1.39,0,1.3,0,2.6c-.07,1.65-.12,3.33-.21,4.91,0,.33-.17.5-.37.51a3.46,3.46,0,0,1-.65-.14.75.75,0,0,0-.56.09l-.49.22-2,.88-4,1.75-15.89,7-15.89,7-8,3.52a206,206,0,0,1-16-14.77,203.26,203.26,0,0,1-.15-21.81l7.94-3.52,15.89-7,15.89-7,4-1.76,2-.88.5-.22a.74.74,0,0,0,.44-.35,3.16,3.16,0,0,1,.33-.58c.14-.14.35-.11.63.07,1.23,1,2.51,2.08,3.77,3.15l2,1.72,1,.86,1,1,4.07,3.84,2.15,2.17,1.08,1.08Z"/><rect class="cls-20" x="10090.1" y="1194.94" width="179.62" height="102.21" rx="46.71" transform="translate(20359.82 2492.1) rotate(-180)"/><rect class="cls-21" x="7962.49" y="1300.04" width="79.06" height="45.54" transform="translate(16004.04 2645.61) rotate(180)"/><ellipse class="cls-22" cx="8483.1" cy="953" rx="123.32" ry="126.15"/><line class="cls-23" x1="8483.29" y1="847.46" x2="8483.29" y2="866.41"/><line class="cls-23" x1="8569.09" y1="953.32" x2="8584.69" y2="953.32"/><line class="cls-23" x1="8398.6" y1="953.32" x2="8381.89" y2="953.32"/><path d="M8558.89,892.29c-2.07,2.28-4.19,4.48-6.29,6.72l-6.39,6.6c-4.26,4.4-8.59,8.7-12.92,13l-6.53,6.41-6.58,6.33-6.67,6.23-6.72,6.15c-2.24,2-4.4,4.19-6.53,6.4s-4.2,4.48-6.36,6.64a63.48,63.48,0,0,1-6.82,6,59.52,59.52,0,0,1-7.67,4.86,97.86,97.86,0,0,1-17.19,7.21,87.5,87.5,0,0,1-9.51,2.35,58.62,58.62,0,0,1-10.47,1.07l-1.78-2.42a57.72,57.72,0,0,1,4.11-9.68,88.63,88.63,0,0,1,5.07-8.4,97.65,97.65,0,0,1,12-14.28,60.35,60.35,0,0,1,6.92-5.89,64.7,64.7,0,0,1,7.75-4.74c2.71-1.41,5.49-2.73,8.22-4.11s5.44-2.8,8.06-4.34l7.86-4.59,7.92-4.53,8-4.41,8-4.34c5.39-2.87,10.78-5.73,16.24-8.5l8.2-4.15c2.76-1.33,5.49-2.71,8.28-4Z"/><ellipse class="cls-22" cx="9577.27" cy="953.63" rx="123.32" ry="126.15"/><line class="cls-23" x1="9577.46" y1="848.1" x2="9577.46" y2="867.04"/><line class="cls-23" x1="9663.26" y1="953.95" x2="9678.86" y2="953.95"/><line class="cls-23" x1="9492.77" y1="953.95" x2="9476.05" y2="953.95"/><path d="M9651.19,894.8c-2.07,2.36-4.21,4.65-6.31,7l-6.4,6.85c-4.27,4.57-8.61,9-12.95,13.52l-6.55,6.67-6.6,6.59-6.69,6.49-6.74,6.42c-2.25,2.13-4.42,4.37-6.54,6.66s-4.22,4.64-6.38,6.9a66.45,66.45,0,0,1-6.85,6.27,61.26,61.26,0,0,1-7.72,5.14,101.38,101.38,0,0,1-17.34,7.83,94.12,94.12,0,0,1-9.62,2.68,59.27,59.27,0,0,1-10.6,1.4l-1.83-2.37a59.58,59.58,0,0,1,4.06-9.89,91.63,91.63,0,0,1,5-8.63,101.85,101.85,0,0,1,12-14.78,63.06,63.06,0,0,1,6.94-6.15,66.2,66.2,0,0,1,7.81-5c2.73-1.51,5.53-2.93,8.29-4.41s5.48-3,8.11-4.63l7.92-4.88,8-4.82,8.06-4.7,8.11-4.64c5.43-3.06,10.87-6.12,16.37-9.08l8.26-4.45c2.79-1.44,5.54-2.92,8.36-4.32Z"/><ellipse class="cls-22" cx="9228.15" cy="954.27" rx="123.32" ry="126.15"/><line class="cls-23" x1="9228.34" y1="848.73" x2="9228.34" y2="867.67"/><line class="cls-23" x1="9314.14" y1="954.59" x2="9329.74" y2="954.59"/><line class="cls-23" x1="9143.65" y1="954.59" x2="9126.93" y2="954.59"/><path d="M9311.43,903.74c-9.4,8.7-19.12,16.9-28.82,25.15l-7.32,6.1-7.37,6-7.44,5.92-7.49,5.83c-5,3.85-9.66,8.3-14.49,12.45a64,64,0,0,1-15.92,10.17,106.28,106.28,0,0,1-18.34,6.31,92.6,92.6,0,0,1-10,1.84,60.84,60.84,0,0,1-10.85.48l-1.59-2.54a61.77,61.77,0,0,1,5.16-9.56,93.87,93.87,0,0,1,6-8.19A105.23,105.23,0,0,1,9206.64,950a64.13,64.13,0,0,1,16.08-9.91c5.85-2.53,11.87-4.78,17.52-7.62l8.52-4.2,8.56-4.12,8.64-4,8.68-3.93c11.65-5.13,23.27-10.31,35.2-15Z"/><ellipse class="cls-22" cx="8876.5" cy="953" rx="123.32" ry="126.15"/><line class="cls-23" x1="8876.68" y1="847.46" x2="8876.68" y2="866.41"/><line class="cls-23" x1="8962.49" y1="953.32" x2="8978.09" y2="953.32"/><line class="cls-23" x1="8792" y1="953.32" x2="8775.28" y2="953.32"/><path d="M8957.32,891c-2,2.18-4.1,4.28-6.16,6.43l-6.25,6.29c-4.17,4.2-8.41,8.3-12.65,12.4l-6.39,6.11-6.44,6-6.52,5.92-6.58,5.84c-2.19,2-4.31,4-6.39,6.11s-4.11,4.27-6.22,6.33a59.91,59.91,0,0,1-6.68,5.7,55.2,55.2,0,0,1-7.5,4.54,91.37,91.37,0,0,1-16.81,6.53,83.56,83.56,0,0,1-9.3,2,55.91,55.91,0,0,1-10.23.69l-1.74-2.45a56.44,56.44,0,0,1,4-9.43,83,83,0,0,1,5-8.11,91.35,91.35,0,0,1,11.73-13.7,55.17,55.17,0,0,1,6.76-5.58,58.88,58.88,0,0,1,7.59-4.41c2.65-1.31,5.36-2.52,8-3.78s5.31-2.59,7.87-4l7.7-4.27,7.74-4.2,7.82-4.08,7.88-4c5.27-2.65,10.54-5.29,15.88-7.83l8-3.82c2.7-1.23,5.37-2.5,8.1-3.69Z"/><rect class="cls-24" x="8125.07" y="1302.57" width="79.06" height="45.54" transform="translate(16329.19 2650.67) rotate(180)"/><rect class="cls-1" x="7858" y="1342.5" width="2626" height="69.41" rx="12" transform="translate(18342 2754.41) rotate(180)"/><line class="cls-25" x1="10003" y1="721" x2="10003.5" y2="1071.5"/><path d="M9982.65,1092h37.86c1.64,0,3-2.67,3-5.94l-10.46-39.62c0-3.27-1.35-5.94-3-5.94H9995.6c-1.64,0-3,2.67-3,5.94Z"/></svg>