<svg xmlns="http://www.w3.org/2000/svg" viewBox="0 0 1937.18 554.78"><defs><style>.cls-1,.cls-2,.cls-3,.cls-4,.cls-5,.cls-6{fill:none;stroke-miterlimit:10;}.cls-1,.cls-2{stroke:#c2c1c0;}.cls-1{stroke-width:2px;}.cls-2{stroke-width:0.75px;}.cls-3{stroke:#787878;stroke-width:3px;}.cls-4{stroke:#e4e5e6;stroke-width:6px;}.cls-4,.cls-5,.cls-6{stroke-linecap:round;}.cls-5{stroke:#dcddde;stroke-width:14px;}.cls-6{stroke:#d5d7d8;stroke-width:27px;}</style></defs><title>Wires</title><g id="Layer_3" data-name="Layer 3"><path class="cls-1" d="M1818.86,173s-379.7,26.91-795.78,26.91S201.52,173,201.52,173"/><path class="cls-1" d="M1818.86,114.55S1439.16,173,1023.08,173s-821.56-58.44-821.56-58.44"/><line class="cls-2" x1="1010.19" y1="199.9" x2="1010.19" y2="219.88"/><line class="cls-2" x1="605.1" y1="192.25" x2="605.1" y2="219.88"/><line class="cls-2" x1="1414.53" y1="192.91" x2="1414.53" y2="219.88"/><line class="cls-3" x1="201.52" y1="219.88" x2="1818.86" y2="219.88"/><line class="cls-4" x1="200" y1="155.35" x2="200" y2="106.86"/><line class="cls-5" x1="200" y1="377.37" x2="200" y2="155.35"/><line class="cls-6" x1="200" y1="447.92" x2="200" y2="356.77"/><line class="cls-4" x1="1818.86" y1="155.35" x2="1818.86" y2="106.86"/><line class="cls-5" x1="1818.86" y1="377.37" x2="1818.86" y2="155.35"/><line class="cls-6" x1="1818.86" y1="447.92" x2="1818.86" y2="356.77"/></g></svg>