<svg xmlns="http://www.w3.org/2000/svg" viewBox="0 0 864 1207"><defs><style>.cls-1{fill:#fff;}</style></defs><title>Artboard 35</title><g id="tree"><path class="cls-1" d="M65.91,1048.26c35.59-.47,88.67-1,153.37-.84,58.25.11,101,.66,115.14.84,65.45.79,179.88,1.34,393.93,0C709.59,1036.84,694,184.17,683,181.09c-10.46-2.92-14.15-2.74-23.53-6.73C647.31,169.21,641.86,164,633,164.7c-6.4.51-11.32,3.84-14.29,6.3-3.7-2.22-9.33-5.74-16-10.5-9.4-6.76-11.82-9.56-16.17-9.25-5.86.42-6.76,5.85-14.92,9-6.21,2.42-11.85,1.69-15.13,1.26-13.49-1.77-15.66-10.86-32.77-21.43-14.87-9.19-27.78-11.32-36.14-12.61-13.59-2.09-19.34-.09-22.69,1.68-5.45,2.89-5.53,5.68-11.77,9.67-1.88,1.2-6.32,3.78-21.85,6.3-15.82,2.56-17.92,1-28.15,3.36-3.44.81-3.82,1.13-20.17,7.56-2.91,1.15-13.71,5.25-35.3,13.45-13.64,5.18-15.87,6-20.17,6.72-3.34.57-9.66,1.38-23.53,0-19.22-1.9-20.26-4.77-32.77-5.46a91,91,0,0,0-31.94,4.2c-14,4.46-24.35,858.56-31.09,864.23a72.9,72.9,0,0,1-12.19,2.94,78,78,0,0,1-22.69,0c-13.84-1.68-10.94.89-43.7.42-22-.31-25.45-1.95-37.82-.42A122.58,122.58,0,0,0,65.91,1048.26Z"/></g></svg>