<svg xmlns="http://www.w3.org/2000/svg" viewBox="0 0 882 1628"><defs><style>.cls-1{fill:#fff;}</style></defs><title>Artboard 48</title><g id="tree"><path class="cls-1" d="M202.19,739.07c1.92-15.49,4.6-33.19,8.4-52.14,3.26-16.26,6.75-30.43,10.09-42.49,0,0,3.2-16.19,9.66-83.05q7.77-27,15.55-54.08L258.7,502l2.1,39.6q3.17,6.75,6.31,13.51l5,67.6,4.62,17.38,5,53.11q9.46-68.07,18.91-136.15,2.52-23.67,5-47.32l8.4-31.87,1.26,47.32q6.93-49.24,13.87-98.5l5.46-3.86L336,380.33l5-2.9L353.67,363l9.66-120.71Q369,222,374.68,201.69l8.4,85.94L393.17,334l4.2,70.49,8.4,61.8,2.1,45.39q10.51-21.72,21-43.45,2.75-24.63,5.47-49.25l14.7-27q3.36-21.24,6.73-42.49l4.2,32.83,5.46,21.25.84,26.07,10.51,20.28,5.88,65.66,7.14-1.93,3.78,23.18q3,15,5.89,29.93l8-27q6.3,19.32,12.61,38.63l10.5-6.76q8.63,47.33,17.23,94.64l.84,42.48q6.2,17.55,12.4,35.09,10.61-13.2,21.22-26.39c6.23,21.54,12.46,728.08,18.7,749.63l-408.23,2C195.88,1454,199,754,202.19,739.07Z"/></g></svg>