<svg xmlns="http://www.w3.org/2000/svg" viewBox="0 0 2401 1189"><defs><style>.cls-1{fill:#fff;}</style></defs><title>Artboard 55 copy 11</title><g id="tree"><path class="cls-1" d="M2129.27,1079.08l-36-31-64-22q-24.51-89-49-178-20.51-39-41-78l-36,48q-15.51-47-31-94l-18-28q-7,26-14,52l-27-101-30-65-27-10q-8.51,18-17,36-8-33-16-66-7-16.5-14-33l-19-13-9,49-30-119-28-13-17,18-12-58q-10.43-9.6-21-20-5.62-5.52-11-11l-8,13q-5-8.49-10-17-2.51-25-5-50l-15-3-14-21q-11-13-22-26l-18-8q-1-9-2-18l-15-17-15.75,11.25-13.86-3.78-15.55-1.68-4.2-7.56-11.77,3.78-7.56.84-8.2-1.89-4.62-2.94-7.14-4.63-3.78.84-8,6.31-4.2.42-3.36-2.1-5.88.84a41,41,0,0,1-14.71,2.52l-8.4,2.52-4.21,2.94-10.08-4.2-10.51-5.46-17.64-9.67-7.15-5-14.28-10.51q-2.17-1.57-4.33-3.17l1.17-1.24-4.2-2.94-7.14-2.1-6.3-3.78-6.31-3.36-8-4.21h-6.72l-.42,8-3.79,1.26L1201,161l-3.78,2.1-5.46-.84-3.79-2.1-1.68,2.94-7.14.84-2.1,3.78-7.56,10.93-4.63,5.88-4.2,2.94c-.38,1-.76,2-1.13,3l-2.86,2.22-4.2-1.69-4.2-4.2-5.89-6.3-2.79-2.15-7.08-11.51L1122,160.11l-8-4.2-8.4-5.88-.42,4.62-4.63,4.62-5.88,7.14-7.56,14.29-5.89.84-5.46,2.94c-1.25,1.73-2.49,3.46-3.74,5.18l-5.08-1.82-10.51,2.94-6.72,11.77-12.41,9.53-9,18-9-16-19,13-10,10-10,22-21-3q-4,9.51-8,19l-11,2q-5.5,21-11,42l-18-17-17,9q-3.51,13-7,26l-18,21-14,2q-7,15.51-14,31-7-12-14-24l-25,7-27,45q-26.5,107-53,214l-27-85-20,7-17,17q.5,14,1,28l-13,31-35,48-40,77q-15.51,73.5-31,147l-32,31-46-14-21,89-42,35-41,8-17-12-37,42-47,30Z"/></g></svg>