<svg xmlns="http://www.w3.org/2000/svg" viewBox="0 0 2401 1550"><defs><style>.cls-1{fill:#fff;}</style></defs><title>Artboard 55 copy 17</title><g id="tree"><path class="cls-1" d="M845.27,1291.68l29,9q18.5-63.51,37-127l12,32q8-106.5,16-213l26,12q-8.5-86.5-17-173,15.5-46.5,31-93l27-240q17.34-42.49,34.7-85l2.1,39.59,6.3,13.52q2.52,33.79,5.05,67.6l4.62,17.38,20.23,18.91c-.35-31.81.68-65.91,3.72-102q2.05-24.42,5-47.31,4.2-15.95,8.41-31.87l1.26,47.32,13.86-98.5,5.47-3.86,1.26-42.49,5-2.9,12.6-14.48q4.85-60.36,9.67-120.71l11.34-40.56q4.21,43,8.41,86l10.08,46.35q2.1,35.23,4.21,70.49L1188,378l2.1,45.39q10.5-21.73,21-43.46l5.46-49.25q7.37-13.51,14.71-27l6.72-42.49q2.1,16.41,4.21,32.83l5.46,21.24.84,26.08,10.5,20.28q2.94,32.82,5.89,65.66l7.14-1.93,3.78,23.17,5.88,29.94q4-13.51,8-27l12.6,38.63,10.51-6.76q8.61,47.31,17.23,94.63l.84,42.49,12.39,35.09,21.22-26.4q7.38,74.84,14.75,149.66,5,21.5,10,43-2,36.5-4,73,17,94.5,34,189l36-30,60,255,49-7,18,81-778,11Q824.76,1342.68,845.27,1291.68Z"/></g></svg>