<svg xmlns="http://www.w3.org/2000/svg" viewBox="0 0 3516 1189"><defs><style>.cls-1{fill:#fff;}</style></defs><title>Artboard 55 copy 4</title><g id="Mountain"><path class="cls-1" d="M2173.32,243.05l-1.55-1.83c-1.87-2.19-5.26-6.19-9.51-11.13q-5.52-6.41-11-12.68h.23l-16.8-18.91-.56-.35q-23.08-25.6-45.66-48.81L2051,129.18l-52.53,46.64-50,64.71-70.17-69.75-23.54-8-106.31,89.92a159.23,159.23,0,0,1-37.18-6.51,158.22,158.22,0,0,1-17.23-6.31l-80.26,11.35-25.21,18.07-66.6-.63-32.36-15.55-32.77,20.17c-6-.61-14.67-1.5-25.22-2.52-18.54-1.81-27.85-2.71-29.83-2.52-23.5,2.17-28.72,19.54-45.06,18.63-6.88-.38-16.88-4.07-28.47-20.73l-47.91-18.49-35.29,13-4.21.84a39.41,39.41,0,0,1-7.14,5.47,40,40,0,0,1-8.4,3.78q-4.8,23.06-9.58,46.11l-21,9-17,12-32-58-23,24q-11.51,18-23,36-3.51,26.5-7,53l-17-13-9,33q-4,14.5-8,29c-8.06,29.23-3.39,39.31-9.75,43.31-5.27,3.31-16.22,2-41.25-18.31q-11.5-29-23-58l-28,28-43,27q-13,54-26,108-14.5-17.5-29-35-14.5,25-29,50l-59,61q-14,59-28,118l-66,94-62,38-45,62q-3.51,22.5-7,45l2223-5q-20.51-46-41-92l-36,7q-35.51-118.5-71-237l-30,11-25,23q-38.51-127-77-254l-47-64-32-14q-17.51,44.51-35,89l-21-114q-15.51-20-31-40c-.5-5.93-3.25-30.5-24-49a72.71,72.71,0,0,0-35-17c-6.07,24.11-17.95,31-22,33C2225.47,298,2174.22,244.13,2173.32,243.05Z"/></g></svg>