<svg xmlns="http://www.w3.org/2000/svg" viewBox="0 0 850.27 1187.82"><defs><style>.cls-1{fill:#fff;}</style></defs><title>Artboard 35 copy 4</title><g id="tree"><path class="cls-1" d="M709.64,1028.14c-5.11-2.11-10.23-851.21-15.35-853.31l-13-24L663.84,161l-4.2-7.57-10.31-3.78-5,7.14-8,2.53-8.81-6.1-4.22-10.29-6.72,5.46-12.18,7.77-10.93-4.41-10.09,8.83-15.53,2.31-9.68-15.76-11.77-13.45-16.79,9.88a65.41,65.41,0,0,0-20.18-11.14l-8.6-11.76-7.15-2.1q-6-3.59-12.6-7.15-4.05-2.19-8-4.2h-6.72l-.42,8-6.53-2.52-6.5,10.51-9.24-2.94-3.17,6.72L434.83,124a116.14,116.14,0,0,1-22.48,28.78,45.2,45.2,0,0,1-14.28-12.18q-4.94-6.84-9.88-13.66l-10.5-6.72-8-4.21-8.4-5.88a43.58,43.58,0,0,0-10.93,16.39l-7.56,14.29-11.34,3.78-3.75,5.18-5.08-1.82-10.5,2.94q-1.59,7.77-3.17,15.55l-10.28-5-6.95,13-9.24-4.62c-6.16,6.86-12.33,860.73-18.49,867.59l451.94,2.1Z"/></g></svg>