<svg xmlns="http://www.w3.org/2000/svg" viewBox="0 0 864 1207"><defs><style>.cls-1{fill:#fff;}</style></defs><title>Artboard 35 copy</title><g id="tree"><path class="cls-1" d="M699.83,1042.19c-6.85-3.93-10.4-2.77-15-4.9-10.62-4.94-11.44-867.32-15-866.73-3,.48-2.25,10.85-6.6,12-1.44.38-3.13-.35-6.32-3.25-10-9.05-11.26-18.12-14.82-18-3.93.16-4.76,11.35-10.69,12.11-.53.07-1.38,0-4.75-1.5-8.51-3.89-9.62-10-17-10.21-3.28-.1-5,1-8.73,0-2.9-.81-4.54-2.26-8.31-5.31-8.6-7-7.53-5.54-10.4-8.17-10-9.16-11.72-16.1-15.7-15.49-3.4.52-5.55,6.13-7.58,5.28-.35-.14-.55-.42-.92-1.09a26,26,0,0,1-2.4-6.26c-1.09-4-5.56-3.59-13.89-10.69a30.24,30.24,0,0,1-4.08-3.88c-5.15-6.29-3.88-11.73-6.85-12.78-3.25-1.14-5.52,5.12-10.94,4.89-3.37-.14-4.16-2.63-10.81-6.53-4.81-2.82-5.34-2.07-8.73-4.08-9.72-5.77-8.4-13.75-16.16-16.55a14.7,14.7,0,0,0-11.77.84c-4.7,2.71-3.84,6.87-8.82,9.67-4.28,2.4-6.14,0-10.95,2.51-5.31,2.76-5,6.71-8.51,7.26-4.78.75-7-6.36-12.9-7.25-3.23-.49-7.87.87-14.28,8.4-8.17,11.7-12.81,13.31-15.55,12.61-5.63-1.44-6.26-13.46-10.5-13.45-3.48,0-4.41,8.09-12.19,11.77a17.16,17.16,0,0,1-5.45,1.52c-3.51,1.66-8.41,3.22-13.46,1.84-6.53-1.78-8.57-7.17-12.18-6.3-4.45,1.07-3.06,9.65-9.39,12.86-3.52,1.79-5.6,0-9.36,2s-5.51,5.79-6.47,8.67a11.66,11.66,0,0,1-8.2.73c-6.15-2.07-6.78-10-9.87-10.4-2.56-.29-6.45,4.76-12.53,24.2A19.14,19.14,0,0,0,277,158c-9.4-12.78-15.87-14.95-20.17-14.29-7.39,1.15-11.24,11.12-22.89,14.07-1.25.32-3.42.77-7,1.81-8,2.33-8.26,3.33-10.86,3.49-7.46.48-9.37-7.43-15.12-6.76s-4.62,8.55-14.25,14.67c-4.94,3.14-6.77,2-14,6.69-3.6,2.33-4.65,3.57-7.87,4.9-4.54,1.87-7.83,1.62-11.8,1.89,0,0-10.14,847.7-20.17,852.46a46.53,46.53,0,0,0-15.54,12.19l589.2-2A37,37,0,0,0,699.83,1042.19Z"/></g></svg>