<svg xmlns="http://www.w3.org/2000/svg" viewBox="0 0 1333 1628"><defs><style>.cls-1{fill:#fff;}</style></defs><title>Artboard 48 copy 4</title><g id="Mountain"><path class="cls-1" d="M1114.55,696.15q-11.07-13.1-22.08-25.64h.23q-8.4-9.45-16.81-18.91l-.55-.35q-23.1-25.6-45.67-48.81l-37.4-20.17-52.52,46.64-50,64.71-70.17-69.75-23.53-8L689.73,705.82A158.09,158.09,0,0,1,635.31,693l-80.26,11.35-25.21,18.07-66.6-.63-32.35-15.55-32.78,20.17-25.21-2.52q-14.58-1.47-29.84-2.52c-25.7-1.76-50.26-2.36-73.53-2.11l-47.9-18.48-35.3,13-4.2.84a39.65,39.65,0,0,1-15.55,9.25c-25.07,20-50.14,725.06-75.21,745.09l1087.89-6.73C1159.43,1435.91,1137.9,723.78,1114.55,696.15Z"/></g></svg>