<svg xmlns="http://www.w3.org/2000/svg" viewBox="0 0 612.27 1187.82"><defs><style>.cls-1{fill:#fff;}</style></defs><title>Artboard 35 copy 7</title><g id="tree"><path class="cls-1" d="M544.07,1037.38c-3.36-6.3-6.73-859.61-10.09-865.91l-7.14.42L514.23,155.5l-6.72-1.68L500,146.68l-7.57-.42-8-16q-5.72-18.18-10.74-38-1.64-6.53-3.12-12.92l-4.46-8.82-8.47-11.16q-2.89-5.58-5.8-11.16l-8.47-7.06-6.24-9.4q-2.69-5.58-5.35-11.16-2.46-4.41-4.91-8.81l-4,8.81L415.69,33c-.29,2.15-.59,4.31-.89,6.46l2.68,2.35L413,45.29,403.66,57l-21,37.6-17.85,15.27-4.62,2.52-5.88,3.78-10.21,3L323,111.1q-2.91-5.88-5.8-11.76l-3.57-5.28c-.74-1.77-1.49-3.53-2.23-5.29l-14.27-2.94Q296,82.89,294.85,80l-6-4.4L270.55,98.46l-18.73,2.35L238,114.33l-8.92,1.17-3.57,11.17-10.25,7.64-3.12,3.47-1.29.92c-4.21,3-6,6.18-10.5,8a22.1,22.1,0,0,1-9.46,1.47L185,159.07l-.81,2.42-14.11,10-5.46,8c-1.54,1.27-3.08,849.53-4.62,850.79l1.26,5.88-.42,3.36Z"/></g></svg>