<svg xmlns="http://www.w3.org/2000/svg" viewBox="0 0 612.27 1187.82"><defs><style>.cls-1{fill:#fff;}</style></defs><title>Artboard 35 copy 6</title><g id="tree"><path class="cls-1" d="M546.78,1028.14l-8-.42c-2.8-4.77-5.61-856.53-8.41-861.29l-13.86-3.78L501,161l-4.2-7.57L485,157.18l-7.56.84-8.2-1.89-4.62-2.94-7.14-4.62-3.78.84-8,6.3-4.2.42-3.36-2.1-5.88.84a38.86,38.86,0,0,1-5.89,1.68,40.08,40.08,0,0,1-8.82.84l-8.4,2.53L405,162.86l-10.08-4.21-10.51-5.46-17.64-9.66-7.15-5L345.3,128,341,124.81l1.17-1.24-4.2-2.94-7.14-2.1-6.3-3.79-6.31-3.36-8-4.2h-6.72l-.42,8-3.79,1.26-5.46,4.63-3.78,2.1-5.46-.84-3.79-2.1-1.68,2.94L272,124l-2.1,3.78-7.56,10.93-4.63,5.88-4.2,2.94-1.14,3-2.85,2.22-4.2-1.68-4.2-4.2-5.89-6.3-2.79-2.15-7.08-11.51-10.51-6.72-8-4.21-8.4-5.88-.42,4.62c-1.55,1.54-3.09,3.09-4.63,4.63l-5.88,7.14L180,140.8l-5.89.84-5.46,2.94c-1.25,1.72-2.49,3.45-3.74,5.18l-5.08-1.82-10.51,2.94-6.72,11.77-6.72-1.26q-1.47,6.3-3,12.6l-7.14,1.26c-2.1,5.05-4.2,857.09-6.3,862.13l433.64,2.1Z"/></g></svg>