<svg xmlns="http://www.w3.org/2000/svg" viewBox="0 0 3516 1189"><defs><style>.cls-1{fill:#fff;}</style></defs><title>Artboard 55 copy 3</title><g id="ground"><path class="cls-1" d="M1455.68,206.81c.88.33,5.19,2.13,7.87.57,1.47-.86,1.38-2,2.87-2.95a3.83,3.83,0,0,1,4,.42,5.11,5.11,0,0,1,2.47-3.15,5.35,5.35,0,0,1,3.78,0c1.3.33,2.93,1,7.53,4.41,2.8,2.1,2.75,2.28,3.66,2.62,2.74,1,5.43.26,7.3-.3,3.34-1,3.14-1.94,6.55-3.16a15.9,15.9,0,0,1,8.15-1.05,13.83,13.83,0,0,1,6.19,2.74,6.37,6.37,0,0,1,3.74-1.27,6.88,6.88,0,0,1,4.59,2.11,11.19,11.19,0,0,1,4.3-3.37,9.27,9.27,0,0,1,6.32,0,15.92,15.92,0,0,1,5.74,2.95,5.18,5.18,0,0,1,2.74-1.9,5.59,5.59,0,0,1,4.72,1.06,9.11,9.11,0,0,1,3.26-3.16,9.38,9.38,0,0,1,5.92-1l2.87.84,2.14,2.31a8,8,0,0,1,2.94-.84,8.37,8.37,0,0,1,5,1.26,8.48,8.48,0,0,1,2.22-3.15c3.25-2.83,8.22-2.38,11.48-.84a12,12,0,0,1,4.37,3.57,4.54,4.54,0,0,1,1.68-1.26c1.75-.73,2.65.36,3.78-.42.77-.52.8-1.32,2.44-2.67l.07-.06c1.17-.9,3.32-.27,4.64.63,1.77,1.21,1.45,2.5,2.54,2.73,1.27.28,1.93-1.47,4.59-2.94a11,11,0,0,1,5-1.47c2.51,0,3.09,1.07,6.43,1.47a12.4,12.4,0,0,0,1.57.1c1.36,0,2.32-.09,2.44-.1,1-.07,3.16,3,8.09,16.56l11-3q5.49,7,11,14,2.49,9.51,5,19l6,13,17-17,10,7a44.85,44.85,0,0,0,7,12,45.56,45.56,0,0,0,15,12l9,19,14-14q6.49,14,13,28h16q11,26,22,52,7,12.51,14,25l87,43,63,23.68,45-44.68,68,30q43,32,86,64,15.49,33,31,66l42,102,35-26,28-23,43,33q2.49,52.5,5,105l36,100,47,39q12,22,24,44,32.68,59.69,66,119l-1667,8,43-40,34-9,56-33q38-76.5,76-153,23.49-61,47-122,3.49-52,7-104l21-59,15-5,28,9,23,18q4-56.49,8-113l46-71,44-13q3.49-17,7-34l23-17,16-16,11-23,12-21,9-9,12-1,7-7,7-11,13-6,14,11C1443.05,210.24,1452,205.44,1455.68,206.81Z"/></g></svg>