<svg xmlns="http://www.w3.org/2000/svg" viewBox="0 0 2401 1189"><defs><style>.cls-1{fill:#fff;}</style></defs><title>Artboard 55 copy 12</title><g id="tree"><path class="cls-1" d="M918.27,270l13-2,15-18,14-8,14-42.78L986.07,203l6.2-7,9.56,5.95,6.44-10.95c.33-1.67.66-3.34,1-5l6-8c2.78,5.59,5.47,11.59,8,18,.73,1.86,1.43,3.71,2.09,5.53a24.13,24.13,0,0,0,3.91-4.53,39.76,39.76,0,0,0,3-6,26.64,26.64,0,0,1,6-8l3,8a14.56,14.56,0,0,0,5,5,14.77,14.77,0,0,0,6,2l6-5,7.85,15.67a47.88,47.88,0,0,0,10.09-4.2A49.34,49.34,0,0,0,1092.27,190l12.09-.65a33.34,33.34,0,0,0,7.14-5,34.08,34.08,0,0,0,8.77-13.3h5l5-6,6-2,4,1.34q5-14.67,10-29.34l8-12,10,7q.49,9.5,1,19l6,9,3-4q2,4.5,4,9h4l4,3L1192,169l7.14.84,2.1,3.78,7.57,10.92,4.62,5.89,4.2,2.94,1.14,3,2.85,2.22,4.21-1.68,4.2-4.2,5.88-6.31,3.39-6.4q3.24-3.63,6.49-7.25l10.5-6.73,8-10,8.38-.06.42,4.62,4.62,4.62,5.88,7.15,7.57,14.28,5.88.84,5.46,3q1.88,2.58,3.74,5.18l5.09-1.82,10.5,2.94,6.72,11.76,4.74,24.54,13,18q6.49-11.5,13-23l26,17h16q5,19.5,10,39,.49,9,1,18,10-11,20-22l9,20,18,7,10,10,9,15,9,36,8-9q2.49,7.5,5,15l8,1,9,8c-2.42,7.18-2,9.37-1,10,1.35.89,3.55-1.56,7-2,4.63-.59,8.93,2.78,12,6q16-9.51,32-19,8.49,20,17,40l21,169,19-18q9.49-7,19-14,7,15,14,30,14,73.5,28,147,2.49-26,5-52l14-7,11,22q5.49,29,11,58l12,110q3.49-5.5,7-11,4-5.5,8-11l14,14q4,14.49,8,29v23l19,21q14.49,46,29,92l31,7,35,16,49,39,28,14-1546,12q14-18.51,28-37l21-20,25,3,14,18,37-6,40-34q14-60.51,28-121l17-12,30,13q2-21,4-42l9-24,12-8q5.49,16,11,32l21-98q8-41,16-82l17-12,11,23,15-111-3-120q5-5.5,10-11,2-9,4-18l7-1,5-6q7-25,14-50,5-30.51,10-61l17,9q11.49-9.51,23-19l6-30,16-9,20,19Q911.77,281.53,918.27,270Z"/></g></svg>