<svg xmlns="http://www.w3.org/2000/svg" viewBox="0 0 850.27 1187.82"><defs><style>.cls-1{fill:#fff;}</style></defs><title>Artboard 35 copy 5</title><g id="tree"><path class="cls-1" d="M207.17,1028.14l8-.42c2.8-4.77,5.6-856.53,8.4-861.29l13.87-3.78L253,161l4.21-7.57,11.76,3.78,7.57.84,8.19-1.89,4.62-2.94,7.15-4.62,3.78.84,8,6.3,4.2.42,3.36-2.1,5.89.84a39.05,39.05,0,0,0,5.88,1.68,40.08,40.08,0,0,0,8.82.84l8.41,2.53,4.2,2.94,10.09-4.21,10.5-5.46,17.65-9.66,7.14-5L408.66,128l4.32-3.17-1.17-1.24,4.2-2.94,7.15-2.1,6.3-3.79,6.3-3.36,8-4.2h6.72l.42,8,3.78,1.26,5.46,4.63,3.78,2.1,5.47-.84,3.78-2.1,1.68,2.94L482,124l2.1,3.78q3.8,5.46,7.57,10.93l4.62,5.88,4.2,2.94,1.14,3,2.85,2.22,4.21-1.68,4.2-4.2,5.88-6.3,2.79-2.15,7.09-11.51,10.5-6.72,8-4.21,8.41-5.88.42,4.62,4.62,4.63,5.88,7.14q3.78,7.14,7.57,14.29l5.88.84,5.46,2.94q1.88,2.58,3.74,5.18l5.09-1.82,10.5,2.94,6.72,11.77,6.73-1.26,2.94,12.6,7.14,1.26c2.1,5.05,4.2,857.09,6.31,862.13l-433.65,2.1Z"/></g></svg>