<svg xmlns="http://www.w3.org/2000/svg" viewBox="0 0 612.27 1686.82"><defs><style>.cls-1{fill:#fff;}</style></defs><title>Artboard 35 copy 11</title><g id="tree"><path class="cls-1" d="M88.86,598.62,112,620.47Q121.63,567.73,131.3,515l13,23.11,1.32-67.77q5-56.25,10-112.5,7.35,21.23,14.71,42.44,2.87,25.14,5.72,50.26L191.81,452l.26,97.07q1.55,17,3.1,34,8-68.91,16-137.83V413.31l12.6-51.69,7,72.51q3-41.29,6-82.59l13.29-19.77,1.26-42.49L269,271.9l-2.37-63.23L279.21,99l13,23.11,6.15,74.46q5,23.18,10.09,46.36l4.2,70.49,8.4,61.8,2.1,45.39q10.51-21.74,21-43.46,2.74-24.61,5.47-49.25L354,288.51l14.29-13,7,15.73,5.46,21.24.84,26.08,10.51,20.27L398,424.47a97.25,97.25,0,0,1,16.81,51.18l8-27q6.3,19.32,12.61,38.63l10.5-6.76q8.63,47.31,17.23,94.63L462,615.42q7.18,18.65,14.35,37.27l21.22-26.4c6.23,21.55,12.46,890.09,18.7,911.64l-439.17.55C81,1507.53,84.94,629.57,88.86,598.62Z"/></g></svg>