<svg xmlns="http://www.w3.org/2000/svg" viewBox="0 0 1549 1401"><defs><style>.cls-1{fill:#fff;}</style></defs><title>Artboard 34</title><g id="Mountain"><path class="cls-1" d="M1286.75,245.15l-52.56-21.55-16.35-44.84-39.08-24.37-44.76-19L1081.47,182l-50,64.71q-17.33-25.59-34.66-51.16l-5,29-55-66.81-42.86,32.77-62.4,68.39L777,246.1l-39.49-9.35-61.77,37.81-70.81.32-32.36-15.55L539.84,279.5,514.63,277q-12.09-32.09-24.16-64.19l-79.21,59.57-47.91-18.49-44.74,37.92L250.12,288c-5.68,16.35-11.35,879.71-17,896.06l1087.9-6.72C1309.57,1149,1298.16,273.55,1286.75,245.15Z"/></g></svg>