<svg xmlns="http://www.w3.org/2000/svg" viewBox="0 0 3516 1189"><defs><style>.cls-1{fill:#fff;}</style></defs><title>Artboard 55 copy 8</title><g id="tree"><path class="cls-1" d="M2185,1058l-44-79-16,16-22-28-30-15-12-60-20-25q5.51-77.5,11-155l-9-79-27,42q-5.07-28-10-56-15.66-88.89-30-178l-10-18h-10l-24-17-10,11q-3.49-34.5-7-69l-4-3s.35-5.92,1-17l-12-39-9,5-4-6q-.49-6-1-12l-5-3-6-12-6,3-7-13-6-56q-4.9-13.78-9.8-27.56l-5,7.14-8,2.53-8.81-6.1-4.22-10.29-6.72,5.46L1801.25,174l-10.94-4.41-10.08,8.83-15.54,2.31q-4.83-7.89-9.68-15.76l-11.76-13.45-16.8,9.88a64.29,64.29,0,0,0-7.14-5,65.47,65.47,0,0,0-13-6.1l-8.6-11.76-7.14-2.1q-6.06-3.58-12.61-7.15c-2.69-1.46-5.35-2.85-8-4.2h-6.73l-.42,8-6.52-2.52-6.5,10.51-9.25-2.94-3.16,6.72-5.66-2.94a116.77,116.77,0,0,1-22.48,28.78,45.1,45.1,0,0,1-14.29-12.18l-9.87-13.66-10.51-6.72-8-4.2-8.41-5.89a43.7,43.7,0,0,0-10.92,16.39l-7.56,14.29-11.35,3.78-3.74,5.18-5.08-1.82L1509,168.73q-1.57,7.77-3.16,15.55l-10.29-5-6.94,13L1473,218l-9,47-36,5-44,34-39,101-29,26-12,164c-.65,7.19-3.42,37.76-4,42-.09.66-.41,3-1,3-.23,0-.36-.31-.48-.38-.93-.5-7.72,10.31-15.52,23.38q-3.49,22-7,44v63l-30,22q-3.49,75-7,150l-20,28-3,41-25,3-28,41Z"/></g></svg>