<svg xmlns="http://www.w3.org/2000/svg" viewBox="0 0 2401 1189"><defs><style>.cls-1{fill:#fff;}</style></defs><title>Artboard 55 copy 15</title><g id="Mountain"><path class="cls-1" d="M1851.77,900.86q-15.51-58.5-31-117l-28-26-15,43-30-232q-14.51-35-29-70-20.51-58.5-41-117l-33-7q-18.51-46-37-92l-38-29-58.53-148-50,64.71-34.66-51.16q-2.52,14.49-5,29l-55-66.81-42.86,32.77-62.41,68.39-58.45-48.91-39-53-58.22,117.56-57.78,5.44-43-53-35.17,52.5-16.83-27.5q-25,51.49-50,103-31,52.5-62,105l-38-54c-14.62,39.23-28.77,80.92-42,125a2034.4,2034.4,0,0,0-54,226q-23,33.5-46,67l-43-27-36,228q-14-24.5-28-49-17,65.51-34,131l-50-2q-20,39.5-40,79l1527-4q-12.51-53-25-106l-32,11Z"/></g></svg>