<svg xmlns="http://www.w3.org/2000/svg" viewBox="0 0 2401 1189"><defs><style>.cls-1{fill:#fff;}</style></defs><title>Artboard 55 copy 13</title><g id="tree"><path class="cls-1" d="M1740.27,1082l-53-20q-15.51-28-31-56l-65-65q-9.51,20.5-19,41l-21-87q-13-23.51-26-47-11-102-22-204l-15-15-10,17-36-38q-14.51-32.51-29-65-5.51-82-11-164l-20-22-17-8q-3.51,6-7,12l-6-87q-9.51-39.5-19-79l-12.4.1L1314,182.3l-10.94,4.89L1293.27,163l-17-7-18-13-16,17c-2.27,10.39-4.59,12.94-6.43,13.07-3,.22-4.72-6.17-10.57-13.07a46.94,46.94,0,0,0-16-12l-12,8-16-3-14-11q-9.51,18.5-19,37l-17.46,10.47L1109.27,191c-3.07,11.14-7.3,22.91-11.87,22.73-4.19-.15-5.69-9.92-9.87-10.39-2.57-.3-6.45,4.75-12.53,24.2-.67-1.38-6.6-13.44-10.73-12.54-3.31.72-4.94,9.61-4,21.95l-20.17-14.29q-6.9,21.68-13.78,43.34l-19,1q-8,16.5-16,33,2.49,38.5,5,77l-20.94-25.85L951.27,389l-6,84q-13,50.5-26,101l-25,12-30,53-21,166q-30.51,106-61,212l-54,69-41,16-43,9-37,31,1172-15Z"/></g></svg>