<svg xmlns="http://www.w3.org/2000/svg" viewBox="0 0 2401 1189"><defs><style>.cls-1{fill:#fff;}</style></defs><title>Artboard 55 copy 14</title><g id="tree"><path class="cls-1" d="M1638.77,1100.92l-25-36-20-28q-9.51-73.5-19-147l-12-7-10,10q-7-24.51-14-49-3.51-6-7-12l-9,12q-3.51-48.51-7-97l-35-48q-11-96.51-22-193l-16,4q-1-22.5-2-45-6.51-31-13-62-8.51-90.51-17-181l-11-25.92-13,19.92a109,109,0,0,1-6.38-27c-.91-8.94-.8-19.48-3.62-20-2.24-.42-4.43,5.82-8,5.3-1.39-.21-1.14-.89-4.3-3-2.84-1.87-3.92-2.39-4.65-3.23a7.75,7.75,0,0,1-.7-1c-3-4.84-5.11-13.19-8.53-14.87-1.92-1-5.39-.41-12.17,5.59q-3.81-18.9-7.63-37.79l-10-14q-8.26,15.54-16.51,31.1l-8.49-20.1q-5,4-10,8-8.51-22-17-44l-15-1-18,31a41,41,0,0,0-16,13,40.22,40.22,0,0,0-6,12q-3.51,5.49-7,11l-12.08,18.9-11.92-11.9-6.16,9.12c-3.9,1.9-9.49,3.78-14.84,1.88-6.15-2.18-7.38-7.7-11-8-3.45-.3-8.62,4.16-16.18,25l-12.82,10-25-8-15,21-13,1q-3.13,17.16-6,35-3.94,24.48-7,48l-10-8-21,177-24-26q-20,113-40,226-13,17.49-26,35-8.5,11-17,22-2.5,21-5,42l-28-31q-8.5,21.5-17,43-5.5,69-11,138-17,69-34,138l-22,19-27,15-26,27Z"/></g></svg>