<svg xmlns="http://www.w3.org/2000/svg" viewBox="0 0 2401 1189"><defs><style>.cls-1{fill:#fff;}</style></defs><title>Artboard 55 copy 10</title><g id="tree"><path class="cls-1" d="M761.27,1022.14l864,5-9-41-45-51q-8.51-78.49-17-157l-38,12q2-145.5,4-291-8-20-16-40l-18-18-19,4q-9.33-19.63-18.65-39.27,3.32-52.86,6.65-105.73-8-28.5-16-57c-11.4-2.3-24.38-7-29.38-17.77-2.77-5.94-1.82-11-4.62-12.23-3.42-1.53-11.14,3.11-30,30q-3.51-23.5-7-47l-20-12a187.91,187.91,0,0,0-24-75l-17,19A77.09,77.09,0,0,0,1285,111.26c-7.79-3.86-10.22-3.28-14.29-7.14-7.64-7.23-4.46-14.39-11.42-24-.83-1.13-10.31-13.92-18-12-10.39,2.59-7,29.36-26.88,41.86l-.82.5c-5.93,22.82-10.22,28.82-13.3,28.64-4.4-.26-6.07-13.09-10-13-3.42.08-6.08,9.83-8,20l-20,5q-2,26-4,52l-27,31q1,31.5,2,63l-64,10q-18.51,54-37,108-8.51,100.5-17,201l-21-24q-23,71-46,142l-27,97-9,69-44-21q-13,34-26,68l-16,29-24-9-21,23Q771.27,1006.15,761.27,1022.14Z"/></g></svg>