<svg xmlns="http://www.w3.org/2000/svg" viewBox="0 0 2401 1743"><defs><style>.cls-1{fill:#fff;}</style></defs><title>Artboard 55 copy 18</title><g id="tree"><path class="cls-1" d="M1045.72,648.24l23.11,21.85q9.68-52.74,19.33-105.47l13,23.11q.66-33.88,1.31-67.77,5-56.25,10-112.5,7.37,21.23,14.71,42.44l5.73,50.26,15.7,1.43.27,97.07,3.09,34q8-68.91,16-137.83V462.93q6.3-25.85,12.61-51.68l7,72.5,6-82.59,13.29-19.77,1.26-42.49,17.65-17.38q-1.18-31.62-2.36-63.23l12.6-109.67,13,23.11,6.15,74.46,10.08,46.36,4.2,70.49q4.21,30.9,8.41,61.8l2.1,45.39q10.5-21.74,21-43.46l5.46-49.25q2.17-19.69,4.36-39.39l14.28-13,7,15.73q2.73,10.62,5.47,21.24l.84,26.08,10.5,20.28,5.88,65.66a97,97,0,0,1,16.81,51.18q4-13.51,8-27l12.6,38.63,10.51-6.76L1420,624.73q-.54,20.16-1.1,40.32l14.34,37.26,21.22-26.4L1500,730l28,40,22-43q9.49,46.5,19,93l23-20,30,181,15-69q27.49,103,55,206l15,217,25,40q10,56,20,112l47,54,20,65-1252,6,41-49,32-37,36,7,46-55q12.29-51.79,24-105,23.78-108.06,43-212l28-72,19-17q4,32.51,8,65l41-128,6-61,31-30,20-50,23-26,13-28q1-32,2-64l13-19,14,44,12-5Q1032.37,709.13,1045.72,648.24Z"/></g></svg>