<svg xmlns="http://www.w3.org/2000/svg" viewBox="0 0 2401 1189"><defs><style>.cls-1{fill:#fff;}</style></defs><title>Artboard 55 copy 16</title><g id="tree"><path class="cls-1" d="M2049.27,1115.42l-64-119h-32q-18.51-23-37-46-14.51-53.5-29-107l-44,64q-14.51-71-29-142v-98q-11.51-68-23-136-11.51-14.5-23-29l-33,31q-11.51-40-23-80-1-36.5-2-73-14.51-22.5-29-45l-39-47q-8.51-15-17-30-4,11-8,22l-3,31-33,36-38-22-9-23-16-1q-2-7.5-4-15l-7-6-11-11-10,1-11,9q-2-8-4-16l-12.16-3.94-7.14.42q-6.3-8.19-12.61-16.39l-6.72-1.68-7.56-7.14-7.57-.42-8-16c-3.8-12.12-7.41-24.79-10.74-38q-1.63-6.53-3.12-12.92-2.22-4.41-4.46-8.82l-8.47-11.16q-2.9-5.58-5.8-11.17l-8.47-7-6.24-9.4-5.35-11.16L1352,99.8q-2,4.41-4,8.82-3.57,6.16-7.13,12.34l-.9,6.46,2.68,2.35-4.46,3.53-9.36,11.75-21,37.6L1290,197.92l-4.62,2.52-5.88,3.78-10.21,3-21.19-8.15q-2.91-5.86-5.8-11.75l-3.57-5.29-2.23-5.28-14.27-2.94q-1.11-2.94-2.23-5.88l-6-4.4-18.28,22.91L1177,188.82l-13.82,13.52-8.92,1.17-3.57,11.17-10.25,7.63-3.11,3.47-1.3.92c-4.21,3-6,6.19-10.5,8a22.1,22.1,0,0,1-9.46,1.47l-5.88,10.92-.81,2.42-14.11,10-5.46,8-33.49-16-26,18q-5.51,18.49-11,37l-14-4-15,18-14,3-11-6q-5.5,15.49-11,31l-14-3-15,14-56,50q-13-29-26-58l-29,18q-11.5,37.5-23,75-19,52-38,104l-43,26q-22,78-44,156l-49,38q-7,55-14,110-20.5-23.5-41-47l-43-5-32,49q-11.5,47.51-23,95-16.14,60.26-32.27,120.51l-62.73,12.49q-16,19-32,38Z"/></g></svg>