<svg xmlns="http://www.w3.org/2000/svg" viewBox="0 0 3516 1189"><defs><style>.cls-1{fill:#fff;}</style></defs><title>Artboard 55 copy 5</title><g id="Mountain"><path class="cls-1" d="M2085.88,275.36q-23.12-24.58-46.22-49.16L2002.26,206l-52.52,46.64-50,64.71-41.8-61.25L1806,239.64l-106.31,89.93-37.19-6.52L1615.9,278.4l-56.73,27.74-19.34,40-66.6-.63L1440.88,330l-32.78,20.17-46-39-39.5-23.95L1279.52,343l-34.24-35.19-68.71,39.81-32.8,42.12-44-42-23,56q-16,20.49-32,41l-30,128-12-24-14,9q-14.5,31-29,62l-15,166-26-36-30,5-21,100-28-10-22,18a366.78,366.78,0,0,1-27,74c-1,2.11-2.1,4.2-3.17,6.27q-21.42,32.36-42.83,64.73-25,18.5-50,37l-44-14-50,51,2147-5q-10-34-20-68l-31-31-35,20-36-7q-19-52.5-38-105l-35-34-42-11q-13-19.5-26-39-2.51-28.5-5-57l-20-26-36,33q-21.51-90.51-43-181l-24-98-29-44-22-35c-12.92-3.9-18-2.51-20,0-4.85,6,3.18,24.63,2,25a8.66,8.66,0,0,1-1.08,0l-17.92,18-23,1q-14.51-39-29-78l-29-23q-25,12.5-50,25Z"/></g></svg>