<svg xmlns="http://www.w3.org/2000/svg" viewBox="0 0 864 1207"><defs><style>.cls-1{fill:#fff;}</style></defs><title>Artboard 35 copy 2</title><g id="tree"><path class="cls-1" d="M742.2,1042.22c-10.22-4.24-14.91-1.08-20.59-5.46-7-5.37-6.24-862.09-10.08-862.13-3.33,0-4.7,6.86-7.87,6.63-3.8-.28-3.5-10.22-8.52-11.67-5.31-1.53-9.22,6.74-17,5.81-5.08-.6-8.69-4.9-11.57-8.33-6.19-7.36-5.11-12.55-9.25-13.87-4.54-1.44-6.83,4.36-13.86,3.79-2.71-.22-5.48-1.83-10.93-5.05-3.68-2.17-5.57-3.18-7.54-4.86-6.07-5.2-5.7-9.12-9.27-9.84-4.25-.87-7.15,4.22-10.09,2.76-2-1-1-3.44-3.33-7.35s-6.29-5.9-8.31-7.35c-6.24-4.47-7.93-5-9-6.19a7.4,7.4,0,0,1-.69-1c-5.29-8.41-5.54-13.91-8.53-14.88-3.71-1.2-6.45,6.23-12.17,5.59-2.27-.25-2.38-1.48-7.9-5.13-6.66-4.4-7.44-3.25-9.8-5.69-5.13-5.29-2.56-11.9-6.27-13.68-3.32-1.59-8.26,2.3-10.18,3.81-11.11,8.76-10.57,21-15.45,21.4-5.35.43-8.64-14.06-14.73-13.45-2.88.29-2.81,3.59-8.51,7.25-3.8,2.44-5.62,2.13-11,4.41a53.41,53.41,0,0,0-11.37,6.57,126.3,126.3,0,0,1-20.4-.18c-3.3-.29-6.42-.7-9.37-1.19l-9.77,2.39-9,1.61a16.72,16.72,0,0,0-11.35-4.47,15.7,15.7,0,0,0-6.73,1.69c-6.79,8.76-12.67,10.94-16.94,11.18-5.13.29-8-2-13.31-1.1-5.47,1-9.32,5.25-11.77,8.82l-21.35,17.48c-2.73,1.11-5.72,2.2-9,3.2-2.56.79-5,1.45-7.34,2a31.68,31.68,0,0,1-15.07,0c-9.22-2.38-10.94-7.77-16.61-7.13-6.49.74-6.13,8-16.87,12.94-2.94,1.34-2.32.5-10.87,3.49-8.79,3.08-10,4.18-12.26,3.5-6.15-1.87-5.1-13-9.16-13.63-6.2-1-12.63,25.09-21.93,24.73-5.4-.2-6.88-9.14-11.69-8.76-6.24.51-6,862.78-17.83,871.28a28.44,28.44,0,0,1-12.47,4.9l575.81,2A40.78,40.78,0,0,0,742.2,1042.22Z"/></g></svg>