<svg xmlns="http://www.w3.org/2000/svg" viewBox="0 0 864 1207"><defs><style>.cls-1{fill:#fff;}</style></defs><title>Artboard 35 copy 3</title><g id="tree"><path class="cls-1" d="M793.3,1044.17c-5.33-3.06-9.27-3.51-15-4.9-10-2.45-17.5-852.87-21.62-854.76-9.41-4.31-8.18-5.33-14.13-7.35-11.51-3.91-13.9.64-22.45-3.27s-9.62-10-17-10.2c-3.28-.1-5,1-8.73,0-2.78-.78-4.34-2.12-8.31-5.31s-8.1-6.43-10.4-8.17c-6.52-4.94-9.78-7.41-12.89-8.17-5.13-1.25-7.76.34-10.39-2-2.18-2-1-3.59-3.32-7.35-1.77-2.81-4-4.34-8.32-7.35s-4.66-2.42-7.07-4.49c-4.42-3.81-3.44-5.9-6.65-8.17-4.24-3-6.77.08-13.72-2.45-5.27-1.92-4.2-3.82-10.81-6.53-4.39-1.8-6.59-1.67-8.73-4.08s-1-3.91-2.91-6.54c-3.74-5.05-12.12-5-14.6-4.93a30.09,30.09,0,0,0-7.75,1.2c-5.58,1.39-6,2.63-11.4,4.39-7.63,2.48-9.34.85-13.44,3.61-3.59,2.4-2.46,3.78-6.11,6-3.92,2.38-6.24,2.58-11,4.41a42.76,42.76,0,0,0-11.37,6.57,126.31,126.31,0,0,1-20.4-.18c-3.29-.29-6.42-.7-9.36-1.19l-9.78,2.39-9,1.61a59.65,59.65,0,0,0-25.25,4,35.26,35.26,0,0,1-9.78,4.4c-4.06,1.12-6,.84-9.36,2a24.5,24.5,0,0,0-9.78,6.4l-9.78,6a34.66,34.66,0,0,1-5.7,5.2,35.86,35.86,0,0,1-11.81,5.6c-2.73,1.11-5.72,2.2-9,3.2-2.56.79-5,1.45-7.33,2a138.42,138.42,0,0,0-15.07,0,154.57,154.57,0,0,0-26.48,4c-12.05,2.8-12,4-30.14,8.8-6,1.6-8.1,2-11.59,2.91,0,0-3,.76-5.51,1.49-4.64,1.34-9,3.73-14,6.7-13.08,7.78-12.87,856-19.54,858.84-2.55,1.08-2.39.81-10,3.68-5.28,2-9.58,3.72-12.47,4.9l575.81,2A37,37,0,0,0,793.3,1044.17Z"/></g></svg>